ISO-10303-21;
HEADER;
FILE_DESCRIPTION(('FreeCAD Model'),'2;1');
FILE_NAME('Open CASCADE Shape Model','2026-10-05T15:38:19',(''),(''),
  'Open CASCADE STEP processor 7.8','FreeCAD','Unknown');
FILE_SCHEMA((
'AP242_MANAGED_MODEL_BASED_3D_ENGINEERING_MIM_LF. {1 0 10303 442 1 1 4 
}'));
ENDSEC;
DATA;
#1 = APPLICATION_PROTOCOL_DEFINITION('international standard',
  'ap242_managed_model_based_3d_engineering',2013,#2);
#2 = APPLICATION_CONTEXT('Managed model based 3d engineering');
#3 = SHAPE_DEFINITION_REPRESENTATION(#4,#10);
#4 = PRODUCT_DEFINITION_SHAPE('','',#5);
#5 = PRODUCT_DEFINITION('design','',#6,#9);
#6 = PRODUCT_DEFINITION_FORMATION('','',#7);
#7 = PRODUCT('Case Top Cut (female connectors only)',
  'Case Top Cut (female connectors only)','',(#8));
#8 = PRODUCT_CONTEXT('',#2,'mechanical');
#9 = PRODUCT_DEFINITION_CONTEXT('part definition',#2,'design');
#10 = ADVANCED_BREP_SHAPE_REPRESENTATION('',(#11,#15),#1632);
#11 = AXIS2_PLACEMENT_3D('',#12,#13,#14);
#12 = CARTESIAN_POINT('',(0.,0.,0.));
#13 = DIRECTION('',(0.,0.,1.));
#14 = DIRECTION('',(1.,0.,-0.));
#15 = MANIFOLD_SOLID_BREP('',#16);
#16 = CLOSED_SHELL('',(#17,#57,#135,#160,#185,#378,#404,#471,#521,#669,
    #722,#747,#784,#809,#833,#880,#905,#979,#1145,#1210,#1235,#1259,
    #1277,#1301,#1319,#1343,#1360,#1377,#1394,#1413,#1437,#1454,#1471,
    #1488,#1507,#1524,#1541,#1553,#1570,#1587,#1599,#1618));
#17 = ADVANCED_FACE('',(#18),#52,.F.);
#18 = FACE_BOUND('',#19,.F.);
#19 = EDGE_LOOP('',(#20,#30,#38,#46));
#20 = ORIENTED_EDGE('',*,*,#21,.F.);
#21 = EDGE_CURVE('',#22,#24,#26,.T.);
#22 = VERTEX_POINT('',#23);
#23 = CARTESIAN_POINT('',(-21.,-9.,6.));
#24 = VERTEX_POINT('',#25);
#25 = CARTESIAN_POINT('',(-21.,9.,6.));
#26 = LINE('',#27,#28);
#27 = CARTESIAN_POINT('',(-21.,-13.,6.));
#28 = VECTOR('',#29,1.);
#29 = DIRECTION('',(0.,1.,0.));
#30 = ORIENTED_EDGE('',*,*,#31,.F.);
#31 = EDGE_CURVE('',#32,#22,#34,.T.);
#32 = VERTEX_POINT('',#33);
#33 = CARTESIAN_POINT('',(-21.,-9.,1.));
#34 = LINE('',#35,#36);
#35 = CARTESIAN_POINT('',(-21.,-9.,1.));
#36 = VECTOR('',#37,1.);
#37 = DIRECTION('',(0.,0.,1.));
#38 = ORIENTED_EDGE('',*,*,#39,.T.);
#39 = EDGE_CURVE('',#32,#40,#42,.T.);
#40 = VERTEX_POINT('',#41);
#41 = CARTESIAN_POINT('',(-21.,9.,1.));
#42 = LINE('',#43,#44);
#43 = CARTESIAN_POINT('',(-21.,-13.,1.));
#44 = VECTOR('',#45,1.);
#45 = DIRECTION('',(0.,1.,0.));
#46 = ORIENTED_EDGE('',*,*,#47,.T.);
#47 = EDGE_CURVE('',#40,#24,#48,.T.);
#48 = LINE('',#49,#50);
#49 = CARTESIAN_POINT('',(-21.,9.,1.));
#50 = VECTOR('',#51,1.);
#51 = DIRECTION('',(0.,0.,1.));
#52 = PLANE('',#53);
#53 = AXIS2_PLACEMENT_3D('',#54,#55,#56);
#54 = CARTESIAN_POINT('',(-21.,-13.,1.));
#55 = DIRECTION('',(1.,0.,0.));
#56 = DIRECTION('',(0.,0.,1.));
#57 = ADVANCED_FACE('',(#58,#119),#130,.T.);
#58 = FACE_BOUND('',#59,.T.);
#59 = EDGE_LOOP('',(#60,#61,#70,#78,#87,#95,#104,#112));
#60 = ORIENTED_EDGE('',*,*,#21,.F.);
#61 = ORIENTED_EDGE('',*,*,#62,.T.);
#62 = EDGE_CURVE('',#22,#63,#65,.T.);
#63 = VERTEX_POINT('',#64);
#64 = CARTESIAN_POINT('',(-17.,-13.,6.));
#65 = CIRCLE('',#66,4.);
#66 = AXIS2_PLACEMENT_3D('',#67,#68,#69);
#67 = CARTESIAN_POINT('',(-17.,-9.,6.));
#68 = DIRECTION('',(-0.,0.,1.));
#69 = DIRECTION('',(0.,-1.,0.));
#70 = ORIENTED_EDGE('',*,*,#71,.T.);
#71 = EDGE_CURVE('',#63,#72,#74,.T.);
#72 = VERTEX_POINT('',#73);
#73 = CARTESIAN_POINT('',(17.,-13.,6.));
#74 = LINE('',#75,#76);
#75 = CARTESIAN_POINT('',(-21.,-13.,6.));
#76 = VECTOR('',#77,1.);
#77 = DIRECTION('',(1.,0.,0.));
#78 = ORIENTED_EDGE('',*,*,#79,.F.);
#79 = EDGE_CURVE('',#80,#72,#82,.T.);
#80 = VERTEX_POINT('',#81);
#81 = CARTESIAN_POINT('',(21.,-9.,6.));
#82 = CIRCLE('',#83,4.);
#83 = AXIS2_PLACEMENT_3D('',#84,#85,#86);
#84 = CARTESIAN_POINT('',(17.,-9.,6.));
#85 = DIRECTION('',(-0.,-0.,-1.));
#86 = DIRECTION('',(0.,-1.,0.));
#87 = ORIENTED_EDGE('',*,*,#88,.T.);
#88 = EDGE_CURVE('',#80,#89,#91,.T.);
#89 = VERTEX_POINT('',#90);
#90 = CARTESIAN_POINT('',(21.,9.,6.));
#91 = LINE('',#92,#93);
#92 = CARTESIAN_POINT('',(21.,-13.,6.));
#93 = VECTOR('',#94,1.);
#94 = DIRECTION('',(0.,1.,0.));
#95 = ORIENTED_EDGE('',*,*,#96,.T.);
#96 = EDGE_CURVE('',#89,#97,#99,.T.);
#97 = VERTEX_POINT('',#98);
#98 = CARTESIAN_POINT('',(17.,13.,6.));
#99 = CIRCLE('',#100,4.);
#100 = AXIS2_PLACEMENT_3D('',#101,#102,#103);
#101 = CARTESIAN_POINT('',(17.,9.,6.));
#102 = DIRECTION('',(-0.,0.,1.));
#103 = DIRECTION('',(0.,-1.,0.));
#104 = ORIENTED_EDGE('',*,*,#105,.F.);
#105 = EDGE_CURVE('',#106,#97,#108,.T.);
#106 = VERTEX_POINT('',#107);
#107 = CARTESIAN_POINT('',(-17.,13.,6.));
#108 = LINE('',#109,#110);
#109 = CARTESIAN_POINT('',(-21.,13.,6.));
#110 = VECTOR('',#111,1.);
#111 = DIRECTION('',(1.,0.,0.));
#112 = ORIENTED_EDGE('',*,*,#113,.F.);
#113 = EDGE_CURVE('',#24,#106,#114,.T.);
#114 = CIRCLE('',#115,4.);
#115 = AXIS2_PLACEMENT_3D('',#116,#117,#118);
#116 = CARTESIAN_POINT('',(-17.,9.,6.));
#117 = DIRECTION('',(-0.,-0.,-1.));
#118 = DIRECTION('',(0.,-1.,0.));
#119 = FACE_BOUND('',#120,.T.);
#120 = EDGE_LOOP('',(#121));
#121 = ORIENTED_EDGE('',*,*,#122,.F.);
#122 = EDGE_CURVE('',#123,#123,#125,.T.);
#123 = VERTEX_POINT('',#124);
#124 = CARTESIAN_POINT('',(18.2,9.,6.));
#125 = CIRCLE('',#126,2.);
#126 = AXIS2_PLACEMENT_3D('',#127,#128,#129);
#127 = CARTESIAN_POINT('',(16.2,9.,6.));
#128 = DIRECTION('',(0.,0.,1.));
#129 = DIRECTION('',(1.,0.,0.));
#130 = PLANE('',#131);
#131 = AXIS2_PLACEMENT_3D('',#132,#133,#134);
#132 = CARTESIAN_POINT('',(-21.,-13.,6.));
#133 = DIRECTION('',(0.,0.,1.));
#134 = DIRECTION('',(1.,0.,0.));
#135 = ADVANCED_FACE('',(#136),#155,.T.);
#136 = FACE_BOUND('',#137,.T.);
#137 = EDGE_LOOP('',(#138,#147,#153,#154));
#138 = ORIENTED_EDGE('',*,*,#139,.T.);
#139 = EDGE_CURVE('',#32,#140,#142,.T.);
#140 = VERTEX_POINT('',#141);
#141 = CARTESIAN_POINT('',(-17.,-13.,1.));
#142 = CIRCLE('',#143,4.);
#143 = AXIS2_PLACEMENT_3D('',#144,#145,#146);
#144 = CARTESIAN_POINT('',(-17.,-9.,1.));
#145 = DIRECTION('',(-0.,0.,1.));
#146 = DIRECTION('',(0.,-1.,0.));
#147 = ORIENTED_EDGE('',*,*,#148,.T.);
#148 = EDGE_CURVE('',#140,#63,#149,.T.);
#149 = LINE('',#150,#151);
#150 = CARTESIAN_POINT('',(-17.,-13.,1.));
#151 = VECTOR('',#152,1.);
#152 = DIRECTION('',(0.,0.,1.));
#153 = ORIENTED_EDGE('',*,*,#62,.F.);
#154 = ORIENTED_EDGE('',*,*,#31,.F.);
#155 = CYLINDRICAL_SURFACE('',#156,4.);
#156 = AXIS2_PLACEMENT_3D('',#157,#158,#159);
#157 = CARTESIAN_POINT('',(-17.,-9.,1.));
#158 = DIRECTION('',(0.,0.,1.));
#159 = DIRECTION('',(-1.,0.,0.));
#160 = ADVANCED_FACE('',(#161),#180,.T.);
#161 = FACE_BOUND('',#162,.F.);
#162 = EDGE_LOOP('',(#163,#172,#178,#179));
#163 = ORIENTED_EDGE('',*,*,#164,.T.);
#164 = EDGE_CURVE('',#40,#165,#167,.T.);
#165 = VERTEX_POINT('',#166);
#166 = CARTESIAN_POINT('',(-17.,13.,1.));
#167 = CIRCLE('',#168,4.);
#168 = AXIS2_PLACEMENT_3D('',#169,#170,#171);
#169 = CARTESIAN_POINT('',(-17.,9.,1.));
#170 = DIRECTION('',(-0.,-0.,-1.));
#171 = DIRECTION('',(0.,-1.,0.));
#172 = ORIENTED_EDGE('',*,*,#173,.T.);
#173 = EDGE_CURVE('',#165,#106,#174,.T.);
#174 = LINE('',#175,#176);
#175 = CARTESIAN_POINT('',(-17.,13.,1.));
#176 = VECTOR('',#177,1.);
#177 = DIRECTION('',(0.,0.,1.));
#178 = ORIENTED_EDGE('',*,*,#113,.F.);
#179 = ORIENTED_EDGE('',*,*,#47,.F.);
#180 = CYLINDRICAL_SURFACE('',#181,4.);
#181 = AXIS2_PLACEMENT_3D('',#182,#183,#184);
#182 = CARTESIAN_POINT('',(-17.,9.,1.));
#183 = DIRECTION('',(0.,0.,1.));
#184 = DIRECTION('',(-1.,0.,0.));
#185 = ADVANCED_FACE('',(#186),#373,.F.);
#186 = FACE_BOUND('',#187,.F.);
#187 = EDGE_LOOP('',(#188,#189,#190,#198,#207,#215,#223,#231,#239,#248,
    #256,#265,#273,#282,#290,#299,#307,#315,#323,#331,#340,#349,#357,
    #366,#372));
#188 = ORIENTED_EDGE('',*,*,#39,.F.);
#189 = ORIENTED_EDGE('',*,*,#139,.T.);
#190 = ORIENTED_EDGE('',*,*,#191,.T.);
#191 = EDGE_CURVE('',#140,#192,#194,.T.);
#192 = VERTEX_POINT('',#193);
#193 = CARTESIAN_POINT('',(11.050384638146,-13.,1.));
#194 = LINE('',#195,#196);
#195 = CARTESIAN_POINT('',(-21.,-13.,1.));
#196 = VECTOR('',#197,1.);
#197 = DIRECTION('',(1.,0.,0.));
#198 = ORIENTED_EDGE('',*,*,#199,.F.);
#199 = EDGE_CURVE('',#200,#192,#202,.T.);
#200 = VERTEX_POINT('',#201);
#201 = CARTESIAN_POINT('',(12.594127789077,-12.1,1.));
#202 = CIRCLE('',#203,5.);
#203 = AXIS2_PLACEMENT_3D('',#204,#205,#206);
#204 = CARTESIAN_POINT('',(14.3,-16.8,1.));
#205 = DIRECTION('',(0.,0.,1.));
#206 = DIRECTION('',(1.,0.,-0.));
#207 = ORIENTED_EDGE('',*,*,#208,.F.);
#208 = EDGE_CURVE('',#209,#200,#211,.T.);
#209 = VERTEX_POINT('',#210);
#210 = CARTESIAN_POINT('',(12.4,-12.1,1.));
#211 = LINE('',#212,#213);
#212 = CARTESIAN_POINT('',(-4.212522792992,-12.1,1.));
#213 = VECTOR('',#214,1.);
#214 = DIRECTION('',(1.,0.,0.));
#215 = ORIENTED_EDGE('',*,*,#216,.F.);
#216 = EDGE_CURVE('',#217,#209,#219,.T.);
#217 = VERTEX_POINT('',#218);
#218 = CARTESIAN_POINT('',(11.78,-12.1,1.));
#219 = LINE('',#220,#221);
#220 = CARTESIAN_POINT('',(11.78,-12.1,1.));
#221 = VECTOR('',#222,1.);
#222 = DIRECTION('',(1.,0.,0.));
#223 = ORIENTED_EDGE('',*,*,#224,.T.);
#224 = EDGE_CURVE('',#217,#225,#227,.T.);
#225 = VERTEX_POINT('',#226);
#226 = CARTESIAN_POINT('',(11.78,-12.,1.));
#227 = LINE('',#228,#229);
#228 = CARTESIAN_POINT('',(11.78,-12.1,1.));
#229 = VECTOR('',#230,1.);
#230 = DIRECTION('',(0.,1.,0.));
#231 = ORIENTED_EDGE('',*,*,#232,.F.);
#232 = EDGE_CURVE('',#233,#225,#235,.T.);
#233 = VERTEX_POINT('',#234);
#234 = CARTESIAN_POINT('',(-17.,-12.,1.));
#235 = LINE('',#236,#237);
#236 = CARTESIAN_POINT('',(-20.,-12.,1.));
#237 = VECTOR('',#238,1.);
#238 = DIRECTION('',(1.,0.,0.));
#239 = ORIENTED_EDGE('',*,*,#240,.F.);
#240 = EDGE_CURVE('',#241,#233,#243,.T.);
#241 = VERTEX_POINT('',#242);
#242 = CARTESIAN_POINT('',(-20.,-9.,1.));
#243 = CIRCLE('',#244,3.);
#244 = AXIS2_PLACEMENT_3D('',#245,#246,#247);
#245 = CARTESIAN_POINT('',(-17.,-9.,1.));
#246 = DIRECTION('',(-0.,0.,1.));
#247 = DIRECTION('',(0.,-1.,0.));
#248 = ORIENTED_EDGE('',*,*,#249,.T.);
#249 = EDGE_CURVE('',#241,#250,#252,.T.);
#250 = VERTEX_POINT('',#251);
#251 = CARTESIAN_POINT('',(-20.,9.,1.));
#252 = LINE('',#253,#254);
#253 = CARTESIAN_POINT('',(-20.,-12.,1.));
#254 = VECTOR('',#255,1.);
#255 = DIRECTION('',(0.,1.,0.));
#256 = ORIENTED_EDGE('',*,*,#257,.T.);
#257 = EDGE_CURVE('',#250,#258,#260,.T.);
#258 = VERTEX_POINT('',#259);
#259 = CARTESIAN_POINT('',(-17.,12.,1.));
#260 = CIRCLE('',#261,3.);
#261 = AXIS2_PLACEMENT_3D('',#262,#263,#264);
#262 = CARTESIAN_POINT('',(-17.,9.,1.));
#263 = DIRECTION('',(-0.,-0.,-1.));
#264 = DIRECTION('',(0.,-1.,0.));
#265 = ORIENTED_EDGE('',*,*,#266,.T.);
#266 = EDGE_CURVE('',#258,#267,#269,.T.);
#267 = VERTEX_POINT('',#268);
#268 = CARTESIAN_POINT('',(17.,12.,1.));
#269 = LINE('',#270,#271);
#270 = CARTESIAN_POINT('',(-20.,12.,1.));
#271 = VECTOR('',#272,1.);
#272 = DIRECTION('',(1.,0.,0.));
#273 = ORIENTED_EDGE('',*,*,#274,.F.);
#274 = EDGE_CURVE('',#275,#267,#277,.T.);
#275 = VERTEX_POINT('',#276);
#276 = CARTESIAN_POINT('',(20.,9.,1.));
#277 = CIRCLE('',#278,3.);
#278 = AXIS2_PLACEMENT_3D('',#279,#280,#281);
#279 = CARTESIAN_POINT('',(17.,9.,1.));
#280 = DIRECTION('',(-0.,0.,1.));
#281 = DIRECTION('',(0.,-1.,0.));
#282 = ORIENTED_EDGE('',*,*,#283,.F.);
#283 = EDGE_CURVE('',#284,#275,#286,.T.);
#284 = VERTEX_POINT('',#285);
#285 = CARTESIAN_POINT('',(20.,-9.,1.));
#286 = LINE('',#287,#288);
#287 = CARTESIAN_POINT('',(20.,-12.,1.));
#288 = VECTOR('',#289,1.);
#289 = DIRECTION('',(0.,1.,0.));
#290 = ORIENTED_EDGE('',*,*,#291,.T.);
#291 = EDGE_CURVE('',#284,#292,#294,.T.);
#292 = VERTEX_POINT('',#293);
#293 = CARTESIAN_POINT('',(17.,-12.,1.));
#294 = CIRCLE('',#295,3.);
#295 = AXIS2_PLACEMENT_3D('',#296,#297,#298);
#296 = CARTESIAN_POINT('',(17.,-9.,1.));
#297 = DIRECTION('',(-0.,-0.,-1.));
#298 = DIRECTION('',(0.,-1.,0.));
#299 = ORIENTED_EDGE('',*,*,#300,.F.);
#300 = EDGE_CURVE('',#301,#292,#303,.T.);
#301 = VERTEX_POINT('',#302);
#302 = CARTESIAN_POINT('',(16.78,-12.,1.));
#303 = LINE('',#304,#305);
#304 = CARTESIAN_POINT('',(-20.,-12.,1.));
#305 = VECTOR('',#306,1.);
#306 = DIRECTION('',(1.,0.,0.));
#307 = ORIENTED_EDGE('',*,*,#308,.F.);
#308 = EDGE_CURVE('',#309,#301,#311,.T.);
#309 = VERTEX_POINT('',#310);
#310 = CARTESIAN_POINT('',(16.78,-12.1,1.));
#311 = LINE('',#312,#313);
#312 = CARTESIAN_POINT('',(16.78,-12.1,1.));
#313 = VECTOR('',#314,1.);
#314 = DIRECTION('',(0.,1.,0.));
#315 = ORIENTED_EDGE('',*,*,#316,.F.);
#316 = EDGE_CURVE('',#317,#309,#319,.T.);
#317 = VERTEX_POINT('',#318);
#318 = CARTESIAN_POINT('',(16.2,-12.1,1.));
#319 = LINE('',#320,#321);
#320 = CARTESIAN_POINT('',(11.78,-12.1,1.));
#321 = VECTOR('',#322,1.);
#322 = DIRECTION('',(1.,0.,0.));
#323 = ORIENTED_EDGE('',*,*,#324,.F.);
#324 = EDGE_CURVE('',#325,#317,#327,.T.);
#325 = VERTEX_POINT('',#326);
#326 = CARTESIAN_POINT('',(16.005872210923,-12.1,1.));
#327 = LINE('',#328,#329);
#328 = CARTESIAN_POINT('',(-2.493588458689,-12.1,1.));
#329 = VECTOR('',#330,1.);
#330 = DIRECTION('',(1.,0.,0.));
#331 = ORIENTED_EDGE('',*,*,#332,.F.);
#332 = EDGE_CURVE('',#333,#325,#335,.T.);
#333 = VERTEX_POINT('',#334);
#334 = CARTESIAN_POINT('',(17.510908145858,-12.9672374351,1.));
#335 = CIRCLE('',#336,5.);
#336 = AXIS2_PLACEMENT_3D('',#337,#338,#339);
#337 = CARTESIAN_POINT('',(14.3,-16.8,1.));
#338 = DIRECTION('',(0.,0.,1.));
#339 = DIRECTION('',(1.,0.,-0.));
#340 = ORIENTED_EDGE('',*,*,#341,.F.);
#341 = EDGE_CURVE('',#342,#333,#344,.T.);
#342 = VERTEX_POINT('',#343);
#343 = CARTESIAN_POINT('',(21.,-9.,1.));
#344 = CIRCLE('',#345,4.);
#345 = AXIS2_PLACEMENT_3D('',#346,#347,#348);
#346 = CARTESIAN_POINT('',(17.,-9.,1.));
#347 = DIRECTION('',(-0.,-0.,-1.));
#348 = DIRECTION('',(0.,-1.,0.));
#349 = ORIENTED_EDGE('',*,*,#350,.T.);
#350 = EDGE_CURVE('',#342,#351,#353,.T.);
#351 = VERTEX_POINT('',#352);
#352 = CARTESIAN_POINT('',(21.,9.,1.));
#353 = LINE('',#354,#355);
#354 = CARTESIAN_POINT('',(21.,-13.,1.));
#355 = VECTOR('',#356,1.);
#356 = DIRECTION('',(0.,1.,0.));
#357 = ORIENTED_EDGE('',*,*,#358,.T.);
#358 = EDGE_CURVE('',#351,#359,#361,.T.);
#359 = VERTEX_POINT('',#360);
#360 = CARTESIAN_POINT('',(17.,13.,1.));
#361 = CIRCLE('',#362,4.);
#362 = AXIS2_PLACEMENT_3D('',#363,#364,#365);
#363 = CARTESIAN_POINT('',(17.,9.,1.));
#364 = DIRECTION('',(-0.,0.,1.));
#365 = DIRECTION('',(0.,-1.,0.));
#366 = ORIENTED_EDGE('',*,*,#367,.F.);
#367 = EDGE_CURVE('',#165,#359,#368,.T.);
#368 = LINE('',#369,#370);
#369 = CARTESIAN_POINT('',(-21.,13.,1.));
#370 = VECTOR('',#371,1.);
#371 = DIRECTION('',(1.,0.,0.));
#372 = ORIENTED_EDGE('',*,*,#164,.F.);
#373 = PLANE('',#374);
#374 = AXIS2_PLACEMENT_3D('',#375,#376,#377);
#375 = CARTESIAN_POINT('',(-21.,-13.,1.));
#376 = DIRECTION('',(0.,0.,1.));
#377 = DIRECTION('',(1.,0.,0.));
#378 = ADVANCED_FACE('',(#379),#399,.F.);
#379 = FACE_BOUND('',#380,.F.);
#380 = EDGE_LOOP('',(#381,#382,#383,#384,#392));
#381 = ORIENTED_EDGE('',*,*,#191,.F.);
#382 = ORIENTED_EDGE('',*,*,#148,.T.);
#383 = ORIENTED_EDGE('',*,*,#71,.T.);
#384 = ORIENTED_EDGE('',*,*,#385,.F.);
#385 = EDGE_CURVE('',#386,#72,#388,.T.);
#386 = VERTEX_POINT('',#387);
#387 = CARTESIAN_POINT('',(17.,-13.,2.808314132003));
#388 = LINE('',#389,#390);
#389 = CARTESIAN_POINT('',(17.,-13.,1.));
#390 = VECTOR('',#391,1.);
#391 = DIRECTION('',(0.,0.,1.));
#392 = ORIENTED_EDGE('',*,*,#393,.F.);
#393 = EDGE_CURVE('',#192,#386,#394,.T.);
#394 = CIRCLE('',#395,3.249615361854);
#395 = AXIS2_PLACEMENT_3D('',#396,#397,#398);
#396 = CARTESIAN_POINT('',(14.3,-13.,1.));
#397 = DIRECTION('',(0.,1.,0.));
#398 = DIRECTION('',(0.,-0.,1.));
#399 = PLANE('',#400);
#400 = AXIS2_PLACEMENT_3D('',#401,#402,#403);
#401 = CARTESIAN_POINT('',(-21.,-13.,1.));
#402 = DIRECTION('',(0.,1.,0.));
#403 = DIRECTION('',(0.,0.,1.));
#404 = ADVANCED_FACE('',(#405),#466,.T.);
#405 = FACE_BOUND('',#406,.T.);
#406 = EDGE_LOOP('',(#407,#408,#409,#410,#418,#426,#435,#443,#452,#460)
  );
#407 = ORIENTED_EDGE('',*,*,#367,.F.);
#408 = ORIENTED_EDGE('',*,*,#173,.T.);
#409 = ORIENTED_EDGE('',*,*,#105,.T.);
#410 = ORIENTED_EDGE('',*,*,#411,.F.);
#411 = EDGE_CURVE('',#412,#97,#414,.T.);
#412 = VERTEX_POINT('',#413);
#413 = CARTESIAN_POINT('',(17.,13.,4.5));
#414 = LINE('',#415,#416);
#415 = CARTESIAN_POINT('',(17.,13.,1.));
#416 = VECTOR('',#417,1.);
#417 = DIRECTION('',(0.,0.,1.));
#418 = ORIENTED_EDGE('',*,*,#419,.F.);
#419 = EDGE_CURVE('',#420,#412,#422,.T.);
#420 = VERTEX_POINT('',#421);
#421 = CARTESIAN_POINT('',(14.69,13.,4.5));
#422 = LINE('',#423,#424);
#423 = CARTESIAN_POINT('',(14.2,13.,4.5));
#424 = VECTOR('',#425,1.);
#425 = DIRECTION('',(1.,0.,0.));
#426 = ORIENTED_EDGE('',*,*,#427,.F.);
#427 = EDGE_CURVE('',#428,#420,#430,.T.);
#428 = VERTEX_POINT('',#429);
#429 = CARTESIAN_POINT('',(14.2,13.,4.01));
#430 = CIRCLE('',#431,0.49);
#431 = AXIS2_PLACEMENT_3D('',#432,#433,#434);
#432 = CARTESIAN_POINT('',(14.69,13.,4.01));
#433 = DIRECTION('',(0.,1.,0.));
#434 = DIRECTION('',(0.,0.,1.));
#435 = ORIENTED_EDGE('',*,*,#436,.F.);
#436 = EDGE_CURVE('',#437,#428,#439,.T.);
#437 = VERTEX_POINT('',#438);
#438 = CARTESIAN_POINT('',(14.2,13.,3.99));
#439 = LINE('',#440,#441);
#440 = CARTESIAN_POINT('',(14.2,13.,3.5));
#441 = VECTOR('',#442,1.);
#442 = DIRECTION('',(0.,0.,1.));
#443 = ORIENTED_EDGE('',*,*,#444,.T.);
#444 = EDGE_CURVE('',#437,#445,#447,.T.);
#445 = VERTEX_POINT('',#446);
#446 = CARTESIAN_POINT('',(14.69,13.,3.5));
#447 = CIRCLE('',#448,0.49);
#448 = AXIS2_PLACEMENT_3D('',#449,#450,#451);
#449 = CARTESIAN_POINT('',(14.69,13.,3.99));
#450 = DIRECTION('',(0.,-1.,0.));
#451 = DIRECTION('',(0.,0.,1.));
#452 = ORIENTED_EDGE('',*,*,#453,.T.);
#453 = EDGE_CURVE('',#445,#454,#456,.T.);
#454 = VERTEX_POINT('',#455);
#455 = CARTESIAN_POINT('',(17.,13.,3.5));
#456 = LINE('',#457,#458);
#457 = CARTESIAN_POINT('',(14.2,13.,3.5));
#458 = VECTOR('',#459,1.);
#459 = DIRECTION('',(1.,0.,0.));
#460 = ORIENTED_EDGE('',*,*,#461,.F.);
#461 = EDGE_CURVE('',#359,#454,#462,.T.);
#462 = LINE('',#463,#464);
#463 = CARTESIAN_POINT('',(17.,13.,1.));
#464 = VECTOR('',#465,1.);
#465 = DIRECTION('',(0.,0.,1.));
#466 = PLANE('',#467);
#467 = AXIS2_PLACEMENT_3D('',#468,#469,#470);
#468 = CARTESIAN_POINT('',(-21.,13.,1.));
#469 = DIRECTION('',(0.,1.,0.));
#470 = DIRECTION('',(0.,0.,1.));
#471 = ADVANCED_FACE('',(#472),#516,.T.);
#472 = FACE_BOUND('',#473,.F.);
#473 = EDGE_LOOP('',(#474,#480,#481,#514,#515));
#474 = ORIENTED_EDGE('',*,*,#475,.F.);
#475 = EDGE_CURVE('',#342,#80,#476,.T.);
#476 = LINE('',#477,#478);
#477 = CARTESIAN_POINT('',(21.,-9.,1.));
#478 = VECTOR('',#479,1.);
#479 = DIRECTION('',(0.,0.,1.));
#480 = ORIENTED_EDGE('',*,*,#341,.T.);
#481 = ORIENTED_EDGE('',*,*,#482,.F.);
#482 = EDGE_CURVE('',#386,#333,#483,.T.);
#483 = B_SPLINE_CURVE_WITH_KNOTS('',5,(#484,#485,#486,#487,#488,#489,
    #490,#491,#492,#493,#494,#495,#496,#497,#498,#499,#500,#501,#502,
    #503,#504,#505,#506,#507,#508,#509,#510,#511,#512,#513),
  .UNSPECIFIED.,.F.,.F.,(6,4,4,4,4,4,4,6),(0.,0.190559610016,
    0.412341604521,0.633046694126,0.874911025679,0.913525743187,
    0.939493014078,1.),.UNSPECIFIED.);
#484 = CARTESIAN_POINT('',(17.,-13.,2.808314132003));
#485 = CARTESIAN_POINT('',(17.042640786891,-13.,2.744647027616));
#486 = CARTESIAN_POINT('',(17.082452812905,-12.9994318648,2.67995097031)
  );
#487 = CARTESIAN_POINT('',(17.119628070792,-12.99844595048,
    2.614406682683));
#488 = CARTESIAN_POINT('',(17.154314892382,-12.99715327029,
    2.548148291144));
#489 = CARTESIAN_POINT('',(17.224266772904,-12.99388571342,
    2.403436770155));
#490 = CARTESIAN_POINT('',(17.258693166146,-12.99183385358,
    2.324768843254));
#491 = CARTESIAN_POINT('',(17.290122118434,-12.98962772302,
    2.245420899954));
#492 = CARTESIAN_POINT('',(17.318701529727,-12.9873678793,2.165509742256
    ));
#493 = CARTESIAN_POINT('',(17.370278015114,-12.98290860289,
    2.005123186783));
#494 = CARTESIAN_POINT('',(17.393300662495,-12.98070896953,
    1.924654844308));
#495 = CARTESIAN_POINT('',(17.413738204155,-12.97861085466,
    1.843803070421));
#496 = CARTESIAN_POINT('',(17.431676213411,-12.97666934046,
    1.762639465438));
#497 = CARTESIAN_POINT('',(17.4641692885,-12.97301386541,1.591999058233)
  );
#498 = CARTESIAN_POINT('',(17.478234841809,-12.97133959169,1.5024728084)
  );
#499 = CARTESIAN_POINT('',(17.489460878581,-12.96995577027,1.4127204919)
  );
#500 = CARTESIAN_POINT('',(17.497899707066,-12.96889514216,1.32281088626
    ));
#501 = CARTESIAN_POINT('',(17.504485117112,-12.96805942519,
    1.218435100493));
#502 = CARTESIAN_POINT('',(17.505321402659,-12.96795303385,
    1.204062815182));
#503 = CARTESIAN_POINT('',(17.506087441862,-12.96785537556,
    1.189688349035));
#504 = CARTESIAN_POINT('',(17.506783326616,-12.96776650748,
    1.175311955831));
#505 = CARTESIAN_POINT('',(17.507829967534,-12.9676326574,1.151265055695
    ));
#506 = CARTESIAN_POINT('',(17.508219112099,-12.96758283479,
    1.141595466512));
#507 = CARTESIAN_POINT('',(17.50857658828,-12.96753702246,1.131925196325
    ));
#508 = CARTESIAN_POINT('',(17.508902415418,-12.96749523245,
    1.122254321399));
#509 = CARTESIAN_POINT('',(17.509882118172,-12.96736949416,
    1.090047338512));
#510 = CARTESIAN_POINT('',(17.510395875402,-12.9673034064,1.0675102809)
  );
#511 = CARTESIAN_POINT('',(17.510738081954,-12.96725933621,
    1.044968893345));
#512 = CARTESIAN_POINT('',(17.510908838199,-12.96723734594,
    1.022424639362));
#513 = CARTESIAN_POINT('',(17.51090814402,-12.96723743534,0.999883297479
    ));
#514 = ORIENTED_EDGE('',*,*,#385,.T.);
#515 = ORIENTED_EDGE('',*,*,#79,.F.);
#516 = CYLINDRICAL_SURFACE('',#517,4.);
#517 = AXIS2_PLACEMENT_3D('',#518,#519,#520);
#518 = CARTESIAN_POINT('',(17.,-9.,1.));
#519 = DIRECTION('',(0.,0.,1.));
#520 = DIRECTION('',(1.,0.,0.));
#521 = ADVANCED_FACE('',(#522),#664,.T.);
#522 = FACE_BOUND('',#523,.T.);
#523 = EDGE_LOOP('',(#524,#532,#533,#534,#543,#560,#568,#585,#592,#593,
    #594,#602,#611,#630,#638,#657));
#524 = ORIENTED_EDGE('',*,*,#525,.F.);
#525 = EDGE_CURVE('',#351,#526,#528,.T.);
#526 = VERTEX_POINT('',#527);
#527 = CARTESIAN_POINT('',(21.,9.,3.5));
#528 = LINE('',#529,#530);
#529 = CARTESIAN_POINT('',(21.,9.,1.));
#530 = VECTOR('',#531,1.);
#531 = DIRECTION('',(0.,0.,1.));
#532 = ORIENTED_EDGE('',*,*,#358,.T.);
#533 = ORIENTED_EDGE('',*,*,#461,.T.);
#534 = ORIENTED_EDGE('',*,*,#535,.F.);
#535 = EDGE_CURVE('',#536,#454,#538,.T.);
#536 = VERTEX_POINT('',#537);
#537 = CARTESIAN_POINT('',(17.71,12.936483202047,3.5));
#538 = CIRCLE('',#539,4.);
#539 = AXIS2_PLACEMENT_3D('',#540,#541,#542);
#540 = CARTESIAN_POINT('',(17.,9.,3.5));
#541 = DIRECTION('',(0.,0.,1.));
#542 = DIRECTION('',(1.,0.,-0.));
#543 = ORIENTED_EDGE('',*,*,#544,.F.);
#544 = EDGE_CURVE('',#545,#536,#547,.T.);
#545 = VERTEX_POINT('',#546);
#546 = CARTESIAN_POINT('',(18.2,12.815756805668,3.99));
#547 = B_SPLINE_CURVE_WITH_KNOTS('',6,(#548,#549,#550,#551,#552,#553,
    #554,#555,#556,#557,#558,#559),.UNSPECIFIED.,.F.,.F.,(7,5,7),(0.,
    0.592195125784,1.),.UNSPECIFIED.);
#548 = CARTESIAN_POINT('',(18.2,12.815756805668,3.99));
#549 = CARTESIAN_POINT('',(18.2,12.815756805668,3.916757516214));
#550 = CARTESIAN_POINT('',(18.186862830276,12.819887893248,3.8434022962)
  );
#551 = CARTESIAN_POINT('',(18.160510874042,12.828176909285,
    3.772637649338));
#552 = CARTESIAN_POINT('',(18.121463882682,12.840079578631,
    3.707189518964));
#553 = CARTESIAN_POINT('',(18.070801478563,12.854515650609,
    3.649734831002));
#554 = CARTESIAN_POINT('',(17.968678006687,12.881174504972,
    3.570519746271));
#555 = CARTESIAN_POINT('',(17.922327550874,12.892699577867,
    3.543176657649));
#556 = CARTESIAN_POINT('',(17.872108480138,12.904424622652,
    3.521856992375));
#557 = CARTESIAN_POINT('',(17.819137597563,12.915858075884,
    3.507319119124));
#558 = CARTESIAN_POINT('',(17.764668152548,12.926623033385,3.5));
#559 = CARTESIAN_POINT('',(17.71,12.936483202047,3.5));
#560 = ORIENTED_EDGE('',*,*,#561,.T.);
#561 = EDGE_CURVE('',#545,#562,#564,.T.);
#562 = VERTEX_POINT('',#563);
#563 = CARTESIAN_POINT('',(18.2,12.815756805668,4.01));
#564 = LINE('',#565,#566);
#565 = CARTESIAN_POINT('',(18.2,12.815756805668,1.));
#566 = VECTOR('',#567,1.);
#567 = DIRECTION('',(0.,0.,1.));
#568 = ORIENTED_EDGE('',*,*,#569,.T.);
#569 = EDGE_CURVE('',#562,#570,#572,.T.);
#570 = VERTEX_POINT('',#571);
#571 = CARTESIAN_POINT('',(17.71,12.936483202047,4.5));
#572 = B_SPLINE_CURVE_WITH_KNOTS('',6,(#573,#574,#575,#576,#577,#578,
    #579,#580,#581,#582,#583,#584),.UNSPECIFIED.,.F.,.F.,(7,5,7),(0.,
    0.592195125784,1.),.UNSPECIFIED.);
#573 = CARTESIAN_POINT('',(18.2,12.815756805668,4.01));
#574 = CARTESIAN_POINT('',(18.2,12.815756805668,4.083242483786));
#575 = CARTESIAN_POINT('',(18.186862830276,12.819887893248,4.1565977038)
  );
#576 = CARTESIAN_POINT('',(18.160510874042,12.828176909285,
    4.227362350662));
#577 = CARTESIAN_POINT('',(18.121463882682,12.840079578631,
    4.292810481036));
#578 = CARTESIAN_POINT('',(18.070801478563,12.854515650609,
    4.350265168998));
#579 = CARTESIAN_POINT('',(17.968678006687,12.881174504972,
    4.429480253729));
#580 = CARTESIAN_POINT('',(17.922327550874,12.892699577867,
    4.456823342351));
#581 = CARTESIAN_POINT('',(17.872108480138,12.904424622652,
    4.478143007625));
#582 = CARTESIAN_POINT('',(17.819137597563,12.915858075884,
    4.492680880876));
#583 = CARTESIAN_POINT('',(17.764668152548,12.926623033385,4.5));
#584 = CARTESIAN_POINT('',(17.71,12.936483202047,4.5));
#585 = ORIENTED_EDGE('',*,*,#586,.T.);
#586 = EDGE_CURVE('',#570,#412,#587,.T.);
#587 = CIRCLE('',#588,4.);
#588 = AXIS2_PLACEMENT_3D('',#589,#590,#591);
#589 = CARTESIAN_POINT('',(17.,9.,4.5));
#590 = DIRECTION('',(0.,0.,1.));
#591 = DIRECTION('',(1.,0.,-0.));
#592 = ORIENTED_EDGE('',*,*,#411,.T.);
#593 = ORIENTED_EDGE('',*,*,#96,.F.);
#594 = ORIENTED_EDGE('',*,*,#595,.F.);
#595 = EDGE_CURVE('',#596,#89,#598,.T.);
#596 = VERTEX_POINT('',#597);
#597 = CARTESIAN_POINT('',(21.,9.,4.5));
#598 = LINE('',#599,#600);
#599 = CARTESIAN_POINT('',(21.,9.,1.));
#600 = VECTOR('',#601,1.);
#601 = DIRECTION('',(0.,0.,1.));
#602 = ORIENTED_EDGE('',*,*,#603,.T.);
#603 = EDGE_CURVE('',#596,#604,#606,.T.);
#604 = VERTEX_POINT('',#605);
#605 = CARTESIAN_POINT('',(20.704038336735,10.51,4.5));
#606 = CIRCLE('',#607,4.);
#607 = AXIS2_PLACEMENT_3D('',#608,#609,#610);
#608 = CARTESIAN_POINT('',(17.,9.,4.5));
#609 = DIRECTION('',(0.,0.,1.));
#610 = DIRECTION('',(1.,0.,-0.));
#611 = ORIENTED_EDGE('',*,*,#612,.F.);
#612 = EDGE_CURVE('',#613,#604,#615,.T.);
#613 = VERTEX_POINT('',#614);
#614 = CARTESIAN_POINT('',(20.464101615138,11.,4.01));
#615 = B_SPLINE_CURVE_WITH_KNOTS('',7,(#616,#617,#618,#619,#620,#621,
    #622,#623,#624,#625,#626,#627,#628,#629),.UNSPECIFIED.,.F.,.F.,(8,6,
    8),(0.,0.30588233399,1.),.UNSPECIFIED.);
#616 = CARTESIAN_POINT('',(20.464101615138,11.,4.01));
#617 = CARTESIAN_POINT('',(20.464101615138,11.,4.0429371835));
#618 = CARTESIAN_POINT('',(20.465592739102,10.997416923215,
    4.075868605199));
#619 = CARTESIAN_POINT('',(20.468574713133,10.992252689871,
    4.108565854244));
#620 = CARTESIAN_POINT('',(20.47301702563,10.984530335114,4.140799733931
    ));
#621 = CARTESIAN_POINT('',(20.478861051702,10.974295512785,
    4.172342068508));
#622 = CARTESIAN_POINT('',(20.486022177587,10.961617999185,
    4.202967509971));
#623 = CARTESIAN_POINT('',(20.513384815271,10.912498450054,
    4.299370053121));
#624 = CARTESIAN_POINT('',(20.538700906606,10.866139131289,4.36077636841
    ));
#625 = CARTESIAN_POINT('',(20.569145823221,10.80850308583,4.413798832491
    ));
#626 = CARTESIAN_POINT('',(20.60281377534,10.741417768953,4.455911383169
    ));
#627 = CARTESIAN_POINT('',(20.637608125052,10.667313360855,
    4.485098089642));
#628 = CARTESIAN_POINT('',(20.67178672676,10.58911337733,4.5));
#629 = CARTESIAN_POINT('',(20.704038336735,10.51,4.5));
#630 = ORIENTED_EDGE('',*,*,#631,.F.);
#631 = EDGE_CURVE('',#632,#613,#634,.T.);
#632 = VERTEX_POINT('',#633);
#633 = CARTESIAN_POINT('',(20.464101615138,11.,3.99));
#634 = LINE('',#635,#636);
#635 = CARTESIAN_POINT('',(20.464101615138,11.,1.));
#636 = VECTOR('',#637,1.);
#637 = DIRECTION('',(0.,0.,1.));
#638 = ORIENTED_EDGE('',*,*,#639,.T.);
#639 = EDGE_CURVE('',#632,#640,#642,.T.);
#640 = VERTEX_POINT('',#641);
#641 = CARTESIAN_POINT('',(20.704038336735,10.51,3.5));
#642 = B_SPLINE_CURVE_WITH_KNOTS('',7,(#643,#644,#645,#646,#647,#648,
    #649,#650,#651,#652,#653,#654,#655,#656),.UNSPECIFIED.,.F.,.F.,(8,6,
    8),(0.,0.305882333991,1.),.UNSPECIFIED.);
#643 = CARTESIAN_POINT('',(20.464101615138,11.,3.99));
#644 = CARTESIAN_POINT('',(20.464101615138,11.,3.9570628165));
#645 = CARTESIAN_POINT('',(20.465592739102,10.997416923215,
    3.924131394801));
#646 = CARTESIAN_POINT('',(20.468574713133,10.992252689871,
    3.891434145756));
#647 = CARTESIAN_POINT('',(20.47301702563,10.984530335114,3.859200266069
    ));
#648 = CARTESIAN_POINT('',(20.478861051702,10.974295512785,
    3.827657931492));
#649 = CARTESIAN_POINT('',(20.486022177587,10.961617999185,
    3.797032490029));
#650 = CARTESIAN_POINT('',(20.513384815271,10.912498450054,
    3.700629946879));
#651 = CARTESIAN_POINT('',(20.538700906606,10.866139131289,
    3.639223631589));
#652 = CARTESIAN_POINT('',(20.569145823221,10.80850308583,3.586201167509
    ));
#653 = CARTESIAN_POINT('',(20.60281377534,10.741417768954,3.544088616831
    ));
#654 = CARTESIAN_POINT('',(20.637608125052,10.667313360855,
    3.514901910358));
#655 = CARTESIAN_POINT('',(20.67178672676,10.58911337733,3.5));
#656 = CARTESIAN_POINT('',(20.704038336735,10.51,3.5));
#657 = ORIENTED_EDGE('',*,*,#658,.F.);
#658 = EDGE_CURVE('',#526,#640,#659,.T.);
#659 = CIRCLE('',#660,4.);
#660 = AXIS2_PLACEMENT_3D('',#661,#662,#663);
#661 = CARTESIAN_POINT('',(17.,9.,3.5));
#662 = DIRECTION('',(0.,0.,1.));
#663 = DIRECTION('',(1.,0.,-0.));
#664 = CYLINDRICAL_SURFACE('',#665,4.);
#665 = AXIS2_PLACEMENT_3D('',#666,#667,#668);
#666 = CARTESIAN_POINT('',(17.,9.,1.));
#667 = DIRECTION('',(0.,0.,1.));
#668 = DIRECTION('',(1.,0.,0.));
#669 = ADVANCED_FACE('',(#670),#717,.T.);
#670 = FACE_BOUND('',#671,.T.);
#671 = EDGE_LOOP('',(#672,#673,#674,#675,#676,#684,#693,#701,#710,#716)
  );
#672 = ORIENTED_EDGE('',*,*,#88,.F.);
#673 = ORIENTED_EDGE('',*,*,#475,.F.);
#674 = ORIENTED_EDGE('',*,*,#350,.T.);
#675 = ORIENTED_EDGE('',*,*,#525,.T.);
#676 = ORIENTED_EDGE('',*,*,#677,.F.);
#677 = EDGE_CURVE('',#678,#526,#680,.T.);
#678 = VERTEX_POINT('',#679);
#679 = CARTESIAN_POINT('',(21.,7.49,3.5));
#680 = LINE('',#681,#682);
#681 = CARTESIAN_POINT('',(21.,7.,3.5));
#682 = VECTOR('',#683,1.);
#683 = DIRECTION('',(0.,1.,0.));
#684 = ORIENTED_EDGE('',*,*,#685,.F.);
#685 = EDGE_CURVE('',#686,#678,#688,.T.);
#686 = VERTEX_POINT('',#687);
#687 = CARTESIAN_POINT('',(21.,7.,3.99));
#688 = CIRCLE('',#689,0.49);
#689 = AXIS2_PLACEMENT_3D('',#690,#691,#692);
#690 = CARTESIAN_POINT('',(21.,7.49,3.99));
#691 = DIRECTION('',(1.,0.,-0.));
#692 = DIRECTION('',(0.,0.,1.));
#693 = ORIENTED_EDGE('',*,*,#694,.T.);
#694 = EDGE_CURVE('',#686,#695,#697,.T.);
#695 = VERTEX_POINT('',#696);
#696 = CARTESIAN_POINT('',(21.,7.,4.01));
#697 = LINE('',#698,#699);
#698 = CARTESIAN_POINT('',(21.,7.,3.5));
#699 = VECTOR('',#700,1.);
#700 = DIRECTION('',(0.,0.,1.));
#701 = ORIENTED_EDGE('',*,*,#702,.T.);
#702 = EDGE_CURVE('',#695,#703,#705,.T.);
#703 = VERTEX_POINT('',#704);
#704 = CARTESIAN_POINT('',(21.,7.49,4.5));
#705 = CIRCLE('',#706,0.49);
#706 = AXIS2_PLACEMENT_3D('',#707,#708,#709);
#707 = CARTESIAN_POINT('',(21.,7.49,4.01));
#708 = DIRECTION('',(-1.,0.,0.));
#709 = DIRECTION('',(0.,0.,1.));
#710 = ORIENTED_EDGE('',*,*,#711,.T.);
#711 = EDGE_CURVE('',#703,#596,#712,.T.);
#712 = LINE('',#713,#714);
#713 = CARTESIAN_POINT('',(21.,7.,4.5));
#714 = VECTOR('',#715,1.);
#715 = DIRECTION('',(0.,1.,0.));
#716 = ORIENTED_EDGE('',*,*,#595,.T.);
#717 = PLANE('',#718);
#718 = AXIS2_PLACEMENT_3D('',#719,#720,#721);
#719 = CARTESIAN_POINT('',(21.,-13.,1.));
#720 = DIRECTION('',(1.,0.,0.));
#721 = DIRECTION('',(0.,0.,1.));
#722 = ADVANCED_FACE('',(#723),#742,.F.);
#723 = FACE_BOUND('',#724,.T.);
#724 = EDGE_LOOP('',(#725,#734,#740,#741));
#725 = ORIENTED_EDGE('',*,*,#726,.T.);
#726 = EDGE_CURVE('',#727,#727,#729,.T.);
#727 = VERTEX_POINT('',#728);
#728 = CARTESIAN_POINT('',(18.2,9.,5.));
#729 = CIRCLE('',#730,2.);
#730 = AXIS2_PLACEMENT_3D('',#731,#732,#733);
#731 = CARTESIAN_POINT('',(16.2,9.,5.));
#732 = DIRECTION('',(0.,0.,-1.));
#733 = DIRECTION('',(1.,0.,0.));
#734 = ORIENTED_EDGE('',*,*,#735,.T.);
#735 = EDGE_CURVE('',#727,#123,#736,.T.);
#736 = LINE('',#737,#738);
#737 = CARTESIAN_POINT('',(18.2,9.,3.5));
#738 = VECTOR('',#739,1.);
#739 = DIRECTION('',(0.,0.,1.));
#740 = ORIENTED_EDGE('',*,*,#122,.T.);
#741 = ORIENTED_EDGE('',*,*,#735,.F.);
#742 = CYLINDRICAL_SURFACE('',#743,2.);
#743 = AXIS2_PLACEMENT_3D('',#744,#745,#746);
#744 = CARTESIAN_POINT('',(16.2,9.,3.5));
#745 = DIRECTION('',(-0.,-0.,-1.));
#746 = DIRECTION('',(1.,0.,0.));
#747 = ADVANCED_FACE('',(#748),#779,.F.);
#748 = FACE_BOUND('',#749,.F.);
#749 = EDGE_LOOP('',(#750,#759,#760,#761,#762,#763,#772));
#750 = ORIENTED_EDGE('',*,*,#751,.F.);
#751 = EDGE_CURVE('',#200,#752,#754,.T.);
#752 = VERTEX_POINT('',#753);
#753 = CARTESIAN_POINT('',(13.487596159536,-12.1,2.5));
#754 = CIRCLE('',#755,1.705872210923);
#755 = AXIS2_PLACEMENT_3D('',#756,#757,#758);
#756 = CARTESIAN_POINT('',(14.3,-12.1,1.));
#757 = DIRECTION('',(0.,1.,0.));
#758 = DIRECTION('',(0.,0.,1.));
#759 = ORIENTED_EDGE('',*,*,#199,.T.);
#760 = ORIENTED_EDGE('',*,*,#393,.T.);
#761 = ORIENTED_EDGE('',*,*,#482,.T.);
#762 = ORIENTED_EDGE('',*,*,#332,.T.);
#763 = ORIENTED_EDGE('',*,*,#764,.F.);
#764 = EDGE_CURVE('',#765,#325,#767,.T.);
#765 = VERTEX_POINT('',#766);
#766 = CARTESIAN_POINT('',(15.112403840464,-12.1,2.5));
#767 = CIRCLE('',#768,1.705872210923);
#768 = AXIS2_PLACEMENT_3D('',#769,#770,#771);
#769 = CARTESIAN_POINT('',(14.3,-12.1,1.));
#770 = DIRECTION('',(0.,1.,0.));
#771 = DIRECTION('',(0.,0.,1.));
#772 = ORIENTED_EDGE('',*,*,#773,.T.);
#773 = EDGE_CURVE('',#765,#752,#774,.T.);
#774 = CIRCLE('',#775,4.769696007085);
#775 = AXIS2_PLACEMENT_3D('',#776,#777,#778);
#776 = CARTESIAN_POINT('',(14.3,-16.8,2.5));
#777 = DIRECTION('',(0.,0.,1.));
#778 = DIRECTION('',(1.,0.,0.));
#779 = SPHERICAL_SURFACE('',#780,5.);
#780 = AXIS2_PLACEMENT_3D('',#781,#782,#783);
#781 = CARTESIAN_POINT('',(14.3,-16.8,1.));
#782 = DIRECTION('',(0.,0.,1.));
#783 = DIRECTION('',(1.,0.,0.));
#784 = ADVANCED_FACE('',(#785),#804,.F.);
#785 = FACE_BOUND('',#786,.F.);
#786 = EDGE_LOOP('',(#787,#788,#789,#790,#798));
#787 = ORIENTED_EDGE('',*,*,#764,.T.);
#788 = ORIENTED_EDGE('',*,*,#324,.T.);
#789 = ORIENTED_EDGE('',*,*,#316,.T.);
#790 = ORIENTED_EDGE('',*,*,#791,.T.);
#791 = EDGE_CURVE('',#309,#792,#794,.T.);
#792 = VERTEX_POINT('',#793);
#793 = CARTESIAN_POINT('',(16.78,-12.1,2.5));
#794 = LINE('',#795,#796);
#795 = CARTESIAN_POINT('',(16.78,-12.1,1.));
#796 = VECTOR('',#797,1.);
#797 = DIRECTION('',(0.,0.,1.));
#798 = ORIENTED_EDGE('',*,*,#799,.F.);
#799 = EDGE_CURVE('',#765,#792,#800,.T.);
#800 = LINE('',#801,#802);
#801 = CARTESIAN_POINT('',(11.78,-12.1,2.5));
#802 = VECTOR('',#803,1.);
#803 = DIRECTION('',(1.,0.,0.));
#804 = PLANE('',#805);
#805 = AXIS2_PLACEMENT_3D('',#806,#807,#808);
#806 = CARTESIAN_POINT('',(16.012823082622,-12.1,1.087163080312));
#807 = DIRECTION('',(-0.,-1.,-0.));
#808 = DIRECTION('',(0.,0.,-1.));
#809 = ADVANCED_FACE('',(#810),#828,.F.);
#810 = FACE_BOUND('',#811,.F.);
#811 = EDGE_LOOP('',(#812,#813,#814,#822));
#812 = ORIENTED_EDGE('',*,*,#791,.F.);
#813 = ORIENTED_EDGE('',*,*,#308,.T.);
#814 = ORIENTED_EDGE('',*,*,#815,.F.);
#815 = EDGE_CURVE('',#816,#301,#818,.T.);
#816 = VERTEX_POINT('',#817);
#817 = CARTESIAN_POINT('',(16.78,-12.,2.5));
#818 = LINE('',#819,#820);
#819 = CARTESIAN_POINT('',(16.78,-12.,1.));
#820 = VECTOR('',#821,1.);
#821 = DIRECTION('',(0.,0.,-1.));
#822 = ORIENTED_EDGE('',*,*,#823,.F.);
#823 = EDGE_CURVE('',#792,#816,#824,.T.);
#824 = LINE('',#825,#826);
#825 = CARTESIAN_POINT('',(16.78,-12.1,2.5));
#826 = VECTOR('',#827,1.);
#827 = DIRECTION('',(0.,1.,0.));
#828 = PLANE('',#829);
#829 = AXIS2_PLACEMENT_3D('',#830,#831,#832);
#830 = CARTESIAN_POINT('',(16.78,-12.1,1.));
#831 = DIRECTION('',(1.,0.,0.));
#832 = DIRECTION('',(0.,0.,1.));
#833 = ADVANCED_FACE('',(#834),#875,.T.);
#834 = FACE_BOUND('',#835,.T.);
#835 = EDGE_LOOP('',(#836,#837,#845,#853,#859,#860,#861,#869));
#836 = ORIENTED_EDGE('',*,*,#232,.F.);
#837 = ORIENTED_EDGE('',*,*,#838,.T.);
#838 = EDGE_CURVE('',#233,#839,#841,.T.);
#839 = VERTEX_POINT('',#840);
#840 = CARTESIAN_POINT('',(-17.,-12.,5.));
#841 = LINE('',#842,#843);
#842 = CARTESIAN_POINT('',(-17.,-12.,1.));
#843 = VECTOR('',#844,1.);
#844 = DIRECTION('',(0.,0.,1.));
#845 = ORIENTED_EDGE('',*,*,#846,.T.);
#846 = EDGE_CURVE('',#839,#847,#849,.T.);
#847 = VERTEX_POINT('',#848);
#848 = CARTESIAN_POINT('',(17.,-12.,5.));
#849 = LINE('',#850,#851);
#850 = CARTESIAN_POINT('',(-20.,-12.,5.));
#851 = VECTOR('',#852,1.);
#852 = DIRECTION('',(1.,0.,0.));
#853 = ORIENTED_EDGE('',*,*,#854,.F.);
#854 = EDGE_CURVE('',#292,#847,#855,.T.);
#855 = LINE('',#856,#857);
#856 = CARTESIAN_POINT('',(17.,-12.,1.));
#857 = VECTOR('',#858,1.);
#858 = DIRECTION('',(0.,0.,1.));
#859 = ORIENTED_EDGE('',*,*,#300,.F.);
#860 = ORIENTED_EDGE('',*,*,#815,.F.);
#861 = ORIENTED_EDGE('',*,*,#862,.F.);
#862 = EDGE_CURVE('',#863,#816,#865,.T.);
#863 = VERTEX_POINT('',#864);
#864 = CARTESIAN_POINT('',(11.78,-12.,2.5));
#865 = LINE('',#866,#867);
#866 = CARTESIAN_POINT('',(-4.11,-12.,2.5));
#867 = VECTOR('',#868,1.);
#868 = DIRECTION('',(1.,0.,0.));
#869 = ORIENTED_EDGE('',*,*,#870,.T.);
#870 = EDGE_CURVE('',#863,#225,#871,.T.);
#871 = LINE('',#872,#873);
#872 = CARTESIAN_POINT('',(11.78,-12.,1.));
#873 = VECTOR('',#874,1.);
#874 = DIRECTION('',(0.,0.,-1.));
#875 = PLANE('',#876);
#876 = AXIS2_PLACEMENT_3D('',#877,#878,#879);
#877 = CARTESIAN_POINT('',(-20.,-12.,1.));
#878 = DIRECTION('',(0.,1.,0.));
#879 = DIRECTION('',(0.,0.,1.));
#880 = ADVANCED_FACE('',(#881),#900,.F.);
#881 = FACE_BOUND('',#882,.T.);
#882 = EDGE_LOOP('',(#883,#884,#885,#894));
#883 = ORIENTED_EDGE('',*,*,#291,.T.);
#884 = ORIENTED_EDGE('',*,*,#854,.T.);
#885 = ORIENTED_EDGE('',*,*,#886,.F.);
#886 = EDGE_CURVE('',#887,#847,#889,.T.);
#887 = VERTEX_POINT('',#888);
#888 = CARTESIAN_POINT('',(20.,-9.,5.));
#889 = CIRCLE('',#890,3.);
#890 = AXIS2_PLACEMENT_3D('',#891,#892,#893);
#891 = CARTESIAN_POINT('',(17.,-9.,5.));
#892 = DIRECTION('',(-0.,-0.,-1.));
#893 = DIRECTION('',(0.,-1.,0.));
#894 = ORIENTED_EDGE('',*,*,#895,.F.);
#895 = EDGE_CURVE('',#284,#887,#896,.T.);
#896 = LINE('',#897,#898);
#897 = CARTESIAN_POINT('',(20.,-9.,1.));
#898 = VECTOR('',#899,1.);
#899 = DIRECTION('',(0.,0.,1.));
#900 = CYLINDRICAL_SURFACE('',#901,3.);
#901 = AXIS2_PLACEMENT_3D('',#902,#903,#904);
#902 = CARTESIAN_POINT('',(17.,-9.,1.));
#903 = DIRECTION('',(0.,0.,1.));
#904 = DIRECTION('',(1.,0.,0.));
#905 = ADVANCED_FACE('',(#906),#974,.F.);
#906 = FACE_BOUND('',#907,.F.);
#907 = EDGE_LOOP('',(#908,#916,#917,#918,#926,#934,#943,#951,#960,#968)
  );
#908 = ORIENTED_EDGE('',*,*,#909,.F.);
#909 = EDGE_CURVE('',#887,#910,#912,.T.);
#910 = VERTEX_POINT('',#911);
#911 = CARTESIAN_POINT('',(20.,9.,5.));
#912 = LINE('',#913,#914);
#913 = CARTESIAN_POINT('',(20.,-12.,5.));
#914 = VECTOR('',#915,1.);
#915 = DIRECTION('',(0.,1.,0.));
#916 = ORIENTED_EDGE('',*,*,#895,.F.);
#917 = ORIENTED_EDGE('',*,*,#283,.T.);
#918 = ORIENTED_EDGE('',*,*,#919,.T.);
#919 = EDGE_CURVE('',#275,#920,#922,.T.);
#920 = VERTEX_POINT('',#921);
#921 = CARTESIAN_POINT('',(20.,9.,3.5));
#922 = LINE('',#923,#924);
#923 = CARTESIAN_POINT('',(20.,9.,1.));
#924 = VECTOR('',#925,1.);
#925 = DIRECTION('',(0.,0.,1.));
#926 = ORIENTED_EDGE('',*,*,#927,.F.);
#927 = EDGE_CURVE('',#928,#920,#930,.T.);
#928 = VERTEX_POINT('',#929);
#929 = CARTESIAN_POINT('',(20.,7.49,3.5));
#930 = LINE('',#931,#932);
#931 = CARTESIAN_POINT('',(20.,-1.061542710846,3.5));
#932 = VECTOR('',#933,1.);
#933 = DIRECTION('',(0.,1.,0.));
#934 = ORIENTED_EDGE('',*,*,#935,.F.);
#935 = EDGE_CURVE('',#936,#928,#938,.T.);
#936 = VERTEX_POINT('',#937);
#937 = CARTESIAN_POINT('',(20.,7.,3.99));
#938 = CIRCLE('',#939,0.49);
#939 = AXIS2_PLACEMENT_3D('',#940,#941,#942);
#940 = CARTESIAN_POINT('',(20.,7.49,3.99));
#941 = DIRECTION('',(1.,0.,0.));
#942 = DIRECTION('',(0.,-1.,0.));
#943 = ORIENTED_EDGE('',*,*,#944,.T.);
#944 = EDGE_CURVE('',#936,#945,#947,.T.);
#945 = VERTEX_POINT('',#946);
#946 = CARTESIAN_POINT('',(20.,7.,4.01));
#947 = LINE('',#948,#949);
#948 = CARTESIAN_POINT('',(20.,7.,2.25));
#949 = VECTOR('',#950,1.);
#950 = DIRECTION('',(0.,0.,1.));
#951 = ORIENTED_EDGE('',*,*,#952,.F.);
#952 = EDGE_CURVE('',#953,#945,#955,.T.);
#953 = VERTEX_POINT('',#954);
#954 = CARTESIAN_POINT('',(20.,7.49,4.5));
#955 = CIRCLE('',#956,0.49);
#956 = AXIS2_PLACEMENT_3D('',#957,#958,#959);
#957 = CARTESIAN_POINT('',(20.,7.49,4.01));
#958 = DIRECTION('',(1.,0.,0.));
#959 = DIRECTION('',(0.,-1.,0.));
#960 = ORIENTED_EDGE('',*,*,#961,.F.);
#961 = EDGE_CURVE('',#962,#953,#964,.T.);
#962 = VERTEX_POINT('',#963);
#963 = CARTESIAN_POINT('',(20.,9.,4.5));
#964 = LINE('',#965,#966);
#965 = CARTESIAN_POINT('',(20.,-0.862920261683,4.5));
#966 = VECTOR('',#967,1.);
#967 = DIRECTION('',(0.,-1.,0.));
#968 = ORIENTED_EDGE('',*,*,#969,.T.);
#969 = EDGE_CURVE('',#962,#910,#970,.T.);
#970 = LINE('',#971,#972);
#971 = CARTESIAN_POINT('',(20.,9.,1.));
#972 = VECTOR('',#973,1.);
#973 = DIRECTION('',(0.,0.,1.));
#974 = PLANE('',#975);
#975 = AXIS2_PLACEMENT_3D('',#976,#977,#978);
#976 = CARTESIAN_POINT('',(20.,-12.,1.));
#977 = DIRECTION('',(1.,0.,0.));
#978 = DIRECTION('',(0.,0.,1.));
#979 = ADVANCED_FACE('',(#980),#1140,.F.);
#980 = FACE_BOUND('',#981,.F.);
#981 = EDGE_LOOP('',(#982,#983,#984,#992,#1001,#1020,#1028,#1047,#1056,
    #1064,#1071,#1072,#1081,#1103,#1111,#1133));
#982 = ORIENTED_EDGE('',*,*,#919,.F.);
#983 = ORIENTED_EDGE('',*,*,#274,.T.);
#984 = ORIENTED_EDGE('',*,*,#985,.T.);
#985 = EDGE_CURVE('',#267,#986,#988,.T.);
#986 = VERTEX_POINT('',#987);
#987 = CARTESIAN_POINT('',(17.,12.,3.5));
#988 = LINE('',#989,#990);
#989 = CARTESIAN_POINT('',(17.,12.,1.));
#990 = VECTOR('',#991,1.);
#991 = DIRECTION('',(0.,0.,1.));
#992 = ORIENTED_EDGE('',*,*,#993,.F.);
#993 = EDGE_CURVE('',#994,#986,#996,.T.);
#994 = VERTEX_POINT('',#995);
#995 = CARTESIAN_POINT('',(17.71,11.914772718412,3.5));
#996 = CIRCLE('',#997,3.);
#997 = AXIS2_PLACEMENT_3D('',#998,#999,#1000);
#998 = CARTESIAN_POINT('',(17.,9.,3.5));
#999 = DIRECTION('',(0.,0.,1.));
#1000 = DIRECTION('',(1.,0.,-0.));
#1001 = ORIENTED_EDGE('',*,*,#1002,.F.);
#1002 = EDGE_CURVE('',#1003,#994,#1005,.T.);
#1003 = VERTEX_POINT('',#1004);
#1004 = CARTESIAN_POINT('',(18.2,11.749545416973,3.99));
#1005 = B_SPLINE_CURVE_WITH_KNOTS('',7,(#1006,#1007,#1008,#1009,#1010,
    #1011,#1012,#1013,#1014,#1015,#1016,#1017,#1018,#1019),
  .UNSPECIFIED.,.F.,.F.,(8,6,8),(0.,0.669636528032,1.),.UNSPECIFIED.);
#1006 = CARTESIAN_POINT('',(18.2,11.749545416974,3.99));
#1007 = CARTESIAN_POINT('',(18.2,11.749545416974,3.918442698495));
#1008 = CARTESIAN_POINT('',(18.187808421545,11.754866372875,
    3.846871314935));
#1009 = CARTESIAN_POINT('',(18.163416990173,11.765511011094,
    3.777601528423));
#1010 = CARTESIAN_POINT('',(18.127271235526,11.780882915903,
    3.712916213747));
#1011 = CARTESIAN_POINT('',(18.080223148927,11.799787752749,
    3.65506839606));
#1012 = CARTESIAN_POINT('',(18.023644302148,11.820770385896,
    3.606212465491));
#1013 = CARTESIAN_POINT('',(17.927750476554,11.853138098071,
    3.549501015125));
#1014 = CARTESIAN_POINT('',(17.894204312023,11.864002305195,
    3.533408990192));
#1015 = CARTESIAN_POINT('',(17.859087496252,11.874847769834,
    3.520230773291));
#1016 = CARTESIAN_POINT('',(17.822736583885,11.885491001095,
    3.510177981378));
#1017 = CARTESIAN_POINT('',(17.785516091198,11.895771919711,
    3.503403351331));
#1018 = CARTESIAN_POINT('',(17.747807476815,11.905563318184,3.5));
#1019 = CARTESIAN_POINT('',(17.71,11.914772718412,3.5));
#1020 = ORIENTED_EDGE('',*,*,#1021,.T.);
#1021 = EDGE_CURVE('',#1003,#1022,#1024,.T.);
#1022 = VERTEX_POINT('',#1023);
#1023 = CARTESIAN_POINT('',(18.2,11.749545416973,4.01));
#1024 = LINE('',#1025,#1026);
#1025 = CARTESIAN_POINT('',(18.2,11.749545416974,1.));
#1026 = VECTOR('',#1027,1.);
#1027 = DIRECTION('',(0.,0.,1.));
#1028 = ORIENTED_EDGE('',*,*,#1029,.T.);
#1029 = EDGE_CURVE('',#1022,#1030,#1032,.T.);
#1030 = VERTEX_POINT('',#1031);
#1031 = CARTESIAN_POINT('',(17.71,11.914772718412,4.5));
#1032 = B_SPLINE_CURVE_WITH_KNOTS('',7,(#1033,#1034,#1035,#1036,#1037,
    #1038,#1039,#1040,#1041,#1042,#1043,#1044,#1045,#1046),
  .UNSPECIFIED.,.F.,.F.,(8,6,8),(0.,0.669636528033,1.),.UNSPECIFIED.);
#1033 = CARTESIAN_POINT('',(18.2,11.749545416974,4.01));
#1034 = CARTESIAN_POINT('',(18.2,11.749545416974,4.081557301505));
#1035 = CARTESIAN_POINT('',(18.187808421545,11.754866372875,
    4.153128685065));
#1036 = CARTESIAN_POINT('',(18.163416990173,11.765511011094,
    4.222398471577));
#1037 = CARTESIAN_POINT('',(18.127271235525,11.780882915903,
    4.287083786253));
#1038 = CARTESIAN_POINT('',(18.080223148927,11.799787752749,
    4.34493160394));
#1039 = CARTESIAN_POINT('',(18.023644302148,11.820770385896,
    4.393787534509));
#1040 = CARTESIAN_POINT('',(17.927750476554,11.853138098071,
    4.450498984875));
#1041 = CARTESIAN_POINT('',(17.894204312023,11.864002305195,
    4.466591009808));
#1042 = CARTESIAN_POINT('',(17.859087496252,11.874847769834,
    4.479769226709));
#1043 = CARTESIAN_POINT('',(17.822736583885,11.885491001095,
    4.489822018622));
#1044 = CARTESIAN_POINT('',(17.785516091198,11.895771919711,
    4.496596648668));
#1045 = CARTESIAN_POINT('',(17.747807476815,11.905563318184,4.5));
#1046 = CARTESIAN_POINT('',(17.71,11.914772718412,4.5));
#1047 = ORIENTED_EDGE('',*,*,#1048,.T.);
#1048 = EDGE_CURVE('',#1030,#1049,#1051,.T.);
#1049 = VERTEX_POINT('',#1050);
#1050 = CARTESIAN_POINT('',(17.,12.,4.5));
#1051 = CIRCLE('',#1052,3.);
#1052 = AXIS2_PLACEMENT_3D('',#1053,#1054,#1055);
#1053 = CARTESIAN_POINT('',(17.,9.,4.5));
#1054 = DIRECTION('',(0.,0.,1.));
#1055 = DIRECTION('',(1.,0.,-0.));
#1056 = ORIENTED_EDGE('',*,*,#1057,.T.);
#1057 = EDGE_CURVE('',#1049,#1058,#1060,.T.);
#1058 = VERTEX_POINT('',#1059);
#1059 = CARTESIAN_POINT('',(17.,12.,5.));
#1060 = LINE('',#1061,#1062);
#1061 = CARTESIAN_POINT('',(17.,12.,1.));
#1062 = VECTOR('',#1063,1.);
#1063 = DIRECTION('',(0.,0.,1.));
#1064 = ORIENTED_EDGE('',*,*,#1065,.F.);
#1065 = EDGE_CURVE('',#910,#1058,#1066,.T.);
#1066 = CIRCLE('',#1067,3.);
#1067 = AXIS2_PLACEMENT_3D('',#1068,#1069,#1070);
#1068 = CARTESIAN_POINT('',(17.,9.,5.));
#1069 = DIRECTION('',(-0.,0.,1.));
#1070 = DIRECTION('',(0.,-1.,0.));
#1071 = ORIENTED_EDGE('',*,*,#969,.F.);
#1072 = ORIENTED_EDGE('',*,*,#1073,.T.);
#1073 = EDGE_CURVE('',#962,#1074,#1076,.T.);
#1074 = VERTEX_POINT('',#1075);
#1075 = CARTESIAN_POINT('',(19.592276991373,10.51,4.5));
#1076 = CIRCLE('',#1077,3.);
#1077 = AXIS2_PLACEMENT_3D('',#1078,#1079,#1080);
#1078 = CARTESIAN_POINT('',(17.,9.,4.5));
#1079 = DIRECTION('',(0.,0.,1.));
#1080 = DIRECTION('',(1.,0.,-0.));
#1081 = ORIENTED_EDGE('',*,*,#1082,.F.);
#1082 = EDGE_CURVE('',#1083,#1074,#1085,.T.);
#1083 = VERTEX_POINT('',#1084);
#1084 = CARTESIAN_POINT('',(19.2360679775,11.,4.01));
#1085 = B_SPLINE_CURVE_WITH_KNOTS('',6,(#1086,#1087,#1088,#1089,#1090,
    #1091,#1092,#1093,#1094,#1095,#1096,#1097,#1098,#1099,#1100,#1101,
    #1102),.UNSPECIFIED.,.F.,.F.,(7,5,5,7),(0.,0.286434000058,
    0.604207872125,1.),.UNSPECIFIED.);
#1086 = CARTESIAN_POINT('',(19.2360679775,11.,4.01));
#1087 = CARTESIAN_POINT('',(19.2360679775,11.,4.047040596723));
#1088 = CARTESIAN_POINT('',(19.239073254614,10.996639978877,
    4.084038826295));
#1089 = CARTESIAN_POINT('',(19.245070978788,10.989934408099,
    4.120605295568));
#1090 = CARTESIAN_POINT('',(19.253923965405,10.979960051551,
    4.156352101546));
#1091 = CARTESIAN_POINT('',(19.265371005082,10.966859641186,
    4.190888291156));
#1092 = CARTESIAN_POINT('',(19.294230923984,10.933144916179,
    4.260398198705));
#1093 = CARTESIAN_POINT('',(19.312166633155,10.911857209483,
    4.295023512493));
#1094 = CARTESIAN_POINT('',(19.332445631267,10.887254041677,
    4.327377851509));
#1095 = CARTESIAN_POINT('',(19.354603662751,10.859603132261,
    4.357123788359));
#1096 = CARTESIAN_POINT('',(19.378160467919,10.829214546742,
    4.383941686228));
#1097 = CARTESIAN_POINT('',(19.433161165869,10.755654346938,
    4.436946198719));
#1098 = CARTESIAN_POINT('',(19.465214083314,10.711051832913,
    4.461450693271));
#1099 = CARTESIAN_POINT('',(19.49791574118,10.663340839969,
    4.480435106834));
#1100 = CARTESIAN_POINT('',(19.530420528428,10.613325042069,
    4.493405000799));
#1101 = CARTESIAN_POINT('',(19.562048734054,10.561894050289,4.5));
#1102 = CARTESIAN_POINT('',(19.592276991373,10.51,4.5));
#1103 = ORIENTED_EDGE('',*,*,#1104,.F.);
#1104 = EDGE_CURVE('',#1105,#1083,#1107,.T.);
#1105 = VERTEX_POINT('',#1106);
#1106 = CARTESIAN_POINT('',(19.2360679775,11.,3.99));
#1107 = LINE('',#1108,#1109);
#1108 = CARTESIAN_POINT('',(19.2360679775,11.,1.));
#1109 = VECTOR('',#1110,1.);
#1110 = DIRECTION('',(0.,0.,1.));
#1111 = ORIENTED_EDGE('',*,*,#1112,.T.);
#1112 = EDGE_CURVE('',#1105,#1113,#1115,.T.);
#1113 = VERTEX_POINT('',#1114);
#1114 = CARTESIAN_POINT('',(19.592276991373,10.51,3.5));
#1115 = B_SPLINE_CURVE_WITH_KNOTS('',6,(#1116,#1117,#1118,#1119,#1120,
    #1121,#1122,#1123,#1124,#1125,#1126,#1127,#1128,#1129,#1130,#1131,
    #1132),.UNSPECIFIED.,.F.,.F.,(7,5,5,7),(0.,0.286434000058,
    0.604207872125,1.),.UNSPECIFIED.);
#1116 = CARTESIAN_POINT('',(19.2360679775,11.,3.99));
#1117 = CARTESIAN_POINT('',(19.2360679775,11.,3.952959403277));
#1118 = CARTESIAN_POINT('',(19.239073254614,10.996639978877,
    3.915961173705));
#1119 = CARTESIAN_POINT('',(19.245070978788,10.989934408099,
    3.879394704432));
#1120 = CARTESIAN_POINT('',(19.253923965405,10.979960051551,
    3.843647898454));
#1121 = CARTESIAN_POINT('',(19.265371005082,10.966859641186,
    3.809111708844));
#1122 = CARTESIAN_POINT('',(19.294230923984,10.933144916179,
    3.739601801295));
#1123 = CARTESIAN_POINT('',(19.312166633155,10.911857209483,
    3.704976487507));
#1124 = CARTESIAN_POINT('',(19.332445631267,10.887254041677,
    3.672622148491));
#1125 = CARTESIAN_POINT('',(19.354603662751,10.859603132261,
    3.642876211641));
#1126 = CARTESIAN_POINT('',(19.378160467919,10.829214546742,
    3.616058313772));
#1127 = CARTESIAN_POINT('',(19.433161165869,10.755654346938,
    3.563053801281));
#1128 = CARTESIAN_POINT('',(19.465214083314,10.711051832913,
    3.538549306729));
#1129 = CARTESIAN_POINT('',(19.49791574118,10.663340839969,
    3.519564893166));
#1130 = CARTESIAN_POINT('',(19.530420528428,10.613325042069,
    3.506594999201));
#1131 = CARTESIAN_POINT('',(19.562048734054,10.561894050289,3.5));
#1132 = CARTESIAN_POINT('',(19.592276991373,10.51,3.5));
#1133 = ORIENTED_EDGE('',*,*,#1134,.F.);
#1134 = EDGE_CURVE('',#920,#1113,#1135,.T.);
#1135 = CIRCLE('',#1136,3.);
#1136 = AXIS2_PLACEMENT_3D('',#1137,#1138,#1139);
#1137 = CARTESIAN_POINT('',(17.,9.,3.5));
#1138 = DIRECTION('',(0.,0.,1.));
#1139 = DIRECTION('',(1.,0.,-0.));
#1140 = CYLINDRICAL_SURFACE('',#1141,3.);
#1141 = AXIS2_PLACEMENT_3D('',#1142,#1143,#1144);
#1142 = CARTESIAN_POINT('',(17.,9.,1.));
#1143 = DIRECTION('',(0.,0.,1.));
#1144 = DIRECTION('',(1.,0.,0.));
#1145 = ADVANCED_FACE('',(#1146),#1205,.F.);
#1146 = FACE_BOUND('',#1147,.F.);
#1147 = EDGE_LOOP('',(#1148,#1149,#1157,#1163,#1164,#1172,#1181,#1189,
    #1198,#1204));
#1148 = ORIENTED_EDGE('',*,*,#266,.F.);
#1149 = ORIENTED_EDGE('',*,*,#1150,.T.);
#1150 = EDGE_CURVE('',#258,#1151,#1153,.T.);
#1151 = VERTEX_POINT('',#1152);
#1152 = CARTESIAN_POINT('',(-17.,12.,5.));
#1153 = LINE('',#1154,#1155);
#1154 = CARTESIAN_POINT('',(-17.,12.,1.));
#1155 = VECTOR('',#1156,1.);
#1156 = DIRECTION('',(0.,0.,1.));
#1157 = ORIENTED_EDGE('',*,*,#1158,.T.);
#1158 = EDGE_CURVE('',#1151,#1058,#1159,.T.);
#1159 = LINE('',#1160,#1161);
#1160 = CARTESIAN_POINT('',(-20.,12.,5.));
#1161 = VECTOR('',#1162,1.);
#1162 = DIRECTION('',(1.,0.,0.));
#1163 = ORIENTED_EDGE('',*,*,#1057,.F.);
#1164 = ORIENTED_EDGE('',*,*,#1165,.F.);
#1165 = EDGE_CURVE('',#1166,#1049,#1168,.T.);
#1166 = VERTEX_POINT('',#1167);
#1167 = CARTESIAN_POINT('',(14.69,12.,4.5));
#1168 = LINE('',#1169,#1170);
#1169 = CARTESIAN_POINT('',(-1.067020005822,12.,4.5));
#1170 = VECTOR('',#1171,1.);
#1171 = DIRECTION('',(1.,0.,0.));
#1172 = ORIENTED_EDGE('',*,*,#1173,.F.);
#1173 = EDGE_CURVE('',#1174,#1166,#1176,.T.);
#1174 = VERTEX_POINT('',#1175);
#1175 = CARTESIAN_POINT('',(14.2,12.,4.01));
#1176 = CIRCLE('',#1177,0.49);
#1177 = AXIS2_PLACEMENT_3D('',#1178,#1179,#1180);
#1178 = CARTESIAN_POINT('',(14.69,12.,4.01));
#1179 = DIRECTION('',(0.,1.,0.));
#1180 = DIRECTION('',(-1.,0.,0.));
#1181 = ORIENTED_EDGE('',*,*,#1182,.T.);
#1182 = EDGE_CURVE('',#1174,#1183,#1185,.T.);
#1183 = VERTEX_POINT('',#1184);
#1184 = CARTESIAN_POINT('',(14.2,12.,3.99));
#1185 = LINE('',#1186,#1187);
#1186 = CARTESIAN_POINT('',(14.2,12.,2.25));
#1187 = VECTOR('',#1188,1.);
#1188 = DIRECTION('',(0.,0.,-1.));
#1189 = ORIENTED_EDGE('',*,*,#1190,.F.);
#1190 = EDGE_CURVE('',#1191,#1183,#1193,.T.);
#1191 = VERTEX_POINT('',#1192);
#1192 = CARTESIAN_POINT('',(14.69,12.,3.5));
#1193 = CIRCLE('',#1194,0.49);
#1194 = AXIS2_PLACEMENT_3D('',#1195,#1196,#1197);
#1195 = CARTESIAN_POINT('',(14.69,12.,3.99));
#1196 = DIRECTION('',(0.,1.,0.));
#1197 = DIRECTION('',(-1.,0.,0.));
#1198 = ORIENTED_EDGE('',*,*,#1199,.F.);
#1199 = EDGE_CURVE('',#986,#1191,#1200,.T.);
#1200 = LINE('',#1201,#1202);
#1201 = CARTESIAN_POINT('',(-1.262486661661,12.,3.5));
#1202 = VECTOR('',#1203,1.);
#1203 = DIRECTION('',(-1.,0.,0.));
#1204 = ORIENTED_EDGE('',*,*,#985,.F.);
#1205 = PLANE('',#1206);
#1206 = AXIS2_PLACEMENT_3D('',#1207,#1208,#1209);
#1207 = CARTESIAN_POINT('',(-20.,12.,1.));
#1208 = DIRECTION('',(0.,1.,0.));
#1209 = DIRECTION('',(0.,0.,1.));
#1210 = ADVANCED_FACE('',(#1211),#1230,.F.);
#1211 = FACE_BOUND('',#1212,.T.);
#1212 = EDGE_LOOP('',(#1213,#1214,#1215,#1224));
#1213 = ORIENTED_EDGE('',*,*,#257,.T.);
#1214 = ORIENTED_EDGE('',*,*,#1150,.T.);
#1215 = ORIENTED_EDGE('',*,*,#1216,.F.);
#1216 = EDGE_CURVE('',#1217,#1151,#1219,.T.);
#1217 = VERTEX_POINT('',#1218);
#1218 = CARTESIAN_POINT('',(-20.,9.,5.));
#1219 = CIRCLE('',#1220,3.);
#1220 = AXIS2_PLACEMENT_3D('',#1221,#1222,#1223);
#1221 = CARTESIAN_POINT('',(-17.,9.,5.));
#1222 = DIRECTION('',(-0.,-0.,-1.));
#1223 = DIRECTION('',(0.,-1.,0.));
#1224 = ORIENTED_EDGE('',*,*,#1225,.F.);
#1225 = EDGE_CURVE('',#250,#1217,#1226,.T.);
#1226 = LINE('',#1227,#1228);
#1227 = CARTESIAN_POINT('',(-20.,9.,1.));
#1228 = VECTOR('',#1229,1.);
#1229 = DIRECTION('',(0.,0.,1.));
#1230 = CYLINDRICAL_SURFACE('',#1231,3.);
#1231 = AXIS2_PLACEMENT_3D('',#1232,#1233,#1234);
#1232 = CARTESIAN_POINT('',(-17.,9.,1.));
#1233 = DIRECTION('',(0.,0.,1.));
#1234 = DIRECTION('',(-1.,0.,0.));
#1235 = ADVANCED_FACE('',(#1236),#1254,.T.);
#1236 = FACE_BOUND('',#1237,.T.);
#1237 = EDGE_LOOP('',(#1238,#1246,#1252,#1253));
#1238 = ORIENTED_EDGE('',*,*,#1239,.F.);
#1239 = EDGE_CURVE('',#1240,#1217,#1242,.T.);
#1240 = VERTEX_POINT('',#1241);
#1241 = CARTESIAN_POINT('',(-20.,-9.,5.));
#1242 = LINE('',#1243,#1244);
#1243 = CARTESIAN_POINT('',(-20.,-12.,5.));
#1244 = VECTOR('',#1245,1.);
#1245 = DIRECTION('',(0.,1.,0.));
#1246 = ORIENTED_EDGE('',*,*,#1247,.F.);
#1247 = EDGE_CURVE('',#241,#1240,#1248,.T.);
#1248 = LINE('',#1249,#1250);
#1249 = CARTESIAN_POINT('',(-20.,-9.,1.));
#1250 = VECTOR('',#1251,1.);
#1251 = DIRECTION('',(0.,0.,1.));
#1252 = ORIENTED_EDGE('',*,*,#249,.T.);
#1253 = ORIENTED_EDGE('',*,*,#1225,.T.);
#1254 = PLANE('',#1255);
#1255 = AXIS2_PLACEMENT_3D('',#1256,#1257,#1258);
#1256 = CARTESIAN_POINT('',(-20.,-12.,1.));
#1257 = DIRECTION('',(1.,0.,0.));
#1258 = DIRECTION('',(0.,0.,1.));
#1259 = ADVANCED_FACE('',(#1260),#1272,.F.);
#1260 = FACE_BOUND('',#1261,.F.);
#1261 = EDGE_LOOP('',(#1262,#1263,#1264,#1271));
#1262 = ORIENTED_EDGE('',*,*,#240,.T.);
#1263 = ORIENTED_EDGE('',*,*,#838,.T.);
#1264 = ORIENTED_EDGE('',*,*,#1265,.F.);
#1265 = EDGE_CURVE('',#1240,#839,#1266,.T.);
#1266 = CIRCLE('',#1267,3.);
#1267 = AXIS2_PLACEMENT_3D('',#1268,#1269,#1270);
#1268 = CARTESIAN_POINT('',(-17.,-9.,5.));
#1269 = DIRECTION('',(-0.,0.,1.));
#1270 = DIRECTION('',(0.,-1.,0.));
#1271 = ORIENTED_EDGE('',*,*,#1247,.F.);
#1272 = CYLINDRICAL_SURFACE('',#1273,3.);
#1273 = AXIS2_PLACEMENT_3D('',#1274,#1275,#1276);
#1274 = CARTESIAN_POINT('',(-17.,-9.,1.));
#1275 = DIRECTION('',(0.,0.,1.));
#1276 = DIRECTION('',(-1.,0.,0.));
#1277 = ADVANCED_FACE('',(#1278),#1296,.T.);
#1278 = FACE_BOUND('',#1279,.T.);
#1279 = EDGE_LOOP('',(#1280,#1288,#1289,#1290));
#1280 = ORIENTED_EDGE('',*,*,#1281,.F.);
#1281 = EDGE_CURVE('',#217,#1282,#1284,.T.);
#1282 = VERTEX_POINT('',#1283);
#1283 = CARTESIAN_POINT('',(11.78,-12.1,2.5));
#1284 = LINE('',#1285,#1286);
#1285 = CARTESIAN_POINT('',(11.78,-12.1,1.));
#1286 = VECTOR('',#1287,1.);
#1287 = DIRECTION('',(0.,0.,1.));
#1288 = ORIENTED_EDGE('',*,*,#224,.T.);
#1289 = ORIENTED_EDGE('',*,*,#870,.F.);
#1290 = ORIENTED_EDGE('',*,*,#1291,.F.);
#1291 = EDGE_CURVE('',#1282,#863,#1292,.T.);
#1292 = LINE('',#1293,#1294);
#1293 = CARTESIAN_POINT('',(11.78,-12.1,2.5));
#1294 = VECTOR('',#1295,1.);
#1295 = DIRECTION('',(0.,1.,0.));
#1296 = PLANE('',#1297);
#1297 = AXIS2_PLACEMENT_3D('',#1298,#1299,#1300);
#1298 = CARTESIAN_POINT('',(11.78,-12.1,1.));
#1299 = DIRECTION('',(1.,0.,0.));
#1300 = DIRECTION('',(0.,0.,1.));
#1301 = ADVANCED_FACE('',(#1302),#1314,.F.);
#1302 = FACE_BOUND('',#1303,.F.);
#1303 = EDGE_LOOP('',(#1304,#1305,#1306,#1307,#1313));
#1304 = ORIENTED_EDGE('',*,*,#216,.T.);
#1305 = ORIENTED_EDGE('',*,*,#208,.T.);
#1306 = ORIENTED_EDGE('',*,*,#751,.T.);
#1307 = ORIENTED_EDGE('',*,*,#1308,.F.);
#1308 = EDGE_CURVE('',#1282,#752,#1309,.T.);
#1309 = LINE('',#1310,#1311);
#1310 = CARTESIAN_POINT('',(11.78,-12.1,2.5));
#1311 = VECTOR('',#1312,1.);
#1312 = DIRECTION('',(1.,0.,0.));
#1313 = ORIENTED_EDGE('',*,*,#1281,.F.);
#1314 = PLANE('',#1315);
#1315 = AXIS2_PLACEMENT_3D('',#1316,#1317,#1318);
#1316 = CARTESIAN_POINT('',(12.574954414016,-12.1,1.092433473321));
#1317 = DIRECTION('',(-0.,-1.,-0.));
#1318 = DIRECTION('',(0.,0.,-1.));
#1319 = ADVANCED_FACE('',(#1320),#1338,.F.);
#1320 = FACE_BOUND('',#1321,.F.);
#1321 = EDGE_LOOP('',(#1322,#1328,#1329,#1330,#1336,#1337));
#1322 = ORIENTED_EDGE('',*,*,#1323,.F.);
#1323 = EDGE_CURVE('',#994,#536,#1324,.T.);
#1324 = LINE('',#1325,#1326);
#1325 = CARTESIAN_POINT('',(17.71,9.,3.5));
#1326 = VECTOR('',#1327,1.);
#1327 = DIRECTION('',(0.,1.,0.));
#1328 = ORIENTED_EDGE('',*,*,#993,.T.);
#1329 = ORIENTED_EDGE('',*,*,#1199,.T.);
#1330 = ORIENTED_EDGE('',*,*,#1331,.T.);
#1331 = EDGE_CURVE('',#1191,#445,#1332,.T.);
#1332 = LINE('',#1333,#1334);
#1333 = CARTESIAN_POINT('',(14.69,9.,3.5));
#1334 = VECTOR('',#1335,1.);
#1335 = DIRECTION('',(0.,1.,0.));
#1336 = ORIENTED_EDGE('',*,*,#453,.T.);
#1337 = ORIENTED_EDGE('',*,*,#535,.F.);
#1338 = PLANE('',#1339);
#1339 = AXIS2_PLACEMENT_3D('',#1340,#1341,#1342);
#1340 = CARTESIAN_POINT('',(17.475026676677,9.876914578309,3.5));
#1341 = DIRECTION('',(-0.,-0.,-1.));
#1342 = DIRECTION('',(-1.,0.,0.));
#1343 = ADVANCED_FACE('',(#1344),#1355,.F.);
#1344 = FACE_BOUND('',#1345,.T.);
#1345 = EDGE_LOOP('',(#1346,#1352,#1353,#1354));
#1346 = ORIENTED_EDGE('',*,*,#1347,.F.);
#1347 = EDGE_CURVE('',#1183,#437,#1348,.T.);
#1348 = LINE('',#1349,#1350);
#1349 = CARTESIAN_POINT('',(14.2,9.,3.99));
#1350 = VECTOR('',#1351,1.);
#1351 = DIRECTION('',(0.,1.,0.));
#1352 = ORIENTED_EDGE('',*,*,#1190,.F.);
#1353 = ORIENTED_EDGE('',*,*,#1331,.T.);
#1354 = ORIENTED_EDGE('',*,*,#444,.F.);
#1355 = CYLINDRICAL_SURFACE('',#1356,0.49);
#1356 = AXIS2_PLACEMENT_3D('',#1357,#1358,#1359);
#1357 = CARTESIAN_POINT('',(14.69,9.,3.99));
#1358 = DIRECTION('',(0.,1.,0.));
#1359 = DIRECTION('',(-1.,0.,0.));
#1360 = ADVANCED_FACE('',(#1361),#1372,.T.);
#1361 = FACE_BOUND('',#1362,.T.);
#1362 = EDGE_LOOP('',(#1363,#1364,#1365,#1366));
#1363 = ORIENTED_EDGE('',*,*,#1182,.T.);
#1364 = ORIENTED_EDGE('',*,*,#1347,.T.);
#1365 = ORIENTED_EDGE('',*,*,#436,.T.);
#1366 = ORIENTED_EDGE('',*,*,#1367,.F.);
#1367 = EDGE_CURVE('',#1174,#428,#1368,.T.);
#1368 = LINE('',#1369,#1370);
#1369 = CARTESIAN_POINT('',(14.2,9.,4.01));
#1370 = VECTOR('',#1371,1.);
#1371 = DIRECTION('',(0.,1.,0.));
#1372 = PLANE('',#1373);
#1373 = AXIS2_PLACEMENT_3D('',#1374,#1375,#1376);
#1374 = CARTESIAN_POINT('',(14.2,9.,3.5));
#1375 = DIRECTION('',(1.,0.,0.));
#1376 = DIRECTION('',(0.,0.,1.));
#1377 = ADVANCED_FACE('',(#1378),#1389,.F.);
#1378 = FACE_BOUND('',#1379,.F.);
#1379 = EDGE_LOOP('',(#1380,#1381,#1382,#1388));
#1380 = ORIENTED_EDGE('',*,*,#1367,.F.);
#1381 = ORIENTED_EDGE('',*,*,#1173,.T.);
#1382 = ORIENTED_EDGE('',*,*,#1383,.T.);
#1383 = EDGE_CURVE('',#1166,#420,#1384,.T.);
#1384 = LINE('',#1385,#1386);
#1385 = CARTESIAN_POINT('',(14.69,9.,4.5));
#1386 = VECTOR('',#1387,1.);
#1387 = DIRECTION('',(0.,1.,0.));
#1388 = ORIENTED_EDGE('',*,*,#427,.F.);
#1389 = CYLINDRICAL_SURFACE('',#1390,0.49);
#1390 = AXIS2_PLACEMENT_3D('',#1391,#1392,#1393);
#1391 = CARTESIAN_POINT('',(14.69,9.,4.01));
#1392 = DIRECTION('',(0.,1.,0.));
#1393 = DIRECTION('',(-1.,0.,0.));
#1394 = ADVANCED_FACE('',(#1395),#1408,.F.);
#1395 = FACE_BOUND('',#1396,.F.);
#1396 = EDGE_LOOP('',(#1397,#1398,#1399,#1400,#1406,#1407));
#1397 = ORIENTED_EDGE('',*,*,#1383,.F.);
#1398 = ORIENTED_EDGE('',*,*,#1165,.T.);
#1399 = ORIENTED_EDGE('',*,*,#1048,.F.);
#1400 = ORIENTED_EDGE('',*,*,#1401,.T.);
#1401 = EDGE_CURVE('',#1030,#570,#1402,.T.);
#1402 = LINE('',#1403,#1404);
#1403 = CARTESIAN_POINT('',(17.71,9.,4.5));
#1404 = VECTOR('',#1405,1.);
#1405 = DIRECTION('',(0.,1.,0.));
#1406 = ORIENTED_EDGE('',*,*,#586,.T.);
#1407 = ORIENTED_EDGE('',*,*,#419,.F.);
#1408 = PLANE('',#1409);
#1409 = AXIS2_PLACEMENT_3D('',#1410,#1411,#1412);
#1410 = CARTESIAN_POINT('',(17.865959988355,10.274159476635,4.5));
#1411 = DIRECTION('',(0.,0.,1.));
#1412 = DIRECTION('',(1.,0.,0.));
#1413 = ADVANCED_FACE('',(#1414),#1432,.F.);
#1414 = FACE_BOUND('',#1415,.F.);
#1415 = EDGE_LOOP('',(#1416,#1417,#1423,#1424,#1425,#1431));
#1416 = ORIENTED_EDGE('',*,*,#1134,.T.);
#1417 = ORIENTED_EDGE('',*,*,#1418,.T.);
#1418 = EDGE_CURVE('',#1113,#640,#1419,.T.);
#1419 = LINE('',#1420,#1421);
#1420 = CARTESIAN_POINT('',(16.,10.51,3.5));
#1421 = VECTOR('',#1422,1.);
#1422 = DIRECTION('',(1.,0.,0.));
#1423 = ORIENTED_EDGE('',*,*,#658,.F.);
#1424 = ORIENTED_EDGE('',*,*,#677,.F.);
#1425 = ORIENTED_EDGE('',*,*,#1426,.F.);
#1426 = EDGE_CURVE('',#928,#678,#1427,.T.);
#1427 = LINE('',#1428,#1429);
#1428 = CARTESIAN_POINT('',(16.,7.49,3.5));
#1429 = VECTOR('',#1430,1.);
#1430 = DIRECTION('',(1.,0.,0.));
#1431 = ORIENTED_EDGE('',*,*,#927,.T.);
#1432 = PLANE('',#1433);
#1433 = AXIS2_PLACEMENT_3D('',#1434,#1435,#1436);
#1434 = CARTESIAN_POINT('',(17.475026676677,9.876914578309,3.5));
#1435 = DIRECTION('',(-0.,-0.,-1.));
#1436 = DIRECTION('',(-1.,0.,0.));
#1437 = ADVANCED_FACE('',(#1438),#1449,.F.);
#1438 = FACE_BOUND('',#1439,.T.);
#1439 = EDGE_LOOP('',(#1440,#1446,#1447,#1448));
#1440 = ORIENTED_EDGE('',*,*,#1441,.F.);
#1441 = EDGE_CURVE('',#1105,#632,#1442,.T.);
#1442 = LINE('',#1443,#1444);
#1443 = CARTESIAN_POINT('',(16.,11.,3.99));
#1444 = VECTOR('',#1445,1.);
#1445 = DIRECTION('',(1.,0.,0.));
#1446 = ORIENTED_EDGE('',*,*,#1112,.T.);
#1447 = ORIENTED_EDGE('',*,*,#1418,.T.);
#1448 = ORIENTED_EDGE('',*,*,#639,.F.);
#1449 = CYLINDRICAL_SURFACE('',#1450,0.49);
#1450 = AXIS2_PLACEMENT_3D('',#1451,#1452,#1453);
#1451 = CARTESIAN_POINT('',(16.,10.51,3.99));
#1452 = DIRECTION('',(1.,0.,0.));
#1453 = DIRECTION('',(0.,1.,0.));
#1454 = ADVANCED_FACE('',(#1455),#1466,.F.);
#1455 = FACE_BOUND('',#1456,.F.);
#1456 = EDGE_LOOP('',(#1457,#1458,#1459,#1460));
#1457 = ORIENTED_EDGE('',*,*,#631,.F.);
#1458 = ORIENTED_EDGE('',*,*,#1441,.F.);
#1459 = ORIENTED_EDGE('',*,*,#1104,.T.);
#1460 = ORIENTED_EDGE('',*,*,#1461,.T.);
#1461 = EDGE_CURVE('',#1083,#613,#1462,.T.);
#1462 = LINE('',#1463,#1464);
#1463 = CARTESIAN_POINT('',(16.,11.,4.01));
#1464 = VECTOR('',#1465,1.);
#1465 = DIRECTION('',(1.,0.,0.));
#1466 = PLANE('',#1467);
#1467 = AXIS2_PLACEMENT_3D('',#1468,#1469,#1470);
#1468 = CARTESIAN_POINT('',(16.,11.,3.5));
#1469 = DIRECTION('',(0.,1.,0.));
#1470 = DIRECTION('',(0.,0.,1.));
#1471 = ADVANCED_FACE('',(#1472),#1483,.F.);
#1472 = FACE_BOUND('',#1473,.F.);
#1473 = EDGE_LOOP('',(#1474,#1475,#1476,#1482));
#1474 = ORIENTED_EDGE('',*,*,#1461,.F.);
#1475 = ORIENTED_EDGE('',*,*,#1082,.T.);
#1476 = ORIENTED_EDGE('',*,*,#1477,.T.);
#1477 = EDGE_CURVE('',#1074,#604,#1478,.T.);
#1478 = LINE('',#1479,#1480);
#1479 = CARTESIAN_POINT('',(16.,10.51,4.5));
#1480 = VECTOR('',#1481,1.);
#1481 = DIRECTION('',(1.,0.,0.));
#1482 = ORIENTED_EDGE('',*,*,#612,.F.);
#1483 = CYLINDRICAL_SURFACE('',#1484,0.49);
#1484 = AXIS2_PLACEMENT_3D('',#1485,#1486,#1487);
#1485 = CARTESIAN_POINT('',(16.,10.51,4.01));
#1486 = DIRECTION('',(1.,0.,0.));
#1487 = DIRECTION('',(0.,1.,0.));
#1488 = ADVANCED_FACE('',(#1489),#1502,.F.);
#1489 = FACE_BOUND('',#1490,.F.);
#1490 = EDGE_LOOP('',(#1491,#1492,#1498,#1499,#1500,#1501));
#1491 = ORIENTED_EDGE('',*,*,#961,.T.);
#1492 = ORIENTED_EDGE('',*,*,#1493,.T.);
#1493 = EDGE_CURVE('',#953,#703,#1494,.T.);
#1494 = LINE('',#1495,#1496);
#1495 = CARTESIAN_POINT('',(16.,7.49,4.5));
#1496 = VECTOR('',#1497,1.);
#1497 = DIRECTION('',(1.,0.,0.));
#1498 = ORIENTED_EDGE('',*,*,#711,.T.);
#1499 = ORIENTED_EDGE('',*,*,#603,.T.);
#1500 = ORIENTED_EDGE('',*,*,#1477,.F.);
#1501 = ORIENTED_EDGE('',*,*,#1073,.F.);
#1502 = PLANE('',#1503);
#1503 = AXIS2_PLACEMENT_3D('',#1504,#1505,#1506);
#1504 = CARTESIAN_POINT('',(17.865959988355,10.274159476635,4.5));
#1505 = DIRECTION('',(0.,0.,1.));
#1506 = DIRECTION('',(1.,0.,0.));
#1507 = ADVANCED_FACE('',(#1508),#1519,.F.);
#1508 = FACE_BOUND('',#1509,.T.);
#1509 = EDGE_LOOP('',(#1510,#1516,#1517,#1518));
#1510 = ORIENTED_EDGE('',*,*,#1511,.F.);
#1511 = EDGE_CURVE('',#1022,#562,#1512,.T.);
#1512 = LINE('',#1513,#1514);
#1513 = CARTESIAN_POINT('',(18.2,9.,4.01));
#1514 = VECTOR('',#1515,1.);
#1515 = DIRECTION('',(0.,1.,0.));
#1516 = ORIENTED_EDGE('',*,*,#1029,.T.);
#1517 = ORIENTED_EDGE('',*,*,#1401,.T.);
#1518 = ORIENTED_EDGE('',*,*,#569,.F.);
#1519 = CYLINDRICAL_SURFACE('',#1520,0.49);
#1520 = AXIS2_PLACEMENT_3D('',#1521,#1522,#1523);
#1521 = CARTESIAN_POINT('',(17.71,9.,4.01));
#1522 = DIRECTION('',(0.,1.,0.));
#1523 = DIRECTION('',(1.,0.,0.));
#1524 = ADVANCED_FACE('',(#1525),#1536,.F.);
#1525 = FACE_BOUND('',#1526,.F.);
#1526 = EDGE_LOOP('',(#1527,#1528,#1529,#1535));
#1527 = ORIENTED_EDGE('',*,*,#1511,.F.);
#1528 = ORIENTED_EDGE('',*,*,#1021,.F.);
#1529 = ORIENTED_EDGE('',*,*,#1530,.T.);
#1530 = EDGE_CURVE('',#1003,#545,#1531,.T.);
#1531 = LINE('',#1532,#1533);
#1532 = CARTESIAN_POINT('',(18.2,9.,3.99));
#1533 = VECTOR('',#1534,1.);
#1534 = DIRECTION('',(0.,1.,0.));
#1535 = ORIENTED_EDGE('',*,*,#561,.T.);
#1536 = PLANE('',#1537);
#1537 = AXIS2_PLACEMENT_3D('',#1538,#1539,#1540);
#1538 = CARTESIAN_POINT('',(18.2,9.,3.5));
#1539 = DIRECTION('',(1.,0.,0.));
#1540 = DIRECTION('',(0.,0.,1.));
#1541 = ADVANCED_FACE('',(#1542),#1548,.F.);
#1542 = FACE_BOUND('',#1543,.F.);
#1543 = EDGE_LOOP('',(#1544,#1545,#1546,#1547));
#1544 = ORIENTED_EDGE('',*,*,#1530,.F.);
#1545 = ORIENTED_EDGE('',*,*,#1002,.T.);
#1546 = ORIENTED_EDGE('',*,*,#1323,.T.);
#1547 = ORIENTED_EDGE('',*,*,#544,.F.);
#1548 = CYLINDRICAL_SURFACE('',#1549,0.49);
#1549 = AXIS2_PLACEMENT_3D('',#1550,#1551,#1552);
#1550 = CARTESIAN_POINT('',(17.71,9.,3.99));
#1551 = DIRECTION('',(0.,1.,0.));
#1552 = DIRECTION('',(1.,0.,0.));
#1553 = ADVANCED_FACE('',(#1554),#1565,.F.);
#1554 = FACE_BOUND('',#1555,.T.);
#1555 = EDGE_LOOP('',(#1556,#1562,#1563,#1564));
#1556 = ORIENTED_EDGE('',*,*,#1557,.F.);
#1557 = EDGE_CURVE('',#945,#695,#1558,.T.);
#1558 = LINE('',#1559,#1560);
#1559 = CARTESIAN_POINT('',(16.,7.,4.01));
#1560 = VECTOR('',#1561,1.);
#1561 = DIRECTION('',(1.,0.,0.));
#1562 = ORIENTED_EDGE('',*,*,#952,.F.);
#1563 = ORIENTED_EDGE('',*,*,#1493,.T.);
#1564 = ORIENTED_EDGE('',*,*,#702,.F.);
#1565 = CYLINDRICAL_SURFACE('',#1566,0.49);
#1566 = AXIS2_PLACEMENT_3D('',#1567,#1568,#1569);
#1567 = CARTESIAN_POINT('',(16.,7.49,4.01));
#1568 = DIRECTION('',(1.,0.,0.));
#1569 = DIRECTION('',(0.,-1.,0.));
#1570 = ADVANCED_FACE('',(#1571),#1582,.T.);
#1571 = FACE_BOUND('',#1572,.T.);
#1572 = EDGE_LOOP('',(#1573,#1574,#1580,#1581));
#1573 = ORIENTED_EDGE('',*,*,#694,.F.);
#1574 = ORIENTED_EDGE('',*,*,#1575,.F.);
#1575 = EDGE_CURVE('',#936,#686,#1576,.T.);
#1576 = LINE('',#1577,#1578);
#1577 = CARTESIAN_POINT('',(16.,7.,3.99));
#1578 = VECTOR('',#1579,1.);
#1579 = DIRECTION('',(1.,0.,0.));
#1580 = ORIENTED_EDGE('',*,*,#944,.T.);
#1581 = ORIENTED_EDGE('',*,*,#1557,.T.);
#1582 = PLANE('',#1583);
#1583 = AXIS2_PLACEMENT_3D('',#1584,#1585,#1586);
#1584 = CARTESIAN_POINT('',(16.,7.,3.5));
#1585 = DIRECTION('',(0.,1.,0.));
#1586 = DIRECTION('',(0.,0.,1.));
#1587 = ADVANCED_FACE('',(#1588),#1594,.F.);
#1588 = FACE_BOUND('',#1589,.F.);
#1589 = EDGE_LOOP('',(#1590,#1591,#1592,#1593));
#1590 = ORIENTED_EDGE('',*,*,#1575,.F.);
#1591 = ORIENTED_EDGE('',*,*,#935,.T.);
#1592 = ORIENTED_EDGE('',*,*,#1426,.T.);
#1593 = ORIENTED_EDGE('',*,*,#685,.F.);
#1594 = CYLINDRICAL_SURFACE('',#1595,0.49);
#1595 = AXIS2_PLACEMENT_3D('',#1596,#1597,#1598);
#1596 = CARTESIAN_POINT('',(16.,7.49,3.99));
#1597 = DIRECTION('',(1.,0.,0.));
#1598 = DIRECTION('',(0.,-1.,0.));
#1599 = ADVANCED_FACE('',(#1600,#1610),#1613,.F.);
#1600 = FACE_BOUND('',#1601,.F.);
#1601 = EDGE_LOOP('',(#1602,#1603,#1604,#1605,#1606,#1607,#1608,#1609));
#1602 = ORIENTED_EDGE('',*,*,#1239,.F.);
#1603 = ORIENTED_EDGE('',*,*,#1265,.T.);
#1604 = ORIENTED_EDGE('',*,*,#846,.T.);
#1605 = ORIENTED_EDGE('',*,*,#886,.F.);
#1606 = ORIENTED_EDGE('',*,*,#909,.T.);
#1607 = ORIENTED_EDGE('',*,*,#1065,.T.);
#1608 = ORIENTED_EDGE('',*,*,#1158,.F.);
#1609 = ORIENTED_EDGE('',*,*,#1216,.F.);
#1610 = FACE_BOUND('',#1611,.F.);
#1611 = EDGE_LOOP('',(#1612));
#1612 = ORIENTED_EDGE('',*,*,#726,.T.);
#1613 = PLANE('',#1614);
#1614 = AXIS2_PLACEMENT_3D('',#1615,#1616,#1617);
#1615 = CARTESIAN_POINT('',(-20.,-12.,5.));
#1616 = DIRECTION('',(0.,0.,1.));
#1617 = DIRECTION('',(1.,0.,0.));
#1618 = ADVANCED_FACE('',(#1619),#1627,.F.);
#1619 = FACE_BOUND('',#1620,.F.);
#1620 = EDGE_LOOP('',(#1621,#1622,#1623,#1624,#1625,#1626));
#1621 = ORIENTED_EDGE('',*,*,#823,.T.);
#1622 = ORIENTED_EDGE('',*,*,#862,.F.);
#1623 = ORIENTED_EDGE('',*,*,#1291,.F.);
#1624 = ORIENTED_EDGE('',*,*,#1308,.T.);
#1625 = ORIENTED_EDGE('',*,*,#773,.F.);
#1626 = ORIENTED_EDGE('',*,*,#799,.T.);
#1627 = PLANE('',#1628);
#1628 = AXIS2_PLACEMENT_3D('',#1629,#1630,#1631);
#1629 = CARTESIAN_POINT('',(11.78,-12.1,2.5));
#1630 = DIRECTION('',(0.,0.,1.));
#1631 = DIRECTION('',(1.,0.,0.));
#1632 = ( GEOMETRIC_REPRESENTATION_CONTEXT(3) 
GLOBAL_UNCERTAINTY_ASSIGNED_CONTEXT((#1636)) 
GLOBAL_UNIT_ASSIGNED_CONTEXT((#1633,#1634,#1635)) REPRESENTATION_CONTEXT
('Context #1','3D Context with UNIT and UNCERTAINTY') );
#1633 = ( LENGTH_UNIT() NAMED_UNIT(*) SI_UNIT(.MILLI.,.METRE.) );
#1634 = ( NAMED_UNIT(*) PLANE_ANGLE_UNIT() SI_UNIT($,.RADIAN.) );
#1635 = ( NAMED_UNIT(*) SI_UNIT($,.STERADIAN.) SOLID_ANGLE_UNIT() );
#1636 = UNCERTAINTY_MEASURE_WITH_UNIT(LENGTH_MEASURE(5.E-06),#1633,
  'distance_accuracy_value','confusion accuracy');
#1637 = PRODUCT_RELATED_PRODUCT_CATEGORY('part',$,(#7));
#1638 = MECHANICAL_DESIGN_GEOMETRIC_PRESENTATION_REPRESENTATION('',(
    #1639),#1632);
#1639 = STYLED_ITEM('color',(#1640),#15);
#1640 = PRESENTATION_STYLE_ASSIGNMENT((#1641,#1649));
#1641 = SURFACE_STYLE_USAGE(.BOTH.,#1642);
#1642 = SURFACE_SIDE_STYLE('',(#1643,#1647));
#1643 = SURFACE_STYLE_FILL_AREA(#1644);
#1644 = FILL_AREA_STYLE('',(#1645));
#1645 = FILL_AREA_STYLE_COLOUR('',#1646);
#1646 = COLOUR_RGB('',0.447058818107,0.474509808674,0.501960817233);
#1647 = SURFACE_STYLE_RENDERING_WITH_PROPERTIES(.NORMAL_SHADING.,#1646,(
    #1648));
#1648 = SURFACE_STYLE_TRANSPARENT(0.199999988079);
#1649 = CURVE_STYLE('',#1650,POSITIVE_LENGTH_MEASURE(0.1),#1651);
#1650 = DRAUGHTING_PRE_DEFINED_CURVE_FONT('continuous');
#1651 = COLOUR_RGB('',9.803921802644E-02,9.803921802644E-02,
  9.803921802644E-02);
ENDSEC;
END-ISO-10303-21;
