ISO-10303-21;
HEADER;
FILE_DESCRIPTION(('FreeCAD Model'),'2;1');
FILE_NAME('Open CASCADE Shape Model','2026-10-07T02:51:08',(''),(''),
  'Open CASCADE STEP processor 7.8','FreeCAD','Unknown');
FILE_SCHEMA((
'AP242_MANAGED_MODEL_BASED_3D_ENGINEERING_MIM_LF. {1 0 10303 442 1 1 4 
}'));
ENDSEC;
DATA;
#1 = APPLICATION_PROTOCOL_DEFINITION('international standard',
  'ap242_managed_model_based_3d_engineering',2013,#2);
#2 = APPLICATION_CONTEXT('Managed model based 3d engineering');
#3 = SHAPE_DEFINITION_REPRESENTATION(#4,#10);
#4 = PRODUCT_DEFINITION_SHAPE('','',#5);
#5 = PRODUCT_DEFINITION('design','',#6,#9);
#6 = PRODUCT_DEFINITION_FORMATION('','',#7);
#7 = PRODUCT('Case Top Cut (female C to female C)',
  'Case Top Cut (female C to female C)','',(#8));
#8 = PRODUCT_CONTEXT('',#2,'mechanical');
#9 = PRODUCT_DEFINITION_CONTEXT('part definition',#2,'design');
#10 = ADVANCED_BREP_SHAPE_REPRESENTATION('',(#11,#15),#1612);
#11 = AXIS2_PLACEMENT_3D('',#12,#13,#14);
#12 = CARTESIAN_POINT('',(0.,0.,0.));
#13 = DIRECTION('',(0.,0.,1.));
#14 = DIRECTION('',(1.,0.,-0.));
#15 = MANIFOLD_SOLID_BREP('',#16);
#16 = CLOSED_SHELL('',(#17,#57,#135,#160,#185,#378,#404,#421,#459,#597,
    #609,#635,#672,#697,#737,#761,#786,#810,#835,#859,#884,#908,#933,
    #957,#997,#1015,#1057,#1081,#1116,#1141,#1181,#1205,#1245,#1263,
    #1342,#1370,#1402,#1479,#1498,#1533,#1554,#1576,#1588,#1600));
#17 = ADVANCED_FACE('',(#18),#52,.F.);
#18 = FACE_BOUND('',#19,.F.);
#19 = EDGE_LOOP('',(#20,#30,#38,#46));
#20 = ORIENTED_EDGE('',*,*,#21,.F.);
#21 = EDGE_CURVE('',#22,#24,#26,.T.);
#22 = VERTEX_POINT('',#23);
#23 = CARTESIAN_POINT('',(-21.,-9.5,6.));
#24 = VERTEX_POINT('',#25);
#25 = CARTESIAN_POINT('',(-21.,9.5,6.));
#26 = LINE('',#27,#28);
#27 = CARTESIAN_POINT('',(-21.,-13.,6.));
#28 = VECTOR('',#29,1.);
#29 = DIRECTION('',(0.,1.,0.));
#30 = ORIENTED_EDGE('',*,*,#31,.F.);
#31 = EDGE_CURVE('',#32,#22,#34,.T.);
#32 = VERTEX_POINT('',#33);
#33 = CARTESIAN_POINT('',(-21.,-9.5,1.));
#34 = LINE('',#35,#36);
#35 = CARTESIAN_POINT('',(-21.,-9.5,1.));
#36 = VECTOR('',#37,1.);
#37 = DIRECTION('',(0.,0.,1.));
#38 = ORIENTED_EDGE('',*,*,#39,.T.);
#39 = EDGE_CURVE('',#32,#40,#42,.T.);
#40 = VERTEX_POINT('',#41);
#41 = CARTESIAN_POINT('',(-21.,9.5,1.));
#42 = LINE('',#43,#44);
#43 = CARTESIAN_POINT('',(-21.,-13.,1.));
#44 = VECTOR('',#45,1.);
#45 = DIRECTION('',(0.,1.,0.));
#46 = ORIENTED_EDGE('',*,*,#47,.T.);
#47 = EDGE_CURVE('',#40,#24,#48,.T.);
#48 = LINE('',#49,#50);
#49 = CARTESIAN_POINT('',(-21.,9.5,1.));
#50 = VECTOR('',#51,1.);
#51 = DIRECTION('',(0.,0.,1.));
#52 = PLANE('',#53);
#53 = AXIS2_PLACEMENT_3D('',#54,#55,#56);
#54 = CARTESIAN_POINT('',(-21.,-13.,1.));
#55 = DIRECTION('',(1.,0.,0.));
#56 = DIRECTION('',(0.,0.,1.));
#57 = ADVANCED_FACE('',(#58,#119),#130,.T.);
#58 = FACE_BOUND('',#59,.T.);
#59 = EDGE_LOOP('',(#60,#61,#70,#78,#87,#95,#104,#112));
#60 = ORIENTED_EDGE('',*,*,#21,.F.);
#61 = ORIENTED_EDGE('',*,*,#62,.T.);
#62 = EDGE_CURVE('',#22,#63,#65,.T.);
#63 = VERTEX_POINT('',#64);
#64 = CARTESIAN_POINT('',(-17.5,-13.,6.));
#65 = CIRCLE('',#66,3.5);
#66 = AXIS2_PLACEMENT_3D('',#67,#68,#69);
#67 = CARTESIAN_POINT('',(-17.5,-9.5,6.));
#68 = DIRECTION('',(-0.,0.,1.));
#69 = DIRECTION('',(0.,-1.,0.));
#70 = ORIENTED_EDGE('',*,*,#71,.T.);
#71 = EDGE_CURVE('',#63,#72,#74,.T.);
#72 = VERTEX_POINT('',#73);
#73 = CARTESIAN_POINT('',(17.5,-13.,6.));
#74 = LINE('',#75,#76);
#75 = CARTESIAN_POINT('',(-21.,-13.,6.));
#76 = VECTOR('',#77,1.);
#77 = DIRECTION('',(1.,0.,0.));
#78 = ORIENTED_EDGE('',*,*,#79,.F.);
#79 = EDGE_CURVE('',#80,#72,#82,.T.);
#80 = VERTEX_POINT('',#81);
#81 = CARTESIAN_POINT('',(21.,-9.5,6.));
#82 = CIRCLE('',#83,3.5);
#83 = AXIS2_PLACEMENT_3D('',#84,#85,#86);
#84 = CARTESIAN_POINT('',(17.5,-9.5,6.));
#85 = DIRECTION('',(-0.,-0.,-1.));
#86 = DIRECTION('',(0.,-1.,0.));
#87 = ORIENTED_EDGE('',*,*,#88,.T.);
#88 = EDGE_CURVE('',#80,#89,#91,.T.);
#89 = VERTEX_POINT('',#90);
#90 = CARTESIAN_POINT('',(21.,9.5,6.));
#91 = LINE('',#92,#93);
#92 = CARTESIAN_POINT('',(21.,-13.,6.));
#93 = VECTOR('',#94,1.);
#94 = DIRECTION('',(0.,1.,0.));
#95 = ORIENTED_EDGE('',*,*,#96,.T.);
#96 = EDGE_CURVE('',#89,#97,#99,.T.);
#97 = VERTEX_POINT('',#98);
#98 = CARTESIAN_POINT('',(17.5,13.,6.));
#99 = CIRCLE('',#100,3.5);
#100 = AXIS2_PLACEMENT_3D('',#101,#102,#103);
#101 = CARTESIAN_POINT('',(17.5,9.5,6.));
#102 = DIRECTION('',(-0.,0.,1.));
#103 = DIRECTION('',(0.,-1.,0.));
#104 = ORIENTED_EDGE('',*,*,#105,.F.);
#105 = EDGE_CURVE('',#106,#97,#108,.T.);
#106 = VERTEX_POINT('',#107);
#107 = CARTESIAN_POINT('',(-17.5,13.,6.));
#108 = LINE('',#109,#110);
#109 = CARTESIAN_POINT('',(-21.,13.,6.));
#110 = VECTOR('',#111,1.);
#111 = DIRECTION('',(1.,0.,0.));
#112 = ORIENTED_EDGE('',*,*,#113,.F.);
#113 = EDGE_CURVE('',#24,#106,#114,.T.);
#114 = CIRCLE('',#115,3.5);
#115 = AXIS2_PLACEMENT_3D('',#116,#117,#118);
#116 = CARTESIAN_POINT('',(-17.5,9.5,6.));
#117 = DIRECTION('',(-0.,-0.,-1.));
#118 = DIRECTION('',(0.,-1.,0.));
#119 = FACE_BOUND('',#120,.T.);
#120 = EDGE_LOOP('',(#121));
#121 = ORIENTED_EDGE('',*,*,#122,.F.);
#122 = EDGE_CURVE('',#123,#123,#125,.T.);
#123 = VERTEX_POINT('',#124);
#124 = CARTESIAN_POINT('',(17.4,9.,6.));
#125 = CIRCLE('',#126,1.2);
#126 = AXIS2_PLACEMENT_3D('',#127,#128,#129);
#127 = CARTESIAN_POINT('',(16.2,9.,6.));
#128 = DIRECTION('',(0.,0.,1.));
#129 = DIRECTION('',(1.,0.,0.));
#130 = PLANE('',#131);
#131 = AXIS2_PLACEMENT_3D('',#132,#133,#134);
#132 = CARTESIAN_POINT('',(-21.,-13.,6.));
#133 = DIRECTION('',(0.,0.,1.));
#134 = DIRECTION('',(1.,0.,0.));
#135 = ADVANCED_FACE('',(#136),#155,.T.);
#136 = FACE_BOUND('',#137,.T.);
#137 = EDGE_LOOP('',(#138,#147,#153,#154));
#138 = ORIENTED_EDGE('',*,*,#139,.T.);
#139 = EDGE_CURVE('',#32,#140,#142,.T.);
#140 = VERTEX_POINT('',#141);
#141 = CARTESIAN_POINT('',(-17.5,-13.,1.));
#142 = CIRCLE('',#143,3.5);
#143 = AXIS2_PLACEMENT_3D('',#144,#145,#146);
#144 = CARTESIAN_POINT('',(-17.5,-9.5,1.));
#145 = DIRECTION('',(-0.,0.,1.));
#146 = DIRECTION('',(0.,-1.,0.));
#147 = ORIENTED_EDGE('',*,*,#148,.T.);
#148 = EDGE_CURVE('',#140,#63,#149,.T.);
#149 = LINE('',#150,#151);
#150 = CARTESIAN_POINT('',(-17.5,-13.,1.));
#151 = VECTOR('',#152,1.);
#152 = DIRECTION('',(0.,0.,1.));
#153 = ORIENTED_EDGE('',*,*,#62,.F.);
#154 = ORIENTED_EDGE('',*,*,#31,.F.);
#155 = CYLINDRICAL_SURFACE('',#156,3.5);
#156 = AXIS2_PLACEMENT_3D('',#157,#158,#159);
#157 = CARTESIAN_POINT('',(-17.5,-9.5,1.));
#158 = DIRECTION('',(0.,0.,1.));
#159 = DIRECTION('',(-1.,0.,0.));
#160 = ADVANCED_FACE('',(#161),#180,.T.);
#161 = FACE_BOUND('',#162,.F.);
#162 = EDGE_LOOP('',(#163,#172,#178,#179));
#163 = ORIENTED_EDGE('',*,*,#164,.T.);
#164 = EDGE_CURVE('',#40,#165,#167,.T.);
#165 = VERTEX_POINT('',#166);
#166 = CARTESIAN_POINT('',(-17.5,13.,1.));
#167 = CIRCLE('',#168,3.5);
#168 = AXIS2_PLACEMENT_3D('',#169,#170,#171);
#169 = CARTESIAN_POINT('',(-17.5,9.5,1.));
#170 = DIRECTION('',(-0.,-0.,-1.));
#171 = DIRECTION('',(0.,-1.,0.));
#172 = ORIENTED_EDGE('',*,*,#173,.T.);
#173 = EDGE_CURVE('',#165,#106,#174,.T.);
#174 = LINE('',#175,#176);
#175 = CARTESIAN_POINT('',(-17.5,13.,1.));
#176 = VECTOR('',#177,1.);
#177 = DIRECTION('',(0.,0.,1.));
#178 = ORIENTED_EDGE('',*,*,#113,.F.);
#179 = ORIENTED_EDGE('',*,*,#47,.F.);
#180 = CYLINDRICAL_SURFACE('',#181,3.5);
#181 = AXIS2_PLACEMENT_3D('',#182,#183,#184);
#182 = CARTESIAN_POINT('',(-17.5,9.5,1.));
#183 = DIRECTION('',(0.,0.,1.));
#184 = DIRECTION('',(-1.,0.,0.));
#185 = ADVANCED_FACE('',(#186),#373,.F.);
#186 = FACE_BOUND('',#187,.F.);
#187 = EDGE_LOOP('',(#188,#189,#190,#198,#207,#215,#223,#231,#239,#248,
    #256,#265,#273,#282,#290,#299,#307,#315,#323,#331,#340,#349,#357,
    #366,#372));
#188 = ORIENTED_EDGE('',*,*,#39,.F.);
#189 = ORIENTED_EDGE('',*,*,#139,.T.);
#190 = ORIENTED_EDGE('',*,*,#191,.T.);
#191 = EDGE_CURVE('',#140,#192,#194,.T.);
#192 = VERTEX_POINT('',#193);
#193 = CARTESIAN_POINT('',(11.050384638146,-13.,1.));
#194 = LINE('',#195,#196);
#195 = CARTESIAN_POINT('',(-21.,-13.,1.));
#196 = VECTOR('',#197,1.);
#197 = DIRECTION('',(1.,0.,0.));
#198 = ORIENTED_EDGE('',*,*,#199,.F.);
#199 = EDGE_CURVE('',#200,#192,#202,.T.);
#200 = VERTEX_POINT('',#201);
#201 = CARTESIAN_POINT('',(12.594127789077,-12.1,1.));
#202 = CIRCLE('',#203,5.);
#203 = AXIS2_PLACEMENT_3D('',#204,#205,#206);
#204 = CARTESIAN_POINT('',(14.3,-16.8,1.));
#205 = DIRECTION('',(0.,0.,1.));
#206 = DIRECTION('',(1.,0.,-0.));
#207 = ORIENTED_EDGE('',*,*,#208,.F.);
#208 = EDGE_CURVE('',#209,#200,#211,.T.);
#209 = VERTEX_POINT('',#210);
#210 = CARTESIAN_POINT('',(12.4,-12.1,1.));
#211 = LINE('',#212,#213);
#212 = CARTESIAN_POINT('',(-4.212522792992,-12.1,1.));
#213 = VECTOR('',#214,1.);
#214 = DIRECTION('',(1.,0.,0.));
#215 = ORIENTED_EDGE('',*,*,#216,.F.);
#216 = EDGE_CURVE('',#217,#209,#219,.T.);
#217 = VERTEX_POINT('',#218);
#218 = CARTESIAN_POINT('',(11.78,-12.1,1.));
#219 = LINE('',#220,#221);
#220 = CARTESIAN_POINT('',(11.78,-12.1,1.));
#221 = VECTOR('',#222,1.);
#222 = DIRECTION('',(1.,0.,0.));
#223 = ORIENTED_EDGE('',*,*,#224,.T.);
#224 = EDGE_CURVE('',#217,#225,#227,.T.);
#225 = VERTEX_POINT('',#226);
#226 = CARTESIAN_POINT('',(11.78,-12.,1.));
#227 = LINE('',#228,#229);
#228 = CARTESIAN_POINT('',(11.78,-12.1,1.));
#229 = VECTOR('',#230,1.);
#230 = DIRECTION('',(0.,1.,0.));
#231 = ORIENTED_EDGE('',*,*,#232,.T.);
#232 = EDGE_CURVE('',#225,#233,#235,.T.);
#233 = VERTEX_POINT('',#234);
#234 = CARTESIAN_POINT('',(-17.,-12.,1.));
#235 = LINE('',#236,#237);
#236 = CARTESIAN_POINT('',(-20.5,-12.,1.));
#237 = VECTOR('',#238,1.);
#238 = DIRECTION('',(-1.,0.,0.));
#239 = ORIENTED_EDGE('',*,*,#240,.F.);
#240 = EDGE_CURVE('',#241,#233,#243,.T.);
#241 = VERTEX_POINT('',#242);
#242 = CARTESIAN_POINT('',(-20.,-9.,1.));
#243 = CIRCLE('',#244,3.);
#244 = AXIS2_PLACEMENT_3D('',#245,#246,#247);
#245 = CARTESIAN_POINT('',(-17.,-9.,1.));
#246 = DIRECTION('',(0.,0.,1.));
#247 = DIRECTION('',(-1.,0.,0.));
#248 = ORIENTED_EDGE('',*,*,#249,.T.);
#249 = EDGE_CURVE('',#241,#250,#252,.T.);
#250 = VERTEX_POINT('',#251);
#251 = CARTESIAN_POINT('',(-20.,9.,1.));
#252 = LINE('',#253,#254);
#253 = CARTESIAN_POINT('',(-20.,-12.5,1.));
#254 = VECTOR('',#255,1.);
#255 = DIRECTION('',(0.,1.,0.));
#256 = ORIENTED_EDGE('',*,*,#257,.F.);
#257 = EDGE_CURVE('',#258,#250,#260,.T.);
#258 = VERTEX_POINT('',#259);
#259 = CARTESIAN_POINT('',(-17.,12.,1.));
#260 = CIRCLE('',#261,3.);
#261 = AXIS2_PLACEMENT_3D('',#262,#263,#264);
#262 = CARTESIAN_POINT('',(-17.,9.,1.));
#263 = DIRECTION('',(0.,0.,1.));
#264 = DIRECTION('',(-1.,0.,0.));
#265 = ORIENTED_EDGE('',*,*,#266,.F.);
#266 = EDGE_CURVE('',#267,#258,#269,.T.);
#267 = VERTEX_POINT('',#268);
#268 = CARTESIAN_POINT('',(17.,12.,1.));
#269 = LINE('',#270,#271);
#270 = CARTESIAN_POINT('',(-20.5,12.,1.));
#271 = VECTOR('',#272,1.);
#272 = DIRECTION('',(-1.,0.,0.));
#273 = ORIENTED_EDGE('',*,*,#274,.F.);
#274 = EDGE_CURVE('',#275,#267,#277,.T.);
#275 = VERTEX_POINT('',#276);
#276 = CARTESIAN_POINT('',(20.,9.,1.));
#277 = CIRCLE('',#278,3.);
#278 = AXIS2_PLACEMENT_3D('',#279,#280,#281);
#279 = CARTESIAN_POINT('',(17.,9.,1.));
#280 = DIRECTION('',(0.,0.,1.));
#281 = DIRECTION('',(1.,0.,0.));
#282 = ORIENTED_EDGE('',*,*,#283,.F.);
#283 = EDGE_CURVE('',#284,#275,#286,.T.);
#284 = VERTEX_POINT('',#285);
#285 = CARTESIAN_POINT('',(20.,-9.,1.));
#286 = LINE('',#287,#288);
#287 = CARTESIAN_POINT('',(20.,-12.5,1.));
#288 = VECTOR('',#289,1.);
#289 = DIRECTION('',(0.,1.,0.));
#290 = ORIENTED_EDGE('',*,*,#291,.F.);
#291 = EDGE_CURVE('',#292,#284,#294,.T.);
#292 = VERTEX_POINT('',#293);
#293 = CARTESIAN_POINT('',(17.,-12.,1.));
#294 = CIRCLE('',#295,3.);
#295 = AXIS2_PLACEMENT_3D('',#296,#297,#298);
#296 = CARTESIAN_POINT('',(17.,-9.,1.));
#297 = DIRECTION('',(0.,0.,1.));
#298 = DIRECTION('',(1.,0.,0.));
#299 = ORIENTED_EDGE('',*,*,#300,.T.);
#300 = EDGE_CURVE('',#292,#301,#303,.T.);
#301 = VERTEX_POINT('',#302);
#302 = CARTESIAN_POINT('',(16.78,-12.,1.));
#303 = LINE('',#304,#305);
#304 = CARTESIAN_POINT('',(-20.5,-12.,1.));
#305 = VECTOR('',#306,1.);
#306 = DIRECTION('',(-1.,0.,0.));
#307 = ORIENTED_EDGE('',*,*,#308,.F.);
#308 = EDGE_CURVE('',#309,#301,#311,.T.);
#309 = VERTEX_POINT('',#310);
#310 = CARTESIAN_POINT('',(16.78,-12.1,1.));
#311 = LINE('',#312,#313);
#312 = CARTESIAN_POINT('',(16.78,-12.1,1.));
#313 = VECTOR('',#314,1.);
#314 = DIRECTION('',(0.,1.,0.));
#315 = ORIENTED_EDGE('',*,*,#316,.F.);
#316 = EDGE_CURVE('',#317,#309,#319,.T.);
#317 = VERTEX_POINT('',#318);
#318 = CARTESIAN_POINT('',(16.2,-12.1,1.));
#319 = LINE('',#320,#321);
#320 = CARTESIAN_POINT('',(11.78,-12.1,1.));
#321 = VECTOR('',#322,1.);
#322 = DIRECTION('',(1.,0.,0.));
#323 = ORIENTED_EDGE('',*,*,#324,.F.);
#324 = EDGE_CURVE('',#325,#317,#327,.T.);
#325 = VERTEX_POINT('',#326);
#326 = CARTESIAN_POINT('',(16.005872210923,-12.1,1.));
#327 = LINE('',#328,#329);
#328 = CARTESIAN_POINT('',(-2.493588458689,-12.1,1.));
#329 = VECTOR('',#330,1.);
#330 = DIRECTION('',(1.,0.,0.));
#331 = ORIENTED_EDGE('',*,*,#332,.F.);
#332 = EDGE_CURVE('',#333,#325,#335,.T.);
#333 = VERTEX_POINT('',#334);
#334 = CARTESIAN_POINT('',(17.549210747034,-12.99965402609,1.));
#335 = CIRCLE('',#336,5.);
#336 = AXIS2_PLACEMENT_3D('',#337,#338,#339);
#337 = CARTESIAN_POINT('',(14.3,-16.8,1.));
#338 = DIRECTION('',(0.,0.,1.));
#339 = DIRECTION('',(1.,0.,-0.));
#340 = ORIENTED_EDGE('',*,*,#341,.F.);
#341 = EDGE_CURVE('',#342,#333,#344,.T.);
#342 = VERTEX_POINT('',#343);
#343 = CARTESIAN_POINT('',(21.,-9.5,1.));
#344 = CIRCLE('',#345,3.5);
#345 = AXIS2_PLACEMENT_3D('',#346,#347,#348);
#346 = CARTESIAN_POINT('',(17.5,-9.5,1.));
#347 = DIRECTION('',(-0.,-0.,-1.));
#348 = DIRECTION('',(0.,-1.,0.));
#349 = ORIENTED_EDGE('',*,*,#350,.T.);
#350 = EDGE_CURVE('',#342,#351,#353,.T.);
#351 = VERTEX_POINT('',#352);
#352 = CARTESIAN_POINT('',(21.,9.5,1.));
#353 = LINE('',#354,#355);
#354 = CARTESIAN_POINT('',(21.,-13.,1.));
#355 = VECTOR('',#356,1.);
#356 = DIRECTION('',(0.,1.,0.));
#357 = ORIENTED_EDGE('',*,*,#358,.T.);
#358 = EDGE_CURVE('',#351,#359,#361,.T.);
#359 = VERTEX_POINT('',#360);
#360 = CARTESIAN_POINT('',(17.5,13.,1.));
#361 = CIRCLE('',#362,3.5);
#362 = AXIS2_PLACEMENT_3D('',#363,#364,#365);
#363 = CARTESIAN_POINT('',(17.5,9.5,1.));
#364 = DIRECTION('',(-0.,0.,1.));
#365 = DIRECTION('',(0.,-1.,0.));
#366 = ORIENTED_EDGE('',*,*,#367,.F.);
#367 = EDGE_CURVE('',#165,#359,#368,.T.);
#368 = LINE('',#369,#370);
#369 = CARTESIAN_POINT('',(-21.,13.,1.));
#370 = VECTOR('',#371,1.);
#371 = DIRECTION('',(1.,0.,0.));
#372 = ORIENTED_EDGE('',*,*,#164,.F.);
#373 = PLANE('',#374);
#374 = AXIS2_PLACEMENT_3D('',#375,#376,#377);
#375 = CARTESIAN_POINT('',(-21.,-13.,1.));
#376 = DIRECTION('',(0.,0.,1.));
#377 = DIRECTION('',(1.,0.,0.));
#378 = ADVANCED_FACE('',(#379),#399,.F.);
#379 = FACE_BOUND('',#380,.F.);
#380 = EDGE_LOOP('',(#381,#382,#383,#384,#392));
#381 = ORIENTED_EDGE('',*,*,#191,.F.);
#382 = ORIENTED_EDGE('',*,*,#148,.T.);
#383 = ORIENTED_EDGE('',*,*,#71,.T.);
#384 = ORIENTED_EDGE('',*,*,#385,.F.);
#385 = EDGE_CURVE('',#386,#72,#388,.T.);
#386 = VERTEX_POINT('',#387);
#387 = CARTESIAN_POINT('',(17.5,-13.,1.565685424949));
#388 = LINE('',#389,#390);
#389 = CARTESIAN_POINT('',(17.5,-13.,1.));
#390 = VECTOR('',#391,1.);
#391 = DIRECTION('',(0.,0.,1.));
#392 = ORIENTED_EDGE('',*,*,#393,.F.);
#393 = EDGE_CURVE('',#192,#386,#394,.T.);
#394 = CIRCLE('',#395,3.249615361854);
#395 = AXIS2_PLACEMENT_3D('',#396,#397,#398);
#396 = CARTESIAN_POINT('',(14.3,-13.,1.));
#397 = DIRECTION('',(0.,1.,0.));
#398 = DIRECTION('',(0.,-0.,1.));
#399 = PLANE('',#400);
#400 = AXIS2_PLACEMENT_3D('',#401,#402,#403);
#401 = CARTESIAN_POINT('',(-21.,-13.,1.));
#402 = DIRECTION('',(0.,1.,0.));
#403 = DIRECTION('',(0.,0.,1.));
#404 = ADVANCED_FACE('',(#405),#416,.T.);
#405 = FACE_BOUND('',#406,.T.);
#406 = EDGE_LOOP('',(#407,#408,#409,#410));
#407 = ORIENTED_EDGE('',*,*,#367,.F.);
#408 = ORIENTED_EDGE('',*,*,#173,.T.);
#409 = ORIENTED_EDGE('',*,*,#105,.T.);
#410 = ORIENTED_EDGE('',*,*,#411,.F.);
#411 = EDGE_CURVE('',#359,#97,#412,.T.);
#412 = LINE('',#413,#414);
#413 = CARTESIAN_POINT('',(17.5,13.,1.));
#414 = VECTOR('',#415,1.);
#415 = DIRECTION('',(0.,0.,1.));
#416 = PLANE('',#417);
#417 = AXIS2_PLACEMENT_3D('',#418,#419,#420);
#418 = CARTESIAN_POINT('',(-21.,13.,1.));
#419 = DIRECTION('',(0.,1.,0.));
#420 = DIRECTION('',(0.,0.,1.));
#421 = ADVANCED_FACE('',(#422),#454,.T.);
#422 = FACE_BOUND('',#423,.F.);
#423 = EDGE_LOOP('',(#424,#430,#431,#452,#453));
#424 = ORIENTED_EDGE('',*,*,#425,.F.);
#425 = EDGE_CURVE('',#342,#80,#426,.T.);
#426 = LINE('',#427,#428);
#427 = CARTESIAN_POINT('',(21.,-9.5,1.));
#428 = VECTOR('',#429,1.);
#429 = DIRECTION('',(0.,0.,1.));
#430 = ORIENTED_EDGE('',*,*,#341,.T.);
#431 = ORIENTED_EDGE('',*,*,#432,.F.);
#432 = EDGE_CURVE('',#386,#333,#433,.T.);
#433 = B_SPLINE_CURVE_WITH_KNOTS('',5,(#434,#435,#436,#437,#438,#439,
    #440,#441,#442,#443,#444,#445,#446,#447,#448,#449,#450,#451),
  .UNSPECIFIED.,.F.,.F.,(6,4,4,4,6),(0.,0.890777650178,0.936351996061,
    0.95806813772,1.),.UNSPECIFIED.);
#434 = CARTESIAN_POINT('',(17.5,-13.,1.565685424949));
#435 = CARTESIAN_POINT('',(17.517338633054,-13.,1.467603304878));
#436 = CARTESIAN_POINT('',(17.530742021391,-12.99989272117,
    1.369140269784));
#437 = CARTESIAN_POINT('',(17.540350540994,-12.99977506882,
    1.270422513437));
#438 = CARTESIAN_POINT('',(17.546234514138,-12.9996952881,1.171560949066
    ));
#439 = CARTESIAN_POINT('',(17.548522803399,-12.99966363383,1.06759230491
    ));
#440 = CARTESIAN_POINT('',(17.548624475412,-12.99966222295,
    1.062531800991));
#441 = CARTESIAN_POINT('',(17.548716445495,-12.99966094339,
    1.057471193301));
#442 = CARTESIAN_POINT('',(17.548798715475,-12.99965979641,
    1.052410495501));
#443 = CARTESIAN_POINT('',(17.548905866975,-12.99965830008,
    1.044938266051));
#444 = CARTESIAN_POINT('',(17.548940503129,-12.99965781598,
    1.042361801155));
#445 = CARTESIAN_POINT('',(17.548975160883,-12.99965733114,1.03960955496
    ));
#446 = CARTESIAN_POINT('',(17.549009800864,-12.99965684612,
    1.036593625662));
#447 = CARTESIAN_POINT('',(17.549111145284,-12.99965542587,
    1.026497691191));
#448 = CARTESIAN_POINT('',(17.549161163229,-12.99965472333,
    1.019844373579));
#449 = CARTESIAN_POINT('',(17.549194435398,-12.99965425546,
    1.013194408469));
#450 = CARTESIAN_POINT('',(17.54921096296,-12.99965402306,1.006547118341
    ));
#451 = CARTESIAN_POINT('',(17.549210745389,-12.99965402612,
    0.999895768069));
#452 = ORIENTED_EDGE('',*,*,#385,.T.);
#453 = ORIENTED_EDGE('',*,*,#79,.F.);
#454 = CYLINDRICAL_SURFACE('',#455,3.5);
#455 = AXIS2_PLACEMENT_3D('',#456,#457,#458);
#456 = CARTESIAN_POINT('',(17.5,-9.5,1.));
#457 = DIRECTION('',(0.,0.,1.));
#458 = DIRECTION('',(1.,0.,0.));
#459 = ADVANCED_FACE('',(#460,#471),#592,.T.);
#460 = FACE_BOUND('',#461,.T.);
#461 = EDGE_LOOP('',(#462,#463,#464,#465));
#462 = ORIENTED_EDGE('',*,*,#358,.T.);
#463 = ORIENTED_EDGE('',*,*,#411,.T.);
#464 = ORIENTED_EDGE('',*,*,#96,.F.);
#465 = ORIENTED_EDGE('',*,*,#466,.F.);
#466 = EDGE_CURVE('',#351,#89,#467,.T.);
#467 = LINE('',#468,#469);
#468 = CARTESIAN_POINT('',(21.,9.5,1.));
#469 = VECTOR('',#470,1.);
#470 = DIRECTION('',(0.,0.,1.));
#471 = FACE_BOUND('',#472,.T.);
#472 = EDGE_LOOP('',(#473,#497,#506,#528,#536,#558,#567,#586));
#473 = ORIENTED_EDGE('',*,*,#474,.T.);
#474 = EDGE_CURVE('',#475,#477,#479,.T.);
#475 = VERTEX_POINT('',#476);
#476 = CARTESIAN_POINT('',(20.973238616575,9.931987861327,4.01));
#477 = VERTEX_POINT('',#478);
#478 = CARTESIAN_POINT('',(20.866975073808,10.455760876138,4.5));
#479 = B_SPLINE_CURVE_WITH_KNOTS('',6,(#480,#481,#482,#483,#484,#485,
    #486,#487,#488,#489,#490,#491,#492,#493,#494,#495,#496),
  .UNSPECIFIED.,.F.,.F.,(7,5,5,7),(0.,0.224893084347,0.7175792951,1.),
  .UNSPECIFIED.);
#480 = CARTESIAN_POINT('',(20.973238616575,9.931987861327,4.01));
#481 = CARTESIAN_POINT('',(20.973238616575,9.931987861327,4.038191909712
    ));
#482 = CARTESIAN_POINT('',(20.972966711555,9.934173620449,4.066381869973
    ));
#483 = CARTESIAN_POINT('',(20.97242319304,9.938544627565,4.094412912635)
  );
#484 = CARTESIAN_POINT('',(20.971600063962,9.945077427082,4.122127564326
    ));
#485 = CARTESIAN_POINT('',(20.970482606439,9.953725565879,4.149368897407
    ));
#486 = CARTESIAN_POINT('',(20.965914536514,9.987847444781,4.234283516865
    ));
#487 = CARTESIAN_POINT('',(20.961268573363,10.021104517579,
    4.289594800363));
#488 = CARTESIAN_POINT('',(20.954904818706,10.063489802213,
    4.340303821485));
#489 = CARTESIAN_POINT('',(20.946492140893,10.113802141325,4.38485236684
    ));
#490 = CARTESIAN_POINT('',(20.93575440607,10.170449493912,4.421818790192
    ));
#491 = CARTESIAN_POINT('',(20.91518905871,10.266660783827,4.466206933425
    ));
#492 = CARTESIAN_POINT('',(20.906927922468,10.303202434095,
    4.479506642637));
#493 = CARTESIAN_POINT('',(20.897909514515,10.340818757368,
    4.489680724004));
#494 = CARTESIAN_POINT('',(20.888181024806,10.379073929428,
    4.496548195264));
#495 = CARTESIAN_POINT('',(20.877827826998,10.417528562612,4.5));
#496 = CARTESIAN_POINT('',(20.866975073808,10.455760876138,4.5));
#497 = ORIENTED_EDGE('',*,*,#498,.T.);
#498 = EDGE_CURVE('',#477,#499,#501,.T.);
#499 = VERTEX_POINT('',#500);
#500 = CARTESIAN_POINT('',(18.849074321705,12.729550816215,4.5));
#501 = CIRCLE('',#502,3.5);
#502 = AXIS2_PLACEMENT_3D('',#503,#504,#505);
#503 = CARTESIAN_POINT('',(17.5,9.5,4.5));
#504 = DIRECTION('',(0.,0.,1.));
#505 = DIRECTION('',(1.,0.,0.));
#506 = ORIENTED_EDGE('',*,*,#507,.F.);
#507 = EDGE_CURVE('',#508,#499,#510,.T.);
#508 = VERTEX_POINT('',#509);
#509 = CARTESIAN_POINT('',(18.261336429892,12.91619186237,4.01));
#510 = B_SPLINE_CURVE_WITH_KNOTS('',6,(#511,#512,#513,#514,#515,#516,
    #517,#518,#519,#520,#521,#522,#523,#524,#525,#526,#527),
  .UNSPECIFIED.,.F.,.F.,(7,5,5,7),(0.,0.295625782274,0.625731739223,1.),
  .UNSPECIFIED.);
#511 = CARTESIAN_POINT('',(18.261336429892,12.91619186237,4.01));
#512 = CARTESIAN_POINT('',(18.261336429892,12.91619186237,4.048345168481
    ));
#513 = CARTESIAN_POINT('',(18.266098628136,12.915130538253,
    4.086644494503));
#514 = CARTESIAN_POINT('',(18.27560168726,12.913012745989,4.124463227841
    ));
#515 = CARTESIAN_POINT('',(18.289670328501,12.909824961749,
    4.161369042508));
#516 = CARTESIAN_POINT('',(18.307973937636,12.905538648207,
    4.196929797081));
#517 = CARTESIAN_POINT('',(18.354654426948,12.894143251129,
    4.268491812466));
#518 = CARTESIAN_POINT('',(18.383969619619,12.886760393264,4.30407997431
    ));
#519 = CARTESIAN_POINT('',(18.41743261137,12.877973754437,4.337124026577
    ));
#520 = CARTESIAN_POINT('',(18.454439700956,12.867746800992,
    4.367251863638));
#521 = CARTESIAN_POINT('',(18.494346220044,12.856072446485,
    4.394117568239));
#522 = CARTESIAN_POINT('',(18.584268141857,12.828192447683,
    4.443840117312));
#523 = CARTESIAN_POINT('',(18.635040660098,12.811552374403,
    4.465745669377));
#524 = CARTESIAN_POINT('',(18.687848326866,12.793154016101,
    4.482647603925));
#525 = CARTESIAN_POINT('',(18.741720754295,12.773154258027,
    4.494159217219));
#526 = CARTESIAN_POINT('',(18.795745298019,12.751827851181,4.5));
#527 = CARTESIAN_POINT('',(18.849074321705,12.729550816215,4.5));
#528 = ORIENTED_EDGE('',*,*,#529,.F.);
#529 = EDGE_CURVE('',#530,#508,#532,.T.);
#530 = VERTEX_POINT('',#531);
#531 = CARTESIAN_POINT('',(18.261336429892,12.91619186237,3.99));
#532 = LINE('',#533,#534);
#533 = CARTESIAN_POINT('',(18.261336429892,12.91619186237,3.5));
#534 = VECTOR('',#535,1.);
#535 = DIRECTION('',(0.,0.,1.));
#536 = ORIENTED_EDGE('',*,*,#537,.T.);
#537 = EDGE_CURVE('',#530,#538,#540,.T.);
#538 = VERTEX_POINT('',#539);
#539 = CARTESIAN_POINT('',(18.849074321705,12.729550816215,3.5));
#540 = B_SPLINE_CURVE_WITH_KNOTS('',6,(#541,#542,#543,#544,#545,#546,
    #547,#548,#549,#550,#551,#552,#553,#554,#555,#556,#557),
  .UNSPECIFIED.,.F.,.F.,(7,5,5,7),(0.,0.295625782396,0.625731739501,1.),
  .UNSPECIFIED.);
#541 = CARTESIAN_POINT('',(18.261336429892,12.91619186237,3.99));
#542 = CARTESIAN_POINT('',(18.261336429892,12.91619186237,3.951654830831
    ));
#543 = CARTESIAN_POINT('',(18.266098628307,12.915130538215,
    3.913355504126));
#544 = CARTESIAN_POINT('',(18.275601687771,12.913012745876,3.87553677013
    ));
#545 = CARTESIAN_POINT('',(18.289670329508,12.909824961521,
    3.838630954853));
#546 = CARTESIAN_POINT('',(18.307973939273,12.905538647823,
    3.803070199739));
#547 = CARTESIAN_POINT('',(18.354654430137,12.894143250332,
    3.731508183394));
#548 = CARTESIAN_POINT('',(18.38396962376,12.886760392199,3.695920021151
    ));
#549 = CARTESIAN_POINT('',(18.41743261656,12.877973753049,3.662875968607
    ));
#550 = CARTESIAN_POINT('',(18.45443970726,12.867746799229,3.63274813141)
  );
#551 = CARTESIAN_POINT('',(18.494346227492,12.856072444294,
    3.605882426828));
#552 = CARTESIAN_POINT('',(18.584268151682,12.828192444502,
    3.556159878179));
#553 = CARTESIAN_POINT('',(18.635040671159,12.811552370647,
    3.534254326554));
#554 = CARTESIAN_POINT('',(18.687848339107,12.793154011726,3.51735239267
    ));
#555 = CARTESIAN_POINT('',(18.741720767605,12.77315425301,3.505840780279
    ));
#556 = CARTESIAN_POINT('',(18.79574531224,12.75182784553,3.499999998637)
  );
#557 = CARTESIAN_POINT('',(18.84907433664,12.729550809976,3.5));
#558 = ORIENTED_EDGE('',*,*,#559,.F.);
#559 = EDGE_CURVE('',#560,#538,#562,.T.);
#560 = VERTEX_POINT('',#561);
#561 = CARTESIAN_POINT('',(20.866975073808,10.455760876138,3.5));
#562 = CIRCLE('',#563,3.5);
#563 = AXIS2_PLACEMENT_3D('',#564,#565,#566);
#564 = CARTESIAN_POINT('',(17.5,9.5,3.5));
#565 = DIRECTION('',(-0.,0.,1.));
#566 = DIRECTION('',(0.,-1.,0.));
#567 = ORIENTED_EDGE('',*,*,#568,.F.);
#568 = EDGE_CURVE('',#569,#560,#571,.T.);
#569 = VERTEX_POINT('',#570);
#570 = CARTESIAN_POINT('',(20.973238616575,9.931987861327,3.99));
#571 = B_SPLINE_CURVE_WITH_KNOTS('',7,(#572,#573,#574,#575,#576,#577,
    #578,#579,#580,#581,#582,#583,#584,#585),.UNSPECIFIED.,.F.,.F.,(8,6,
    8),(0.,0.717500184208,1.),.UNSPECIFIED.);
#572 = CARTESIAN_POINT('',(20.973238616575,9.931987861327,3.99));
#573 = CARTESIAN_POINT('',(20.973238616575,9.931987861327,3.912761541247
    ));
#574 = CARTESIAN_POINT('',(20.971255090809,9.94793901492,3.835740793264)
  );
#575 = CARTESIAN_POINT('',(20.967305316055,9.979678326084,3.761701370793
    ));
#576 = CARTESIAN_POINT('',(20.961052091112,10.026236311758,
    3.693408939706));
#577 = CARTESIAN_POINT('',(20.951792726962,10.085706471933,
    3.633677140565));
#578 = CARTESIAN_POINT('',(20.93899510347,10.155288472238,3.585175914923
    ));
#579 = CARTESIAN_POINT('',(20.916259524839,10.261652799994,
    3.536103555333));
#580 = CARTESIAN_POINT('',(20.909288247109,10.29276196259,3.524293274281
    ));
#581 = CARTESIAN_POINT('',(20.901774546495,10.324697475965,
    3.514679596582));
#582 = CARTESIAN_POINT('',(20.893740161783,10.357213831108,
    3.507376074027));
#583 = CARTESIAN_POINT('',(20.88522296829,10.39006096748,3.502465574811)
  );
#584 = CARTESIAN_POINT('',(20.876277433685,10.422990321687,3.5));
#585 = CARTESIAN_POINT('',(20.866975073808,10.455760876138,3.5));
#586 = ORIENTED_EDGE('',*,*,#587,.T.);
#587 = EDGE_CURVE('',#569,#475,#588,.T.);
#588 = LINE('',#589,#590);
#589 = CARTESIAN_POINT('',(20.973238616575,9.931987861327,3.5));
#590 = VECTOR('',#591,1.);
#591 = DIRECTION('',(0.,0.,1.));
#592 = CYLINDRICAL_SURFACE('',#593,3.5);
#593 = AXIS2_PLACEMENT_3D('',#594,#595,#596);
#594 = CARTESIAN_POINT('',(17.5,9.5,1.));
#595 = DIRECTION('',(0.,0.,1.));
#596 = DIRECTION('',(1.,0.,0.));
#597 = ADVANCED_FACE('',(#598),#604,.T.);
#598 = FACE_BOUND('',#599,.T.);
#599 = EDGE_LOOP('',(#600,#601,#602,#603));
#600 = ORIENTED_EDGE('',*,*,#88,.F.);
#601 = ORIENTED_EDGE('',*,*,#425,.F.);
#602 = ORIENTED_EDGE('',*,*,#350,.T.);
#603 = ORIENTED_EDGE('',*,*,#466,.T.);
#604 = PLANE('',#605);
#605 = AXIS2_PLACEMENT_3D('',#606,#607,#608);
#606 = CARTESIAN_POINT('',(21.,-13.,1.));
#607 = DIRECTION('',(1.,0.,0.));
#608 = DIRECTION('',(0.,0.,1.));
#609 = ADVANCED_FACE('',(#610),#630,.F.);
#610 = FACE_BOUND('',#611,.F.);
#611 = EDGE_LOOP('',(#612,#621,#628,#629));
#612 = ORIENTED_EDGE('',*,*,#613,.T.);
#613 = EDGE_CURVE('',#614,#614,#616,.T.);
#614 = VERTEX_POINT('',#615);
#615 = CARTESIAN_POINT('',(18.107878402834,9.,5.));
#616 = CIRCLE('',#617,1.907878402834);
#617 = AXIS2_PLACEMENT_3D('',#618,#619,#620);
#618 = CARTESIAN_POINT('',(16.2,9.,5.));
#619 = DIRECTION('',(0.,0.,1.));
#620 = DIRECTION('',(1.,0.,-0.));
#621 = ORIENTED_EDGE('',*,*,#622,.T.);
#622 = EDGE_CURVE('',#614,#123,#623,.T.);
#623 = CIRCLE('',#624,2.);
#624 = AXIS2_PLACEMENT_3D('',#625,#626,#627);
#625 = CARTESIAN_POINT('',(16.2,9.,4.4));
#626 = DIRECTION('',(-2.449293598295E-16,-1.,0.));
#627 = DIRECTION('',(1.,-2.449293598295E-16,0.));
#628 = ORIENTED_EDGE('',*,*,#122,.F.);
#629 = ORIENTED_EDGE('',*,*,#622,.F.);
#630 = SPHERICAL_SURFACE('',#631,2.);
#631 = AXIS2_PLACEMENT_3D('',#632,#633,#634);
#632 = CARTESIAN_POINT('',(16.2,9.,4.4));
#633 = DIRECTION('',(0.,0.,1.));
#634 = DIRECTION('',(1.,0.,0.));
#635 = ADVANCED_FACE('',(#636),#667,.F.);
#636 = FACE_BOUND('',#637,.F.);
#637 = EDGE_LOOP('',(#638,#647,#648,#649,#650,#651,#660));
#638 = ORIENTED_EDGE('',*,*,#639,.F.);
#639 = EDGE_CURVE('',#200,#640,#642,.T.);
#640 = VERTEX_POINT('',#641);
#641 = CARTESIAN_POINT('',(13.487596159536,-12.1,2.5));
#642 = CIRCLE('',#643,1.705872210923);
#643 = AXIS2_PLACEMENT_3D('',#644,#645,#646);
#644 = CARTESIAN_POINT('',(14.3,-12.1,1.));
#645 = DIRECTION('',(0.,1.,0.));
#646 = DIRECTION('',(0.,0.,1.));
#647 = ORIENTED_EDGE('',*,*,#199,.T.);
#648 = ORIENTED_EDGE('',*,*,#393,.T.);
#649 = ORIENTED_EDGE('',*,*,#432,.T.);
#650 = ORIENTED_EDGE('',*,*,#332,.T.);
#651 = ORIENTED_EDGE('',*,*,#652,.F.);
#652 = EDGE_CURVE('',#653,#325,#655,.T.);
#653 = VERTEX_POINT('',#654);
#654 = CARTESIAN_POINT('',(15.112403840464,-12.1,2.5));
#655 = CIRCLE('',#656,1.705872210923);
#656 = AXIS2_PLACEMENT_3D('',#657,#658,#659);
#657 = CARTESIAN_POINT('',(14.3,-12.1,1.));
#658 = DIRECTION('',(0.,1.,0.));
#659 = DIRECTION('',(0.,0.,1.));
#660 = ORIENTED_EDGE('',*,*,#661,.T.);
#661 = EDGE_CURVE('',#653,#640,#662,.T.);
#662 = CIRCLE('',#663,4.769696007085);
#663 = AXIS2_PLACEMENT_3D('',#664,#665,#666);
#664 = CARTESIAN_POINT('',(14.3,-16.8,2.5));
#665 = DIRECTION('',(0.,0.,1.));
#666 = DIRECTION('',(1.,0.,0.));
#667 = SPHERICAL_SURFACE('',#668,5.);
#668 = AXIS2_PLACEMENT_3D('',#669,#670,#671);
#669 = CARTESIAN_POINT('',(14.3,-16.8,1.));
#670 = DIRECTION('',(0.,0.,1.));
#671 = DIRECTION('',(1.,0.,0.));
#672 = ADVANCED_FACE('',(#673),#692,.F.);
#673 = FACE_BOUND('',#674,.F.);
#674 = EDGE_LOOP('',(#675,#676,#677,#678,#686));
#675 = ORIENTED_EDGE('',*,*,#652,.T.);
#676 = ORIENTED_EDGE('',*,*,#324,.T.);
#677 = ORIENTED_EDGE('',*,*,#316,.T.);
#678 = ORIENTED_EDGE('',*,*,#679,.T.);
#679 = EDGE_CURVE('',#309,#680,#682,.T.);
#680 = VERTEX_POINT('',#681);
#681 = CARTESIAN_POINT('',(16.78,-12.1,2.5));
#682 = LINE('',#683,#684);
#683 = CARTESIAN_POINT('',(16.78,-12.1,1.));
#684 = VECTOR('',#685,1.);
#685 = DIRECTION('',(0.,0.,1.));
#686 = ORIENTED_EDGE('',*,*,#687,.F.);
#687 = EDGE_CURVE('',#653,#680,#688,.T.);
#688 = LINE('',#689,#690);
#689 = CARTESIAN_POINT('',(11.78,-12.1,2.5));
#690 = VECTOR('',#691,1.);
#691 = DIRECTION('',(1.,0.,0.));
#692 = PLANE('',#693);
#693 = AXIS2_PLACEMENT_3D('',#694,#695,#696);
#694 = CARTESIAN_POINT('',(16.012823082622,-12.1,1.087163080312));
#695 = DIRECTION('',(-0.,-1.,-0.));
#696 = DIRECTION('',(0.,0.,-1.));
#697 = ADVANCED_FACE('',(#698),#732,.F.);
#698 = FACE_BOUND('',#699,.F.);
#699 = EDGE_LOOP('',(#700,#701,#702,#710,#718,#726));
#700 = ORIENTED_EDGE('',*,*,#679,.F.);
#701 = ORIENTED_EDGE('',*,*,#308,.T.);
#702 = ORIENTED_EDGE('',*,*,#703,.F.);
#703 = EDGE_CURVE('',#704,#301,#706,.T.);
#704 = VERTEX_POINT('',#705);
#705 = CARTESIAN_POINT('',(16.78,-12.,1.6));
#706 = LINE('',#707,#708);
#707 = CARTESIAN_POINT('',(16.78,-12.,0.5));
#708 = VECTOR('',#709,1.);
#709 = DIRECTION('',(0.,0.,-1.));
#710 = ORIENTED_EDGE('',*,*,#711,.T.);
#711 = EDGE_CURVE('',#704,#712,#714,.T.);
#712 = VERTEX_POINT('',#713);
#713 = CARTESIAN_POINT('',(16.78,-11.48690475241,1.6));
#714 = LINE('',#715,#716);
#715 = CARTESIAN_POINT('',(16.78,-12.05,1.6));
#716 = VECTOR('',#717,1.);
#717 = DIRECTION('',(0.,1.,0.));
#718 = ORIENTED_EDGE('',*,*,#719,.T.);
#719 = EDGE_CURVE('',#712,#720,#722,.T.);
#720 = VERTEX_POINT('',#721);
#721 = CARTESIAN_POINT('',(16.78,-11.48690475241,2.5));
#722 = LINE('',#723,#724);
#723 = CARTESIAN_POINT('',(16.78,-11.48690475241,1.));
#724 = VECTOR('',#725,1.);
#725 = DIRECTION('',(0.,0.,1.));
#726 = ORIENTED_EDGE('',*,*,#727,.F.);
#727 = EDGE_CURVE('',#680,#720,#728,.T.);
#728 = LINE('',#729,#730);
#729 = CARTESIAN_POINT('',(16.78,-12.1,2.5));
#730 = VECTOR('',#731,1.);
#731 = DIRECTION('',(0.,1.,0.));
#732 = PLANE('',#733);
#733 = AXIS2_PLACEMENT_3D('',#734,#735,#736);
#734 = CARTESIAN_POINT('',(16.78,-12.1,1.));
#735 = DIRECTION('',(1.,0.,0.));
#736 = DIRECTION('',(0.,0.,1.));
#737 = ADVANCED_FACE('',(#738),#756,.T.);
#738 = FACE_BOUND('',#739,.T.);
#739 = EDGE_LOOP('',(#740,#748,#749,#750));
#740 = ORIENTED_EDGE('',*,*,#741,.F.);
#741 = EDGE_CURVE('',#292,#742,#744,.T.);
#742 = VERTEX_POINT('',#743);
#743 = CARTESIAN_POINT('',(17.,-12.,1.6));
#744 = LINE('',#745,#746);
#745 = CARTESIAN_POINT('',(17.,-12.,0.));
#746 = VECTOR('',#747,1.);
#747 = DIRECTION('',(0.,0.,1.));
#748 = ORIENTED_EDGE('',*,*,#300,.T.);
#749 = ORIENTED_EDGE('',*,*,#703,.F.);
#750 = ORIENTED_EDGE('',*,*,#751,.T.);
#751 = EDGE_CURVE('',#704,#742,#752,.T.);
#752 = LINE('',#753,#754);
#753 = CARTESIAN_POINT('',(-20.,-12.,1.6));
#754 = VECTOR('',#755,1.);
#755 = DIRECTION('',(1.,0.,0.));
#756 = PLANE('',#757);
#757 = AXIS2_PLACEMENT_3D('',#758,#759,#760);
#758 = CARTESIAN_POINT('',(-20.,-12.,0.));
#759 = DIRECTION('',(0.,1.,0.));
#760 = DIRECTION('',(0.,0.,1.));
#761 = ADVANCED_FACE('',(#762),#781,.F.);
#762 = FACE_BOUND('',#763,.T.);
#763 = EDGE_LOOP('',(#764,#772,#773,#774));
#764 = ORIENTED_EDGE('',*,*,#765,.F.);
#765 = EDGE_CURVE('',#284,#766,#768,.T.);
#766 = VERTEX_POINT('',#767);
#767 = CARTESIAN_POINT('',(20.,-9.,1.6));
#768 = LINE('',#769,#770);
#769 = CARTESIAN_POINT('',(20.,-9.,0.));
#770 = VECTOR('',#771,1.);
#771 = DIRECTION('',(0.,0.,1.));
#772 = ORIENTED_EDGE('',*,*,#291,.F.);
#773 = ORIENTED_EDGE('',*,*,#741,.T.);
#774 = ORIENTED_EDGE('',*,*,#775,.F.);
#775 = EDGE_CURVE('',#766,#742,#776,.T.);
#776 = CIRCLE('',#777,3.);
#777 = AXIS2_PLACEMENT_3D('',#778,#779,#780);
#778 = CARTESIAN_POINT('',(17.,-9.,1.6));
#779 = DIRECTION('',(-0.,-0.,-1.));
#780 = DIRECTION('',(0.,-1.,0.));
#781 = CYLINDRICAL_SURFACE('',#782,3.);
#782 = AXIS2_PLACEMENT_3D('',#783,#784,#785);
#783 = CARTESIAN_POINT('',(17.,-9.,0.));
#784 = DIRECTION('',(0.,0.,1.));
#785 = DIRECTION('',(1.,0.,0.));
#786 = ADVANCED_FACE('',(#787),#805,.F.);
#787 = FACE_BOUND('',#788,.F.);
#788 = EDGE_LOOP('',(#789,#797,#798,#799));
#789 = ORIENTED_EDGE('',*,*,#790,.F.);
#790 = EDGE_CURVE('',#766,#791,#793,.T.);
#791 = VERTEX_POINT('',#792);
#792 = CARTESIAN_POINT('',(20.,9.,1.6));
#793 = LINE('',#794,#795);
#794 = CARTESIAN_POINT('',(20.,-12.,1.6));
#795 = VECTOR('',#796,1.);
#796 = DIRECTION('',(0.,1.,0.));
#797 = ORIENTED_EDGE('',*,*,#765,.F.);
#798 = ORIENTED_EDGE('',*,*,#283,.T.);
#799 = ORIENTED_EDGE('',*,*,#800,.T.);
#800 = EDGE_CURVE('',#275,#791,#801,.T.);
#801 = LINE('',#802,#803);
#802 = CARTESIAN_POINT('',(20.,9.,0.));
#803 = VECTOR('',#804,1.);
#804 = DIRECTION('',(0.,0.,1.));
#805 = PLANE('',#806);
#806 = AXIS2_PLACEMENT_3D('',#807,#808,#809);
#807 = CARTESIAN_POINT('',(20.,-12.,0.));
#808 = DIRECTION('',(1.,0.,0.));
#809 = DIRECTION('',(0.,0.,1.));
#810 = ADVANCED_FACE('',(#811),#830,.F.);
#811 = FACE_BOUND('',#812,.F.);
#812 = EDGE_LOOP('',(#813,#814,#815,#823));
#813 = ORIENTED_EDGE('',*,*,#800,.F.);
#814 = ORIENTED_EDGE('',*,*,#274,.T.);
#815 = ORIENTED_EDGE('',*,*,#816,.T.);
#816 = EDGE_CURVE('',#267,#817,#819,.T.);
#817 = VERTEX_POINT('',#818);
#818 = CARTESIAN_POINT('',(17.,12.,1.6));
#819 = LINE('',#820,#821);
#820 = CARTESIAN_POINT('',(17.,12.,0.));
#821 = VECTOR('',#822,1.);
#822 = DIRECTION('',(0.,0.,1.));
#823 = ORIENTED_EDGE('',*,*,#824,.F.);
#824 = EDGE_CURVE('',#791,#817,#825,.T.);
#825 = CIRCLE('',#826,3.);
#826 = AXIS2_PLACEMENT_3D('',#827,#828,#829);
#827 = CARTESIAN_POINT('',(17.,9.,1.6));
#828 = DIRECTION('',(-0.,0.,1.));
#829 = DIRECTION('',(0.,-1.,0.));
#830 = CYLINDRICAL_SURFACE('',#831,3.);
#831 = AXIS2_PLACEMENT_3D('',#832,#833,#834);
#832 = CARTESIAN_POINT('',(17.,9.,0.));
#833 = DIRECTION('',(0.,0.,1.));
#834 = DIRECTION('',(1.,0.,0.));
#835 = ADVANCED_FACE('',(#836),#854,.F.);
#836 = FACE_BOUND('',#837,.F.);
#837 = EDGE_LOOP('',(#838,#839,#847,#853));
#838 = ORIENTED_EDGE('',*,*,#266,.T.);
#839 = ORIENTED_EDGE('',*,*,#840,.T.);
#840 = EDGE_CURVE('',#258,#841,#843,.T.);
#841 = VERTEX_POINT('',#842);
#842 = CARTESIAN_POINT('',(-17.,12.,1.6));
#843 = LINE('',#844,#845);
#844 = CARTESIAN_POINT('',(-17.,12.,0.));
#845 = VECTOR('',#846,1.);
#846 = DIRECTION('',(0.,0.,1.));
#847 = ORIENTED_EDGE('',*,*,#848,.T.);
#848 = EDGE_CURVE('',#841,#817,#849,.T.);
#849 = LINE('',#850,#851);
#850 = CARTESIAN_POINT('',(-20.,12.,1.6));
#851 = VECTOR('',#852,1.);
#852 = DIRECTION('',(1.,0.,0.));
#853 = ORIENTED_EDGE('',*,*,#816,.F.);
#854 = PLANE('',#855);
#855 = AXIS2_PLACEMENT_3D('',#856,#857,#858);
#856 = CARTESIAN_POINT('',(-20.,12.,0.));
#857 = DIRECTION('',(0.,1.,0.));
#858 = DIRECTION('',(0.,0.,1.));
#859 = ADVANCED_FACE('',(#860),#879,.F.);
#860 = FACE_BOUND('',#861,.T.);
#861 = EDGE_LOOP('',(#862,#870,#871,#872));
#862 = ORIENTED_EDGE('',*,*,#863,.F.);
#863 = EDGE_CURVE('',#250,#864,#866,.T.);
#864 = VERTEX_POINT('',#865);
#865 = CARTESIAN_POINT('',(-20.,9.,1.6));
#866 = LINE('',#867,#868);
#867 = CARTESIAN_POINT('',(-20.,9.,0.));
#868 = VECTOR('',#869,1.);
#869 = DIRECTION('',(0.,0.,1.));
#870 = ORIENTED_EDGE('',*,*,#257,.F.);
#871 = ORIENTED_EDGE('',*,*,#840,.T.);
#872 = ORIENTED_EDGE('',*,*,#873,.F.);
#873 = EDGE_CURVE('',#864,#841,#874,.T.);
#874 = CIRCLE('',#875,3.);
#875 = AXIS2_PLACEMENT_3D('',#876,#877,#878);
#876 = CARTESIAN_POINT('',(-17.,9.,1.6));
#877 = DIRECTION('',(-0.,-0.,-1.));
#878 = DIRECTION('',(0.,-1.,0.));
#879 = CYLINDRICAL_SURFACE('',#880,3.);
#880 = AXIS2_PLACEMENT_3D('',#881,#882,#883);
#881 = CARTESIAN_POINT('',(-17.,9.,0.));
#882 = DIRECTION('',(0.,0.,1.));
#883 = DIRECTION('',(-1.,0.,0.));
#884 = ADVANCED_FACE('',(#885),#903,.T.);
#885 = FACE_BOUND('',#886,.T.);
#886 = EDGE_LOOP('',(#887,#895,#901,#902));
#887 = ORIENTED_EDGE('',*,*,#888,.F.);
#888 = EDGE_CURVE('',#889,#864,#891,.T.);
#889 = VERTEX_POINT('',#890);
#890 = CARTESIAN_POINT('',(-20.,-9.,1.6));
#891 = LINE('',#892,#893);
#892 = CARTESIAN_POINT('',(-20.,-12.,1.6));
#893 = VECTOR('',#894,1.);
#894 = DIRECTION('',(0.,1.,0.));
#895 = ORIENTED_EDGE('',*,*,#896,.F.);
#896 = EDGE_CURVE('',#241,#889,#897,.T.);
#897 = LINE('',#898,#899);
#898 = CARTESIAN_POINT('',(-20.,-9.,0.));
#899 = VECTOR('',#900,1.);
#900 = DIRECTION('',(0.,0.,1.));
#901 = ORIENTED_EDGE('',*,*,#249,.T.);
#902 = ORIENTED_EDGE('',*,*,#863,.T.);
#903 = PLANE('',#904);
#904 = AXIS2_PLACEMENT_3D('',#905,#906,#907);
#905 = CARTESIAN_POINT('',(-20.,-12.,0.));
#906 = DIRECTION('',(1.,0.,0.));
#907 = DIRECTION('',(0.,0.,1.));
#908 = ADVANCED_FACE('',(#909),#928,.F.);
#909 = FACE_BOUND('',#910,.F.);
#910 = EDGE_LOOP('',(#911,#912,#913,#921));
#911 = ORIENTED_EDGE('',*,*,#896,.F.);
#912 = ORIENTED_EDGE('',*,*,#240,.T.);
#913 = ORIENTED_EDGE('',*,*,#914,.T.);
#914 = EDGE_CURVE('',#233,#915,#917,.T.);
#915 = VERTEX_POINT('',#916);
#916 = CARTESIAN_POINT('',(-17.,-12.,1.6));
#917 = LINE('',#918,#919);
#918 = CARTESIAN_POINT('',(-17.,-12.,0.));
#919 = VECTOR('',#920,1.);
#920 = DIRECTION('',(0.,0.,1.));
#921 = ORIENTED_EDGE('',*,*,#922,.F.);
#922 = EDGE_CURVE('',#889,#915,#923,.T.);
#923 = CIRCLE('',#924,3.);
#924 = AXIS2_PLACEMENT_3D('',#925,#926,#927);
#925 = CARTESIAN_POINT('',(-17.,-9.,1.6));
#926 = DIRECTION('',(-0.,0.,1.));
#927 = DIRECTION('',(0.,-1.,0.));
#928 = CYLINDRICAL_SURFACE('',#929,3.);
#929 = AXIS2_PLACEMENT_3D('',#930,#931,#932);
#930 = CARTESIAN_POINT('',(-17.,-9.,0.));
#931 = DIRECTION('',(0.,0.,1.));
#932 = DIRECTION('',(-1.,0.,0.));
#933 = ADVANCED_FACE('',(#934),#952,.T.);
#934 = FACE_BOUND('',#935,.T.);
#935 = EDGE_LOOP('',(#936,#944,#950,#951));
#936 = ORIENTED_EDGE('',*,*,#937,.T.);
#937 = EDGE_CURVE('',#915,#938,#940,.T.);
#938 = VERTEX_POINT('',#939);
#939 = CARTESIAN_POINT('',(11.78,-12.,1.6));
#940 = LINE('',#941,#942);
#941 = CARTESIAN_POINT('',(-20.,-12.,1.6));
#942 = VECTOR('',#943,1.);
#943 = DIRECTION('',(1.,0.,0.));
#944 = ORIENTED_EDGE('',*,*,#945,.T.);
#945 = EDGE_CURVE('',#938,#225,#946,.T.);
#946 = LINE('',#947,#948);
#947 = CARTESIAN_POINT('',(11.78,-12.,0.5));
#948 = VECTOR('',#949,1.);
#949 = DIRECTION('',(0.,0.,-1.));
#950 = ORIENTED_EDGE('',*,*,#232,.T.);
#951 = ORIENTED_EDGE('',*,*,#914,.T.);
#952 = PLANE('',#953);
#953 = AXIS2_PLACEMENT_3D('',#954,#955,#956);
#954 = CARTESIAN_POINT('',(-20.,-12.,0.));
#955 = DIRECTION('',(0.,1.,0.));
#956 = DIRECTION('',(0.,0.,1.));
#957 = ADVANCED_FACE('',(#958),#992,.T.);
#958 = FACE_BOUND('',#959,.T.);
#959 = EDGE_LOOP('',(#960,#968,#969,#970,#978,#986));
#960 = ORIENTED_EDGE('',*,*,#961,.F.);
#961 = EDGE_CURVE('',#217,#962,#964,.T.);
#962 = VERTEX_POINT('',#963);
#963 = CARTESIAN_POINT('',(11.78,-12.1,2.5));
#964 = LINE('',#965,#966);
#965 = CARTESIAN_POINT('',(11.78,-12.1,1.));
#966 = VECTOR('',#967,1.);
#967 = DIRECTION('',(0.,0.,1.));
#968 = ORIENTED_EDGE('',*,*,#224,.T.);
#969 = ORIENTED_EDGE('',*,*,#945,.F.);
#970 = ORIENTED_EDGE('',*,*,#971,.T.);
#971 = EDGE_CURVE('',#938,#972,#974,.T.);
#972 = VERTEX_POINT('',#973);
#973 = CARTESIAN_POINT('',(11.78,-11.5,1.6));
#974 = LINE('',#975,#976);
#975 = CARTESIAN_POINT('',(11.78,-12.05,1.6));
#976 = VECTOR('',#977,1.);
#977 = DIRECTION('',(0.,1.,0.));
#978 = ORIENTED_EDGE('',*,*,#979,.F.);
#979 = EDGE_CURVE('',#980,#972,#982,.T.);
#980 = VERTEX_POINT('',#981);
#981 = CARTESIAN_POINT('',(11.78,-11.5,2.5));
#982 = LINE('',#983,#984);
#983 = CARTESIAN_POINT('',(11.78,-11.5,1.));
#984 = VECTOR('',#985,1.);
#985 = DIRECTION('',(0.,0.,-1.));
#986 = ORIENTED_EDGE('',*,*,#987,.F.);
#987 = EDGE_CURVE('',#962,#980,#988,.T.);
#988 = LINE('',#989,#990);
#989 = CARTESIAN_POINT('',(11.78,-12.1,2.5));
#990 = VECTOR('',#991,1.);
#991 = DIRECTION('',(0.,1.,0.));
#992 = PLANE('',#993);
#993 = AXIS2_PLACEMENT_3D('',#994,#995,#996);
#994 = CARTESIAN_POINT('',(11.78,-12.1,1.));
#995 = DIRECTION('',(1.,0.,0.));
#996 = DIRECTION('',(0.,0.,1.));
#997 = ADVANCED_FACE('',(#998),#1010,.F.);
#998 = FACE_BOUND('',#999,.F.);
#999 = EDGE_LOOP('',(#1000,#1001,#1002,#1003,#1009));
#1000 = ORIENTED_EDGE('',*,*,#216,.T.);
#1001 = ORIENTED_EDGE('',*,*,#208,.T.);
#1002 = ORIENTED_EDGE('',*,*,#639,.T.);
#1003 = ORIENTED_EDGE('',*,*,#1004,.F.);
#1004 = EDGE_CURVE('',#962,#640,#1005,.T.);
#1005 = LINE('',#1006,#1007);
#1006 = CARTESIAN_POINT('',(11.78,-12.1,2.5));
#1007 = VECTOR('',#1008,1.);
#1008 = DIRECTION('',(1.,0.,0.));
#1009 = ORIENTED_EDGE('',*,*,#961,.F.);
#1010 = PLANE('',#1011);
#1011 = AXIS2_PLACEMENT_3D('',#1012,#1013,#1014);
#1012 = CARTESIAN_POINT('',(12.574954414016,-12.1,1.092433473321));
#1013 = DIRECTION('',(-0.,-1.,-0.));
#1014 = DIRECTION('',(0.,0.,-1.));
#1015 = ADVANCED_FACE('',(#1016),#1052,.F.);
#1016 = FACE_BOUND('',#1017,.T.);
#1017 = EDGE_LOOP('',(#1018,#1026,#1045,#1051));
#1018 = ORIENTED_EDGE('',*,*,#1019,.F.);
#1019 = EDGE_CURVE('',#1020,#475,#1022,.T.);
#1020 = VERTEX_POINT('',#1021);
#1021 = CARTESIAN_POINT('',(19.475424707065,8.883207271053,4.01));
#1022 = LINE('',#1023,#1024);
#1023 = CARTESIAN_POINT('',(17.5,7.5,4.01));
#1024 = VECTOR('',#1025,1.);
#1025 = DIRECTION('',(0.819152044289,0.573576436351,0.));
#1026 = ORIENTED_EDGE('',*,*,#1027,.T.);
#1027 = EDGE_CURVE('',#1020,#1028,#1030,.T.);
#1028 = VERTEX_POINT('',#1029);
#1029 = CARTESIAN_POINT('',(19.361343466926,9.401506275232,4.5));
#1030 = B_SPLINE_CURVE_WITH_KNOTS('',5,(#1031,#1032,#1033,#1034,#1035,
    #1036,#1037,#1038,#1039,#1040,#1041,#1042,#1043,#1044),
  .UNSPECIFIED.,.F.,.F.,(6,4,4,6),(0.,0.286049939414,0.71773180919,1.),
  .UNSPECIFIED.);
#1031 = CARTESIAN_POINT('',(19.475424707065,8.883207271053,4.01));
#1032 = CARTESIAN_POINT('',(19.475424707065,8.883207271053,
    4.053034092425));
#1033 = CARTESIAN_POINT('',(19.47474301471,8.888497425377,4.096056554633
    ));
#1034 = CARTESIAN_POINT('',(19.473382580648,8.899072688635,
    4.138426505889));
#1035 = CARTESIAN_POINT('',(19.47126452958,8.914742978965,4.179495807813
    ));
#1036 = CARTESIAN_POINT('',(19.463765031437,8.965901203447,
    4.277692592887));
#1037 = CARTESIAN_POINT('',(19.457267845091,9.007442321476,
    4.332400160517));
#1038 = CARTESIAN_POINT('',(19.448391852535,9.058534910678,
    4.380629043273));
#1039 = CARTESIAN_POINT('',(19.436572045588,9.11709283881,4.420366946534
    ));
#1040 = CARTESIAN_POINT('',(19.412083728412,9.222211404139,
    4.469431889452));
#1041 = CARTESIAN_POINT('',(19.401122197723,9.265922644786,
    4.484530220241));
#1042 = CARTESIAN_POINT('',(19.388896233006,9.310959437198,
    4.494818013106));
#1043 = CARTESIAN_POINT('',(19.375545374644,9.356430010115,4.5));
#1044 = CARTESIAN_POINT('',(19.361343466926,9.401506275232,4.5));
#1045 = ORIENTED_EDGE('',*,*,#1046,.T.);
#1046 = EDGE_CURVE('',#1028,#477,#1047,.T.);
#1047 = LINE('',#1048,#1049);
#1048 = CARTESIAN_POINT('',(17.218947546188,7.901384501702,4.5));
#1049 = VECTOR('',#1050,1.);
#1050 = DIRECTION('',(0.819152044289,0.573576436351,0.));
#1051 = ORIENTED_EDGE('',*,*,#474,.F.);
#1052 = CYLINDRICAL_SURFACE('',#1053,0.49);
#1053 = AXIS2_PLACEMENT_3D('',#1054,#1055,#1056);
#1054 = CARTESIAN_POINT('',(17.218947546188,7.901384501702,4.01));
#1055 = DIRECTION('',(0.819152044289,0.573576436351,0.));
#1056 = DIRECTION('',(0.573576436351,-0.819152044289,0.));
#1057 = ADVANCED_FACE('',(#1058),#1076,.T.);
#1058 = FACE_BOUND('',#1059,.T.);
#1059 = EDGE_LOOP('',(#1060,#1061,#1069,#1075));
#1060 = ORIENTED_EDGE('',*,*,#587,.F.);
#1061 = ORIENTED_EDGE('',*,*,#1062,.F.);
#1062 = EDGE_CURVE('',#1063,#569,#1065,.T.);
#1063 = VERTEX_POINT('',#1064);
#1064 = CARTESIAN_POINT('',(19.475424707065,8.883207271053,3.99));
#1065 = LINE('',#1066,#1067);
#1066 = CARTESIAN_POINT('',(17.5,7.5,3.99));
#1067 = VECTOR('',#1068,1.);
#1068 = DIRECTION('',(0.819152044289,0.573576436351,0.));
#1069 = ORIENTED_EDGE('',*,*,#1070,.T.);
#1070 = EDGE_CURVE('',#1063,#1020,#1071,.T.);
#1071 = LINE('',#1072,#1073);
#1072 = CARTESIAN_POINT('',(19.475424707065,8.883207271053,1.));
#1073 = VECTOR('',#1074,1.);
#1074 = DIRECTION('',(0.,0.,1.));
#1075 = ORIENTED_EDGE('',*,*,#1019,.T.);
#1076 = PLANE('',#1077);
#1077 = AXIS2_PLACEMENT_3D('',#1078,#1079,#1080);
#1078 = CARTESIAN_POINT('',(17.5,7.5,3.5));
#1079 = DIRECTION('',(-0.573576436351,0.819152044289,0.));
#1080 = DIRECTION('',(0.,0.,1.));
#1081 = ADVANCED_FACE('',(#1082),#1111,.F.);
#1082 = FACE_BOUND('',#1083,.F.);
#1083 = EDGE_LOOP('',(#1084,#1085,#1104,#1110));
#1084 = ORIENTED_EDGE('',*,*,#1062,.F.);
#1085 = ORIENTED_EDGE('',*,*,#1086,.T.);
#1086 = EDGE_CURVE('',#1063,#1087,#1089,.T.);
#1087 = VERTEX_POINT('',#1088);
#1088 = CARTESIAN_POINT('',(19.361343466926,9.401506275232,3.5));
#1089 = B_SPLINE_CURVE_WITH_KNOTS('',5,(#1090,#1091,#1092,#1093,#1094,
    #1095,#1096,#1097,#1098,#1099,#1100,#1101,#1102,#1103),
  .UNSPECIFIED.,.F.,.F.,(6,4,4,6),(0.,0.286049743334,0.717730116078,1.),
  .UNSPECIFIED.);
#1090 = CARTESIAN_POINT('',(19.475424707065,8.883207271053,3.99));
#1091 = CARTESIAN_POINT('',(19.475424707065,8.883207271053,
    3.946966079855));
#1092 = CARTESIAN_POINT('',(19.474743026055,8.88849738505,3.903943458216
    ));
#1093 = CARTESIAN_POINT('',(19.473382573486,8.899072721906,
    3.861573298307));
#1094 = CARTESIAN_POINT('',(19.471264511713,8.914743100841,3.82050395825
    ));
#1095 = CARTESIAN_POINT('',(19.46376507095,8.96590093391,3.722307924482)
  );
#1096 = CARTESIAN_POINT('',(19.457267860609,9.007442373824,
    3.667599314169));
#1097 = CARTESIAN_POINT('',(19.448391670392,9.058535866449,
    3.619370258008));
#1098 = CARTESIAN_POINT('',(19.436571905427,9.117093440463,3.57963277264
    ));
#1099 = CARTESIAN_POINT('',(19.412083728412,9.222211404139,
    3.530568110548));
#1100 = CARTESIAN_POINT('',(19.401122197723,9.265922644786,
    3.515469779759));
#1101 = CARTESIAN_POINT('',(19.388896233006,9.310959437198,
    3.505181986894));
#1102 = CARTESIAN_POINT('',(19.375545374644,9.356430010115,3.5));
#1103 = CARTESIAN_POINT('',(19.361343466926,9.401506275232,3.5));
#1104 = ORIENTED_EDGE('',*,*,#1105,.T.);
#1105 = EDGE_CURVE('',#1087,#560,#1106,.T.);
#1106 = LINE('',#1107,#1108);
#1107 = CARTESIAN_POINT('',(17.218947546188,7.901384501702,3.5));
#1108 = VECTOR('',#1109,1.);
#1109 = DIRECTION('',(0.819152044289,0.573576436351,0.));
#1110 = ORIENTED_EDGE('',*,*,#568,.F.);
#1111 = CYLINDRICAL_SURFACE('',#1112,0.49);
#1112 = AXIS2_PLACEMENT_3D('',#1113,#1114,#1115);
#1113 = CARTESIAN_POINT('',(17.218947546188,7.901384501702,3.99));
#1114 = DIRECTION('',(0.819152044289,0.573576436351,0.));
#1115 = DIRECTION('',(0.573576436351,-0.819152044289,0.));
#1116 = ADVANCED_FACE('',(#1117),#1136,.F.);
#1117 = FACE_BOUND('',#1118,.F.);
#1118 = EDGE_LOOP('',(#1119,#1128,#1134,#1135));
#1119 = ORIENTED_EDGE('',*,*,#1120,.T.);
#1120 = EDGE_CURVE('',#1087,#1121,#1123,.T.);
#1121 = VERTEX_POINT('',#1122);
#1122 = CARTESIAN_POINT('',(17.026577127644,11.453424542568,3.5));
#1123 = CIRCLE('',#1124,3.);
#1124 = AXIS2_PLACEMENT_3D('',#1125,#1126,#1127);
#1125 = CARTESIAN_POINT('',(16.5,8.5,3.5));
#1126 = DIRECTION('',(0.,0.,1.));
#1127 = DIRECTION('',(1.,0.,-0.));
#1128 = ORIENTED_EDGE('',*,*,#1129,.T.);
#1129 = EDGE_CURVE('',#1121,#538,#1130,.T.);
#1130 = LINE('',#1131,#1132);
#1131 = CARTESIAN_POINT('',(15.486746708408,10.375223675454,3.5));
#1132 = VECTOR('',#1133,1.);
#1133 = DIRECTION('',(0.819152044289,0.573576436351,0.));
#1134 = ORIENTED_EDGE('',*,*,#559,.F.);
#1135 = ORIENTED_EDGE('',*,*,#1105,.F.);
#1136 = PLANE('',#1137);
#1137 = AXIS2_PLACEMENT_3D('',#1138,#1139,#1140);
#1138 = CARTESIAN_POINT('',(17.862898745321,10.184678733225,3.5));
#1139 = DIRECTION('',(-0.,-0.,-1.));
#1140 = DIRECTION('',(-1.,0.,0.));
#1141 = ADVANCED_FACE('',(#1142),#1176,.F.);
#1142 = FACE_BOUND('',#1143,.T.);
#1143 = EDGE_LOOP('',(#1144,#1152,#1161,#1174,#1175));
#1144 = ORIENTED_EDGE('',*,*,#1145,.F.);
#1145 = EDGE_CURVE('',#1146,#530,#1148,.T.);
#1146 = VERTEX_POINT('',#1147);
#1147 = CARTESIAN_POINT('',(16.238804844484,11.5,3.99));
#1148 = LINE('',#1149,#1150);
#1149 = CARTESIAN_POINT('',(15.205694254596,10.776608177156,3.99));
#1150 = VECTOR('',#1151,1.);
#1151 = DIRECTION('',(0.819152044289,0.573576436351,0.));
#1152 = ORIENTED_EDGE('',*,*,#1153,.F.);
#1153 = EDGE_CURVE('',#1154,#1146,#1156,.T.);
#1154 = VERTEX_POINT('',#1155);
#1155 = CARTESIAN_POINT('',(16.5,11.5,3.63733241043));
#1156 = ELLIPSE('',#1157,0.854288929854,0.49);
#1157 = AXIS2_PLACEMENT_3D('',#1158,#1159,#1160);
#1158 = CARTESIAN_POINT('',(17.093093774338,11.5,3.99));
#1159 = DIRECTION('',(0.,1.,0.));
#1160 = DIRECTION('',(1.,-0.,0.));
#1161 = ORIENTED_EDGE('',*,*,#1162,.T.);
#1162 = EDGE_CURVE('',#1154,#1121,#1163,.T.);
#1163 = B_SPLINE_CURVE_WITH_KNOTS('',5,(#1164,#1165,#1166,#1167,#1168,
    #1169,#1170,#1171,#1172,#1173),.UNSPECIFIED.,.F.,.F.,(6,4,6),(0.,
    0.32079368476,1.),.UNSPECIFIED.);
#1164 = CARTESIAN_POINT('',(16.5,11.5,3.63733241043));
#1165 = CARTESIAN_POINT('',(16.530141430623,11.5,3.62065593453));
#1166 = CARTESIAN_POINT('',(16.561358745116,11.499621465516,
    3.605130169191));
#1167 = CARTESIAN_POINT('',(16.593449208752,11.498810283423,
    3.590779939809));
#1168 = CARTESIAN_POINT('',(16.626253999668,11.497528693273,
    3.577632637916));
#1169 = CARTESIAN_POINT('',(16.730352670898,11.491981110778,
    3.540509575343));
#1170 = CARTESIAN_POINT('',(16.803797180132,11.485975110401,
    3.520811724449));
#1171 = CARTESIAN_POINT('',(16.878467952393,11.477475324218,
    3.507126475192));
#1172 = CARTESIAN_POINT('',(16.953127180343,11.466520209363,
    3.499999998525));
#1173 = CARTESIAN_POINT('',(17.02657714665,11.453424539179,3.5));
#1174 = ORIENTED_EDGE('',*,*,#1129,.T.);
#1175 = ORIENTED_EDGE('',*,*,#537,.F.);
#1176 = CYLINDRICAL_SURFACE('',#1177,0.49);
#1177 = AXIS2_PLACEMENT_3D('',#1178,#1179,#1180);
#1178 = CARTESIAN_POINT('',(15.486746708408,10.375223675454,3.99));
#1179 = DIRECTION('',(0.819152044289,0.573576436351,0.));
#1180 = DIRECTION('',(-0.573576436351,0.819152044289,0.));
#1181 = ADVANCED_FACE('',(#1182),#1200,.F.);
#1182 = FACE_BOUND('',#1183,.F.);
#1183 = EDGE_LOOP('',(#1184,#1185,#1186,#1194));
#1184 = ORIENTED_EDGE('',*,*,#529,.F.);
#1185 = ORIENTED_EDGE('',*,*,#1145,.F.);
#1186 = ORIENTED_EDGE('',*,*,#1187,.T.);
#1187 = EDGE_CURVE('',#1146,#1188,#1190,.T.);
#1188 = VERTEX_POINT('',#1189);
#1189 = CARTESIAN_POINT('',(16.238804844484,11.5,4.01));
#1190 = LINE('',#1191,#1192);
#1191 = CARTESIAN_POINT('',(16.238804844484,11.5,2.25));
#1192 = VECTOR('',#1193,1.);
#1193 = DIRECTION('',(0.,-0.,1.));
#1194 = ORIENTED_EDGE('',*,*,#1195,.T.);
#1195 = EDGE_CURVE('',#1188,#508,#1196,.T.);
#1196 = LINE('',#1197,#1198);
#1197 = CARTESIAN_POINT('',(15.205694254596,10.776608177156,4.01));
#1198 = VECTOR('',#1199,1.);
#1199 = DIRECTION('',(0.819152044289,0.573576436351,0.));
#1200 = PLANE('',#1201);
#1201 = AXIS2_PLACEMENT_3D('',#1202,#1203,#1204);
#1202 = CARTESIAN_POINT('',(15.205694254596,10.776608177156,3.5));
#1203 = DIRECTION('',(-0.573576436351,0.819152044289,0.));
#1204 = DIRECTION('',(0.,0.,1.));
#1205 = ADVANCED_FACE('',(#1206),#1240,.F.);
#1206 = FACE_BOUND('',#1207,.F.);
#1207 = EDGE_LOOP('',(#1208,#1209,#1218,#1233,#1239));
#1208 = ORIENTED_EDGE('',*,*,#1195,.F.);
#1209 = ORIENTED_EDGE('',*,*,#1210,.T.);
#1210 = EDGE_CURVE('',#1188,#1211,#1213,.T.);
#1211 = VERTEX_POINT('',#1212);
#1212 = CARTESIAN_POINT('',(16.5,11.5,4.36266758957));
#1213 = ELLIPSE('',#1214,0.854288929854,0.49);
#1214 = AXIS2_PLACEMENT_3D('',#1215,#1216,#1217);
#1215 = CARTESIAN_POINT('',(17.093093774338,11.5,4.01));
#1216 = DIRECTION('',(0.,1.,0.));
#1217 = DIRECTION('',(1.,-0.,0.));
#1218 = ORIENTED_EDGE('',*,*,#1219,.T.);
#1219 = EDGE_CURVE('',#1211,#1220,#1222,.T.);
#1220 = VERTEX_POINT('',#1221);
#1221 = CARTESIAN_POINT('',(17.026577127644,11.453424542568,4.5));
#1222 = B_SPLINE_CURVE_WITH_KNOTS('',5,(#1223,#1224,#1225,#1226,#1227,
    #1228,#1229,#1230,#1231,#1232),.UNSPECIFIED.,.F.,.F.,(6,4,6),(0.,
    0.320793690308,1.),.UNSPECIFIED.);
#1223 = CARTESIAN_POINT('',(16.5,11.5,4.36266758957));
#1224 = CARTESIAN_POINT('',(16.530141430086,11.5,4.379344065173));
#1225 = CARTESIAN_POINT('',(16.561358744004,11.499621465529,
    4.394869830256));
#1226 = CARTESIAN_POINT('',(16.593449207037,11.498810283467,
    4.409220059424));
#1227 = CARTESIAN_POINT('',(16.62625399733,11.497528693365,
    4.422367361147));
#1228 = CARTESIAN_POINT('',(16.730352664777,11.491981111175,
    4.459490422692));
#1229 = CARTESIAN_POINT('',(16.803797170644,11.485975111237,
    4.479188273165));
#1230 = CARTESIAN_POINT('',(16.878467939524,11.477475325724,
    4.49287352256));
#1231 = CARTESIAN_POINT('',(16.953127164247,11.466520211746,4.5));
#1232 = CARTESIAN_POINT('',(17.026577127644,11.453424542568,4.5));
#1233 = ORIENTED_EDGE('',*,*,#1234,.T.);
#1234 = EDGE_CURVE('',#1220,#499,#1235,.T.);
#1235 = LINE('',#1236,#1237);
#1236 = CARTESIAN_POINT('',(15.486746708408,10.375223675454,4.5));
#1237 = VECTOR('',#1238,1.);
#1238 = DIRECTION('',(0.819152044289,0.573576436351,0.));
#1239 = ORIENTED_EDGE('',*,*,#507,.F.);
#1240 = CYLINDRICAL_SURFACE('',#1241,0.49);
#1241 = AXIS2_PLACEMENT_3D('',#1242,#1243,#1244);
#1242 = CARTESIAN_POINT('',(15.486746708408,10.375223675454,4.01));
#1243 = DIRECTION('',(0.819152044289,0.573576436351,0.));
#1244 = DIRECTION('',(-0.573576436351,0.819152044289,0.));
#1245 = ADVANCED_FACE('',(#1246),#1258,.F.);
#1246 = FACE_BOUND('',#1247,.F.);
#1247 = EDGE_LOOP('',(#1248,#1255,#1256,#1257));
#1248 = ORIENTED_EDGE('',*,*,#1249,.F.);
#1249 = EDGE_CURVE('',#1028,#1220,#1250,.T.);
#1250 = CIRCLE('',#1251,3.);
#1251 = AXIS2_PLACEMENT_3D('',#1252,#1253,#1254);
#1252 = CARTESIAN_POINT('',(16.5,8.5,4.5));
#1253 = DIRECTION('',(0.,0.,1.));
#1254 = DIRECTION('',(1.,0.,-0.));
#1255 = ORIENTED_EDGE('',*,*,#1046,.T.);
#1256 = ORIENTED_EDGE('',*,*,#498,.T.);
#1257 = ORIENTED_EDGE('',*,*,#1234,.F.);
#1258 = PLANE('',#1259);
#1259 = AXIS2_PLACEMENT_3D('',#1260,#1261,#1262);
#1260 = CARTESIAN_POINT('',(17.5,7.5,4.5));
#1261 = DIRECTION('',(0.,0.,1.));
#1262 = DIRECTION('',(0.819152044289,0.573576436351,0.));
#1263 = ADVANCED_FACE('',(#1264,#1334),#1337,.F.);
#1264 = FACE_BOUND('',#1265,.F.);
#1265 = EDGE_LOOP('',(#1266,#1276,#1285,#1293,#1302,#1310,#1319,#1327));
#1266 = ORIENTED_EDGE('',*,*,#1267,.F.);
#1267 = EDGE_CURVE('',#1268,#1270,#1272,.T.);
#1268 = VERTEX_POINT('',#1269);
#1269 = CARTESIAN_POINT('',(-19.5,-8.5,5.));
#1270 = VERTEX_POINT('',#1271);
#1271 = CARTESIAN_POINT('',(-19.5,8.5,5.));
#1272 = LINE('',#1273,#1274);
#1273 = CARTESIAN_POINT('',(-19.5,-11.5,5.));
#1274 = VECTOR('',#1275,1.);
#1275 = DIRECTION('',(0.,1.,0.));
#1276 = ORIENTED_EDGE('',*,*,#1277,.T.);
#1277 = EDGE_CURVE('',#1268,#1278,#1280,.T.);
#1278 = VERTEX_POINT('',#1279);
#1279 = CARTESIAN_POINT('',(-16.5,-11.5,5.));
#1280 = CIRCLE('',#1281,3.);
#1281 = AXIS2_PLACEMENT_3D('',#1282,#1283,#1284);
#1282 = CARTESIAN_POINT('',(-16.5,-8.5,5.));
#1283 = DIRECTION('',(-0.,0.,1.));
#1284 = DIRECTION('',(0.,-1.,0.));
#1285 = ORIENTED_EDGE('',*,*,#1286,.T.);
#1286 = EDGE_CURVE('',#1278,#1287,#1289,.T.);
#1287 = VERTEX_POINT('',#1288);
#1288 = CARTESIAN_POINT('',(16.5,-11.5,5.));
#1289 = LINE('',#1290,#1291);
#1290 = CARTESIAN_POINT('',(-19.5,-11.5,5.));
#1291 = VECTOR('',#1292,1.);
#1292 = DIRECTION('',(1.,0.,0.));
#1293 = ORIENTED_EDGE('',*,*,#1294,.F.);
#1294 = EDGE_CURVE('',#1295,#1287,#1297,.T.);
#1295 = VERTEX_POINT('',#1296);
#1296 = CARTESIAN_POINT('',(19.5,-8.5,5.));
#1297 = CIRCLE('',#1298,3.);
#1298 = AXIS2_PLACEMENT_3D('',#1299,#1300,#1301);
#1299 = CARTESIAN_POINT('',(16.5,-8.5,5.));
#1300 = DIRECTION('',(-0.,-0.,-1.));
#1301 = DIRECTION('',(0.,-1.,0.));
#1302 = ORIENTED_EDGE('',*,*,#1303,.T.);
#1303 = EDGE_CURVE('',#1295,#1304,#1306,.T.);
#1304 = VERTEX_POINT('',#1305);
#1305 = CARTESIAN_POINT('',(19.5,8.5,5.));
#1306 = LINE('',#1307,#1308);
#1307 = CARTESIAN_POINT('',(19.5,-11.5,5.));
#1308 = VECTOR('',#1309,1.);
#1309 = DIRECTION('',(0.,1.,0.));
#1310 = ORIENTED_EDGE('',*,*,#1311,.T.);
#1311 = EDGE_CURVE('',#1304,#1312,#1314,.T.);
#1312 = VERTEX_POINT('',#1313);
#1313 = CARTESIAN_POINT('',(16.5,11.5,5.));
#1314 = CIRCLE('',#1315,3.);
#1315 = AXIS2_PLACEMENT_3D('',#1316,#1317,#1318);
#1316 = CARTESIAN_POINT('',(16.5,8.5,5.));
#1317 = DIRECTION('',(-0.,0.,1.));
#1318 = DIRECTION('',(0.,-1.,0.));
#1319 = ORIENTED_EDGE('',*,*,#1320,.F.);
#1320 = EDGE_CURVE('',#1321,#1312,#1323,.T.);
#1321 = VERTEX_POINT('',#1322);
#1322 = CARTESIAN_POINT('',(-16.5,11.5,5.));
#1323 = LINE('',#1324,#1325);
#1324 = CARTESIAN_POINT('',(-19.5,11.5,5.));
#1325 = VECTOR('',#1326,1.);
#1326 = DIRECTION('',(1.,0.,0.));
#1327 = ORIENTED_EDGE('',*,*,#1328,.F.);
#1328 = EDGE_CURVE('',#1270,#1321,#1329,.T.);
#1329 = CIRCLE('',#1330,3.);
#1330 = AXIS2_PLACEMENT_3D('',#1331,#1332,#1333);
#1331 = CARTESIAN_POINT('',(-16.5,8.5,5.));
#1332 = DIRECTION('',(-0.,-0.,-1.));
#1333 = DIRECTION('',(0.,-1.,0.));
#1334 = FACE_BOUND('',#1335,.F.);
#1335 = EDGE_LOOP('',(#1336));
#1336 = ORIENTED_EDGE('',*,*,#613,.F.);
#1337 = PLANE('',#1338);
#1338 = AXIS2_PLACEMENT_3D('',#1339,#1340,#1341);
#1339 = CARTESIAN_POINT('',(-19.5,-11.5,5.));
#1340 = DIRECTION('',(0.,0.,1.));
#1341 = DIRECTION('',(1.,0.,0.));
#1342 = ADVANCED_FACE('',(#1343),#1365,.F.);
#1343 = FACE_BOUND('',#1344,.F.);
#1344 = EDGE_LOOP('',(#1345,#1346,#1355,#1361,#1362,#1363,#1364));
#1345 = ORIENTED_EDGE('',*,*,#727,.T.);
#1346 = ORIENTED_EDGE('',*,*,#1347,.F.);
#1347 = EDGE_CURVE('',#1348,#720,#1350,.T.);
#1348 = VERTEX_POINT('',#1349);
#1349 = CARTESIAN_POINT('',(16.5,-11.5,2.5));
#1350 = CIRCLE('',#1351,3.);
#1351 = AXIS2_PLACEMENT_3D('',#1352,#1353,#1354);
#1352 = CARTESIAN_POINT('',(16.5,-8.5,2.5));
#1353 = DIRECTION('',(0.,0.,1.));
#1354 = DIRECTION('',(1.,0.,-0.));
#1355 = ORIENTED_EDGE('',*,*,#1356,.F.);
#1356 = EDGE_CURVE('',#980,#1348,#1357,.T.);
#1357 = LINE('',#1358,#1359);
#1358 = CARTESIAN_POINT('',(-3.86,-11.5,2.5));
#1359 = VECTOR('',#1360,1.);
#1360 = DIRECTION('',(1.,0.,0.));
#1361 = ORIENTED_EDGE('',*,*,#987,.F.);
#1362 = ORIENTED_EDGE('',*,*,#1004,.T.);
#1363 = ORIENTED_EDGE('',*,*,#661,.F.);
#1364 = ORIENTED_EDGE('',*,*,#687,.T.);
#1365 = PLANE('',#1366);
#1366 = AXIS2_PLACEMENT_3D('',#1367,#1368,#1369);
#1367 = CARTESIAN_POINT('',(11.78,-12.1,2.5));
#1368 = DIRECTION('',(0.,0.,1.));
#1369 = DIRECTION('',(1.,0.,0.));
#1370 = ADVANCED_FACE('',(#1371),#1397,.F.);
#1371 = FACE_BOUND('',#1372,.T.);
#1372 = EDGE_LOOP('',(#1373,#1381,#1388,#1389,#1390,#1396));
#1373 = ORIENTED_EDGE('',*,*,#1374,.F.);
#1374 = EDGE_CURVE('',#1375,#1295,#1377,.T.);
#1375 = VERTEX_POINT('',#1376);
#1376 = CARTESIAN_POINT('',(19.5,-8.5,1.6));
#1377 = LINE('',#1378,#1379);
#1378 = CARTESIAN_POINT('',(19.5,-8.5,1.));
#1379 = VECTOR('',#1380,1.);
#1380 = DIRECTION('',(0.,0.,1.));
#1381 = ORIENTED_EDGE('',*,*,#1382,.F.);
#1382 = EDGE_CURVE('',#712,#1375,#1383,.T.);
#1383 = CIRCLE('',#1384,3.);
#1384 = AXIS2_PLACEMENT_3D('',#1385,#1386,#1387);
#1385 = CARTESIAN_POINT('',(16.5,-8.5,1.6));
#1386 = DIRECTION('',(0.,0.,1.));
#1387 = DIRECTION('',(1.,0.,0.));
#1388 = ORIENTED_EDGE('',*,*,#719,.T.);
#1389 = ORIENTED_EDGE('',*,*,#1347,.F.);
#1390 = ORIENTED_EDGE('',*,*,#1391,.T.);
#1391 = EDGE_CURVE('',#1348,#1287,#1392,.T.);
#1392 = LINE('',#1393,#1394);
#1393 = CARTESIAN_POINT('',(16.5,-11.5,1.));
#1394 = VECTOR('',#1395,1.);
#1395 = DIRECTION('',(0.,0.,1.));
#1396 = ORIENTED_EDGE('',*,*,#1294,.F.);
#1397 = CYLINDRICAL_SURFACE('',#1398,3.);
#1398 = AXIS2_PLACEMENT_3D('',#1399,#1400,#1401);
#1399 = CARTESIAN_POINT('',(16.5,-8.5,1.));
#1400 = DIRECTION('',(0.,0.,1.));
#1401 = DIRECTION('',(1.,0.,0.));
#1402 = ADVANCED_FACE('',(#1403),#1474,.F.);
#1403 = FACE_BOUND('',#1404,.F.);
#1404 = EDGE_LOOP('',(#1405,#1406,#1407,#1408,#1409,#1417,#1426,#1434,
    #1443,#1451,#1460,#1466,#1467,#1468,#1469,#1470,#1471,#1472,#1473));
#1405 = ORIENTED_EDGE('',*,*,#888,.F.);
#1406 = ORIENTED_EDGE('',*,*,#922,.T.);
#1407 = ORIENTED_EDGE('',*,*,#937,.T.);
#1408 = ORIENTED_EDGE('',*,*,#971,.T.);
#1409 = ORIENTED_EDGE('',*,*,#1410,.F.);
#1410 = EDGE_CURVE('',#1411,#972,#1413,.T.);
#1411 = VERTEX_POINT('',#1412);
#1412 = CARTESIAN_POINT('',(-16.5,-11.5,1.6));
#1413 = LINE('',#1414,#1415);
#1414 = CARTESIAN_POINT('',(-19.75,-11.5,1.6));
#1415 = VECTOR('',#1416,1.);
#1416 = DIRECTION('',(1.,0.,0.));
#1417 = ORIENTED_EDGE('',*,*,#1418,.F.);
#1418 = EDGE_CURVE('',#1419,#1411,#1421,.T.);
#1419 = VERTEX_POINT('',#1420);
#1420 = CARTESIAN_POINT('',(-19.5,-8.5,1.6));
#1421 = CIRCLE('',#1422,3.);
#1422 = AXIS2_PLACEMENT_3D('',#1423,#1424,#1425);
#1423 = CARTESIAN_POINT('',(-16.5,-8.5,1.6));
#1424 = DIRECTION('',(0.,0.,1.));
#1425 = DIRECTION('',(-1.,0.,0.));
#1426 = ORIENTED_EDGE('',*,*,#1427,.F.);
#1427 = EDGE_CURVE('',#1428,#1419,#1430,.T.);
#1428 = VERTEX_POINT('',#1429);
#1429 = CARTESIAN_POINT('',(-19.5,8.5,1.6));
#1430 = LINE('',#1431,#1432);
#1431 = CARTESIAN_POINT('',(-19.5,-11.75,1.6));
#1432 = VECTOR('',#1433,1.);
#1433 = DIRECTION('',(0.,-1.,0.));
#1434 = ORIENTED_EDGE('',*,*,#1435,.F.);
#1435 = EDGE_CURVE('',#1436,#1428,#1438,.T.);
#1436 = VERTEX_POINT('',#1437);
#1437 = CARTESIAN_POINT('',(-16.5,11.5,1.6));
#1438 = CIRCLE('',#1439,3.);
#1439 = AXIS2_PLACEMENT_3D('',#1440,#1441,#1442);
#1440 = CARTESIAN_POINT('',(-16.5,8.5,1.6));
#1441 = DIRECTION('',(0.,0.,1.));
#1442 = DIRECTION('',(-1.,0.,0.));
#1443 = ORIENTED_EDGE('',*,*,#1444,.T.);
#1444 = EDGE_CURVE('',#1436,#1445,#1447,.T.);
#1445 = VERTEX_POINT('',#1446);
#1446 = CARTESIAN_POINT('',(16.5,11.5,1.6));
#1447 = LINE('',#1448,#1449);
#1448 = CARTESIAN_POINT('',(-19.75,11.5,1.6));
#1449 = VECTOR('',#1450,1.);
#1450 = DIRECTION('',(1.,0.,0.));
#1451 = ORIENTED_EDGE('',*,*,#1452,.F.);
#1452 = EDGE_CURVE('',#1453,#1445,#1455,.T.);
#1453 = VERTEX_POINT('',#1454);
#1454 = CARTESIAN_POINT('',(19.5,8.5,1.6));
#1455 = CIRCLE('',#1456,3.);
#1456 = AXIS2_PLACEMENT_3D('',#1457,#1458,#1459);
#1457 = CARTESIAN_POINT('',(16.5,8.5,1.6));
#1458 = DIRECTION('',(0.,0.,1.));
#1459 = DIRECTION('',(1.,0.,0.));
#1460 = ORIENTED_EDGE('',*,*,#1461,.T.);
#1461 = EDGE_CURVE('',#1453,#1375,#1462,.T.);
#1462 = LINE('',#1463,#1464);
#1463 = CARTESIAN_POINT('',(19.5,-11.75,1.6));
#1464 = VECTOR('',#1465,1.);
#1465 = DIRECTION('',(0.,-1.,0.));
#1466 = ORIENTED_EDGE('',*,*,#1382,.F.);
#1467 = ORIENTED_EDGE('',*,*,#711,.F.);
#1468 = ORIENTED_EDGE('',*,*,#751,.T.);
#1469 = ORIENTED_EDGE('',*,*,#775,.F.);
#1470 = ORIENTED_EDGE('',*,*,#790,.T.);
#1471 = ORIENTED_EDGE('',*,*,#824,.T.);
#1472 = ORIENTED_EDGE('',*,*,#848,.F.);
#1473 = ORIENTED_EDGE('',*,*,#873,.F.);
#1474 = PLANE('',#1475);
#1475 = AXIS2_PLACEMENT_3D('',#1476,#1477,#1478);
#1476 = CARTESIAN_POINT('',(-20.,-12.,1.6));
#1477 = DIRECTION('',(0.,0.,1.));
#1478 = DIRECTION('',(1.,0.,0.));
#1479 = ADVANCED_FACE('',(#1480),#1493,.T.);
#1480 = FACE_BOUND('',#1481,.T.);
#1481 = EDGE_LOOP('',(#1482,#1483,#1489,#1490,#1491,#1492));
#1482 = ORIENTED_EDGE('',*,*,#1410,.F.);
#1483 = ORIENTED_EDGE('',*,*,#1484,.T.);
#1484 = EDGE_CURVE('',#1411,#1278,#1485,.T.);
#1485 = LINE('',#1486,#1487);
#1486 = CARTESIAN_POINT('',(-16.5,-11.5,1.));
#1487 = VECTOR('',#1488,1.);
#1488 = DIRECTION('',(0.,0.,1.));
#1489 = ORIENTED_EDGE('',*,*,#1286,.T.);
#1490 = ORIENTED_EDGE('',*,*,#1391,.F.);
#1491 = ORIENTED_EDGE('',*,*,#1356,.F.);
#1492 = ORIENTED_EDGE('',*,*,#979,.T.);
#1493 = PLANE('',#1494);
#1494 = AXIS2_PLACEMENT_3D('',#1495,#1496,#1497);
#1495 = CARTESIAN_POINT('',(-19.5,-11.5,1.));
#1496 = DIRECTION('',(0.,1.,0.));
#1497 = DIRECTION('',(0.,0.,1.));
#1498 = ADVANCED_FACE('',(#1499),#1528,.F.);
#1499 = FACE_BOUND('',#1500,.F.);
#1500 = EDGE_LOOP('',(#1501,#1507,#1508,#1514,#1515,#1516,#1517,#1518,
    #1519,#1520,#1521,#1527));
#1501 = ORIENTED_EDGE('',*,*,#1502,.F.);
#1502 = EDGE_CURVE('',#1453,#1304,#1503,.T.);
#1503 = LINE('',#1504,#1505);
#1504 = CARTESIAN_POINT('',(19.5,8.5,1.));
#1505 = VECTOR('',#1506,1.);
#1506 = DIRECTION('',(0.,0.,1.));
#1507 = ORIENTED_EDGE('',*,*,#1452,.T.);
#1508 = ORIENTED_EDGE('',*,*,#1509,.T.);
#1509 = EDGE_CURVE('',#1445,#1154,#1510,.T.);
#1510 = LINE('',#1511,#1512);
#1511 = CARTESIAN_POINT('',(16.5,11.5,1.));
#1512 = VECTOR('',#1513,1.);
#1513 = DIRECTION('',(0.,0.,1.));
#1514 = ORIENTED_EDGE('',*,*,#1162,.T.);
#1515 = ORIENTED_EDGE('',*,*,#1120,.F.);
#1516 = ORIENTED_EDGE('',*,*,#1086,.F.);
#1517 = ORIENTED_EDGE('',*,*,#1070,.T.);
#1518 = ORIENTED_EDGE('',*,*,#1027,.T.);
#1519 = ORIENTED_EDGE('',*,*,#1249,.T.);
#1520 = ORIENTED_EDGE('',*,*,#1219,.F.);
#1521 = ORIENTED_EDGE('',*,*,#1522,.T.);
#1522 = EDGE_CURVE('',#1211,#1312,#1523,.T.);
#1523 = LINE('',#1524,#1525);
#1524 = CARTESIAN_POINT('',(16.5,11.5,1.));
#1525 = VECTOR('',#1526,1.);
#1526 = DIRECTION('',(0.,0.,1.));
#1527 = ORIENTED_EDGE('',*,*,#1311,.F.);
#1528 = CYLINDRICAL_SURFACE('',#1529,3.);
#1529 = AXIS2_PLACEMENT_3D('',#1530,#1531,#1532);
#1530 = CARTESIAN_POINT('',(16.5,8.5,1.));
#1531 = DIRECTION('',(0.,0.,1.));
#1532 = DIRECTION('',(1.,0.,0.));
#1533 = ADVANCED_FACE('',(#1534),#1549,.F.);
#1534 = FACE_BOUND('',#1535,.F.);
#1535 = EDGE_LOOP('',(#1536,#1537,#1543,#1544,#1545,#1546,#1547,#1548));
#1536 = ORIENTED_EDGE('',*,*,#1444,.F.);
#1537 = ORIENTED_EDGE('',*,*,#1538,.T.);
#1538 = EDGE_CURVE('',#1436,#1321,#1539,.T.);
#1539 = LINE('',#1540,#1541);
#1540 = CARTESIAN_POINT('',(-16.5,11.5,1.));
#1541 = VECTOR('',#1542,1.);
#1542 = DIRECTION('',(0.,0.,1.));
#1543 = ORIENTED_EDGE('',*,*,#1320,.T.);
#1544 = ORIENTED_EDGE('',*,*,#1522,.F.);
#1545 = ORIENTED_EDGE('',*,*,#1210,.F.);
#1546 = ORIENTED_EDGE('',*,*,#1187,.F.);
#1547 = ORIENTED_EDGE('',*,*,#1153,.F.);
#1548 = ORIENTED_EDGE('',*,*,#1509,.F.);
#1549 = PLANE('',#1550);
#1550 = AXIS2_PLACEMENT_3D('',#1551,#1552,#1553);
#1551 = CARTESIAN_POINT('',(-19.5,11.5,1.));
#1552 = DIRECTION('',(0.,1.,0.));
#1553 = DIRECTION('',(0.,0.,1.));
#1554 = ADVANCED_FACE('',(#1555),#1571,.T.);
#1555 = FACE_BOUND('',#1556,.T.);
#1556 = EDGE_LOOP('',(#1557,#1558,#1564,#1565));
#1557 = ORIENTED_EDGE('',*,*,#1267,.F.);
#1558 = ORIENTED_EDGE('',*,*,#1559,.F.);
#1559 = EDGE_CURVE('',#1419,#1268,#1560,.T.);
#1560 = LINE('',#1561,#1562);
#1561 = CARTESIAN_POINT('',(-19.5,-8.5,1.));
#1562 = VECTOR('',#1563,1.);
#1563 = DIRECTION('',(0.,0.,1.));
#1564 = ORIENTED_EDGE('',*,*,#1427,.F.);
#1565 = ORIENTED_EDGE('',*,*,#1566,.T.);
#1566 = EDGE_CURVE('',#1428,#1270,#1567,.T.);
#1567 = LINE('',#1568,#1569);
#1568 = CARTESIAN_POINT('',(-19.5,8.5,1.));
#1569 = VECTOR('',#1570,1.);
#1570 = DIRECTION('',(0.,0.,1.));
#1571 = PLANE('',#1572);
#1572 = AXIS2_PLACEMENT_3D('',#1573,#1574,#1575);
#1573 = CARTESIAN_POINT('',(-19.5,-11.5,1.));
#1574 = DIRECTION('',(1.,0.,0.));
#1575 = DIRECTION('',(0.,0.,1.));
#1576 = ADVANCED_FACE('',(#1577),#1583,.F.);
#1577 = FACE_BOUND('',#1578,.F.);
#1578 = EDGE_LOOP('',(#1579,#1580,#1581,#1582));
#1579 = ORIENTED_EDGE('',*,*,#1559,.F.);
#1580 = ORIENTED_EDGE('',*,*,#1418,.T.);
#1581 = ORIENTED_EDGE('',*,*,#1484,.T.);
#1582 = ORIENTED_EDGE('',*,*,#1277,.F.);
#1583 = CYLINDRICAL_SURFACE('',#1584,3.);
#1584 = AXIS2_PLACEMENT_3D('',#1585,#1586,#1587);
#1585 = CARTESIAN_POINT('',(-16.5,-8.5,1.));
#1586 = DIRECTION('',(0.,0.,1.));
#1587 = DIRECTION('',(-1.,0.,0.));
#1588 = ADVANCED_FACE('',(#1589),#1595,.F.);
#1589 = FACE_BOUND('',#1590,.T.);
#1590 = EDGE_LOOP('',(#1591,#1592,#1593,#1594));
#1591 = ORIENTED_EDGE('',*,*,#1566,.F.);
#1592 = ORIENTED_EDGE('',*,*,#1435,.F.);
#1593 = ORIENTED_EDGE('',*,*,#1538,.T.);
#1594 = ORIENTED_EDGE('',*,*,#1328,.F.);
#1595 = CYLINDRICAL_SURFACE('',#1596,3.);
#1596 = AXIS2_PLACEMENT_3D('',#1597,#1598,#1599);
#1597 = CARTESIAN_POINT('',(-16.5,8.5,1.));
#1598 = DIRECTION('',(0.,0.,1.));
#1599 = DIRECTION('',(-1.,0.,0.));
#1600 = ADVANCED_FACE('',(#1601),#1607,.F.);
#1601 = FACE_BOUND('',#1602,.F.);
#1602 = EDGE_LOOP('',(#1603,#1604,#1605,#1606));
#1603 = ORIENTED_EDGE('',*,*,#1303,.F.);
#1604 = ORIENTED_EDGE('',*,*,#1374,.F.);
#1605 = ORIENTED_EDGE('',*,*,#1461,.F.);
#1606 = ORIENTED_EDGE('',*,*,#1502,.T.);
#1607 = PLANE('',#1608);
#1608 = AXIS2_PLACEMENT_3D('',#1609,#1610,#1611);
#1609 = CARTESIAN_POINT('',(19.5,-11.5,1.));
#1610 = DIRECTION('',(1.,0.,0.));
#1611 = DIRECTION('',(0.,0.,1.));
#1612 = ( GEOMETRIC_REPRESENTATION_CONTEXT(3) 
GLOBAL_UNCERTAINTY_ASSIGNED_CONTEXT((#1616)) 
GLOBAL_UNIT_ASSIGNED_CONTEXT((#1613,#1614,#1615)) REPRESENTATION_CONTEXT
('Context #1','3D Context with UNIT and UNCERTAINTY') );
#1613 = ( LENGTH_UNIT() NAMED_UNIT(*) SI_UNIT(.MILLI.,.METRE.) );
#1614 = ( NAMED_UNIT(*) PLANE_ANGLE_UNIT() SI_UNIT($,.RADIAN.) );
#1615 = ( NAMED_UNIT(*) SI_UNIT($,.STERADIAN.) SOLID_ANGLE_UNIT() );
#1616 = UNCERTAINTY_MEASURE_WITH_UNIT(LENGTH_MEASURE(1.E-05),#1613,
  'distance_accuracy_value','confusion accuracy');
#1617 = PRODUCT_RELATED_PRODUCT_CATEGORY('part',$,(#7));
#1618 = MECHANICAL_DESIGN_GEOMETRIC_PRESENTATION_REPRESENTATION('',(
    #1619),#1612);
#1619 = STYLED_ITEM('color',(#1620),#15);
#1620 = PRESENTATION_STYLE_ASSIGNMENT((#1621,#1629));
#1621 = SURFACE_STYLE_USAGE(.BOTH.,#1622);
#1622 = SURFACE_SIDE_STYLE('',(#1623,#1627));
#1623 = SURFACE_STYLE_FILL_AREA(#1624);
#1624 = FILL_AREA_STYLE('',(#1625));
#1625 = FILL_AREA_STYLE_COLOUR('',#1626);
#1626 = COLOUR_RGB('',0.447058818107,0.474509808674,0.501960817233);
#1627 = SURFACE_STYLE_RENDERING_WITH_PROPERTIES(.NORMAL_SHADING.,#1626,(
    #1628));
#1628 = SURFACE_STYLE_TRANSPARENT(0.399999976158);
#1629 = CURVE_STYLE('',#1630,POSITIVE_LENGTH_MEASURE(0.1),#1631);
#1630 = DRAUGHTING_PRE_DEFINED_CURVE_FONT('continuous');
#1631 = COLOUR_RGB('',9.803921802644E-02,9.803921802644E-02,
  9.803921802644E-02);
ENDSEC;
END-ISO-10303-21;
