ISO-10303-21;
HEADER;
FILE_DESCRIPTION(('FreeCAD Model'),'2;1');
FILE_NAME('Open CASCADE Shape Model','2026-10-07T02:53:01',(''),(''),
  'Open CASCADE STEP processor 7.8','FreeCAD','Unknown');
FILE_SCHEMA((
'AP242_MANAGED_MODEL_BASED_3D_ENGINEERING_MIM_LF. {1 0 10303 442 1 1 4 
}'));
ENDSEC;
DATA;
#1 = APPLICATION_PROTOCOL_DEFINITION('international standard',
  'ap242_managed_model_based_3d_engineering',2013,#2);
#2 = APPLICATION_CONTEXT('Managed model based 3d engineering');
#3 = SHAPE_DEFINITION_REPRESENTATION(#4,#10);
#4 = PRODUCT_DEFINITION_SHAPE('','',#5);
#5 = PRODUCT_DEFINITION('design','',#6,#9);
#6 = PRODUCT_DEFINITION_FORMATION('','',#7);
#7 = PRODUCT('Case Top Cut (male A to male C)',
  'Case Top Cut (male A to male C)','',(#8));
#8 = PRODUCT_CONTEXT('',#2,'mechanical');
#9 = PRODUCT_DEFINITION_CONTEXT('part definition',#2,'design');
#10 = ADVANCED_BREP_SHAPE_REPRESENTATION('',(#11,#15),#2208);
#11 = AXIS2_PLACEMENT_3D('',#12,#13,#14);
#12 = CARTESIAN_POINT('',(0.,0.,0.));
#13 = DIRECTION('',(0.,0.,1.));
#14 = DIRECTION('',(1.,0.,-0.));
#15 = MANIFOLD_SOLID_BREP('',#16);
#16 = CLOSED_SHELL('',(#17,#89,#167,#192,#326,#366,#390,#430,#505,#522,
    #548,#565,#603,#741,#821,#847,#884,#908,#948,#972,#997,#1029,#1053,
    #1078,#1095,#1164,#1206,#1230,#1281,#1298,#1315,#1348,#1365,#1407,
    #1431,#1466,#1491,#1531,#1555,#1595,#1613,#1671,#1695,#1719,#1743,
    #1794,#1818,#1842,#1859,#1929,#1957,#1989,#2023,#2045,#2075,#2105,
    #2126,#2138,#2155,#2169,#2186));
#17 = ADVANCED_FACE('',(#18),#84,.F.);
#18 = FACE_BOUND('',#19,.F.);
#19 = EDGE_LOOP('',(#20,#30,#38,#46,#54,#62,#70,#78));
#20 = ORIENTED_EDGE('',*,*,#21,.F.);
#21 = EDGE_CURVE('',#22,#24,#26,.T.);
#22 = VERTEX_POINT('',#23);
#23 = CARTESIAN_POINT('',(-21.,-9.5,6.));
#24 = VERTEX_POINT('',#25);
#25 = CARTESIAN_POINT('',(-21.,9.5,6.));
#26 = LINE('',#27,#28);
#27 = CARTESIAN_POINT('',(-21.,-13.,6.));
#28 = VECTOR('',#29,1.);
#29 = DIRECTION('',(0.,1.,0.));
#30 = ORIENTED_EDGE('',*,*,#31,.F.);
#31 = EDGE_CURVE('',#32,#22,#34,.T.);
#32 = VERTEX_POINT('',#33);
#33 = CARTESIAN_POINT('',(-21.,-9.5,1.));
#34 = LINE('',#35,#36);
#35 = CARTESIAN_POINT('',(-21.,-9.5,1.));
#36 = VECTOR('',#37,1.);
#37 = DIRECTION('',(0.,0.,1.));
#38 = ORIENTED_EDGE('',*,*,#39,.T.);
#39 = EDGE_CURVE('',#32,#40,#42,.T.);
#40 = VERTEX_POINT('',#41);
#41 = CARTESIAN_POINT('',(-21.,-6.,1.));
#42 = LINE('',#43,#44);
#43 = CARTESIAN_POINT('',(-21.,-13.,1.));
#44 = VECTOR('',#45,1.);
#45 = DIRECTION('',(0.,1.,0.));
#46 = ORIENTED_EDGE('',*,*,#47,.T.);
#47 = EDGE_CURVE('',#40,#48,#50,.T.);
#48 = VERTEX_POINT('',#49);
#49 = CARTESIAN_POINT('',(-21.,-6.,4.9));
#50 = LINE('',#51,#52);
#51 = CARTESIAN_POINT('',(-21.,-6.,0.65));
#52 = VECTOR('',#53,1.);
#53 = DIRECTION('',(0.,0.,1.));
#54 = ORIENTED_EDGE('',*,*,#55,.F.);
#55 = EDGE_CURVE('',#56,#48,#58,.T.);
#56 = VERTEX_POINT('',#57);
#57 = CARTESIAN_POINT('',(-21.,6.,4.9));
#58 = LINE('',#59,#60);
#59 = CARTESIAN_POINT('',(-21.,-9.5,4.9));
#60 = VECTOR('',#61,1.);
#61 = DIRECTION('',(0.,-1.,0.));
#62 = ORIENTED_EDGE('',*,*,#63,.F.);
#63 = EDGE_CURVE('',#64,#56,#66,.T.);
#64 = VERTEX_POINT('',#65);
#65 = CARTESIAN_POINT('',(-21.,6.,1.));
#66 = LINE('',#67,#68);
#67 = CARTESIAN_POINT('',(-21.,6.,0.65));
#68 = VECTOR('',#69,1.);
#69 = DIRECTION('',(0.,0.,1.));
#70 = ORIENTED_EDGE('',*,*,#71,.T.);
#71 = EDGE_CURVE('',#64,#72,#74,.T.);
#72 = VERTEX_POINT('',#73);
#73 = CARTESIAN_POINT('',(-21.,9.5,1.));
#74 = LINE('',#75,#76);
#75 = CARTESIAN_POINT('',(-21.,-13.,1.));
#76 = VECTOR('',#77,1.);
#77 = DIRECTION('',(0.,1.,0.));
#78 = ORIENTED_EDGE('',*,*,#79,.T.);
#79 = EDGE_CURVE('',#72,#24,#80,.T.);
#80 = LINE('',#81,#82);
#81 = CARTESIAN_POINT('',(-21.,9.5,1.));
#82 = VECTOR('',#83,1.);
#83 = DIRECTION('',(0.,0.,1.));
#84 = PLANE('',#85);
#85 = AXIS2_PLACEMENT_3D('',#86,#87,#88);
#86 = CARTESIAN_POINT('',(-21.,-13.,1.));
#87 = DIRECTION('',(1.,0.,0.));
#88 = DIRECTION('',(0.,0.,1.));
#89 = ADVANCED_FACE('',(#90,#151),#162,.T.);
#90 = FACE_BOUND('',#91,.T.);
#91 = EDGE_LOOP('',(#92,#93,#102,#110,#119,#127,#136,#144));
#92 = ORIENTED_EDGE('',*,*,#21,.F.);
#93 = ORIENTED_EDGE('',*,*,#94,.T.);
#94 = EDGE_CURVE('',#22,#95,#97,.T.);
#95 = VERTEX_POINT('',#96);
#96 = CARTESIAN_POINT('',(-17.5,-13.,6.));
#97 = CIRCLE('',#98,3.5);
#98 = AXIS2_PLACEMENT_3D('',#99,#100,#101);
#99 = CARTESIAN_POINT('',(-17.5,-9.5,6.));
#100 = DIRECTION('',(-0.,0.,1.));
#101 = DIRECTION('',(0.,-1.,0.));
#102 = ORIENTED_EDGE('',*,*,#103,.T.);
#103 = EDGE_CURVE('',#95,#104,#106,.T.);
#104 = VERTEX_POINT('',#105);
#105 = CARTESIAN_POINT('',(17.5,-13.,6.));
#106 = LINE('',#107,#108);
#107 = CARTESIAN_POINT('',(-21.,-13.,6.));
#108 = VECTOR('',#109,1.);
#109 = DIRECTION('',(1.,0.,0.));
#110 = ORIENTED_EDGE('',*,*,#111,.F.);
#111 = EDGE_CURVE('',#112,#104,#114,.T.);
#112 = VERTEX_POINT('',#113);
#113 = CARTESIAN_POINT('',(21.,-9.5,6.));
#114 = CIRCLE('',#115,3.5);
#115 = AXIS2_PLACEMENT_3D('',#116,#117,#118);
#116 = CARTESIAN_POINT('',(17.5,-9.5,6.));
#117 = DIRECTION('',(-0.,-0.,-1.));
#118 = DIRECTION('',(0.,-1.,0.));
#119 = ORIENTED_EDGE('',*,*,#120,.T.);
#120 = EDGE_CURVE('',#112,#121,#123,.T.);
#121 = VERTEX_POINT('',#122);
#122 = CARTESIAN_POINT('',(21.,9.5,6.));
#123 = LINE('',#124,#125);
#124 = CARTESIAN_POINT('',(21.,-13.,6.));
#125 = VECTOR('',#126,1.);
#126 = DIRECTION('',(0.,1.,0.));
#127 = ORIENTED_EDGE('',*,*,#128,.T.);
#128 = EDGE_CURVE('',#121,#129,#131,.T.);
#129 = VERTEX_POINT('',#130);
#130 = CARTESIAN_POINT('',(17.5,13.,6.));
#131 = CIRCLE('',#132,3.5);
#132 = AXIS2_PLACEMENT_3D('',#133,#134,#135);
#133 = CARTESIAN_POINT('',(17.5,9.5,6.));
#134 = DIRECTION('',(-0.,0.,1.));
#135 = DIRECTION('',(0.,-1.,0.));
#136 = ORIENTED_EDGE('',*,*,#137,.F.);
#137 = EDGE_CURVE('',#138,#129,#140,.T.);
#138 = VERTEX_POINT('',#139);
#139 = CARTESIAN_POINT('',(-17.5,13.,6.));
#140 = LINE('',#141,#142);
#141 = CARTESIAN_POINT('',(-21.,13.,6.));
#142 = VECTOR('',#143,1.);
#143 = DIRECTION('',(1.,0.,0.));
#144 = ORIENTED_EDGE('',*,*,#145,.F.);
#145 = EDGE_CURVE('',#24,#138,#146,.T.);
#146 = CIRCLE('',#147,3.5);
#147 = AXIS2_PLACEMENT_3D('',#148,#149,#150);
#148 = CARTESIAN_POINT('',(-17.5,9.5,6.));
#149 = DIRECTION('',(-0.,-0.,-1.));
#150 = DIRECTION('',(0.,-1.,0.));
#151 = FACE_BOUND('',#152,.T.);
#152 = EDGE_LOOP('',(#153));
#153 = ORIENTED_EDGE('',*,*,#154,.F.);
#154 = EDGE_CURVE('',#155,#155,#157,.T.);
#155 = VERTEX_POINT('',#156);
#156 = CARTESIAN_POINT('',(17.4,9.,6.));
#157 = CIRCLE('',#158,1.2);
#158 = AXIS2_PLACEMENT_3D('',#159,#160,#161);
#159 = CARTESIAN_POINT('',(16.2,9.,6.));
#160 = DIRECTION('',(0.,0.,1.));
#161 = DIRECTION('',(1.,0.,0.));
#162 = PLANE('',#163);
#163 = AXIS2_PLACEMENT_3D('',#164,#165,#166);
#164 = CARTESIAN_POINT('',(-21.,-13.,6.));
#165 = DIRECTION('',(0.,0.,1.));
#166 = DIRECTION('',(1.,0.,0.));
#167 = ADVANCED_FACE('',(#168),#187,.T.);
#168 = FACE_BOUND('',#169,.F.);
#169 = EDGE_LOOP('',(#170,#179,#185,#186));
#170 = ORIENTED_EDGE('',*,*,#171,.T.);
#171 = EDGE_CURVE('',#72,#172,#174,.T.);
#172 = VERTEX_POINT('',#173);
#173 = CARTESIAN_POINT('',(-17.5,13.,1.));
#174 = CIRCLE('',#175,3.5);
#175 = AXIS2_PLACEMENT_3D('',#176,#177,#178);
#176 = CARTESIAN_POINT('',(-17.5,9.5,1.));
#177 = DIRECTION('',(-0.,-0.,-1.));
#178 = DIRECTION('',(0.,-1.,0.));
#179 = ORIENTED_EDGE('',*,*,#180,.T.);
#180 = EDGE_CURVE('',#172,#138,#181,.T.);
#181 = LINE('',#182,#183);
#182 = CARTESIAN_POINT('',(-17.5,13.,1.));
#183 = VECTOR('',#184,1.);
#184 = DIRECTION('',(0.,0.,1.));
#185 = ORIENTED_EDGE('',*,*,#145,.F.);
#186 = ORIENTED_EDGE('',*,*,#79,.F.);
#187 = CYLINDRICAL_SURFACE('',#188,3.5);
#188 = AXIS2_PLACEMENT_3D('',#189,#190,#191);
#189 = CARTESIAN_POINT('',(-17.5,9.5,1.));
#190 = DIRECTION('',(0.,0.,1.));
#191 = DIRECTION('',(-1.,0.,0.));
#192 = ADVANCED_FACE('',(#193),#321,.F.);
#193 = FACE_BOUND('',#194,.F.);
#194 = EDGE_LOOP('',(#195,#196,#204,#212,#221,#229,#238,#246,#255,#263,
    #271,#279,#288,#297,#305,#314,#320));
#195 = ORIENTED_EDGE('',*,*,#71,.F.);
#196 = ORIENTED_EDGE('',*,*,#197,.F.);
#197 = EDGE_CURVE('',#198,#64,#200,.T.);
#198 = VERTEX_POINT('',#199);
#199 = CARTESIAN_POINT('',(-20.,6.,1.));
#200 = LINE('',#201,#202);
#201 = CARTESIAN_POINT('',(-18.5,6.,1.));
#202 = VECTOR('',#203,1.);
#203 = DIRECTION('',(-1.,2.22044604925E-16,0.));
#204 = ORIENTED_EDGE('',*,*,#205,.T.);
#205 = EDGE_CURVE('',#198,#206,#208,.T.);
#206 = VERTEX_POINT('',#207);
#207 = CARTESIAN_POINT('',(-20.,9.,1.));
#208 = LINE('',#209,#210);
#209 = CARTESIAN_POINT('',(-20.,-12.5,1.));
#210 = VECTOR('',#211,1.);
#211 = DIRECTION('',(0.,1.,0.));
#212 = ORIENTED_EDGE('',*,*,#213,.F.);
#213 = EDGE_CURVE('',#214,#206,#216,.T.);
#214 = VERTEX_POINT('',#215);
#215 = CARTESIAN_POINT('',(-17.,12.,1.));
#216 = CIRCLE('',#217,3.);
#217 = AXIS2_PLACEMENT_3D('',#218,#219,#220);
#218 = CARTESIAN_POINT('',(-17.,9.,1.));
#219 = DIRECTION('',(0.,0.,1.));
#220 = DIRECTION('',(-1.,0.,0.));
#221 = ORIENTED_EDGE('',*,*,#222,.F.);
#222 = EDGE_CURVE('',#223,#214,#225,.T.);
#223 = VERTEX_POINT('',#224);
#224 = CARTESIAN_POINT('',(17.,12.,1.));
#225 = LINE('',#226,#227);
#226 = CARTESIAN_POINT('',(-20.5,12.,1.));
#227 = VECTOR('',#228,1.);
#228 = DIRECTION('',(-1.,0.,0.));
#229 = ORIENTED_EDGE('',*,*,#230,.F.);
#230 = EDGE_CURVE('',#231,#223,#233,.T.);
#231 = VERTEX_POINT('',#232);
#232 = CARTESIAN_POINT('',(20.,9.,1.));
#233 = CIRCLE('',#234,3.);
#234 = AXIS2_PLACEMENT_3D('',#235,#236,#237);
#235 = CARTESIAN_POINT('',(17.,9.,1.));
#236 = DIRECTION('',(0.,0.,1.));
#237 = DIRECTION('',(1.,0.,0.));
#238 = ORIENTED_EDGE('',*,*,#239,.F.);
#239 = EDGE_CURVE('',#240,#231,#242,.T.);
#240 = VERTEX_POINT('',#241);
#241 = CARTESIAN_POINT('',(20.,-9.,1.));
#242 = LINE('',#243,#244);
#243 = CARTESIAN_POINT('',(20.,-12.5,1.));
#244 = VECTOR('',#245,1.);
#245 = DIRECTION('',(0.,1.,0.));
#246 = ORIENTED_EDGE('',*,*,#247,.F.);
#247 = EDGE_CURVE('',#248,#240,#250,.T.);
#248 = VERTEX_POINT('',#249);
#249 = CARTESIAN_POINT('',(17.,-12.,1.));
#250 = CIRCLE('',#251,3.);
#251 = AXIS2_PLACEMENT_3D('',#252,#253,#254);
#252 = CARTESIAN_POINT('',(17.,-9.,1.));
#253 = DIRECTION('',(0.,0.,1.));
#254 = DIRECTION('',(1.,0.,0.));
#255 = ORIENTED_EDGE('',*,*,#256,.T.);
#256 = EDGE_CURVE('',#248,#257,#259,.T.);
#257 = VERTEX_POINT('',#258);
#258 = CARTESIAN_POINT('',(16.78,-12.,1.));
#259 = LINE('',#260,#261);
#260 = CARTESIAN_POINT('',(-20.5,-12.,1.));
#261 = VECTOR('',#262,1.);
#262 = DIRECTION('',(-1.,0.,0.));
#263 = ORIENTED_EDGE('',*,*,#264,.F.);
#264 = EDGE_CURVE('',#265,#257,#267,.T.);
#265 = VERTEX_POINT('',#266);
#266 = CARTESIAN_POINT('',(16.78,-12.1,1.));
#267 = LINE('',#268,#269);
#268 = CARTESIAN_POINT('',(16.78,-12.1,1.));
#269 = VECTOR('',#270,1.);
#270 = DIRECTION('',(0.,1.,0.));
#271 = ORIENTED_EDGE('',*,*,#272,.F.);
#272 = EDGE_CURVE('',#273,#265,#275,.T.);
#273 = VERTEX_POINT('',#274);
#274 = CARTESIAN_POINT('',(16.005872210923,-12.1,1.));
#275 = LINE('',#276,#277);
#276 = CARTESIAN_POINT('',(-2.493588458689,-12.1,1.));
#277 = VECTOR('',#278,1.);
#278 = DIRECTION('',(1.,0.,0.));
#279 = ORIENTED_EDGE('',*,*,#280,.F.);
#280 = EDGE_CURVE('',#281,#273,#283,.T.);
#281 = VERTEX_POINT('',#282);
#282 = CARTESIAN_POINT('',(17.549210747034,-12.99965402609,1.));
#283 = CIRCLE('',#284,5.);
#284 = AXIS2_PLACEMENT_3D('',#285,#286,#287);
#285 = CARTESIAN_POINT('',(14.3,-16.8,1.));
#286 = DIRECTION('',(0.,0.,1.));
#287 = DIRECTION('',(1.,0.,-0.));
#288 = ORIENTED_EDGE('',*,*,#289,.F.);
#289 = EDGE_CURVE('',#290,#281,#292,.T.);
#290 = VERTEX_POINT('',#291);
#291 = CARTESIAN_POINT('',(21.,-9.5,1.));
#292 = CIRCLE('',#293,3.5);
#293 = AXIS2_PLACEMENT_3D('',#294,#295,#296);
#294 = CARTESIAN_POINT('',(17.5,-9.5,1.));
#295 = DIRECTION('',(-0.,-0.,-1.));
#296 = DIRECTION('',(0.,-1.,0.));
#297 = ORIENTED_EDGE('',*,*,#298,.T.);
#298 = EDGE_CURVE('',#290,#299,#301,.T.);
#299 = VERTEX_POINT('',#300);
#300 = CARTESIAN_POINT('',(21.,9.5,1.));
#301 = LINE('',#302,#303);
#302 = CARTESIAN_POINT('',(21.,-13.,1.));
#303 = VECTOR('',#304,1.);
#304 = DIRECTION('',(0.,1.,0.));
#305 = ORIENTED_EDGE('',*,*,#306,.T.);
#306 = EDGE_CURVE('',#299,#307,#309,.T.);
#307 = VERTEX_POINT('',#308);
#308 = CARTESIAN_POINT('',(17.5,13.,1.));
#309 = CIRCLE('',#310,3.5);
#310 = AXIS2_PLACEMENT_3D('',#311,#312,#313);
#311 = CARTESIAN_POINT('',(17.5,9.5,1.));
#312 = DIRECTION('',(-0.,0.,1.));
#313 = DIRECTION('',(0.,-1.,0.));
#314 = ORIENTED_EDGE('',*,*,#315,.F.);
#315 = EDGE_CURVE('',#172,#307,#316,.T.);
#316 = LINE('',#317,#318);
#317 = CARTESIAN_POINT('',(-21.,13.,1.));
#318 = VECTOR('',#319,1.);
#319 = DIRECTION('',(1.,0.,0.));
#320 = ORIENTED_EDGE('',*,*,#171,.F.);
#321 = PLANE('',#322);
#322 = AXIS2_PLACEMENT_3D('',#323,#324,#325);
#323 = CARTESIAN_POINT('',(-21.,-13.,1.));
#324 = DIRECTION('',(0.,0.,1.));
#325 = DIRECTION('',(1.,0.,0.));
#326 = ADVANCED_FACE('',(#327),#361,.F.);
#327 = FACE_BOUND('',#328,.F.);
#328 = EDGE_LOOP('',(#329,#337,#345,#353,#359,#360));
#329 = ORIENTED_EDGE('',*,*,#330,.F.);
#330 = EDGE_CURVE('',#331,#56,#333,.T.);
#331 = VERTEX_POINT('',#332);
#332 = CARTESIAN_POINT('',(-19.5,6.,4.9));
#333 = LINE('',#334,#335);
#334 = CARTESIAN_POINT('',(-16.,6.,4.9));
#335 = VECTOR('',#336,1.);
#336 = DIRECTION('',(-1.,2.22044604925E-16,0.));
#337 = ORIENTED_EDGE('',*,*,#338,.F.);
#338 = EDGE_CURVE('',#339,#331,#341,.T.);
#339 = VERTEX_POINT('',#340);
#340 = CARTESIAN_POINT('',(-19.5,6.,1.6));
#341 = LINE('',#342,#343);
#342 = CARTESIAN_POINT('',(-19.5,6.,0.65));
#343 = VECTOR('',#344,1.);
#344 = DIRECTION('',(0.,0.,1.));
#345 = ORIENTED_EDGE('',*,*,#346,.T.);
#346 = EDGE_CURVE('',#339,#347,#349,.T.);
#347 = VERTEX_POINT('',#348);
#348 = CARTESIAN_POINT('',(-20.,6.,1.6));
#349 = LINE('',#350,#351);
#350 = CARTESIAN_POINT('',(-18.,6.,1.6));
#351 = VECTOR('',#352,1.);
#352 = DIRECTION('',(-1.,2.22044604925E-16,0.));
#353 = ORIENTED_EDGE('',*,*,#354,.F.);
#354 = EDGE_CURVE('',#198,#347,#355,.T.);
#355 = LINE('',#356,#357);
#356 = CARTESIAN_POINT('',(-20.,6.,0.15));
#357 = VECTOR('',#358,1.);
#358 = DIRECTION('',(0.,0.,1.));
#359 = ORIENTED_EDGE('',*,*,#197,.T.);
#360 = ORIENTED_EDGE('',*,*,#63,.T.);
#361 = PLANE('',#362);
#362 = AXIS2_PLACEMENT_3D('',#363,#364,#365);
#363 = CARTESIAN_POINT('',(-16.,6.,0.3));
#364 = DIRECTION('',(2.22044604925E-16,1.,0.));
#365 = DIRECTION('',(0.,0.,1.));
#366 = ADVANCED_FACE('',(#367),#385,.F.);
#367 = FACE_BOUND('',#368,.F.);
#368 = EDGE_LOOP('',(#369,#377,#383,#384));
#369 = ORIENTED_EDGE('',*,*,#370,.F.);
#370 = EDGE_CURVE('',#371,#48,#373,.T.);
#371 = VERTEX_POINT('',#372);
#372 = CARTESIAN_POINT('',(-19.5,-6.,4.9));
#373 = LINE('',#374,#375);
#374 = CARTESIAN_POINT('',(-16.,-6.,4.9));
#375 = VECTOR('',#376,1.);
#376 = DIRECTION('',(-1.,2.22044604925E-16,0.));
#377 = ORIENTED_EDGE('',*,*,#378,.F.);
#378 = EDGE_CURVE('',#331,#371,#379,.T.);
#379 = LINE('',#380,#381);
#380 = CARTESIAN_POINT('',(-19.5,-8.75,4.9));
#381 = VECTOR('',#382,1.);
#382 = DIRECTION('',(0.,-1.,0.));
#383 = ORIENTED_EDGE('',*,*,#330,.T.);
#384 = ORIENTED_EDGE('',*,*,#55,.T.);
#385 = PLANE('',#386);
#386 = AXIS2_PLACEMENT_3D('',#387,#388,#389);
#387 = CARTESIAN_POINT('',(-16.,-6.,4.9));
#388 = DIRECTION('',(0.,0.,1.));
#389 = DIRECTION('',(2.22044604925E-16,1.,0.));
#390 = ADVANCED_FACE('',(#391),#425,.T.);
#391 = FACE_BOUND('',#392,.T.);
#392 = EDGE_LOOP('',(#393,#394,#402,#410,#418,#424));
#393 = ORIENTED_EDGE('',*,*,#370,.F.);
#394 = ORIENTED_EDGE('',*,*,#395,.F.);
#395 = EDGE_CURVE('',#396,#371,#398,.T.);
#396 = VERTEX_POINT('',#397);
#397 = CARTESIAN_POINT('',(-19.5,-6.,1.6));
#398 = LINE('',#399,#400);
#399 = CARTESIAN_POINT('',(-19.5,-6.,0.65));
#400 = VECTOR('',#401,1.);
#401 = DIRECTION('',(0.,0.,1.));
#402 = ORIENTED_EDGE('',*,*,#403,.T.);
#403 = EDGE_CURVE('',#396,#404,#406,.T.);
#404 = VERTEX_POINT('',#405);
#405 = CARTESIAN_POINT('',(-20.,-6.,1.6));
#406 = LINE('',#407,#408);
#407 = CARTESIAN_POINT('',(-18.,-6.,1.6));
#408 = VECTOR('',#409,1.);
#409 = DIRECTION('',(-1.,2.22044604925E-16,0.));
#410 = ORIENTED_EDGE('',*,*,#411,.F.);
#411 = EDGE_CURVE('',#412,#404,#414,.T.);
#412 = VERTEX_POINT('',#413);
#413 = CARTESIAN_POINT('',(-20.,-6.,1.));
#414 = LINE('',#415,#416);
#415 = CARTESIAN_POINT('',(-20.,-6.,0.15));
#416 = VECTOR('',#417,1.);
#417 = DIRECTION('',(0.,0.,1.));
#418 = ORIENTED_EDGE('',*,*,#419,.T.);
#419 = EDGE_CURVE('',#412,#40,#420,.T.);
#420 = LINE('',#421,#422);
#421 = CARTESIAN_POINT('',(-18.5,-6.,1.));
#422 = VECTOR('',#423,1.);
#423 = DIRECTION('',(-1.,2.22044604925E-16,0.));
#424 = ORIENTED_EDGE('',*,*,#47,.T.);
#425 = PLANE('',#426);
#426 = AXIS2_PLACEMENT_3D('',#427,#428,#429);
#427 = CARTESIAN_POINT('',(-16.,-6.,0.3));
#428 = DIRECTION('',(2.22044604925E-16,1.,0.));
#429 = DIRECTION('',(0.,0.,1.));
#430 = ADVANCED_FACE('',(#431),#500,.F.);
#431 = FACE_BOUND('',#432,.F.);
#432 = EDGE_LOOP('',(#433,#434,#443,#451,#460,#468,#476,#484,#493,#499)
  );
#433 = ORIENTED_EDGE('',*,*,#39,.F.);
#434 = ORIENTED_EDGE('',*,*,#435,.T.);
#435 = EDGE_CURVE('',#32,#436,#438,.T.);
#436 = VERTEX_POINT('',#437);
#437 = CARTESIAN_POINT('',(-17.5,-13.,1.));
#438 = CIRCLE('',#439,3.5);
#439 = AXIS2_PLACEMENT_3D('',#440,#441,#442);
#440 = CARTESIAN_POINT('',(-17.5,-9.5,1.));
#441 = DIRECTION('',(-0.,0.,1.));
#442 = DIRECTION('',(0.,-1.,0.));
#443 = ORIENTED_EDGE('',*,*,#444,.T.);
#444 = EDGE_CURVE('',#436,#445,#447,.T.);
#445 = VERTEX_POINT('',#446);
#446 = CARTESIAN_POINT('',(11.050384638146,-13.,1.));
#447 = LINE('',#448,#449);
#448 = CARTESIAN_POINT('',(-21.,-13.,1.));
#449 = VECTOR('',#450,1.);
#450 = DIRECTION('',(1.,0.,0.));
#451 = ORIENTED_EDGE('',*,*,#452,.F.);
#452 = EDGE_CURVE('',#453,#445,#455,.T.);
#453 = VERTEX_POINT('',#454);
#454 = CARTESIAN_POINT('',(12.594127789077,-12.1,1.));
#455 = CIRCLE('',#456,5.);
#456 = AXIS2_PLACEMENT_3D('',#457,#458,#459);
#457 = CARTESIAN_POINT('',(14.3,-16.8,1.));
#458 = DIRECTION('',(0.,0.,1.));
#459 = DIRECTION('',(1.,0.,-0.));
#460 = ORIENTED_EDGE('',*,*,#461,.F.);
#461 = EDGE_CURVE('',#462,#453,#464,.T.);
#462 = VERTEX_POINT('',#463);
#463 = CARTESIAN_POINT('',(11.78,-12.1,1.));
#464 = LINE('',#465,#466);
#465 = CARTESIAN_POINT('',(11.78,-12.1,1.));
#466 = VECTOR('',#467,1.);
#467 = DIRECTION('',(1.,0.,0.));
#468 = ORIENTED_EDGE('',*,*,#469,.T.);
#469 = EDGE_CURVE('',#462,#470,#472,.T.);
#470 = VERTEX_POINT('',#471);
#471 = CARTESIAN_POINT('',(11.78,-12.,1.));
#472 = LINE('',#473,#474);
#473 = CARTESIAN_POINT('',(11.78,-12.1,1.));
#474 = VECTOR('',#475,1.);
#475 = DIRECTION('',(0.,1.,0.));
#476 = ORIENTED_EDGE('',*,*,#477,.T.);
#477 = EDGE_CURVE('',#470,#478,#480,.T.);
#478 = VERTEX_POINT('',#479);
#479 = CARTESIAN_POINT('',(-17.,-12.,1.));
#480 = LINE('',#481,#482);
#481 = CARTESIAN_POINT('',(-20.5,-12.,1.));
#482 = VECTOR('',#483,1.);
#483 = DIRECTION('',(-1.,0.,0.));
#484 = ORIENTED_EDGE('',*,*,#485,.F.);
#485 = EDGE_CURVE('',#486,#478,#488,.T.);
#486 = VERTEX_POINT('',#487);
#487 = CARTESIAN_POINT('',(-20.,-9.,1.));
#488 = CIRCLE('',#489,3.);
#489 = AXIS2_PLACEMENT_3D('',#490,#491,#492);
#490 = CARTESIAN_POINT('',(-17.,-9.,1.));
#491 = DIRECTION('',(0.,0.,1.));
#492 = DIRECTION('',(-1.,0.,0.));
#493 = ORIENTED_EDGE('',*,*,#494,.T.);
#494 = EDGE_CURVE('',#486,#412,#495,.T.);
#495 = LINE('',#496,#497);
#496 = CARTESIAN_POINT('',(-20.,-12.5,1.));
#497 = VECTOR('',#498,1.);
#498 = DIRECTION('',(0.,1.,0.));
#499 = ORIENTED_EDGE('',*,*,#419,.T.);
#500 = PLANE('',#501);
#501 = AXIS2_PLACEMENT_3D('',#502,#503,#504);
#502 = CARTESIAN_POINT('',(-21.,-13.,1.));
#503 = DIRECTION('',(0.,0.,1.));
#504 = DIRECTION('',(1.,0.,0.));
#505 = ADVANCED_FACE('',(#506),#517,.T.);
#506 = FACE_BOUND('',#507,.T.);
#507 = EDGE_LOOP('',(#508,#509,#515,#516));
#508 = ORIENTED_EDGE('',*,*,#435,.T.);
#509 = ORIENTED_EDGE('',*,*,#510,.T.);
#510 = EDGE_CURVE('',#436,#95,#511,.T.);
#511 = LINE('',#512,#513);
#512 = CARTESIAN_POINT('',(-17.5,-13.,1.));
#513 = VECTOR('',#514,1.);
#514 = DIRECTION('',(0.,0.,1.));
#515 = ORIENTED_EDGE('',*,*,#94,.F.);
#516 = ORIENTED_EDGE('',*,*,#31,.F.);
#517 = CYLINDRICAL_SURFACE('',#518,3.5);
#518 = AXIS2_PLACEMENT_3D('',#519,#520,#521);
#519 = CARTESIAN_POINT('',(-17.5,-9.5,1.));
#520 = DIRECTION('',(0.,0.,1.));
#521 = DIRECTION('',(-1.,0.,0.));
#522 = ADVANCED_FACE('',(#523),#543,.F.);
#523 = FACE_BOUND('',#524,.F.);
#524 = EDGE_LOOP('',(#525,#526,#527,#528,#536));
#525 = ORIENTED_EDGE('',*,*,#444,.F.);
#526 = ORIENTED_EDGE('',*,*,#510,.T.);
#527 = ORIENTED_EDGE('',*,*,#103,.T.);
#528 = ORIENTED_EDGE('',*,*,#529,.F.);
#529 = EDGE_CURVE('',#530,#104,#532,.T.);
#530 = VERTEX_POINT('',#531);
#531 = CARTESIAN_POINT('',(17.5,-13.,1.565685424949));
#532 = LINE('',#533,#534);
#533 = CARTESIAN_POINT('',(17.5,-13.,1.));
#534 = VECTOR('',#535,1.);
#535 = DIRECTION('',(0.,0.,1.));
#536 = ORIENTED_EDGE('',*,*,#537,.F.);
#537 = EDGE_CURVE('',#445,#530,#538,.T.);
#538 = CIRCLE('',#539,3.249615361854);
#539 = AXIS2_PLACEMENT_3D('',#540,#541,#542);
#540 = CARTESIAN_POINT('',(14.3,-13.,1.));
#541 = DIRECTION('',(0.,1.,0.));
#542 = DIRECTION('',(0.,-0.,1.));
#543 = PLANE('',#544);
#544 = AXIS2_PLACEMENT_3D('',#545,#546,#547);
#545 = CARTESIAN_POINT('',(-21.,-13.,1.));
#546 = DIRECTION('',(0.,1.,0.));
#547 = DIRECTION('',(0.,0.,1.));
#548 = ADVANCED_FACE('',(#549),#560,.T.);
#549 = FACE_BOUND('',#550,.T.);
#550 = EDGE_LOOP('',(#551,#552,#553,#554));
#551 = ORIENTED_EDGE('',*,*,#315,.F.);
#552 = ORIENTED_EDGE('',*,*,#180,.T.);
#553 = ORIENTED_EDGE('',*,*,#137,.T.);
#554 = ORIENTED_EDGE('',*,*,#555,.F.);
#555 = EDGE_CURVE('',#307,#129,#556,.T.);
#556 = LINE('',#557,#558);
#557 = CARTESIAN_POINT('',(17.5,13.,1.));
#558 = VECTOR('',#559,1.);
#559 = DIRECTION('',(0.,0.,1.));
#560 = PLANE('',#561);
#561 = AXIS2_PLACEMENT_3D('',#562,#563,#564);
#562 = CARTESIAN_POINT('',(-21.,13.,1.));
#563 = DIRECTION('',(0.,1.,0.));
#564 = DIRECTION('',(0.,0.,1.));
#565 = ADVANCED_FACE('',(#566),#598,.T.);
#566 = FACE_BOUND('',#567,.F.);
#567 = EDGE_LOOP('',(#568,#574,#575,#596,#597));
#568 = ORIENTED_EDGE('',*,*,#569,.F.);
#569 = EDGE_CURVE('',#290,#112,#570,.T.);
#570 = LINE('',#571,#572);
#571 = CARTESIAN_POINT('',(21.,-9.5,1.));
#572 = VECTOR('',#573,1.);
#573 = DIRECTION('',(0.,0.,1.));
#574 = ORIENTED_EDGE('',*,*,#289,.T.);
#575 = ORIENTED_EDGE('',*,*,#576,.F.);
#576 = EDGE_CURVE('',#530,#281,#577,.T.);
#577 = B_SPLINE_CURVE_WITH_KNOTS('',5,(#578,#579,#580,#581,#582,#583,
    #584,#585,#586,#587,#588,#589,#590,#591,#592,#593,#594,#595),
  .UNSPECIFIED.,.F.,.F.,(6,4,4,4,6),(0.,0.8907336094,0.93630570205,
    0.958020770045,1.),.UNSPECIFIED.);
#578 = CARTESIAN_POINT('',(17.5,-13.,1.565685424949));
#579 = CARTESIAN_POINT('',(17.517338633054,-13.,1.467603304878));
#580 = CARTESIAN_POINT('',(17.530742021391,-12.99989272117,
    1.369140269784));
#581 = CARTESIAN_POINT('',(17.540350540994,-12.99977506882,
    1.270422513437));
#582 = CARTESIAN_POINT('',(17.546234514138,-12.9996952881,1.171560949066
    ));
#583 = CARTESIAN_POINT('',(17.548522803399,-12.99966363383,1.06759230491
    ));
#584 = CARTESIAN_POINT('',(17.548624475412,-12.99966222295,
    1.062531800991));
#585 = CARTESIAN_POINT('',(17.548716445495,-12.99966094339,
    1.057471193301));
#586 = CARTESIAN_POINT('',(17.548798715475,-12.99965979641,
    1.052410495501));
#587 = CARTESIAN_POINT('',(17.548905866975,-12.99965830008,
    1.044938266051));
#588 = CARTESIAN_POINT('',(17.548940503129,-12.99965781598,
    1.042361801155));
#589 = CARTESIAN_POINT('',(17.548975160883,-12.99965733114,1.03960955496
    ));
#590 = CARTESIAN_POINT('',(17.549009800864,-12.99965684612,
    1.036593625662));
#591 = CARTESIAN_POINT('',(17.549111224011,-12.99965542477,
    1.026489848432));
#592 = CARTESIAN_POINT('',(17.549161281495,-12.99965472166,
    1.019831450484));
#593 = CARTESIAN_POINT('',(17.549194553289,-12.9996542538,1.01317154525)
  );
#594 = CARTESIAN_POINT('',(17.549211040595,-12.99965402196,
    1.006510476454));
#595 = CARTESIAN_POINT('',(17.54921074368,-12.99965402614,0.999851173667
    ));
#596 = ORIENTED_EDGE('',*,*,#529,.T.);
#597 = ORIENTED_EDGE('',*,*,#111,.F.);
#598 = CYLINDRICAL_SURFACE('',#599,3.5);
#599 = AXIS2_PLACEMENT_3D('',#600,#601,#602);
#600 = CARTESIAN_POINT('',(17.5,-9.5,1.));
#601 = DIRECTION('',(0.,0.,1.));
#602 = DIRECTION('',(1.,0.,0.));
#603 = ADVANCED_FACE('',(#604,#615),#736,.T.);
#604 = FACE_BOUND('',#605,.T.);
#605 = EDGE_LOOP('',(#606,#607,#608,#609));
#606 = ORIENTED_EDGE('',*,*,#306,.T.);
#607 = ORIENTED_EDGE('',*,*,#555,.T.);
#608 = ORIENTED_EDGE('',*,*,#128,.F.);
#609 = ORIENTED_EDGE('',*,*,#610,.F.);
#610 = EDGE_CURVE('',#299,#121,#611,.T.);
#611 = LINE('',#612,#613);
#612 = CARTESIAN_POINT('',(21.,9.5,1.));
#613 = VECTOR('',#614,1.);
#614 = DIRECTION('',(0.,0.,1.));
#615 = FACE_BOUND('',#616,.T.);
#616 = EDGE_LOOP('',(#617,#641,#650,#672,#680,#702,#711,#730));
#617 = ORIENTED_EDGE('',*,*,#618,.T.);
#618 = EDGE_CURVE('',#619,#621,#623,.T.);
#619 = VERTEX_POINT('',#620);
#620 = CARTESIAN_POINT('',(20.973238616575,9.931987861327,4.01));
#621 = VERTEX_POINT('',#622);
#622 = CARTESIAN_POINT('',(20.866975073808,10.455760876138,4.5));
#623 = B_SPLINE_CURVE_WITH_KNOTS('',6,(#624,#625,#626,#627,#628,#629,
    #630,#631,#632,#633,#634,#635,#636,#637,#638,#639,#640),
  .UNSPECIFIED.,.F.,.F.,(7,5,5,7),(0.,0.224893084347,0.7175792951,1.),
  .UNSPECIFIED.);
#624 = CARTESIAN_POINT('',(20.973238616575,9.931987861327,4.01));
#625 = CARTESIAN_POINT('',(20.973238616575,9.931987861327,4.038191909712
    ));
#626 = CARTESIAN_POINT('',(20.972966711555,9.934173620449,4.066381869973
    ));
#627 = CARTESIAN_POINT('',(20.97242319304,9.938544627565,4.094412912635)
  );
#628 = CARTESIAN_POINT('',(20.971600063962,9.945077427082,4.122127564326
    ));
#629 = CARTESIAN_POINT('',(20.970482606439,9.953725565879,4.149368897407
    ));
#630 = CARTESIAN_POINT('',(20.965914536514,9.987847444781,4.234283516865
    ));
#631 = CARTESIAN_POINT('',(20.961268573363,10.021104517579,
    4.289594800363));
#632 = CARTESIAN_POINT('',(20.954904818706,10.063489802213,
    4.340303821485));
#633 = CARTESIAN_POINT('',(20.946492140893,10.113802141325,4.38485236684
    ));
#634 = CARTESIAN_POINT('',(20.93575440607,10.170449493912,4.421818790192
    ));
#635 = CARTESIAN_POINT('',(20.91518905871,10.266660783827,4.466206933425
    ));
#636 = CARTESIAN_POINT('',(20.906927922468,10.303202434095,
    4.479506642637));
#637 = CARTESIAN_POINT('',(20.897909514515,10.340818757368,
    4.489680724004));
#638 = CARTESIAN_POINT('',(20.888181024806,10.379073929428,
    4.496548195264));
#639 = CARTESIAN_POINT('',(20.877827826998,10.417528562612,4.5));
#640 = CARTESIAN_POINT('',(20.866975073808,10.455760876138,4.5));
#641 = ORIENTED_EDGE('',*,*,#642,.T.);
#642 = EDGE_CURVE('',#621,#643,#645,.T.);
#643 = VERTEX_POINT('',#644);
#644 = CARTESIAN_POINT('',(18.849074321705,12.729550816215,4.5));
#645 = CIRCLE('',#646,3.5);
#646 = AXIS2_PLACEMENT_3D('',#647,#648,#649);
#647 = CARTESIAN_POINT('',(17.5,9.5,4.5));
#648 = DIRECTION('',(0.,0.,1.));
#649 = DIRECTION('',(1.,0.,0.));
#650 = ORIENTED_EDGE('',*,*,#651,.F.);
#651 = EDGE_CURVE('',#652,#643,#654,.T.);
#652 = VERTEX_POINT('',#653);
#653 = CARTESIAN_POINT('',(18.261336429892,12.91619186237,4.01));
#654 = B_SPLINE_CURVE_WITH_KNOTS('',6,(#655,#656,#657,#658,#659,#660,
    #661,#662,#663,#664,#665,#666,#667,#668,#669,#670,#671),
  .UNSPECIFIED.,.F.,.F.,(7,5,5,7),(0.,0.295625782274,0.625731739223,1.),
  .UNSPECIFIED.);
#655 = CARTESIAN_POINT('',(18.261336429892,12.91619186237,4.01));
#656 = CARTESIAN_POINT('',(18.261336429892,12.91619186237,4.048345168481
    ));
#657 = CARTESIAN_POINT('',(18.266098628136,12.915130538253,
    4.086644494503));
#658 = CARTESIAN_POINT('',(18.27560168726,12.913012745989,4.124463227841
    ));
#659 = CARTESIAN_POINT('',(18.289670328501,12.909824961749,
    4.161369042508));
#660 = CARTESIAN_POINT('',(18.307973937636,12.905538648207,
    4.196929797081));
#661 = CARTESIAN_POINT('',(18.354654426948,12.894143251129,
    4.268491812466));
#662 = CARTESIAN_POINT('',(18.383969619619,12.886760393264,4.30407997431
    ));
#663 = CARTESIAN_POINT('',(18.41743261137,12.877973754437,4.337124026577
    ));
#664 = CARTESIAN_POINT('',(18.454439700956,12.867746800992,
    4.367251863638));
#665 = CARTESIAN_POINT('',(18.494346220044,12.856072446485,
    4.394117568239));
#666 = CARTESIAN_POINT('',(18.584268141857,12.828192447683,
    4.443840117312));
#667 = CARTESIAN_POINT('',(18.635040660098,12.811552374403,
    4.465745669377));
#668 = CARTESIAN_POINT('',(18.687848326866,12.793154016101,
    4.482647603925));
#669 = CARTESIAN_POINT('',(18.741720754295,12.773154258027,
    4.494159217219));
#670 = CARTESIAN_POINT('',(18.795745298019,12.751827851181,4.5));
#671 = CARTESIAN_POINT('',(18.849074321705,12.729550816215,4.5));
#672 = ORIENTED_EDGE('',*,*,#673,.F.);
#673 = EDGE_CURVE('',#674,#652,#676,.T.);
#674 = VERTEX_POINT('',#675);
#675 = CARTESIAN_POINT('',(18.261336429892,12.91619186237,3.99));
#676 = LINE('',#677,#678);
#677 = CARTESIAN_POINT('',(18.261336429892,12.91619186237,3.5));
#678 = VECTOR('',#679,1.);
#679 = DIRECTION('',(0.,0.,1.));
#680 = ORIENTED_EDGE('',*,*,#681,.T.);
#681 = EDGE_CURVE('',#674,#682,#684,.T.);
#682 = VERTEX_POINT('',#683);
#683 = CARTESIAN_POINT('',(18.849074321705,12.729550816215,3.5));
#684 = B_SPLINE_CURVE_WITH_KNOTS('',6,(#685,#686,#687,#688,#689,#690,
    #691,#692,#693,#694,#695,#696,#697,#698,#699,#700,#701),
  .UNSPECIFIED.,.F.,.F.,(7,5,5,7),(0.,0.295625782396,0.625731739501,1.),
  .UNSPECIFIED.);
#685 = CARTESIAN_POINT('',(18.261336429892,12.91619186237,3.99));
#686 = CARTESIAN_POINT('',(18.261336429892,12.91619186237,3.951654830831
    ));
#687 = CARTESIAN_POINT('',(18.266098628307,12.915130538215,
    3.913355504126));
#688 = CARTESIAN_POINT('',(18.275601687771,12.913012745876,3.87553677013
    ));
#689 = CARTESIAN_POINT('',(18.289670329508,12.909824961521,
    3.838630954853));
#690 = CARTESIAN_POINT('',(18.307973939273,12.905538647823,
    3.803070199739));
#691 = CARTESIAN_POINT('',(18.354654430137,12.894143250332,
    3.731508183394));
#692 = CARTESIAN_POINT('',(18.38396962376,12.886760392199,3.695920021151
    ));
#693 = CARTESIAN_POINT('',(18.41743261656,12.877973753049,3.662875968607
    ));
#694 = CARTESIAN_POINT('',(18.45443970726,12.867746799229,3.63274813141)
  );
#695 = CARTESIAN_POINT('',(18.494346227492,12.856072444294,
    3.605882426828));
#696 = CARTESIAN_POINT('',(18.584268151682,12.828192444502,
    3.556159878179));
#697 = CARTESIAN_POINT('',(18.635040671159,12.811552370647,
    3.534254326554));
#698 = CARTESIAN_POINT('',(18.687848339107,12.793154011726,3.51735239267
    ));
#699 = CARTESIAN_POINT('',(18.741720767605,12.77315425301,3.505840780279
    ));
#700 = CARTESIAN_POINT('',(18.79574531224,12.75182784553,3.499999998637)
  );
#701 = CARTESIAN_POINT('',(18.84907433664,12.729550809976,3.5));
#702 = ORIENTED_EDGE('',*,*,#703,.F.);
#703 = EDGE_CURVE('',#704,#682,#706,.T.);
#704 = VERTEX_POINT('',#705);
#705 = CARTESIAN_POINT('',(20.866975073808,10.455760876138,3.5));
#706 = CIRCLE('',#707,3.5);
#707 = AXIS2_PLACEMENT_3D('',#708,#709,#710);
#708 = CARTESIAN_POINT('',(17.5,9.5,3.5));
#709 = DIRECTION('',(-0.,0.,1.));
#710 = DIRECTION('',(0.,-1.,0.));
#711 = ORIENTED_EDGE('',*,*,#712,.F.);
#712 = EDGE_CURVE('',#713,#704,#715,.T.);
#713 = VERTEX_POINT('',#714);
#714 = CARTESIAN_POINT('',(20.973238616575,9.931987861327,3.99));
#715 = B_SPLINE_CURVE_WITH_KNOTS('',7,(#716,#717,#718,#719,#720,#721,
    #722,#723,#724,#725,#726,#727,#728,#729),.UNSPECIFIED.,.F.,.F.,(8,6,
    8),(0.,0.717500184208,1.),.UNSPECIFIED.);
#716 = CARTESIAN_POINT('',(20.973238616575,9.931987861327,3.99));
#717 = CARTESIAN_POINT('',(20.973238616575,9.931987861327,3.912761541247
    ));
#718 = CARTESIAN_POINT('',(20.971255090809,9.94793901492,3.835740793264)
  );
#719 = CARTESIAN_POINT('',(20.967305316055,9.979678326084,3.761701370793
    ));
#720 = CARTESIAN_POINT('',(20.961052091112,10.026236311758,
    3.693408939706));
#721 = CARTESIAN_POINT('',(20.951792726962,10.085706471933,
    3.633677140565));
#722 = CARTESIAN_POINT('',(20.93899510347,10.155288472238,3.585175914923
    ));
#723 = CARTESIAN_POINT('',(20.916259524839,10.261652799994,
    3.536103555333));
#724 = CARTESIAN_POINT('',(20.909288247109,10.29276196259,3.524293274281
    ));
#725 = CARTESIAN_POINT('',(20.901774546495,10.324697475965,
    3.514679596582));
#726 = CARTESIAN_POINT('',(20.893740161783,10.357213831108,
    3.507376074027));
#727 = CARTESIAN_POINT('',(20.88522296829,10.39006096748,3.502465574811)
  );
#728 = CARTESIAN_POINT('',(20.876277433685,10.422990321687,3.5));
#729 = CARTESIAN_POINT('',(20.866975073808,10.455760876138,3.5));
#730 = ORIENTED_EDGE('',*,*,#731,.T.);
#731 = EDGE_CURVE('',#713,#619,#732,.T.);
#732 = LINE('',#733,#734);
#733 = CARTESIAN_POINT('',(20.973238616575,9.931987861327,3.5));
#734 = VECTOR('',#735,1.);
#735 = DIRECTION('',(0.,0.,1.));
#736 = CYLINDRICAL_SURFACE('',#737,3.5);
#737 = AXIS2_PLACEMENT_3D('',#738,#739,#740);
#738 = CARTESIAN_POINT('',(17.5,9.5,1.));
#739 = DIRECTION('',(0.,0.,1.));
#740 = DIRECTION('',(1.,0.,0.));
#741 = ADVANCED_FACE('',(#742,#748),#816,.T.);
#742 = FACE_BOUND('',#743,.T.);
#743 = EDGE_LOOP('',(#744,#745,#746,#747));
#744 = ORIENTED_EDGE('',*,*,#120,.F.);
#745 = ORIENTED_EDGE('',*,*,#569,.F.);
#746 = ORIENTED_EDGE('',*,*,#298,.T.);
#747 = ORIENTED_EDGE('',*,*,#610,.T.);
#748 = FACE_BOUND('',#749,.T.);
#749 = EDGE_LOOP('',(#750,#761,#769,#777,#785,#794,#802,#810));
#750 = ORIENTED_EDGE('',*,*,#751,.T.);
#751 = EDGE_CURVE('',#752,#754,#756,.T.);
#752 = VERTEX_POINT('',#753);
#753 = CARTESIAN_POINT('',(21.,-2.9,1.604006420562));
#754 = VERTEX_POINT('',#755);
#755 = CARTESIAN_POINT('',(21.,-2.9,4.095993579438));
#756 = CIRCLE('',#757,1.25);
#757 = AXIS2_PLACEMENT_3D('',#758,#759,#760);
#758 = CARTESIAN_POINT('',(21.,-3.,2.85));
#759 = DIRECTION('',(-1.,-0.,-2.22044604925E-16));
#760 = DIRECTION('',(2.22044604925E-16,0.,-1.));
#761 = ORIENTED_EDGE('',*,*,#762,.T.);
#762 = EDGE_CURVE('',#754,#763,#765,.T.);
#763 = VERTEX_POINT('',#764);
#764 = CARTESIAN_POINT('',(21.,-2.9,4.1));
#765 = LINE('',#766,#767);
#766 = CARTESIAN_POINT('',(21.,-2.9,1.3));
#767 = VECTOR('',#768,1.);
#768 = DIRECTION('',(0.,0.,1.));
#769 = ORIENTED_EDGE('',*,*,#770,.F.);
#770 = EDGE_CURVE('',#771,#763,#773,.T.);
#771 = VERTEX_POINT('',#772);
#772 = CARTESIAN_POINT('',(21.,2.9,4.1));
#773 = LINE('',#774,#775);
#774 = CARTESIAN_POINT('',(21.,-7.95,4.1));
#775 = VECTOR('',#776,1.);
#776 = DIRECTION('',(0.,-1.,0.));
#777 = ORIENTED_EDGE('',*,*,#778,.F.);
#778 = EDGE_CURVE('',#779,#771,#781,.T.);
#779 = VERTEX_POINT('',#780);
#780 = CARTESIAN_POINT('',(21.,2.9,4.095993579438));
#781 = LINE('',#782,#783);
#782 = CARTESIAN_POINT('',(21.,2.9,1.3));
#783 = VECTOR('',#784,1.);
#784 = DIRECTION('',(0.,0.,1.));
#785 = ORIENTED_EDGE('',*,*,#786,.T.);
#786 = EDGE_CURVE('',#779,#787,#789,.T.);
#787 = VERTEX_POINT('',#788);
#788 = CARTESIAN_POINT('',(21.,2.9,1.604006420562));
#789 = CIRCLE('',#790,1.25);
#790 = AXIS2_PLACEMENT_3D('',#791,#792,#793);
#791 = CARTESIAN_POINT('',(21.,3.,2.85));
#792 = DIRECTION('',(-1.,-0.,-2.22044604925E-16));
#793 = DIRECTION('',(2.22044604925E-16,0.,-1.));
#794 = ORIENTED_EDGE('',*,*,#795,.F.);
#795 = EDGE_CURVE('',#796,#787,#798,.T.);
#796 = VERTEX_POINT('',#797);
#797 = CARTESIAN_POINT('',(21.,2.9,1.6));
#798 = LINE('',#799,#800);
#799 = CARTESIAN_POINT('',(21.,2.9,1.3));
#800 = VECTOR('',#801,1.);
#801 = DIRECTION('',(0.,0.,1.));
#802 = ORIENTED_EDGE('',*,*,#803,.F.);
#803 = EDGE_CURVE('',#804,#796,#806,.T.);
#804 = VERTEX_POINT('',#805);
#805 = CARTESIAN_POINT('',(21.,-2.9,1.6));
#806 = LINE('',#807,#808);
#807 = CARTESIAN_POINT('',(21.,-6.5,1.6));
#808 = VECTOR('',#809,1.);
#809 = DIRECTION('',(0.,1.,0.));
#810 = ORIENTED_EDGE('',*,*,#811,.T.);
#811 = EDGE_CURVE('',#804,#752,#812,.T.);
#812 = LINE('',#813,#814);
#813 = CARTESIAN_POINT('',(21.,-2.9,1.3));
#814 = VECTOR('',#815,1.);
#815 = DIRECTION('',(0.,0.,1.));
#816 = PLANE('',#817);
#817 = AXIS2_PLACEMENT_3D('',#818,#819,#820);
#818 = CARTESIAN_POINT('',(21.,-13.,1.));
#819 = DIRECTION('',(1.,0.,0.));
#820 = DIRECTION('',(0.,0.,1.));
#821 = ADVANCED_FACE('',(#822),#842,.F.);
#822 = FACE_BOUND('',#823,.F.);
#823 = EDGE_LOOP('',(#824,#833,#840,#841));
#824 = ORIENTED_EDGE('',*,*,#825,.T.);
#825 = EDGE_CURVE('',#826,#826,#828,.T.);
#826 = VERTEX_POINT('',#827);
#827 = CARTESIAN_POINT('',(18.107878402834,9.,5.));
#828 = CIRCLE('',#829,1.907878402834);
#829 = AXIS2_PLACEMENT_3D('',#830,#831,#832);
#830 = CARTESIAN_POINT('',(16.2,9.,5.));
#831 = DIRECTION('',(0.,0.,1.));
#832 = DIRECTION('',(1.,0.,-0.));
#833 = ORIENTED_EDGE('',*,*,#834,.T.);
#834 = EDGE_CURVE('',#826,#155,#835,.T.);
#835 = CIRCLE('',#836,2.);
#836 = AXIS2_PLACEMENT_3D('',#837,#838,#839);
#837 = CARTESIAN_POINT('',(16.2,9.,4.4));
#838 = DIRECTION('',(-2.449293598295E-16,-1.,0.));
#839 = DIRECTION('',(1.,-2.449293598295E-16,0.));
#840 = ORIENTED_EDGE('',*,*,#154,.F.);
#841 = ORIENTED_EDGE('',*,*,#834,.F.);
#842 = SPHERICAL_SURFACE('',#843,2.);
#843 = AXIS2_PLACEMENT_3D('',#844,#845,#846);
#844 = CARTESIAN_POINT('',(16.2,9.,4.4));
#845 = DIRECTION('',(0.,0.,1.));
#846 = DIRECTION('',(1.,0.,0.));
#847 = ADVANCED_FACE('',(#848),#879,.F.);
#848 = FACE_BOUND('',#849,.F.);
#849 = EDGE_LOOP('',(#850,#859,#860,#861,#862,#863,#872));
#850 = ORIENTED_EDGE('',*,*,#851,.F.);
#851 = EDGE_CURVE('',#453,#852,#854,.T.);
#852 = VERTEX_POINT('',#853);
#853 = CARTESIAN_POINT('',(13.487596159536,-12.1,2.5));
#854 = CIRCLE('',#855,1.705872210923);
#855 = AXIS2_PLACEMENT_3D('',#856,#857,#858);
#856 = CARTESIAN_POINT('',(14.3,-12.1,1.));
#857 = DIRECTION('',(0.,1.,0.));
#858 = DIRECTION('',(0.,0.,1.));
#859 = ORIENTED_EDGE('',*,*,#452,.T.);
#860 = ORIENTED_EDGE('',*,*,#537,.T.);
#861 = ORIENTED_EDGE('',*,*,#576,.T.);
#862 = ORIENTED_EDGE('',*,*,#280,.T.);
#863 = ORIENTED_EDGE('',*,*,#864,.F.);
#864 = EDGE_CURVE('',#865,#273,#867,.T.);
#865 = VERTEX_POINT('',#866);
#866 = CARTESIAN_POINT('',(15.112403840464,-12.1,2.5));
#867 = CIRCLE('',#868,1.705872210923);
#868 = AXIS2_PLACEMENT_3D('',#869,#870,#871);
#869 = CARTESIAN_POINT('',(14.3,-12.1,1.));
#870 = DIRECTION('',(0.,1.,0.));
#871 = DIRECTION('',(0.,0.,1.));
#872 = ORIENTED_EDGE('',*,*,#873,.T.);
#873 = EDGE_CURVE('',#865,#852,#874,.T.);
#874 = CIRCLE('',#875,4.769696007085);
#875 = AXIS2_PLACEMENT_3D('',#876,#877,#878);
#876 = CARTESIAN_POINT('',(14.3,-16.8,2.5));
#877 = DIRECTION('',(0.,0.,1.));
#878 = DIRECTION('',(1.,0.,0.));
#879 = SPHERICAL_SURFACE('',#880,5.);
#880 = AXIS2_PLACEMENT_3D('',#881,#882,#883);
#881 = CARTESIAN_POINT('',(14.3,-16.8,1.));
#882 = DIRECTION('',(0.,0.,1.));
#883 = DIRECTION('',(1.,0.,0.));
#884 = ADVANCED_FACE('',(#885),#903,.F.);
#885 = FACE_BOUND('',#886,.F.);
#886 = EDGE_LOOP('',(#887,#888,#889,#897));
#887 = ORIENTED_EDGE('',*,*,#864,.T.);
#888 = ORIENTED_EDGE('',*,*,#272,.T.);
#889 = ORIENTED_EDGE('',*,*,#890,.T.);
#890 = EDGE_CURVE('',#265,#891,#893,.T.);
#891 = VERTEX_POINT('',#892);
#892 = CARTESIAN_POINT('',(16.78,-12.1,2.5));
#893 = LINE('',#894,#895);
#894 = CARTESIAN_POINT('',(16.78,-12.1,1.));
#895 = VECTOR('',#896,1.);
#896 = DIRECTION('',(0.,0.,1.));
#897 = ORIENTED_EDGE('',*,*,#898,.F.);
#898 = EDGE_CURVE('',#865,#891,#899,.T.);
#899 = LINE('',#900,#901);
#900 = CARTESIAN_POINT('',(11.78,-12.1,2.5));
#901 = VECTOR('',#902,1.);
#902 = DIRECTION('',(1.,0.,0.));
#903 = PLANE('',#904);
#904 = AXIS2_PLACEMENT_3D('',#905,#906,#907);
#905 = CARTESIAN_POINT('',(16.012823082622,-12.1,1.087163080312));
#906 = DIRECTION('',(-0.,-1.,-0.));
#907 = DIRECTION('',(0.,0.,-1.));
#908 = ADVANCED_FACE('',(#909),#943,.F.);
#909 = FACE_BOUND('',#910,.F.);
#910 = EDGE_LOOP('',(#911,#912,#913,#921,#929,#937));
#911 = ORIENTED_EDGE('',*,*,#890,.F.);
#912 = ORIENTED_EDGE('',*,*,#264,.T.);
#913 = ORIENTED_EDGE('',*,*,#914,.F.);
#914 = EDGE_CURVE('',#915,#257,#917,.T.);
#915 = VERTEX_POINT('',#916);
#916 = CARTESIAN_POINT('',(16.78,-12.,1.6));
#917 = LINE('',#918,#919);
#918 = CARTESIAN_POINT('',(16.78,-12.,0.5));
#919 = VECTOR('',#920,1.);
#920 = DIRECTION('',(0.,0.,-1.));
#921 = ORIENTED_EDGE('',*,*,#922,.T.);
#922 = EDGE_CURVE('',#915,#923,#925,.T.);
#923 = VERTEX_POINT('',#924);
#924 = CARTESIAN_POINT('',(16.78,-11.48690475241,1.6));
#925 = LINE('',#926,#927);
#926 = CARTESIAN_POINT('',(16.78,-12.05,1.6));
#927 = VECTOR('',#928,1.);
#928 = DIRECTION('',(0.,1.,0.));
#929 = ORIENTED_EDGE('',*,*,#930,.T.);
#930 = EDGE_CURVE('',#923,#931,#933,.T.);
#931 = VERTEX_POINT('',#932);
#932 = CARTESIAN_POINT('',(16.78,-11.48690475241,2.5));
#933 = LINE('',#934,#935);
#934 = CARTESIAN_POINT('',(16.78,-11.48690475241,1.));
#935 = VECTOR('',#936,1.);
#936 = DIRECTION('',(0.,0.,1.));
#937 = ORIENTED_EDGE('',*,*,#938,.F.);
#938 = EDGE_CURVE('',#891,#931,#939,.T.);
#939 = LINE('',#940,#941);
#940 = CARTESIAN_POINT('',(16.78,-12.1,2.5));
#941 = VECTOR('',#942,1.);
#942 = DIRECTION('',(0.,1.,0.));
#943 = PLANE('',#944);
#944 = AXIS2_PLACEMENT_3D('',#945,#946,#947);
#945 = CARTESIAN_POINT('',(16.78,-12.1,1.));
#946 = DIRECTION('',(1.,0.,0.));
#947 = DIRECTION('',(0.,0.,1.));
#948 = ADVANCED_FACE('',(#949),#967,.T.);
#949 = FACE_BOUND('',#950,.T.);
#950 = EDGE_LOOP('',(#951,#959,#960,#961));
#951 = ORIENTED_EDGE('',*,*,#952,.F.);
#952 = EDGE_CURVE('',#248,#953,#955,.T.);
#953 = VERTEX_POINT('',#954);
#954 = CARTESIAN_POINT('',(17.,-12.,1.6));
#955 = LINE('',#956,#957);
#956 = CARTESIAN_POINT('',(17.,-12.,0.));
#957 = VECTOR('',#958,1.);
#958 = DIRECTION('',(0.,0.,1.));
#959 = ORIENTED_EDGE('',*,*,#256,.T.);
#960 = ORIENTED_EDGE('',*,*,#914,.F.);
#961 = ORIENTED_EDGE('',*,*,#962,.T.);
#962 = EDGE_CURVE('',#915,#953,#963,.T.);
#963 = LINE('',#964,#965);
#964 = CARTESIAN_POINT('',(-20.,-12.,1.6));
#965 = VECTOR('',#966,1.);
#966 = DIRECTION('',(1.,0.,0.));
#967 = PLANE('',#968);
#968 = AXIS2_PLACEMENT_3D('',#969,#970,#971);
#969 = CARTESIAN_POINT('',(-20.,-12.,0.));
#970 = DIRECTION('',(0.,1.,0.));
#971 = DIRECTION('',(0.,0.,1.));
#972 = ADVANCED_FACE('',(#973),#992,.F.);
#973 = FACE_BOUND('',#974,.T.);
#974 = EDGE_LOOP('',(#975,#983,#984,#985));
#975 = ORIENTED_EDGE('',*,*,#976,.F.);
#976 = EDGE_CURVE('',#240,#977,#979,.T.);
#977 = VERTEX_POINT('',#978);
#978 = CARTESIAN_POINT('',(20.,-9.,1.6));
#979 = LINE('',#980,#981);
#980 = CARTESIAN_POINT('',(20.,-9.,0.));
#981 = VECTOR('',#982,1.);
#982 = DIRECTION('',(0.,0.,1.));
#983 = ORIENTED_EDGE('',*,*,#247,.F.);
#984 = ORIENTED_EDGE('',*,*,#952,.T.);
#985 = ORIENTED_EDGE('',*,*,#986,.F.);
#986 = EDGE_CURVE('',#977,#953,#987,.T.);
#987 = CIRCLE('',#988,3.);
#988 = AXIS2_PLACEMENT_3D('',#989,#990,#991);
#989 = CARTESIAN_POINT('',(17.,-9.,1.6));
#990 = DIRECTION('',(-0.,-0.,-1.));
#991 = DIRECTION('',(0.,-1.,0.));
#992 = CYLINDRICAL_SURFACE('',#993,3.);
#993 = AXIS2_PLACEMENT_3D('',#994,#995,#996);
#994 = CARTESIAN_POINT('',(17.,-9.,0.));
#995 = DIRECTION('',(0.,0.,1.));
#996 = DIRECTION('',(1.,0.,0.));
#997 = ADVANCED_FACE('',(#998),#1024,.F.);
#998 = FACE_BOUND('',#999,.F.);
#999 = EDGE_LOOP('',(#1000,#1008,#1009,#1017));
#1000 = ORIENTED_EDGE('',*,*,#1001,.F.);
#1001 = EDGE_CURVE('',#231,#1002,#1004,.T.);
#1002 = VERTEX_POINT('',#1003);
#1003 = CARTESIAN_POINT('',(20.,9.,1.6));
#1004 = LINE('',#1005,#1006);
#1005 = CARTESIAN_POINT('',(20.,9.,0.));
#1006 = VECTOR('',#1007,1.);
#1007 = DIRECTION('',(0.,0.,1.));
#1008 = ORIENTED_EDGE('',*,*,#230,.T.);
#1009 = ORIENTED_EDGE('',*,*,#1010,.T.);
#1010 = EDGE_CURVE('',#223,#1011,#1013,.T.);
#1011 = VERTEX_POINT('',#1012);
#1012 = CARTESIAN_POINT('',(17.,12.,1.6));
#1013 = LINE('',#1014,#1015);
#1014 = CARTESIAN_POINT('',(17.,12.,0.));
#1015 = VECTOR('',#1016,1.);
#1016 = DIRECTION('',(0.,0.,1.));
#1017 = ORIENTED_EDGE('',*,*,#1018,.F.);
#1018 = EDGE_CURVE('',#1002,#1011,#1019,.T.);
#1019 = CIRCLE('',#1020,3.);
#1020 = AXIS2_PLACEMENT_3D('',#1021,#1022,#1023);
#1021 = CARTESIAN_POINT('',(17.,9.,1.6));
#1022 = DIRECTION('',(-0.,0.,1.));
#1023 = DIRECTION('',(0.,-1.,0.));
#1024 = CYLINDRICAL_SURFACE('',#1025,3.);
#1025 = AXIS2_PLACEMENT_3D('',#1026,#1027,#1028);
#1026 = CARTESIAN_POINT('',(17.,9.,0.));
#1027 = DIRECTION('',(0.,0.,1.));
#1028 = DIRECTION('',(1.,0.,0.));
#1029 = ADVANCED_FACE('',(#1030),#1048,.F.);
#1030 = FACE_BOUND('',#1031,.F.);
#1031 = EDGE_LOOP('',(#1032,#1033,#1041,#1047));
#1032 = ORIENTED_EDGE('',*,*,#222,.T.);
#1033 = ORIENTED_EDGE('',*,*,#1034,.T.);
#1034 = EDGE_CURVE('',#214,#1035,#1037,.T.);
#1035 = VERTEX_POINT('',#1036);
#1036 = CARTESIAN_POINT('',(-17.,12.,1.6));
#1037 = LINE('',#1038,#1039);
#1038 = CARTESIAN_POINT('',(-17.,12.,0.));
#1039 = VECTOR('',#1040,1.);
#1040 = DIRECTION('',(0.,0.,1.));
#1041 = ORIENTED_EDGE('',*,*,#1042,.T.);
#1042 = EDGE_CURVE('',#1035,#1011,#1043,.T.);
#1043 = LINE('',#1044,#1045);
#1044 = CARTESIAN_POINT('',(-20.,12.,1.6));
#1045 = VECTOR('',#1046,1.);
#1046 = DIRECTION('',(1.,0.,0.));
#1047 = ORIENTED_EDGE('',*,*,#1010,.F.);
#1048 = PLANE('',#1049);
#1049 = AXIS2_PLACEMENT_3D('',#1050,#1051,#1052);
#1050 = CARTESIAN_POINT('',(-20.,12.,0.));
#1051 = DIRECTION('',(0.,1.,0.));
#1052 = DIRECTION('',(0.,0.,1.));
#1053 = ADVANCED_FACE('',(#1054),#1073,.F.);
#1054 = FACE_BOUND('',#1055,.T.);
#1055 = EDGE_LOOP('',(#1056,#1064,#1065,#1066));
#1056 = ORIENTED_EDGE('',*,*,#1057,.F.);
#1057 = EDGE_CURVE('',#206,#1058,#1060,.T.);
#1058 = VERTEX_POINT('',#1059);
#1059 = CARTESIAN_POINT('',(-20.,9.,1.6));
#1060 = LINE('',#1061,#1062);
#1061 = CARTESIAN_POINT('',(-20.,9.,0.));
#1062 = VECTOR('',#1063,1.);
#1063 = DIRECTION('',(0.,0.,1.));
#1064 = ORIENTED_EDGE('',*,*,#213,.F.);
#1065 = ORIENTED_EDGE('',*,*,#1034,.T.);
#1066 = ORIENTED_EDGE('',*,*,#1067,.F.);
#1067 = EDGE_CURVE('',#1058,#1035,#1068,.T.);
#1068 = CIRCLE('',#1069,3.);
#1069 = AXIS2_PLACEMENT_3D('',#1070,#1071,#1072);
#1070 = CARTESIAN_POINT('',(-17.,9.,1.6));
#1071 = DIRECTION('',(-0.,-0.,-1.));
#1072 = DIRECTION('',(0.,-1.,0.));
#1073 = CYLINDRICAL_SURFACE('',#1074,3.);
#1074 = AXIS2_PLACEMENT_3D('',#1075,#1076,#1077);
#1075 = CARTESIAN_POINT('',(-17.,9.,0.));
#1076 = DIRECTION('',(0.,0.,1.));
#1077 = DIRECTION('',(-1.,0.,0.));
#1078 = ADVANCED_FACE('',(#1079),#1090,.T.);
#1079 = FACE_BOUND('',#1080,.T.);
#1080 = EDGE_LOOP('',(#1081,#1087,#1088,#1089));
#1081 = ORIENTED_EDGE('',*,*,#1082,.F.);
#1082 = EDGE_CURVE('',#347,#1058,#1083,.T.);
#1083 = LINE('',#1084,#1085);
#1084 = CARTESIAN_POINT('',(-20.,-12.,1.6));
#1085 = VECTOR('',#1086,1.);
#1086 = DIRECTION('',(0.,1.,0.));
#1087 = ORIENTED_EDGE('',*,*,#354,.F.);
#1088 = ORIENTED_EDGE('',*,*,#205,.T.);
#1089 = ORIENTED_EDGE('',*,*,#1057,.T.);
#1090 = PLANE('',#1091);
#1091 = AXIS2_PLACEMENT_3D('',#1092,#1093,#1094);
#1092 = CARTESIAN_POINT('',(-20.,-12.,0.));
#1093 = DIRECTION('',(1.,0.,0.));
#1094 = DIRECTION('',(0.,0.,1.));
#1095 = ADVANCED_FACE('',(#1096),#1159,.F.);
#1096 = FACE_BOUND('',#1097,.F.);
#1097 = EDGE_LOOP('',(#1098,#1099,#1100,#1108,#1117,#1125,#1134,#1142,
    #1150,#1156,#1157,#1158));
#1098 = ORIENTED_EDGE('',*,*,#1082,.F.);
#1099 = ORIENTED_EDGE('',*,*,#346,.F.);
#1100 = ORIENTED_EDGE('',*,*,#1101,.F.);
#1101 = EDGE_CURVE('',#1102,#339,#1104,.T.);
#1102 = VERTEX_POINT('',#1103);
#1103 = CARTESIAN_POINT('',(-19.5,8.5,1.6));
#1104 = LINE('',#1105,#1106);
#1105 = CARTESIAN_POINT('',(-19.5,-11.75,1.6));
#1106 = VECTOR('',#1107,1.);
#1107 = DIRECTION('',(0.,-1.,0.));
#1108 = ORIENTED_EDGE('',*,*,#1109,.F.);
#1109 = EDGE_CURVE('',#1110,#1102,#1112,.T.);
#1110 = VERTEX_POINT('',#1111);
#1111 = CARTESIAN_POINT('',(-16.5,11.5,1.6));
#1112 = CIRCLE('',#1113,3.);
#1113 = AXIS2_PLACEMENT_3D('',#1114,#1115,#1116);
#1114 = CARTESIAN_POINT('',(-16.5,8.5,1.6));
#1115 = DIRECTION('',(0.,0.,1.));
#1116 = DIRECTION('',(-1.,0.,0.));
#1117 = ORIENTED_EDGE('',*,*,#1118,.T.);
#1118 = EDGE_CURVE('',#1110,#1119,#1121,.T.);
#1119 = VERTEX_POINT('',#1120);
#1120 = CARTESIAN_POINT('',(16.5,11.5,1.6));
#1121 = LINE('',#1122,#1123);
#1122 = CARTESIAN_POINT('',(-19.75,11.5,1.6));
#1123 = VECTOR('',#1124,1.);
#1124 = DIRECTION('',(1.,0.,0.));
#1125 = ORIENTED_EDGE('',*,*,#1126,.F.);
#1126 = EDGE_CURVE('',#1127,#1119,#1129,.T.);
#1127 = VERTEX_POINT('',#1128);
#1128 = CARTESIAN_POINT('',(19.5,8.5,1.6));
#1129 = CIRCLE('',#1130,3.);
#1130 = AXIS2_PLACEMENT_3D('',#1131,#1132,#1133);
#1131 = CARTESIAN_POINT('',(16.5,8.5,1.6));
#1132 = DIRECTION('',(0.,0.,1.));
#1133 = DIRECTION('',(1.,0.,0.));
#1134 = ORIENTED_EDGE('',*,*,#1135,.T.);
#1135 = EDGE_CURVE('',#1127,#1136,#1138,.T.);
#1136 = VERTEX_POINT('',#1137);
#1137 = CARTESIAN_POINT('',(19.5,4.24,1.6));
#1138 = LINE('',#1139,#1140);
#1139 = CARTESIAN_POINT('',(19.5,-11.75,1.6));
#1140 = VECTOR('',#1141,1.);
#1141 = DIRECTION('',(0.,-1.,0.));
#1142 = ORIENTED_EDGE('',*,*,#1143,.T.);
#1143 = EDGE_CURVE('',#1136,#1144,#1146,.T.);
#1144 = VERTEX_POINT('',#1145);
#1145 = CARTESIAN_POINT('',(20.,4.24,1.6));
#1146 = LINE('',#1147,#1148);
#1147 = CARTESIAN_POINT('',(19.,4.24,1.6));
#1148 = VECTOR('',#1149,1.);
#1149 = DIRECTION('',(1.,0.,0.));
#1150 = ORIENTED_EDGE('',*,*,#1151,.T.);
#1151 = EDGE_CURVE('',#1144,#1002,#1152,.T.);
#1152 = LINE('',#1153,#1154);
#1153 = CARTESIAN_POINT('',(20.,-12.,1.6));
#1154 = VECTOR('',#1155,1.);
#1155 = DIRECTION('',(0.,1.,0.));
#1156 = ORIENTED_EDGE('',*,*,#1018,.T.);
#1157 = ORIENTED_EDGE('',*,*,#1042,.F.);
#1158 = ORIENTED_EDGE('',*,*,#1067,.F.);
#1159 = PLANE('',#1160);
#1160 = AXIS2_PLACEMENT_3D('',#1161,#1162,#1163);
#1161 = CARTESIAN_POINT('',(-20.,-12.,1.6));
#1162 = DIRECTION('',(0.,0.,1.));
#1163 = DIRECTION('',(1.,0.,0.));
#1164 = ADVANCED_FACE('',(#1165),#1201,.T.);
#1165 = FACE_BOUND('',#1166,.T.);
#1166 = EDGE_LOOP('',(#1167,#1177,#1185,#1191,#1192,#1193,#1194,#1195));
#1167 = ORIENTED_EDGE('',*,*,#1168,.F.);
#1168 = EDGE_CURVE('',#1169,#1171,#1173,.T.);
#1169 = VERTEX_POINT('',#1170);
#1170 = CARTESIAN_POINT('',(-19.5,-8.5,5.));
#1171 = VERTEX_POINT('',#1172);
#1172 = CARTESIAN_POINT('',(-19.5,8.5,5.));
#1173 = LINE('',#1174,#1175);
#1174 = CARTESIAN_POINT('',(-19.5,-11.5,5.));
#1175 = VECTOR('',#1176,1.);
#1176 = DIRECTION('',(0.,1.,0.));
#1177 = ORIENTED_EDGE('',*,*,#1178,.F.);
#1178 = EDGE_CURVE('',#1179,#1169,#1181,.T.);
#1179 = VERTEX_POINT('',#1180);
#1180 = CARTESIAN_POINT('',(-19.5,-8.5,1.6));
#1181 = LINE('',#1182,#1183);
#1182 = CARTESIAN_POINT('',(-19.5,-8.5,1.));
#1183 = VECTOR('',#1184,1.);
#1184 = DIRECTION('',(0.,0.,1.));
#1185 = ORIENTED_EDGE('',*,*,#1186,.F.);
#1186 = EDGE_CURVE('',#396,#1179,#1187,.T.);
#1187 = LINE('',#1188,#1189);
#1188 = CARTESIAN_POINT('',(-19.5,-11.75,1.6));
#1189 = VECTOR('',#1190,1.);
#1190 = DIRECTION('',(0.,-1.,0.));
#1191 = ORIENTED_EDGE('',*,*,#395,.T.);
#1192 = ORIENTED_EDGE('',*,*,#378,.F.);
#1193 = ORIENTED_EDGE('',*,*,#338,.F.);
#1194 = ORIENTED_EDGE('',*,*,#1101,.F.);
#1195 = ORIENTED_EDGE('',*,*,#1196,.T.);
#1196 = EDGE_CURVE('',#1102,#1171,#1197,.T.);
#1197 = LINE('',#1198,#1199);
#1198 = CARTESIAN_POINT('',(-19.5,8.5,1.));
#1199 = VECTOR('',#1200,1.);
#1200 = DIRECTION('',(0.,0.,1.));
#1201 = PLANE('',#1202);
#1202 = AXIS2_PLACEMENT_3D('',#1203,#1204,#1205);
#1203 = CARTESIAN_POINT('',(-19.5,-11.5,1.));
#1204 = DIRECTION('',(1.,0.,0.));
#1205 = DIRECTION('',(0.,0.,1.));
#1206 = ADVANCED_FACE('',(#1207),#1225,.T.);
#1207 = FACE_BOUND('',#1208,.T.);
#1208 = EDGE_LOOP('',(#1209,#1217,#1223,#1224));
#1209 = ORIENTED_EDGE('',*,*,#1210,.F.);
#1210 = EDGE_CURVE('',#1211,#404,#1213,.T.);
#1211 = VERTEX_POINT('',#1212);
#1212 = CARTESIAN_POINT('',(-20.,-9.,1.6));
#1213 = LINE('',#1214,#1215);
#1214 = CARTESIAN_POINT('',(-20.,-12.,1.6));
#1215 = VECTOR('',#1216,1.);
#1216 = DIRECTION('',(0.,1.,0.));
#1217 = ORIENTED_EDGE('',*,*,#1218,.F.);
#1218 = EDGE_CURVE('',#486,#1211,#1219,.T.);
#1219 = LINE('',#1220,#1221);
#1220 = CARTESIAN_POINT('',(-20.,-9.,0.));
#1221 = VECTOR('',#1222,1.);
#1222 = DIRECTION('',(0.,0.,1.));
#1223 = ORIENTED_EDGE('',*,*,#494,.T.);
#1224 = ORIENTED_EDGE('',*,*,#411,.T.);
#1225 = PLANE('',#1226);
#1226 = AXIS2_PLACEMENT_3D('',#1227,#1228,#1229);
#1227 = CARTESIAN_POINT('',(-20.,-12.,0.));
#1228 = DIRECTION('',(1.,0.,0.));
#1229 = DIRECTION('',(0.,0.,1.));
#1230 = ADVANCED_FACE('',(#1231),#1276,.F.);
#1231 = FACE_BOUND('',#1232,.F.);
#1232 = EDGE_LOOP('',(#1233,#1234,#1243,#1251,#1259,#1267,#1274,#1275));
#1233 = ORIENTED_EDGE('',*,*,#1210,.F.);
#1234 = ORIENTED_EDGE('',*,*,#1235,.T.);
#1235 = EDGE_CURVE('',#1211,#1236,#1238,.T.);
#1236 = VERTEX_POINT('',#1237);
#1237 = CARTESIAN_POINT('',(-17.,-12.,1.6));
#1238 = CIRCLE('',#1239,3.);
#1239 = AXIS2_PLACEMENT_3D('',#1240,#1241,#1242);
#1240 = CARTESIAN_POINT('',(-17.,-9.,1.6));
#1241 = DIRECTION('',(-0.,0.,1.));
#1242 = DIRECTION('',(0.,-1.,0.));
#1243 = ORIENTED_EDGE('',*,*,#1244,.T.);
#1244 = EDGE_CURVE('',#1236,#1245,#1247,.T.);
#1245 = VERTEX_POINT('',#1246);
#1246 = CARTESIAN_POINT('',(11.78,-12.,1.6));
#1247 = LINE('',#1248,#1249);
#1248 = CARTESIAN_POINT('',(-20.,-12.,1.6));
#1249 = VECTOR('',#1250,1.);
#1250 = DIRECTION('',(1.,0.,0.));
#1251 = ORIENTED_EDGE('',*,*,#1252,.T.);
#1252 = EDGE_CURVE('',#1245,#1253,#1255,.T.);
#1253 = VERTEX_POINT('',#1254);
#1254 = CARTESIAN_POINT('',(11.78,-11.5,1.6));
#1255 = LINE('',#1256,#1257);
#1256 = CARTESIAN_POINT('',(11.78,-12.05,1.6));
#1257 = VECTOR('',#1258,1.);
#1258 = DIRECTION('',(0.,1.,0.));
#1259 = ORIENTED_EDGE('',*,*,#1260,.F.);
#1260 = EDGE_CURVE('',#1261,#1253,#1263,.T.);
#1261 = VERTEX_POINT('',#1262);
#1262 = CARTESIAN_POINT('',(-16.5,-11.5,1.6));
#1263 = LINE('',#1264,#1265);
#1264 = CARTESIAN_POINT('',(-19.75,-11.5,1.6));
#1265 = VECTOR('',#1266,1.);
#1266 = DIRECTION('',(1.,0.,0.));
#1267 = ORIENTED_EDGE('',*,*,#1268,.F.);
#1268 = EDGE_CURVE('',#1179,#1261,#1269,.T.);
#1269 = CIRCLE('',#1270,3.);
#1270 = AXIS2_PLACEMENT_3D('',#1271,#1272,#1273);
#1271 = CARTESIAN_POINT('',(-16.5,-8.5,1.6));
#1272 = DIRECTION('',(0.,0.,1.));
#1273 = DIRECTION('',(-1.,0.,0.));
#1274 = ORIENTED_EDGE('',*,*,#1186,.F.);
#1275 = ORIENTED_EDGE('',*,*,#403,.T.);
#1276 = PLANE('',#1277);
#1277 = AXIS2_PLACEMENT_3D('',#1278,#1279,#1280);
#1278 = CARTESIAN_POINT('',(-20.,-12.,1.6));
#1279 = DIRECTION('',(0.,0.,1.));
#1280 = DIRECTION('',(1.,0.,0.));
#1281 = ADVANCED_FACE('',(#1282),#1293,.F.);
#1282 = FACE_BOUND('',#1283,.F.);
#1283 = EDGE_LOOP('',(#1284,#1285,#1286,#1292));
#1284 = ORIENTED_EDGE('',*,*,#1218,.F.);
#1285 = ORIENTED_EDGE('',*,*,#485,.T.);
#1286 = ORIENTED_EDGE('',*,*,#1287,.T.);
#1287 = EDGE_CURVE('',#478,#1236,#1288,.T.);
#1288 = LINE('',#1289,#1290);
#1289 = CARTESIAN_POINT('',(-17.,-12.,0.));
#1290 = VECTOR('',#1291,1.);
#1291 = DIRECTION('',(0.,0.,1.));
#1292 = ORIENTED_EDGE('',*,*,#1235,.F.);
#1293 = CYLINDRICAL_SURFACE('',#1294,3.);
#1294 = AXIS2_PLACEMENT_3D('',#1295,#1296,#1297);
#1295 = CARTESIAN_POINT('',(-17.,-9.,0.));
#1296 = DIRECTION('',(0.,0.,1.));
#1297 = DIRECTION('',(-1.,0.,0.));
#1298 = ADVANCED_FACE('',(#1299),#1310,.T.);
#1299 = FACE_BOUND('',#1300,.T.);
#1300 = EDGE_LOOP('',(#1301,#1302,#1308,#1309));
#1301 = ORIENTED_EDGE('',*,*,#1244,.T.);
#1302 = ORIENTED_EDGE('',*,*,#1303,.T.);
#1303 = EDGE_CURVE('',#1245,#470,#1304,.T.);
#1304 = LINE('',#1305,#1306);
#1305 = CARTESIAN_POINT('',(11.78,-12.,0.5));
#1306 = VECTOR('',#1307,1.);
#1307 = DIRECTION('',(0.,0.,-1.));
#1308 = ORIENTED_EDGE('',*,*,#477,.T.);
#1309 = ORIENTED_EDGE('',*,*,#1287,.T.);
#1310 = PLANE('',#1311);
#1311 = AXIS2_PLACEMENT_3D('',#1312,#1313,#1314);
#1312 = CARTESIAN_POINT('',(-20.,-12.,0.));
#1313 = DIRECTION('',(0.,1.,0.));
#1314 = DIRECTION('',(0.,0.,1.));
#1315 = ADVANCED_FACE('',(#1316),#1343,.T.);
#1316 = FACE_BOUND('',#1317,.T.);
#1317 = EDGE_LOOP('',(#1318,#1326,#1327,#1328,#1329,#1337));
#1318 = ORIENTED_EDGE('',*,*,#1319,.F.);
#1319 = EDGE_CURVE('',#462,#1320,#1322,.T.);
#1320 = VERTEX_POINT('',#1321);
#1321 = CARTESIAN_POINT('',(11.78,-12.1,2.5));
#1322 = LINE('',#1323,#1324);
#1323 = CARTESIAN_POINT('',(11.78,-12.1,1.));
#1324 = VECTOR('',#1325,1.);
#1325 = DIRECTION('',(0.,0.,1.));
#1326 = ORIENTED_EDGE('',*,*,#469,.T.);
#1327 = ORIENTED_EDGE('',*,*,#1303,.F.);
#1328 = ORIENTED_EDGE('',*,*,#1252,.T.);
#1329 = ORIENTED_EDGE('',*,*,#1330,.F.);
#1330 = EDGE_CURVE('',#1331,#1253,#1333,.T.);
#1331 = VERTEX_POINT('',#1332);
#1332 = CARTESIAN_POINT('',(11.78,-11.5,2.5));
#1333 = LINE('',#1334,#1335);
#1334 = CARTESIAN_POINT('',(11.78,-11.5,1.));
#1335 = VECTOR('',#1336,1.);
#1336 = DIRECTION('',(0.,0.,-1.));
#1337 = ORIENTED_EDGE('',*,*,#1338,.F.);
#1338 = EDGE_CURVE('',#1320,#1331,#1339,.T.);
#1339 = LINE('',#1340,#1341);
#1340 = CARTESIAN_POINT('',(11.78,-12.1,2.5));
#1341 = VECTOR('',#1342,1.);
#1342 = DIRECTION('',(0.,1.,0.));
#1343 = PLANE('',#1344);
#1344 = AXIS2_PLACEMENT_3D('',#1345,#1346,#1347);
#1345 = CARTESIAN_POINT('',(11.78,-12.1,1.));
#1346 = DIRECTION('',(1.,0.,0.));
#1347 = DIRECTION('',(0.,0.,1.));
#1348 = ADVANCED_FACE('',(#1349),#1360,.F.);
#1349 = FACE_BOUND('',#1350,.F.);
#1350 = EDGE_LOOP('',(#1351,#1352,#1353,#1359));
#1351 = ORIENTED_EDGE('',*,*,#461,.T.);
#1352 = ORIENTED_EDGE('',*,*,#851,.T.);
#1353 = ORIENTED_EDGE('',*,*,#1354,.F.);
#1354 = EDGE_CURVE('',#1320,#852,#1355,.T.);
#1355 = LINE('',#1356,#1357);
#1356 = CARTESIAN_POINT('',(11.78,-12.1,2.5));
#1357 = VECTOR('',#1358,1.);
#1358 = DIRECTION('',(1.,0.,0.));
#1359 = ORIENTED_EDGE('',*,*,#1319,.F.);
#1360 = PLANE('',#1361);
#1361 = AXIS2_PLACEMENT_3D('',#1362,#1363,#1364);
#1362 = CARTESIAN_POINT('',(12.574954414016,-12.1,1.092433473321));
#1363 = DIRECTION('',(-0.,-1.,-0.));
#1364 = DIRECTION('',(0.,0.,-1.));
#1365 = ADVANCED_FACE('',(#1366),#1402,.F.);
#1366 = FACE_BOUND('',#1367,.T.);
#1367 = EDGE_LOOP('',(#1368,#1376,#1395,#1401));
#1368 = ORIENTED_EDGE('',*,*,#1369,.F.);
#1369 = EDGE_CURVE('',#1370,#619,#1372,.T.);
#1370 = VERTEX_POINT('',#1371);
#1371 = CARTESIAN_POINT('',(19.475424707065,8.883207271053,4.01));
#1372 = LINE('',#1373,#1374);
#1373 = CARTESIAN_POINT('',(17.5,7.5,4.01));
#1374 = VECTOR('',#1375,1.);
#1375 = DIRECTION('',(0.819152044289,0.573576436351,0.));
#1376 = ORIENTED_EDGE('',*,*,#1377,.T.);
#1377 = EDGE_CURVE('',#1370,#1378,#1380,.T.);
#1378 = VERTEX_POINT('',#1379);
#1379 = CARTESIAN_POINT('',(19.361343466926,9.401506275232,4.5));
#1380 = B_SPLINE_CURVE_WITH_KNOTS('',5,(#1381,#1382,#1383,#1384,#1385,
    #1386,#1387,#1388,#1389,#1390,#1391,#1392,#1393,#1394),
  .UNSPECIFIED.,.F.,.F.,(6,4,4,6),(0.,0.286049939414,0.71773180919,1.),
  .UNSPECIFIED.);
#1381 = CARTESIAN_POINT('',(19.475424707065,8.883207271053,4.01));
#1382 = CARTESIAN_POINT('',(19.475424707065,8.883207271053,
    4.053034092425));
#1383 = CARTESIAN_POINT('',(19.47474301471,8.888497425377,4.096056554633
    ));
#1384 = CARTESIAN_POINT('',(19.473382580648,8.899072688635,
    4.138426505889));
#1385 = CARTESIAN_POINT('',(19.47126452958,8.914742978965,4.179495807813
    ));
#1386 = CARTESIAN_POINT('',(19.463765031437,8.965901203447,
    4.277692592887));
#1387 = CARTESIAN_POINT('',(19.457267845091,9.007442321476,
    4.332400160517));
#1388 = CARTESIAN_POINT('',(19.448391852535,9.058534910678,
    4.380629043273));
#1389 = CARTESIAN_POINT('',(19.436572045588,9.11709283881,4.420366946534
    ));
#1390 = CARTESIAN_POINT('',(19.412083728412,9.222211404139,
    4.469431889452));
#1391 = CARTESIAN_POINT('',(19.401122197723,9.265922644786,
    4.484530220241));
#1392 = CARTESIAN_POINT('',(19.388896233006,9.310959437198,
    4.494818013106));
#1393 = CARTESIAN_POINT('',(19.375545374644,9.356430010115,4.5));
#1394 = CARTESIAN_POINT('',(19.361343466926,9.401506275232,4.5));
#1395 = ORIENTED_EDGE('',*,*,#1396,.T.);
#1396 = EDGE_CURVE('',#1378,#621,#1397,.T.);
#1397 = LINE('',#1398,#1399);
#1398 = CARTESIAN_POINT('',(17.218947546188,7.901384501702,4.5));
#1399 = VECTOR('',#1400,1.);
#1400 = DIRECTION('',(0.819152044289,0.573576436351,0.));
#1401 = ORIENTED_EDGE('',*,*,#618,.F.);
#1402 = CYLINDRICAL_SURFACE('',#1403,0.49);
#1403 = AXIS2_PLACEMENT_3D('',#1404,#1405,#1406);
#1404 = CARTESIAN_POINT('',(17.218947546188,7.901384501702,4.01));
#1405 = DIRECTION('',(0.819152044289,0.573576436351,0.));
#1406 = DIRECTION('',(0.573576436351,-0.819152044289,0.));
#1407 = ADVANCED_FACE('',(#1408),#1426,.T.);
#1408 = FACE_BOUND('',#1409,.T.);
#1409 = EDGE_LOOP('',(#1410,#1411,#1419,#1425));
#1410 = ORIENTED_EDGE('',*,*,#731,.F.);
#1411 = ORIENTED_EDGE('',*,*,#1412,.F.);
#1412 = EDGE_CURVE('',#1413,#713,#1415,.T.);
#1413 = VERTEX_POINT('',#1414);
#1414 = CARTESIAN_POINT('',(19.475424707065,8.883207271053,3.99));
#1415 = LINE('',#1416,#1417);
#1416 = CARTESIAN_POINT('',(17.5,7.5,3.99));
#1417 = VECTOR('',#1418,1.);
#1418 = DIRECTION('',(0.819152044289,0.573576436351,0.));
#1419 = ORIENTED_EDGE('',*,*,#1420,.T.);
#1420 = EDGE_CURVE('',#1413,#1370,#1421,.T.);
#1421 = LINE('',#1422,#1423);
#1422 = CARTESIAN_POINT('',(19.475424707065,8.883207271053,1.));
#1423 = VECTOR('',#1424,1.);
#1424 = DIRECTION('',(0.,0.,1.));
#1425 = ORIENTED_EDGE('',*,*,#1369,.T.);
#1426 = PLANE('',#1427);
#1427 = AXIS2_PLACEMENT_3D('',#1428,#1429,#1430);
#1428 = CARTESIAN_POINT('',(17.5,7.5,3.5));
#1429 = DIRECTION('',(-0.573576436351,0.819152044289,0.));
#1430 = DIRECTION('',(0.,0.,1.));
#1431 = ADVANCED_FACE('',(#1432),#1461,.F.);
#1432 = FACE_BOUND('',#1433,.F.);
#1433 = EDGE_LOOP('',(#1434,#1435,#1454,#1460));
#1434 = ORIENTED_EDGE('',*,*,#1412,.F.);
#1435 = ORIENTED_EDGE('',*,*,#1436,.T.);
#1436 = EDGE_CURVE('',#1413,#1437,#1439,.T.);
#1437 = VERTEX_POINT('',#1438);
#1438 = CARTESIAN_POINT('',(19.361343466926,9.401506275232,3.5));
#1439 = B_SPLINE_CURVE_WITH_KNOTS('',5,(#1440,#1441,#1442,#1443,#1444,
    #1445,#1446,#1447,#1448,#1449,#1450,#1451,#1452,#1453),
  .UNSPECIFIED.,.F.,.F.,(6,4,4,6),(0.,0.286049743334,0.717730116078,1.),
  .UNSPECIFIED.);
#1440 = CARTESIAN_POINT('',(19.475424707065,8.883207271053,3.99));
#1441 = CARTESIAN_POINT('',(19.475424707065,8.883207271053,
    3.946966079855));
#1442 = CARTESIAN_POINT('',(19.474743026055,8.88849738505,3.903943458216
    ));
#1443 = CARTESIAN_POINT('',(19.473382573486,8.899072721906,
    3.861573298307));
#1444 = CARTESIAN_POINT('',(19.471264511713,8.914743100841,3.82050395825
    ));
#1445 = CARTESIAN_POINT('',(19.46376507095,8.96590093391,3.722307924482)
  );
#1446 = CARTESIAN_POINT('',(19.457267860609,9.007442373824,
    3.667599314169));
#1447 = CARTESIAN_POINT('',(19.448391670392,9.058535866449,
    3.619370258008));
#1448 = CARTESIAN_POINT('',(19.436571905427,9.117093440463,3.57963277264
    ));
#1449 = CARTESIAN_POINT('',(19.412083728412,9.222211404139,
    3.530568110548));
#1450 = CARTESIAN_POINT('',(19.401122197723,9.265922644786,
    3.515469779759));
#1451 = CARTESIAN_POINT('',(19.388896233006,9.310959437198,
    3.505181986894));
#1452 = CARTESIAN_POINT('',(19.375545374644,9.356430010115,3.5));
#1453 = CARTESIAN_POINT('',(19.361343466926,9.401506275232,3.5));
#1454 = ORIENTED_EDGE('',*,*,#1455,.T.);
#1455 = EDGE_CURVE('',#1437,#704,#1456,.T.);
#1456 = LINE('',#1457,#1458);
#1457 = CARTESIAN_POINT('',(17.218947546188,7.901384501702,3.5));
#1458 = VECTOR('',#1459,1.);
#1459 = DIRECTION('',(0.819152044289,0.573576436351,0.));
#1460 = ORIENTED_EDGE('',*,*,#712,.F.);
#1461 = CYLINDRICAL_SURFACE('',#1462,0.49);
#1462 = AXIS2_PLACEMENT_3D('',#1463,#1464,#1465);
#1463 = CARTESIAN_POINT('',(17.218947546188,7.901384501702,3.99));
#1464 = DIRECTION('',(0.819152044289,0.573576436351,0.));
#1465 = DIRECTION('',(0.573576436351,-0.819152044289,0.));
#1466 = ADVANCED_FACE('',(#1467),#1486,.F.);
#1467 = FACE_BOUND('',#1468,.F.);
#1468 = EDGE_LOOP('',(#1469,#1478,#1484,#1485));
#1469 = ORIENTED_EDGE('',*,*,#1470,.T.);
#1470 = EDGE_CURVE('',#1437,#1471,#1473,.T.);
#1471 = VERTEX_POINT('',#1472);
#1472 = CARTESIAN_POINT('',(17.026577127644,11.453424542568,3.5));
#1473 = CIRCLE('',#1474,3.);
#1474 = AXIS2_PLACEMENT_3D('',#1475,#1476,#1477);
#1475 = CARTESIAN_POINT('',(16.5,8.5,3.5));
#1476 = DIRECTION('',(0.,0.,1.));
#1477 = DIRECTION('',(1.,0.,-0.));
#1478 = ORIENTED_EDGE('',*,*,#1479,.T.);
#1479 = EDGE_CURVE('',#1471,#682,#1480,.T.);
#1480 = LINE('',#1481,#1482);
#1481 = CARTESIAN_POINT('',(15.486746708408,10.375223675454,3.5));
#1482 = VECTOR('',#1483,1.);
#1483 = DIRECTION('',(0.819152044289,0.573576436351,0.));
#1484 = ORIENTED_EDGE('',*,*,#703,.F.);
#1485 = ORIENTED_EDGE('',*,*,#1455,.F.);
#1486 = PLANE('',#1487);
#1487 = AXIS2_PLACEMENT_3D('',#1488,#1489,#1490);
#1488 = CARTESIAN_POINT('',(17.862898745321,10.184678733225,3.5));
#1489 = DIRECTION('',(-0.,-0.,-1.));
#1490 = DIRECTION('',(-1.,0.,0.));
#1491 = ADVANCED_FACE('',(#1492),#1526,.F.);
#1492 = FACE_BOUND('',#1493,.T.);
#1493 = EDGE_LOOP('',(#1494,#1502,#1511,#1524,#1525));
#1494 = ORIENTED_EDGE('',*,*,#1495,.F.);
#1495 = EDGE_CURVE('',#1496,#674,#1498,.T.);
#1496 = VERTEX_POINT('',#1497);
#1497 = CARTESIAN_POINT('',(16.238804844484,11.5,3.99));
#1498 = LINE('',#1499,#1500);
#1499 = CARTESIAN_POINT('',(15.205694254596,10.776608177156,3.99));
#1500 = VECTOR('',#1501,1.);
#1501 = DIRECTION('',(0.819152044289,0.573576436351,0.));
#1502 = ORIENTED_EDGE('',*,*,#1503,.F.);
#1503 = EDGE_CURVE('',#1504,#1496,#1506,.T.);
#1504 = VERTEX_POINT('',#1505);
#1505 = CARTESIAN_POINT('',(16.5,11.5,3.63733241043));
#1506 = ELLIPSE('',#1507,0.854288929854,0.49);
#1507 = AXIS2_PLACEMENT_3D('',#1508,#1509,#1510);
#1508 = CARTESIAN_POINT('',(17.093093774338,11.5,3.99));
#1509 = DIRECTION('',(0.,1.,0.));
#1510 = DIRECTION('',(1.,-0.,0.));
#1511 = ORIENTED_EDGE('',*,*,#1512,.T.);
#1512 = EDGE_CURVE('',#1504,#1471,#1513,.T.);
#1513 = B_SPLINE_CURVE_WITH_KNOTS('',5,(#1514,#1515,#1516,#1517,#1518,
    #1519,#1520,#1521,#1522,#1523),.UNSPECIFIED.,.F.,.F.,(6,4,6),(0.,
    0.32079368476,1.),.UNSPECIFIED.);
#1514 = CARTESIAN_POINT('',(16.5,11.5,3.63733241043));
#1515 = CARTESIAN_POINT('',(16.530141430623,11.5,3.62065593453));
#1516 = CARTESIAN_POINT('',(16.561358745116,11.499621465516,
    3.605130169191));
#1517 = CARTESIAN_POINT('',(16.593449208752,11.498810283423,
    3.590779939809));
#1518 = CARTESIAN_POINT('',(16.626253999668,11.497528693273,
    3.577632637916));
#1519 = CARTESIAN_POINT('',(16.730352670898,11.491981110778,
    3.540509575343));
#1520 = CARTESIAN_POINT('',(16.803797180132,11.485975110401,
    3.520811724449));
#1521 = CARTESIAN_POINT('',(16.878467952393,11.477475324218,
    3.507126475192));
#1522 = CARTESIAN_POINT('',(16.953127180343,11.466520209363,
    3.499999998525));
#1523 = CARTESIAN_POINT('',(17.02657714665,11.453424539179,3.5));
#1524 = ORIENTED_EDGE('',*,*,#1479,.T.);
#1525 = ORIENTED_EDGE('',*,*,#681,.F.);
#1526 = CYLINDRICAL_SURFACE('',#1527,0.49);
#1527 = AXIS2_PLACEMENT_3D('',#1528,#1529,#1530);
#1528 = CARTESIAN_POINT('',(15.486746708408,10.375223675454,3.99));
#1529 = DIRECTION('',(0.819152044289,0.573576436351,0.));
#1530 = DIRECTION('',(-0.573576436351,0.819152044289,0.));
#1531 = ADVANCED_FACE('',(#1532),#1550,.F.);
#1532 = FACE_BOUND('',#1533,.F.);
#1533 = EDGE_LOOP('',(#1534,#1535,#1536,#1544));
#1534 = ORIENTED_EDGE('',*,*,#673,.F.);
#1535 = ORIENTED_EDGE('',*,*,#1495,.F.);
#1536 = ORIENTED_EDGE('',*,*,#1537,.T.);
#1537 = EDGE_CURVE('',#1496,#1538,#1540,.T.);
#1538 = VERTEX_POINT('',#1539);
#1539 = CARTESIAN_POINT('',(16.238804844484,11.5,4.01));
#1540 = LINE('',#1541,#1542);
#1541 = CARTESIAN_POINT('',(16.238804844484,11.5,2.25));
#1542 = VECTOR('',#1543,1.);
#1543 = DIRECTION('',(0.,-0.,1.));
#1544 = ORIENTED_EDGE('',*,*,#1545,.T.);
#1545 = EDGE_CURVE('',#1538,#652,#1546,.T.);
#1546 = LINE('',#1547,#1548);
#1547 = CARTESIAN_POINT('',(15.205694254596,10.776608177156,4.01));
#1548 = VECTOR('',#1549,1.);
#1549 = DIRECTION('',(0.819152044289,0.573576436351,0.));
#1550 = PLANE('',#1551);
#1551 = AXIS2_PLACEMENT_3D('',#1552,#1553,#1554);
#1552 = CARTESIAN_POINT('',(15.205694254596,10.776608177156,3.5));
#1553 = DIRECTION('',(-0.573576436351,0.819152044289,0.));
#1554 = DIRECTION('',(0.,0.,1.));
#1555 = ADVANCED_FACE('',(#1556),#1590,.F.);
#1556 = FACE_BOUND('',#1557,.F.);
#1557 = EDGE_LOOP('',(#1558,#1559,#1568,#1583,#1589));
#1558 = ORIENTED_EDGE('',*,*,#1545,.F.);
#1559 = ORIENTED_EDGE('',*,*,#1560,.T.);
#1560 = EDGE_CURVE('',#1538,#1561,#1563,.T.);
#1561 = VERTEX_POINT('',#1562);
#1562 = CARTESIAN_POINT('',(16.5,11.5,4.36266758957));
#1563 = ELLIPSE('',#1564,0.854288929854,0.49);
#1564 = AXIS2_PLACEMENT_3D('',#1565,#1566,#1567);
#1565 = CARTESIAN_POINT('',(17.093093774338,11.5,4.01));
#1566 = DIRECTION('',(0.,1.,0.));
#1567 = DIRECTION('',(1.,-0.,0.));
#1568 = ORIENTED_EDGE('',*,*,#1569,.T.);
#1569 = EDGE_CURVE('',#1561,#1570,#1572,.T.);
#1570 = VERTEX_POINT('',#1571);
#1571 = CARTESIAN_POINT('',(17.026577127644,11.453424542568,4.5));
#1572 = B_SPLINE_CURVE_WITH_KNOTS('',5,(#1573,#1574,#1575,#1576,#1577,
    #1578,#1579,#1580,#1581,#1582),.UNSPECIFIED.,.F.,.F.,(6,4,6),(0.,
    0.320793690308,1.),.UNSPECIFIED.);
#1573 = CARTESIAN_POINT('',(16.5,11.5,4.36266758957));
#1574 = CARTESIAN_POINT('',(16.530141430086,11.5,4.379344065173));
#1575 = CARTESIAN_POINT('',(16.561358744004,11.499621465529,
    4.394869830256));
#1576 = CARTESIAN_POINT('',(16.593449207037,11.498810283467,
    4.409220059424));
#1577 = CARTESIAN_POINT('',(16.62625399733,11.497528693365,
    4.422367361147));
#1578 = CARTESIAN_POINT('',(16.730352664777,11.491981111175,
    4.459490422692));
#1579 = CARTESIAN_POINT('',(16.803797170644,11.485975111237,
    4.479188273165));
#1580 = CARTESIAN_POINT('',(16.878467939524,11.477475325724,
    4.49287352256));
#1581 = CARTESIAN_POINT('',(16.953127164247,11.466520211746,4.5));
#1582 = CARTESIAN_POINT('',(17.026577127644,11.453424542568,4.5));
#1583 = ORIENTED_EDGE('',*,*,#1584,.T.);
#1584 = EDGE_CURVE('',#1570,#643,#1585,.T.);
#1585 = LINE('',#1586,#1587);
#1586 = CARTESIAN_POINT('',(15.486746708408,10.375223675454,4.5));
#1587 = VECTOR('',#1588,1.);
#1588 = DIRECTION('',(0.819152044289,0.573576436351,0.));
#1589 = ORIENTED_EDGE('',*,*,#651,.F.);
#1590 = CYLINDRICAL_SURFACE('',#1591,0.49);
#1591 = AXIS2_PLACEMENT_3D('',#1592,#1593,#1594);
#1592 = CARTESIAN_POINT('',(15.486746708408,10.375223675454,4.01));
#1593 = DIRECTION('',(0.819152044289,0.573576436351,0.));
#1594 = DIRECTION('',(-0.573576436351,0.819152044289,0.));
#1595 = ADVANCED_FACE('',(#1596),#1608,.F.);
#1596 = FACE_BOUND('',#1597,.F.);
#1597 = EDGE_LOOP('',(#1598,#1605,#1606,#1607));
#1598 = ORIENTED_EDGE('',*,*,#1599,.F.);
#1599 = EDGE_CURVE('',#1378,#1570,#1600,.T.);
#1600 = CIRCLE('',#1601,3.);
#1601 = AXIS2_PLACEMENT_3D('',#1602,#1603,#1604);
#1602 = CARTESIAN_POINT('',(16.5,8.5,4.5));
#1603 = DIRECTION('',(0.,0.,1.));
#1604 = DIRECTION('',(1.,0.,-0.));
#1605 = ORIENTED_EDGE('',*,*,#1396,.T.);
#1606 = ORIENTED_EDGE('',*,*,#642,.T.);
#1607 = ORIENTED_EDGE('',*,*,#1584,.F.);
#1608 = PLANE('',#1609);
#1609 = AXIS2_PLACEMENT_3D('',#1610,#1611,#1612);
#1610 = CARTESIAN_POINT('',(17.5,7.5,4.5));
#1611 = DIRECTION('',(0.,0.,1.));
#1612 = DIRECTION('',(0.819152044289,0.573576436351,0.));
#1613 = ADVANCED_FACE('',(#1614),#1666,.F.);
#1614 = FACE_BOUND('',#1615,.T.);
#1615 = EDGE_LOOP('',(#1616,#1617,#1625,#1634,#1643,#1651,#1660));
#1616 = ORIENTED_EDGE('',*,*,#751,.F.);
#1617 = ORIENTED_EDGE('',*,*,#1618,.T.);
#1618 = EDGE_CURVE('',#752,#1619,#1621,.T.);
#1619 = VERTEX_POINT('',#1620);
#1620 = CARTESIAN_POINT('',(20.,-2.9,1.604006420562));
#1621 = LINE('',#1622,#1623);
#1622 = CARTESIAN_POINT('',(14.,-2.9,1.604006420562));
#1623 = VECTOR('',#1624,1.);
#1624 = DIRECTION('',(-1.,-0.,-2.22044604925E-16));
#1625 = ORIENTED_EDGE('',*,*,#1626,.T.);
#1626 = EDGE_CURVE('',#1619,#1627,#1629,.T.);
#1627 = VERTEX_POINT('',#1628);
#1628 = CARTESIAN_POINT('',(20.,-3.,1.6));
#1629 = CIRCLE('',#1630,1.25);
#1630 = AXIS2_PLACEMENT_3D('',#1631,#1632,#1633);
#1631 = CARTESIAN_POINT('',(20.,-3.,2.85));
#1632 = DIRECTION('',(-1.,-0.,-2.22044604925E-16));
#1633 = DIRECTION('',(2.22044604925E-16,0.,-1.));
#1634 = ORIENTED_EDGE('',*,*,#1635,.T.);
#1635 = EDGE_CURVE('',#1627,#1636,#1638,.T.);
#1636 = VERTEX_POINT('',#1637);
#1637 = CARTESIAN_POINT('',(20.,-4.24,2.692202661619));
#1638 = CIRCLE('',#1639,1.25);
#1639 = AXIS2_PLACEMENT_3D('',#1640,#1641,#1642);
#1640 = CARTESIAN_POINT('',(20.,-3.,2.85));
#1641 = DIRECTION('',(-1.,-0.,-2.22044604925E-16));
#1642 = DIRECTION('',(2.22044604925E-16,0.,-1.));
#1643 = ORIENTED_EDGE('',*,*,#1644,.T.);
#1644 = EDGE_CURVE('',#1636,#1645,#1647,.T.);
#1645 = VERTEX_POINT('',#1646);
#1646 = CARTESIAN_POINT('',(19.5,-4.24,2.692202661619));
#1647 = LINE('',#1648,#1649);
#1648 = CARTESIAN_POINT('',(14.,-4.24,2.692202661619));
#1649 = VECTOR('',#1650,1.);
#1650 = DIRECTION('',(-1.,-0.,-2.22044604925E-16));
#1651 = ORIENTED_EDGE('',*,*,#1652,.T.);
#1652 = EDGE_CURVE('',#1645,#1653,#1655,.T.);
#1653 = VERTEX_POINT('',#1654);
#1654 = CARTESIAN_POINT('',(19.5,-2.9,4.095993579438));
#1655 = CIRCLE('',#1656,1.25);
#1656 = AXIS2_PLACEMENT_3D('',#1657,#1658,#1659);
#1657 = CARTESIAN_POINT('',(19.5,-3.,2.85));
#1658 = DIRECTION('',(-1.,-0.,-2.22044604925E-16));
#1659 = DIRECTION('',(2.22044604925E-16,0.,-1.));
#1660 = ORIENTED_EDGE('',*,*,#1661,.F.);
#1661 = EDGE_CURVE('',#754,#1653,#1662,.T.);
#1662 = LINE('',#1663,#1664);
#1663 = CARTESIAN_POINT('',(14.,-2.9,4.095993579438));
#1664 = VECTOR('',#1665,1.);
#1665 = DIRECTION('',(-1.,-0.,-2.22044604925E-16));
#1666 = CYLINDRICAL_SURFACE('',#1667,1.25);
#1667 = AXIS2_PLACEMENT_3D('',#1668,#1669,#1670);
#1668 = CARTESIAN_POINT('',(14.,-3.,2.85));
#1669 = DIRECTION('',(-1.,-0.,-2.22044604925E-16));
#1670 = DIRECTION('',(2.22044604925E-16,0.,-1.));
#1671 = ADVANCED_FACE('',(#1672),#1690,.T.);
#1672 = FACE_BOUND('',#1673,.T.);
#1673 = EDGE_LOOP('',(#1674,#1682,#1688,#1689));
#1674 = ORIENTED_EDGE('',*,*,#1675,.F.);
#1675 = EDGE_CURVE('',#1676,#804,#1678,.T.);
#1676 = VERTEX_POINT('',#1677);
#1677 = CARTESIAN_POINT('',(20.,-2.9,1.6));
#1678 = LINE('',#1679,#1680);
#1679 = CARTESIAN_POINT('',(14.,-2.9,1.6));
#1680 = VECTOR('',#1681,1.);
#1681 = DIRECTION('',(1.,0.,0.));
#1682 = ORIENTED_EDGE('',*,*,#1683,.F.);
#1683 = EDGE_CURVE('',#1619,#1676,#1684,.T.);
#1684 = LINE('',#1685,#1686);
#1685 = CARTESIAN_POINT('',(20.,-2.9,1.6));
#1686 = VECTOR('',#1687,1.);
#1687 = DIRECTION('',(0.,0.,-1.));
#1688 = ORIENTED_EDGE('',*,*,#1618,.F.);
#1689 = ORIENTED_EDGE('',*,*,#811,.F.);
#1690 = PLANE('',#1691);
#1691 = AXIS2_PLACEMENT_3D('',#1692,#1693,#1694);
#1692 = CARTESIAN_POINT('',(14.,-2.9,1.6));
#1693 = DIRECTION('',(0.,1.,0.));
#1694 = DIRECTION('',(0.,0.,1.));
#1695 = ADVANCED_FACE('',(#1696),#1714,.F.);
#1696 = FACE_BOUND('',#1697,.F.);
#1697 = EDGE_LOOP('',(#1698,#1706,#1712,#1713));
#1698 = ORIENTED_EDGE('',*,*,#1699,.T.);
#1699 = EDGE_CURVE('',#1676,#1700,#1702,.T.);
#1700 = VERTEX_POINT('',#1701);
#1701 = CARTESIAN_POINT('',(20.,2.9,1.6));
#1702 = LINE('',#1703,#1704);
#1703 = CARTESIAN_POINT('',(20.,-12.,1.6));
#1704 = VECTOR('',#1705,1.);
#1705 = DIRECTION('',(0.,1.,0.));
#1706 = ORIENTED_EDGE('',*,*,#1707,.T.);
#1707 = EDGE_CURVE('',#1700,#796,#1708,.T.);
#1708 = LINE('',#1709,#1710);
#1709 = CARTESIAN_POINT('',(14.,2.9,1.6));
#1710 = VECTOR('',#1711,1.);
#1711 = DIRECTION('',(1.,0.,0.));
#1712 = ORIENTED_EDGE('',*,*,#803,.F.);
#1713 = ORIENTED_EDGE('',*,*,#1675,.F.);
#1714 = PLANE('',#1715);
#1715 = AXIS2_PLACEMENT_3D('',#1716,#1717,#1718);
#1716 = CARTESIAN_POINT('',(20.553016453382,-8.118632721208E-17,1.6));
#1717 = DIRECTION('',(-0.,-0.,-1.));
#1718 = DIRECTION('',(-1.,0.,0.));
#1719 = ADVANCED_FACE('',(#1720),#1738,.F.);
#1720 = FACE_BOUND('',#1721,.F.);
#1721 = EDGE_LOOP('',(#1722,#1723,#1731,#1737));
#1722 = ORIENTED_EDGE('',*,*,#1707,.F.);
#1723 = ORIENTED_EDGE('',*,*,#1724,.F.);
#1724 = EDGE_CURVE('',#1725,#1700,#1727,.T.);
#1725 = VERTEX_POINT('',#1726);
#1726 = CARTESIAN_POINT('',(20.,2.9,1.604006420562));
#1727 = LINE('',#1728,#1729);
#1728 = CARTESIAN_POINT('',(20.,2.9,1.6));
#1729 = VECTOR('',#1730,1.);
#1730 = DIRECTION('',(0.,0.,-1.));
#1731 = ORIENTED_EDGE('',*,*,#1732,.F.);
#1732 = EDGE_CURVE('',#787,#1725,#1733,.T.);
#1733 = LINE('',#1734,#1735);
#1734 = CARTESIAN_POINT('',(14.,2.9,1.604006420562));
#1735 = VECTOR('',#1736,1.);
#1736 = DIRECTION('',(-1.,-0.,-2.22044604925E-16));
#1737 = ORIENTED_EDGE('',*,*,#795,.F.);
#1738 = PLANE('',#1739);
#1739 = AXIS2_PLACEMENT_3D('',#1740,#1741,#1742);
#1740 = CARTESIAN_POINT('',(14.,2.9,1.6));
#1741 = DIRECTION('',(0.,1.,0.));
#1742 = DIRECTION('',(0.,0.,1.));
#1743 = ADVANCED_FACE('',(#1744),#1789,.F.);
#1744 = FACE_BOUND('',#1745,.T.);
#1745 = EDGE_LOOP('',(#1746,#1757,#1765,#1774,#1781,#1782,#1783));
#1746 = ORIENTED_EDGE('',*,*,#1747,.T.);
#1747 = EDGE_CURVE('',#1748,#1750,#1752,.T.);
#1748 = VERTEX_POINT('',#1749);
#1749 = CARTESIAN_POINT('',(19.5,2.9,4.095993579438));
#1750 = VERTEX_POINT('',#1751);
#1751 = CARTESIAN_POINT('',(19.5,4.24,2.692202661619));
#1752 = CIRCLE('',#1753,1.25);
#1753 = AXIS2_PLACEMENT_3D('',#1754,#1755,#1756);
#1754 = CARTESIAN_POINT('',(19.5,3.,2.85));
#1755 = DIRECTION('',(-1.,-0.,-2.22044604925E-16));
#1756 = DIRECTION('',(2.22044604925E-16,0.,-1.));
#1757 = ORIENTED_EDGE('',*,*,#1758,.F.);
#1758 = EDGE_CURVE('',#1759,#1750,#1761,.T.);
#1759 = VERTEX_POINT('',#1760);
#1760 = CARTESIAN_POINT('',(20.,4.24,2.692202661619));
#1761 = LINE('',#1762,#1763);
#1762 = CARTESIAN_POINT('',(14.,4.24,2.692202661619));
#1763 = VECTOR('',#1764,1.);
#1764 = DIRECTION('',(-1.,-0.,-2.22044604925E-16));
#1765 = ORIENTED_EDGE('',*,*,#1766,.T.);
#1766 = EDGE_CURVE('',#1759,#1767,#1769,.T.);
#1767 = VERTEX_POINT('',#1768);
#1768 = CARTESIAN_POINT('',(20.,3.,1.6));
#1769 = CIRCLE('',#1770,1.25);
#1770 = AXIS2_PLACEMENT_3D('',#1771,#1772,#1773);
#1771 = CARTESIAN_POINT('',(20.,3.,2.85));
#1772 = DIRECTION('',(-1.,-0.,-2.22044604925E-16));
#1773 = DIRECTION('',(2.22044604925E-16,0.,-1.));
#1774 = ORIENTED_EDGE('',*,*,#1775,.T.);
#1775 = EDGE_CURVE('',#1767,#1725,#1776,.T.);
#1776 = CIRCLE('',#1777,1.25);
#1777 = AXIS2_PLACEMENT_3D('',#1778,#1779,#1780);
#1778 = CARTESIAN_POINT('',(20.,3.,2.85));
#1779 = DIRECTION('',(-1.,-0.,-2.22044604925E-16));
#1780 = DIRECTION('',(2.22044604925E-16,0.,-1.));
#1781 = ORIENTED_EDGE('',*,*,#1732,.F.);
#1782 = ORIENTED_EDGE('',*,*,#786,.F.);
#1783 = ORIENTED_EDGE('',*,*,#1784,.T.);
#1784 = EDGE_CURVE('',#779,#1748,#1785,.T.);
#1785 = LINE('',#1786,#1787);
#1786 = CARTESIAN_POINT('',(14.,2.9,4.095993579438));
#1787 = VECTOR('',#1788,1.);
#1788 = DIRECTION('',(-1.,-0.,-2.22044604925E-16));
#1789 = CYLINDRICAL_SURFACE('',#1790,1.25);
#1790 = AXIS2_PLACEMENT_3D('',#1791,#1792,#1793);
#1791 = CARTESIAN_POINT('',(14.,3.,2.85));
#1792 = DIRECTION('',(-1.,-0.,-2.22044604925E-16));
#1793 = DIRECTION('',(2.22044604925E-16,0.,-1.));
#1794 = ADVANCED_FACE('',(#1795),#1813,.F.);
#1795 = FACE_BOUND('',#1796,.F.);
#1796 = EDGE_LOOP('',(#1797,#1798,#1799,#1807));
#1797 = ORIENTED_EDGE('',*,*,#778,.F.);
#1798 = ORIENTED_EDGE('',*,*,#1784,.T.);
#1799 = ORIENTED_EDGE('',*,*,#1800,.T.);
#1800 = EDGE_CURVE('',#1748,#1801,#1803,.T.);
#1801 = VERTEX_POINT('',#1802);
#1802 = CARTESIAN_POINT('',(19.5,2.9,4.1));
#1803 = LINE('',#1804,#1805);
#1804 = CARTESIAN_POINT('',(19.5,2.9,1.3));
#1805 = VECTOR('',#1806,1.);
#1806 = DIRECTION('',(0.,0.,1.));
#1807 = ORIENTED_EDGE('',*,*,#1808,.T.);
#1808 = EDGE_CURVE('',#1801,#771,#1809,.T.);
#1809 = LINE('',#1810,#1811);
#1810 = CARTESIAN_POINT('',(14.,2.9,4.1));
#1811 = VECTOR('',#1812,1.);
#1812 = DIRECTION('',(1.,0.,0.));
#1813 = PLANE('',#1814);
#1814 = AXIS2_PLACEMENT_3D('',#1815,#1816,#1817);
#1815 = CARTESIAN_POINT('',(14.,2.9,1.6));
#1816 = DIRECTION('',(0.,1.,0.));
#1817 = DIRECTION('',(0.,0.,1.));
#1818 = ADVANCED_FACE('',(#1819),#1837,.F.);
#1819 = FACE_BOUND('',#1820,.F.);
#1820 = EDGE_LOOP('',(#1821,#1822,#1830,#1836));
#1821 = ORIENTED_EDGE('',*,*,#1808,.F.);
#1822 = ORIENTED_EDGE('',*,*,#1823,.T.);
#1823 = EDGE_CURVE('',#1801,#1824,#1826,.T.);
#1824 = VERTEX_POINT('',#1825);
#1825 = CARTESIAN_POINT('',(19.5,-2.9,4.1));
#1826 = LINE('',#1827,#1828);
#1827 = CARTESIAN_POINT('',(19.5,-7.2,4.1));
#1828 = VECTOR('',#1829,1.);
#1829 = DIRECTION('',(0.,-1.,0.));
#1830 = ORIENTED_EDGE('',*,*,#1831,.T.);
#1831 = EDGE_CURVE('',#1824,#763,#1832,.T.);
#1832 = LINE('',#1833,#1834);
#1833 = CARTESIAN_POINT('',(14.,-2.9,4.1));
#1834 = VECTOR('',#1835,1.);
#1835 = DIRECTION('',(1.,0.,0.));
#1836 = ORIENTED_EDGE('',*,*,#770,.F.);
#1837 = PLANE('',#1838);
#1838 = AXIS2_PLACEMENT_3D('',#1839,#1840,#1841);
#1839 = CARTESIAN_POINT('',(14.,-2.9,4.1));
#1840 = DIRECTION('',(0.,0.,1.));
#1841 = DIRECTION('',(1.,0.,0.));
#1842 = ADVANCED_FACE('',(#1843),#1854,.T.);
#1843 = FACE_BOUND('',#1844,.T.);
#1844 = EDGE_LOOP('',(#1845,#1846,#1847,#1853));
#1845 = ORIENTED_EDGE('',*,*,#762,.F.);
#1846 = ORIENTED_EDGE('',*,*,#1661,.T.);
#1847 = ORIENTED_EDGE('',*,*,#1848,.T.);
#1848 = EDGE_CURVE('',#1653,#1824,#1849,.T.);
#1849 = LINE('',#1850,#1851);
#1850 = CARTESIAN_POINT('',(19.5,-2.9,1.3));
#1851 = VECTOR('',#1852,1.);
#1852 = DIRECTION('',(0.,0.,1.));
#1853 = ORIENTED_EDGE('',*,*,#1831,.T.);
#1854 = PLANE('',#1855);
#1855 = AXIS2_PLACEMENT_3D('',#1856,#1857,#1858);
#1856 = CARTESIAN_POINT('',(14.,-2.9,1.6));
#1857 = DIRECTION('',(0.,1.,0.));
#1858 = DIRECTION('',(0.,0.,1.));
#1859 = ADVANCED_FACE('',(#1860,#1921),#1924,.F.);
#1860 = FACE_BOUND('',#1861,.F.);
#1861 = EDGE_LOOP('',(#1862,#1863,#1872,#1880,#1889,#1897,#1906,#1914));
#1862 = ORIENTED_EDGE('',*,*,#1168,.F.);
#1863 = ORIENTED_EDGE('',*,*,#1864,.T.);
#1864 = EDGE_CURVE('',#1169,#1865,#1867,.T.);
#1865 = VERTEX_POINT('',#1866);
#1866 = CARTESIAN_POINT('',(-16.5,-11.5,5.));
#1867 = CIRCLE('',#1868,3.);
#1868 = AXIS2_PLACEMENT_3D('',#1869,#1870,#1871);
#1869 = CARTESIAN_POINT('',(-16.5,-8.5,5.));
#1870 = DIRECTION('',(-0.,0.,1.));
#1871 = DIRECTION('',(0.,-1.,0.));
#1872 = ORIENTED_EDGE('',*,*,#1873,.T.);
#1873 = EDGE_CURVE('',#1865,#1874,#1876,.T.);
#1874 = VERTEX_POINT('',#1875);
#1875 = CARTESIAN_POINT('',(16.5,-11.5,5.));
#1876 = LINE('',#1877,#1878);
#1877 = CARTESIAN_POINT('',(-19.5,-11.5,5.));
#1878 = VECTOR('',#1879,1.);
#1879 = DIRECTION('',(1.,0.,0.));
#1880 = ORIENTED_EDGE('',*,*,#1881,.F.);
#1881 = EDGE_CURVE('',#1882,#1874,#1884,.T.);
#1882 = VERTEX_POINT('',#1883);
#1883 = CARTESIAN_POINT('',(19.5,-8.5,5.));
#1884 = CIRCLE('',#1885,3.);
#1885 = AXIS2_PLACEMENT_3D('',#1886,#1887,#1888);
#1886 = CARTESIAN_POINT('',(16.5,-8.5,5.));
#1887 = DIRECTION('',(-0.,-0.,-1.));
#1888 = DIRECTION('',(0.,-1.,0.));
#1889 = ORIENTED_EDGE('',*,*,#1890,.T.);
#1890 = EDGE_CURVE('',#1882,#1891,#1893,.T.);
#1891 = VERTEX_POINT('',#1892);
#1892 = CARTESIAN_POINT('',(19.5,8.5,5.));
#1893 = LINE('',#1894,#1895);
#1894 = CARTESIAN_POINT('',(19.5,-11.5,5.));
#1895 = VECTOR('',#1896,1.);
#1896 = DIRECTION('',(0.,1.,0.));
#1897 = ORIENTED_EDGE('',*,*,#1898,.T.);
#1898 = EDGE_CURVE('',#1891,#1899,#1901,.T.);
#1899 = VERTEX_POINT('',#1900);
#1900 = CARTESIAN_POINT('',(16.5,11.5,5.));
#1901 = CIRCLE('',#1902,3.);
#1902 = AXIS2_PLACEMENT_3D('',#1903,#1904,#1905);
#1903 = CARTESIAN_POINT('',(16.5,8.5,5.));
#1904 = DIRECTION('',(-0.,0.,1.));
#1905 = DIRECTION('',(0.,-1.,0.));
#1906 = ORIENTED_EDGE('',*,*,#1907,.F.);
#1907 = EDGE_CURVE('',#1908,#1899,#1910,.T.);
#1908 = VERTEX_POINT('',#1909);
#1909 = CARTESIAN_POINT('',(-16.5,11.5,5.));
#1910 = LINE('',#1911,#1912);
#1911 = CARTESIAN_POINT('',(-19.5,11.5,5.));
#1912 = VECTOR('',#1913,1.);
#1913 = DIRECTION('',(1.,0.,0.));
#1914 = ORIENTED_EDGE('',*,*,#1915,.F.);
#1915 = EDGE_CURVE('',#1171,#1908,#1916,.T.);
#1916 = CIRCLE('',#1917,3.);
#1917 = AXIS2_PLACEMENT_3D('',#1918,#1919,#1920);
#1918 = CARTESIAN_POINT('',(-16.5,8.5,5.));
#1919 = DIRECTION('',(-0.,-0.,-1.));
#1920 = DIRECTION('',(0.,-1.,0.));
#1921 = FACE_BOUND('',#1922,.F.);
#1922 = EDGE_LOOP('',(#1923));
#1923 = ORIENTED_EDGE('',*,*,#825,.F.);
#1924 = PLANE('',#1925);
#1925 = AXIS2_PLACEMENT_3D('',#1926,#1927,#1928);
#1926 = CARTESIAN_POINT('',(-19.5,-11.5,5.));
#1927 = DIRECTION('',(0.,0.,1.));
#1928 = DIRECTION('',(1.,0.,0.));
#1929 = ADVANCED_FACE('',(#1930),#1952,.F.);
#1930 = FACE_BOUND('',#1931,.F.);
#1931 = EDGE_LOOP('',(#1932,#1933,#1942,#1948,#1949,#1950,#1951));
#1932 = ORIENTED_EDGE('',*,*,#938,.T.);
#1933 = ORIENTED_EDGE('',*,*,#1934,.F.);
#1934 = EDGE_CURVE('',#1935,#931,#1937,.T.);
#1935 = VERTEX_POINT('',#1936);
#1936 = CARTESIAN_POINT('',(16.5,-11.5,2.5));
#1937 = CIRCLE('',#1938,3.);
#1938 = AXIS2_PLACEMENT_3D('',#1939,#1940,#1941);
#1939 = CARTESIAN_POINT('',(16.5,-8.5,2.5));
#1940 = DIRECTION('',(0.,0.,1.));
#1941 = DIRECTION('',(1.,0.,-0.));
#1942 = ORIENTED_EDGE('',*,*,#1943,.F.);
#1943 = EDGE_CURVE('',#1331,#1935,#1944,.T.);
#1944 = LINE('',#1945,#1946);
#1945 = CARTESIAN_POINT('',(-3.86,-11.5,2.5));
#1946 = VECTOR('',#1947,1.);
#1947 = DIRECTION('',(1.,0.,0.));
#1948 = ORIENTED_EDGE('',*,*,#1338,.F.);
#1949 = ORIENTED_EDGE('',*,*,#1354,.T.);
#1950 = ORIENTED_EDGE('',*,*,#873,.F.);
#1951 = ORIENTED_EDGE('',*,*,#898,.T.);
#1952 = PLANE('',#1953);
#1953 = AXIS2_PLACEMENT_3D('',#1954,#1955,#1956);
#1954 = CARTESIAN_POINT('',(11.78,-12.1,2.5));
#1955 = DIRECTION('',(0.,0.,1.));
#1956 = DIRECTION('',(1.,0.,0.));
#1957 = ADVANCED_FACE('',(#1958),#1984,.F.);
#1958 = FACE_BOUND('',#1959,.T.);
#1959 = EDGE_LOOP('',(#1960,#1968,#1975,#1976,#1977,#1983));
#1960 = ORIENTED_EDGE('',*,*,#1961,.F.);
#1961 = EDGE_CURVE('',#1962,#1882,#1964,.T.);
#1962 = VERTEX_POINT('',#1963);
#1963 = CARTESIAN_POINT('',(19.5,-8.5,1.6));
#1964 = LINE('',#1965,#1966);
#1965 = CARTESIAN_POINT('',(19.5,-8.5,1.));
#1966 = VECTOR('',#1967,1.);
#1967 = DIRECTION('',(0.,0.,1.));
#1968 = ORIENTED_EDGE('',*,*,#1969,.F.);
#1969 = EDGE_CURVE('',#923,#1962,#1970,.T.);
#1970 = CIRCLE('',#1971,3.);
#1971 = AXIS2_PLACEMENT_3D('',#1972,#1973,#1974);
#1972 = CARTESIAN_POINT('',(16.5,-8.5,1.6));
#1973 = DIRECTION('',(0.,0.,1.));
#1974 = DIRECTION('',(1.,0.,0.));
#1975 = ORIENTED_EDGE('',*,*,#930,.T.);
#1976 = ORIENTED_EDGE('',*,*,#1934,.F.);
#1977 = ORIENTED_EDGE('',*,*,#1978,.T.);
#1978 = EDGE_CURVE('',#1935,#1874,#1979,.T.);
#1979 = LINE('',#1980,#1981);
#1980 = CARTESIAN_POINT('',(16.5,-11.5,1.));
#1981 = VECTOR('',#1982,1.);
#1982 = DIRECTION('',(0.,0.,1.));
#1983 = ORIENTED_EDGE('',*,*,#1881,.F.);
#1984 = CYLINDRICAL_SURFACE('',#1985,3.);
#1985 = AXIS2_PLACEMENT_3D('',#1986,#1987,#1988);
#1986 = CARTESIAN_POINT('',(16.5,-8.5,1.));
#1987 = DIRECTION('',(0.,0.,1.));
#1988 = DIRECTION('',(1.,0.,0.));
#1989 = ADVANCED_FACE('',(#1990),#2018,.F.);
#1990 = FACE_BOUND('',#1991,.F.);
#1991 = EDGE_LOOP('',(#1992,#1993,#1994,#1995,#2003,#2011,#2017));
#1992 = ORIENTED_EDGE('',*,*,#922,.F.);
#1993 = ORIENTED_EDGE('',*,*,#962,.T.);
#1994 = ORIENTED_EDGE('',*,*,#986,.F.);
#1995 = ORIENTED_EDGE('',*,*,#1996,.T.);
#1996 = EDGE_CURVE('',#977,#1997,#1999,.T.);
#1997 = VERTEX_POINT('',#1998);
#1998 = CARTESIAN_POINT('',(20.,-4.24,1.6));
#1999 = LINE('',#2000,#2001);
#2000 = CARTESIAN_POINT('',(20.,-12.,1.6));
#2001 = VECTOR('',#2002,1.);
#2002 = DIRECTION('',(0.,1.,0.));
#2003 = ORIENTED_EDGE('',*,*,#2004,.F.);
#2004 = EDGE_CURVE('',#2005,#1997,#2007,.T.);
#2005 = VERTEX_POINT('',#2006);
#2006 = CARTESIAN_POINT('',(19.5,-4.24,1.6));
#2007 = LINE('',#2008,#2009);
#2008 = CARTESIAN_POINT('',(19.,-4.24,1.6));
#2009 = VECTOR('',#2010,1.);
#2010 = DIRECTION('',(1.,0.,0.));
#2011 = ORIENTED_EDGE('',*,*,#2012,.T.);
#2012 = EDGE_CURVE('',#2005,#1962,#2013,.T.);
#2013 = LINE('',#2014,#2015);
#2014 = CARTESIAN_POINT('',(19.5,-11.75,1.6));
#2015 = VECTOR('',#2016,1.);
#2016 = DIRECTION('',(0.,-1.,0.));
#2017 = ORIENTED_EDGE('',*,*,#1969,.F.);
#2018 = PLANE('',#2019);
#2019 = AXIS2_PLACEMENT_3D('',#2020,#2021,#2022);
#2020 = CARTESIAN_POINT('',(-20.,-12.,1.6));
#2021 = DIRECTION('',(0.,0.,1.));
#2022 = DIRECTION('',(1.,0.,0.));
#2023 = ADVANCED_FACE('',(#2024),#2040,.F.);
#2024 = FACE_BOUND('',#2025,.F.);
#2025 = EDGE_LOOP('',(#2026,#2032,#2033,#2039));
#2026 = ORIENTED_EDGE('',*,*,#2027,.F.);
#2027 = EDGE_CURVE('',#1144,#1759,#2028,.T.);
#2028 = LINE('',#2029,#2030);
#2029 = CARTESIAN_POINT('',(20.,4.24,1.6));
#2030 = VECTOR('',#2031,1.);
#2031 = DIRECTION('',(0.,0.,1.));
#2032 = ORIENTED_EDGE('',*,*,#1143,.F.);
#2033 = ORIENTED_EDGE('',*,*,#2034,.T.);
#2034 = EDGE_CURVE('',#1136,#1750,#2035,.T.);
#2035 = LINE('',#2036,#2037);
#2036 = CARTESIAN_POINT('',(19.5,4.24,1.3));
#2037 = VECTOR('',#2038,1.);
#2038 = DIRECTION('',(0.,0.,1.));
#2039 = ORIENTED_EDGE('',*,*,#1758,.F.);
#2040 = PLANE('',#2041);
#2041 = AXIS2_PLACEMENT_3D('',#2042,#2043,#2044);
#2042 = CARTESIAN_POINT('',(19.,4.24,1.6));
#2043 = DIRECTION('',(0.,1.,0.));
#2044 = DIRECTION('',(0.,0.,1.));
#2045 = ADVANCED_FACE('',(#2046),#2070,.F.);
#2046 = FACE_BOUND('',#2047,.F.);
#2047 = EDGE_LOOP('',(#2048,#2049,#2050,#2051,#2057,#2058,#2059,#2060,
    #2061,#2062,#2063,#2064));
#2048 = ORIENTED_EDGE('',*,*,#1890,.F.);
#2049 = ORIENTED_EDGE('',*,*,#1961,.F.);
#2050 = ORIENTED_EDGE('',*,*,#2012,.F.);
#2051 = ORIENTED_EDGE('',*,*,#2052,.T.);
#2052 = EDGE_CURVE('',#2005,#1645,#2053,.T.);
#2053 = LINE('',#2054,#2055);
#2054 = CARTESIAN_POINT('',(19.5,-4.24,1.3));
#2055 = VECTOR('',#2056,1.);
#2056 = DIRECTION('',(0.,0.,1.));
#2057 = ORIENTED_EDGE('',*,*,#1652,.T.);
#2058 = ORIENTED_EDGE('',*,*,#1848,.T.);
#2059 = ORIENTED_EDGE('',*,*,#1823,.F.);
#2060 = ORIENTED_EDGE('',*,*,#1800,.F.);
#2061 = ORIENTED_EDGE('',*,*,#1747,.T.);
#2062 = ORIENTED_EDGE('',*,*,#2034,.F.);
#2063 = ORIENTED_EDGE('',*,*,#1135,.F.);
#2064 = ORIENTED_EDGE('',*,*,#2065,.T.);
#2065 = EDGE_CURVE('',#1127,#1891,#2066,.T.);
#2066 = LINE('',#2067,#2068);
#2067 = CARTESIAN_POINT('',(19.5,8.5,1.));
#2068 = VECTOR('',#2069,1.);
#2069 = DIRECTION('',(0.,0.,1.));
#2070 = PLANE('',#2071);
#2071 = AXIS2_PLACEMENT_3D('',#2072,#2073,#2074);
#2072 = CARTESIAN_POINT('',(19.5,-11.5,1.));
#2073 = DIRECTION('',(1.,0.,0.));
#2074 = DIRECTION('',(0.,0.,1.));
#2075 = ADVANCED_FACE('',(#2076),#2100,.F.);
#2076 = FACE_BOUND('',#2077,.F.);
#2077 = EDGE_LOOP('',(#2078,#2079,#2080,#2086,#2087,#2088,#2089,#2090,
    #2091,#2092,#2093,#2099));
#2078 = ORIENTED_EDGE('',*,*,#2065,.F.);
#2079 = ORIENTED_EDGE('',*,*,#1126,.T.);
#2080 = ORIENTED_EDGE('',*,*,#2081,.T.);
#2081 = EDGE_CURVE('',#1119,#1504,#2082,.T.);
#2082 = LINE('',#2083,#2084);
#2083 = CARTESIAN_POINT('',(16.5,11.5,1.));
#2084 = VECTOR('',#2085,1.);
#2085 = DIRECTION('',(0.,0.,1.));
#2086 = ORIENTED_EDGE('',*,*,#1512,.T.);
#2087 = ORIENTED_EDGE('',*,*,#1470,.F.);
#2088 = ORIENTED_EDGE('',*,*,#1436,.F.);
#2089 = ORIENTED_EDGE('',*,*,#1420,.T.);
#2090 = ORIENTED_EDGE('',*,*,#1377,.T.);
#2091 = ORIENTED_EDGE('',*,*,#1599,.T.);
#2092 = ORIENTED_EDGE('',*,*,#1569,.F.);
#2093 = ORIENTED_EDGE('',*,*,#2094,.T.);
#2094 = EDGE_CURVE('',#1561,#1899,#2095,.T.);
#2095 = LINE('',#2096,#2097);
#2096 = CARTESIAN_POINT('',(16.5,11.5,1.));
#2097 = VECTOR('',#2098,1.);
#2098 = DIRECTION('',(0.,0.,1.));
#2099 = ORIENTED_EDGE('',*,*,#1898,.F.);
#2100 = CYLINDRICAL_SURFACE('',#2101,3.);
#2101 = AXIS2_PLACEMENT_3D('',#2102,#2103,#2104);
#2102 = CARTESIAN_POINT('',(16.5,8.5,1.));
#2103 = DIRECTION('',(0.,0.,1.));
#2104 = DIRECTION('',(1.,0.,0.));
#2105 = ADVANCED_FACE('',(#2106),#2121,.F.);
#2106 = FACE_BOUND('',#2107,.F.);
#2107 = EDGE_LOOP('',(#2108,#2109,#2115,#2116,#2117,#2118,#2119,#2120));
#2108 = ORIENTED_EDGE('',*,*,#1118,.F.);
#2109 = ORIENTED_EDGE('',*,*,#2110,.T.);
#2110 = EDGE_CURVE('',#1110,#1908,#2111,.T.);
#2111 = LINE('',#2112,#2113);
#2112 = CARTESIAN_POINT('',(-16.5,11.5,1.));
#2113 = VECTOR('',#2114,1.);
#2114 = DIRECTION('',(0.,0.,1.));
#2115 = ORIENTED_EDGE('',*,*,#1907,.T.);
#2116 = ORIENTED_EDGE('',*,*,#2094,.F.);
#2117 = ORIENTED_EDGE('',*,*,#1560,.F.);
#2118 = ORIENTED_EDGE('',*,*,#1537,.F.);
#2119 = ORIENTED_EDGE('',*,*,#1503,.F.);
#2120 = ORIENTED_EDGE('',*,*,#2081,.F.);
#2121 = PLANE('',#2122);
#2122 = AXIS2_PLACEMENT_3D('',#2123,#2124,#2125);
#2123 = CARTESIAN_POINT('',(-19.5,11.5,1.));
#2124 = DIRECTION('',(0.,1.,0.));
#2125 = DIRECTION('',(0.,0.,1.));
#2126 = ADVANCED_FACE('',(#2127),#2133,.F.);
#2127 = FACE_BOUND('',#2128,.T.);
#2128 = EDGE_LOOP('',(#2129,#2130,#2131,#2132));
#2129 = ORIENTED_EDGE('',*,*,#1196,.F.);
#2130 = ORIENTED_EDGE('',*,*,#1109,.F.);
#2131 = ORIENTED_EDGE('',*,*,#2110,.T.);
#2132 = ORIENTED_EDGE('',*,*,#1915,.F.);
#2133 = CYLINDRICAL_SURFACE('',#2134,3.);
#2134 = AXIS2_PLACEMENT_3D('',#2135,#2136,#2137);
#2135 = CARTESIAN_POINT('',(-16.5,8.5,1.));
#2136 = DIRECTION('',(0.,0.,1.));
#2137 = DIRECTION('',(-1.,0.,0.));
#2138 = ADVANCED_FACE('',(#2139),#2150,.F.);
#2139 = FACE_BOUND('',#2140,.F.);
#2140 = EDGE_LOOP('',(#2141,#2142,#2143,#2149));
#2141 = ORIENTED_EDGE('',*,*,#1178,.F.);
#2142 = ORIENTED_EDGE('',*,*,#1268,.T.);
#2143 = ORIENTED_EDGE('',*,*,#2144,.T.);
#2144 = EDGE_CURVE('',#1261,#1865,#2145,.T.);
#2145 = LINE('',#2146,#2147);
#2146 = CARTESIAN_POINT('',(-16.5,-11.5,1.));
#2147 = VECTOR('',#2148,1.);
#2148 = DIRECTION('',(0.,0.,1.));
#2149 = ORIENTED_EDGE('',*,*,#1864,.F.);
#2150 = CYLINDRICAL_SURFACE('',#2151,3.);
#2151 = AXIS2_PLACEMENT_3D('',#2152,#2153,#2154);
#2152 = CARTESIAN_POINT('',(-16.5,-8.5,1.));
#2153 = DIRECTION('',(0.,0.,1.));
#2154 = DIRECTION('',(-1.,0.,0.));
#2155 = ADVANCED_FACE('',(#2156),#2164,.T.);
#2156 = FACE_BOUND('',#2157,.T.);
#2157 = EDGE_LOOP('',(#2158,#2159,#2160,#2161,#2162,#2163));
#2158 = ORIENTED_EDGE('',*,*,#1260,.F.);
#2159 = ORIENTED_EDGE('',*,*,#2144,.T.);
#2160 = ORIENTED_EDGE('',*,*,#1873,.T.);
#2161 = ORIENTED_EDGE('',*,*,#1978,.F.);
#2162 = ORIENTED_EDGE('',*,*,#1943,.F.);
#2163 = ORIENTED_EDGE('',*,*,#1330,.T.);
#2164 = PLANE('',#2165);
#2165 = AXIS2_PLACEMENT_3D('',#2166,#2167,#2168);
#2166 = CARTESIAN_POINT('',(-19.5,-11.5,1.));
#2167 = DIRECTION('',(0.,1.,0.));
#2168 = DIRECTION('',(0.,0.,1.));
#2169 = ADVANCED_FACE('',(#2170),#2181,.T.);
#2170 = FACE_BOUND('',#2171,.T.);
#2171 = EDGE_LOOP('',(#2172,#2178,#2179,#2180));
#2172 = ORIENTED_EDGE('',*,*,#2173,.F.);
#2173 = EDGE_CURVE('',#1997,#1636,#2174,.T.);
#2174 = LINE('',#2175,#2176);
#2175 = CARTESIAN_POINT('',(20.,-4.24,1.6));
#2176 = VECTOR('',#2177,1.);
#2177 = DIRECTION('',(0.,0.,1.));
#2178 = ORIENTED_EDGE('',*,*,#2004,.F.);
#2179 = ORIENTED_EDGE('',*,*,#2052,.T.);
#2180 = ORIENTED_EDGE('',*,*,#1644,.F.);
#2181 = PLANE('',#2182);
#2182 = AXIS2_PLACEMENT_3D('',#2183,#2184,#2185);
#2183 = CARTESIAN_POINT('',(19.,-4.24,1.6));
#2184 = DIRECTION('',(0.,1.,0.));
#2185 = DIRECTION('',(0.,0.,1.));
#2186 = ADVANCED_FACE('',(#2187),#2203,.T.);
#2187 = FACE_BOUND('',#2188,.T.);
#2188 = EDGE_LOOP('',(#2189,#2190,#2191,#2192,#2193,#2194,#2195,#2196,
    #2197,#2198,#2199,#2200,#2201,#2202));
#2189 = ORIENTED_EDGE('',*,*,#1996,.T.);
#2190 = ORIENTED_EDGE('',*,*,#2173,.T.);
#2191 = ORIENTED_EDGE('',*,*,#1635,.F.);
#2192 = ORIENTED_EDGE('',*,*,#1626,.F.);
#2193 = ORIENTED_EDGE('',*,*,#1683,.T.);
#2194 = ORIENTED_EDGE('',*,*,#1699,.T.);
#2195 = ORIENTED_EDGE('',*,*,#1724,.F.);
#2196 = ORIENTED_EDGE('',*,*,#1775,.F.);
#2197 = ORIENTED_EDGE('',*,*,#1766,.F.);
#2198 = ORIENTED_EDGE('',*,*,#2027,.F.);
#2199 = ORIENTED_EDGE('',*,*,#1151,.T.);
#2200 = ORIENTED_EDGE('',*,*,#1001,.F.);
#2201 = ORIENTED_EDGE('',*,*,#239,.F.);
#2202 = ORIENTED_EDGE('',*,*,#976,.T.);
#2203 = PLANE('',#2204);
#2204 = AXIS2_PLACEMENT_3D('',#2205,#2206,#2207);
#2205 = CARTESIAN_POINT('',(20.,-5.703517765991E-16,1.389873500522));
#2206 = DIRECTION('',(-1.,-0.,-0.));
#2207 = DIRECTION('',(0.,0.,-1.));
#2208 = ( GEOMETRIC_REPRESENTATION_CONTEXT(3) 
GLOBAL_UNCERTAINTY_ASSIGNED_CONTEXT((#2212)) 
GLOBAL_UNIT_ASSIGNED_CONTEXT((#2209,#2210,#2211)) REPRESENTATION_CONTEXT
('Context #1','3D Context with UNIT and UNCERTAINTY') );
#2209 = ( LENGTH_UNIT() NAMED_UNIT(*) SI_UNIT(.MILLI.,.METRE.) );
#2210 = ( NAMED_UNIT(*) PLANE_ANGLE_UNIT() SI_UNIT($,.RADIAN.) );
#2211 = ( NAMED_UNIT(*) SI_UNIT($,.STERADIAN.) SOLID_ANGLE_UNIT() );
#2212 = UNCERTAINTY_MEASURE_WITH_UNIT(LENGTH_MEASURE(2.E-05),#2209,
  'distance_accuracy_value','confusion accuracy');
#2213 = PRODUCT_RELATED_PRODUCT_CATEGORY('part',$,(#7));
#2214 = MECHANICAL_DESIGN_GEOMETRIC_PRESENTATION_REPRESENTATION('',(
    #2215),#2208);
#2215 = STYLED_ITEM('color',(#2216),#15);
#2216 = PRESENTATION_STYLE_ASSIGNMENT((#2217,#2225));
#2217 = SURFACE_STYLE_USAGE(.BOTH.,#2218);
#2218 = SURFACE_SIDE_STYLE('',(#2219,#2223));
#2219 = SURFACE_STYLE_FILL_AREA(#2220);
#2220 = FILL_AREA_STYLE('',(#2221));
#2221 = FILL_AREA_STYLE_COLOUR('',#2222);
#2222 = COLOUR_RGB('',0.447058818107,0.474509808674,0.501960817233);
#2223 = SURFACE_STYLE_RENDERING_WITH_PROPERTIES(.NORMAL_SHADING.,#2222,(
    #2224));
#2224 = SURFACE_STYLE_TRANSPARENT(0.399999976158);
#2225 = CURVE_STYLE('',#2226,POSITIVE_LENGTH_MEASURE(0.1),#2227);
#2226 = DRAUGHTING_PRE_DEFINED_CURVE_FONT('continuous');
#2227 = COLOUR_RGB('',9.803921802644E-02,9.803921802644E-02,
  9.803921802644E-02);
ENDSEC;
END-ISO-10303-21;
