ISO-10303-21;
HEADER;
FILE_DESCRIPTION(('FreeCAD Model'),'2;1');
FILE_NAME('Open CASCADE Shape Model','2026-10-05T14:31:12',(''),(''),
  'Open CASCADE STEP processor 7.8','FreeCAD','Unknown');
FILE_SCHEMA((
'AP242_MANAGED_MODEL_BASED_3D_ENGINEERING_MIM_LF. {1 0 10303 442 1 1 4 
}'));
ENDSEC;
DATA;
#1 = APPLICATION_PROTOCOL_DEFINITION('international standard',
  'ap242_managed_model_based_3d_engineering',2013,#2);
#2 = APPLICATION_CONTEXT('Managed model based 3d engineering');
#3 = SHAPE_DEFINITION_REPRESENTATION(#4,#10);
#4 = PRODUCT_DEFINITION_SHAPE('','',#5);
#5 = PRODUCT_DEFINITION('design','',#6,#9);
#6 = PRODUCT_DEFINITION_FORMATION('','',#7);
#7 = PRODUCT('Case Top Cut','Case Top Cut','',(#8));
#8 = PRODUCT_CONTEXT('',#2,'mechanical');
#9 = PRODUCT_DEFINITION_CONTEXT('part definition',#2,'design');
#10 = ADVANCED_BREP_SHAPE_REPRESENTATION('',(#11,#15),#2036);
#11 = AXIS2_PLACEMENT_3D('',#12,#13,#14);
#12 = CARTESIAN_POINT('',(0.,0.,0.));
#13 = DIRECTION('',(0.,0.,1.));
#14 = DIRECTION('',(1.,0.,-0.));
#15 = MANIFOLD_SOLID_BREP('',#16);
#16 = CLOSED_SHELL('',(#17,#89,#167,#192,#334,#358,#382,#406,#489,#506,
    #532,#599,#649,#797,#918,#943,#980,#1005,#1029,#1076,#1101,#1243,
    #1409,#1474,#1499,#1527,#1545,#1569,#1587,#1611,#1628,#1645,#1662,
    #1681,#1705,#1722,#1739,#1756,#1775,#1792,#1809,#1821,#1838,#1855,
    #1867,#1889,#1906,#1923,#1940,#1957,#1974,#1991,#2003,#2022));
#17 = ADVANCED_FACE('',(#18),#84,.F.);
#18 = FACE_BOUND('',#19,.F.);
#19 = EDGE_LOOP('',(#20,#30,#38,#46,#54,#62,#70,#78));
#20 = ORIENTED_EDGE('',*,*,#21,.F.);
#21 = EDGE_CURVE('',#22,#24,#26,.T.);
#22 = VERTEX_POINT('',#23);
#23 = CARTESIAN_POINT('',(-21.,-9.,6.));
#24 = VERTEX_POINT('',#25);
#25 = CARTESIAN_POINT('',(-21.,9.,6.));
#26 = LINE('',#27,#28);
#27 = CARTESIAN_POINT('',(-21.,-13.,6.));
#28 = VECTOR('',#29,1.);
#29 = DIRECTION('',(0.,1.,0.));
#30 = ORIENTED_EDGE('',*,*,#31,.F.);
#31 = EDGE_CURVE('',#32,#22,#34,.T.);
#32 = VERTEX_POINT('',#33);
#33 = CARTESIAN_POINT('',(-21.,-9.,1.));
#34 = LINE('',#35,#36);
#35 = CARTESIAN_POINT('',(-21.,-9.,1.));
#36 = VECTOR('',#37,1.);
#37 = DIRECTION('',(0.,0.,1.));
#38 = ORIENTED_EDGE('',*,*,#39,.T.);
#39 = EDGE_CURVE('',#32,#40,#42,.T.);
#40 = VERTEX_POINT('',#41);
#41 = CARTESIAN_POINT('',(-21.,-6.,1.));
#42 = LINE('',#43,#44);
#43 = CARTESIAN_POINT('',(-21.,-13.,1.));
#44 = VECTOR('',#45,1.);
#45 = DIRECTION('',(0.,1.,0.));
#46 = ORIENTED_EDGE('',*,*,#47,.T.);
#47 = EDGE_CURVE('',#40,#48,#50,.T.);
#48 = VERTEX_POINT('',#49);
#49 = CARTESIAN_POINT('',(-21.,-6.,4.9));
#50 = LINE('',#51,#52);
#51 = CARTESIAN_POINT('',(-21.,-6.,0.65));
#52 = VECTOR('',#53,1.);
#53 = DIRECTION('',(0.,0.,1.));
#54 = ORIENTED_EDGE('',*,*,#55,.F.);
#55 = EDGE_CURVE('',#56,#48,#58,.T.);
#56 = VERTEX_POINT('',#57);
#57 = CARTESIAN_POINT('',(-21.,6.,4.9));
#58 = LINE('',#59,#60);
#59 = CARTESIAN_POINT('',(-21.,-9.5,4.9));
#60 = VECTOR('',#61,1.);
#61 = DIRECTION('',(0.,-1.,0.));
#62 = ORIENTED_EDGE('',*,*,#63,.F.);
#63 = EDGE_CURVE('',#64,#56,#66,.T.);
#64 = VERTEX_POINT('',#65);
#65 = CARTESIAN_POINT('',(-21.,6.,1.));
#66 = LINE('',#67,#68);
#67 = CARTESIAN_POINT('',(-21.,6.,0.65));
#68 = VECTOR('',#69,1.);
#69 = DIRECTION('',(0.,0.,1.));
#70 = ORIENTED_EDGE('',*,*,#71,.T.);
#71 = EDGE_CURVE('',#64,#72,#74,.T.);
#72 = VERTEX_POINT('',#73);
#73 = CARTESIAN_POINT('',(-21.,9.,1.));
#74 = LINE('',#75,#76);
#75 = CARTESIAN_POINT('',(-21.,-13.,1.));
#76 = VECTOR('',#77,1.);
#77 = DIRECTION('',(0.,1.,0.));
#78 = ORIENTED_EDGE('',*,*,#79,.T.);
#79 = EDGE_CURVE('',#72,#24,#80,.T.);
#80 = LINE('',#81,#82);
#81 = CARTESIAN_POINT('',(-21.,9.,1.));
#82 = VECTOR('',#83,1.);
#83 = DIRECTION('',(0.,0.,1.));
#84 = PLANE('',#85);
#85 = AXIS2_PLACEMENT_3D('',#86,#87,#88);
#86 = CARTESIAN_POINT('',(-21.,-13.,1.));
#87 = DIRECTION('',(1.,0.,0.));
#88 = DIRECTION('',(0.,0.,1.));
#89 = ADVANCED_FACE('',(#90,#151),#162,.T.);
#90 = FACE_BOUND('',#91,.T.);
#91 = EDGE_LOOP('',(#92,#93,#102,#110,#119,#127,#136,#144));
#92 = ORIENTED_EDGE('',*,*,#21,.F.);
#93 = ORIENTED_EDGE('',*,*,#94,.T.);
#94 = EDGE_CURVE('',#22,#95,#97,.T.);
#95 = VERTEX_POINT('',#96);
#96 = CARTESIAN_POINT('',(-17.,-13.,6.));
#97 = CIRCLE('',#98,4.);
#98 = AXIS2_PLACEMENT_3D('',#99,#100,#101);
#99 = CARTESIAN_POINT('',(-17.,-9.,6.));
#100 = DIRECTION('',(-0.,0.,1.));
#101 = DIRECTION('',(0.,-1.,0.));
#102 = ORIENTED_EDGE('',*,*,#103,.T.);
#103 = EDGE_CURVE('',#95,#104,#106,.T.);
#104 = VERTEX_POINT('',#105);
#105 = CARTESIAN_POINT('',(17.,-13.,6.));
#106 = LINE('',#107,#108);
#107 = CARTESIAN_POINT('',(-21.,-13.,6.));
#108 = VECTOR('',#109,1.);
#109 = DIRECTION('',(1.,0.,0.));
#110 = ORIENTED_EDGE('',*,*,#111,.F.);
#111 = EDGE_CURVE('',#112,#104,#114,.T.);
#112 = VERTEX_POINT('',#113);
#113 = CARTESIAN_POINT('',(21.,-9.,6.));
#114 = CIRCLE('',#115,4.);
#115 = AXIS2_PLACEMENT_3D('',#116,#117,#118);
#116 = CARTESIAN_POINT('',(17.,-9.,6.));
#117 = DIRECTION('',(-0.,-0.,-1.));
#118 = DIRECTION('',(0.,-1.,0.));
#119 = ORIENTED_EDGE('',*,*,#120,.T.);
#120 = EDGE_CURVE('',#112,#121,#123,.T.);
#121 = VERTEX_POINT('',#122);
#122 = CARTESIAN_POINT('',(21.,9.,6.));
#123 = LINE('',#124,#125);
#124 = CARTESIAN_POINT('',(21.,-13.,6.));
#125 = VECTOR('',#126,1.);
#126 = DIRECTION('',(0.,1.,0.));
#127 = ORIENTED_EDGE('',*,*,#128,.T.);
#128 = EDGE_CURVE('',#121,#129,#131,.T.);
#129 = VERTEX_POINT('',#130);
#130 = CARTESIAN_POINT('',(17.,13.,6.));
#131 = CIRCLE('',#132,4.);
#132 = AXIS2_PLACEMENT_3D('',#133,#134,#135);
#133 = CARTESIAN_POINT('',(17.,9.,6.));
#134 = DIRECTION('',(-0.,0.,1.));
#135 = DIRECTION('',(0.,-1.,0.));
#136 = ORIENTED_EDGE('',*,*,#137,.F.);
#137 = EDGE_CURVE('',#138,#129,#140,.T.);
#138 = VERTEX_POINT('',#139);
#139 = CARTESIAN_POINT('',(-17.,13.,6.));
#140 = LINE('',#141,#142);
#141 = CARTESIAN_POINT('',(-21.,13.,6.));
#142 = VECTOR('',#143,1.);
#143 = DIRECTION('',(1.,0.,0.));
#144 = ORIENTED_EDGE('',*,*,#145,.F.);
#145 = EDGE_CURVE('',#24,#138,#146,.T.);
#146 = CIRCLE('',#147,4.);
#147 = AXIS2_PLACEMENT_3D('',#148,#149,#150);
#148 = CARTESIAN_POINT('',(-17.,9.,6.));
#149 = DIRECTION('',(-0.,-0.,-1.));
#150 = DIRECTION('',(0.,-1.,0.));
#151 = FACE_BOUND('',#152,.T.);
#152 = EDGE_LOOP('',(#153));
#153 = ORIENTED_EDGE('',*,*,#154,.F.);
#154 = EDGE_CURVE('',#155,#155,#157,.T.);
#155 = VERTEX_POINT('',#156);
#156 = CARTESIAN_POINT('',(18.2,9.,6.));
#157 = CIRCLE('',#158,2.);
#158 = AXIS2_PLACEMENT_3D('',#159,#160,#161);
#159 = CARTESIAN_POINT('',(16.2,9.,6.));
#160 = DIRECTION('',(0.,0.,1.));
#161 = DIRECTION('',(1.,0.,0.));
#162 = PLANE('',#163);
#163 = AXIS2_PLACEMENT_3D('',#164,#165,#166);
#164 = CARTESIAN_POINT('',(-21.,-13.,6.));
#165 = DIRECTION('',(0.,0.,1.));
#166 = DIRECTION('',(1.,0.,0.));
#167 = ADVANCED_FACE('',(#168),#187,.T.);
#168 = FACE_BOUND('',#169,.F.);
#169 = EDGE_LOOP('',(#170,#179,#185,#186));
#170 = ORIENTED_EDGE('',*,*,#171,.T.);
#171 = EDGE_CURVE('',#72,#172,#174,.T.);
#172 = VERTEX_POINT('',#173);
#173 = CARTESIAN_POINT('',(-17.,13.,1.));
#174 = CIRCLE('',#175,4.);
#175 = AXIS2_PLACEMENT_3D('',#176,#177,#178);
#176 = CARTESIAN_POINT('',(-17.,9.,1.));
#177 = DIRECTION('',(-0.,-0.,-1.));
#178 = DIRECTION('',(0.,-1.,0.));
#179 = ORIENTED_EDGE('',*,*,#180,.T.);
#180 = EDGE_CURVE('',#172,#138,#181,.T.);
#181 = LINE('',#182,#183);
#182 = CARTESIAN_POINT('',(-17.,13.,1.));
#183 = VECTOR('',#184,1.);
#184 = DIRECTION('',(0.,0.,1.));
#185 = ORIENTED_EDGE('',*,*,#145,.F.);
#186 = ORIENTED_EDGE('',*,*,#79,.F.);
#187 = CYLINDRICAL_SURFACE('',#188,4.);
#188 = AXIS2_PLACEMENT_3D('',#189,#190,#191);
#189 = CARTESIAN_POINT('',(-17.,9.,1.));
#190 = DIRECTION('',(0.,0.,1.));
#191 = DIRECTION('',(-1.,0.,0.));
#192 = ADVANCED_FACE('',(#193),#329,.F.);
#193 = FACE_BOUND('',#194,.F.);
#194 = EDGE_LOOP('',(#195,#196,#204,#212,#221,#229,#238,#246,#255,#263,
    #271,#279,#287,#296,#305,#313,#322,#328));
#195 = ORIENTED_EDGE('',*,*,#71,.F.);
#196 = ORIENTED_EDGE('',*,*,#197,.F.);
#197 = EDGE_CURVE('',#198,#64,#200,.T.);
#198 = VERTEX_POINT('',#199);
#199 = CARTESIAN_POINT('',(-20.,6.,1.));
#200 = LINE('',#201,#202);
#201 = CARTESIAN_POINT('',(-18.5,6.,1.));
#202 = VECTOR('',#203,1.);
#203 = DIRECTION('',(-1.,2.22044604925E-16,0.));
#204 = ORIENTED_EDGE('',*,*,#205,.T.);
#205 = EDGE_CURVE('',#198,#206,#208,.T.);
#206 = VERTEX_POINT('',#207);
#207 = CARTESIAN_POINT('',(-20.,9.,1.));
#208 = LINE('',#209,#210);
#209 = CARTESIAN_POINT('',(-20.,-12.,1.));
#210 = VECTOR('',#211,1.);
#211 = DIRECTION('',(0.,1.,0.));
#212 = ORIENTED_EDGE('',*,*,#213,.T.);
#213 = EDGE_CURVE('',#206,#214,#216,.T.);
#214 = VERTEX_POINT('',#215);
#215 = CARTESIAN_POINT('',(-17.,12.,1.));
#216 = CIRCLE('',#217,3.);
#217 = AXIS2_PLACEMENT_3D('',#218,#219,#220);
#218 = CARTESIAN_POINT('',(-17.,9.,1.));
#219 = DIRECTION('',(-0.,-0.,-1.));
#220 = DIRECTION('',(0.,-1.,0.));
#221 = ORIENTED_EDGE('',*,*,#222,.T.);
#222 = EDGE_CURVE('',#214,#223,#225,.T.);
#223 = VERTEX_POINT('',#224);
#224 = CARTESIAN_POINT('',(17.,12.,1.));
#225 = LINE('',#226,#227);
#226 = CARTESIAN_POINT('',(-20.,12.,1.));
#227 = VECTOR('',#228,1.);
#228 = DIRECTION('',(1.,0.,0.));
#229 = ORIENTED_EDGE('',*,*,#230,.F.);
#230 = EDGE_CURVE('',#231,#223,#233,.T.);
#231 = VERTEX_POINT('',#232);
#232 = CARTESIAN_POINT('',(20.,9.,1.));
#233 = CIRCLE('',#234,3.);
#234 = AXIS2_PLACEMENT_3D('',#235,#236,#237);
#235 = CARTESIAN_POINT('',(17.,9.,1.));
#236 = DIRECTION('',(-0.,0.,1.));
#237 = DIRECTION('',(0.,-1.,0.));
#238 = ORIENTED_EDGE('',*,*,#239,.F.);
#239 = EDGE_CURVE('',#240,#231,#242,.T.);
#240 = VERTEX_POINT('',#241);
#241 = CARTESIAN_POINT('',(20.,-9.,1.));
#242 = LINE('',#243,#244);
#243 = CARTESIAN_POINT('',(20.,-12.,1.));
#244 = VECTOR('',#245,1.);
#245 = DIRECTION('',(0.,1.,0.));
#246 = ORIENTED_EDGE('',*,*,#247,.T.);
#247 = EDGE_CURVE('',#240,#248,#250,.T.);
#248 = VERTEX_POINT('',#249);
#249 = CARTESIAN_POINT('',(17.,-12.,1.));
#250 = CIRCLE('',#251,3.);
#251 = AXIS2_PLACEMENT_3D('',#252,#253,#254);
#252 = CARTESIAN_POINT('',(17.,-9.,1.));
#253 = DIRECTION('',(-0.,-0.,-1.));
#254 = DIRECTION('',(0.,-1.,0.));
#255 = ORIENTED_EDGE('',*,*,#256,.F.);
#256 = EDGE_CURVE('',#257,#248,#259,.T.);
#257 = VERTEX_POINT('',#258);
#258 = CARTESIAN_POINT('',(16.78,-12.,1.));
#259 = LINE('',#260,#261);
#260 = CARTESIAN_POINT('',(-20.,-12.,1.));
#261 = VECTOR('',#262,1.);
#262 = DIRECTION('',(1.,0.,0.));
#263 = ORIENTED_EDGE('',*,*,#264,.F.);
#264 = EDGE_CURVE('',#265,#257,#267,.T.);
#265 = VERTEX_POINT('',#266);
#266 = CARTESIAN_POINT('',(16.78,-12.1,1.));
#267 = LINE('',#268,#269);
#268 = CARTESIAN_POINT('',(16.78,-12.1,1.));
#269 = VECTOR('',#270,1.);
#270 = DIRECTION('',(0.,1.,0.));
#271 = ORIENTED_EDGE('',*,*,#272,.F.);
#272 = EDGE_CURVE('',#273,#265,#275,.T.);
#273 = VERTEX_POINT('',#274);
#274 = CARTESIAN_POINT('',(16.2,-12.1,1.));
#275 = LINE('',#276,#277);
#276 = CARTESIAN_POINT('',(11.78,-12.1,1.));
#277 = VECTOR('',#278,1.);
#278 = DIRECTION('',(1.,0.,0.));
#279 = ORIENTED_EDGE('',*,*,#280,.F.);
#280 = EDGE_CURVE('',#281,#273,#283,.T.);
#281 = VERTEX_POINT('',#282);
#282 = CARTESIAN_POINT('',(16.005872210923,-12.1,1.));
#283 = LINE('',#284,#285);
#284 = CARTESIAN_POINT('',(-3.358125,-12.1,1.));
#285 = VECTOR('',#286,1.);
#286 = DIRECTION('',(1.,0.,0.));
#287 = ORIENTED_EDGE('',*,*,#288,.F.);
#288 = EDGE_CURVE('',#289,#281,#291,.T.);
#289 = VERTEX_POINT('',#290);
#290 = CARTESIAN_POINT('',(17.510908145858,-12.9672374351,1.));
#291 = CIRCLE('',#292,5.);
#292 = AXIS2_PLACEMENT_3D('',#293,#294,#295);
#293 = CARTESIAN_POINT('',(14.3,-16.8,1.));
#294 = DIRECTION('',(0.,0.,1.));
#295 = DIRECTION('',(1.,0.,-0.));
#296 = ORIENTED_EDGE('',*,*,#297,.F.);
#297 = EDGE_CURVE('',#298,#289,#300,.T.);
#298 = VERTEX_POINT('',#299);
#299 = CARTESIAN_POINT('',(21.,-9.,1.));
#300 = CIRCLE('',#301,4.);
#301 = AXIS2_PLACEMENT_3D('',#302,#303,#304);
#302 = CARTESIAN_POINT('',(17.,-9.,1.));
#303 = DIRECTION('',(-0.,-0.,-1.));
#304 = DIRECTION('',(0.,-1.,0.));
#305 = ORIENTED_EDGE('',*,*,#306,.T.);
#306 = EDGE_CURVE('',#298,#307,#309,.T.);
#307 = VERTEX_POINT('',#308);
#308 = CARTESIAN_POINT('',(21.,9.,1.));
#309 = LINE('',#310,#311);
#310 = CARTESIAN_POINT('',(21.,-13.,1.));
#311 = VECTOR('',#312,1.);
#312 = DIRECTION('',(0.,1.,0.));
#313 = ORIENTED_EDGE('',*,*,#314,.T.);
#314 = EDGE_CURVE('',#307,#315,#317,.T.);
#315 = VERTEX_POINT('',#316);
#316 = CARTESIAN_POINT('',(17.,13.,1.));
#317 = CIRCLE('',#318,4.);
#318 = AXIS2_PLACEMENT_3D('',#319,#320,#321);
#319 = CARTESIAN_POINT('',(17.,9.,1.));
#320 = DIRECTION('',(-0.,0.,1.));
#321 = DIRECTION('',(0.,-1.,0.));
#322 = ORIENTED_EDGE('',*,*,#323,.F.);
#323 = EDGE_CURVE('',#172,#315,#324,.T.);
#324 = LINE('',#325,#326);
#325 = CARTESIAN_POINT('',(-21.,13.,1.));
#326 = VECTOR('',#327,1.);
#327 = DIRECTION('',(1.,0.,0.));
#328 = ORIENTED_EDGE('',*,*,#171,.F.);
#329 = PLANE('',#330);
#330 = AXIS2_PLACEMENT_3D('',#331,#332,#333);
#331 = CARTESIAN_POINT('',(-21.,-13.,1.));
#332 = DIRECTION('',(0.,0.,1.));
#333 = DIRECTION('',(1.,0.,0.));
#334 = ADVANCED_FACE('',(#335),#353,.F.);
#335 = FACE_BOUND('',#336,.F.);
#336 = EDGE_LOOP('',(#337,#345,#351,#352));
#337 = ORIENTED_EDGE('',*,*,#338,.F.);
#338 = EDGE_CURVE('',#339,#56,#341,.T.);
#339 = VERTEX_POINT('',#340);
#340 = CARTESIAN_POINT('',(-20.,6.,4.9));
#341 = LINE('',#342,#343);
#342 = CARTESIAN_POINT('',(-16.,6.,4.9));
#343 = VECTOR('',#344,1.);
#344 = DIRECTION('',(-1.,2.22044604925E-16,0.));
#345 = ORIENTED_EDGE('',*,*,#346,.F.);
#346 = EDGE_CURVE('',#198,#339,#347,.T.);
#347 = LINE('',#348,#349);
#348 = CARTESIAN_POINT('',(-20.,6.,0.65));
#349 = VECTOR('',#350,1.);
#350 = DIRECTION('',(0.,0.,1.));
#351 = ORIENTED_EDGE('',*,*,#197,.T.);
#352 = ORIENTED_EDGE('',*,*,#63,.T.);
#353 = PLANE('',#354);
#354 = AXIS2_PLACEMENT_3D('',#355,#356,#357);
#355 = CARTESIAN_POINT('',(-16.,6.,0.3));
#356 = DIRECTION('',(2.22044604925E-16,1.,0.));
#357 = DIRECTION('',(0.,0.,1.));
#358 = ADVANCED_FACE('',(#359),#377,.F.);
#359 = FACE_BOUND('',#360,.F.);
#360 = EDGE_LOOP('',(#361,#369,#375,#376));
#361 = ORIENTED_EDGE('',*,*,#362,.F.);
#362 = EDGE_CURVE('',#363,#48,#365,.T.);
#363 = VERTEX_POINT('',#364);
#364 = CARTESIAN_POINT('',(-20.,-6.,4.9));
#365 = LINE('',#366,#367);
#366 = CARTESIAN_POINT('',(-16.,-6.,4.9));
#367 = VECTOR('',#368,1.);
#368 = DIRECTION('',(-1.,2.22044604925E-16,0.));
#369 = ORIENTED_EDGE('',*,*,#370,.F.);
#370 = EDGE_CURVE('',#339,#363,#371,.T.);
#371 = LINE('',#372,#373);
#372 = CARTESIAN_POINT('',(-20.,-9.,4.9));
#373 = VECTOR('',#374,1.);
#374 = DIRECTION('',(0.,-1.,0.));
#375 = ORIENTED_EDGE('',*,*,#338,.T.);
#376 = ORIENTED_EDGE('',*,*,#55,.T.);
#377 = PLANE('',#378);
#378 = AXIS2_PLACEMENT_3D('',#379,#380,#381);
#379 = CARTESIAN_POINT('',(-16.,-6.,4.9));
#380 = DIRECTION('',(0.,0.,1.));
#381 = DIRECTION('',(2.22044604925E-16,1.,0.));
#382 = ADVANCED_FACE('',(#383),#401,.T.);
#383 = FACE_BOUND('',#384,.T.);
#384 = EDGE_LOOP('',(#385,#386,#394,#400));
#385 = ORIENTED_EDGE('',*,*,#362,.F.);
#386 = ORIENTED_EDGE('',*,*,#387,.F.);
#387 = EDGE_CURVE('',#388,#363,#390,.T.);
#388 = VERTEX_POINT('',#389);
#389 = CARTESIAN_POINT('',(-20.,-6.,1.));
#390 = LINE('',#391,#392);
#391 = CARTESIAN_POINT('',(-20.,-6.,0.65));
#392 = VECTOR('',#393,1.);
#393 = DIRECTION('',(0.,0.,1.));
#394 = ORIENTED_EDGE('',*,*,#395,.T.);
#395 = EDGE_CURVE('',#388,#40,#396,.T.);
#396 = LINE('',#397,#398);
#397 = CARTESIAN_POINT('',(-18.5,-6.,1.));
#398 = VECTOR('',#399,1.);
#399 = DIRECTION('',(-1.,2.22044604925E-16,0.));
#400 = ORIENTED_EDGE('',*,*,#47,.T.);
#401 = PLANE('',#402);
#402 = AXIS2_PLACEMENT_3D('',#403,#404,#405);
#403 = CARTESIAN_POINT('',(-16.,-6.,0.3));
#404 = DIRECTION('',(2.22044604925E-16,1.,0.));
#405 = DIRECTION('',(0.,0.,1.));
#406 = ADVANCED_FACE('',(#407),#484,.F.);
#407 = FACE_BOUND('',#408,.F.);
#408 = EDGE_LOOP('',(#409,#410,#419,#427,#436,#444,#452,#460,#468,#477,
    #483));
#409 = ORIENTED_EDGE('',*,*,#39,.F.);
#410 = ORIENTED_EDGE('',*,*,#411,.T.);
#411 = EDGE_CURVE('',#32,#412,#414,.T.);
#412 = VERTEX_POINT('',#413);
#413 = CARTESIAN_POINT('',(-17.,-13.,1.));
#414 = CIRCLE('',#415,4.);
#415 = AXIS2_PLACEMENT_3D('',#416,#417,#418);
#416 = CARTESIAN_POINT('',(-17.,-9.,1.));
#417 = DIRECTION('',(-0.,0.,1.));
#418 = DIRECTION('',(0.,-1.,0.));
#419 = ORIENTED_EDGE('',*,*,#420,.T.);
#420 = EDGE_CURVE('',#412,#421,#423,.T.);
#421 = VERTEX_POINT('',#422);
#422 = CARTESIAN_POINT('',(11.050384638146,-13.,1.));
#423 = LINE('',#424,#425);
#424 = CARTESIAN_POINT('',(-21.,-13.,1.));
#425 = VECTOR('',#426,1.);
#426 = DIRECTION('',(1.,0.,0.));
#427 = ORIENTED_EDGE('',*,*,#428,.F.);
#428 = EDGE_CURVE('',#429,#421,#431,.T.);
#429 = VERTEX_POINT('',#430);
#430 = CARTESIAN_POINT('',(12.594127789077,-12.1,1.));
#431 = CIRCLE('',#432,5.);
#432 = AXIS2_PLACEMENT_3D('',#433,#434,#435);
#433 = CARTESIAN_POINT('',(14.3,-16.8,1.));
#434 = DIRECTION('',(0.,0.,1.));
#435 = DIRECTION('',(1.,0.,-0.));
#436 = ORIENTED_EDGE('',*,*,#437,.F.);
#437 = EDGE_CURVE('',#438,#429,#440,.T.);
#438 = VERTEX_POINT('',#439);
#439 = CARTESIAN_POINT('',(12.4,-12.1,1.));
#440 = LINE('',#441,#442);
#441 = CARTESIAN_POINT('',(-3.358125,-12.1,1.));
#442 = VECTOR('',#443,1.);
#443 = DIRECTION('',(1.,0.,0.));
#444 = ORIENTED_EDGE('',*,*,#445,.F.);
#445 = EDGE_CURVE('',#446,#438,#448,.T.);
#446 = VERTEX_POINT('',#447);
#447 = CARTESIAN_POINT('',(11.78,-12.1,1.));
#448 = LINE('',#449,#450);
#449 = CARTESIAN_POINT('',(11.78,-12.1,1.));
#450 = VECTOR('',#451,1.);
#451 = DIRECTION('',(1.,0.,0.));
#452 = ORIENTED_EDGE('',*,*,#453,.T.);
#453 = EDGE_CURVE('',#446,#454,#456,.T.);
#454 = VERTEX_POINT('',#455);
#455 = CARTESIAN_POINT('',(11.78,-12.,1.));
#456 = LINE('',#457,#458);
#457 = CARTESIAN_POINT('',(11.78,-12.1,1.));
#458 = VECTOR('',#459,1.);
#459 = DIRECTION('',(0.,1.,0.));
#460 = ORIENTED_EDGE('',*,*,#461,.F.);
#461 = EDGE_CURVE('',#462,#454,#464,.T.);
#462 = VERTEX_POINT('',#463);
#463 = CARTESIAN_POINT('',(-17.,-12.,1.));
#464 = LINE('',#465,#466);
#465 = CARTESIAN_POINT('',(-20.,-12.,1.));
#466 = VECTOR('',#467,1.);
#467 = DIRECTION('',(1.,0.,0.));
#468 = ORIENTED_EDGE('',*,*,#469,.F.);
#469 = EDGE_CURVE('',#470,#462,#472,.T.);
#470 = VERTEX_POINT('',#471);
#471 = CARTESIAN_POINT('',(-20.,-9.,1.));
#472 = CIRCLE('',#473,3.);
#473 = AXIS2_PLACEMENT_3D('',#474,#475,#476);
#474 = CARTESIAN_POINT('',(-17.,-9.,1.));
#475 = DIRECTION('',(-0.,0.,1.));
#476 = DIRECTION('',(0.,-1.,0.));
#477 = ORIENTED_EDGE('',*,*,#478,.T.);
#478 = EDGE_CURVE('',#470,#388,#479,.T.);
#479 = LINE('',#480,#481);
#480 = CARTESIAN_POINT('',(-20.,-12.,1.));
#481 = VECTOR('',#482,1.);
#482 = DIRECTION('',(0.,1.,0.));
#483 = ORIENTED_EDGE('',*,*,#395,.T.);
#484 = PLANE('',#485);
#485 = AXIS2_PLACEMENT_3D('',#486,#487,#488);
#486 = CARTESIAN_POINT('',(-21.,-13.,1.));
#487 = DIRECTION('',(0.,0.,1.));
#488 = DIRECTION('',(1.,0.,0.));
#489 = ADVANCED_FACE('',(#490),#501,.T.);
#490 = FACE_BOUND('',#491,.T.);
#491 = EDGE_LOOP('',(#492,#493,#499,#500));
#492 = ORIENTED_EDGE('',*,*,#411,.T.);
#493 = ORIENTED_EDGE('',*,*,#494,.T.);
#494 = EDGE_CURVE('',#412,#95,#495,.T.);
#495 = LINE('',#496,#497);
#496 = CARTESIAN_POINT('',(-17.,-13.,1.));
#497 = VECTOR('',#498,1.);
#498 = DIRECTION('',(0.,0.,1.));
#499 = ORIENTED_EDGE('',*,*,#94,.F.);
#500 = ORIENTED_EDGE('',*,*,#31,.F.);
#501 = CYLINDRICAL_SURFACE('',#502,4.);
#502 = AXIS2_PLACEMENT_3D('',#503,#504,#505);
#503 = CARTESIAN_POINT('',(-17.,-9.,1.));
#504 = DIRECTION('',(0.,0.,1.));
#505 = DIRECTION('',(-1.,0.,0.));
#506 = ADVANCED_FACE('',(#507),#527,.F.);
#507 = FACE_BOUND('',#508,.F.);
#508 = EDGE_LOOP('',(#509,#510,#511,#512,#520));
#509 = ORIENTED_EDGE('',*,*,#420,.F.);
#510 = ORIENTED_EDGE('',*,*,#494,.T.);
#511 = ORIENTED_EDGE('',*,*,#103,.T.);
#512 = ORIENTED_EDGE('',*,*,#513,.F.);
#513 = EDGE_CURVE('',#514,#104,#516,.T.);
#514 = VERTEX_POINT('',#515);
#515 = CARTESIAN_POINT('',(17.,-13.,2.808314132003));
#516 = LINE('',#517,#518);
#517 = CARTESIAN_POINT('',(17.,-13.,1.));
#518 = VECTOR('',#519,1.);
#519 = DIRECTION('',(0.,0.,1.));
#520 = ORIENTED_EDGE('',*,*,#521,.F.);
#521 = EDGE_CURVE('',#421,#514,#522,.T.);
#522 = CIRCLE('',#523,3.249615361854);
#523 = AXIS2_PLACEMENT_3D('',#524,#525,#526);
#524 = CARTESIAN_POINT('',(14.3,-13.,1.));
#525 = DIRECTION('',(0.,1.,0.));
#526 = DIRECTION('',(0.,-0.,1.));
#527 = PLANE('',#528);
#528 = AXIS2_PLACEMENT_3D('',#529,#530,#531);
#529 = CARTESIAN_POINT('',(-21.,-13.,1.));
#530 = DIRECTION('',(0.,1.,0.));
#531 = DIRECTION('',(0.,0.,1.));
#532 = ADVANCED_FACE('',(#533),#594,.T.);
#533 = FACE_BOUND('',#534,.T.);
#534 = EDGE_LOOP('',(#535,#536,#537,#538,#546,#554,#563,#571,#580,#588)
  );
#535 = ORIENTED_EDGE('',*,*,#323,.F.);
#536 = ORIENTED_EDGE('',*,*,#180,.T.);
#537 = ORIENTED_EDGE('',*,*,#137,.T.);
#538 = ORIENTED_EDGE('',*,*,#539,.F.);
#539 = EDGE_CURVE('',#540,#129,#542,.T.);
#540 = VERTEX_POINT('',#541);
#541 = CARTESIAN_POINT('',(17.,13.,4.5));
#542 = LINE('',#543,#544);
#543 = CARTESIAN_POINT('',(17.,13.,1.));
#544 = VECTOR('',#545,1.);
#545 = DIRECTION('',(0.,0.,1.));
#546 = ORIENTED_EDGE('',*,*,#547,.F.);
#547 = EDGE_CURVE('',#548,#540,#550,.T.);
#548 = VERTEX_POINT('',#549);
#549 = CARTESIAN_POINT('',(14.49,13.,4.5));
#550 = LINE('',#551,#552);
#551 = CARTESIAN_POINT('',(14.,13.,4.5));
#552 = VECTOR('',#553,1.);
#553 = DIRECTION('',(1.,0.,0.));
#554 = ORIENTED_EDGE('',*,*,#555,.F.);
#555 = EDGE_CURVE('',#556,#548,#558,.T.);
#556 = VERTEX_POINT('',#557);
#557 = CARTESIAN_POINT('',(14.,13.,4.01));
#558 = CIRCLE('',#559,0.49);
#559 = AXIS2_PLACEMENT_3D('',#560,#561,#562);
#560 = CARTESIAN_POINT('',(14.49,13.,4.01));
#561 = DIRECTION('',(0.,1.,0.));
#562 = DIRECTION('',(0.,0.,1.));
#563 = ORIENTED_EDGE('',*,*,#564,.F.);
#564 = EDGE_CURVE('',#565,#556,#567,.T.);
#565 = VERTEX_POINT('',#566);
#566 = CARTESIAN_POINT('',(14.,13.,3.99));
#567 = LINE('',#568,#569);
#568 = CARTESIAN_POINT('',(14.,13.,3.5));
#569 = VECTOR('',#570,1.);
#570 = DIRECTION('',(0.,0.,1.));
#571 = ORIENTED_EDGE('',*,*,#572,.T.);
#572 = EDGE_CURVE('',#565,#573,#575,.T.);
#573 = VERTEX_POINT('',#574);
#574 = CARTESIAN_POINT('',(14.49,13.,3.5));
#575 = CIRCLE('',#576,0.49);
#576 = AXIS2_PLACEMENT_3D('',#577,#578,#579);
#577 = CARTESIAN_POINT('',(14.49,13.,3.99));
#578 = DIRECTION('',(0.,-1.,0.));
#579 = DIRECTION('',(0.,0.,1.));
#580 = ORIENTED_EDGE('',*,*,#581,.T.);
#581 = EDGE_CURVE('',#573,#582,#584,.T.);
#582 = VERTEX_POINT('',#583);
#583 = CARTESIAN_POINT('',(17.,13.,3.5));
#584 = LINE('',#585,#586);
#585 = CARTESIAN_POINT('',(14.,13.,3.5));
#586 = VECTOR('',#587,1.);
#587 = DIRECTION('',(1.,0.,0.));
#588 = ORIENTED_EDGE('',*,*,#589,.F.);
#589 = EDGE_CURVE('',#315,#582,#590,.T.);
#590 = LINE('',#591,#592);
#591 = CARTESIAN_POINT('',(17.,13.,1.));
#592 = VECTOR('',#593,1.);
#593 = DIRECTION('',(0.,0.,1.));
#594 = PLANE('',#595);
#595 = AXIS2_PLACEMENT_3D('',#596,#597,#598);
#596 = CARTESIAN_POINT('',(-21.,13.,1.));
#597 = DIRECTION('',(0.,1.,0.));
#598 = DIRECTION('',(0.,0.,1.));
#599 = ADVANCED_FACE('',(#600),#644,.T.);
#600 = FACE_BOUND('',#601,.F.);
#601 = EDGE_LOOP('',(#602,#608,#609,#642,#643));
#602 = ORIENTED_EDGE('',*,*,#603,.F.);
#603 = EDGE_CURVE('',#298,#112,#604,.T.);
#604 = LINE('',#605,#606);
#605 = CARTESIAN_POINT('',(21.,-9.,1.));
#606 = VECTOR('',#607,1.);
#607 = DIRECTION('',(0.,0.,1.));
#608 = ORIENTED_EDGE('',*,*,#297,.T.);
#609 = ORIENTED_EDGE('',*,*,#610,.F.);
#610 = EDGE_CURVE('',#514,#289,#611,.T.);
#611 = B_SPLINE_CURVE_WITH_KNOTS('',5,(#612,#613,#614,#615,#616,#617,
    #618,#619,#620,#621,#622,#623,#624,#625,#626,#627,#628,#629,#630,
    #631,#632,#633,#634,#635,#636,#637,#638,#639,#640,#641),
  .UNSPECIFIED.,.F.,.F.,(6,4,4,4,4,4,4,6),(0.,0.190556578951,
    0.412335045763,0.633036624805,0.874897109232,0.913511212529,
    0.939478070382,1.),.UNSPECIFIED.);
#612 = CARTESIAN_POINT('',(17.,-13.,2.808314132003));
#613 = CARTESIAN_POINT('',(17.042640786891,-13.,2.744647027616));
#614 = CARTESIAN_POINT('',(17.082452812905,-12.9994318648,2.67995097031)
  );
#615 = CARTESIAN_POINT('',(17.119628070792,-12.99844595048,
    2.614406682683));
#616 = CARTESIAN_POINT('',(17.154314892382,-12.99715327029,
    2.548148291144));
#617 = CARTESIAN_POINT('',(17.224266772904,-12.99388571342,
    2.403436770155));
#618 = CARTESIAN_POINT('',(17.258693166146,-12.99183385358,
    2.324768843254));
#619 = CARTESIAN_POINT('',(17.290122118434,-12.98962772302,
    2.245420899954));
#620 = CARTESIAN_POINT('',(17.318701529727,-12.9873678793,2.165509742256
    ));
#621 = CARTESIAN_POINT('',(17.370278015114,-12.98290860289,
    2.005123186783));
#622 = CARTESIAN_POINT('',(17.393300662495,-12.98070896953,
    1.924654844308));
#623 = CARTESIAN_POINT('',(17.413738204155,-12.97861085466,
    1.843803070421));
#624 = CARTESIAN_POINT('',(17.431676213411,-12.97666934046,
    1.762639465438));
#625 = CARTESIAN_POINT('',(17.4641692885,-12.97301386541,1.591999058233)
  );
#626 = CARTESIAN_POINT('',(17.478234841809,-12.97133959169,1.5024728084)
  );
#627 = CARTESIAN_POINT('',(17.489460878581,-12.96995577027,1.4127204919)
  );
#628 = CARTESIAN_POINT('',(17.497899707066,-12.96889514216,1.32281088626
    ));
#629 = CARTESIAN_POINT('',(17.504485117112,-12.96805942519,
    1.218435100493));
#630 = CARTESIAN_POINT('',(17.505321402659,-12.96795303385,
    1.204062815182));
#631 = CARTESIAN_POINT('',(17.506087441862,-12.96785537556,
    1.189688349035));
#632 = CARTESIAN_POINT('',(17.506783326616,-12.96776650748,
    1.175311955831));
#633 = CARTESIAN_POINT('',(17.507829967534,-12.9676326574,1.151265055695
    ));
#634 = CARTESIAN_POINT('',(17.508219112099,-12.96758283479,
    1.141595466512));
#635 = CARTESIAN_POINT('',(17.50857658828,-12.96753702246,1.131925196325
    ));
#636 = CARTESIAN_POINT('',(17.508902415418,-12.96749523245,
    1.122254321399));
#637 = CARTESIAN_POINT('',(17.509882298382,-12.96736947103,
    1.090041414246));
#638 = CARTESIAN_POINT('',(17.510396145192,-12.96730337169,
    1.067496046428));
#639 = CARTESIAN_POINT('',(17.510738351894,-12.96725930145,
    1.044950499246));
#640 = CARTESIAN_POINT('',(17.510909018532,-12.96723732272,
    1.022405346581));
#641 = CARTESIAN_POINT('',(17.510908143138,-12.96723743545,
    0.999858051171));
#642 = ORIENTED_EDGE('',*,*,#513,.T.);
#643 = ORIENTED_EDGE('',*,*,#111,.F.);
#644 = CYLINDRICAL_SURFACE('',#645,4.);
#645 = AXIS2_PLACEMENT_3D('',#646,#647,#648);
#646 = CARTESIAN_POINT('',(17.,-9.,1.));
#647 = DIRECTION('',(0.,0.,1.));
#648 = DIRECTION('',(1.,0.,0.));
#649 = ADVANCED_FACE('',(#650),#792,.T.);
#650 = FACE_BOUND('',#651,.T.);
#651 = EDGE_LOOP('',(#652,#660,#661,#662,#671,#688,#696,#713,#720,#721,
    #722,#730,#739,#758,#766,#785));
#652 = ORIENTED_EDGE('',*,*,#653,.F.);
#653 = EDGE_CURVE('',#307,#654,#656,.T.);
#654 = VERTEX_POINT('',#655);
#655 = CARTESIAN_POINT('',(21.,9.,3.5));
#656 = LINE('',#657,#658);
#657 = CARTESIAN_POINT('',(21.,9.,1.));
#658 = VECTOR('',#659,1.);
#659 = DIRECTION('',(0.,0.,1.));
#660 = ORIENTED_EDGE('',*,*,#314,.T.);
#661 = ORIENTED_EDGE('',*,*,#589,.T.);
#662 = ORIENTED_EDGE('',*,*,#663,.F.);
#663 = EDGE_CURVE('',#664,#582,#666,.T.);
#664 = VERTEX_POINT('',#665);
#665 = CARTESIAN_POINT('',(17.51,12.967354282138,3.5));
#666 = CIRCLE('',#667,4.);
#667 = AXIS2_PLACEMENT_3D('',#668,#669,#670);
#668 = CARTESIAN_POINT('',(17.,9.,3.5));
#669 = DIRECTION('',(0.,0.,1.));
#670 = DIRECTION('',(1.,0.,-0.));
#671 = ORIENTED_EDGE('',*,*,#672,.F.);
#672 = EDGE_CURVE('',#673,#664,#675,.T.);
#673 = VERTEX_POINT('',#674);
#674 = CARTESIAN_POINT('',(18.,12.872983346207,3.99));
#675 = B_SPLINE_CURVE_WITH_KNOTS('',6,(#676,#677,#678,#679,#680,#681,
    #682,#683,#684,#685,#686,#687),.UNSPECIFIED.,.F.,.F.,(7,5,7),(0.,
    0.572950099974,1.),.UNSPECIFIED.);
#676 = CARTESIAN_POINT('',(18.,12.872983346207,3.99));
#677 = CARTESIAN_POINT('',(18.,12.872983346207,3.919299688415));
#678 = CARTESIAN_POINT('',(17.987758945445,12.876143759747,
    3.848482233384));
#679 = CARTESIAN_POINT('',(17.963199137072,12.882486085831,
    3.779965053227));
#680 = CARTESIAN_POINT('',(17.926746097911,12.891586167766,
    3.716190471592));
#681 = CARTESIAN_POINT('',(17.879294652376,12.902592492749,
    3.659567354388));
#682 = CARTESIAN_POINT('',(17.77988477811,12.923475694057,3.577328354255
    ));
#683 = CARTESIAN_POINT('',(17.732081348417,12.932940852977,
    3.547430406715));
#684 = CARTESIAN_POINT('',(17.679842552901,12.942494984547,
    3.524033204942));
#685 = CARTESIAN_POINT('',(17.624443902903,12.951632176964,
    3.508049029146));
#686 = CARTESIAN_POINT('',(17.567329137248,12.959984670574,3.5));
#687 = CARTESIAN_POINT('',(17.51,12.967354282138,3.5));
#688 = ORIENTED_EDGE('',*,*,#689,.T.);
#689 = EDGE_CURVE('',#673,#690,#692,.T.);
#690 = VERTEX_POINT('',#691);
#691 = CARTESIAN_POINT('',(18.,12.872983346207,4.01));
#692 = LINE('',#693,#694);
#693 = CARTESIAN_POINT('',(18.,12.872983346207,1.));
#694 = VECTOR('',#695,1.);
#695 = DIRECTION('',(0.,0.,1.));
#696 = ORIENTED_EDGE('',*,*,#697,.T.);
#697 = EDGE_CURVE('',#690,#698,#700,.T.);
#698 = VERTEX_POINT('',#699);
#699 = CARTESIAN_POINT('',(17.51,12.967354282138,4.5));
#700 = B_SPLINE_CURVE_WITH_KNOTS('',6,(#701,#702,#703,#704,#705,#706,
    #707,#708,#709,#710,#711,#712),.UNSPECIFIED.,.F.,.F.,(7,5,7),(0.,
    0.572950099974,1.),.UNSPECIFIED.);
#701 = CARTESIAN_POINT('',(18.,12.872983346207,4.01));
#702 = CARTESIAN_POINT('',(18.,12.872983346207,4.080700311585));
#703 = CARTESIAN_POINT('',(17.987758945445,12.876143759747,
    4.151517766616));
#704 = CARTESIAN_POINT('',(17.963199137072,12.882486085831,
    4.220034946773));
#705 = CARTESIAN_POINT('',(17.926746097911,12.891586167766,
    4.283809528408));
#706 = CARTESIAN_POINT('',(17.879294652376,12.902592492749,
    4.340432645612));
#707 = CARTESIAN_POINT('',(17.77988477811,12.923475694057,4.422671645745
    ));
#708 = CARTESIAN_POINT('',(17.732081348417,12.932940852977,
    4.452569593285));
#709 = CARTESIAN_POINT('',(17.679842552901,12.942494984547,
    4.475966795058));
#710 = CARTESIAN_POINT('',(17.624443902903,12.951632176964,
    4.491950970854));
#711 = CARTESIAN_POINT('',(17.567329137248,12.959984670574,4.5));
#712 = CARTESIAN_POINT('',(17.51,12.967354282138,4.5));
#713 = ORIENTED_EDGE('',*,*,#714,.T.);
#714 = EDGE_CURVE('',#698,#540,#715,.T.);
#715 = CIRCLE('',#716,4.);
#716 = AXIS2_PLACEMENT_3D('',#717,#718,#719);
#717 = CARTESIAN_POINT('',(17.,9.,4.5));
#718 = DIRECTION('',(0.,0.,1.));
#719 = DIRECTION('',(1.,0.,-0.));
#720 = ORIENTED_EDGE('',*,*,#539,.T.);
#721 = ORIENTED_EDGE('',*,*,#128,.F.);
#722 = ORIENTED_EDGE('',*,*,#723,.F.);
#723 = EDGE_CURVE('',#724,#121,#726,.T.);
#724 = VERTEX_POINT('',#725);
#725 = CARTESIAN_POINT('',(21.,9.,4.5));
#726 = LINE('',#727,#728);
#727 = CARTESIAN_POINT('',(21.,9.,1.));
#728 = VECTOR('',#729,1.);
#729 = DIRECTION('',(0.,0.,1.));
#730 = ORIENTED_EDGE('',*,*,#731,.T.);
#731 = EDGE_CURVE('',#724,#732,#734,.T.);
#732 = VERTEX_POINT('',#733);
#733 = CARTESIAN_POINT('',(20.704038336735,10.51,4.5));
#734 = CIRCLE('',#735,4.);
#735 = AXIS2_PLACEMENT_3D('',#736,#737,#738);
#736 = CARTESIAN_POINT('',(17.,9.,4.5));
#737 = DIRECTION('',(0.,0.,1.));
#738 = DIRECTION('',(1.,0.,-0.));
#739 = ORIENTED_EDGE('',*,*,#740,.F.);
#740 = EDGE_CURVE('',#741,#732,#743,.T.);
#741 = VERTEX_POINT('',#742);
#742 = CARTESIAN_POINT('',(20.464101615138,11.,4.01));
#743 = B_SPLINE_CURVE_WITH_KNOTS('',7,(#744,#745,#746,#747,#748,#749,
    #750,#751,#752,#753,#754,#755,#756,#757),.UNSPECIFIED.,.F.,.F.,(8,6,
    8),(0.,0.30588233399,1.),.UNSPECIFIED.);
#744 = CARTESIAN_POINT('',(20.464101615138,11.,4.01));
#745 = CARTESIAN_POINT('',(20.464101615138,11.,4.0429371835));
#746 = CARTESIAN_POINT('',(20.465592739102,10.997416923215,
    4.075868605199));
#747 = CARTESIAN_POINT('',(20.468574713133,10.992252689871,
    4.108565854244));
#748 = CARTESIAN_POINT('',(20.47301702563,10.984530335114,4.140799733931
    ));
#749 = CARTESIAN_POINT('',(20.478861051702,10.974295512785,
    4.172342068508));
#750 = CARTESIAN_POINT('',(20.486022177587,10.961617999185,
    4.202967509971));
#751 = CARTESIAN_POINT('',(20.513384815271,10.912498450054,
    4.299370053121));
#752 = CARTESIAN_POINT('',(20.538700906606,10.866139131289,4.36077636841
    ));
#753 = CARTESIAN_POINT('',(20.569145823221,10.80850308583,4.413798832491
    ));
#754 = CARTESIAN_POINT('',(20.60281377534,10.741417768953,4.455911383169
    ));
#755 = CARTESIAN_POINT('',(20.637608125052,10.667313360855,
    4.485098089642));
#756 = CARTESIAN_POINT('',(20.67178672676,10.58911337733,4.5));
#757 = CARTESIAN_POINT('',(20.704038336735,10.51,4.5));
#758 = ORIENTED_EDGE('',*,*,#759,.F.);
#759 = EDGE_CURVE('',#760,#741,#762,.T.);
#760 = VERTEX_POINT('',#761);
#761 = CARTESIAN_POINT('',(20.464101615138,11.,3.99));
#762 = LINE('',#763,#764);
#763 = CARTESIAN_POINT('',(20.464101615138,11.,1.));
#764 = VECTOR('',#765,1.);
#765 = DIRECTION('',(0.,0.,1.));
#766 = ORIENTED_EDGE('',*,*,#767,.T.);
#767 = EDGE_CURVE('',#760,#768,#770,.T.);
#768 = VERTEX_POINT('',#769);
#769 = CARTESIAN_POINT('',(20.704038336735,10.51,3.5));
#770 = B_SPLINE_CURVE_WITH_KNOTS('',7,(#771,#772,#773,#774,#775,#776,
    #777,#778,#779,#780,#781,#782,#783,#784),.UNSPECIFIED.,.F.,.F.,(8,6,
    8),(0.,0.305882333991,1.),.UNSPECIFIED.);
#771 = CARTESIAN_POINT('',(20.464101615138,11.,3.99));
#772 = CARTESIAN_POINT('',(20.464101615138,11.,3.9570628165));
#773 = CARTESIAN_POINT('',(20.465592739102,10.997416923215,
    3.924131394801));
#774 = CARTESIAN_POINT('',(20.468574713133,10.992252689871,
    3.891434145756));
#775 = CARTESIAN_POINT('',(20.47301702563,10.984530335114,3.859200266069
    ));
#776 = CARTESIAN_POINT('',(20.478861051702,10.974295512785,
    3.827657931492));
#777 = CARTESIAN_POINT('',(20.486022177587,10.961617999185,
    3.797032490029));
#778 = CARTESIAN_POINT('',(20.513384815271,10.912498450054,
    3.700629946879));
#779 = CARTESIAN_POINT('',(20.538700906606,10.866139131289,3.63922363159
    ));
#780 = CARTESIAN_POINT('',(20.569145823221,10.80850308583,3.586201167509
    ));
#781 = CARTESIAN_POINT('',(20.60281377534,10.741417768954,3.544088616831
    ));
#782 = CARTESIAN_POINT('',(20.637608125052,10.667313360855,
    3.514901910358));
#783 = CARTESIAN_POINT('',(20.67178672676,10.58911337733,3.5));
#784 = CARTESIAN_POINT('',(20.704038336735,10.51,3.5));
#785 = ORIENTED_EDGE('',*,*,#786,.F.);
#786 = EDGE_CURVE('',#654,#768,#787,.T.);
#787 = CIRCLE('',#788,4.);
#788 = AXIS2_PLACEMENT_3D('',#789,#790,#791);
#789 = CARTESIAN_POINT('',(17.,9.,3.5));
#790 = DIRECTION('',(0.,0.,1.));
#791 = DIRECTION('',(1.,0.,-0.));
#792 = CYLINDRICAL_SURFACE('',#793,4.);
#793 = AXIS2_PLACEMENT_3D('',#794,#795,#796);
#794 = CARTESIAN_POINT('',(17.,9.,1.));
#795 = DIRECTION('',(0.,0.,1.));
#796 = DIRECTION('',(1.,0.,0.));
#797 = ADVANCED_FACE('',(#798,#845),#913,.T.);
#798 = FACE_BOUND('',#799,.T.);
#799 = EDGE_LOOP('',(#800,#801,#802,#803,#804,#812,#821,#829,#838,#844)
  );
#800 = ORIENTED_EDGE('',*,*,#120,.F.);
#801 = ORIENTED_EDGE('',*,*,#603,.F.);
#802 = ORIENTED_EDGE('',*,*,#306,.T.);
#803 = ORIENTED_EDGE('',*,*,#653,.T.);
#804 = ORIENTED_EDGE('',*,*,#805,.F.);
#805 = EDGE_CURVE('',#806,#654,#808,.T.);
#806 = VERTEX_POINT('',#807);
#807 = CARTESIAN_POINT('',(21.,7.49,3.5));
#808 = LINE('',#809,#810);
#809 = CARTESIAN_POINT('',(21.,7.,3.5));
#810 = VECTOR('',#811,1.);
#811 = DIRECTION('',(0.,1.,0.));
#812 = ORIENTED_EDGE('',*,*,#813,.F.);
#813 = EDGE_CURVE('',#814,#806,#816,.T.);
#814 = VERTEX_POINT('',#815);
#815 = CARTESIAN_POINT('',(21.,7.,3.99));
#816 = CIRCLE('',#817,0.49);
#817 = AXIS2_PLACEMENT_3D('',#818,#819,#820);
#818 = CARTESIAN_POINT('',(21.,7.49,3.99));
#819 = DIRECTION('',(1.,0.,-0.));
#820 = DIRECTION('',(0.,0.,1.));
#821 = ORIENTED_EDGE('',*,*,#822,.T.);
#822 = EDGE_CURVE('',#814,#823,#825,.T.);
#823 = VERTEX_POINT('',#824);
#824 = CARTESIAN_POINT('',(21.,7.,4.01));
#825 = LINE('',#826,#827);
#826 = CARTESIAN_POINT('',(21.,7.,3.5));
#827 = VECTOR('',#828,1.);
#828 = DIRECTION('',(0.,0.,1.));
#829 = ORIENTED_EDGE('',*,*,#830,.T.);
#830 = EDGE_CURVE('',#823,#831,#833,.T.);
#831 = VERTEX_POINT('',#832);
#832 = CARTESIAN_POINT('',(21.,7.49,4.5));
#833 = CIRCLE('',#834,0.49);
#834 = AXIS2_PLACEMENT_3D('',#835,#836,#837);
#835 = CARTESIAN_POINT('',(21.,7.49,4.01));
#836 = DIRECTION('',(-1.,0.,0.));
#837 = DIRECTION('',(0.,0.,1.));
#838 = ORIENTED_EDGE('',*,*,#839,.T.);
#839 = EDGE_CURVE('',#831,#724,#840,.T.);
#840 = LINE('',#841,#842);
#841 = CARTESIAN_POINT('',(21.,7.,4.5));
#842 = VECTOR('',#843,1.);
#843 = DIRECTION('',(0.,1.,0.));
#844 = ORIENTED_EDGE('',*,*,#723,.T.);
#845 = FACE_BOUND('',#846,.T.);
#846 = EDGE_LOOP('',(#847,#857,#865,#873,#882,#890,#898,#906));
#847 = ORIENTED_EDGE('',*,*,#848,.F.);
#848 = EDGE_CURVE('',#849,#851,#853,.T.);
#849 = VERTEX_POINT('',#850);
#850 = CARTESIAN_POINT('',(21.,2.9,1.6));
#851 = VERTEX_POINT('',#852);
#852 = CARTESIAN_POINT('',(21.,2.9,1.604006420562));
#853 = LINE('',#854,#855);
#854 = CARTESIAN_POINT('',(21.,2.9,1.3));
#855 = VECTOR('',#856,1.);
#856 = DIRECTION('',(0.,0.,1.));
#857 = ORIENTED_EDGE('',*,*,#858,.T.);
#858 = EDGE_CURVE('',#849,#859,#861,.T.);
#859 = VERTEX_POINT('',#860);
#860 = CARTESIAN_POINT('',(21.,-2.9,1.6));
#861 = LINE('',#862,#863);
#862 = CARTESIAN_POINT('',(21.,-7.95,1.6));
#863 = VECTOR('',#864,1.);
#864 = DIRECTION('',(0.,-1.,0.));
#865 = ORIENTED_EDGE('',*,*,#866,.T.);
#866 = EDGE_CURVE('',#859,#867,#869,.T.);
#867 = VERTEX_POINT('',#868);
#868 = CARTESIAN_POINT('',(21.,-2.9,1.604006420562));
#869 = LINE('',#870,#871);
#870 = CARTESIAN_POINT('',(21.,-2.9,1.3));
#871 = VECTOR('',#872,1.);
#872 = DIRECTION('',(0.,0.,1.));
#873 = ORIENTED_EDGE('',*,*,#874,.T.);
#874 = EDGE_CURVE('',#867,#875,#877,.T.);
#875 = VERTEX_POINT('',#876);
#876 = CARTESIAN_POINT('',(21.,-2.9,4.095993579438));
#877 = CIRCLE('',#878,1.25);
#878 = AXIS2_PLACEMENT_3D('',#879,#880,#881);
#879 = CARTESIAN_POINT('',(21.,-3.,2.85));
#880 = DIRECTION('',(-1.,-0.,-2.22044604925E-16));
#881 = DIRECTION('',(2.22044604925E-16,0.,-1.));
#882 = ORIENTED_EDGE('',*,*,#883,.T.);
#883 = EDGE_CURVE('',#875,#884,#886,.T.);
#884 = VERTEX_POINT('',#885);
#885 = CARTESIAN_POINT('',(21.,-2.9,4.1));
#886 = LINE('',#887,#888);
#887 = CARTESIAN_POINT('',(21.,-2.9,1.3));
#888 = VECTOR('',#889,1.);
#889 = DIRECTION('',(0.,0.,1.));
#890 = ORIENTED_EDGE('',*,*,#891,.F.);
#891 = EDGE_CURVE('',#892,#884,#894,.T.);
#892 = VERTEX_POINT('',#893);
#893 = CARTESIAN_POINT('',(21.,2.9,4.1));
#894 = LINE('',#895,#896);
#895 = CARTESIAN_POINT('',(21.,-7.95,4.1));
#896 = VECTOR('',#897,1.);
#897 = DIRECTION('',(0.,-1.,0.));
#898 = ORIENTED_EDGE('',*,*,#899,.F.);
#899 = EDGE_CURVE('',#900,#892,#902,.T.);
#900 = VERTEX_POINT('',#901);
#901 = CARTESIAN_POINT('',(21.,2.9,4.095993579438));
#902 = LINE('',#903,#904);
#903 = CARTESIAN_POINT('',(21.,2.9,1.3));
#904 = VECTOR('',#905,1.);
#905 = DIRECTION('',(0.,0.,1.));
#906 = ORIENTED_EDGE('',*,*,#907,.T.);
#907 = EDGE_CURVE('',#900,#851,#908,.T.);
#908 = CIRCLE('',#909,1.25);
#909 = AXIS2_PLACEMENT_3D('',#910,#911,#912);
#910 = CARTESIAN_POINT('',(21.,3.,2.85));
#911 = DIRECTION('',(-1.,-0.,-2.22044604925E-16));
#912 = DIRECTION('',(2.22044604925E-16,0.,-1.));
#913 = PLANE('',#914);
#914 = AXIS2_PLACEMENT_3D('',#915,#916,#917);
#915 = CARTESIAN_POINT('',(21.,-13.,1.));
#916 = DIRECTION('',(1.,0.,0.));
#917 = DIRECTION('',(0.,0.,1.));
#918 = ADVANCED_FACE('',(#919),#938,.F.);
#919 = FACE_BOUND('',#920,.T.);
#920 = EDGE_LOOP('',(#921,#930,#936,#937));
#921 = ORIENTED_EDGE('',*,*,#922,.T.);
#922 = EDGE_CURVE('',#923,#923,#925,.T.);
#923 = VERTEX_POINT('',#924);
#924 = CARTESIAN_POINT('',(18.2,9.,5.));
#925 = CIRCLE('',#926,2.);
#926 = AXIS2_PLACEMENT_3D('',#927,#928,#929);
#927 = CARTESIAN_POINT('',(16.2,9.,5.));
#928 = DIRECTION('',(0.,0.,-1.));
#929 = DIRECTION('',(1.,0.,0.));
#930 = ORIENTED_EDGE('',*,*,#931,.T.);
#931 = EDGE_CURVE('',#923,#155,#932,.T.);
#932 = LINE('',#933,#934);
#933 = CARTESIAN_POINT('',(18.2,9.,3.5));
#934 = VECTOR('',#935,1.);
#935 = DIRECTION('',(0.,0.,1.));
#936 = ORIENTED_EDGE('',*,*,#154,.T.);
#937 = ORIENTED_EDGE('',*,*,#931,.F.);
#938 = CYLINDRICAL_SURFACE('',#939,2.);
#939 = AXIS2_PLACEMENT_3D('',#940,#941,#942);
#940 = CARTESIAN_POINT('',(16.2,9.,3.5));
#941 = DIRECTION('',(-0.,-0.,-1.));
#942 = DIRECTION('',(1.,0.,0.));
#943 = ADVANCED_FACE('',(#944),#975,.F.);
#944 = FACE_BOUND('',#945,.F.);
#945 = EDGE_LOOP('',(#946,#947,#956,#965,#972,#973,#974));
#946 = ORIENTED_EDGE('',*,*,#288,.T.);
#947 = ORIENTED_EDGE('',*,*,#948,.T.);
#948 = EDGE_CURVE('',#281,#949,#951,.T.);
#949 = VERTEX_POINT('',#950);
#950 = CARTESIAN_POINT('',(15.112403840464,-12.1,2.5));
#951 = CIRCLE('',#952,1.705872210923);
#952 = AXIS2_PLACEMENT_3D('',#953,#954,#955);
#953 = CARTESIAN_POINT('',(14.3,-12.1,1.));
#954 = DIRECTION('',(0.,-1.,0.));
#955 = DIRECTION('',(0.,0.,-1.));
#956 = ORIENTED_EDGE('',*,*,#957,.T.);
#957 = EDGE_CURVE('',#949,#958,#960,.T.);
#958 = VERTEX_POINT('',#959);
#959 = CARTESIAN_POINT('',(13.487596159536,-12.1,2.5));
#960 = CIRCLE('',#961,4.769696007085);
#961 = AXIS2_PLACEMENT_3D('',#962,#963,#964);
#962 = CARTESIAN_POINT('',(14.3,-16.8,2.5));
#963 = DIRECTION('',(0.,0.,1.));
#964 = DIRECTION('',(1.,0.,0.));
#965 = ORIENTED_EDGE('',*,*,#966,.T.);
#966 = EDGE_CURVE('',#958,#429,#967,.T.);
#967 = CIRCLE('',#968,1.705872210923);
#968 = AXIS2_PLACEMENT_3D('',#969,#970,#971);
#969 = CARTESIAN_POINT('',(14.3,-12.1,1.));
#970 = DIRECTION('',(0.,-1.,0.));
#971 = DIRECTION('',(0.,0.,-1.));
#972 = ORIENTED_EDGE('',*,*,#428,.T.);
#973 = ORIENTED_EDGE('',*,*,#521,.T.);
#974 = ORIENTED_EDGE('',*,*,#610,.T.);
#975 = SPHERICAL_SURFACE('',#976,5.);
#976 = AXIS2_PLACEMENT_3D('',#977,#978,#979);
#977 = CARTESIAN_POINT('',(14.3,-16.8,1.));
#978 = DIRECTION('',(0.,0.,1.));
#979 = DIRECTION('',(1.,0.,0.));
#980 = ADVANCED_FACE('',(#981),#1000,.F.);
#981 = FACE_BOUND('',#982,.F.);
#982 = EDGE_LOOP('',(#983,#991,#992,#993,#994));
#983 = ORIENTED_EDGE('',*,*,#984,.F.);
#984 = EDGE_CURVE('',#949,#985,#987,.T.);
#985 = VERTEX_POINT('',#986);
#986 = CARTESIAN_POINT('',(16.78,-12.1,2.5));
#987 = LINE('',#988,#989);
#988 = CARTESIAN_POINT('',(11.78,-12.1,2.5));
#989 = VECTOR('',#990,1.);
#990 = DIRECTION('',(1.,0.,0.));
#991 = ORIENTED_EDGE('',*,*,#948,.F.);
#992 = ORIENTED_EDGE('',*,*,#280,.T.);
#993 = ORIENTED_EDGE('',*,*,#272,.T.);
#994 = ORIENTED_EDGE('',*,*,#995,.T.);
#995 = EDGE_CURVE('',#265,#985,#996,.T.);
#996 = LINE('',#997,#998);
#997 = CARTESIAN_POINT('',(16.78,-12.1,1.));
#998 = VECTOR('',#999,1.);
#999 = DIRECTION('',(0.,0.,1.));
#1000 = PLANE('',#1001);
#1001 = AXIS2_PLACEMENT_3D('',#1002,#1003,#1004);
#1002 = CARTESIAN_POINT('',(14.28375,-12.1,1.1125));
#1003 = DIRECTION('',(-0.,-1.,-0.));
#1004 = DIRECTION('',(0.,0.,-1.));
#1005 = ADVANCED_FACE('',(#1006),#1024,.F.);
#1006 = FACE_BOUND('',#1007,.F.);
#1007 = EDGE_LOOP('',(#1008,#1009,#1010,#1018));
#1008 = ORIENTED_EDGE('',*,*,#995,.F.);
#1009 = ORIENTED_EDGE('',*,*,#264,.T.);
#1010 = ORIENTED_EDGE('',*,*,#1011,.F.);
#1011 = EDGE_CURVE('',#1012,#257,#1014,.T.);
#1012 = VERTEX_POINT('',#1013);
#1013 = CARTESIAN_POINT('',(16.78,-12.,2.5));
#1014 = LINE('',#1015,#1016);
#1015 = CARTESIAN_POINT('',(16.78,-12.,1.));
#1016 = VECTOR('',#1017,1.);
#1017 = DIRECTION('',(0.,0.,-1.));
#1018 = ORIENTED_EDGE('',*,*,#1019,.F.);
#1019 = EDGE_CURVE('',#985,#1012,#1020,.T.);
#1020 = LINE('',#1021,#1022);
#1021 = CARTESIAN_POINT('',(16.78,-12.1,2.5));
#1022 = VECTOR('',#1023,1.);
#1023 = DIRECTION('',(0.,1.,0.));
#1024 = PLANE('',#1025);
#1025 = AXIS2_PLACEMENT_3D('',#1026,#1027,#1028);
#1026 = CARTESIAN_POINT('',(16.78,-12.1,1.));
#1027 = DIRECTION('',(1.,0.,0.));
#1028 = DIRECTION('',(0.,0.,1.));
#1029 = ADVANCED_FACE('',(#1030),#1071,.T.);
#1030 = FACE_BOUND('',#1031,.T.);
#1031 = EDGE_LOOP('',(#1032,#1033,#1041,#1049,#1055,#1056,#1057,#1065));
#1032 = ORIENTED_EDGE('',*,*,#461,.F.);
#1033 = ORIENTED_EDGE('',*,*,#1034,.T.);
#1034 = EDGE_CURVE('',#462,#1035,#1037,.T.);
#1035 = VERTEX_POINT('',#1036);
#1036 = CARTESIAN_POINT('',(-17.,-12.,5.));
#1037 = LINE('',#1038,#1039);
#1038 = CARTESIAN_POINT('',(-17.,-12.,1.));
#1039 = VECTOR('',#1040,1.);
#1040 = DIRECTION('',(0.,0.,1.));
#1041 = ORIENTED_EDGE('',*,*,#1042,.T.);
#1042 = EDGE_CURVE('',#1035,#1043,#1045,.T.);
#1043 = VERTEX_POINT('',#1044);
#1044 = CARTESIAN_POINT('',(17.,-12.,5.));
#1045 = LINE('',#1046,#1047);
#1046 = CARTESIAN_POINT('',(-20.,-12.,5.));
#1047 = VECTOR('',#1048,1.);
#1048 = DIRECTION('',(1.,0.,0.));
#1049 = ORIENTED_EDGE('',*,*,#1050,.F.);
#1050 = EDGE_CURVE('',#248,#1043,#1051,.T.);
#1051 = LINE('',#1052,#1053);
#1052 = CARTESIAN_POINT('',(17.,-12.,1.));
#1053 = VECTOR('',#1054,1.);
#1054 = DIRECTION('',(0.,0.,1.));
#1055 = ORIENTED_EDGE('',*,*,#256,.F.);
#1056 = ORIENTED_EDGE('',*,*,#1011,.F.);
#1057 = ORIENTED_EDGE('',*,*,#1058,.F.);
#1058 = EDGE_CURVE('',#1059,#1012,#1061,.T.);
#1059 = VERTEX_POINT('',#1060);
#1060 = CARTESIAN_POINT('',(11.78,-12.,2.5));
#1061 = LINE('',#1062,#1063);
#1062 = CARTESIAN_POINT('',(-4.11,-12.,2.5));
#1063 = VECTOR('',#1064,1.);
#1064 = DIRECTION('',(1.,0.,0.));
#1065 = ORIENTED_EDGE('',*,*,#1066,.T.);
#1066 = EDGE_CURVE('',#1059,#454,#1067,.T.);
#1067 = LINE('',#1068,#1069);
#1068 = CARTESIAN_POINT('',(11.78,-12.,1.));
#1069 = VECTOR('',#1070,1.);
#1070 = DIRECTION('',(0.,0.,-1.));
#1071 = PLANE('',#1072);
#1072 = AXIS2_PLACEMENT_3D('',#1073,#1074,#1075);
#1073 = CARTESIAN_POINT('',(-20.,-12.,1.));
#1074 = DIRECTION('',(0.,1.,0.));
#1075 = DIRECTION('',(0.,0.,1.));
#1076 = ADVANCED_FACE('',(#1077),#1096,.F.);
#1077 = FACE_BOUND('',#1078,.T.);
#1078 = EDGE_LOOP('',(#1079,#1080,#1081,#1090));
#1079 = ORIENTED_EDGE('',*,*,#247,.T.);
#1080 = ORIENTED_EDGE('',*,*,#1050,.T.);
#1081 = ORIENTED_EDGE('',*,*,#1082,.F.);
#1082 = EDGE_CURVE('',#1083,#1043,#1085,.T.);
#1083 = VERTEX_POINT('',#1084);
#1084 = CARTESIAN_POINT('',(20.,-9.,5.));
#1085 = CIRCLE('',#1086,3.);
#1086 = AXIS2_PLACEMENT_3D('',#1087,#1088,#1089);
#1087 = CARTESIAN_POINT('',(17.,-9.,5.));
#1088 = DIRECTION('',(-0.,-0.,-1.));
#1089 = DIRECTION('',(0.,-1.,0.));
#1090 = ORIENTED_EDGE('',*,*,#1091,.F.);
#1091 = EDGE_CURVE('',#240,#1083,#1092,.T.);
#1092 = LINE('',#1093,#1094);
#1093 = CARTESIAN_POINT('',(20.,-9.,1.));
#1094 = VECTOR('',#1095,1.);
#1095 = DIRECTION('',(0.,0.,1.));
#1096 = CYLINDRICAL_SURFACE('',#1097,3.);
#1097 = AXIS2_PLACEMENT_3D('',#1098,#1099,#1100);
#1098 = CARTESIAN_POINT('',(17.,-9.,1.));
#1099 = DIRECTION('',(0.,0.,1.));
#1100 = DIRECTION('',(1.,0.,0.));
#1101 = ADVANCED_FACE('',(#1102,#1170),#1238,.F.);
#1102 = FACE_BOUND('',#1103,.F.);
#1103 = EDGE_LOOP('',(#1104,#1112,#1113,#1114,#1122,#1130,#1139,#1147,
    #1156,#1164));
#1104 = ORIENTED_EDGE('',*,*,#1105,.F.);
#1105 = EDGE_CURVE('',#1083,#1106,#1108,.T.);
#1106 = VERTEX_POINT('',#1107);
#1107 = CARTESIAN_POINT('',(20.,9.,5.));
#1108 = LINE('',#1109,#1110);
#1109 = CARTESIAN_POINT('',(20.,-12.,5.));
#1110 = VECTOR('',#1111,1.);
#1111 = DIRECTION('',(0.,1.,0.));
#1112 = ORIENTED_EDGE('',*,*,#1091,.F.);
#1113 = ORIENTED_EDGE('',*,*,#239,.T.);
#1114 = ORIENTED_EDGE('',*,*,#1115,.T.);
#1115 = EDGE_CURVE('',#231,#1116,#1118,.T.);
#1116 = VERTEX_POINT('',#1117);
#1117 = CARTESIAN_POINT('',(20.,9.,3.5));
#1118 = LINE('',#1119,#1120);
#1119 = CARTESIAN_POINT('',(20.,9.,1.));
#1120 = VECTOR('',#1121,1.);
#1121 = DIRECTION('',(0.,0.,1.));
#1122 = ORIENTED_EDGE('',*,*,#1123,.F.);
#1123 = EDGE_CURVE('',#1124,#1116,#1126,.T.);
#1124 = VERTEX_POINT('',#1125);
#1125 = CARTESIAN_POINT('',(20.,7.49,3.5));
#1126 = LINE('',#1127,#1128);
#1127 = CARTESIAN_POINT('',(20.,-1.153055888647,3.5));
#1128 = VECTOR('',#1129,1.);
#1129 = DIRECTION('',(0.,1.,0.));
#1130 = ORIENTED_EDGE('',*,*,#1131,.F.);
#1131 = EDGE_CURVE('',#1132,#1124,#1134,.T.);
#1132 = VERTEX_POINT('',#1133);
#1133 = CARTESIAN_POINT('',(20.,7.,3.99));
#1134 = CIRCLE('',#1135,0.49);
#1135 = AXIS2_PLACEMENT_3D('',#1136,#1137,#1138);
#1136 = CARTESIAN_POINT('',(20.,7.49,3.99));
#1137 = DIRECTION('',(1.,0.,0.));
#1138 = DIRECTION('',(0.,-1.,0.));
#1139 = ORIENTED_EDGE('',*,*,#1140,.F.);
#1140 = EDGE_CURVE('',#1141,#1132,#1143,.T.);
#1141 = VERTEX_POINT('',#1142);
#1142 = CARTESIAN_POINT('',(20.,7.,4.01));
#1143 = LINE('',#1144,#1145);
#1144 = CARTESIAN_POINT('',(20.,7.,2.5));
#1145 = VECTOR('',#1146,1.);
#1146 = DIRECTION('',(0.,0.,-1.));
#1147 = ORIENTED_EDGE('',*,*,#1148,.F.);
#1148 = EDGE_CURVE('',#1149,#1141,#1151,.T.);
#1149 = VERTEX_POINT('',#1150);
#1150 = CARTESIAN_POINT('',(20.,7.49,4.5));
#1151 = CIRCLE('',#1152,0.49);
#1152 = AXIS2_PLACEMENT_3D('',#1153,#1154,#1155);
#1153 = CARTESIAN_POINT('',(20.,7.49,4.01));
#1154 = DIRECTION('',(1.,0.,0.));
#1155 = DIRECTION('',(0.,-1.,0.));
#1156 = ORIENTED_EDGE('',*,*,#1157,.F.);
#1157 = EDGE_CURVE('',#1158,#1149,#1160,.T.);
#1158 = VERTEX_POINT('',#1159);
#1159 = CARTESIAN_POINT('',(20.,9.,4.5));
#1160 = LINE('',#1161,#1162);
#1161 = CARTESIAN_POINT('',(20.,-2.5,4.5));
#1162 = VECTOR('',#1163,1.);
#1163 = DIRECTION('',(0.,-1.,0.));
#1164 = ORIENTED_EDGE('',*,*,#1165,.T.);
#1165 = EDGE_CURVE('',#1158,#1106,#1166,.T.);
#1166 = LINE('',#1167,#1168);
#1167 = CARTESIAN_POINT('',(20.,9.,1.));
#1168 = VECTOR('',#1169,1.);
#1169 = DIRECTION('',(0.,0.,1.));
#1170 = FACE_BOUND('',#1171,.F.);
#1171 = EDGE_LOOP('',(#1172,#1182,#1190,#1198,#1207,#1215,#1223,#1231));
#1172 = ORIENTED_EDGE('',*,*,#1173,.F.);
#1173 = EDGE_CURVE('',#1174,#1176,#1178,.T.);
#1174 = VERTEX_POINT('',#1175);
#1175 = CARTESIAN_POINT('',(20.,2.9,1.6));
#1176 = VERTEX_POINT('',#1177);
#1177 = CARTESIAN_POINT('',(20.,2.9,1.604006420562));
#1178 = LINE('',#1179,#1180);
#1179 = CARTESIAN_POINT('',(20.,2.9,1.3));
#1180 = VECTOR('',#1181,1.);
#1181 = DIRECTION('',(0.,0.,1.));
#1182 = ORIENTED_EDGE('',*,*,#1183,.T.);
#1183 = EDGE_CURVE('',#1174,#1184,#1186,.T.);
#1184 = VERTEX_POINT('',#1185);
#1185 = CARTESIAN_POINT('',(20.,-2.9,1.6));
#1186 = LINE('',#1187,#1188);
#1187 = CARTESIAN_POINT('',(20.,-7.45,1.6));
#1188 = VECTOR('',#1189,1.);
#1189 = DIRECTION('',(0.,-1.,0.));
#1190 = ORIENTED_EDGE('',*,*,#1191,.T.);
#1191 = EDGE_CURVE('',#1184,#1192,#1194,.T.);
#1192 = VERTEX_POINT('',#1193);
#1193 = CARTESIAN_POINT('',(20.,-2.9,1.604006420562));
#1194 = LINE('',#1195,#1196);
#1195 = CARTESIAN_POINT('',(20.,-2.9,1.3));
#1196 = VECTOR('',#1197,1.);
#1197 = DIRECTION('',(0.,0.,1.));
#1198 = ORIENTED_EDGE('',*,*,#1199,.T.);
#1199 = EDGE_CURVE('',#1192,#1200,#1202,.T.);
#1200 = VERTEX_POINT('',#1201);
#1201 = CARTESIAN_POINT('',(20.,-2.9,4.095993579438));
#1202 = CIRCLE('',#1203,1.25);
#1203 = AXIS2_PLACEMENT_3D('',#1204,#1205,#1206);
#1204 = CARTESIAN_POINT('',(20.,-3.,2.85));
#1205 = DIRECTION('',(-1.,-0.,-2.22044604925E-16));
#1206 = DIRECTION('',(2.22044604925E-16,0.,-1.));
#1207 = ORIENTED_EDGE('',*,*,#1208,.T.);
#1208 = EDGE_CURVE('',#1200,#1209,#1211,.T.);
#1209 = VERTEX_POINT('',#1210);
#1210 = CARTESIAN_POINT('',(20.,-2.9,4.1));
#1211 = LINE('',#1212,#1213);
#1212 = CARTESIAN_POINT('',(20.,-2.9,1.3));
#1213 = VECTOR('',#1214,1.);
#1214 = DIRECTION('',(0.,0.,1.));
#1215 = ORIENTED_EDGE('',*,*,#1216,.F.);
#1216 = EDGE_CURVE('',#1217,#1209,#1219,.T.);
#1217 = VERTEX_POINT('',#1218);
#1218 = CARTESIAN_POINT('',(20.,2.9,4.1));
#1219 = LINE('',#1220,#1221);
#1220 = CARTESIAN_POINT('',(20.,-7.45,4.1));
#1221 = VECTOR('',#1222,1.);
#1222 = DIRECTION('',(0.,-1.,0.));
#1223 = ORIENTED_EDGE('',*,*,#1224,.F.);
#1224 = EDGE_CURVE('',#1225,#1217,#1227,.T.);
#1225 = VERTEX_POINT('',#1226);
#1226 = CARTESIAN_POINT('',(20.,2.9,4.095993579438));
#1227 = LINE('',#1228,#1229);
#1228 = CARTESIAN_POINT('',(20.,2.9,1.3));
#1229 = VECTOR('',#1230,1.);
#1230 = DIRECTION('',(0.,0.,1.));
#1231 = ORIENTED_EDGE('',*,*,#1232,.T.);
#1232 = EDGE_CURVE('',#1225,#1176,#1233,.T.);
#1233 = CIRCLE('',#1234,1.25);
#1234 = AXIS2_PLACEMENT_3D('',#1235,#1236,#1237);
#1235 = CARTESIAN_POINT('',(20.,3.,2.85));
#1236 = DIRECTION('',(-1.,-0.,-2.22044604925E-16));
#1237 = DIRECTION('',(2.22044604925E-16,0.,-1.));
#1238 = PLANE('',#1239);
#1239 = AXIS2_PLACEMENT_3D('',#1240,#1241,#1242);
#1240 = CARTESIAN_POINT('',(20.,-12.,1.));
#1241 = DIRECTION('',(1.,0.,0.));
#1242 = DIRECTION('',(0.,0.,1.));
#1243 = ADVANCED_FACE('',(#1244),#1404,.F.);
#1244 = FACE_BOUND('',#1245,.F.);
#1245 = EDGE_LOOP('',(#1246,#1247,#1248,#1256,#1265,#1284,#1292,#1311,
    #1320,#1328,#1335,#1336,#1345,#1367,#1375,#1397));
#1246 = ORIENTED_EDGE('',*,*,#1115,.F.);
#1247 = ORIENTED_EDGE('',*,*,#230,.T.);
#1248 = ORIENTED_EDGE('',*,*,#1249,.T.);
#1249 = EDGE_CURVE('',#223,#1250,#1252,.T.);
#1250 = VERTEX_POINT('',#1251);
#1251 = CARTESIAN_POINT('',(17.,12.,3.5));
#1252 = LINE('',#1253,#1254);
#1253 = CARTESIAN_POINT('',(17.,12.,1.));
#1254 = VECTOR('',#1255,1.);
#1255 = DIRECTION('',(0.,0.,1.));
#1256 = ORIENTED_EDGE('',*,*,#1257,.F.);
#1257 = EDGE_CURVE('',#1258,#1250,#1260,.T.);
#1258 = VERTEX_POINT('',#1259);
#1259 = CARTESIAN_POINT('',(17.51,11.956332187018,3.5));
#1260 = CIRCLE('',#1261,3.);
#1261 = AXIS2_PLACEMENT_3D('',#1262,#1263,#1264);
#1262 = CARTESIAN_POINT('',(17.,9.,3.5));
#1263 = DIRECTION('',(0.,0.,1.));
#1264 = DIRECTION('',(1.,0.,-0.));
#1265 = ORIENTED_EDGE('',*,*,#1266,.F.);
#1266 = EDGE_CURVE('',#1267,#1258,#1269,.T.);
#1267 = VERTEX_POINT('',#1268);
#1268 = CARTESIAN_POINT('',(18.,11.828427124746,3.99));
#1269 = B_SPLINE_CURVE_WITH_KNOTS('',7,(#1270,#1271,#1272,#1273,#1274,
    #1275,#1276,#1277,#1278,#1279,#1280,#1281,#1282,#1283),
  .UNSPECIFIED.,.F.,.F.,(8,6,8),(0.,0.631075461655,1.),.UNSPECIFIED.);
#1270 = CARTESIAN_POINT('',(18.,11.828427124746,3.99));
#1271 = CARTESIAN_POINT('',(18.,11.828427124746,3.92287487723));
#1272 = CARTESIAN_POINT('',(17.989271913785,11.832220141337,
    3.855690806282));
#1273 = CARTESIAN_POINT('',(17.967782108124,11.839817566866,
    3.79034432235));
#1274 = CARTESIAN_POINT('',(17.935834212305,11.850825576616,
    3.72872720202));
#1275 = CARTESIAN_POINT('',(17.894051478057,11.864436532986,
    3.672721913693));
#1276 = CARTESIAN_POINT('',(17.843440090499,11.879621981333,
    3.624160350234));
#1277 = CARTESIAN_POINT('',(17.751503010266,11.904561636705,
    3.561679975027));
#1278 = CARTESIAN_POINT('',(17.715033020658,11.913957115056,
    3.541736318493));
#1279 = CARTESIAN_POINT('',(17.676397622141,11.923314287021,
    3.525317253367));
#1280 = CARTESIAN_POINT('',(17.636056398044,11.932402566228,
    3.512748624603));
#1281 = CARTESIAN_POINT('',(17.59451715297,11.941024388863,
    3.504263398812));
#1282 = CARTESIAN_POINT('',(17.552315691237,11.949032262258,3.5));
#1283 = CARTESIAN_POINT('',(17.51,11.956332187018,3.5));
#1284 = ORIENTED_EDGE('',*,*,#1285,.T.);
#1285 = EDGE_CURVE('',#1267,#1286,#1288,.T.);
#1286 = VERTEX_POINT('',#1287);
#1287 = CARTESIAN_POINT('',(18.,11.828427124746,4.01));
#1288 = LINE('',#1289,#1290);
#1289 = CARTESIAN_POINT('',(18.,11.828427124746,1.));
#1290 = VECTOR('',#1291,1.);
#1291 = DIRECTION('',(0.,0.,1.));
#1292 = ORIENTED_EDGE('',*,*,#1293,.T.);
#1293 = EDGE_CURVE('',#1286,#1294,#1296,.T.);
#1294 = VERTEX_POINT('',#1295);
#1295 = CARTESIAN_POINT('',(17.51,11.956332187018,4.5));
#1296 = B_SPLINE_CURVE_WITH_KNOTS('',7,(#1297,#1298,#1299,#1300,#1301,
    #1302,#1303,#1304,#1305,#1306,#1307,#1308,#1309,#1310),
  .UNSPECIFIED.,.F.,.F.,(8,6,8),(0.,0.631075461655,1.),.UNSPECIFIED.);
#1297 = CARTESIAN_POINT('',(18.,11.828427124746,4.01));
#1298 = CARTESIAN_POINT('',(18.,11.828427124746,4.07712512277));
#1299 = CARTESIAN_POINT('',(17.989271913785,11.832220141337,
    4.144309193719));
#1300 = CARTESIAN_POINT('',(17.967782108124,11.839817566866,
    4.20965567765));
#1301 = CARTESIAN_POINT('',(17.935834212305,11.850825576616,
    4.27127279798));
#1302 = CARTESIAN_POINT('',(17.894051478057,11.864436532986,
    4.327278086307));
#1303 = CARTESIAN_POINT('',(17.843440090499,11.879621981333,
    4.375839649766));
#1304 = CARTESIAN_POINT('',(17.751503010266,11.904561636705,
    4.438320024973));
#1305 = CARTESIAN_POINT('',(17.715033020658,11.913957115056,
    4.458263681507));
#1306 = CARTESIAN_POINT('',(17.676397622141,11.923314287021,
    4.474682746633));
#1307 = CARTESIAN_POINT('',(17.636056398044,11.932402566228,
    4.487251375397));
#1308 = CARTESIAN_POINT('',(17.59451715297,11.941024388863,
    4.495736601188));
#1309 = CARTESIAN_POINT('',(17.552315691237,11.949032262258,4.5));
#1310 = CARTESIAN_POINT('',(17.51,11.956332187018,4.5));
#1311 = ORIENTED_EDGE('',*,*,#1312,.T.);
#1312 = EDGE_CURVE('',#1294,#1313,#1315,.T.);
#1313 = VERTEX_POINT('',#1314);
#1314 = CARTESIAN_POINT('',(17.,12.,4.5));
#1315 = CIRCLE('',#1316,3.);
#1316 = AXIS2_PLACEMENT_3D('',#1317,#1318,#1319);
#1317 = CARTESIAN_POINT('',(17.,9.,4.5));
#1318 = DIRECTION('',(0.,0.,1.));
#1319 = DIRECTION('',(1.,0.,-0.));
#1320 = ORIENTED_EDGE('',*,*,#1321,.T.);
#1321 = EDGE_CURVE('',#1313,#1322,#1324,.T.);
#1322 = VERTEX_POINT('',#1323);
#1323 = CARTESIAN_POINT('',(17.,12.,5.));
#1324 = LINE('',#1325,#1326);
#1325 = CARTESIAN_POINT('',(17.,12.,1.));
#1326 = VECTOR('',#1327,1.);
#1327 = DIRECTION('',(0.,0.,1.));
#1328 = ORIENTED_EDGE('',*,*,#1329,.F.);
#1329 = EDGE_CURVE('',#1106,#1322,#1330,.T.);
#1330 = CIRCLE('',#1331,3.);
#1331 = AXIS2_PLACEMENT_3D('',#1332,#1333,#1334);
#1332 = CARTESIAN_POINT('',(17.,9.,5.));
#1333 = DIRECTION('',(-0.,0.,1.));
#1334 = DIRECTION('',(0.,-1.,0.));
#1335 = ORIENTED_EDGE('',*,*,#1165,.F.);
#1336 = ORIENTED_EDGE('',*,*,#1337,.T.);
#1337 = EDGE_CURVE('',#1158,#1338,#1340,.T.);
#1338 = VERTEX_POINT('',#1339);
#1339 = CARTESIAN_POINT('',(19.592276991373,10.51,4.5));
#1340 = CIRCLE('',#1341,3.);
#1341 = AXIS2_PLACEMENT_3D('',#1342,#1343,#1344);
#1342 = CARTESIAN_POINT('',(17.,9.,4.5));
#1343 = DIRECTION('',(0.,0.,1.));
#1344 = DIRECTION('',(1.,0.,-0.));
#1345 = ORIENTED_EDGE('',*,*,#1346,.F.);
#1346 = EDGE_CURVE('',#1347,#1338,#1349,.T.);
#1347 = VERTEX_POINT('',#1348);
#1348 = CARTESIAN_POINT('',(19.2360679775,11.,4.01));
#1349 = B_SPLINE_CURVE_WITH_KNOTS('',6,(#1350,#1351,#1352,#1353,#1354,
    #1355,#1356,#1357,#1358,#1359,#1360,#1361,#1362,#1363,#1364,#1365,
    #1366),.UNSPECIFIED.,.F.,.F.,(7,5,5,7),(0.,0.286434000058,
    0.604207872125,1.),.UNSPECIFIED.);
#1350 = CARTESIAN_POINT('',(19.2360679775,11.,4.01));
#1351 = CARTESIAN_POINT('',(19.2360679775,11.,4.047040596723));
#1352 = CARTESIAN_POINT('',(19.239073254614,10.996639978877,
    4.084038826295));
#1353 = CARTESIAN_POINT('',(19.245070978788,10.989934408099,
    4.120605295568));
#1354 = CARTESIAN_POINT('',(19.253923965405,10.979960051551,
    4.156352101546));
#1355 = CARTESIAN_POINT('',(19.265371005082,10.966859641186,
    4.190888291156));
#1356 = CARTESIAN_POINT('',(19.294230923984,10.933144916179,
    4.260398198705));
#1357 = CARTESIAN_POINT('',(19.312166633155,10.911857209483,
    4.295023512493));
#1358 = CARTESIAN_POINT('',(19.332445631267,10.887254041677,
    4.327377851509));
#1359 = CARTESIAN_POINT('',(19.354603662751,10.859603132261,
    4.357123788359));
#1360 = CARTESIAN_POINT('',(19.378160467919,10.829214546742,
    4.383941686228));
#1361 = CARTESIAN_POINT('',(19.433161165869,10.755654346938,
    4.436946198719));
#1362 = CARTESIAN_POINT('',(19.465214083314,10.711051832913,
    4.461450693271));
#1363 = CARTESIAN_POINT('',(19.49791574118,10.663340839969,
    4.480435106834));
#1364 = CARTESIAN_POINT('',(19.530420528428,10.613325042069,
    4.493405000799));
#1365 = CARTESIAN_POINT('',(19.562048734054,10.561894050289,4.5));
#1366 = CARTESIAN_POINT('',(19.592276991373,10.51,4.5));
#1367 = ORIENTED_EDGE('',*,*,#1368,.F.);
#1368 = EDGE_CURVE('',#1369,#1347,#1371,.T.);
#1369 = VERTEX_POINT('',#1370);
#1370 = CARTESIAN_POINT('',(19.2360679775,11.,3.99));
#1371 = LINE('',#1372,#1373);
#1372 = CARTESIAN_POINT('',(19.2360679775,11.,1.));
#1373 = VECTOR('',#1374,1.);
#1374 = DIRECTION('',(0.,0.,1.));
#1375 = ORIENTED_EDGE('',*,*,#1376,.T.);
#1376 = EDGE_CURVE('',#1369,#1377,#1379,.T.);
#1377 = VERTEX_POINT('',#1378);
#1378 = CARTESIAN_POINT('',(19.592276991373,10.51,3.5));
#1379 = B_SPLINE_CURVE_WITH_KNOTS('',6,(#1380,#1381,#1382,#1383,#1384,
    #1385,#1386,#1387,#1388,#1389,#1390,#1391,#1392,#1393,#1394,#1395,
    #1396),.UNSPECIFIED.,.F.,.F.,(7,5,5,7),(0.,0.288948657933,
    0.601689315129,1.),.UNSPECIFIED.);
#1380 = CARTESIAN_POINT('',(19.2360679775,11.,3.99));
#1381 = CARTESIAN_POINT('',(19.2360679775,11.,3.952634583747));
#1382 = CARTESIAN_POINT('',(19.23912619338,10.996580790211,
    3.915313283694));
#1383 = CARTESIAN_POINT('',(19.245229149691,10.989757572466,
    3.878435193315));
#1384 = CARTESIAN_POINT('',(19.254234936893,10.979609656616,
    3.842397823812));
#1385 = CARTESIAN_POINT('',(19.265873573769,10.96628437899,
    3.807601953233));
#1386 = CARTESIAN_POINT('',(19.294818899194,10.932444550746,
    3.738526269583));
#1387 = CARTESIAN_POINT('',(19.31252308723,10.911417164082,
    3.704502594294));
#1388 = CARTESIAN_POINT('',(19.332487489985,10.887185251468,3.6726869296
    ));
#1389 = CARTESIAN_POINT('',(19.354271618101,10.860001983835,
    3.643397826662));
#1390 = CARTESIAN_POINT('',(19.377419830202,10.830160528443,
    3.616936930727));
#1391 = CARTESIAN_POINT('',(19.432140719218,10.757073510237,
    3.563836103756));
#1392 = CARTESIAN_POINT('',(19.464381309715,10.712266218694,
    3.539034182935));
#1393 = CARTESIAN_POINT('',(19.497294561721,10.664296258471,
    3.519813644446));
#1394 = CARTESIAN_POINT('',(19.530017106343,10.613980871541,
    3.506679522962));
#1395 = CARTESIAN_POINT('',(19.561855636441,10.562225548634,3.5));
#1396 = CARTESIAN_POINT('',(19.592276991373,10.51,3.5));
#1397 = ORIENTED_EDGE('',*,*,#1398,.F.);
#1398 = EDGE_CURVE('',#1116,#1377,#1399,.T.);
#1399 = CIRCLE('',#1400,3.);
#1400 = AXIS2_PLACEMENT_3D('',#1401,#1402,#1403);
#1401 = CARTESIAN_POINT('',(17.,9.,3.5));
#1402 = DIRECTION('',(0.,0.,1.));
#1403 = DIRECTION('',(1.,0.,-0.));
#1404 = CYLINDRICAL_SURFACE('',#1405,3.);
#1405 = AXIS2_PLACEMENT_3D('',#1406,#1407,#1408);
#1406 = CARTESIAN_POINT('',(17.,9.,1.));
#1407 = DIRECTION('',(0.,0.,1.));
#1408 = DIRECTION('',(1.,0.,0.));
#1409 = ADVANCED_FACE('',(#1410),#1469,.F.);
#1410 = FACE_BOUND('',#1411,.F.);
#1411 = EDGE_LOOP('',(#1412,#1413,#1421,#1427,#1428,#1436,#1445,#1453,
    #1462,#1468));
#1412 = ORIENTED_EDGE('',*,*,#222,.F.);
#1413 = ORIENTED_EDGE('',*,*,#1414,.T.);
#1414 = EDGE_CURVE('',#214,#1415,#1417,.T.);
#1415 = VERTEX_POINT('',#1416);
#1416 = CARTESIAN_POINT('',(-17.,12.,5.));
#1417 = LINE('',#1418,#1419);
#1418 = CARTESIAN_POINT('',(-17.,12.,1.));
#1419 = VECTOR('',#1420,1.);
#1420 = DIRECTION('',(0.,0.,1.));
#1421 = ORIENTED_EDGE('',*,*,#1422,.T.);
#1422 = EDGE_CURVE('',#1415,#1322,#1423,.T.);
#1423 = LINE('',#1424,#1425);
#1424 = CARTESIAN_POINT('',(-20.,12.,5.));
#1425 = VECTOR('',#1426,1.);
#1426 = DIRECTION('',(1.,0.,0.));
#1427 = ORIENTED_EDGE('',*,*,#1321,.F.);
#1428 = ORIENTED_EDGE('',*,*,#1429,.F.);
#1429 = EDGE_CURVE('',#1430,#1313,#1432,.T.);
#1430 = VERTEX_POINT('',#1431);
#1431 = CARTESIAN_POINT('',(14.49,12.,4.5));
#1432 = LINE('',#1433,#1434);
#1433 = CARTESIAN_POINT('',(-2.343722518383,12.,4.5));
#1434 = VECTOR('',#1435,1.);
#1435 = DIRECTION('',(1.,0.,0.));
#1436 = ORIENTED_EDGE('',*,*,#1437,.F.);
#1437 = EDGE_CURVE('',#1438,#1430,#1440,.T.);
#1438 = VERTEX_POINT('',#1439);
#1439 = CARTESIAN_POINT('',(14.,12.,4.01));
#1440 = CIRCLE('',#1441,0.49);
#1441 = AXIS2_PLACEMENT_3D('',#1442,#1443,#1444);
#1442 = CARTESIAN_POINT('',(14.49,12.,4.01));
#1443 = DIRECTION('',(0.,1.,0.));
#1444 = DIRECTION('',(-1.,0.,0.));
#1445 = ORIENTED_EDGE('',*,*,#1446,.F.);
#1446 = EDGE_CURVE('',#1447,#1438,#1449,.T.);
#1447 = VERTEX_POINT('',#1448);
#1448 = CARTESIAN_POINT('',(14.,12.,3.99));
#1449 = LINE('',#1450,#1451);
#1450 = CARTESIAN_POINT('',(14.,12.,2.5));
#1451 = VECTOR('',#1452,1.);
#1452 = DIRECTION('',(0.,0.,1.));
#1453 = ORIENTED_EDGE('',*,*,#1454,.F.);
#1454 = EDGE_CURVE('',#1455,#1447,#1457,.T.);
#1455 = VERTEX_POINT('',#1456);
#1456 = CARTESIAN_POINT('',(14.49,12.,3.5));
#1457 = CIRCLE('',#1458,0.49);
#1458 = AXIS2_PLACEMENT_3D('',#1459,#1460,#1461);
#1459 = CARTESIAN_POINT('',(14.49,12.,3.99));
#1460 = DIRECTION('',(0.,1.,0.));
#1461 = DIRECTION('',(-1.,0.,0.));
#1462 = ORIENTED_EDGE('',*,*,#1463,.F.);
#1463 = EDGE_CURVE('',#1250,#1455,#1464,.T.);
#1464 = LINE('',#1465,#1466);
#1465 = CARTESIAN_POINT('',(-1.421933790918,12.,3.5));
#1466 = VECTOR('',#1467,1.);
#1467 = DIRECTION('',(-1.,0.,0.));
#1468 = ORIENTED_EDGE('',*,*,#1249,.F.);
#1469 = PLANE('',#1470);
#1470 = AXIS2_PLACEMENT_3D('',#1471,#1472,#1473);
#1471 = CARTESIAN_POINT('',(-20.,12.,1.));
#1472 = DIRECTION('',(0.,1.,0.));
#1473 = DIRECTION('',(0.,0.,1.));
#1474 = ADVANCED_FACE('',(#1475),#1494,.F.);
#1475 = FACE_BOUND('',#1476,.T.);
#1476 = EDGE_LOOP('',(#1477,#1478,#1479,#1488));
#1477 = ORIENTED_EDGE('',*,*,#213,.T.);
#1478 = ORIENTED_EDGE('',*,*,#1414,.T.);
#1479 = ORIENTED_EDGE('',*,*,#1480,.F.);
#1480 = EDGE_CURVE('',#1481,#1415,#1483,.T.);
#1481 = VERTEX_POINT('',#1482);
#1482 = CARTESIAN_POINT('',(-20.,9.,5.));
#1483 = CIRCLE('',#1484,3.);
#1484 = AXIS2_PLACEMENT_3D('',#1485,#1486,#1487);
#1485 = CARTESIAN_POINT('',(-17.,9.,5.));
#1486 = DIRECTION('',(-0.,-0.,-1.));
#1487 = DIRECTION('',(0.,-1.,0.));
#1488 = ORIENTED_EDGE('',*,*,#1489,.F.);
#1489 = EDGE_CURVE('',#206,#1481,#1490,.T.);
#1490 = LINE('',#1491,#1492);
#1491 = CARTESIAN_POINT('',(-20.,9.,1.));
#1492 = VECTOR('',#1493,1.);
#1493 = DIRECTION('',(0.,0.,1.));
#1494 = CYLINDRICAL_SURFACE('',#1495,3.);
#1495 = AXIS2_PLACEMENT_3D('',#1496,#1497,#1498);
#1496 = CARTESIAN_POINT('',(-17.,9.,1.));
#1497 = DIRECTION('',(0.,0.,1.));
#1498 = DIRECTION('',(-1.,0.,0.));
#1499 = ADVANCED_FACE('',(#1500),#1522,.T.);
#1500 = FACE_BOUND('',#1501,.T.);
#1501 = EDGE_LOOP('',(#1502,#1510,#1516,#1517,#1518,#1519,#1520,#1521));
#1502 = ORIENTED_EDGE('',*,*,#1503,.F.);
#1503 = EDGE_CURVE('',#1504,#1481,#1506,.T.);
#1504 = VERTEX_POINT('',#1505);
#1505 = CARTESIAN_POINT('',(-20.,-9.,5.));
#1506 = LINE('',#1507,#1508);
#1507 = CARTESIAN_POINT('',(-20.,-12.,5.));
#1508 = VECTOR('',#1509,1.);
#1509 = DIRECTION('',(0.,1.,0.));
#1510 = ORIENTED_EDGE('',*,*,#1511,.F.);
#1511 = EDGE_CURVE('',#470,#1504,#1512,.T.);
#1512 = LINE('',#1513,#1514);
#1513 = CARTESIAN_POINT('',(-20.,-9.,1.));
#1514 = VECTOR('',#1515,1.);
#1515 = DIRECTION('',(0.,0.,1.));
#1516 = ORIENTED_EDGE('',*,*,#478,.T.);
#1517 = ORIENTED_EDGE('',*,*,#387,.T.);
#1518 = ORIENTED_EDGE('',*,*,#370,.F.);
#1519 = ORIENTED_EDGE('',*,*,#346,.F.);
#1520 = ORIENTED_EDGE('',*,*,#205,.T.);
#1521 = ORIENTED_EDGE('',*,*,#1489,.T.);
#1522 = PLANE('',#1523);
#1523 = AXIS2_PLACEMENT_3D('',#1524,#1525,#1526);
#1524 = CARTESIAN_POINT('',(-20.,-12.,1.));
#1525 = DIRECTION('',(1.,0.,0.));
#1526 = DIRECTION('',(0.,0.,1.));
#1527 = ADVANCED_FACE('',(#1528),#1540,.F.);
#1528 = FACE_BOUND('',#1529,.F.);
#1529 = EDGE_LOOP('',(#1530,#1531,#1532,#1539));
#1530 = ORIENTED_EDGE('',*,*,#469,.T.);
#1531 = ORIENTED_EDGE('',*,*,#1034,.T.);
#1532 = ORIENTED_EDGE('',*,*,#1533,.F.);
#1533 = EDGE_CURVE('',#1504,#1035,#1534,.T.);
#1534 = CIRCLE('',#1535,3.);
#1535 = AXIS2_PLACEMENT_3D('',#1536,#1537,#1538);
#1536 = CARTESIAN_POINT('',(-17.,-9.,5.));
#1537 = DIRECTION('',(-0.,0.,1.));
#1538 = DIRECTION('',(0.,-1.,0.));
#1539 = ORIENTED_EDGE('',*,*,#1511,.F.);
#1540 = CYLINDRICAL_SURFACE('',#1541,3.);
#1541 = AXIS2_PLACEMENT_3D('',#1542,#1543,#1544);
#1542 = CARTESIAN_POINT('',(-17.,-9.,1.));
#1543 = DIRECTION('',(0.,0.,1.));
#1544 = DIRECTION('',(-1.,0.,0.));
#1545 = ADVANCED_FACE('',(#1546),#1564,.T.);
#1546 = FACE_BOUND('',#1547,.T.);
#1547 = EDGE_LOOP('',(#1548,#1556,#1557,#1558));
#1548 = ORIENTED_EDGE('',*,*,#1549,.F.);
#1549 = EDGE_CURVE('',#446,#1550,#1552,.T.);
#1550 = VERTEX_POINT('',#1551);
#1551 = CARTESIAN_POINT('',(11.78,-12.1,2.5));
#1552 = LINE('',#1553,#1554);
#1553 = CARTESIAN_POINT('',(11.78,-12.1,1.));
#1554 = VECTOR('',#1555,1.);
#1555 = DIRECTION('',(0.,0.,1.));
#1556 = ORIENTED_EDGE('',*,*,#453,.T.);
#1557 = ORIENTED_EDGE('',*,*,#1066,.F.);
#1558 = ORIENTED_EDGE('',*,*,#1559,.F.);
#1559 = EDGE_CURVE('',#1550,#1059,#1560,.T.);
#1560 = LINE('',#1561,#1562);
#1561 = CARTESIAN_POINT('',(11.78,-12.1,2.5));
#1562 = VECTOR('',#1563,1.);
#1563 = DIRECTION('',(0.,1.,0.));
#1564 = PLANE('',#1565);
#1565 = AXIS2_PLACEMENT_3D('',#1566,#1567,#1568);
#1566 = CARTESIAN_POINT('',(11.78,-12.1,1.));
#1567 = DIRECTION('',(1.,0.,0.));
#1568 = DIRECTION('',(0.,0.,1.));
#1569 = ADVANCED_FACE('',(#1570),#1582,.F.);
#1570 = FACE_BOUND('',#1571,.F.);
#1571 = EDGE_LOOP('',(#1572,#1573,#1574,#1575,#1576));
#1572 = ORIENTED_EDGE('',*,*,#1549,.F.);
#1573 = ORIENTED_EDGE('',*,*,#445,.T.);
#1574 = ORIENTED_EDGE('',*,*,#437,.T.);
#1575 = ORIENTED_EDGE('',*,*,#966,.F.);
#1576 = ORIENTED_EDGE('',*,*,#1577,.F.);
#1577 = EDGE_CURVE('',#1550,#958,#1578,.T.);
#1578 = LINE('',#1579,#1580);
#1579 = CARTESIAN_POINT('',(11.78,-12.1,2.5));
#1580 = VECTOR('',#1581,1.);
#1581 = DIRECTION('',(1.,0.,0.));
#1582 = PLANE('',#1583);
#1583 = AXIS2_PLACEMENT_3D('',#1584,#1585,#1586);
#1584 = CARTESIAN_POINT('',(14.28375,-12.1,1.1125));
#1585 = DIRECTION('',(-0.,-1.,-0.));
#1586 = DIRECTION('',(0.,0.,-1.));
#1587 = ADVANCED_FACE('',(#1588),#1606,.F.);
#1588 = FACE_BOUND('',#1589,.F.);
#1589 = EDGE_LOOP('',(#1590,#1596,#1597,#1598,#1604,#1605));
#1590 = ORIENTED_EDGE('',*,*,#1591,.F.);
#1591 = EDGE_CURVE('',#1258,#664,#1592,.T.);
#1592 = LINE('',#1593,#1594);
#1593 = CARTESIAN_POINT('',(17.51,7.,3.5));
#1594 = VECTOR('',#1595,1.);
#1595 = DIRECTION('',(0.,1.,0.));
#1596 = ORIENTED_EDGE('',*,*,#1257,.T.);
#1597 = ORIENTED_EDGE('',*,*,#1463,.T.);
#1598 = ORIENTED_EDGE('',*,*,#1599,.T.);
#1599 = EDGE_CURVE('',#1455,#573,#1600,.T.);
#1600 = LINE('',#1601,#1602);
#1601 = CARTESIAN_POINT('',(14.49,7.,3.5));
#1602 = VECTOR('',#1603,1.);
#1603 = DIRECTION('',(0.,1.,0.));
#1604 = ORIENTED_EDGE('',*,*,#581,.T.);
#1605 = ORIENTED_EDGE('',*,*,#663,.F.);
#1606 = PLANE('',#1607);
#1607 = AXIS2_PLACEMENT_3D('',#1608,#1609,#1610);
#1608 = CARTESIAN_POINT('',(17.156132418165,9.693888222707,3.5));
#1609 = DIRECTION('',(-0.,-0.,-1.));
#1610 = DIRECTION('',(-1.,0.,0.));
#1611 = ADVANCED_FACE('',(#1612),#1623,.F.);
#1612 = FACE_BOUND('',#1613,.T.);
#1613 = EDGE_LOOP('',(#1614,#1620,#1621,#1622));
#1614 = ORIENTED_EDGE('',*,*,#1615,.F.);
#1615 = EDGE_CURVE('',#1447,#565,#1616,.T.);
#1616 = LINE('',#1617,#1618);
#1617 = CARTESIAN_POINT('',(14.,7.,3.99));
#1618 = VECTOR('',#1619,1.);
#1619 = DIRECTION('',(0.,1.,0.));
#1620 = ORIENTED_EDGE('',*,*,#1454,.F.);
#1621 = ORIENTED_EDGE('',*,*,#1599,.T.);
#1622 = ORIENTED_EDGE('',*,*,#572,.F.);
#1623 = CYLINDRICAL_SURFACE('',#1624,0.49);
#1624 = AXIS2_PLACEMENT_3D('',#1625,#1626,#1627);
#1625 = CARTESIAN_POINT('',(14.49,7.,3.99));
#1626 = DIRECTION('',(0.,1.,0.));
#1627 = DIRECTION('',(-1.,0.,0.));
#1628 = ADVANCED_FACE('',(#1629),#1640,.F.);
#1629 = FACE_BOUND('',#1630,.F.);
#1630 = EDGE_LOOP('',(#1631,#1632,#1633,#1639));
#1631 = ORIENTED_EDGE('',*,*,#1615,.F.);
#1632 = ORIENTED_EDGE('',*,*,#1446,.T.);
#1633 = ORIENTED_EDGE('',*,*,#1634,.T.);
#1634 = EDGE_CURVE('',#1438,#556,#1635,.T.);
#1635 = LINE('',#1636,#1637);
#1636 = CARTESIAN_POINT('',(14.,7.,4.01));
#1637 = VECTOR('',#1638,1.);
#1638 = DIRECTION('',(0.,1.,0.));
#1639 = ORIENTED_EDGE('',*,*,#564,.F.);
#1640 = PLANE('',#1641);
#1641 = AXIS2_PLACEMENT_3D('',#1642,#1643,#1644);
#1642 = CARTESIAN_POINT('',(14.,9.917423365215,4.));
#1643 = DIRECTION('',(-1.,-0.,-0.));
#1644 = DIRECTION('',(0.,0.,-1.));
#1645 = ADVANCED_FACE('',(#1646),#1657,.F.);
#1646 = FACE_BOUND('',#1647,.F.);
#1647 = EDGE_LOOP('',(#1648,#1649,#1650,#1656));
#1648 = ORIENTED_EDGE('',*,*,#1634,.F.);
#1649 = ORIENTED_EDGE('',*,*,#1437,.T.);
#1650 = ORIENTED_EDGE('',*,*,#1651,.T.);
#1651 = EDGE_CURVE('',#1430,#548,#1652,.T.);
#1652 = LINE('',#1653,#1654);
#1653 = CARTESIAN_POINT('',(14.49,7.,4.5));
#1654 = VECTOR('',#1655,1.);
#1655 = DIRECTION('',(0.,1.,0.));
#1656 = ORIENTED_EDGE('',*,*,#555,.F.);
#1657 = CYLINDRICAL_SURFACE('',#1658,0.49);
#1658 = AXIS2_PLACEMENT_3D('',#1659,#1660,#1661);
#1659 = CARTESIAN_POINT('',(14.49,7.,4.01));
#1660 = DIRECTION('',(0.,1.,0.));
#1661 = DIRECTION('',(-1.,0.,0.));
#1662 = ADVANCED_FACE('',(#1663),#1676,.F.);
#1663 = FACE_BOUND('',#1664,.F.);
#1664 = EDGE_LOOP('',(#1665,#1666,#1667,#1668,#1669,#1675));
#1665 = ORIENTED_EDGE('',*,*,#547,.F.);
#1666 = ORIENTED_EDGE('',*,*,#1651,.F.);
#1667 = ORIENTED_EDGE('',*,*,#1429,.T.);
#1668 = ORIENTED_EDGE('',*,*,#1312,.F.);
#1669 = ORIENTED_EDGE('',*,*,#1670,.T.);
#1670 = EDGE_CURVE('',#1294,#698,#1671,.T.);
#1671 = LINE('',#1672,#1673);
#1672 = CARTESIAN_POINT('',(17.51,7.,4.5));
#1673 = VECTOR('',#1674,1.);
#1674 = DIRECTION('',(0.,1.,0.));
#1675 = ORIENTED_EDGE('',*,*,#714,.T.);
#1676 = PLANE('',#1677);
#1677 = AXIS2_PLACEMENT_3D('',#1678,#1679,#1680);
#1678 = CARTESIAN_POINT('',(15.312554963233,10.097916942322,4.5));
#1679 = DIRECTION('',(0.,0.,1.));
#1680 = DIRECTION('',(1.,0.,0.));
#1681 = ADVANCED_FACE('',(#1682),#1700,.F.);
#1682 = FACE_BOUND('',#1683,.F.);
#1683 = EDGE_LOOP('',(#1684,#1685,#1691,#1692,#1693,#1699));
#1684 = ORIENTED_EDGE('',*,*,#1398,.T.);
#1685 = ORIENTED_EDGE('',*,*,#1686,.T.);
#1686 = EDGE_CURVE('',#1377,#768,#1687,.T.);
#1687 = LINE('',#1688,#1689);
#1688 = CARTESIAN_POINT('',(14.,10.51,3.5));
#1689 = VECTOR('',#1690,1.);
#1690 = DIRECTION('',(1.,0.,0.));
#1691 = ORIENTED_EDGE('',*,*,#786,.F.);
#1692 = ORIENTED_EDGE('',*,*,#805,.F.);
#1693 = ORIENTED_EDGE('',*,*,#1694,.F.);
#1694 = EDGE_CURVE('',#1124,#806,#1695,.T.);
#1695 = LINE('',#1696,#1697);
#1696 = CARTESIAN_POINT('',(14.,7.49,3.5));
#1697 = VECTOR('',#1698,1.);
#1698 = DIRECTION('',(1.,0.,0.));
#1699 = ORIENTED_EDGE('',*,*,#1123,.T.);
#1700 = PLANE('',#1701);
#1701 = AXIS2_PLACEMENT_3D('',#1702,#1703,#1704);
#1702 = CARTESIAN_POINT('',(17.156132418165,9.693888222707,3.5));
#1703 = DIRECTION('',(-0.,-0.,-1.));
#1704 = DIRECTION('',(-1.,0.,0.));
#1705 = ADVANCED_FACE('',(#1706),#1717,.F.);
#1706 = FACE_BOUND('',#1707,.T.);
#1707 = EDGE_LOOP('',(#1708,#1714,#1715,#1716));
#1708 = ORIENTED_EDGE('',*,*,#1709,.F.);
#1709 = EDGE_CURVE('',#1369,#760,#1710,.T.);
#1710 = LINE('',#1711,#1712);
#1711 = CARTESIAN_POINT('',(14.,11.,3.99));
#1712 = VECTOR('',#1713,1.);
#1713 = DIRECTION('',(1.,0.,0.));
#1714 = ORIENTED_EDGE('',*,*,#1376,.T.);
#1715 = ORIENTED_EDGE('',*,*,#1686,.T.);
#1716 = ORIENTED_EDGE('',*,*,#767,.F.);
#1717 = CYLINDRICAL_SURFACE('',#1718,0.49);
#1718 = AXIS2_PLACEMENT_3D('',#1719,#1720,#1721);
#1719 = CARTESIAN_POINT('',(14.,10.51,3.99));
#1720 = DIRECTION('',(1.,0.,0.));
#1721 = DIRECTION('',(0.,1.,0.));
#1722 = ADVANCED_FACE('',(#1723),#1734,.F.);
#1723 = FACE_BOUND('',#1724,.F.);
#1724 = EDGE_LOOP('',(#1725,#1726,#1727,#1728));
#1725 = ORIENTED_EDGE('',*,*,#759,.F.);
#1726 = ORIENTED_EDGE('',*,*,#1709,.F.);
#1727 = ORIENTED_EDGE('',*,*,#1368,.T.);
#1728 = ORIENTED_EDGE('',*,*,#1729,.T.);
#1729 = EDGE_CURVE('',#1347,#741,#1730,.T.);
#1730 = LINE('',#1731,#1732);
#1731 = CARTESIAN_POINT('',(14.,11.,4.01));
#1732 = VECTOR('',#1733,1.);
#1733 = DIRECTION('',(1.,0.,0.));
#1734 = PLANE('',#1735);
#1735 = AXIS2_PLACEMENT_3D('',#1736,#1737,#1738);
#1736 = CARTESIAN_POINT('',(14.,11.,3.5));
#1737 = DIRECTION('',(0.,1.,0.));
#1738 = DIRECTION('',(0.,0.,1.));
#1739 = ADVANCED_FACE('',(#1740),#1751,.F.);
#1740 = FACE_BOUND('',#1741,.F.);
#1741 = EDGE_LOOP('',(#1742,#1743,#1744,#1750));
#1742 = ORIENTED_EDGE('',*,*,#1729,.F.);
#1743 = ORIENTED_EDGE('',*,*,#1346,.T.);
#1744 = ORIENTED_EDGE('',*,*,#1745,.T.);
#1745 = EDGE_CURVE('',#1338,#732,#1746,.T.);
#1746 = LINE('',#1747,#1748);
#1747 = CARTESIAN_POINT('',(14.,10.51,4.5));
#1748 = VECTOR('',#1749,1.);
#1749 = DIRECTION('',(1.,0.,0.));
#1750 = ORIENTED_EDGE('',*,*,#740,.F.);
#1751 = CYLINDRICAL_SURFACE('',#1752,0.49);
#1752 = AXIS2_PLACEMENT_3D('',#1753,#1754,#1755);
#1753 = CARTESIAN_POINT('',(14.,10.51,4.01));
#1754 = DIRECTION('',(1.,0.,0.));
#1755 = DIRECTION('',(0.,1.,0.));
#1756 = ADVANCED_FACE('',(#1757),#1770,.F.);
#1757 = FACE_BOUND('',#1758,.F.);
#1758 = EDGE_LOOP('',(#1759,#1760,#1766,#1767,#1768,#1769));
#1759 = ORIENTED_EDGE('',*,*,#1157,.T.);
#1760 = ORIENTED_EDGE('',*,*,#1761,.T.);
#1761 = EDGE_CURVE('',#1149,#831,#1762,.T.);
#1762 = LINE('',#1763,#1764);
#1763 = CARTESIAN_POINT('',(14.,7.49,4.5));
#1764 = VECTOR('',#1765,1.);
#1765 = DIRECTION('',(1.,0.,0.));
#1766 = ORIENTED_EDGE('',*,*,#839,.T.);
#1767 = ORIENTED_EDGE('',*,*,#731,.T.);
#1768 = ORIENTED_EDGE('',*,*,#1745,.F.);
#1769 = ORIENTED_EDGE('',*,*,#1337,.F.);
#1770 = PLANE('',#1771);
#1771 = AXIS2_PLACEMENT_3D('',#1772,#1773,#1774);
#1772 = CARTESIAN_POINT('',(14.,7.,4.5));
#1773 = DIRECTION('',(0.,0.,1.));
#1774 = DIRECTION('',(1.,0.,0.));
#1775 = ADVANCED_FACE('',(#1776),#1787,.F.);
#1776 = FACE_BOUND('',#1777,.T.);
#1777 = EDGE_LOOP('',(#1778,#1784,#1785,#1786));
#1778 = ORIENTED_EDGE('',*,*,#1779,.F.);
#1779 = EDGE_CURVE('',#1286,#690,#1780,.T.);
#1780 = LINE('',#1781,#1782);
#1781 = CARTESIAN_POINT('',(18.,7.,4.01));
#1782 = VECTOR('',#1783,1.);
#1783 = DIRECTION('',(0.,1.,0.));
#1784 = ORIENTED_EDGE('',*,*,#1293,.T.);
#1785 = ORIENTED_EDGE('',*,*,#1670,.T.);
#1786 = ORIENTED_EDGE('',*,*,#697,.F.);
#1787 = CYLINDRICAL_SURFACE('',#1788,0.49);
#1788 = AXIS2_PLACEMENT_3D('',#1789,#1790,#1791);
#1789 = CARTESIAN_POINT('',(17.51,7.,4.01));
#1790 = DIRECTION('',(0.,1.,0.));
#1791 = DIRECTION('',(1.,0.,0.));
#1792 = ADVANCED_FACE('',(#1793),#1804,.F.);
#1793 = FACE_BOUND('',#1794,.F.);
#1794 = EDGE_LOOP('',(#1795,#1796,#1802,#1803));
#1795 = ORIENTED_EDGE('',*,*,#1285,.F.);
#1796 = ORIENTED_EDGE('',*,*,#1797,.T.);
#1797 = EDGE_CURVE('',#1267,#673,#1798,.T.);
#1798 = LINE('',#1799,#1800);
#1799 = CARTESIAN_POINT('',(18.,7.,3.99));
#1800 = VECTOR('',#1801,1.);
#1801 = DIRECTION('',(0.,1.,0.));
#1802 = ORIENTED_EDGE('',*,*,#689,.T.);
#1803 = ORIENTED_EDGE('',*,*,#1779,.F.);
#1804 = PLANE('',#1805);
#1805 = AXIS2_PLACEMENT_3D('',#1806,#1807,#1808);
#1806 = CARTESIAN_POINT('',(18.,7.,3.5));
#1807 = DIRECTION('',(1.,0.,0.));
#1808 = DIRECTION('',(0.,0.,1.));
#1809 = ADVANCED_FACE('',(#1810),#1816,.F.);
#1810 = FACE_BOUND('',#1811,.F.);
#1811 = EDGE_LOOP('',(#1812,#1813,#1814,#1815));
#1812 = ORIENTED_EDGE('',*,*,#1797,.F.);
#1813 = ORIENTED_EDGE('',*,*,#1266,.T.);
#1814 = ORIENTED_EDGE('',*,*,#1591,.T.);
#1815 = ORIENTED_EDGE('',*,*,#672,.F.);
#1816 = CYLINDRICAL_SURFACE('',#1817,0.49);
#1817 = AXIS2_PLACEMENT_3D('',#1818,#1819,#1820);
#1818 = CARTESIAN_POINT('',(17.51,7.,3.99));
#1819 = DIRECTION('',(0.,1.,0.));
#1820 = DIRECTION('',(1.,0.,0.));
#1821 = ADVANCED_FACE('',(#1822),#1833,.F.);
#1822 = FACE_BOUND('',#1823,.T.);
#1823 = EDGE_LOOP('',(#1824,#1830,#1831,#1832));
#1824 = ORIENTED_EDGE('',*,*,#1825,.F.);
#1825 = EDGE_CURVE('',#1141,#823,#1826,.T.);
#1826 = LINE('',#1827,#1828);
#1827 = CARTESIAN_POINT('',(14.,7.,4.01));
#1828 = VECTOR('',#1829,1.);
#1829 = DIRECTION('',(1.,0.,0.));
#1830 = ORIENTED_EDGE('',*,*,#1148,.F.);
#1831 = ORIENTED_EDGE('',*,*,#1761,.T.);
#1832 = ORIENTED_EDGE('',*,*,#830,.F.);
#1833 = CYLINDRICAL_SURFACE('',#1834,0.49);
#1834 = AXIS2_PLACEMENT_3D('',#1835,#1836,#1837);
#1835 = CARTESIAN_POINT('',(14.,7.49,4.01));
#1836 = DIRECTION('',(1.,0.,0.));
#1837 = DIRECTION('',(0.,-1.,0.));
#1838 = ADVANCED_FACE('',(#1839),#1850,.F.);
#1839 = FACE_BOUND('',#1840,.F.);
#1840 = EDGE_LOOP('',(#1841,#1847,#1848,#1849));
#1841 = ORIENTED_EDGE('',*,*,#1842,.T.);
#1842 = EDGE_CURVE('',#1132,#814,#1843,.T.);
#1843 = LINE('',#1844,#1845);
#1844 = CARTESIAN_POINT('',(14.,7.,3.99));
#1845 = VECTOR('',#1846,1.);
#1846 = DIRECTION('',(1.,0.,0.));
#1847 = ORIENTED_EDGE('',*,*,#822,.T.);
#1848 = ORIENTED_EDGE('',*,*,#1825,.F.);
#1849 = ORIENTED_EDGE('',*,*,#1140,.T.);
#1850 = PLANE('',#1851);
#1851 = AXIS2_PLACEMENT_3D('',#1852,#1853,#1854);
#1852 = CARTESIAN_POINT('',(17.392515279398,7.,4.));
#1853 = DIRECTION('',(-0.,-1.,-0.));
#1854 = DIRECTION('',(0.,0.,-1.));
#1855 = ADVANCED_FACE('',(#1856),#1862,.F.);
#1856 = FACE_BOUND('',#1857,.F.);
#1857 = EDGE_LOOP('',(#1858,#1859,#1860,#1861));
#1858 = ORIENTED_EDGE('',*,*,#1842,.F.);
#1859 = ORIENTED_EDGE('',*,*,#1131,.T.);
#1860 = ORIENTED_EDGE('',*,*,#1694,.T.);
#1861 = ORIENTED_EDGE('',*,*,#813,.F.);
#1862 = CYLINDRICAL_SURFACE('',#1863,0.49);
#1863 = AXIS2_PLACEMENT_3D('',#1864,#1865,#1866);
#1864 = CARTESIAN_POINT('',(14.,7.49,3.99));
#1865 = DIRECTION('',(1.,0.,0.));
#1866 = DIRECTION('',(0.,-1.,0.));
#1867 = ADVANCED_FACE('',(#1868),#1884,.F.);
#1868 = FACE_BOUND('',#1869,.F.);
#1869 = EDGE_LOOP('',(#1870,#1871,#1877,#1878));
#1870 = ORIENTED_EDGE('',*,*,#848,.F.);
#1871 = ORIENTED_EDGE('',*,*,#1872,.F.);
#1872 = EDGE_CURVE('',#1174,#849,#1873,.T.);
#1873 = LINE('',#1874,#1875);
#1874 = CARTESIAN_POINT('',(14.,2.9,1.6));
#1875 = VECTOR('',#1876,1.);
#1876 = DIRECTION('',(1.,0.,0.));
#1877 = ORIENTED_EDGE('',*,*,#1173,.T.);
#1878 = ORIENTED_EDGE('',*,*,#1879,.F.);
#1879 = EDGE_CURVE('',#851,#1176,#1880,.T.);
#1880 = LINE('',#1881,#1882);
#1881 = CARTESIAN_POINT('',(14.,2.9,1.604006420562));
#1882 = VECTOR('',#1883,1.);
#1883 = DIRECTION('',(-1.,-0.,-2.22044604925E-16));
#1884 = PLANE('',#1885);
#1885 = AXIS2_PLACEMENT_3D('',#1886,#1887,#1888);
#1886 = CARTESIAN_POINT('',(14.,2.9,1.6));
#1887 = DIRECTION('',(0.,1.,0.));
#1888 = DIRECTION('',(0.,0.,1.));
#1889 = ADVANCED_FACE('',(#1890),#1901,.F.);
#1890 = FACE_BOUND('',#1891,.T.);
#1891 = EDGE_LOOP('',(#1892,#1893,#1894,#1900));
#1892 = ORIENTED_EDGE('',*,*,#1879,.F.);
#1893 = ORIENTED_EDGE('',*,*,#907,.F.);
#1894 = ORIENTED_EDGE('',*,*,#1895,.T.);
#1895 = EDGE_CURVE('',#900,#1225,#1896,.T.);
#1896 = LINE('',#1897,#1898);
#1897 = CARTESIAN_POINT('',(14.,2.9,4.095993579438));
#1898 = VECTOR('',#1899,1.);
#1899 = DIRECTION('',(-1.,-0.,-2.22044604925E-16));
#1900 = ORIENTED_EDGE('',*,*,#1232,.T.);
#1901 = CYLINDRICAL_SURFACE('',#1902,1.25);
#1902 = AXIS2_PLACEMENT_3D('',#1903,#1904,#1905);
#1903 = CARTESIAN_POINT('',(14.,3.,2.85));
#1904 = DIRECTION('',(-1.,-0.,-2.22044604925E-16));
#1905 = DIRECTION('',(2.22044604925E-16,0.,-1.));
#1906 = ADVANCED_FACE('',(#1907),#1918,.F.);
#1907 = FACE_BOUND('',#1908,.F.);
#1908 = EDGE_LOOP('',(#1909,#1910,#1911,#1912));
#1909 = ORIENTED_EDGE('',*,*,#899,.F.);
#1910 = ORIENTED_EDGE('',*,*,#1895,.T.);
#1911 = ORIENTED_EDGE('',*,*,#1224,.T.);
#1912 = ORIENTED_EDGE('',*,*,#1913,.T.);
#1913 = EDGE_CURVE('',#1217,#892,#1914,.T.);
#1914 = LINE('',#1915,#1916);
#1915 = CARTESIAN_POINT('',(14.,2.9,4.1));
#1916 = VECTOR('',#1917,1.);
#1917 = DIRECTION('',(1.,0.,0.));
#1918 = PLANE('',#1919);
#1919 = AXIS2_PLACEMENT_3D('',#1920,#1921,#1922);
#1920 = CARTESIAN_POINT('',(14.,2.9,1.6));
#1921 = DIRECTION('',(0.,1.,0.));
#1922 = DIRECTION('',(0.,0.,1.));
#1923 = ADVANCED_FACE('',(#1924),#1935,.F.);
#1924 = FACE_BOUND('',#1925,.F.);
#1925 = EDGE_LOOP('',(#1926,#1927,#1928,#1934));
#1926 = ORIENTED_EDGE('',*,*,#1913,.F.);
#1927 = ORIENTED_EDGE('',*,*,#1216,.T.);
#1928 = ORIENTED_EDGE('',*,*,#1929,.T.);
#1929 = EDGE_CURVE('',#1209,#884,#1930,.T.);
#1930 = LINE('',#1931,#1932);
#1931 = CARTESIAN_POINT('',(14.,-2.9,4.1));
#1932 = VECTOR('',#1933,1.);
#1933 = DIRECTION('',(1.,0.,0.));
#1934 = ORIENTED_EDGE('',*,*,#891,.F.);
#1935 = PLANE('',#1936);
#1936 = AXIS2_PLACEMENT_3D('',#1937,#1938,#1939);
#1937 = CARTESIAN_POINT('',(14.,-2.9,4.1));
#1938 = DIRECTION('',(0.,0.,1.));
#1939 = DIRECTION('',(1.,0.,0.));
#1940 = ADVANCED_FACE('',(#1941),#1952,.T.);
#1941 = FACE_BOUND('',#1942,.T.);
#1942 = EDGE_LOOP('',(#1943,#1944,#1950,#1951));
#1943 = ORIENTED_EDGE('',*,*,#883,.F.);
#1944 = ORIENTED_EDGE('',*,*,#1945,.T.);
#1945 = EDGE_CURVE('',#875,#1200,#1946,.T.);
#1946 = LINE('',#1947,#1948);
#1947 = CARTESIAN_POINT('',(14.,-2.9,4.095993579438));
#1948 = VECTOR('',#1949,1.);
#1949 = DIRECTION('',(-1.,-0.,-2.22044604925E-16));
#1950 = ORIENTED_EDGE('',*,*,#1208,.T.);
#1951 = ORIENTED_EDGE('',*,*,#1929,.T.);
#1952 = PLANE('',#1953);
#1953 = AXIS2_PLACEMENT_3D('',#1954,#1955,#1956);
#1954 = CARTESIAN_POINT('',(14.,-2.9,1.6));
#1955 = DIRECTION('',(0.,1.,0.));
#1956 = DIRECTION('',(0.,0.,1.));
#1957 = ADVANCED_FACE('',(#1958),#1969,.F.);
#1958 = FACE_BOUND('',#1959,.T.);
#1959 = EDGE_LOOP('',(#1960,#1961,#1962,#1968));
#1960 = ORIENTED_EDGE('',*,*,#1945,.F.);
#1961 = ORIENTED_EDGE('',*,*,#874,.F.);
#1962 = ORIENTED_EDGE('',*,*,#1963,.T.);
#1963 = EDGE_CURVE('',#867,#1192,#1964,.T.);
#1964 = LINE('',#1965,#1966);
#1965 = CARTESIAN_POINT('',(14.,-2.9,1.604006420562));
#1966 = VECTOR('',#1967,1.);
#1967 = DIRECTION('',(-1.,-0.,-2.22044604925E-16));
#1968 = ORIENTED_EDGE('',*,*,#1199,.T.);
#1969 = CYLINDRICAL_SURFACE('',#1970,1.25);
#1970 = AXIS2_PLACEMENT_3D('',#1971,#1972,#1973);
#1971 = CARTESIAN_POINT('',(14.,-3.,2.85));
#1972 = DIRECTION('',(-1.,-0.,-2.22044604925E-16));
#1973 = DIRECTION('',(2.22044604925E-16,0.,-1.));
#1974 = ADVANCED_FACE('',(#1975),#1986,.T.);
#1975 = FACE_BOUND('',#1976,.T.);
#1976 = EDGE_LOOP('',(#1977,#1978,#1984,#1985));
#1977 = ORIENTED_EDGE('',*,*,#866,.F.);
#1978 = ORIENTED_EDGE('',*,*,#1979,.F.);
#1979 = EDGE_CURVE('',#1184,#859,#1980,.T.);
#1980 = LINE('',#1981,#1982);
#1981 = CARTESIAN_POINT('',(14.,-2.9,1.6));
#1982 = VECTOR('',#1983,1.);
#1983 = DIRECTION('',(1.,0.,0.));
#1984 = ORIENTED_EDGE('',*,*,#1191,.T.);
#1985 = ORIENTED_EDGE('',*,*,#1963,.F.);
#1986 = PLANE('',#1987);
#1987 = AXIS2_PLACEMENT_3D('',#1988,#1989,#1990);
#1988 = CARTESIAN_POINT('',(14.,-2.9,1.6));
#1989 = DIRECTION('',(0.,1.,0.));
#1990 = DIRECTION('',(0.,0.,1.));
#1991 = ADVANCED_FACE('',(#1992),#1998,.T.);
#1992 = FACE_BOUND('',#1993,.T.);
#1993 = EDGE_LOOP('',(#1994,#1995,#1996,#1997));
#1994 = ORIENTED_EDGE('',*,*,#1872,.F.);
#1995 = ORIENTED_EDGE('',*,*,#1183,.T.);
#1996 = ORIENTED_EDGE('',*,*,#1979,.T.);
#1997 = ORIENTED_EDGE('',*,*,#858,.F.);
#1998 = PLANE('',#1999);
#1999 = AXIS2_PLACEMENT_3D('',#2000,#2001,#2002);
#2000 = CARTESIAN_POINT('',(14.,-2.9,1.6));
#2001 = DIRECTION('',(0.,0.,1.));
#2002 = DIRECTION('',(1.,0.,0.));
#2003 = ADVANCED_FACE('',(#2004,#2014),#2017,.F.);
#2004 = FACE_BOUND('',#2005,.F.);
#2005 = EDGE_LOOP('',(#2006,#2007,#2008,#2009,#2010,#2011,#2012,#2013));
#2006 = ORIENTED_EDGE('',*,*,#1503,.F.);
#2007 = ORIENTED_EDGE('',*,*,#1533,.T.);
#2008 = ORIENTED_EDGE('',*,*,#1042,.T.);
#2009 = ORIENTED_EDGE('',*,*,#1082,.F.);
#2010 = ORIENTED_EDGE('',*,*,#1105,.T.);
#2011 = ORIENTED_EDGE('',*,*,#1329,.T.);
#2012 = ORIENTED_EDGE('',*,*,#1422,.F.);
#2013 = ORIENTED_EDGE('',*,*,#1480,.F.);
#2014 = FACE_BOUND('',#2015,.F.);
#2015 = EDGE_LOOP('',(#2016));
#2016 = ORIENTED_EDGE('',*,*,#922,.T.);
#2017 = PLANE('',#2018);
#2018 = AXIS2_PLACEMENT_3D('',#2019,#2020,#2021);
#2019 = CARTESIAN_POINT('',(-20.,-12.,5.));
#2020 = DIRECTION('',(0.,0.,1.));
#2021 = DIRECTION('',(1.,0.,0.));
#2022 = ADVANCED_FACE('',(#2023),#2031,.F.);
#2023 = FACE_BOUND('',#2024,.F.);
#2024 = EDGE_LOOP('',(#2025,#2026,#2027,#2028,#2029,#2030));
#2025 = ORIENTED_EDGE('',*,*,#1019,.T.);
#2026 = ORIENTED_EDGE('',*,*,#1058,.F.);
#2027 = ORIENTED_EDGE('',*,*,#1559,.F.);
#2028 = ORIENTED_EDGE('',*,*,#1577,.T.);
#2029 = ORIENTED_EDGE('',*,*,#957,.F.);
#2030 = ORIENTED_EDGE('',*,*,#984,.T.);
#2031 = PLANE('',#2032);
#2032 = AXIS2_PLACEMENT_3D('',#2033,#2034,#2035);
#2033 = CARTESIAN_POINT('',(11.78,-12.1,2.5));
#2034 = DIRECTION('',(0.,0.,1.));
#2035 = DIRECTION('',(1.,0.,0.));
#2036 = ( GEOMETRIC_REPRESENTATION_CONTEXT(3) 
GLOBAL_UNCERTAINTY_ASSIGNED_CONTEXT((#2040)) 
GLOBAL_UNIT_ASSIGNED_CONTEXT((#2037,#2038,#2039)) REPRESENTATION_CONTEXT
('Context #1','3D Context with UNIT and UNCERTAINTY') );
#2037 = ( LENGTH_UNIT() NAMED_UNIT(*) SI_UNIT(.MILLI.,.METRE.) );
#2038 = ( NAMED_UNIT(*) PLANE_ANGLE_UNIT() SI_UNIT($,.RADIAN.) );
#2039 = ( NAMED_UNIT(*) SI_UNIT($,.STERADIAN.) SOLID_ANGLE_UNIT() );
#2040 = UNCERTAINTY_MEASURE_WITH_UNIT(LENGTH_MEASURE(2.E-05),#2037,
  'distance_accuracy_value','confusion accuracy');
#2041 = PRODUCT_RELATED_PRODUCT_CATEGORY('part',$,(#7));
#2042 = MECHANICAL_DESIGN_GEOMETRIC_PRESENTATION_REPRESENTATION('',(
    #2043),#2036);
#2043 = STYLED_ITEM('color',(#2044),#15);
#2044 = PRESENTATION_STYLE_ASSIGNMENT((#2045,#2053));
#2045 = SURFACE_STYLE_USAGE(.BOTH.,#2046);
#2046 = SURFACE_SIDE_STYLE('',(#2047,#2051));
#2047 = SURFACE_STYLE_FILL_AREA(#2048);
#2048 = FILL_AREA_STYLE('',(#2049));
#2049 = FILL_AREA_STYLE_COLOUR('',#2050);
#2050 = COLOUR_RGB('',0.447059003357,0.474510015008,0.501960993452);
#2051 = SURFACE_STYLE_RENDERING_WITH_PROPERTIES(.NORMAL_SHADING.,#2050,(
    #2052));
#2052 = SURFACE_STYLE_TRANSPARENT(0.199999988079);
#2053 = CURVE_STYLE('',#2054,POSITIVE_LENGTH_MEASURE(0.1),#2055);
#2054 = DRAUGHTING_PRE_DEFINED_CURVE_FONT('continuous');
#2055 = COLOUR_RGB('',9.803921802644E-02,9.803921802644E-02,
  9.803921802644E-02);
ENDSEC;
END-ISO-10303-21;
