ISO-10303-21;
HEADER;
FILE_DESCRIPTION(('FreeCAD Model'),'2;1');
FILE_NAME('Open CASCADE Shape Model','2026-10-05T14:31:45',(''),(''),
  'Open CASCADE STEP processor 7.8','FreeCAD','Unknown');
FILE_SCHEMA((
'AP242_MANAGED_MODEL_BASED_3D_ENGINEERING_MIM_LF. {1 0 10303 442 1 1 4 
}'));
ENDSEC;
DATA;
#1 = APPLICATION_PROTOCOL_DEFINITION('international standard',
  'ap242_managed_model_based_3d_engineering',2013,#2);
#2 = APPLICATION_CONTEXT('Managed model based 3d engineering');
#3 = SHAPE_DEFINITION_REPRESENTATION(#4,#10);
#4 = PRODUCT_DEFINITION_SHAPE('','',#5);
#5 = PRODUCT_DEFINITION('design','',#6,#9);
#6 = PRODUCT_DEFINITION_FORMATION('','',#7);
#7 = PRODUCT('Case Btm Cut (male connectors only)',
  'Case Btm Cut (male connectors only)','',(#8));
#8 = PRODUCT_CONTEXT('',#2,'mechanical');
#9 = PRODUCT_DEFINITION_CONTEXT('part definition',#2,'design');
#10 = ADVANCED_BREP_SHAPE_REPRESENTATION('',(#11,#15),#998);
#11 = AXIS2_PLACEMENT_3D('',#12,#13,#14);
#12 = CARTESIAN_POINT('',(0.,0.,0.));
#13 = DIRECTION('',(0.,0.,1.));
#14 = DIRECTION('',(1.,0.,-0.));
#15 = MANIFOLD_SOLID_BREP('',#16);
#16 = CLOSED_SHELL('',(#17,#58,#153,#225,#256,#280,#304,#337,#403,#428,
    #477,#510,#541,#558,#582,#607,#631,#655,#686,#719,#759,#792,#823,
    #856,#878,#889,#911,#933,#951,#976));
#17 = ADVANCED_FACE('',(#18),#53,.F.);
#18 = FACE_BOUND('',#19,.F.);
#19 = EDGE_LOOP('',(#20,#30,#38,#46));
#20 = ORIENTED_EDGE('',*,*,#21,.F.);
#21 = EDGE_CURVE('',#22,#24,#26,.T.);
#22 = VERTEX_POINT('',#23);
#23 = CARTESIAN_POINT('',(12.4,-12.1,1.));
#24 = VERTEX_POINT('',#25);
#25 = CARTESIAN_POINT('',(12.594127789077,-12.1,1.));
#26 = LINE('',#27,#28);
#27 = CARTESIAN_POINT('',(-3.358125,-12.1,1.));
#28 = VECTOR('',#29,1.);
#29 = DIRECTION('',(1.,0.,0.));
#30 = ORIENTED_EDGE('',*,*,#31,.F.);
#31 = EDGE_CURVE('',#32,#22,#34,.T.);
#32 = VERTEX_POINT('',#33);
#33 = CARTESIAN_POINT('',(12.4,-12.1,-0.5));
#34 = LINE('',#35,#36);
#35 = CARTESIAN_POINT('',(12.4,-12.1,-0.5));
#36 = VECTOR('',#37,1.);
#37 = DIRECTION('',(0.,0.,1.));
#38 = ORIENTED_EDGE('',*,*,#39,.T.);
#39 = EDGE_CURVE('',#32,#40,#42,.T.);
#40 = VERTEX_POINT('',#41);
#41 = CARTESIAN_POINT('',(13.487596159536,-12.1,-0.5));
#42 = LINE('',#43,#44);
#43 = CARTESIAN_POINT('',(12.4,-12.1,-0.5));
#44 = VECTOR('',#45,1.);
#45 = DIRECTION('',(1.,0.,0.));
#46 = ORIENTED_EDGE('',*,*,#47,.F.);
#47 = EDGE_CURVE('',#24,#40,#48,.T.);
#48 = CIRCLE('',#49,1.705872210923);
#49 = AXIS2_PLACEMENT_3D('',#50,#51,#52);
#50 = CARTESIAN_POINT('',(14.3,-12.1,1.));
#51 = DIRECTION('',(0.,-1.,0.));
#52 = DIRECTION('',(0.,0.,-1.));
#53 = PLANE('',#54);
#54 = AXIS2_PLACEMENT_3D('',#55,#56,#57);
#55 = CARTESIAN_POINT('',(14.28375,-12.1,1.1125));
#56 = DIRECTION('',(-0.,-1.,-0.));
#57 = DIRECTION('',(0.,0.,-1.));
#58 = ADVANCED_FACE('',(#59),#148,.F.);
#59 = FACE_BOUND('',#60,.F.);
#60 = EDGE_LOOP('',(#61,#70,#79,#88,#113,#122,#131,#140,#147));
#61 = ORIENTED_EDGE('',*,*,#62,.F.);
#62 = EDGE_CURVE('',#63,#40,#65,.T.);
#63 = VERTEX_POINT('',#64);
#64 = CARTESIAN_POINT('',(15.112403840464,-12.1,-0.5));
#65 = CIRCLE('',#66,4.769696007085);
#66 = AXIS2_PLACEMENT_3D('',#67,#68,#69);
#67 = CARTESIAN_POINT('',(14.3,-16.8,-0.5));
#68 = DIRECTION('',(0.,0.,1.));
#69 = DIRECTION('',(1.,0.,0.));
#70 = ORIENTED_EDGE('',*,*,#71,.T.);
#71 = EDGE_CURVE('',#63,#72,#74,.T.);
#72 = VERTEX_POINT('',#73);
#73 = CARTESIAN_POINT('',(16.005872210923,-12.1,1.));
#74 = CIRCLE('',#75,1.705872210923);
#75 = AXIS2_PLACEMENT_3D('',#76,#77,#78);
#76 = CARTESIAN_POINT('',(14.3,-12.1,1.));
#77 = DIRECTION('',(0.,-1.,0.));
#78 = DIRECTION('',(0.,0.,-1.));
#79 = ORIENTED_EDGE('',*,*,#80,.F.);
#80 = EDGE_CURVE('',#81,#72,#83,.T.);
#81 = VERTEX_POINT('',#82);
#82 = CARTESIAN_POINT('',(17.510908145858,-12.9672374351,1.));
#83 = CIRCLE('',#84,5.);
#84 = AXIS2_PLACEMENT_3D('',#85,#86,#87);
#85 = CARTESIAN_POINT('',(14.3,-16.8,1.));
#86 = DIRECTION('',(0.,0.,1.));
#87 = DIRECTION('',(1.,0.,-0.));
#88 = ORIENTED_EDGE('',*,*,#89,.T.);
#89 = EDGE_CURVE('',#81,#90,#92,.T.);
#90 = VERTEX_POINT('',#91);
#91 = CARTESIAN_POINT('',(17.,-13.,-0.808314132003));
#92 = B_SPLINE_CURVE_WITH_KNOTS('',7,(#93,#94,#95,#96,#97,#98,#99,#100,
    #101,#102,#103,#104,#105,#106,#107,#108,#109,#110,#111,#112),
  .UNSPECIFIED.,.F.,.F.,(8,6,6,8),(0.,4.990994025676E-05,0.741370581806,
    1.),.UNSPECIFIED.);
#93 = CARTESIAN_POINT('',(17.510908143407,-12.96723743542,1.000134764909
    ));
#94 = CARTESIAN_POINT('',(17.510908143891,-12.96723743535,1.000121461573
    ));
#95 = CARTESIAN_POINT('',(17.510908144319,-12.9672374353,1.000108158237)
  );
#96 = CARTESIAN_POINT('',(17.510908144691,-12.96723743525,1.0000948549)
  );
#97 = CARTESIAN_POINT('',(17.510908145008,-12.96723743521,1.000081551564
    ));
#98 = CARTESIAN_POINT('',(17.510908145269,-12.96723743518,1.000068248228
    ));
#99 = CARTESIAN_POINT('',(17.510908145474,-12.96723743515,1.000054944892
    ));
#100 = CARTESIAN_POINT('',(17.51091036677,-12.96723714909,0.802444968923
    ));
#101 = CARTESIAN_POINT('',(17.498619045591,-12.96882185903,
    0.605254540509));
#102 = CARTESIAN_POINT('',(17.47411091762,-12.97197237122,0.408612544346
    ));
#103 = CARTESIAN_POINT('',(17.43704982674,-12.97651075927,0.212870475212
    ));
#104 = CARTESIAN_POINT('',(17.386701435908,-12.9820143034,
    1.868006133335E-02));
#105 = CARTESIAN_POINT('',(17.322103024082,-12.98782988168,
    -0.173096052365));
#106 = CARTESIAN_POINT('',(17.21323845683,-12.99441173069,
    -0.426758465972));
#107 = CARTESIAN_POINT('',(17.183123087612,-12.99599995206,
    -0.49190764762));
#108 = CARTESIAN_POINT('',(17.150970015166,-12.99742114328,
    -0.556545133895));
#109 = CARTESIAN_POINT('',(17.116689584922,-12.99861287552,
    -0.620600913031));
#110 = CARTESIAN_POINT('',(17.080181876108,-12.9995017568,
    -0.683988062563));
#111 = CARTESIAN_POINT('',(17.041331910416,-13.,-0.746601315546));
#112 = CARTESIAN_POINT('',(17.,-13.,-0.808314132003));
#113 = ORIENTED_EDGE('',*,*,#114,.T.);
#114 = EDGE_CURVE('',#90,#115,#117,.T.);
#115 = VERTEX_POINT('',#116);
#116 = CARTESIAN_POINT('',(16.376053949203,-13.,-1.5));
#117 = CIRCLE('',#118,3.249615361854);
#118 = AXIS2_PLACEMENT_3D('',#119,#120,#121);
#119 = CARTESIAN_POINT('',(14.3,-13.,1.));
#120 = DIRECTION('',(0.,1.,0.));
#121 = DIRECTION('',(0.,-0.,1.));
#122 = ORIENTED_EDGE('',*,*,#123,.T.);
#123 = EDGE_CURVE('',#115,#124,#126,.T.);
#124 = VERTEX_POINT('',#125);
#125 = CARTESIAN_POINT('',(12.223946050797,-13.,-1.5));
#126 = CIRCLE('',#127,4.330127018922);
#127 = AXIS2_PLACEMENT_3D('',#128,#129,#130);
#128 = CARTESIAN_POINT('',(14.3,-16.8,-1.5));
#129 = DIRECTION('',(0.,0.,1.));
#130 = DIRECTION('',(1.,0.,-0.));
#131 = ORIENTED_EDGE('',*,*,#132,.T.);
#132 = EDGE_CURVE('',#124,#133,#135,.T.);
#133 = VERTEX_POINT('',#134);
#134 = CARTESIAN_POINT('',(11.050384638146,-13.,1.));
#135 = CIRCLE('',#136,3.249615361854);
#136 = AXIS2_PLACEMENT_3D('',#137,#138,#139);
#137 = CARTESIAN_POINT('',(14.3,-13.,1.));
#138 = DIRECTION('',(0.,1.,0.));
#139 = DIRECTION('',(0.,-0.,1.));
#140 = ORIENTED_EDGE('',*,*,#141,.F.);
#141 = EDGE_CURVE('',#24,#133,#142,.T.);
#142 = CIRCLE('',#143,5.);
#143 = AXIS2_PLACEMENT_3D('',#144,#145,#146);
#144 = CARTESIAN_POINT('',(14.3,-16.8,1.));
#145 = DIRECTION('',(0.,0.,1.));
#146 = DIRECTION('',(1.,0.,-0.));
#147 = ORIENTED_EDGE('',*,*,#47,.T.);
#148 = SPHERICAL_SURFACE('',#149,5.);
#149 = AXIS2_PLACEMENT_3D('',#150,#151,#152);
#150 = CARTESIAN_POINT('',(14.3,-16.8,1.));
#151 = DIRECTION('',(0.,0.,1.));
#152 = DIRECTION('',(1.,0.,0.));
#153 = ADVANCED_FACE('',(#154),#220,.F.);
#154 = FACE_BOUND('',#155,.F.);
#155 = EDGE_LOOP('',(#156,#166,#174,#182,#190,#198,#206,#214));
#156 = ORIENTED_EDGE('',*,*,#157,.F.);
#157 = EDGE_CURVE('',#158,#160,#162,.T.);
#158 = VERTEX_POINT('',#159);
#159 = CARTESIAN_POINT('',(-21.,-9.,1.));
#160 = VERTEX_POINT('',#161);
#161 = CARTESIAN_POINT('',(-21.,-6.,1.));
#162 = LINE('',#163,#164);
#163 = CARTESIAN_POINT('',(-21.,-13.,1.));
#164 = VECTOR('',#165,1.);
#165 = DIRECTION('',(0.,1.,0.));
#166 = ORIENTED_EDGE('',*,*,#167,.F.);
#167 = EDGE_CURVE('',#168,#158,#170,.T.);
#168 = VERTEX_POINT('',#169);
#169 = CARTESIAN_POINT('',(-21.,-9.,-1.5));
#170 = LINE('',#171,#172);
#171 = CARTESIAN_POINT('',(-21.,-9.,-1.5));
#172 = VECTOR('',#173,1.);
#173 = DIRECTION('',(0.,0.,1.));
#174 = ORIENTED_EDGE('',*,*,#175,.T.);
#175 = EDGE_CURVE('',#168,#176,#178,.T.);
#176 = VERTEX_POINT('',#177);
#177 = CARTESIAN_POINT('',(-21.,9.,-1.5));
#178 = LINE('',#179,#180);
#179 = CARTESIAN_POINT('',(-21.,-13.,-1.5));
#180 = VECTOR('',#181,1.);
#181 = DIRECTION('',(0.,1.,0.));
#182 = ORIENTED_EDGE('',*,*,#183,.T.);
#183 = EDGE_CURVE('',#176,#184,#186,.T.);
#184 = VERTEX_POINT('',#185);
#185 = CARTESIAN_POINT('',(-21.,9.,1.));
#186 = LINE('',#187,#188);
#187 = CARTESIAN_POINT('',(-21.,9.,-1.5));
#188 = VECTOR('',#189,1.);
#189 = DIRECTION('',(0.,0.,1.));
#190 = ORIENTED_EDGE('',*,*,#191,.F.);
#191 = EDGE_CURVE('',#192,#184,#194,.T.);
#192 = VERTEX_POINT('',#193);
#193 = CARTESIAN_POINT('',(-21.,6.,1.));
#194 = LINE('',#195,#196);
#195 = CARTESIAN_POINT('',(-21.,-13.,1.));
#196 = VECTOR('',#197,1.);
#197 = DIRECTION('',(0.,1.,0.));
#198 = ORIENTED_EDGE('',*,*,#199,.F.);
#199 = EDGE_CURVE('',#200,#192,#202,.T.);
#200 = VERTEX_POINT('',#201);
#201 = CARTESIAN_POINT('',(-21.,6.,0.3));
#202 = LINE('',#203,#204);
#203 = CARTESIAN_POINT('',(-21.,6.,-0.6));
#204 = VECTOR('',#205,1.);
#205 = DIRECTION('',(0.,0.,1.));
#206 = ORIENTED_EDGE('',*,*,#207,.T.);
#207 = EDGE_CURVE('',#200,#208,#210,.T.);
#208 = VERTEX_POINT('',#209);
#209 = CARTESIAN_POINT('',(-21.,-6.,0.3));
#210 = LINE('',#211,#212);
#211 = CARTESIAN_POINT('',(-21.,-9.5,0.3));
#212 = VECTOR('',#213,1.);
#213 = DIRECTION('',(0.,-1.,0.));
#214 = ORIENTED_EDGE('',*,*,#215,.T.);
#215 = EDGE_CURVE('',#208,#160,#216,.T.);
#216 = LINE('',#217,#218);
#217 = CARTESIAN_POINT('',(-21.,-6.,-0.6));
#218 = VECTOR('',#219,1.);
#219 = DIRECTION('',(0.,0.,1.));
#220 = PLANE('',#221);
#221 = AXIS2_PLACEMENT_3D('',#222,#223,#224);
#222 = CARTESIAN_POINT('',(-21.,-13.,-1.5));
#223 = DIRECTION('',(1.,0.,0.));
#224 = DIRECTION('',(0.,0.,1.));
#225 = ADVANCED_FACE('',(#226),#251,.T.);
#226 = FACE_BOUND('',#227,.T.);
#227 = EDGE_LOOP('',(#228,#238,#244,#245));
#228 = ORIENTED_EDGE('',*,*,#229,.F.);
#229 = EDGE_CURVE('',#230,#232,#234,.T.);
#230 = VERTEX_POINT('',#231);
#231 = CARTESIAN_POINT('',(-20.,-6.,0.3));
#232 = VERTEX_POINT('',#233);
#233 = CARTESIAN_POINT('',(-20.,-6.,1.));
#234 = LINE('',#235,#236);
#235 = CARTESIAN_POINT('',(-20.,-6.,-0.1));
#236 = VECTOR('',#237,1.);
#237 = DIRECTION('',(0.,0.,1.));
#238 = ORIENTED_EDGE('',*,*,#239,.T.);
#239 = EDGE_CURVE('',#230,#208,#240,.T.);
#240 = LINE('',#241,#242);
#241 = CARTESIAN_POINT('',(-16.,-6.,0.3));
#242 = VECTOR('',#243,1.);
#243 = DIRECTION('',(-1.,2.22044604925E-16,0.));
#244 = ORIENTED_EDGE('',*,*,#215,.T.);
#245 = ORIENTED_EDGE('',*,*,#246,.F.);
#246 = EDGE_CURVE('',#232,#160,#247,.T.);
#247 = LINE('',#248,#249);
#248 = CARTESIAN_POINT('',(-18.5,-6.,1.));
#249 = VECTOR('',#250,1.);
#250 = DIRECTION('',(-1.,2.22044604925E-16,0.));
#251 = PLANE('',#252);
#252 = AXIS2_PLACEMENT_3D('',#253,#254,#255);
#253 = CARTESIAN_POINT('',(-16.,-6.,0.3));
#254 = DIRECTION('',(2.22044604925E-16,1.,0.));
#255 = DIRECTION('',(0.,0.,1.));
#256 = ADVANCED_FACE('',(#257),#275,.T.);
#257 = FACE_BOUND('',#258,.T.);
#258 = EDGE_LOOP('',(#259,#260,#268,#274));
#259 = ORIENTED_EDGE('',*,*,#239,.F.);
#260 = ORIENTED_EDGE('',*,*,#261,.F.);
#261 = EDGE_CURVE('',#262,#230,#264,.T.);
#262 = VERTEX_POINT('',#263);
#263 = CARTESIAN_POINT('',(-20.,6.,0.3));
#264 = LINE('',#265,#266);
#265 = CARTESIAN_POINT('',(-20.,-9.,0.3));
#266 = VECTOR('',#267,1.);
#267 = DIRECTION('',(0.,-1.,0.));
#268 = ORIENTED_EDGE('',*,*,#269,.T.);
#269 = EDGE_CURVE('',#262,#200,#270,.T.);
#270 = LINE('',#271,#272);
#271 = CARTESIAN_POINT('',(-16.,6.,0.3));
#272 = VECTOR('',#273,1.);
#273 = DIRECTION('',(-1.,2.22044604925E-16,0.));
#274 = ORIENTED_EDGE('',*,*,#207,.T.);
#275 = PLANE('',#276);
#276 = AXIS2_PLACEMENT_3D('',#277,#278,#279);
#277 = CARTESIAN_POINT('',(-16.,-6.,0.3));
#278 = DIRECTION('',(0.,0.,1.));
#279 = DIRECTION('',(2.22044604925E-16,1.,0.));
#280 = ADVANCED_FACE('',(#281),#299,.F.);
#281 = FACE_BOUND('',#282,.F.);
#282 = EDGE_LOOP('',(#283,#291,#292,#293));
#283 = ORIENTED_EDGE('',*,*,#284,.F.);
#284 = EDGE_CURVE('',#262,#285,#287,.T.);
#285 = VERTEX_POINT('',#286);
#286 = CARTESIAN_POINT('',(-20.,6.,1.));
#287 = LINE('',#288,#289);
#288 = CARTESIAN_POINT('',(-20.,6.,-0.1));
#289 = VECTOR('',#290,1.);
#290 = DIRECTION('',(0.,0.,1.));
#291 = ORIENTED_EDGE('',*,*,#269,.T.);
#292 = ORIENTED_EDGE('',*,*,#199,.T.);
#293 = ORIENTED_EDGE('',*,*,#294,.F.);
#294 = EDGE_CURVE('',#285,#192,#295,.T.);
#295 = LINE('',#296,#297);
#296 = CARTESIAN_POINT('',(-18.5,6.,1.));
#297 = VECTOR('',#298,1.);
#298 = DIRECTION('',(-1.,2.22044604925E-16,0.));
#299 = PLANE('',#300);
#300 = AXIS2_PLACEMENT_3D('',#301,#302,#303);
#301 = CARTESIAN_POINT('',(-16.,6.,0.3));
#302 = DIRECTION('',(2.22044604925E-16,1.,0.));
#303 = DIRECTION('',(0.,0.,1.));
#304 = ADVANCED_FACE('',(#305),#332,.T.);
#305 = FACE_BOUND('',#306,.F.);
#306 = EDGE_LOOP('',(#307,#316,#324,#331));
#307 = ORIENTED_EDGE('',*,*,#308,.T.);
#308 = EDGE_CURVE('',#176,#309,#311,.T.);
#309 = VERTEX_POINT('',#310);
#310 = CARTESIAN_POINT('',(-17.,13.,-1.5));
#311 = CIRCLE('',#312,4.);
#312 = AXIS2_PLACEMENT_3D('',#313,#314,#315);
#313 = CARTESIAN_POINT('',(-17.,9.,-1.5));
#314 = DIRECTION('',(-0.,-0.,-1.));
#315 = DIRECTION('',(0.,-1.,0.));
#316 = ORIENTED_EDGE('',*,*,#317,.T.);
#317 = EDGE_CURVE('',#309,#318,#320,.T.);
#318 = VERTEX_POINT('',#319);
#319 = CARTESIAN_POINT('',(-17.,13.,1.));
#320 = LINE('',#321,#322);
#321 = CARTESIAN_POINT('',(-17.,13.,-1.5));
#322 = VECTOR('',#323,1.);
#323 = DIRECTION('',(0.,0.,1.));
#324 = ORIENTED_EDGE('',*,*,#325,.F.);
#325 = EDGE_CURVE('',#184,#318,#326,.T.);
#326 = CIRCLE('',#327,4.);
#327 = AXIS2_PLACEMENT_3D('',#328,#329,#330);
#328 = CARTESIAN_POINT('',(-17.,9.,1.));
#329 = DIRECTION('',(-0.,-0.,-1.));
#330 = DIRECTION('',(0.,-1.,0.));
#331 = ORIENTED_EDGE('',*,*,#183,.F.);
#332 = CYLINDRICAL_SURFACE('',#333,4.);
#333 = AXIS2_PLACEMENT_3D('',#334,#335,#336);
#334 = CARTESIAN_POINT('',(-17.,9.,-1.5));
#335 = DIRECTION('',(0.,0.,1.));
#336 = DIRECTION('',(-1.,0.,0.));
#337 = ADVANCED_FACE('',(#338),#398,.F.);
#338 = FACE_BOUND('',#339,.F.);
#339 = EDGE_LOOP('',(#340,#341,#350,#356,#357,#365,#374,#382,#391,#397)
  );
#340 = ORIENTED_EDGE('',*,*,#175,.F.);
#341 = ORIENTED_EDGE('',*,*,#342,.T.);
#342 = EDGE_CURVE('',#168,#343,#345,.T.);
#343 = VERTEX_POINT('',#344);
#344 = CARTESIAN_POINT('',(-17.,-13.,-1.5));
#345 = CIRCLE('',#346,4.);
#346 = AXIS2_PLACEMENT_3D('',#347,#348,#349);
#347 = CARTESIAN_POINT('',(-17.,-9.,-1.5));
#348 = DIRECTION('',(-0.,0.,1.));
#349 = DIRECTION('',(0.,-1.,0.));
#350 = ORIENTED_EDGE('',*,*,#351,.T.);
#351 = EDGE_CURVE('',#343,#124,#352,.T.);
#352 = LINE('',#353,#354);
#353 = CARTESIAN_POINT('',(-21.,-13.,-1.5));
#354 = VECTOR('',#355,1.);
#355 = DIRECTION('',(1.,0.,0.));
#356 = ORIENTED_EDGE('',*,*,#123,.F.);
#357 = ORIENTED_EDGE('',*,*,#358,.T.);
#358 = EDGE_CURVE('',#115,#359,#361,.T.);
#359 = VERTEX_POINT('',#360);
#360 = CARTESIAN_POINT('',(17.,-13.,-1.5));
#361 = LINE('',#362,#363);
#362 = CARTESIAN_POINT('',(-21.,-13.,-1.5));
#363 = VECTOR('',#364,1.);
#364 = DIRECTION('',(1.,0.,0.));
#365 = ORIENTED_EDGE('',*,*,#366,.F.);
#366 = EDGE_CURVE('',#367,#359,#369,.T.);
#367 = VERTEX_POINT('',#368);
#368 = CARTESIAN_POINT('',(21.,-9.,-1.5));
#369 = CIRCLE('',#370,4.);
#370 = AXIS2_PLACEMENT_3D('',#371,#372,#373);
#371 = CARTESIAN_POINT('',(17.,-9.,-1.5));
#372 = DIRECTION('',(-0.,-0.,-1.));
#373 = DIRECTION('',(0.,-1.,0.));
#374 = ORIENTED_EDGE('',*,*,#375,.T.);
#375 = EDGE_CURVE('',#367,#376,#378,.T.);
#376 = VERTEX_POINT('',#377);
#377 = CARTESIAN_POINT('',(21.,9.,-1.5));
#378 = LINE('',#379,#380);
#379 = CARTESIAN_POINT('',(21.,-13.,-1.5));
#380 = VECTOR('',#381,1.);
#381 = DIRECTION('',(0.,1.,0.));
#382 = ORIENTED_EDGE('',*,*,#383,.T.);
#383 = EDGE_CURVE('',#376,#384,#386,.T.);
#384 = VERTEX_POINT('',#385);
#385 = CARTESIAN_POINT('',(17.,13.,-1.5));
#386 = CIRCLE('',#387,4.);
#387 = AXIS2_PLACEMENT_3D('',#388,#389,#390);
#388 = CARTESIAN_POINT('',(17.,9.,-1.5));
#389 = DIRECTION('',(-0.,0.,1.));
#390 = DIRECTION('',(0.,-1.,0.));
#391 = ORIENTED_EDGE('',*,*,#392,.F.);
#392 = EDGE_CURVE('',#309,#384,#393,.T.);
#393 = LINE('',#394,#395);
#394 = CARTESIAN_POINT('',(-21.,13.,-1.5));
#395 = VECTOR('',#396,1.);
#396 = DIRECTION('',(1.,0.,0.));
#397 = ORIENTED_EDGE('',*,*,#308,.F.);
#398 = PLANE('',#399);
#399 = AXIS2_PLACEMENT_3D('',#400,#401,#402);
#400 = CARTESIAN_POINT('',(-21.,-13.,-1.5));
#401 = DIRECTION('',(0.,0.,1.));
#402 = DIRECTION('',(1.,0.,0.));
#403 = ADVANCED_FACE('',(#404),#423,.T.);
#404 = FACE_BOUND('',#405,.T.);
#405 = EDGE_LOOP('',(#406,#407,#415,#422));
#406 = ORIENTED_EDGE('',*,*,#342,.T.);
#407 = ORIENTED_EDGE('',*,*,#408,.T.);
#408 = EDGE_CURVE('',#343,#409,#411,.T.);
#409 = VERTEX_POINT('',#410);
#410 = CARTESIAN_POINT('',(-17.,-13.,1.));
#411 = LINE('',#412,#413);
#412 = CARTESIAN_POINT('',(-17.,-13.,-1.5));
#413 = VECTOR('',#414,1.);
#414 = DIRECTION('',(0.,0.,1.));
#415 = ORIENTED_EDGE('',*,*,#416,.F.);
#416 = EDGE_CURVE('',#158,#409,#417,.T.);
#417 = CIRCLE('',#418,4.);
#418 = AXIS2_PLACEMENT_3D('',#419,#420,#421);
#419 = CARTESIAN_POINT('',(-17.,-9.,1.));
#420 = DIRECTION('',(-0.,0.,1.));
#421 = DIRECTION('',(0.,-1.,0.));
#422 = ORIENTED_EDGE('',*,*,#167,.F.);
#423 = CYLINDRICAL_SURFACE('',#424,4.);
#424 = AXIS2_PLACEMENT_3D('',#425,#426,#427);
#425 = CARTESIAN_POINT('',(-17.,-9.,-1.5));
#426 = DIRECTION('',(0.,0.,1.));
#427 = DIRECTION('',(-1.,0.,0.));
#428 = ADVANCED_FACE('',(#429),#472,.T.);
#429 = FACE_BOUND('',#430,.T.);
#430 = EDGE_LOOP('',(#431,#439,#447,#455,#463,#469,#470,#471));
#431 = ORIENTED_EDGE('',*,*,#432,.F.);
#432 = EDGE_CURVE('',#433,#232,#435,.T.);
#433 = VERTEX_POINT('',#434);
#434 = CARTESIAN_POINT('',(-20.,-9.,1.));
#435 = LINE('',#436,#437);
#436 = CARTESIAN_POINT('',(-20.,-12.,1.));
#437 = VECTOR('',#438,1.);
#438 = DIRECTION('',(0.,1.,0.));
#439 = ORIENTED_EDGE('',*,*,#440,.F.);
#440 = EDGE_CURVE('',#441,#433,#443,.T.);
#441 = VERTEX_POINT('',#442);
#442 = CARTESIAN_POINT('',(-20.,-9.,-0.5));
#443 = LINE('',#444,#445);
#444 = CARTESIAN_POINT('',(-20.,-9.,-0.5));
#445 = VECTOR('',#446,1.);
#446 = DIRECTION('',(0.,0.,1.));
#447 = ORIENTED_EDGE('',*,*,#448,.T.);
#448 = EDGE_CURVE('',#441,#449,#451,.T.);
#449 = VERTEX_POINT('',#450);
#450 = CARTESIAN_POINT('',(-20.,9.,-0.5));
#451 = LINE('',#452,#453);
#452 = CARTESIAN_POINT('',(-20.,-12.,-0.5));
#453 = VECTOR('',#454,1.);
#454 = DIRECTION('',(0.,1.,0.));
#455 = ORIENTED_EDGE('',*,*,#456,.T.);
#456 = EDGE_CURVE('',#449,#457,#459,.T.);
#457 = VERTEX_POINT('',#458);
#458 = CARTESIAN_POINT('',(-20.,9.,1.));
#459 = LINE('',#460,#461);
#460 = CARTESIAN_POINT('',(-20.,9.,-0.5));
#461 = VECTOR('',#462,1.);
#462 = DIRECTION('',(0.,0.,1.));
#463 = ORIENTED_EDGE('',*,*,#464,.F.);
#464 = EDGE_CURVE('',#285,#457,#465,.T.);
#465 = LINE('',#466,#467);
#466 = CARTESIAN_POINT('',(-20.,-12.,1.));
#467 = VECTOR('',#468,1.);
#468 = DIRECTION('',(0.,1.,0.));
#469 = ORIENTED_EDGE('',*,*,#284,.F.);
#470 = ORIENTED_EDGE('',*,*,#261,.T.);
#471 = ORIENTED_EDGE('',*,*,#229,.T.);
#472 = PLANE('',#473);
#473 = AXIS2_PLACEMENT_3D('',#474,#475,#476);
#474 = CARTESIAN_POINT('',(-20.,-12.,-0.5));
#475 = DIRECTION('',(1.,0.,0.));
#476 = DIRECTION('',(0.,0.,1.));
#477 = ADVANCED_FACE('',(#478),#505,.F.);
#478 = FACE_BOUND('',#479,.F.);
#479 = EDGE_LOOP('',(#480,#489,#497,#504));
#480 = ORIENTED_EDGE('',*,*,#481,.T.);
#481 = EDGE_CURVE('',#441,#482,#484,.T.);
#482 = VERTEX_POINT('',#483);
#483 = CARTESIAN_POINT('',(-17.,-12.,-0.5));
#484 = CIRCLE('',#485,3.);
#485 = AXIS2_PLACEMENT_3D('',#486,#487,#488);
#486 = CARTESIAN_POINT('',(-17.,-9.,-0.5));
#487 = DIRECTION('',(-0.,0.,1.));
#488 = DIRECTION('',(0.,-1.,0.));
#489 = ORIENTED_EDGE('',*,*,#490,.T.);
#490 = EDGE_CURVE('',#482,#491,#493,.T.);
#491 = VERTEX_POINT('',#492);
#492 = CARTESIAN_POINT('',(-17.,-12.,1.));
#493 = LINE('',#494,#495);
#494 = CARTESIAN_POINT('',(-17.,-12.,-0.5));
#495 = VECTOR('',#496,1.);
#496 = DIRECTION('',(0.,0.,1.));
#497 = ORIENTED_EDGE('',*,*,#498,.F.);
#498 = EDGE_CURVE('',#433,#491,#499,.T.);
#499 = CIRCLE('',#500,3.);
#500 = AXIS2_PLACEMENT_3D('',#501,#502,#503);
#501 = CARTESIAN_POINT('',(-17.,-9.,1.));
#502 = DIRECTION('',(-0.,0.,1.));
#503 = DIRECTION('',(0.,-1.,0.));
#504 = ORIENTED_EDGE('',*,*,#440,.F.);
#505 = CYLINDRICAL_SURFACE('',#506,3.);
#506 = AXIS2_PLACEMENT_3D('',#507,#508,#509);
#507 = CARTESIAN_POINT('',(-17.,-9.,-0.5));
#508 = DIRECTION('',(0.,0.,1.));
#509 = DIRECTION('',(-1.,0.,0.));
#510 = ADVANCED_FACE('',(#511),#536,.T.);
#511 = FACE_BOUND('',#512,.T.);
#512 = EDGE_LOOP('',(#513,#521,#522,#530));
#513 = ORIENTED_EDGE('',*,*,#514,.F.);
#514 = EDGE_CURVE('',#482,#515,#517,.T.);
#515 = VERTEX_POINT('',#516);
#516 = CARTESIAN_POINT('',(12.4,-12.,-0.5));
#517 = LINE('',#518,#519);
#518 = CARTESIAN_POINT('',(-20.,-12.,-0.5));
#519 = VECTOR('',#520,1.);
#520 = DIRECTION('',(1.,0.,0.));
#521 = ORIENTED_EDGE('',*,*,#490,.T.);
#522 = ORIENTED_EDGE('',*,*,#523,.T.);
#523 = EDGE_CURVE('',#491,#524,#526,.T.);
#524 = VERTEX_POINT('',#525);
#525 = CARTESIAN_POINT('',(12.4,-12.,1.));
#526 = LINE('',#527,#528);
#527 = CARTESIAN_POINT('',(-20.,-12.,1.));
#528 = VECTOR('',#529,1.);
#529 = DIRECTION('',(1.,0.,0.));
#530 = ORIENTED_EDGE('',*,*,#531,.T.);
#531 = EDGE_CURVE('',#524,#515,#532,.T.);
#532 = LINE('',#533,#534);
#533 = CARTESIAN_POINT('',(12.4,-12.,-0.5));
#534 = VECTOR('',#535,1.);
#535 = DIRECTION('',(0.,0.,-1.));
#536 = PLANE('',#537);
#537 = AXIS2_PLACEMENT_3D('',#538,#539,#540);
#538 = CARTESIAN_POINT('',(-20.,-12.,-0.5));
#539 = DIRECTION('',(0.,1.,0.));
#540 = DIRECTION('',(0.,0.,1.));
#541 = ADVANCED_FACE('',(#542),#553,.F.);
#542 = FACE_BOUND('',#543,.F.);
#543 = EDGE_LOOP('',(#544,#545,#546,#552));
#544 = ORIENTED_EDGE('',*,*,#351,.F.);
#545 = ORIENTED_EDGE('',*,*,#408,.T.);
#546 = ORIENTED_EDGE('',*,*,#547,.T.);
#547 = EDGE_CURVE('',#409,#133,#548,.T.);
#548 = LINE('',#549,#550);
#549 = CARTESIAN_POINT('',(-21.,-13.,1.));
#550 = VECTOR('',#551,1.);
#551 = DIRECTION('',(1.,0.,0.));
#552 = ORIENTED_EDGE('',*,*,#132,.F.);
#553 = PLANE('',#554);
#554 = AXIS2_PLACEMENT_3D('',#555,#556,#557);
#555 = CARTESIAN_POINT('',(-21.,-13.,-1.5));
#556 = DIRECTION('',(0.,1.,0.));
#557 = DIRECTION('',(0.,0.,1.));
#558 = ADVANCED_FACE('',(#559),#577,.T.);
#559 = FACE_BOUND('',#560,.T.);
#560 = EDGE_LOOP('',(#561,#562,#563,#571));
#561 = ORIENTED_EDGE('',*,*,#392,.F.);
#562 = ORIENTED_EDGE('',*,*,#317,.T.);
#563 = ORIENTED_EDGE('',*,*,#564,.T.);
#564 = EDGE_CURVE('',#318,#565,#567,.T.);
#565 = VERTEX_POINT('',#566);
#566 = CARTESIAN_POINT('',(17.,13.,1.));
#567 = LINE('',#568,#569);
#568 = CARTESIAN_POINT('',(-21.,13.,1.));
#569 = VECTOR('',#570,1.);
#570 = DIRECTION('',(1.,0.,0.));
#571 = ORIENTED_EDGE('',*,*,#572,.F.);
#572 = EDGE_CURVE('',#384,#565,#573,.T.);
#573 = LINE('',#574,#575);
#574 = CARTESIAN_POINT('',(17.,13.,-1.5));
#575 = VECTOR('',#576,1.);
#576 = DIRECTION('',(0.,0.,1.));
#577 = PLANE('',#578);
#578 = AXIS2_PLACEMENT_3D('',#579,#580,#581);
#579 = CARTESIAN_POINT('',(-21.,13.,-1.5));
#580 = DIRECTION('',(0.,1.,0.));
#581 = DIRECTION('',(0.,0.,1.));
#582 = ADVANCED_FACE('',(#583),#602,.T.);
#583 = FACE_BOUND('',#584,.T.);
#584 = EDGE_LOOP('',(#585,#586,#587,#596));
#585 = ORIENTED_EDGE('',*,*,#383,.T.);
#586 = ORIENTED_EDGE('',*,*,#572,.T.);
#587 = ORIENTED_EDGE('',*,*,#588,.F.);
#588 = EDGE_CURVE('',#589,#565,#591,.T.);
#589 = VERTEX_POINT('',#590);
#590 = CARTESIAN_POINT('',(21.,9.,1.));
#591 = CIRCLE('',#592,4.);
#592 = AXIS2_PLACEMENT_3D('',#593,#594,#595);
#593 = CARTESIAN_POINT('',(17.,9.,1.));
#594 = DIRECTION('',(-0.,0.,1.));
#595 = DIRECTION('',(0.,-1.,0.));
#596 = ORIENTED_EDGE('',*,*,#597,.F.);
#597 = EDGE_CURVE('',#376,#589,#598,.T.);
#598 = LINE('',#599,#600);
#599 = CARTESIAN_POINT('',(21.,9.,-1.5));
#600 = VECTOR('',#601,1.);
#601 = DIRECTION('',(0.,0.,1.));
#602 = CYLINDRICAL_SURFACE('',#603,4.);
#603 = AXIS2_PLACEMENT_3D('',#604,#605,#606);
#604 = CARTESIAN_POINT('',(17.,9.,-1.5));
#605 = DIRECTION('',(0.,0.,1.));
#606 = DIRECTION('',(1.,0.,0.));
#607 = ADVANCED_FACE('',(#608),#626,.T.);
#608 = FACE_BOUND('',#609,.T.);
#609 = EDGE_LOOP('',(#610,#618,#624,#625));
#610 = ORIENTED_EDGE('',*,*,#611,.F.);
#611 = EDGE_CURVE('',#612,#589,#614,.T.);
#612 = VERTEX_POINT('',#613);
#613 = CARTESIAN_POINT('',(21.,-9.,1.));
#614 = LINE('',#615,#616);
#615 = CARTESIAN_POINT('',(21.,-13.,1.));
#616 = VECTOR('',#617,1.);
#617 = DIRECTION('',(0.,1.,0.));
#618 = ORIENTED_EDGE('',*,*,#619,.F.);
#619 = EDGE_CURVE('',#367,#612,#620,.T.);
#620 = LINE('',#621,#622);
#621 = CARTESIAN_POINT('',(21.,-9.,-1.5));
#622 = VECTOR('',#623,1.);
#623 = DIRECTION('',(0.,0.,1.));
#624 = ORIENTED_EDGE('',*,*,#375,.T.);
#625 = ORIENTED_EDGE('',*,*,#597,.T.);
#626 = PLANE('',#627);
#627 = AXIS2_PLACEMENT_3D('',#628,#629,#630);
#628 = CARTESIAN_POINT('',(21.,-13.,-1.5));
#629 = DIRECTION('',(1.,0.,0.));
#630 = DIRECTION('',(0.,0.,1.));
#631 = ADVANCED_FACE('',(#632),#650,.T.);
#632 = FACE_BOUND('',#633,.F.);
#633 = EDGE_LOOP('',(#634,#635,#636,#642,#643));
#634 = ORIENTED_EDGE('',*,*,#619,.F.);
#635 = ORIENTED_EDGE('',*,*,#366,.T.);
#636 = ORIENTED_EDGE('',*,*,#637,.T.);
#637 = EDGE_CURVE('',#359,#90,#638,.T.);
#638 = LINE('',#639,#640);
#639 = CARTESIAN_POINT('',(17.,-13.,-1.5));
#640 = VECTOR('',#641,1.);
#641 = DIRECTION('',(0.,0.,1.));
#642 = ORIENTED_EDGE('',*,*,#89,.F.);
#643 = ORIENTED_EDGE('',*,*,#644,.F.);
#644 = EDGE_CURVE('',#612,#81,#645,.T.);
#645 = CIRCLE('',#646,4.);
#646 = AXIS2_PLACEMENT_3D('',#647,#648,#649);
#647 = CARTESIAN_POINT('',(17.,-9.,1.));
#648 = DIRECTION('',(-0.,-0.,-1.));
#649 = DIRECTION('',(0.,-1.,0.));
#650 = CYLINDRICAL_SURFACE('',#651,4.);
#651 = AXIS2_PLACEMENT_3D('',#652,#653,#654);
#652 = CARTESIAN_POINT('',(17.,-9.,-1.5));
#653 = DIRECTION('',(0.,0.,1.));
#654 = DIRECTION('',(1.,0.,0.));
#655 = ADVANCED_FACE('',(#656),#681,.F.);
#656 = FACE_BOUND('',#657,.F.);
#657 = EDGE_LOOP('',(#658,#666,#667,#675));
#658 = ORIENTED_EDGE('',*,*,#659,.F.);
#659 = EDGE_CURVE('',#72,#660,#662,.T.);
#660 = VERTEX_POINT('',#661);
#661 = CARTESIAN_POINT('',(16.2,-12.1,1.));
#662 = LINE('',#663,#664);
#663 = CARTESIAN_POINT('',(-3.358125,-12.1,1.));
#664 = VECTOR('',#665,1.);
#665 = DIRECTION('',(1.,0.,0.));
#666 = ORIENTED_EDGE('',*,*,#71,.F.);
#667 = ORIENTED_EDGE('',*,*,#668,.T.);
#668 = EDGE_CURVE('',#63,#669,#671,.T.);
#669 = VERTEX_POINT('',#670);
#670 = CARTESIAN_POINT('',(16.2,-12.1,-0.5));
#671 = LINE('',#672,#673);
#672 = CARTESIAN_POINT('',(12.4,-12.1,-0.5));
#673 = VECTOR('',#674,1.);
#674 = DIRECTION('',(1.,0.,0.));
#675 = ORIENTED_EDGE('',*,*,#676,.T.);
#676 = EDGE_CURVE('',#669,#660,#677,.T.);
#677 = LINE('',#678,#679);
#678 = CARTESIAN_POINT('',(16.2,-12.1,-0.5));
#679 = VECTOR('',#680,1.);
#680 = DIRECTION('',(0.,0.,1.));
#681 = PLANE('',#682);
#682 = AXIS2_PLACEMENT_3D('',#683,#684,#685);
#683 = CARTESIAN_POINT('',(14.28375,-12.1,1.1125));
#684 = DIRECTION('',(-0.,-1.,-0.));
#685 = DIRECTION('',(0.,0.,-1.));
#686 = ADVANCED_FACE('',(#687),#714,.F.);
#687 = FACE_BOUND('',#688,.T.);
#688 = EDGE_LOOP('',(#689,#698,#706,#713));
#689 = ORIENTED_EDGE('',*,*,#690,.T.);
#690 = EDGE_CURVE('',#449,#691,#693,.T.);
#691 = VERTEX_POINT('',#692);
#692 = CARTESIAN_POINT('',(-17.,12.,-0.5));
#693 = CIRCLE('',#694,3.);
#694 = AXIS2_PLACEMENT_3D('',#695,#696,#697);
#695 = CARTESIAN_POINT('',(-17.,9.,-0.5));
#696 = DIRECTION('',(-0.,-0.,-1.));
#697 = DIRECTION('',(0.,-1.,0.));
#698 = ORIENTED_EDGE('',*,*,#699,.T.);
#699 = EDGE_CURVE('',#691,#700,#702,.T.);
#700 = VERTEX_POINT('',#701);
#701 = CARTESIAN_POINT('',(-17.,12.,1.));
#702 = LINE('',#703,#704);
#703 = CARTESIAN_POINT('',(-17.,12.,-0.5));
#704 = VECTOR('',#705,1.);
#705 = DIRECTION('',(0.,0.,1.));
#706 = ORIENTED_EDGE('',*,*,#707,.F.);
#707 = EDGE_CURVE('',#457,#700,#708,.T.);
#708 = CIRCLE('',#709,3.);
#709 = AXIS2_PLACEMENT_3D('',#710,#711,#712);
#710 = CARTESIAN_POINT('',(-17.,9.,1.));
#711 = DIRECTION('',(-0.,-0.,-1.));
#712 = DIRECTION('',(0.,-1.,0.));
#713 = ORIENTED_EDGE('',*,*,#456,.F.);
#714 = CYLINDRICAL_SURFACE('',#715,3.);
#715 = AXIS2_PLACEMENT_3D('',#716,#717,#718);
#716 = CARTESIAN_POINT('',(-17.,9.,-0.5));
#717 = DIRECTION('',(0.,0.,1.));
#718 = DIRECTION('',(-1.,0.,0.));
#719 = ADVANCED_FACE('',(#720),#754,.T.);
#720 = FACE_BOUND('',#721,.T.);
#721 = EDGE_LOOP('',(#722,#732,#740,#748));
#722 = ORIENTED_EDGE('',*,*,#723,.F.);
#723 = EDGE_CURVE('',#724,#726,#728,.T.);
#724 = VERTEX_POINT('',#725);
#725 = CARTESIAN_POINT('',(16.2,-12.,-0.5));
#726 = VERTEX_POINT('',#727);
#727 = CARTESIAN_POINT('',(17.,-12.,-0.5));
#728 = LINE('',#729,#730);
#729 = CARTESIAN_POINT('',(-20.,-12.,-0.5));
#730 = VECTOR('',#731,1.);
#731 = DIRECTION('',(1.,0.,0.));
#732 = ORIENTED_EDGE('',*,*,#733,.F.);
#733 = EDGE_CURVE('',#734,#724,#736,.T.);
#734 = VERTEX_POINT('',#735);
#735 = CARTESIAN_POINT('',(16.2,-12.,1.));
#736 = LINE('',#737,#738);
#737 = CARTESIAN_POINT('',(16.2,-12.,-0.5));
#738 = VECTOR('',#739,1.);
#739 = DIRECTION('',(0.,0.,-1.));
#740 = ORIENTED_EDGE('',*,*,#741,.T.);
#741 = EDGE_CURVE('',#734,#742,#744,.T.);
#742 = VERTEX_POINT('',#743);
#743 = CARTESIAN_POINT('',(17.,-12.,1.));
#744 = LINE('',#745,#746);
#745 = CARTESIAN_POINT('',(-20.,-12.,1.));
#746 = VECTOR('',#747,1.);
#747 = DIRECTION('',(1.,0.,0.));
#748 = ORIENTED_EDGE('',*,*,#749,.F.);
#749 = EDGE_CURVE('',#726,#742,#750,.T.);
#750 = LINE('',#751,#752);
#751 = CARTESIAN_POINT('',(17.,-12.,-0.5));
#752 = VECTOR('',#753,1.);
#753 = DIRECTION('',(0.,0.,1.));
#754 = PLANE('',#755);
#755 = AXIS2_PLACEMENT_3D('',#756,#757,#758);
#756 = CARTESIAN_POINT('',(-20.,-12.,-0.5));
#757 = DIRECTION('',(0.,1.,0.));
#758 = DIRECTION('',(0.,0.,1.));
#759 = ADVANCED_FACE('',(#760),#787,.F.);
#760 = FACE_BOUND('',#761,.T.);
#761 = EDGE_LOOP('',(#762,#771,#772,#781));
#762 = ORIENTED_EDGE('',*,*,#763,.T.);
#763 = EDGE_CURVE('',#764,#726,#766,.T.);
#764 = VERTEX_POINT('',#765);
#765 = CARTESIAN_POINT('',(20.,-9.,-0.5));
#766 = CIRCLE('',#767,3.);
#767 = AXIS2_PLACEMENT_3D('',#768,#769,#770);
#768 = CARTESIAN_POINT('',(17.,-9.,-0.5));
#769 = DIRECTION('',(-0.,-0.,-1.));
#770 = DIRECTION('',(0.,-1.,0.));
#771 = ORIENTED_EDGE('',*,*,#749,.T.);
#772 = ORIENTED_EDGE('',*,*,#773,.F.);
#773 = EDGE_CURVE('',#774,#742,#776,.T.);
#774 = VERTEX_POINT('',#775);
#775 = CARTESIAN_POINT('',(20.,-9.,1.));
#776 = CIRCLE('',#777,3.);
#777 = AXIS2_PLACEMENT_3D('',#778,#779,#780);
#778 = CARTESIAN_POINT('',(17.,-9.,1.));
#779 = DIRECTION('',(-0.,-0.,-1.));
#780 = DIRECTION('',(0.,-1.,0.));
#781 = ORIENTED_EDGE('',*,*,#782,.F.);
#782 = EDGE_CURVE('',#764,#774,#783,.T.);
#783 = LINE('',#784,#785);
#784 = CARTESIAN_POINT('',(20.,-9.,-0.5));
#785 = VECTOR('',#786,1.);
#786 = DIRECTION('',(0.,0.,1.));
#787 = CYLINDRICAL_SURFACE('',#788,3.);
#788 = AXIS2_PLACEMENT_3D('',#789,#790,#791);
#789 = CARTESIAN_POINT('',(17.,-9.,-0.5));
#790 = DIRECTION('',(0.,0.,1.));
#791 = DIRECTION('',(1.,0.,0.));
#792 = ADVANCED_FACE('',(#793),#818,.F.);
#793 = FACE_BOUND('',#794,.F.);
#794 = EDGE_LOOP('',(#795,#803,#804,#812));
#795 = ORIENTED_EDGE('',*,*,#796,.F.);
#796 = EDGE_CURVE('',#774,#797,#799,.T.);
#797 = VERTEX_POINT('',#798);
#798 = CARTESIAN_POINT('',(20.,9.,1.));
#799 = LINE('',#800,#801);
#800 = CARTESIAN_POINT('',(20.,-12.,1.));
#801 = VECTOR('',#802,1.);
#802 = DIRECTION('',(0.,1.,0.));
#803 = ORIENTED_EDGE('',*,*,#782,.F.);
#804 = ORIENTED_EDGE('',*,*,#805,.T.);
#805 = EDGE_CURVE('',#764,#806,#808,.T.);
#806 = VERTEX_POINT('',#807);
#807 = CARTESIAN_POINT('',(20.,9.,-0.5));
#808 = LINE('',#809,#810);
#809 = CARTESIAN_POINT('',(20.,-12.,-0.5));
#810 = VECTOR('',#811,1.);
#811 = DIRECTION('',(0.,1.,0.));
#812 = ORIENTED_EDGE('',*,*,#813,.T.);
#813 = EDGE_CURVE('',#806,#797,#814,.T.);
#814 = LINE('',#815,#816);
#815 = CARTESIAN_POINT('',(20.,9.,-0.5));
#816 = VECTOR('',#817,1.);
#817 = DIRECTION('',(0.,0.,1.));
#818 = PLANE('',#819);
#819 = AXIS2_PLACEMENT_3D('',#820,#821,#822);
#820 = CARTESIAN_POINT('',(20.,-12.,-0.5));
#821 = DIRECTION('',(1.,0.,0.));
#822 = DIRECTION('',(0.,0.,1.));
#823 = ADVANCED_FACE('',(#824),#851,.F.);
#824 = FACE_BOUND('',#825,.F.);
#825 = EDGE_LOOP('',(#826,#835,#843,#850));
#826 = ORIENTED_EDGE('',*,*,#827,.T.);
#827 = EDGE_CURVE('',#806,#828,#830,.T.);
#828 = VERTEX_POINT('',#829);
#829 = CARTESIAN_POINT('',(17.,12.,-0.5));
#830 = CIRCLE('',#831,3.);
#831 = AXIS2_PLACEMENT_3D('',#832,#833,#834);
#832 = CARTESIAN_POINT('',(17.,9.,-0.5));
#833 = DIRECTION('',(-0.,0.,1.));
#834 = DIRECTION('',(0.,-1.,0.));
#835 = ORIENTED_EDGE('',*,*,#836,.T.);
#836 = EDGE_CURVE('',#828,#837,#839,.T.);
#837 = VERTEX_POINT('',#838);
#838 = CARTESIAN_POINT('',(17.,12.,1.));
#839 = LINE('',#840,#841);
#840 = CARTESIAN_POINT('',(17.,12.,-0.5));
#841 = VECTOR('',#842,1.);
#842 = DIRECTION('',(0.,0.,1.));
#843 = ORIENTED_EDGE('',*,*,#844,.F.);
#844 = EDGE_CURVE('',#797,#837,#845,.T.);
#845 = CIRCLE('',#846,3.);
#846 = AXIS2_PLACEMENT_3D('',#847,#848,#849);
#847 = CARTESIAN_POINT('',(17.,9.,1.));
#848 = DIRECTION('',(-0.,0.,1.));
#849 = DIRECTION('',(0.,-1.,0.));
#850 = ORIENTED_EDGE('',*,*,#813,.F.);
#851 = CYLINDRICAL_SURFACE('',#852,3.);
#852 = AXIS2_PLACEMENT_3D('',#853,#854,#855);
#853 = CARTESIAN_POINT('',(17.,9.,-0.5));
#854 = DIRECTION('',(0.,0.,1.));
#855 = DIRECTION('',(1.,0.,0.));
#856 = ADVANCED_FACE('',(#857),#873,.F.);
#857 = FACE_BOUND('',#858,.F.);
#858 = EDGE_LOOP('',(#859,#865,#866,#872));
#859 = ORIENTED_EDGE('',*,*,#860,.F.);
#860 = EDGE_CURVE('',#691,#828,#861,.T.);
#861 = LINE('',#862,#863);
#862 = CARTESIAN_POINT('',(-20.,12.,-0.5));
#863 = VECTOR('',#864,1.);
#864 = DIRECTION('',(1.,0.,0.));
#865 = ORIENTED_EDGE('',*,*,#699,.T.);
#866 = ORIENTED_EDGE('',*,*,#867,.T.);
#867 = EDGE_CURVE('',#700,#837,#868,.T.);
#868 = LINE('',#869,#870);
#869 = CARTESIAN_POINT('',(-20.,12.,1.));
#870 = VECTOR('',#871,1.);
#871 = DIRECTION('',(1.,0.,0.));
#872 = ORIENTED_EDGE('',*,*,#836,.F.);
#873 = PLANE('',#874);
#874 = AXIS2_PLACEMENT_3D('',#875,#876,#877);
#875 = CARTESIAN_POINT('',(-20.,12.,-0.5));
#876 = DIRECTION('',(0.,1.,0.));
#877 = DIRECTION('',(0.,0.,1.));
#878 = ADVANCED_FACE('',(#879),#884,.F.);
#879 = FACE_BOUND('',#880,.F.);
#880 = EDGE_LOOP('',(#881,#882,#883));
#881 = ORIENTED_EDGE('',*,*,#358,.F.);
#882 = ORIENTED_EDGE('',*,*,#114,.F.);
#883 = ORIENTED_EDGE('',*,*,#637,.F.);
#884 = PLANE('',#885);
#885 = AXIS2_PLACEMENT_3D('',#886,#887,#888);
#886 = CARTESIAN_POINT('',(-21.,-13.,-1.5));
#887 = DIRECTION('',(0.,1.,0.));
#888 = DIRECTION('',(0.,0.,1.));
#889 = ADVANCED_FACE('',(#890),#906,.T.);
#890 = FACE_BOUND('',#891,.T.);
#891 = EDGE_LOOP('',(#892,#893,#899,#900));
#892 = ORIENTED_EDGE('',*,*,#31,.F.);
#893 = ORIENTED_EDGE('',*,*,#894,.T.);
#894 = EDGE_CURVE('',#32,#515,#895,.T.);
#895 = LINE('',#896,#897);
#896 = CARTESIAN_POINT('',(12.4,-12.1,-0.5));
#897 = VECTOR('',#898,1.);
#898 = DIRECTION('',(0.,1.,0.));
#899 = ORIENTED_EDGE('',*,*,#531,.F.);
#900 = ORIENTED_EDGE('',*,*,#901,.F.);
#901 = EDGE_CURVE('',#22,#524,#902,.T.);
#902 = LINE('',#903,#904);
#903 = CARTESIAN_POINT('',(12.4,-12.1,1.));
#904 = VECTOR('',#905,1.);
#905 = DIRECTION('',(0.,1.,0.));
#906 = PLANE('',#907);
#907 = AXIS2_PLACEMENT_3D('',#908,#909,#910);
#908 = CARTESIAN_POINT('',(12.4,-12.1,-0.5));
#909 = DIRECTION('',(1.,0.,0.));
#910 = DIRECTION('',(0.,0.,1.));
#911 = ADVANCED_FACE('',(#912),#928,.F.);
#912 = FACE_BOUND('',#913,.F.);
#913 = EDGE_LOOP('',(#914,#915,#921,#922));
#914 = ORIENTED_EDGE('',*,*,#676,.F.);
#915 = ORIENTED_EDGE('',*,*,#916,.T.);
#916 = EDGE_CURVE('',#669,#724,#917,.T.);
#917 = LINE('',#918,#919);
#918 = CARTESIAN_POINT('',(16.2,-12.1,-0.5));
#919 = VECTOR('',#920,1.);
#920 = DIRECTION('',(0.,1.,0.));
#921 = ORIENTED_EDGE('',*,*,#733,.F.);
#922 = ORIENTED_EDGE('',*,*,#923,.F.);
#923 = EDGE_CURVE('',#660,#734,#924,.T.);
#924 = LINE('',#925,#926);
#925 = CARTESIAN_POINT('',(16.2,-12.1,1.));
#926 = VECTOR('',#927,1.);
#927 = DIRECTION('',(0.,1.,0.));
#928 = PLANE('',#929);
#929 = AXIS2_PLACEMENT_3D('',#930,#931,#932);
#930 = CARTESIAN_POINT('',(16.2,-12.1,-0.5));
#931 = DIRECTION('',(1.,0.,0.));
#932 = DIRECTION('',(0.,0.,1.));
#933 = ADVANCED_FACE('',(#934),#946,.T.);
#934 = FACE_BOUND('',#935,.T.);
#935 = EDGE_LOOP('',(#936,#937,#938,#939,#940,#941,#942,#943,#944,#945)
  );
#936 = ORIENTED_EDGE('',*,*,#157,.F.);
#937 = ORIENTED_EDGE('',*,*,#416,.T.);
#938 = ORIENTED_EDGE('',*,*,#547,.T.);
#939 = ORIENTED_EDGE('',*,*,#141,.F.);
#940 = ORIENTED_EDGE('',*,*,#21,.F.);
#941 = ORIENTED_EDGE('',*,*,#901,.T.);
#942 = ORIENTED_EDGE('',*,*,#523,.F.);
#943 = ORIENTED_EDGE('',*,*,#498,.F.);
#944 = ORIENTED_EDGE('',*,*,#432,.T.);
#945 = ORIENTED_EDGE('',*,*,#246,.T.);
#946 = PLANE('',#947);
#947 = AXIS2_PLACEMENT_3D('',#948,#949,#950);
#948 = CARTESIAN_POINT('',(-6.183398762453,-11.83885017306,1.));
#949 = DIRECTION('',(0.,0.,1.));
#950 = DIRECTION('',(1.,0.,-0.));
#951 = ADVANCED_FACE('',(#952),#971,.T.);
#952 = FACE_BOUND('',#953,.T.);
#953 = EDGE_LOOP('',(#954,#955,#956,#957,#958,#959,#960,#961,#962,#963,
    #964,#965,#966,#967,#968,#969,#970));
#954 = ORIENTED_EDGE('',*,*,#191,.F.);
#955 = ORIENTED_EDGE('',*,*,#294,.F.);
#956 = ORIENTED_EDGE('',*,*,#464,.T.);
#957 = ORIENTED_EDGE('',*,*,#707,.T.);
#958 = ORIENTED_EDGE('',*,*,#867,.T.);
#959 = ORIENTED_EDGE('',*,*,#844,.F.);
#960 = ORIENTED_EDGE('',*,*,#796,.F.);
#961 = ORIENTED_EDGE('',*,*,#773,.T.);
#962 = ORIENTED_EDGE('',*,*,#741,.F.);
#963 = ORIENTED_EDGE('',*,*,#923,.F.);
#964 = ORIENTED_EDGE('',*,*,#659,.F.);
#965 = ORIENTED_EDGE('',*,*,#80,.F.);
#966 = ORIENTED_EDGE('',*,*,#644,.F.);
#967 = ORIENTED_EDGE('',*,*,#611,.T.);
#968 = ORIENTED_EDGE('',*,*,#588,.T.);
#969 = ORIENTED_EDGE('',*,*,#564,.F.);
#970 = ORIENTED_EDGE('',*,*,#325,.F.);
#971 = PLANE('',#972);
#972 = AXIS2_PLACEMENT_3D('',#973,#974,#975);
#973 = CARTESIAN_POINT('',(5.770814798301,6.813052130745,1.));
#974 = DIRECTION('',(0.,0.,1.));
#975 = DIRECTION('',(1.,0.,-0.));
#976 = ADVANCED_FACE('',(#977),#993,.T.);
#977 = FACE_BOUND('',#978,.T.);
#978 = EDGE_LOOP('',(#979,#980,#981,#982,#983,#984,#985,#986,#987,#988,
    #989,#990,#991,#992));
#979 = ORIENTED_EDGE('',*,*,#448,.F.);
#980 = ORIENTED_EDGE('',*,*,#481,.T.);
#981 = ORIENTED_EDGE('',*,*,#514,.T.);
#982 = ORIENTED_EDGE('',*,*,#894,.F.);
#983 = ORIENTED_EDGE('',*,*,#39,.T.);
#984 = ORIENTED_EDGE('',*,*,#62,.F.);
#985 = ORIENTED_EDGE('',*,*,#668,.T.);
#986 = ORIENTED_EDGE('',*,*,#916,.T.);
#987 = ORIENTED_EDGE('',*,*,#723,.T.);
#988 = ORIENTED_EDGE('',*,*,#763,.F.);
#989 = ORIENTED_EDGE('',*,*,#805,.T.);
#990 = ORIENTED_EDGE('',*,*,#827,.T.);
#991 = ORIENTED_EDGE('',*,*,#860,.F.);
#992 = ORIENTED_EDGE('',*,*,#690,.F.);
#993 = PLANE('',#994);
#994 = AXIS2_PLACEMENT_3D('',#995,#996,#997);
#995 = CARTESIAN_POINT('',(2.410551970776E-02,-2.286046187221E-02,-0.5)
  );
#996 = DIRECTION('',(0.,0.,1.));
#997 = DIRECTION('',(1.,0.,-0.));
#998 = ( GEOMETRIC_REPRESENTATION_CONTEXT(3) 
GLOBAL_UNCERTAINTY_ASSIGNED_CONTEXT((#1002)) 
GLOBAL_UNIT_ASSIGNED_CONTEXT((#999,#1000,#1001)) REPRESENTATION_CONTEXT(
  'Context #1','3D Context with UNIT and UNCERTAINTY') );
#999 = ( LENGTH_UNIT() NAMED_UNIT(*) SI_UNIT(.MILLI.,.METRE.) );
#1000 = ( NAMED_UNIT(*) PLANE_ANGLE_UNIT() SI_UNIT($,.RADIAN.) );
#1001 = ( NAMED_UNIT(*) SI_UNIT($,.STERADIAN.) SOLID_ANGLE_UNIT() );
#1002 = UNCERTAINTY_MEASURE_WITH_UNIT(LENGTH_MEASURE(2.E-05),#999,
  'distance_accuracy_value','confusion accuracy');
#1003 = PRODUCT_RELATED_PRODUCT_CATEGORY('part',$,(#7));
#1004 = MECHANICAL_DESIGN_GEOMETRIC_PRESENTATION_REPRESENTATION('',(
    #1005),#998);
#1005 = STYLED_ITEM('color',(#1006),#15);
#1006 = PRESENTATION_STYLE_ASSIGNMENT((#1007,#1015));
#1007 = SURFACE_STYLE_USAGE(.BOTH.,#1008);
#1008 = SURFACE_SIDE_STYLE('',(#1009,#1013));
#1009 = SURFACE_STYLE_FILL_AREA(#1010);
#1010 = FILL_AREA_STYLE('',(#1011));
#1011 = FILL_AREA_STYLE_COLOUR('',#1012);
#1012 = COLOUR_RGB('',0.447058818107,0.474509808674,0.501960817233);
#1013 = SURFACE_STYLE_RENDERING_WITH_PROPERTIES(.NORMAL_SHADING.,#1012,(
    #1014));
#1014 = SURFACE_STYLE_TRANSPARENT(0.199999988079);
#1015 = CURVE_STYLE('',#1016,POSITIVE_LENGTH_MEASURE(0.1),#1017);
#1016 = DRAUGHTING_PRE_DEFINED_CURVE_FONT('continuous');
#1017 = COLOUR_RGB('',9.803921802644E-02,9.803921802644E-02,
  9.803921802644E-02);
ENDSEC;
END-ISO-10303-21;
