ISO-10303-21;
HEADER;
FILE_DESCRIPTION(('FreeCAD Model'),'2;1');
FILE_NAME('Open CASCADE Shape Model','2026-10-07T02:59:24',(''),(''),
  'Open CASCADE STEP processor 7.8','FreeCAD','Unknown');
FILE_SCHEMA((
'AP242_MANAGED_MODEL_BASED_3D_ENGINEERING_MIM_LF. {1 0 10303 442 1 1 4 
}'));
ENDSEC;
DATA;
#1 = APPLICATION_PROTOCOL_DEFINITION('international standard',
  'ap242_managed_model_based_3d_engineering',2013,#2);
#2 = APPLICATION_CONTEXT('Managed model based 3d engineering');
#3 = SHAPE_DEFINITION_REPRESENTATION(#4,#10);
#4 = PRODUCT_DEFINITION_SHAPE('','',#5);
#5 = PRODUCT_DEFINITION('design','',#6,#9);
#6 = PRODUCT_DEFINITION_FORMATION('','',#7);
#7 = PRODUCT('Case Top Cut (female C to male C)',
  'Case Top Cut (female C to male C)','',(#8));
#8 = PRODUCT_CONTEXT('',#2,'mechanical');
#9 = PRODUCT_DEFINITION_CONTEXT('part definition',#2,'design');
#10 = ADVANCED_BREP_SHAPE_REPRESENTATION('',(#11,#15),#2010);
#11 = AXIS2_PLACEMENT_3D('',#12,#13,#14);
#12 = CARTESIAN_POINT('',(0.,0.,0.));
#13 = DIRECTION('',(0.,0.,1.));
#14 = DIRECTION('',(1.,0.,-0.));
#15 = MANIFOLD_SOLID_BREP('',#16);
#16 = CLOSED_SHELL('',(#17,#57,#135,#160,#185,#362,#388,#405,#443,#581,
    #661,#687,#724,#748,#788,#812,#837,#869,#893,#918,#942,#967,#991,
    #1031,#1048,#1090,#1114,#1149,#1174,#1214,#1238,#1278,#1296,#1354,
    #1378,#1402,#1426,#1477,#1501,#1525,#1542,#1621,#1649,#1681,#1715,
    #1803,#1822,#1857,#1878,#1908,#1925,#1942,#1964,#1976,#1988));
#17 = ADVANCED_FACE('',(#18),#52,.F.);
#18 = FACE_BOUND('',#19,.F.);
#19 = EDGE_LOOP('',(#20,#30,#38,#46));
#20 = ORIENTED_EDGE('',*,*,#21,.F.);
#21 = EDGE_CURVE('',#22,#24,#26,.T.);
#22 = VERTEX_POINT('',#23);
#23 = CARTESIAN_POINT('',(-21.,-9.5,6.));
#24 = VERTEX_POINT('',#25);
#25 = CARTESIAN_POINT('',(-21.,9.5,6.));
#26 = LINE('',#27,#28);
#27 = CARTESIAN_POINT('',(-21.,-13.,6.));
#28 = VECTOR('',#29,1.);
#29 = DIRECTION('',(0.,1.,0.));
#30 = ORIENTED_EDGE('',*,*,#31,.F.);
#31 = EDGE_CURVE('',#32,#22,#34,.T.);
#32 = VERTEX_POINT('',#33);
#33 = CARTESIAN_POINT('',(-21.,-9.5,1.));
#34 = LINE('',#35,#36);
#35 = CARTESIAN_POINT('',(-21.,-9.5,1.));
#36 = VECTOR('',#37,1.);
#37 = DIRECTION('',(0.,0.,1.));
#38 = ORIENTED_EDGE('',*,*,#39,.T.);
#39 = EDGE_CURVE('',#32,#40,#42,.T.);
#40 = VERTEX_POINT('',#41);
#41 = CARTESIAN_POINT('',(-21.,9.5,1.));
#42 = LINE('',#43,#44);
#43 = CARTESIAN_POINT('',(-21.,-13.,1.));
#44 = VECTOR('',#45,1.);
#45 = DIRECTION('',(0.,1.,0.));
#46 = ORIENTED_EDGE('',*,*,#47,.T.);
#47 = EDGE_CURVE('',#40,#24,#48,.T.);
#48 = LINE('',#49,#50);
#49 = CARTESIAN_POINT('',(-21.,9.5,1.));
#50 = VECTOR('',#51,1.);
#51 = DIRECTION('',(0.,0.,1.));
#52 = PLANE('',#53);
#53 = AXIS2_PLACEMENT_3D('',#54,#55,#56);
#54 = CARTESIAN_POINT('',(-21.,-13.,1.));
#55 = DIRECTION('',(1.,0.,0.));
#56 = DIRECTION('',(0.,0.,1.));
#57 = ADVANCED_FACE('',(#58,#119),#130,.T.);
#58 = FACE_BOUND('',#59,.T.);
#59 = EDGE_LOOP('',(#60,#61,#70,#78,#87,#95,#104,#112));
#60 = ORIENTED_EDGE('',*,*,#21,.F.);
#61 = ORIENTED_EDGE('',*,*,#62,.T.);
#62 = EDGE_CURVE('',#22,#63,#65,.T.);
#63 = VERTEX_POINT('',#64);
#64 = CARTESIAN_POINT('',(-17.5,-13.,6.));
#65 = CIRCLE('',#66,3.5);
#66 = AXIS2_PLACEMENT_3D('',#67,#68,#69);
#67 = CARTESIAN_POINT('',(-17.5,-9.5,6.));
#68 = DIRECTION('',(-0.,0.,1.));
#69 = DIRECTION('',(0.,-1.,0.));
#70 = ORIENTED_EDGE('',*,*,#71,.T.);
#71 = EDGE_CURVE('',#63,#72,#74,.T.);
#72 = VERTEX_POINT('',#73);
#73 = CARTESIAN_POINT('',(17.5,-13.,6.));
#74 = LINE('',#75,#76);
#75 = CARTESIAN_POINT('',(-21.,-13.,6.));
#76 = VECTOR('',#77,1.);
#77 = DIRECTION('',(1.,0.,0.));
#78 = ORIENTED_EDGE('',*,*,#79,.F.);
#79 = EDGE_CURVE('',#80,#72,#82,.T.);
#80 = VERTEX_POINT('',#81);
#81 = CARTESIAN_POINT('',(21.,-9.5,6.));
#82 = CIRCLE('',#83,3.5);
#83 = AXIS2_PLACEMENT_3D('',#84,#85,#86);
#84 = CARTESIAN_POINT('',(17.5,-9.5,6.));
#85 = DIRECTION('',(-0.,-0.,-1.));
#86 = DIRECTION('',(0.,-1.,0.));
#87 = ORIENTED_EDGE('',*,*,#88,.T.);
#88 = EDGE_CURVE('',#80,#89,#91,.T.);
#89 = VERTEX_POINT('',#90);
#90 = CARTESIAN_POINT('',(21.,9.5,6.));
#91 = LINE('',#92,#93);
#92 = CARTESIAN_POINT('',(21.,-13.,6.));
#93 = VECTOR('',#94,1.);
#94 = DIRECTION('',(0.,1.,0.));
#95 = ORIENTED_EDGE('',*,*,#96,.T.);
#96 = EDGE_CURVE('',#89,#97,#99,.T.);
#97 = VERTEX_POINT('',#98);
#98 = CARTESIAN_POINT('',(17.5,13.,6.));
#99 = CIRCLE('',#100,3.5);
#100 = AXIS2_PLACEMENT_3D('',#101,#102,#103);
#101 = CARTESIAN_POINT('',(17.5,9.5,6.));
#102 = DIRECTION('',(-0.,0.,1.));
#103 = DIRECTION('',(0.,-1.,0.));
#104 = ORIENTED_EDGE('',*,*,#105,.F.);
#105 = EDGE_CURVE('',#106,#97,#108,.T.);
#106 = VERTEX_POINT('',#107);
#107 = CARTESIAN_POINT('',(-17.5,13.,6.));
#108 = LINE('',#109,#110);
#109 = CARTESIAN_POINT('',(-21.,13.,6.));
#110 = VECTOR('',#111,1.);
#111 = DIRECTION('',(1.,0.,0.));
#112 = ORIENTED_EDGE('',*,*,#113,.F.);
#113 = EDGE_CURVE('',#24,#106,#114,.T.);
#114 = CIRCLE('',#115,3.5);
#115 = AXIS2_PLACEMENT_3D('',#116,#117,#118);
#116 = CARTESIAN_POINT('',(-17.5,9.5,6.));
#117 = DIRECTION('',(-0.,-0.,-1.));
#118 = DIRECTION('',(0.,-1.,0.));
#119 = FACE_BOUND('',#120,.T.);
#120 = EDGE_LOOP('',(#121));
#121 = ORIENTED_EDGE('',*,*,#122,.F.);
#122 = EDGE_CURVE('',#123,#123,#125,.T.);
#123 = VERTEX_POINT('',#124);
#124 = CARTESIAN_POINT('',(17.4,9.,6.));
#125 = CIRCLE('',#126,1.2);
#126 = AXIS2_PLACEMENT_3D('',#127,#128,#129);
#127 = CARTESIAN_POINT('',(16.2,9.,6.));
#128 = DIRECTION('',(0.,0.,1.));
#129 = DIRECTION('',(1.,0.,0.));
#130 = PLANE('',#131);
#131 = AXIS2_PLACEMENT_3D('',#132,#133,#134);
#132 = CARTESIAN_POINT('',(-21.,-13.,6.));
#133 = DIRECTION('',(0.,0.,1.));
#134 = DIRECTION('',(1.,0.,0.));
#135 = ADVANCED_FACE('',(#136),#155,.T.);
#136 = FACE_BOUND('',#137,.T.);
#137 = EDGE_LOOP('',(#138,#147,#153,#154));
#138 = ORIENTED_EDGE('',*,*,#139,.T.);
#139 = EDGE_CURVE('',#32,#140,#142,.T.);
#140 = VERTEX_POINT('',#141);
#141 = CARTESIAN_POINT('',(-17.5,-13.,1.));
#142 = CIRCLE('',#143,3.5);
#143 = AXIS2_PLACEMENT_3D('',#144,#145,#146);
#144 = CARTESIAN_POINT('',(-17.5,-9.5,1.));
#145 = DIRECTION('',(-0.,0.,1.));
#146 = DIRECTION('',(0.,-1.,0.));
#147 = ORIENTED_EDGE('',*,*,#148,.T.);
#148 = EDGE_CURVE('',#140,#63,#149,.T.);
#149 = LINE('',#150,#151);
#150 = CARTESIAN_POINT('',(-17.5,-13.,1.));
#151 = VECTOR('',#152,1.);
#152 = DIRECTION('',(0.,0.,1.));
#153 = ORIENTED_EDGE('',*,*,#62,.F.);
#154 = ORIENTED_EDGE('',*,*,#31,.F.);
#155 = CYLINDRICAL_SURFACE('',#156,3.5);
#156 = AXIS2_PLACEMENT_3D('',#157,#158,#159);
#157 = CARTESIAN_POINT('',(-17.5,-9.5,1.));
#158 = DIRECTION('',(0.,0.,1.));
#159 = DIRECTION('',(-1.,0.,0.));
#160 = ADVANCED_FACE('',(#161),#180,.T.);
#161 = FACE_BOUND('',#162,.F.);
#162 = EDGE_LOOP('',(#163,#172,#178,#179));
#163 = ORIENTED_EDGE('',*,*,#164,.T.);
#164 = EDGE_CURVE('',#40,#165,#167,.T.);
#165 = VERTEX_POINT('',#166);
#166 = CARTESIAN_POINT('',(-17.5,13.,1.));
#167 = CIRCLE('',#168,3.5);
#168 = AXIS2_PLACEMENT_3D('',#169,#170,#171);
#169 = CARTESIAN_POINT('',(-17.5,9.5,1.));
#170 = DIRECTION('',(-0.,-0.,-1.));
#171 = DIRECTION('',(0.,-1.,0.));
#172 = ORIENTED_EDGE('',*,*,#173,.T.);
#173 = EDGE_CURVE('',#165,#106,#174,.T.);
#174 = LINE('',#175,#176);
#175 = CARTESIAN_POINT('',(-17.5,13.,1.));
#176 = VECTOR('',#177,1.);
#177 = DIRECTION('',(0.,0.,1.));
#178 = ORIENTED_EDGE('',*,*,#113,.F.);
#179 = ORIENTED_EDGE('',*,*,#47,.F.);
#180 = CYLINDRICAL_SURFACE('',#181,3.5);
#181 = AXIS2_PLACEMENT_3D('',#182,#183,#184);
#182 = CARTESIAN_POINT('',(-17.5,9.5,1.));
#183 = DIRECTION('',(0.,0.,1.));
#184 = DIRECTION('',(-1.,0.,0.));
#185 = ADVANCED_FACE('',(#186),#357,.F.);
#186 = FACE_BOUND('',#187,.F.);
#187 = EDGE_LOOP('',(#188,#189,#190,#198,#207,#215,#223,#231,#240,#248,
    #257,#265,#274,#282,#291,#299,#307,#315,#324,#333,#341,#350,#356));
#188 = ORIENTED_EDGE('',*,*,#39,.F.);
#189 = ORIENTED_EDGE('',*,*,#139,.T.);
#190 = ORIENTED_EDGE('',*,*,#191,.T.);
#191 = EDGE_CURVE('',#140,#192,#194,.T.);
#192 = VERTEX_POINT('',#193);
#193 = CARTESIAN_POINT('',(11.050384638146,-13.,1.));
#194 = LINE('',#195,#196);
#195 = CARTESIAN_POINT('',(-21.,-13.,1.));
#196 = VECTOR('',#197,1.);
#197 = DIRECTION('',(1.,0.,0.));
#198 = ORIENTED_EDGE('',*,*,#199,.F.);
#199 = EDGE_CURVE('',#200,#192,#202,.T.);
#200 = VERTEX_POINT('',#201);
#201 = CARTESIAN_POINT('',(12.594127789077,-12.1,1.));
#202 = CIRCLE('',#203,5.);
#203 = AXIS2_PLACEMENT_3D('',#204,#205,#206);
#204 = CARTESIAN_POINT('',(14.3,-16.8,1.));
#205 = DIRECTION('',(0.,0.,1.));
#206 = DIRECTION('',(1.,0.,-0.));
#207 = ORIENTED_EDGE('',*,*,#208,.F.);
#208 = EDGE_CURVE('',#209,#200,#211,.T.);
#209 = VERTEX_POINT('',#210);
#210 = CARTESIAN_POINT('',(11.78,-12.1,1.));
#211 = LINE('',#212,#213);
#212 = CARTESIAN_POINT('',(11.78,-12.1,1.));
#213 = VECTOR('',#214,1.);
#214 = DIRECTION('',(1.,0.,0.));
#215 = ORIENTED_EDGE('',*,*,#216,.T.);
#216 = EDGE_CURVE('',#209,#217,#219,.T.);
#217 = VERTEX_POINT('',#218);
#218 = CARTESIAN_POINT('',(11.78,-12.,1.));
#219 = LINE('',#220,#221);
#220 = CARTESIAN_POINT('',(11.78,-12.1,1.));
#221 = VECTOR('',#222,1.);
#222 = DIRECTION('',(0.,1.,0.));
#223 = ORIENTED_EDGE('',*,*,#224,.T.);
#224 = EDGE_CURVE('',#217,#225,#227,.T.);
#225 = VERTEX_POINT('',#226);
#226 = CARTESIAN_POINT('',(-17.,-12.,1.));
#227 = LINE('',#228,#229);
#228 = CARTESIAN_POINT('',(-20.5,-12.,1.));
#229 = VECTOR('',#230,1.);
#230 = DIRECTION('',(-1.,0.,0.));
#231 = ORIENTED_EDGE('',*,*,#232,.F.);
#232 = EDGE_CURVE('',#233,#225,#235,.T.);
#233 = VERTEX_POINT('',#234);
#234 = CARTESIAN_POINT('',(-20.,-9.,1.));
#235 = CIRCLE('',#236,3.);
#236 = AXIS2_PLACEMENT_3D('',#237,#238,#239);
#237 = CARTESIAN_POINT('',(-17.,-9.,1.));
#238 = DIRECTION('',(0.,0.,1.));
#239 = DIRECTION('',(-1.,0.,0.));
#240 = ORIENTED_EDGE('',*,*,#241,.T.);
#241 = EDGE_CURVE('',#233,#242,#244,.T.);
#242 = VERTEX_POINT('',#243);
#243 = CARTESIAN_POINT('',(-20.,9.,1.));
#244 = LINE('',#245,#246);
#245 = CARTESIAN_POINT('',(-20.,-12.5,1.));
#246 = VECTOR('',#247,1.);
#247 = DIRECTION('',(0.,1.,0.));
#248 = ORIENTED_EDGE('',*,*,#249,.F.);
#249 = EDGE_CURVE('',#250,#242,#252,.T.);
#250 = VERTEX_POINT('',#251);
#251 = CARTESIAN_POINT('',(-17.,12.,1.));
#252 = CIRCLE('',#253,3.);
#253 = AXIS2_PLACEMENT_3D('',#254,#255,#256);
#254 = CARTESIAN_POINT('',(-17.,9.,1.));
#255 = DIRECTION('',(0.,0.,1.));
#256 = DIRECTION('',(-1.,0.,0.));
#257 = ORIENTED_EDGE('',*,*,#258,.F.);
#258 = EDGE_CURVE('',#259,#250,#261,.T.);
#259 = VERTEX_POINT('',#260);
#260 = CARTESIAN_POINT('',(17.,12.,1.));
#261 = LINE('',#262,#263);
#262 = CARTESIAN_POINT('',(-20.5,12.,1.));
#263 = VECTOR('',#264,1.);
#264 = DIRECTION('',(-1.,0.,0.));
#265 = ORIENTED_EDGE('',*,*,#266,.F.);
#266 = EDGE_CURVE('',#267,#259,#269,.T.);
#267 = VERTEX_POINT('',#268);
#268 = CARTESIAN_POINT('',(20.,9.,1.));
#269 = CIRCLE('',#270,3.);
#270 = AXIS2_PLACEMENT_3D('',#271,#272,#273);
#271 = CARTESIAN_POINT('',(17.,9.,1.));
#272 = DIRECTION('',(0.,0.,1.));
#273 = DIRECTION('',(1.,0.,0.));
#274 = ORIENTED_EDGE('',*,*,#275,.F.);
#275 = EDGE_CURVE('',#276,#267,#278,.T.);
#276 = VERTEX_POINT('',#277);
#277 = CARTESIAN_POINT('',(20.,-9.,1.));
#278 = LINE('',#279,#280);
#279 = CARTESIAN_POINT('',(20.,-12.5,1.));
#280 = VECTOR('',#281,1.);
#281 = DIRECTION('',(0.,1.,0.));
#282 = ORIENTED_EDGE('',*,*,#283,.F.);
#283 = EDGE_CURVE('',#284,#276,#286,.T.);
#284 = VERTEX_POINT('',#285);
#285 = CARTESIAN_POINT('',(17.,-12.,1.));
#286 = CIRCLE('',#287,3.);
#287 = AXIS2_PLACEMENT_3D('',#288,#289,#290);
#288 = CARTESIAN_POINT('',(17.,-9.,1.));
#289 = DIRECTION('',(0.,0.,1.));
#290 = DIRECTION('',(1.,0.,0.));
#291 = ORIENTED_EDGE('',*,*,#292,.T.);
#292 = EDGE_CURVE('',#284,#293,#295,.T.);
#293 = VERTEX_POINT('',#294);
#294 = CARTESIAN_POINT('',(16.78,-12.,1.));
#295 = LINE('',#296,#297);
#296 = CARTESIAN_POINT('',(-20.5,-12.,1.));
#297 = VECTOR('',#298,1.);
#298 = DIRECTION('',(-1.,0.,0.));
#299 = ORIENTED_EDGE('',*,*,#300,.F.);
#300 = EDGE_CURVE('',#301,#293,#303,.T.);
#301 = VERTEX_POINT('',#302);
#302 = CARTESIAN_POINT('',(16.78,-12.1,1.));
#303 = LINE('',#304,#305);
#304 = CARTESIAN_POINT('',(16.78,-12.1,1.));
#305 = VECTOR('',#306,1.);
#306 = DIRECTION('',(0.,1.,0.));
#307 = ORIENTED_EDGE('',*,*,#308,.F.);
#308 = EDGE_CURVE('',#309,#301,#311,.T.);
#309 = VERTEX_POINT('',#310);
#310 = CARTESIAN_POINT('',(16.005872210923,-12.1,1.));
#311 = LINE('',#312,#313);
#312 = CARTESIAN_POINT('',(-2.493588458689,-12.1,1.));
#313 = VECTOR('',#314,1.);
#314 = DIRECTION('',(1.,0.,0.));
#315 = ORIENTED_EDGE('',*,*,#316,.F.);
#316 = EDGE_CURVE('',#317,#309,#319,.T.);
#317 = VERTEX_POINT('',#318);
#318 = CARTESIAN_POINT('',(17.549210747034,-12.99965402609,1.));
#319 = CIRCLE('',#320,5.);
#320 = AXIS2_PLACEMENT_3D('',#321,#322,#323);
#321 = CARTESIAN_POINT('',(14.3,-16.8,1.));
#322 = DIRECTION('',(0.,0.,1.));
#323 = DIRECTION('',(1.,0.,-0.));
#324 = ORIENTED_EDGE('',*,*,#325,.F.);
#325 = EDGE_CURVE('',#326,#317,#328,.T.);
#326 = VERTEX_POINT('',#327);
#327 = CARTESIAN_POINT('',(21.,-9.5,1.));
#328 = CIRCLE('',#329,3.5);
#329 = AXIS2_PLACEMENT_3D('',#330,#331,#332);
#330 = CARTESIAN_POINT('',(17.5,-9.5,1.));
#331 = DIRECTION('',(-0.,-0.,-1.));
#332 = DIRECTION('',(0.,-1.,0.));
#333 = ORIENTED_EDGE('',*,*,#334,.T.);
#334 = EDGE_CURVE('',#326,#335,#337,.T.);
#335 = VERTEX_POINT('',#336);
#336 = CARTESIAN_POINT('',(21.,9.5,1.));
#337 = LINE('',#338,#339);
#338 = CARTESIAN_POINT('',(21.,-13.,1.));
#339 = VECTOR('',#340,1.);
#340 = DIRECTION('',(0.,1.,0.));
#341 = ORIENTED_EDGE('',*,*,#342,.T.);
#342 = EDGE_CURVE('',#335,#343,#345,.T.);
#343 = VERTEX_POINT('',#344);
#344 = CARTESIAN_POINT('',(17.5,13.,1.));
#345 = CIRCLE('',#346,3.5);
#346 = AXIS2_PLACEMENT_3D('',#347,#348,#349);
#347 = CARTESIAN_POINT('',(17.5,9.5,1.));
#348 = DIRECTION('',(-0.,0.,1.));
#349 = DIRECTION('',(0.,-1.,0.));
#350 = ORIENTED_EDGE('',*,*,#351,.F.);
#351 = EDGE_CURVE('',#165,#343,#352,.T.);
#352 = LINE('',#353,#354);
#353 = CARTESIAN_POINT('',(-21.,13.,1.));
#354 = VECTOR('',#355,1.);
#355 = DIRECTION('',(1.,0.,0.));
#356 = ORIENTED_EDGE('',*,*,#164,.F.);
#357 = PLANE('',#358);
#358 = AXIS2_PLACEMENT_3D('',#359,#360,#361);
#359 = CARTESIAN_POINT('',(-21.,-13.,1.));
#360 = DIRECTION('',(0.,0.,1.));
#361 = DIRECTION('',(1.,0.,0.));
#362 = ADVANCED_FACE('',(#363),#383,.F.);
#363 = FACE_BOUND('',#364,.F.);
#364 = EDGE_LOOP('',(#365,#366,#367,#368,#376));
#365 = ORIENTED_EDGE('',*,*,#191,.F.);
#366 = ORIENTED_EDGE('',*,*,#148,.T.);
#367 = ORIENTED_EDGE('',*,*,#71,.T.);
#368 = ORIENTED_EDGE('',*,*,#369,.F.);
#369 = EDGE_CURVE('',#370,#72,#372,.T.);
#370 = VERTEX_POINT('',#371);
#371 = CARTESIAN_POINT('',(17.5,-13.,1.565685424949));
#372 = LINE('',#373,#374);
#373 = CARTESIAN_POINT('',(17.5,-13.,1.));
#374 = VECTOR('',#375,1.);
#375 = DIRECTION('',(0.,0.,1.));
#376 = ORIENTED_EDGE('',*,*,#377,.F.);
#377 = EDGE_CURVE('',#192,#370,#378,.T.);
#378 = CIRCLE('',#379,3.249615361854);
#379 = AXIS2_PLACEMENT_3D('',#380,#381,#382);
#380 = CARTESIAN_POINT('',(14.3,-13.,1.));
#381 = DIRECTION('',(0.,1.,0.));
#382 = DIRECTION('',(0.,-0.,1.));
#383 = PLANE('',#384);
#384 = AXIS2_PLACEMENT_3D('',#385,#386,#387);
#385 = CARTESIAN_POINT('',(-21.,-13.,1.));
#386 = DIRECTION('',(0.,1.,0.));
#387 = DIRECTION('',(0.,0.,1.));
#388 = ADVANCED_FACE('',(#389),#400,.T.);
#389 = FACE_BOUND('',#390,.T.);
#390 = EDGE_LOOP('',(#391,#392,#393,#394));
#391 = ORIENTED_EDGE('',*,*,#351,.F.);
#392 = ORIENTED_EDGE('',*,*,#173,.T.);
#393 = ORIENTED_EDGE('',*,*,#105,.T.);
#394 = ORIENTED_EDGE('',*,*,#395,.F.);
#395 = EDGE_CURVE('',#343,#97,#396,.T.);
#396 = LINE('',#397,#398);
#397 = CARTESIAN_POINT('',(17.5,13.,1.));
#398 = VECTOR('',#399,1.);
#399 = DIRECTION('',(0.,0.,1.));
#400 = PLANE('',#401);
#401 = AXIS2_PLACEMENT_3D('',#402,#403,#404);
#402 = CARTESIAN_POINT('',(-21.,13.,1.));
#403 = DIRECTION('',(0.,1.,0.));
#404 = DIRECTION('',(0.,0.,1.));
#405 = ADVANCED_FACE('',(#406),#438,.T.);
#406 = FACE_BOUND('',#407,.F.);
#407 = EDGE_LOOP('',(#408,#414,#415,#436,#437));
#408 = ORIENTED_EDGE('',*,*,#409,.F.);
#409 = EDGE_CURVE('',#326,#80,#410,.T.);
#410 = LINE('',#411,#412);
#411 = CARTESIAN_POINT('',(21.,-9.5,1.));
#412 = VECTOR('',#413,1.);
#413 = DIRECTION('',(0.,0.,1.));
#414 = ORIENTED_EDGE('',*,*,#325,.T.);
#415 = ORIENTED_EDGE('',*,*,#416,.F.);
#416 = EDGE_CURVE('',#370,#317,#417,.T.);
#417 = B_SPLINE_CURVE_WITH_KNOTS('',5,(#418,#419,#420,#421,#422,#423,
    #424,#425,#426,#427,#428,#429,#430,#431,#432,#433,#434,#435),
  .UNSPECIFIED.,.F.,.F.,(6,4,4,4,6),(0.,0.890765289989,0.936339003495,
    0.958054843827,1.),.UNSPECIFIED.);
#418 = CARTESIAN_POINT('',(17.5,-13.,1.565685424949));
#419 = CARTESIAN_POINT('',(17.517338633054,-13.,1.467603304878));
#420 = CARTESIAN_POINT('',(17.530742021391,-12.99989272117,
    1.369140269784));
#421 = CARTESIAN_POINT('',(17.540350540994,-12.99977506882,
    1.270422513437));
#422 = CARTESIAN_POINT('',(17.546234514138,-12.9996952881,1.171560949066
    ));
#423 = CARTESIAN_POINT('',(17.548522803399,-12.99966363383,1.06759230491
    ));
#424 = CARTESIAN_POINT('',(17.548624475412,-12.99966222295,
    1.062531800991));
#425 = CARTESIAN_POINT('',(17.548716445495,-12.99966094339,
    1.057471193301));
#426 = CARTESIAN_POINT('',(17.548798715475,-12.99965979641,
    1.052410495501));
#427 = CARTESIAN_POINT('',(17.548905866975,-12.99965830008,
    1.044938266051));
#428 = CARTESIAN_POINT('',(17.548940503129,-12.99965781598,
    1.042361801155));
#429 = CARTESIAN_POINT('',(17.548975160883,-12.99965733114,1.03960955496
    ));
#430 = CARTESIAN_POINT('',(17.549009800864,-12.99965684612,
    1.036593625662));
#431 = CARTESIAN_POINT('',(17.549111167378,-12.99965542556,
    1.026495490173));
#432 = CARTESIAN_POINT('',(17.549161196462,-12.99965472286,
    1.019840628566));
#433 = CARTESIAN_POINT('',(17.549194468593,-12.99965425499,
    1.013187954521));
#434 = CARTESIAN_POINT('',(17.549210984897,-12.99965402275,
    1.006537025369));
#435 = CARTESIAN_POINT('',(17.549210744975,-12.99965402612,
    0.999883397646));
#436 = ORIENTED_EDGE('',*,*,#369,.T.);
#437 = ORIENTED_EDGE('',*,*,#79,.F.);
#438 = CYLINDRICAL_SURFACE('',#439,3.5);
#439 = AXIS2_PLACEMENT_3D('',#440,#441,#442);
#440 = CARTESIAN_POINT('',(17.5,-9.5,1.));
#441 = DIRECTION('',(0.,0.,1.));
#442 = DIRECTION('',(1.,0.,0.));
#443 = ADVANCED_FACE('',(#444,#455),#576,.T.);
#444 = FACE_BOUND('',#445,.T.);
#445 = EDGE_LOOP('',(#446,#447,#448,#449));
#446 = ORIENTED_EDGE('',*,*,#342,.T.);
#447 = ORIENTED_EDGE('',*,*,#395,.T.);
#448 = ORIENTED_EDGE('',*,*,#96,.F.);
#449 = ORIENTED_EDGE('',*,*,#450,.F.);
#450 = EDGE_CURVE('',#335,#89,#451,.T.);
#451 = LINE('',#452,#453);
#452 = CARTESIAN_POINT('',(21.,9.5,1.));
#453 = VECTOR('',#454,1.);
#454 = DIRECTION('',(0.,0.,1.));
#455 = FACE_BOUND('',#456,.T.);
#456 = EDGE_LOOP('',(#457,#481,#490,#512,#520,#542,#551,#570));
#457 = ORIENTED_EDGE('',*,*,#458,.T.);
#458 = EDGE_CURVE('',#459,#461,#463,.T.);
#459 = VERTEX_POINT('',#460);
#460 = CARTESIAN_POINT('',(20.973238616575,9.931987861327,4.01));
#461 = VERTEX_POINT('',#462);
#462 = CARTESIAN_POINT('',(20.866975073808,10.455760876138,4.5));
#463 = B_SPLINE_CURVE_WITH_KNOTS('',6,(#464,#465,#466,#467,#468,#469,
    #470,#471,#472,#473,#474,#475,#476,#477,#478,#479,#480),
  .UNSPECIFIED.,.F.,.F.,(7,5,5,7),(0.,0.224893084347,0.7175792951,1.),
  .UNSPECIFIED.);
#464 = CARTESIAN_POINT('',(20.973238616575,9.931987861327,4.01));
#465 = CARTESIAN_POINT('',(20.973238616575,9.931987861327,4.038191909712
    ));
#466 = CARTESIAN_POINT('',(20.972966711555,9.934173620449,4.066381869973
    ));
#467 = CARTESIAN_POINT('',(20.97242319304,9.938544627565,4.094412912635)
  );
#468 = CARTESIAN_POINT('',(20.971600063962,9.945077427082,4.122127564326
    ));
#469 = CARTESIAN_POINT('',(20.970482606439,9.953725565879,4.149368897407
    ));
#470 = CARTESIAN_POINT('',(20.965914536514,9.987847444781,4.234283516865
    ));
#471 = CARTESIAN_POINT('',(20.961268573363,10.021104517579,
    4.289594800363));
#472 = CARTESIAN_POINT('',(20.954904818706,10.063489802213,
    4.340303821485));
#473 = CARTESIAN_POINT('',(20.946492140893,10.113802141325,4.38485236684
    ));
#474 = CARTESIAN_POINT('',(20.93575440607,10.170449493912,4.421818790192
    ));
#475 = CARTESIAN_POINT('',(20.91518905871,10.266660783827,4.466206933425
    ));
#476 = CARTESIAN_POINT('',(20.906927922468,10.303202434095,
    4.479506642637));
#477 = CARTESIAN_POINT('',(20.897909514515,10.340818757368,
    4.489680724004));
#478 = CARTESIAN_POINT('',(20.888181024806,10.379073929428,
    4.496548195264));
#479 = CARTESIAN_POINT('',(20.877827826998,10.417528562612,4.5));
#480 = CARTESIAN_POINT('',(20.866975073808,10.455760876138,4.5));
#481 = ORIENTED_EDGE('',*,*,#482,.T.);
#482 = EDGE_CURVE('',#461,#483,#485,.T.);
#483 = VERTEX_POINT('',#484);
#484 = CARTESIAN_POINT('',(18.849074321705,12.729550816215,4.5));
#485 = CIRCLE('',#486,3.5);
#486 = AXIS2_PLACEMENT_3D('',#487,#488,#489);
#487 = CARTESIAN_POINT('',(17.5,9.5,4.5));
#488 = DIRECTION('',(0.,0.,1.));
#489 = DIRECTION('',(1.,0.,0.));
#490 = ORIENTED_EDGE('',*,*,#491,.F.);
#491 = EDGE_CURVE('',#492,#483,#494,.T.);
#492 = VERTEX_POINT('',#493);
#493 = CARTESIAN_POINT('',(18.261336429892,12.91619186237,4.01));
#494 = B_SPLINE_CURVE_WITH_KNOTS('',6,(#495,#496,#497,#498,#499,#500,
    #501,#502,#503,#504,#505,#506,#507,#508,#509,#510,#511),
  .UNSPECIFIED.,.F.,.F.,(7,5,5,7),(0.,0.295625782274,0.625731739223,1.),
  .UNSPECIFIED.);
#495 = CARTESIAN_POINT('',(18.261336429892,12.91619186237,4.01));
#496 = CARTESIAN_POINT('',(18.261336429892,12.91619186237,4.048345168481
    ));
#497 = CARTESIAN_POINT('',(18.266098628136,12.915130538253,
    4.086644494503));
#498 = CARTESIAN_POINT('',(18.27560168726,12.913012745989,4.124463227841
    ));
#499 = CARTESIAN_POINT('',(18.289670328501,12.909824961749,
    4.161369042508));
#500 = CARTESIAN_POINT('',(18.307973937636,12.905538648207,
    4.196929797081));
#501 = CARTESIAN_POINT('',(18.354654426948,12.894143251129,
    4.268491812466));
#502 = CARTESIAN_POINT('',(18.383969619619,12.886760393264,4.30407997431
    ));
#503 = CARTESIAN_POINT('',(18.41743261137,12.877973754437,4.337124026577
    ));
#504 = CARTESIAN_POINT('',(18.454439700956,12.867746800992,
    4.367251863638));
#505 = CARTESIAN_POINT('',(18.494346220044,12.856072446485,
    4.394117568239));
#506 = CARTESIAN_POINT('',(18.584268141857,12.828192447683,
    4.443840117312));
#507 = CARTESIAN_POINT('',(18.635040660098,12.811552374403,
    4.465745669377));
#508 = CARTESIAN_POINT('',(18.687848326866,12.793154016101,
    4.482647603925));
#509 = CARTESIAN_POINT('',(18.741720754295,12.773154258027,
    4.494159217219));
#510 = CARTESIAN_POINT('',(18.795745298019,12.751827851181,4.5));
#511 = CARTESIAN_POINT('',(18.849074321705,12.729550816215,4.5));
#512 = ORIENTED_EDGE('',*,*,#513,.F.);
#513 = EDGE_CURVE('',#514,#492,#516,.T.);
#514 = VERTEX_POINT('',#515);
#515 = CARTESIAN_POINT('',(18.261336429892,12.91619186237,3.99));
#516 = LINE('',#517,#518);
#517 = CARTESIAN_POINT('',(18.261336429892,12.91619186237,3.5));
#518 = VECTOR('',#519,1.);
#519 = DIRECTION('',(0.,0.,1.));
#520 = ORIENTED_EDGE('',*,*,#521,.T.);
#521 = EDGE_CURVE('',#514,#522,#524,.T.);
#522 = VERTEX_POINT('',#523);
#523 = CARTESIAN_POINT('',(18.849074321705,12.729550816215,3.5));
#524 = B_SPLINE_CURVE_WITH_KNOTS('',6,(#525,#526,#527,#528,#529,#530,
    #531,#532,#533,#534,#535,#536,#537,#538,#539,#540,#541),
  .UNSPECIFIED.,.F.,.F.,(7,5,5,7),(0.,0.295625782396,0.625731739501,1.),
  .UNSPECIFIED.);
#525 = CARTESIAN_POINT('',(18.261336429892,12.91619186237,3.99));
#526 = CARTESIAN_POINT('',(18.261336429892,12.91619186237,3.951654830831
    ));
#527 = CARTESIAN_POINT('',(18.266098628307,12.915130538215,
    3.913355504126));
#528 = CARTESIAN_POINT('',(18.275601687771,12.913012745876,3.87553677013
    ));
#529 = CARTESIAN_POINT('',(18.289670329508,12.909824961521,
    3.838630954853));
#530 = CARTESIAN_POINT('',(18.307973939273,12.905538647823,
    3.803070199739));
#531 = CARTESIAN_POINT('',(18.354654430137,12.894143250332,
    3.731508183394));
#532 = CARTESIAN_POINT('',(18.38396962376,12.886760392199,3.695920021151
    ));
#533 = CARTESIAN_POINT('',(18.41743261656,12.877973753049,3.662875968607
    ));
#534 = CARTESIAN_POINT('',(18.45443970726,12.867746799229,3.63274813141)
  );
#535 = CARTESIAN_POINT('',(18.494346227492,12.856072444294,
    3.605882426828));
#536 = CARTESIAN_POINT('',(18.584268151682,12.828192444502,
    3.556159878179));
#537 = CARTESIAN_POINT('',(18.635040671159,12.811552370647,
    3.534254326554));
#538 = CARTESIAN_POINT('',(18.687848339107,12.793154011726,3.51735239267
    ));
#539 = CARTESIAN_POINT('',(18.741720767605,12.77315425301,3.505840780279
    ));
#540 = CARTESIAN_POINT('',(18.79574531224,12.75182784553,3.499999998637)
  );
#541 = CARTESIAN_POINT('',(18.84907433664,12.729550809976,3.5));
#542 = ORIENTED_EDGE('',*,*,#543,.F.);
#543 = EDGE_CURVE('',#544,#522,#546,.T.);
#544 = VERTEX_POINT('',#545);
#545 = CARTESIAN_POINT('',(20.866975073808,10.455760876138,3.5));
#546 = CIRCLE('',#547,3.5);
#547 = AXIS2_PLACEMENT_3D('',#548,#549,#550);
#548 = CARTESIAN_POINT('',(17.5,9.5,3.5));
#549 = DIRECTION('',(-0.,0.,1.));
#550 = DIRECTION('',(0.,-1.,0.));
#551 = ORIENTED_EDGE('',*,*,#552,.F.);
#552 = EDGE_CURVE('',#553,#544,#555,.T.);
#553 = VERTEX_POINT('',#554);
#554 = CARTESIAN_POINT('',(20.973238616575,9.931987861327,3.99));
#555 = B_SPLINE_CURVE_WITH_KNOTS('',7,(#556,#557,#558,#559,#560,#561,
    #562,#563,#564,#565,#566,#567,#568,#569),.UNSPECIFIED.,.F.,.F.,(8,6,
    8),(0.,0.717500184208,1.),.UNSPECIFIED.);
#556 = CARTESIAN_POINT('',(20.973238616575,9.931987861327,3.99));
#557 = CARTESIAN_POINT('',(20.973238616575,9.931987861327,3.912761541247
    ));
#558 = CARTESIAN_POINT('',(20.971255090809,9.94793901492,3.835740793264)
  );
#559 = CARTESIAN_POINT('',(20.967305316055,9.979678326084,3.761701370793
    ));
#560 = CARTESIAN_POINT('',(20.961052091112,10.026236311758,
    3.693408939706));
#561 = CARTESIAN_POINT('',(20.951792726962,10.085706471933,
    3.633677140565));
#562 = CARTESIAN_POINT('',(20.93899510347,10.155288472238,3.585175914923
    ));
#563 = CARTESIAN_POINT('',(20.916259524839,10.261652799994,
    3.536103555333));
#564 = CARTESIAN_POINT('',(20.909288247109,10.29276196259,3.524293274281
    ));
#565 = CARTESIAN_POINT('',(20.901774546495,10.324697475965,
    3.514679596582));
#566 = CARTESIAN_POINT('',(20.893740161783,10.357213831108,
    3.507376074027));
#567 = CARTESIAN_POINT('',(20.88522296829,10.39006096748,3.502465574811)
  );
#568 = CARTESIAN_POINT('',(20.876277433685,10.422990321687,3.5));
#569 = CARTESIAN_POINT('',(20.866975073808,10.455760876138,3.5));
#570 = ORIENTED_EDGE('',*,*,#571,.T.);
#571 = EDGE_CURVE('',#553,#459,#572,.T.);
#572 = LINE('',#573,#574);
#573 = CARTESIAN_POINT('',(20.973238616575,9.931987861327,3.5));
#574 = VECTOR('',#575,1.);
#575 = DIRECTION('',(0.,0.,1.));
#576 = CYLINDRICAL_SURFACE('',#577,3.5);
#577 = AXIS2_PLACEMENT_3D('',#578,#579,#580);
#578 = CARTESIAN_POINT('',(17.5,9.5,1.));
#579 = DIRECTION('',(0.,0.,1.));
#580 = DIRECTION('',(1.,0.,0.));
#581 = ADVANCED_FACE('',(#582,#588),#656,.T.);
#582 = FACE_BOUND('',#583,.T.);
#583 = EDGE_LOOP('',(#584,#585,#586,#587));
#584 = ORIENTED_EDGE('',*,*,#88,.F.);
#585 = ORIENTED_EDGE('',*,*,#409,.F.);
#586 = ORIENTED_EDGE('',*,*,#334,.T.);
#587 = ORIENTED_EDGE('',*,*,#450,.T.);
#588 = FACE_BOUND('',#589,.T.);
#589 = EDGE_LOOP('',(#590,#601,#609,#617,#625,#634,#642,#650));
#590 = ORIENTED_EDGE('',*,*,#591,.T.);
#591 = EDGE_CURVE('',#592,#594,#596,.T.);
#592 = VERTEX_POINT('',#593);
#593 = CARTESIAN_POINT('',(21.,-2.9,1.604006420562));
#594 = VERTEX_POINT('',#595);
#595 = CARTESIAN_POINT('',(21.,-2.9,4.095993579438));
#596 = CIRCLE('',#597,1.25);
#597 = AXIS2_PLACEMENT_3D('',#598,#599,#600);
#598 = CARTESIAN_POINT('',(21.,-3.,2.85));
#599 = DIRECTION('',(-1.,-0.,-2.22044604925E-16));
#600 = DIRECTION('',(2.22044604925E-16,0.,-1.));
#601 = ORIENTED_EDGE('',*,*,#602,.T.);
#602 = EDGE_CURVE('',#594,#603,#605,.T.);
#603 = VERTEX_POINT('',#604);
#604 = CARTESIAN_POINT('',(21.,-2.9,4.1));
#605 = LINE('',#606,#607);
#606 = CARTESIAN_POINT('',(21.,-2.9,1.3));
#607 = VECTOR('',#608,1.);
#608 = DIRECTION('',(0.,0.,1.));
#609 = ORIENTED_EDGE('',*,*,#610,.F.);
#610 = EDGE_CURVE('',#611,#603,#613,.T.);
#611 = VERTEX_POINT('',#612);
#612 = CARTESIAN_POINT('',(21.,2.9,4.1));
#613 = LINE('',#614,#615);
#614 = CARTESIAN_POINT('',(21.,-7.95,4.1));
#615 = VECTOR('',#616,1.);
#616 = DIRECTION('',(0.,-1.,0.));
#617 = ORIENTED_EDGE('',*,*,#618,.F.);
#618 = EDGE_CURVE('',#619,#611,#621,.T.);
#619 = VERTEX_POINT('',#620);
#620 = CARTESIAN_POINT('',(21.,2.9,4.095993579438));
#621 = LINE('',#622,#623);
#622 = CARTESIAN_POINT('',(21.,2.9,1.3));
#623 = VECTOR('',#624,1.);
#624 = DIRECTION('',(0.,0.,1.));
#625 = ORIENTED_EDGE('',*,*,#626,.T.);
#626 = EDGE_CURVE('',#619,#627,#629,.T.);
#627 = VERTEX_POINT('',#628);
#628 = CARTESIAN_POINT('',(21.,2.9,1.604006420562));
#629 = CIRCLE('',#630,1.25);
#630 = AXIS2_PLACEMENT_3D('',#631,#632,#633);
#631 = CARTESIAN_POINT('',(21.,3.,2.85));
#632 = DIRECTION('',(-1.,-0.,-2.22044604925E-16));
#633 = DIRECTION('',(2.22044604925E-16,0.,-1.));
#634 = ORIENTED_EDGE('',*,*,#635,.F.);
#635 = EDGE_CURVE('',#636,#627,#638,.T.);
#636 = VERTEX_POINT('',#637);
#637 = CARTESIAN_POINT('',(21.,2.9,1.6));
#638 = LINE('',#639,#640);
#639 = CARTESIAN_POINT('',(21.,2.9,1.3));
#640 = VECTOR('',#641,1.);
#641 = DIRECTION('',(0.,0.,1.));
#642 = ORIENTED_EDGE('',*,*,#643,.F.);
#643 = EDGE_CURVE('',#644,#636,#646,.T.);
#644 = VERTEX_POINT('',#645);
#645 = CARTESIAN_POINT('',(21.,-2.9,1.6));
#646 = LINE('',#647,#648);
#647 = CARTESIAN_POINT('',(21.,-6.5,1.6));
#648 = VECTOR('',#649,1.);
#649 = DIRECTION('',(0.,1.,0.));
#650 = ORIENTED_EDGE('',*,*,#651,.T.);
#651 = EDGE_CURVE('',#644,#592,#652,.T.);
#652 = LINE('',#653,#654);
#653 = CARTESIAN_POINT('',(21.,-2.9,1.3));
#654 = VECTOR('',#655,1.);
#655 = DIRECTION('',(0.,0.,1.));
#656 = PLANE('',#657);
#657 = AXIS2_PLACEMENT_3D('',#658,#659,#660);
#658 = CARTESIAN_POINT('',(21.,-13.,1.));
#659 = DIRECTION('',(1.,0.,0.));
#660 = DIRECTION('',(0.,0.,1.));
#661 = ADVANCED_FACE('',(#662),#682,.F.);
#662 = FACE_BOUND('',#663,.F.);
#663 = EDGE_LOOP('',(#664,#673,#680,#681));
#664 = ORIENTED_EDGE('',*,*,#665,.T.);
#665 = EDGE_CURVE('',#666,#666,#668,.T.);
#666 = VERTEX_POINT('',#667);
#667 = CARTESIAN_POINT('',(18.107878402834,9.,5.));
#668 = CIRCLE('',#669,1.907878402834);
#669 = AXIS2_PLACEMENT_3D('',#670,#671,#672);
#670 = CARTESIAN_POINT('',(16.2,9.,5.));
#671 = DIRECTION('',(0.,0.,1.));
#672 = DIRECTION('',(1.,0.,-0.));
#673 = ORIENTED_EDGE('',*,*,#674,.T.);
#674 = EDGE_CURVE('',#666,#123,#675,.T.);
#675 = CIRCLE('',#676,2.);
#676 = AXIS2_PLACEMENT_3D('',#677,#678,#679);
#677 = CARTESIAN_POINT('',(16.2,9.,4.4));
#678 = DIRECTION('',(-2.449293598295E-16,-1.,0.));
#679 = DIRECTION('',(1.,-2.449293598295E-16,0.));
#680 = ORIENTED_EDGE('',*,*,#122,.F.);
#681 = ORIENTED_EDGE('',*,*,#674,.F.);
#682 = SPHERICAL_SURFACE('',#683,2.);
#683 = AXIS2_PLACEMENT_3D('',#684,#685,#686);
#684 = CARTESIAN_POINT('',(16.2,9.,4.4));
#685 = DIRECTION('',(0.,0.,1.));
#686 = DIRECTION('',(1.,0.,0.));
#687 = ADVANCED_FACE('',(#688),#719,.F.);
#688 = FACE_BOUND('',#689,.F.);
#689 = EDGE_LOOP('',(#690,#699,#700,#701,#702,#703,#712));
#690 = ORIENTED_EDGE('',*,*,#691,.F.);
#691 = EDGE_CURVE('',#200,#692,#694,.T.);
#692 = VERTEX_POINT('',#693);
#693 = CARTESIAN_POINT('',(13.487596159536,-12.1,2.5));
#694 = CIRCLE('',#695,1.705872210923);
#695 = AXIS2_PLACEMENT_3D('',#696,#697,#698);
#696 = CARTESIAN_POINT('',(14.3,-12.1,1.));
#697 = DIRECTION('',(0.,1.,0.));
#698 = DIRECTION('',(0.,0.,1.));
#699 = ORIENTED_EDGE('',*,*,#199,.T.);
#700 = ORIENTED_EDGE('',*,*,#377,.T.);
#701 = ORIENTED_EDGE('',*,*,#416,.T.);
#702 = ORIENTED_EDGE('',*,*,#316,.T.);
#703 = ORIENTED_EDGE('',*,*,#704,.F.);
#704 = EDGE_CURVE('',#705,#309,#707,.T.);
#705 = VERTEX_POINT('',#706);
#706 = CARTESIAN_POINT('',(15.112403840464,-12.1,2.5));
#707 = CIRCLE('',#708,1.705872210923);
#708 = AXIS2_PLACEMENT_3D('',#709,#710,#711);
#709 = CARTESIAN_POINT('',(14.3,-12.1,1.));
#710 = DIRECTION('',(0.,1.,0.));
#711 = DIRECTION('',(0.,0.,1.));
#712 = ORIENTED_EDGE('',*,*,#713,.T.);
#713 = EDGE_CURVE('',#705,#692,#714,.T.);
#714 = CIRCLE('',#715,4.769696007085);
#715 = AXIS2_PLACEMENT_3D('',#716,#717,#718);
#716 = CARTESIAN_POINT('',(14.3,-16.8,2.5));
#717 = DIRECTION('',(0.,0.,1.));
#718 = DIRECTION('',(1.,0.,0.));
#719 = SPHERICAL_SURFACE('',#720,5.);
#720 = AXIS2_PLACEMENT_3D('',#721,#722,#723);
#721 = CARTESIAN_POINT('',(14.3,-16.8,1.));
#722 = DIRECTION('',(0.,0.,1.));
#723 = DIRECTION('',(1.,0.,0.));
#724 = ADVANCED_FACE('',(#725),#743,.F.);
#725 = FACE_BOUND('',#726,.F.);
#726 = EDGE_LOOP('',(#727,#728,#729,#737));
#727 = ORIENTED_EDGE('',*,*,#704,.T.);
#728 = ORIENTED_EDGE('',*,*,#308,.T.);
#729 = ORIENTED_EDGE('',*,*,#730,.T.);
#730 = EDGE_CURVE('',#301,#731,#733,.T.);
#731 = VERTEX_POINT('',#732);
#732 = CARTESIAN_POINT('',(16.78,-12.1,2.5));
#733 = LINE('',#734,#735);
#734 = CARTESIAN_POINT('',(16.78,-12.1,1.));
#735 = VECTOR('',#736,1.);
#736 = DIRECTION('',(0.,0.,1.));
#737 = ORIENTED_EDGE('',*,*,#738,.F.);
#738 = EDGE_CURVE('',#705,#731,#739,.T.);
#739 = LINE('',#740,#741);
#740 = CARTESIAN_POINT('',(11.78,-12.1,2.5));
#741 = VECTOR('',#742,1.);
#742 = DIRECTION('',(1.,0.,0.));
#743 = PLANE('',#744);
#744 = AXIS2_PLACEMENT_3D('',#745,#746,#747);
#745 = CARTESIAN_POINT('',(16.012823082622,-12.1,1.087163080312));
#746 = DIRECTION('',(-0.,-1.,-0.));
#747 = DIRECTION('',(0.,0.,-1.));
#748 = ADVANCED_FACE('',(#749),#783,.F.);
#749 = FACE_BOUND('',#750,.F.);
#750 = EDGE_LOOP('',(#751,#752,#753,#761,#769,#777));
#751 = ORIENTED_EDGE('',*,*,#730,.F.);
#752 = ORIENTED_EDGE('',*,*,#300,.T.);
#753 = ORIENTED_EDGE('',*,*,#754,.F.);
#754 = EDGE_CURVE('',#755,#293,#757,.T.);
#755 = VERTEX_POINT('',#756);
#756 = CARTESIAN_POINT('',(16.78,-12.,1.6));
#757 = LINE('',#758,#759);
#758 = CARTESIAN_POINT('',(16.78,-12.,0.5));
#759 = VECTOR('',#760,1.);
#760 = DIRECTION('',(0.,0.,-1.));
#761 = ORIENTED_EDGE('',*,*,#762,.T.);
#762 = EDGE_CURVE('',#755,#763,#765,.T.);
#763 = VERTEX_POINT('',#764);
#764 = CARTESIAN_POINT('',(16.78,-11.48690475241,1.6));
#765 = LINE('',#766,#767);
#766 = CARTESIAN_POINT('',(16.78,-12.05,1.6));
#767 = VECTOR('',#768,1.);
#768 = DIRECTION('',(0.,1.,0.));
#769 = ORIENTED_EDGE('',*,*,#770,.T.);
#770 = EDGE_CURVE('',#763,#771,#773,.T.);
#771 = VERTEX_POINT('',#772);
#772 = CARTESIAN_POINT('',(16.78,-11.48690475241,2.5));
#773 = LINE('',#774,#775);
#774 = CARTESIAN_POINT('',(16.78,-11.48690475241,1.));
#775 = VECTOR('',#776,1.);
#776 = DIRECTION('',(0.,0.,1.));
#777 = ORIENTED_EDGE('',*,*,#778,.F.);
#778 = EDGE_CURVE('',#731,#771,#779,.T.);
#779 = LINE('',#780,#781);
#780 = CARTESIAN_POINT('',(16.78,-12.1,2.5));
#781 = VECTOR('',#782,1.);
#782 = DIRECTION('',(0.,1.,0.));
#783 = PLANE('',#784);
#784 = AXIS2_PLACEMENT_3D('',#785,#786,#787);
#785 = CARTESIAN_POINT('',(16.78,-12.1,1.));
#786 = DIRECTION('',(1.,0.,0.));
#787 = DIRECTION('',(0.,0.,1.));
#788 = ADVANCED_FACE('',(#789),#807,.T.);
#789 = FACE_BOUND('',#790,.T.);
#790 = EDGE_LOOP('',(#791,#799,#800,#801));
#791 = ORIENTED_EDGE('',*,*,#792,.F.);
#792 = EDGE_CURVE('',#284,#793,#795,.T.);
#793 = VERTEX_POINT('',#794);
#794 = CARTESIAN_POINT('',(17.,-12.,1.6));
#795 = LINE('',#796,#797);
#796 = CARTESIAN_POINT('',(17.,-12.,0.));
#797 = VECTOR('',#798,1.);
#798 = DIRECTION('',(0.,0.,1.));
#799 = ORIENTED_EDGE('',*,*,#292,.T.);
#800 = ORIENTED_EDGE('',*,*,#754,.F.);
#801 = ORIENTED_EDGE('',*,*,#802,.T.);
#802 = EDGE_CURVE('',#755,#793,#803,.T.);
#803 = LINE('',#804,#805);
#804 = CARTESIAN_POINT('',(-20.,-12.,1.6));
#805 = VECTOR('',#806,1.);
#806 = DIRECTION('',(1.,0.,0.));
#807 = PLANE('',#808);
#808 = AXIS2_PLACEMENT_3D('',#809,#810,#811);
#809 = CARTESIAN_POINT('',(-20.,-12.,0.));
#810 = DIRECTION('',(0.,1.,0.));
#811 = DIRECTION('',(0.,0.,1.));
#812 = ADVANCED_FACE('',(#813),#832,.F.);
#813 = FACE_BOUND('',#814,.T.);
#814 = EDGE_LOOP('',(#815,#823,#824,#825));
#815 = ORIENTED_EDGE('',*,*,#816,.F.);
#816 = EDGE_CURVE('',#276,#817,#819,.T.);
#817 = VERTEX_POINT('',#818);
#818 = CARTESIAN_POINT('',(20.,-9.,1.6));
#819 = LINE('',#820,#821);
#820 = CARTESIAN_POINT('',(20.,-9.,0.));
#821 = VECTOR('',#822,1.);
#822 = DIRECTION('',(0.,0.,1.));
#823 = ORIENTED_EDGE('',*,*,#283,.F.);
#824 = ORIENTED_EDGE('',*,*,#792,.T.);
#825 = ORIENTED_EDGE('',*,*,#826,.F.);
#826 = EDGE_CURVE('',#817,#793,#827,.T.);
#827 = CIRCLE('',#828,3.);
#828 = AXIS2_PLACEMENT_3D('',#829,#830,#831);
#829 = CARTESIAN_POINT('',(17.,-9.,1.6));
#830 = DIRECTION('',(-0.,-0.,-1.));
#831 = DIRECTION('',(0.,-1.,0.));
#832 = CYLINDRICAL_SURFACE('',#833,3.);
#833 = AXIS2_PLACEMENT_3D('',#834,#835,#836);
#834 = CARTESIAN_POINT('',(17.,-9.,0.));
#835 = DIRECTION('',(0.,0.,1.));
#836 = DIRECTION('',(1.,0.,0.));
#837 = ADVANCED_FACE('',(#838),#864,.F.);
#838 = FACE_BOUND('',#839,.F.);
#839 = EDGE_LOOP('',(#840,#848,#849,#857));
#840 = ORIENTED_EDGE('',*,*,#841,.F.);
#841 = EDGE_CURVE('',#267,#842,#844,.T.);
#842 = VERTEX_POINT('',#843);
#843 = CARTESIAN_POINT('',(20.,9.,1.6));
#844 = LINE('',#845,#846);
#845 = CARTESIAN_POINT('',(20.,9.,0.));
#846 = VECTOR('',#847,1.);
#847 = DIRECTION('',(0.,0.,1.));
#848 = ORIENTED_EDGE('',*,*,#266,.T.);
#849 = ORIENTED_EDGE('',*,*,#850,.T.);
#850 = EDGE_CURVE('',#259,#851,#853,.T.);
#851 = VERTEX_POINT('',#852);
#852 = CARTESIAN_POINT('',(17.,12.,1.6));
#853 = LINE('',#854,#855);
#854 = CARTESIAN_POINT('',(17.,12.,0.));
#855 = VECTOR('',#856,1.);
#856 = DIRECTION('',(0.,0.,1.));
#857 = ORIENTED_EDGE('',*,*,#858,.F.);
#858 = EDGE_CURVE('',#842,#851,#859,.T.);
#859 = CIRCLE('',#860,3.);
#860 = AXIS2_PLACEMENT_3D('',#861,#862,#863);
#861 = CARTESIAN_POINT('',(17.,9.,1.6));
#862 = DIRECTION('',(-0.,0.,1.));
#863 = DIRECTION('',(0.,-1.,0.));
#864 = CYLINDRICAL_SURFACE('',#865,3.);
#865 = AXIS2_PLACEMENT_3D('',#866,#867,#868);
#866 = CARTESIAN_POINT('',(17.,9.,0.));
#867 = DIRECTION('',(0.,0.,1.));
#868 = DIRECTION('',(1.,0.,0.));
#869 = ADVANCED_FACE('',(#870),#888,.F.);
#870 = FACE_BOUND('',#871,.F.);
#871 = EDGE_LOOP('',(#872,#873,#881,#887));
#872 = ORIENTED_EDGE('',*,*,#258,.T.);
#873 = ORIENTED_EDGE('',*,*,#874,.T.);
#874 = EDGE_CURVE('',#250,#875,#877,.T.);
#875 = VERTEX_POINT('',#876);
#876 = CARTESIAN_POINT('',(-17.,12.,1.6));
#877 = LINE('',#878,#879);
#878 = CARTESIAN_POINT('',(-17.,12.,0.));
#879 = VECTOR('',#880,1.);
#880 = DIRECTION('',(0.,0.,1.));
#881 = ORIENTED_EDGE('',*,*,#882,.T.);
#882 = EDGE_CURVE('',#875,#851,#883,.T.);
#883 = LINE('',#884,#885);
#884 = CARTESIAN_POINT('',(-20.,12.,1.6));
#885 = VECTOR('',#886,1.);
#886 = DIRECTION('',(1.,0.,0.));
#887 = ORIENTED_EDGE('',*,*,#850,.F.);
#888 = PLANE('',#889);
#889 = AXIS2_PLACEMENT_3D('',#890,#891,#892);
#890 = CARTESIAN_POINT('',(-20.,12.,0.));
#891 = DIRECTION('',(0.,1.,0.));
#892 = DIRECTION('',(0.,0.,1.));
#893 = ADVANCED_FACE('',(#894),#913,.F.);
#894 = FACE_BOUND('',#895,.T.);
#895 = EDGE_LOOP('',(#896,#904,#905,#906));
#896 = ORIENTED_EDGE('',*,*,#897,.F.);
#897 = EDGE_CURVE('',#242,#898,#900,.T.);
#898 = VERTEX_POINT('',#899);
#899 = CARTESIAN_POINT('',(-20.,9.,1.6));
#900 = LINE('',#901,#902);
#901 = CARTESIAN_POINT('',(-20.,9.,0.));
#902 = VECTOR('',#903,1.);
#903 = DIRECTION('',(0.,0.,1.));
#904 = ORIENTED_EDGE('',*,*,#249,.F.);
#905 = ORIENTED_EDGE('',*,*,#874,.T.);
#906 = ORIENTED_EDGE('',*,*,#907,.F.);
#907 = EDGE_CURVE('',#898,#875,#908,.T.);
#908 = CIRCLE('',#909,3.);
#909 = AXIS2_PLACEMENT_3D('',#910,#911,#912);
#910 = CARTESIAN_POINT('',(-17.,9.,1.6));
#911 = DIRECTION('',(-0.,-0.,-1.));
#912 = DIRECTION('',(0.,-1.,0.));
#913 = CYLINDRICAL_SURFACE('',#914,3.);
#914 = AXIS2_PLACEMENT_3D('',#915,#916,#917);
#915 = CARTESIAN_POINT('',(-17.,9.,0.));
#916 = DIRECTION('',(0.,0.,1.));
#917 = DIRECTION('',(-1.,0.,0.));
#918 = ADVANCED_FACE('',(#919),#937,.T.);
#919 = FACE_BOUND('',#920,.T.);
#920 = EDGE_LOOP('',(#921,#929,#935,#936));
#921 = ORIENTED_EDGE('',*,*,#922,.F.);
#922 = EDGE_CURVE('',#923,#898,#925,.T.);
#923 = VERTEX_POINT('',#924);
#924 = CARTESIAN_POINT('',(-20.,-9.,1.6));
#925 = LINE('',#926,#927);
#926 = CARTESIAN_POINT('',(-20.,-12.,1.6));
#927 = VECTOR('',#928,1.);
#928 = DIRECTION('',(0.,1.,0.));
#929 = ORIENTED_EDGE('',*,*,#930,.F.);
#930 = EDGE_CURVE('',#233,#923,#931,.T.);
#931 = LINE('',#932,#933);
#932 = CARTESIAN_POINT('',(-20.,-9.,0.));
#933 = VECTOR('',#934,1.);
#934 = DIRECTION('',(0.,0.,1.));
#935 = ORIENTED_EDGE('',*,*,#241,.T.);
#936 = ORIENTED_EDGE('',*,*,#897,.T.);
#937 = PLANE('',#938);
#938 = AXIS2_PLACEMENT_3D('',#939,#940,#941);
#939 = CARTESIAN_POINT('',(-20.,-12.,0.));
#940 = DIRECTION('',(1.,0.,0.));
#941 = DIRECTION('',(0.,0.,1.));
#942 = ADVANCED_FACE('',(#943),#962,.F.);
#943 = FACE_BOUND('',#944,.F.);
#944 = EDGE_LOOP('',(#945,#946,#947,#955));
#945 = ORIENTED_EDGE('',*,*,#930,.F.);
#946 = ORIENTED_EDGE('',*,*,#232,.T.);
#947 = ORIENTED_EDGE('',*,*,#948,.T.);
#948 = EDGE_CURVE('',#225,#949,#951,.T.);
#949 = VERTEX_POINT('',#950);
#950 = CARTESIAN_POINT('',(-17.,-12.,1.6));
#951 = LINE('',#952,#953);
#952 = CARTESIAN_POINT('',(-17.,-12.,0.));
#953 = VECTOR('',#954,1.);
#954 = DIRECTION('',(0.,0.,1.));
#955 = ORIENTED_EDGE('',*,*,#956,.F.);
#956 = EDGE_CURVE('',#923,#949,#957,.T.);
#957 = CIRCLE('',#958,3.);
#958 = AXIS2_PLACEMENT_3D('',#959,#960,#961);
#959 = CARTESIAN_POINT('',(-17.,-9.,1.6));
#960 = DIRECTION('',(-0.,0.,1.));
#961 = DIRECTION('',(0.,-1.,0.));
#962 = CYLINDRICAL_SURFACE('',#963,3.);
#963 = AXIS2_PLACEMENT_3D('',#964,#965,#966);
#964 = CARTESIAN_POINT('',(-17.,-9.,0.));
#965 = DIRECTION('',(0.,0.,1.));
#966 = DIRECTION('',(-1.,0.,0.));
#967 = ADVANCED_FACE('',(#968),#986,.T.);
#968 = FACE_BOUND('',#969,.T.);
#969 = EDGE_LOOP('',(#970,#978,#984,#985));
#970 = ORIENTED_EDGE('',*,*,#971,.T.);
#971 = EDGE_CURVE('',#949,#972,#974,.T.);
#972 = VERTEX_POINT('',#973);
#973 = CARTESIAN_POINT('',(11.78,-12.,1.6));
#974 = LINE('',#975,#976);
#975 = CARTESIAN_POINT('',(-20.,-12.,1.6));
#976 = VECTOR('',#977,1.);
#977 = DIRECTION('',(1.,0.,0.));
#978 = ORIENTED_EDGE('',*,*,#979,.T.);
#979 = EDGE_CURVE('',#972,#217,#980,.T.);
#980 = LINE('',#981,#982);
#981 = CARTESIAN_POINT('',(11.78,-12.,0.5));
#982 = VECTOR('',#983,1.);
#983 = DIRECTION('',(0.,0.,-1.));
#984 = ORIENTED_EDGE('',*,*,#224,.T.);
#985 = ORIENTED_EDGE('',*,*,#948,.T.);
#986 = PLANE('',#987);
#987 = AXIS2_PLACEMENT_3D('',#988,#989,#990);
#988 = CARTESIAN_POINT('',(-20.,-12.,0.));
#989 = DIRECTION('',(0.,1.,0.));
#990 = DIRECTION('',(0.,0.,1.));
#991 = ADVANCED_FACE('',(#992),#1026,.T.);
#992 = FACE_BOUND('',#993,.T.);
#993 = EDGE_LOOP('',(#994,#1002,#1003,#1004,#1012,#1020));
#994 = ORIENTED_EDGE('',*,*,#995,.F.);
#995 = EDGE_CURVE('',#209,#996,#998,.T.);
#996 = VERTEX_POINT('',#997);
#997 = CARTESIAN_POINT('',(11.78,-12.1,2.5));
#998 = LINE('',#999,#1000);
#999 = CARTESIAN_POINT('',(11.78,-12.1,1.));
#1000 = VECTOR('',#1001,1.);
#1001 = DIRECTION('',(0.,0.,1.));
#1002 = ORIENTED_EDGE('',*,*,#216,.T.);
#1003 = ORIENTED_EDGE('',*,*,#979,.F.);
#1004 = ORIENTED_EDGE('',*,*,#1005,.T.);
#1005 = EDGE_CURVE('',#972,#1006,#1008,.T.);
#1006 = VERTEX_POINT('',#1007);
#1007 = CARTESIAN_POINT('',(11.78,-11.5,1.6));
#1008 = LINE('',#1009,#1010);
#1009 = CARTESIAN_POINT('',(11.78,-12.05,1.6));
#1010 = VECTOR('',#1011,1.);
#1011 = DIRECTION('',(0.,1.,0.));
#1012 = ORIENTED_EDGE('',*,*,#1013,.F.);
#1013 = EDGE_CURVE('',#1014,#1006,#1016,.T.);
#1014 = VERTEX_POINT('',#1015);
#1015 = CARTESIAN_POINT('',(11.78,-11.5,2.5));
#1016 = LINE('',#1017,#1018);
#1017 = CARTESIAN_POINT('',(11.78,-11.5,1.));
#1018 = VECTOR('',#1019,1.);
#1019 = DIRECTION('',(0.,0.,-1.));
#1020 = ORIENTED_EDGE('',*,*,#1021,.F.);
#1021 = EDGE_CURVE('',#996,#1014,#1022,.T.);
#1022 = LINE('',#1023,#1024);
#1023 = CARTESIAN_POINT('',(11.78,-12.1,2.5));
#1024 = VECTOR('',#1025,1.);
#1025 = DIRECTION('',(0.,1.,0.));
#1026 = PLANE('',#1027);
#1027 = AXIS2_PLACEMENT_3D('',#1028,#1029,#1030);
#1028 = CARTESIAN_POINT('',(11.78,-12.1,1.));
#1029 = DIRECTION('',(1.,0.,0.));
#1030 = DIRECTION('',(0.,0.,1.));
#1031 = ADVANCED_FACE('',(#1032),#1043,.F.);
#1032 = FACE_BOUND('',#1033,.F.);
#1033 = EDGE_LOOP('',(#1034,#1035,#1036,#1042));
#1034 = ORIENTED_EDGE('',*,*,#208,.T.);
#1035 = ORIENTED_EDGE('',*,*,#691,.T.);
#1036 = ORIENTED_EDGE('',*,*,#1037,.F.);
#1037 = EDGE_CURVE('',#996,#692,#1038,.T.);
#1038 = LINE('',#1039,#1040);
#1039 = CARTESIAN_POINT('',(11.78,-12.1,2.5));
#1040 = VECTOR('',#1041,1.);
#1041 = DIRECTION('',(1.,0.,0.));
#1042 = ORIENTED_EDGE('',*,*,#995,.F.);
#1043 = PLANE('',#1044);
#1044 = AXIS2_PLACEMENT_3D('',#1045,#1046,#1047);
#1045 = CARTESIAN_POINT('',(12.574954414016,-12.1,1.092433473321));
#1046 = DIRECTION('',(-0.,-1.,-0.));
#1047 = DIRECTION('',(0.,0.,-1.));
#1048 = ADVANCED_FACE('',(#1049),#1085,.F.);
#1049 = FACE_BOUND('',#1050,.T.);
#1050 = EDGE_LOOP('',(#1051,#1059,#1078,#1084));
#1051 = ORIENTED_EDGE('',*,*,#1052,.F.);
#1052 = EDGE_CURVE('',#1053,#459,#1055,.T.);
#1053 = VERTEX_POINT('',#1054);
#1054 = CARTESIAN_POINT('',(19.475424707065,8.883207271053,4.01));
#1055 = LINE('',#1056,#1057);
#1056 = CARTESIAN_POINT('',(17.5,7.5,4.01));
#1057 = VECTOR('',#1058,1.);
#1058 = DIRECTION('',(0.819152044289,0.573576436351,0.));
#1059 = ORIENTED_EDGE('',*,*,#1060,.T.);
#1060 = EDGE_CURVE('',#1053,#1061,#1063,.T.);
#1061 = VERTEX_POINT('',#1062);
#1062 = CARTESIAN_POINT('',(19.361343466926,9.401506275232,4.5));
#1063 = B_SPLINE_CURVE_WITH_KNOTS('',5,(#1064,#1065,#1066,#1067,#1068,
    #1069,#1070,#1071,#1072,#1073,#1074,#1075,#1076,#1077),
  .UNSPECIFIED.,.F.,.F.,(6,4,4,6),(0.,0.286049939414,0.71773180919,1.),
  .UNSPECIFIED.);
#1064 = CARTESIAN_POINT('',(19.475424707065,8.883207271053,4.01));
#1065 = CARTESIAN_POINT('',(19.475424707065,8.883207271053,
    4.053034092425));
#1066 = CARTESIAN_POINT('',(19.47474301471,8.888497425377,4.096056554633
    ));
#1067 = CARTESIAN_POINT('',(19.473382580648,8.899072688635,
    4.138426505889));
#1068 = CARTESIAN_POINT('',(19.47126452958,8.914742978965,4.179495807813
    ));
#1069 = CARTESIAN_POINT('',(19.463765031437,8.965901203447,
    4.277692592887));
#1070 = CARTESIAN_POINT('',(19.457267845091,9.007442321476,
    4.332400160517));
#1071 = CARTESIAN_POINT('',(19.448391852535,9.058534910678,
    4.380629043273));
#1072 = CARTESIAN_POINT('',(19.436572045588,9.11709283881,4.420366946534
    ));
#1073 = CARTESIAN_POINT('',(19.412083728412,9.222211404139,
    4.469431889452));
#1074 = CARTESIAN_POINT('',(19.401122197723,9.265922644786,
    4.484530220241));
#1075 = CARTESIAN_POINT('',(19.388896233006,9.310959437198,
    4.494818013106));
#1076 = CARTESIAN_POINT('',(19.375545374644,9.356430010115,4.5));
#1077 = CARTESIAN_POINT('',(19.361343466926,9.401506275232,4.5));
#1078 = ORIENTED_EDGE('',*,*,#1079,.T.);
#1079 = EDGE_CURVE('',#1061,#461,#1080,.T.);
#1080 = LINE('',#1081,#1082);
#1081 = CARTESIAN_POINT('',(17.218947546188,7.901384501702,4.5));
#1082 = VECTOR('',#1083,1.);
#1083 = DIRECTION('',(0.819152044289,0.573576436351,0.));
#1084 = ORIENTED_EDGE('',*,*,#458,.F.);
#1085 = CYLINDRICAL_SURFACE('',#1086,0.49);
#1086 = AXIS2_PLACEMENT_3D('',#1087,#1088,#1089);
#1087 = CARTESIAN_POINT('',(17.218947546188,7.901384501702,4.01));
#1088 = DIRECTION('',(0.819152044289,0.573576436351,0.));
#1089 = DIRECTION('',(0.573576436351,-0.819152044289,0.));
#1090 = ADVANCED_FACE('',(#1091),#1109,.T.);
#1091 = FACE_BOUND('',#1092,.T.);
#1092 = EDGE_LOOP('',(#1093,#1094,#1102,#1108));
#1093 = ORIENTED_EDGE('',*,*,#571,.F.);
#1094 = ORIENTED_EDGE('',*,*,#1095,.F.);
#1095 = EDGE_CURVE('',#1096,#553,#1098,.T.);
#1096 = VERTEX_POINT('',#1097);
#1097 = CARTESIAN_POINT('',(19.475424707065,8.883207271053,3.99));
#1098 = LINE('',#1099,#1100);
#1099 = CARTESIAN_POINT('',(17.5,7.5,3.99));
#1100 = VECTOR('',#1101,1.);
#1101 = DIRECTION('',(0.819152044289,0.573576436351,0.));
#1102 = ORIENTED_EDGE('',*,*,#1103,.T.);
#1103 = EDGE_CURVE('',#1096,#1053,#1104,.T.);
#1104 = LINE('',#1105,#1106);
#1105 = CARTESIAN_POINT('',(19.475424707065,8.883207271053,1.));
#1106 = VECTOR('',#1107,1.);
#1107 = DIRECTION('',(0.,0.,1.));
#1108 = ORIENTED_EDGE('',*,*,#1052,.T.);
#1109 = PLANE('',#1110);
#1110 = AXIS2_PLACEMENT_3D('',#1111,#1112,#1113);
#1111 = CARTESIAN_POINT('',(17.5,7.5,3.5));
#1112 = DIRECTION('',(-0.573576436351,0.819152044289,0.));
#1113 = DIRECTION('',(0.,0.,1.));
#1114 = ADVANCED_FACE('',(#1115),#1144,.F.);
#1115 = FACE_BOUND('',#1116,.F.);
#1116 = EDGE_LOOP('',(#1117,#1118,#1137,#1143));
#1117 = ORIENTED_EDGE('',*,*,#1095,.F.);
#1118 = ORIENTED_EDGE('',*,*,#1119,.T.);
#1119 = EDGE_CURVE('',#1096,#1120,#1122,.T.);
#1120 = VERTEX_POINT('',#1121);
#1121 = CARTESIAN_POINT('',(19.361343466926,9.401506275232,3.5));
#1122 = B_SPLINE_CURVE_WITH_KNOTS('',5,(#1123,#1124,#1125,#1126,#1127,
    #1128,#1129,#1130,#1131,#1132,#1133,#1134,#1135,#1136),
  .UNSPECIFIED.,.F.,.F.,(6,4,4,6),(0.,0.286049743334,0.717730116078,1.),
  .UNSPECIFIED.);
#1123 = CARTESIAN_POINT('',(19.475424707065,8.883207271053,3.99));
#1124 = CARTESIAN_POINT('',(19.475424707065,8.883207271053,
    3.946966079855));
#1125 = CARTESIAN_POINT('',(19.474743026055,8.88849738505,3.903943458216
    ));
#1126 = CARTESIAN_POINT('',(19.473382573486,8.899072721906,
    3.861573298307));
#1127 = CARTESIAN_POINT('',(19.471264511713,8.914743100841,3.82050395825
    ));
#1128 = CARTESIAN_POINT('',(19.46376507095,8.96590093391,3.722307924482)
  );
#1129 = CARTESIAN_POINT('',(19.457267860609,9.007442373824,
    3.667599314169));
#1130 = CARTESIAN_POINT('',(19.448391670392,9.058535866449,
    3.619370258008));
#1131 = CARTESIAN_POINT('',(19.436571905427,9.117093440463,3.57963277264
    ));
#1132 = CARTESIAN_POINT('',(19.412083728412,9.222211404139,
    3.530568110548));
#1133 = CARTESIAN_POINT('',(19.401122197723,9.265922644786,
    3.515469779759));
#1134 = CARTESIAN_POINT('',(19.388896233006,9.310959437198,
    3.505181986894));
#1135 = CARTESIAN_POINT('',(19.375545374644,9.356430010115,3.5));
#1136 = CARTESIAN_POINT('',(19.361343466926,9.401506275232,3.5));
#1137 = ORIENTED_EDGE('',*,*,#1138,.T.);
#1138 = EDGE_CURVE('',#1120,#544,#1139,.T.);
#1139 = LINE('',#1140,#1141);
#1140 = CARTESIAN_POINT('',(17.218947546188,7.901384501702,3.5));
#1141 = VECTOR('',#1142,1.);
#1142 = DIRECTION('',(0.819152044289,0.573576436351,0.));
#1143 = ORIENTED_EDGE('',*,*,#552,.F.);
#1144 = CYLINDRICAL_SURFACE('',#1145,0.49);
#1145 = AXIS2_PLACEMENT_3D('',#1146,#1147,#1148);
#1146 = CARTESIAN_POINT('',(17.218947546188,7.901384501702,3.99));
#1147 = DIRECTION('',(0.819152044289,0.573576436351,0.));
#1148 = DIRECTION('',(0.573576436351,-0.819152044289,0.));
#1149 = ADVANCED_FACE('',(#1150),#1169,.F.);
#1150 = FACE_BOUND('',#1151,.F.);
#1151 = EDGE_LOOP('',(#1152,#1161,#1167,#1168));
#1152 = ORIENTED_EDGE('',*,*,#1153,.T.);
#1153 = EDGE_CURVE('',#1120,#1154,#1156,.T.);
#1154 = VERTEX_POINT('',#1155);
#1155 = CARTESIAN_POINT('',(17.026577127644,11.453424542568,3.5));
#1156 = CIRCLE('',#1157,3.);
#1157 = AXIS2_PLACEMENT_3D('',#1158,#1159,#1160);
#1158 = CARTESIAN_POINT('',(16.5,8.5,3.5));
#1159 = DIRECTION('',(0.,0.,1.));
#1160 = DIRECTION('',(1.,0.,-0.));
#1161 = ORIENTED_EDGE('',*,*,#1162,.T.);
#1162 = EDGE_CURVE('',#1154,#522,#1163,.T.);
#1163 = LINE('',#1164,#1165);
#1164 = CARTESIAN_POINT('',(15.486746708408,10.375223675454,3.5));
#1165 = VECTOR('',#1166,1.);
#1166 = DIRECTION('',(0.819152044289,0.573576436351,0.));
#1167 = ORIENTED_EDGE('',*,*,#543,.F.);
#1168 = ORIENTED_EDGE('',*,*,#1138,.F.);
#1169 = PLANE('',#1170);
#1170 = AXIS2_PLACEMENT_3D('',#1171,#1172,#1173);
#1171 = CARTESIAN_POINT('',(17.862898745321,10.184678733225,3.5));
#1172 = DIRECTION('',(-0.,-0.,-1.));
#1173 = DIRECTION('',(-1.,0.,0.));
#1174 = ADVANCED_FACE('',(#1175),#1209,.F.);
#1175 = FACE_BOUND('',#1176,.T.);
#1176 = EDGE_LOOP('',(#1177,#1185,#1194,#1207,#1208));
#1177 = ORIENTED_EDGE('',*,*,#1178,.F.);
#1178 = EDGE_CURVE('',#1179,#514,#1181,.T.);
#1179 = VERTEX_POINT('',#1180);
#1180 = CARTESIAN_POINT('',(16.238804844484,11.5,3.99));
#1181 = LINE('',#1182,#1183);
#1182 = CARTESIAN_POINT('',(15.205694254596,10.776608177156,3.99));
#1183 = VECTOR('',#1184,1.);
#1184 = DIRECTION('',(0.819152044289,0.573576436351,0.));
#1185 = ORIENTED_EDGE('',*,*,#1186,.F.);
#1186 = EDGE_CURVE('',#1187,#1179,#1189,.T.);
#1187 = VERTEX_POINT('',#1188);
#1188 = CARTESIAN_POINT('',(16.5,11.5,3.63733241043));
#1189 = ELLIPSE('',#1190,0.854288929854,0.49);
#1190 = AXIS2_PLACEMENT_3D('',#1191,#1192,#1193);
#1191 = CARTESIAN_POINT('',(17.093093774338,11.5,3.99));
#1192 = DIRECTION('',(0.,1.,0.));
#1193 = DIRECTION('',(1.,-0.,0.));
#1194 = ORIENTED_EDGE('',*,*,#1195,.T.);
#1195 = EDGE_CURVE('',#1187,#1154,#1196,.T.);
#1196 = B_SPLINE_CURVE_WITH_KNOTS('',5,(#1197,#1198,#1199,#1200,#1201,
    #1202,#1203,#1204,#1205,#1206),.UNSPECIFIED.,.F.,.F.,(6,4,6),(0.,
    0.32079368476,1.),.UNSPECIFIED.);
#1197 = CARTESIAN_POINT('',(16.5,11.5,3.63733241043));
#1198 = CARTESIAN_POINT('',(16.530141430623,11.5,3.62065593453));
#1199 = CARTESIAN_POINT('',(16.561358745116,11.499621465516,
    3.605130169191));
#1200 = CARTESIAN_POINT('',(16.593449208752,11.498810283423,
    3.590779939809));
#1201 = CARTESIAN_POINT('',(16.626253999668,11.497528693273,
    3.577632637916));
#1202 = CARTESIAN_POINT('',(16.730352670898,11.491981110778,
    3.540509575343));
#1203 = CARTESIAN_POINT('',(16.803797180132,11.485975110401,
    3.520811724449));
#1204 = CARTESIAN_POINT('',(16.878467952393,11.477475324218,
    3.507126475192));
#1205 = CARTESIAN_POINT('',(16.953127180343,11.466520209363,
    3.499999998525));
#1206 = CARTESIAN_POINT('',(17.02657714665,11.453424539179,3.5));
#1207 = ORIENTED_EDGE('',*,*,#1162,.T.);
#1208 = ORIENTED_EDGE('',*,*,#521,.F.);
#1209 = CYLINDRICAL_SURFACE('',#1210,0.49);
#1210 = AXIS2_PLACEMENT_3D('',#1211,#1212,#1213);
#1211 = CARTESIAN_POINT('',(15.486746708408,10.375223675454,3.99));
#1212 = DIRECTION('',(0.819152044289,0.573576436351,0.));
#1213 = DIRECTION('',(-0.573576436351,0.819152044289,0.));
#1214 = ADVANCED_FACE('',(#1215),#1233,.F.);
#1215 = FACE_BOUND('',#1216,.F.);
#1216 = EDGE_LOOP('',(#1217,#1218,#1219,#1227));
#1217 = ORIENTED_EDGE('',*,*,#513,.F.);
#1218 = ORIENTED_EDGE('',*,*,#1178,.F.);
#1219 = ORIENTED_EDGE('',*,*,#1220,.T.);
#1220 = EDGE_CURVE('',#1179,#1221,#1223,.T.);
#1221 = VERTEX_POINT('',#1222);
#1222 = CARTESIAN_POINT('',(16.238804844484,11.5,4.01));
#1223 = LINE('',#1224,#1225);
#1224 = CARTESIAN_POINT('',(16.238804844484,11.5,2.25));
#1225 = VECTOR('',#1226,1.);
#1226 = DIRECTION('',(0.,-0.,1.));
#1227 = ORIENTED_EDGE('',*,*,#1228,.T.);
#1228 = EDGE_CURVE('',#1221,#492,#1229,.T.);
#1229 = LINE('',#1230,#1231);
#1230 = CARTESIAN_POINT('',(15.205694254596,10.776608177156,4.01));
#1231 = VECTOR('',#1232,1.);
#1232 = DIRECTION('',(0.819152044289,0.573576436351,0.));
#1233 = PLANE('',#1234);
#1234 = AXIS2_PLACEMENT_3D('',#1235,#1236,#1237);
#1235 = CARTESIAN_POINT('',(15.205694254596,10.776608177156,3.5));
#1236 = DIRECTION('',(-0.573576436351,0.819152044289,0.));
#1237 = DIRECTION('',(0.,0.,1.));
#1238 = ADVANCED_FACE('',(#1239),#1273,.F.);
#1239 = FACE_BOUND('',#1240,.F.);
#1240 = EDGE_LOOP('',(#1241,#1242,#1251,#1266,#1272));
#1241 = ORIENTED_EDGE('',*,*,#1228,.F.);
#1242 = ORIENTED_EDGE('',*,*,#1243,.T.);
#1243 = EDGE_CURVE('',#1221,#1244,#1246,.T.);
#1244 = VERTEX_POINT('',#1245);
#1245 = CARTESIAN_POINT('',(16.5,11.5,4.36266758957));
#1246 = ELLIPSE('',#1247,0.854288929854,0.49);
#1247 = AXIS2_PLACEMENT_3D('',#1248,#1249,#1250);
#1248 = CARTESIAN_POINT('',(17.093093774338,11.5,4.01));
#1249 = DIRECTION('',(0.,1.,0.));
#1250 = DIRECTION('',(1.,-0.,0.));
#1251 = ORIENTED_EDGE('',*,*,#1252,.T.);
#1252 = EDGE_CURVE('',#1244,#1253,#1255,.T.);
#1253 = VERTEX_POINT('',#1254);
#1254 = CARTESIAN_POINT('',(17.026577127644,11.453424542568,4.5));
#1255 = B_SPLINE_CURVE_WITH_KNOTS('',5,(#1256,#1257,#1258,#1259,#1260,
    #1261,#1262,#1263,#1264,#1265),.UNSPECIFIED.,.F.,.F.,(6,4,6),(0.,
    0.320793690308,1.),.UNSPECIFIED.);
#1256 = CARTESIAN_POINT('',(16.5,11.5,4.36266758957));
#1257 = CARTESIAN_POINT('',(16.530141430086,11.5,4.379344065173));
#1258 = CARTESIAN_POINT('',(16.561358744004,11.499621465529,
    4.394869830256));
#1259 = CARTESIAN_POINT('',(16.593449207037,11.498810283467,
    4.409220059424));
#1260 = CARTESIAN_POINT('',(16.62625399733,11.497528693365,
    4.422367361147));
#1261 = CARTESIAN_POINT('',(16.730352664777,11.491981111175,
    4.459490422692));
#1262 = CARTESIAN_POINT('',(16.803797170644,11.485975111237,
    4.479188273165));
#1263 = CARTESIAN_POINT('',(16.878467939524,11.477475325724,
    4.49287352256));
#1264 = CARTESIAN_POINT('',(16.953127164247,11.466520211746,4.5));
#1265 = CARTESIAN_POINT('',(17.026577127644,11.453424542568,4.5));
#1266 = ORIENTED_EDGE('',*,*,#1267,.T.);
#1267 = EDGE_CURVE('',#1253,#483,#1268,.T.);
#1268 = LINE('',#1269,#1270);
#1269 = CARTESIAN_POINT('',(15.486746708408,10.375223675454,4.5));
#1270 = VECTOR('',#1271,1.);
#1271 = DIRECTION('',(0.819152044289,0.573576436351,0.));
#1272 = ORIENTED_EDGE('',*,*,#491,.F.);
#1273 = CYLINDRICAL_SURFACE('',#1274,0.49);
#1274 = AXIS2_PLACEMENT_3D('',#1275,#1276,#1277);
#1275 = CARTESIAN_POINT('',(15.486746708408,10.375223675454,4.01));
#1276 = DIRECTION('',(0.819152044289,0.573576436351,0.));
#1277 = DIRECTION('',(-0.573576436351,0.819152044289,0.));
#1278 = ADVANCED_FACE('',(#1279),#1291,.F.);
#1279 = FACE_BOUND('',#1280,.F.);
#1280 = EDGE_LOOP('',(#1281,#1288,#1289,#1290));
#1281 = ORIENTED_EDGE('',*,*,#1282,.F.);
#1282 = EDGE_CURVE('',#1061,#1253,#1283,.T.);
#1283 = CIRCLE('',#1284,3.);
#1284 = AXIS2_PLACEMENT_3D('',#1285,#1286,#1287);
#1285 = CARTESIAN_POINT('',(16.5,8.5,4.5));
#1286 = DIRECTION('',(0.,0.,1.));
#1287 = DIRECTION('',(1.,0.,-0.));
#1288 = ORIENTED_EDGE('',*,*,#1079,.T.);
#1289 = ORIENTED_EDGE('',*,*,#482,.T.);
#1290 = ORIENTED_EDGE('',*,*,#1267,.F.);
#1291 = PLANE('',#1292);
#1292 = AXIS2_PLACEMENT_3D('',#1293,#1294,#1295);
#1293 = CARTESIAN_POINT('',(17.5,7.5,4.5));
#1294 = DIRECTION('',(0.,0.,1.));
#1295 = DIRECTION('',(0.819152044289,0.573576436351,0.));
#1296 = ADVANCED_FACE('',(#1297),#1349,.F.);
#1297 = FACE_BOUND('',#1298,.T.);
#1298 = EDGE_LOOP('',(#1299,#1300,#1308,#1317,#1326,#1334,#1343));
#1299 = ORIENTED_EDGE('',*,*,#591,.F.);
#1300 = ORIENTED_EDGE('',*,*,#1301,.T.);
#1301 = EDGE_CURVE('',#592,#1302,#1304,.T.);
#1302 = VERTEX_POINT('',#1303);
#1303 = CARTESIAN_POINT('',(20.,-2.9,1.604006420562));
#1304 = LINE('',#1305,#1306);
#1305 = CARTESIAN_POINT('',(14.,-2.9,1.604006420562));
#1306 = VECTOR('',#1307,1.);
#1307 = DIRECTION('',(-1.,-0.,-2.22044604925E-16));
#1308 = ORIENTED_EDGE('',*,*,#1309,.T.);
#1309 = EDGE_CURVE('',#1302,#1310,#1312,.T.);
#1310 = VERTEX_POINT('',#1311);
#1311 = CARTESIAN_POINT('',(20.,-3.,1.6));
#1312 = CIRCLE('',#1313,1.25);
#1313 = AXIS2_PLACEMENT_3D('',#1314,#1315,#1316);
#1314 = CARTESIAN_POINT('',(20.,-3.,2.85));
#1315 = DIRECTION('',(-1.,-0.,-2.22044604925E-16));
#1316 = DIRECTION('',(2.22044604925E-16,0.,-1.));
#1317 = ORIENTED_EDGE('',*,*,#1318,.T.);
#1318 = EDGE_CURVE('',#1310,#1319,#1321,.T.);
#1319 = VERTEX_POINT('',#1320);
#1320 = CARTESIAN_POINT('',(20.,-4.24,2.692202661619));
#1321 = CIRCLE('',#1322,1.25);
#1322 = AXIS2_PLACEMENT_3D('',#1323,#1324,#1325);
#1323 = CARTESIAN_POINT('',(20.,-3.,2.85));
#1324 = DIRECTION('',(-1.,-0.,-2.22044604925E-16));
#1325 = DIRECTION('',(2.22044604925E-16,0.,-1.));
#1326 = ORIENTED_EDGE('',*,*,#1327,.T.);
#1327 = EDGE_CURVE('',#1319,#1328,#1330,.T.);
#1328 = VERTEX_POINT('',#1329);
#1329 = CARTESIAN_POINT('',(19.5,-4.24,2.692202661619));
#1330 = LINE('',#1331,#1332);
#1331 = CARTESIAN_POINT('',(14.,-4.24,2.692202661619));
#1332 = VECTOR('',#1333,1.);
#1333 = DIRECTION('',(-1.,-0.,-2.22044604925E-16));
#1334 = ORIENTED_EDGE('',*,*,#1335,.T.);
#1335 = EDGE_CURVE('',#1328,#1336,#1338,.T.);
#1336 = VERTEX_POINT('',#1337);
#1337 = CARTESIAN_POINT('',(19.5,-2.9,4.095993579438));
#1338 = CIRCLE('',#1339,1.25);
#1339 = AXIS2_PLACEMENT_3D('',#1340,#1341,#1342);
#1340 = CARTESIAN_POINT('',(19.5,-3.,2.85));
#1341 = DIRECTION('',(-1.,-0.,-2.22044604925E-16));
#1342 = DIRECTION('',(2.22044604925E-16,0.,-1.));
#1343 = ORIENTED_EDGE('',*,*,#1344,.F.);
#1344 = EDGE_CURVE('',#594,#1336,#1345,.T.);
#1345 = LINE('',#1346,#1347);
#1346 = CARTESIAN_POINT('',(14.,-2.9,4.095993579438));
#1347 = VECTOR('',#1348,1.);
#1348 = DIRECTION('',(-1.,-0.,-2.22044604925E-16));
#1349 = CYLINDRICAL_SURFACE('',#1350,1.25);
#1350 = AXIS2_PLACEMENT_3D('',#1351,#1352,#1353);
#1351 = CARTESIAN_POINT('',(14.,-3.,2.85));
#1352 = DIRECTION('',(-1.,-0.,-2.22044604925E-16));
#1353 = DIRECTION('',(2.22044604925E-16,0.,-1.));
#1354 = ADVANCED_FACE('',(#1355),#1373,.T.);
#1355 = FACE_BOUND('',#1356,.T.);
#1356 = EDGE_LOOP('',(#1357,#1365,#1371,#1372));
#1357 = ORIENTED_EDGE('',*,*,#1358,.F.);
#1358 = EDGE_CURVE('',#1359,#644,#1361,.T.);
#1359 = VERTEX_POINT('',#1360);
#1360 = CARTESIAN_POINT('',(20.,-2.9,1.6));
#1361 = LINE('',#1362,#1363);
#1362 = CARTESIAN_POINT('',(14.,-2.9,1.6));
#1363 = VECTOR('',#1364,1.);
#1364 = DIRECTION('',(1.,0.,0.));
#1365 = ORIENTED_EDGE('',*,*,#1366,.F.);
#1366 = EDGE_CURVE('',#1302,#1359,#1367,.T.);
#1367 = LINE('',#1368,#1369);
#1368 = CARTESIAN_POINT('',(20.,-2.9,1.6));
#1369 = VECTOR('',#1370,1.);
#1370 = DIRECTION('',(0.,0.,-1.));
#1371 = ORIENTED_EDGE('',*,*,#1301,.F.);
#1372 = ORIENTED_EDGE('',*,*,#651,.F.);
#1373 = PLANE('',#1374);
#1374 = AXIS2_PLACEMENT_3D('',#1375,#1376,#1377);
#1375 = CARTESIAN_POINT('',(14.,-2.9,1.6));
#1376 = DIRECTION('',(0.,1.,0.));
#1377 = DIRECTION('',(0.,0.,1.));
#1378 = ADVANCED_FACE('',(#1379),#1397,.F.);
#1379 = FACE_BOUND('',#1380,.F.);
#1380 = EDGE_LOOP('',(#1381,#1389,#1395,#1396));
#1381 = ORIENTED_EDGE('',*,*,#1382,.T.);
#1382 = EDGE_CURVE('',#1359,#1383,#1385,.T.);
#1383 = VERTEX_POINT('',#1384);
#1384 = CARTESIAN_POINT('',(20.,2.9,1.6));
#1385 = LINE('',#1386,#1387);
#1386 = CARTESIAN_POINT('',(20.,-12.,1.6));
#1387 = VECTOR('',#1388,1.);
#1388 = DIRECTION('',(0.,1.,0.));
#1389 = ORIENTED_EDGE('',*,*,#1390,.T.);
#1390 = EDGE_CURVE('',#1383,#636,#1391,.T.);
#1391 = LINE('',#1392,#1393);
#1392 = CARTESIAN_POINT('',(14.,2.9,1.6));
#1393 = VECTOR('',#1394,1.);
#1394 = DIRECTION('',(1.,0.,0.));
#1395 = ORIENTED_EDGE('',*,*,#643,.F.);
#1396 = ORIENTED_EDGE('',*,*,#1358,.F.);
#1397 = PLANE('',#1398);
#1398 = AXIS2_PLACEMENT_3D('',#1399,#1400,#1401);
#1399 = CARTESIAN_POINT('',(20.553016453382,-8.118632721208E-17,1.6));
#1400 = DIRECTION('',(-0.,-0.,-1.));
#1401 = DIRECTION('',(-1.,0.,0.));
#1402 = ADVANCED_FACE('',(#1403),#1421,.F.);
#1403 = FACE_BOUND('',#1404,.F.);
#1404 = EDGE_LOOP('',(#1405,#1406,#1414,#1420));
#1405 = ORIENTED_EDGE('',*,*,#1390,.F.);
#1406 = ORIENTED_EDGE('',*,*,#1407,.F.);
#1407 = EDGE_CURVE('',#1408,#1383,#1410,.T.);
#1408 = VERTEX_POINT('',#1409);
#1409 = CARTESIAN_POINT('',(20.,2.9,1.604006420562));
#1410 = LINE('',#1411,#1412);
#1411 = CARTESIAN_POINT('',(20.,2.9,1.6));
#1412 = VECTOR('',#1413,1.);
#1413 = DIRECTION('',(0.,0.,-1.));
#1414 = ORIENTED_EDGE('',*,*,#1415,.F.);
#1415 = EDGE_CURVE('',#627,#1408,#1416,.T.);
#1416 = LINE('',#1417,#1418);
#1417 = CARTESIAN_POINT('',(14.,2.9,1.604006420562));
#1418 = VECTOR('',#1419,1.);
#1419 = DIRECTION('',(-1.,-0.,-2.22044604925E-16));
#1420 = ORIENTED_EDGE('',*,*,#635,.F.);
#1421 = PLANE('',#1422);
#1422 = AXIS2_PLACEMENT_3D('',#1423,#1424,#1425);
#1423 = CARTESIAN_POINT('',(14.,2.9,1.6));
#1424 = DIRECTION('',(0.,1.,0.));
#1425 = DIRECTION('',(0.,0.,1.));
#1426 = ADVANCED_FACE('',(#1427),#1472,.F.);
#1427 = FACE_BOUND('',#1428,.T.);
#1428 = EDGE_LOOP('',(#1429,#1440,#1448,#1457,#1464,#1465,#1466));
#1429 = ORIENTED_EDGE('',*,*,#1430,.T.);
#1430 = EDGE_CURVE('',#1431,#1433,#1435,.T.);
#1431 = VERTEX_POINT('',#1432);
#1432 = CARTESIAN_POINT('',(19.5,2.9,4.095993579438));
#1433 = VERTEX_POINT('',#1434);
#1434 = CARTESIAN_POINT('',(19.5,4.24,2.692202661619));
#1435 = CIRCLE('',#1436,1.25);
#1436 = AXIS2_PLACEMENT_3D('',#1437,#1438,#1439);
#1437 = CARTESIAN_POINT('',(19.5,3.,2.85));
#1438 = DIRECTION('',(-1.,-0.,-2.22044604925E-16));
#1439 = DIRECTION('',(2.22044604925E-16,0.,-1.));
#1440 = ORIENTED_EDGE('',*,*,#1441,.F.);
#1441 = EDGE_CURVE('',#1442,#1433,#1444,.T.);
#1442 = VERTEX_POINT('',#1443);
#1443 = CARTESIAN_POINT('',(20.,4.24,2.692202661619));
#1444 = LINE('',#1445,#1446);
#1445 = CARTESIAN_POINT('',(14.,4.24,2.692202661619));
#1446 = VECTOR('',#1447,1.);
#1447 = DIRECTION('',(-1.,-0.,-2.22044604925E-16));
#1448 = ORIENTED_EDGE('',*,*,#1449,.T.);
#1449 = EDGE_CURVE('',#1442,#1450,#1452,.T.);
#1450 = VERTEX_POINT('',#1451);
#1451 = CARTESIAN_POINT('',(20.,3.,1.6));
#1452 = CIRCLE('',#1453,1.25);
#1453 = AXIS2_PLACEMENT_3D('',#1454,#1455,#1456);
#1454 = CARTESIAN_POINT('',(20.,3.,2.85));
#1455 = DIRECTION('',(-1.,-0.,-2.22044604925E-16));
#1456 = DIRECTION('',(2.22044604925E-16,0.,-1.));
#1457 = ORIENTED_EDGE('',*,*,#1458,.T.);
#1458 = EDGE_CURVE('',#1450,#1408,#1459,.T.);
#1459 = CIRCLE('',#1460,1.25);
#1460 = AXIS2_PLACEMENT_3D('',#1461,#1462,#1463);
#1461 = CARTESIAN_POINT('',(20.,3.,2.85));
#1462 = DIRECTION('',(-1.,-0.,-2.22044604925E-16));
#1463 = DIRECTION('',(2.22044604925E-16,0.,-1.));
#1464 = ORIENTED_EDGE('',*,*,#1415,.F.);
#1465 = ORIENTED_EDGE('',*,*,#626,.F.);
#1466 = ORIENTED_EDGE('',*,*,#1467,.T.);
#1467 = EDGE_CURVE('',#619,#1431,#1468,.T.);
#1468 = LINE('',#1469,#1470);
#1469 = CARTESIAN_POINT('',(14.,2.9,4.095993579438));
#1470 = VECTOR('',#1471,1.);
#1471 = DIRECTION('',(-1.,-0.,-2.22044604925E-16));
#1472 = CYLINDRICAL_SURFACE('',#1473,1.25);
#1473 = AXIS2_PLACEMENT_3D('',#1474,#1475,#1476);
#1474 = CARTESIAN_POINT('',(14.,3.,2.85));
#1475 = DIRECTION('',(-1.,-0.,-2.22044604925E-16));
#1476 = DIRECTION('',(2.22044604925E-16,0.,-1.));
#1477 = ADVANCED_FACE('',(#1478),#1496,.F.);
#1478 = FACE_BOUND('',#1479,.F.);
#1479 = EDGE_LOOP('',(#1480,#1481,#1482,#1490));
#1480 = ORIENTED_EDGE('',*,*,#618,.F.);
#1481 = ORIENTED_EDGE('',*,*,#1467,.T.);
#1482 = ORIENTED_EDGE('',*,*,#1483,.T.);
#1483 = EDGE_CURVE('',#1431,#1484,#1486,.T.);
#1484 = VERTEX_POINT('',#1485);
#1485 = CARTESIAN_POINT('',(19.5,2.9,4.1));
#1486 = LINE('',#1487,#1488);
#1487 = CARTESIAN_POINT('',(19.5,2.9,1.3));
#1488 = VECTOR('',#1489,1.);
#1489 = DIRECTION('',(0.,0.,1.));
#1490 = ORIENTED_EDGE('',*,*,#1491,.T.);
#1491 = EDGE_CURVE('',#1484,#611,#1492,.T.);
#1492 = LINE('',#1493,#1494);
#1493 = CARTESIAN_POINT('',(14.,2.9,4.1));
#1494 = VECTOR('',#1495,1.);
#1495 = DIRECTION('',(1.,0.,0.));
#1496 = PLANE('',#1497);
#1497 = AXIS2_PLACEMENT_3D('',#1498,#1499,#1500);
#1498 = CARTESIAN_POINT('',(14.,2.9,1.6));
#1499 = DIRECTION('',(0.,1.,0.));
#1500 = DIRECTION('',(0.,0.,1.));
#1501 = ADVANCED_FACE('',(#1502),#1520,.F.);
#1502 = FACE_BOUND('',#1503,.F.);
#1503 = EDGE_LOOP('',(#1504,#1505,#1513,#1519));
#1504 = ORIENTED_EDGE('',*,*,#1491,.F.);
#1505 = ORIENTED_EDGE('',*,*,#1506,.T.);
#1506 = EDGE_CURVE('',#1484,#1507,#1509,.T.);
#1507 = VERTEX_POINT('',#1508);
#1508 = CARTESIAN_POINT('',(19.5,-2.9,4.1));
#1509 = LINE('',#1510,#1511);
#1510 = CARTESIAN_POINT('',(19.5,-7.2,4.1));
#1511 = VECTOR('',#1512,1.);
#1512 = DIRECTION('',(0.,-1.,0.));
#1513 = ORIENTED_EDGE('',*,*,#1514,.T.);
#1514 = EDGE_CURVE('',#1507,#603,#1515,.T.);
#1515 = LINE('',#1516,#1517);
#1516 = CARTESIAN_POINT('',(14.,-2.9,4.1));
#1517 = VECTOR('',#1518,1.);
#1518 = DIRECTION('',(1.,0.,0.));
#1519 = ORIENTED_EDGE('',*,*,#610,.F.);
#1520 = PLANE('',#1521);
#1521 = AXIS2_PLACEMENT_3D('',#1522,#1523,#1524);
#1522 = CARTESIAN_POINT('',(14.,-2.9,4.1));
#1523 = DIRECTION('',(0.,0.,1.));
#1524 = DIRECTION('',(1.,0.,0.));
#1525 = ADVANCED_FACE('',(#1526),#1537,.T.);
#1526 = FACE_BOUND('',#1527,.T.);
#1527 = EDGE_LOOP('',(#1528,#1529,#1530,#1536));
#1528 = ORIENTED_EDGE('',*,*,#602,.F.);
#1529 = ORIENTED_EDGE('',*,*,#1344,.T.);
#1530 = ORIENTED_EDGE('',*,*,#1531,.T.);
#1531 = EDGE_CURVE('',#1336,#1507,#1532,.T.);
#1532 = LINE('',#1533,#1534);
#1533 = CARTESIAN_POINT('',(19.5,-2.9,1.3));
#1534 = VECTOR('',#1535,1.);
#1535 = DIRECTION('',(0.,0.,1.));
#1536 = ORIENTED_EDGE('',*,*,#1514,.T.);
#1537 = PLANE('',#1538);
#1538 = AXIS2_PLACEMENT_3D('',#1539,#1540,#1541);
#1539 = CARTESIAN_POINT('',(14.,-2.9,1.6));
#1540 = DIRECTION('',(0.,1.,0.));
#1541 = DIRECTION('',(0.,0.,1.));
#1542 = ADVANCED_FACE('',(#1543,#1613),#1616,.F.);
#1543 = FACE_BOUND('',#1544,.F.);
#1544 = EDGE_LOOP('',(#1545,#1555,#1564,#1572,#1581,#1589,#1598,#1606));
#1545 = ORIENTED_EDGE('',*,*,#1546,.F.);
#1546 = EDGE_CURVE('',#1547,#1549,#1551,.T.);
#1547 = VERTEX_POINT('',#1548);
#1548 = CARTESIAN_POINT('',(-19.5,-8.5,5.));
#1549 = VERTEX_POINT('',#1550);
#1550 = CARTESIAN_POINT('',(-19.5,8.5,5.));
#1551 = LINE('',#1552,#1553);
#1552 = CARTESIAN_POINT('',(-19.5,-11.5,5.));
#1553 = VECTOR('',#1554,1.);
#1554 = DIRECTION('',(0.,1.,0.));
#1555 = ORIENTED_EDGE('',*,*,#1556,.T.);
#1556 = EDGE_CURVE('',#1547,#1557,#1559,.T.);
#1557 = VERTEX_POINT('',#1558);
#1558 = CARTESIAN_POINT('',(-16.5,-11.5,5.));
#1559 = CIRCLE('',#1560,3.);
#1560 = AXIS2_PLACEMENT_3D('',#1561,#1562,#1563);
#1561 = CARTESIAN_POINT('',(-16.5,-8.5,5.));
#1562 = DIRECTION('',(-0.,0.,1.));
#1563 = DIRECTION('',(0.,-1.,0.));
#1564 = ORIENTED_EDGE('',*,*,#1565,.T.);
#1565 = EDGE_CURVE('',#1557,#1566,#1568,.T.);
#1566 = VERTEX_POINT('',#1567);
#1567 = CARTESIAN_POINT('',(16.5,-11.5,5.));
#1568 = LINE('',#1569,#1570);
#1569 = CARTESIAN_POINT('',(-19.5,-11.5,5.));
#1570 = VECTOR('',#1571,1.);
#1571 = DIRECTION('',(1.,0.,0.));
#1572 = ORIENTED_EDGE('',*,*,#1573,.F.);
#1573 = EDGE_CURVE('',#1574,#1566,#1576,.T.);
#1574 = VERTEX_POINT('',#1575);
#1575 = CARTESIAN_POINT('',(19.5,-8.5,5.));
#1576 = CIRCLE('',#1577,3.);
#1577 = AXIS2_PLACEMENT_3D('',#1578,#1579,#1580);
#1578 = CARTESIAN_POINT('',(16.5,-8.5,5.));
#1579 = DIRECTION('',(-0.,-0.,-1.));
#1580 = DIRECTION('',(0.,-1.,0.));
#1581 = ORIENTED_EDGE('',*,*,#1582,.T.);
#1582 = EDGE_CURVE('',#1574,#1583,#1585,.T.);
#1583 = VERTEX_POINT('',#1584);
#1584 = CARTESIAN_POINT('',(19.5,8.5,5.));
#1585 = LINE('',#1586,#1587);
#1586 = CARTESIAN_POINT('',(19.5,-11.5,5.));
#1587 = VECTOR('',#1588,1.);
#1588 = DIRECTION('',(0.,1.,0.));
#1589 = ORIENTED_EDGE('',*,*,#1590,.T.);
#1590 = EDGE_CURVE('',#1583,#1591,#1593,.T.);
#1591 = VERTEX_POINT('',#1592);
#1592 = CARTESIAN_POINT('',(16.5,11.5,5.));
#1593 = CIRCLE('',#1594,3.);
#1594 = AXIS2_PLACEMENT_3D('',#1595,#1596,#1597);
#1595 = CARTESIAN_POINT('',(16.5,8.5,5.));
#1596 = DIRECTION('',(-0.,0.,1.));
#1597 = DIRECTION('',(0.,-1.,0.));
#1598 = ORIENTED_EDGE('',*,*,#1599,.F.);
#1599 = EDGE_CURVE('',#1600,#1591,#1602,.T.);
#1600 = VERTEX_POINT('',#1601);
#1601 = CARTESIAN_POINT('',(-16.5,11.5,5.));
#1602 = LINE('',#1603,#1604);
#1603 = CARTESIAN_POINT('',(-19.5,11.5,5.));
#1604 = VECTOR('',#1605,1.);
#1605 = DIRECTION('',(1.,0.,0.));
#1606 = ORIENTED_EDGE('',*,*,#1607,.F.);
#1607 = EDGE_CURVE('',#1549,#1600,#1608,.T.);
#1608 = CIRCLE('',#1609,3.);
#1609 = AXIS2_PLACEMENT_3D('',#1610,#1611,#1612);
#1610 = CARTESIAN_POINT('',(-16.5,8.5,5.));
#1611 = DIRECTION('',(-0.,-0.,-1.));
#1612 = DIRECTION('',(0.,-1.,0.));
#1613 = FACE_BOUND('',#1614,.F.);
#1614 = EDGE_LOOP('',(#1615));
#1615 = ORIENTED_EDGE('',*,*,#665,.F.);
#1616 = PLANE('',#1617);
#1617 = AXIS2_PLACEMENT_3D('',#1618,#1619,#1620);
#1618 = CARTESIAN_POINT('',(-19.5,-11.5,5.));
#1619 = DIRECTION('',(0.,0.,1.));
#1620 = DIRECTION('',(1.,0.,0.));
#1621 = ADVANCED_FACE('',(#1622),#1644,.F.);
#1622 = FACE_BOUND('',#1623,.F.);
#1623 = EDGE_LOOP('',(#1624,#1625,#1634,#1640,#1641,#1642,#1643));
#1624 = ORIENTED_EDGE('',*,*,#778,.T.);
#1625 = ORIENTED_EDGE('',*,*,#1626,.F.);
#1626 = EDGE_CURVE('',#1627,#771,#1629,.T.);
#1627 = VERTEX_POINT('',#1628);
#1628 = CARTESIAN_POINT('',(16.5,-11.5,2.5));
#1629 = CIRCLE('',#1630,3.);
#1630 = AXIS2_PLACEMENT_3D('',#1631,#1632,#1633);
#1631 = CARTESIAN_POINT('',(16.5,-8.5,2.5));
#1632 = DIRECTION('',(0.,0.,1.));
#1633 = DIRECTION('',(1.,0.,-0.));
#1634 = ORIENTED_EDGE('',*,*,#1635,.F.);
#1635 = EDGE_CURVE('',#1014,#1627,#1636,.T.);
#1636 = LINE('',#1637,#1638);
#1637 = CARTESIAN_POINT('',(-3.86,-11.5,2.5));
#1638 = VECTOR('',#1639,1.);
#1639 = DIRECTION('',(1.,0.,0.));
#1640 = ORIENTED_EDGE('',*,*,#1021,.F.);
#1641 = ORIENTED_EDGE('',*,*,#1037,.T.);
#1642 = ORIENTED_EDGE('',*,*,#713,.F.);
#1643 = ORIENTED_EDGE('',*,*,#738,.T.);
#1644 = PLANE('',#1645);
#1645 = AXIS2_PLACEMENT_3D('',#1646,#1647,#1648);
#1646 = CARTESIAN_POINT('',(11.78,-12.1,2.5));
#1647 = DIRECTION('',(0.,0.,1.));
#1648 = DIRECTION('',(1.,0.,0.));
#1649 = ADVANCED_FACE('',(#1650),#1676,.F.);
#1650 = FACE_BOUND('',#1651,.T.);
#1651 = EDGE_LOOP('',(#1652,#1660,#1667,#1668,#1669,#1675));
#1652 = ORIENTED_EDGE('',*,*,#1653,.F.);
#1653 = EDGE_CURVE('',#1654,#1574,#1656,.T.);
#1654 = VERTEX_POINT('',#1655);
#1655 = CARTESIAN_POINT('',(19.5,-8.5,1.6));
#1656 = LINE('',#1657,#1658);
#1657 = CARTESIAN_POINT('',(19.5,-8.5,1.));
#1658 = VECTOR('',#1659,1.);
#1659 = DIRECTION('',(0.,0.,1.));
#1660 = ORIENTED_EDGE('',*,*,#1661,.F.);
#1661 = EDGE_CURVE('',#763,#1654,#1662,.T.);
#1662 = CIRCLE('',#1663,3.);
#1663 = AXIS2_PLACEMENT_3D('',#1664,#1665,#1666);
#1664 = CARTESIAN_POINT('',(16.5,-8.5,1.6));
#1665 = DIRECTION('',(0.,0.,1.));
#1666 = DIRECTION('',(1.,0.,0.));
#1667 = ORIENTED_EDGE('',*,*,#770,.T.);
#1668 = ORIENTED_EDGE('',*,*,#1626,.F.);
#1669 = ORIENTED_EDGE('',*,*,#1670,.T.);
#1670 = EDGE_CURVE('',#1627,#1566,#1671,.T.);
#1671 = LINE('',#1672,#1673);
#1672 = CARTESIAN_POINT('',(16.5,-11.5,1.));
#1673 = VECTOR('',#1674,1.);
#1674 = DIRECTION('',(0.,0.,1.));
#1675 = ORIENTED_EDGE('',*,*,#1573,.F.);
#1676 = CYLINDRICAL_SURFACE('',#1677,3.);
#1677 = AXIS2_PLACEMENT_3D('',#1678,#1679,#1680);
#1678 = CARTESIAN_POINT('',(16.5,-8.5,1.));
#1679 = DIRECTION('',(0.,0.,1.));
#1680 = DIRECTION('',(1.,0.,0.));
#1681 = ADVANCED_FACE('',(#1682),#1710,.F.);
#1682 = FACE_BOUND('',#1683,.F.);
#1683 = EDGE_LOOP('',(#1684,#1685,#1686,#1687,#1695,#1703,#1709));
#1684 = ORIENTED_EDGE('',*,*,#762,.F.);
#1685 = ORIENTED_EDGE('',*,*,#802,.T.);
#1686 = ORIENTED_EDGE('',*,*,#826,.F.);
#1687 = ORIENTED_EDGE('',*,*,#1688,.T.);
#1688 = EDGE_CURVE('',#817,#1689,#1691,.T.);
#1689 = VERTEX_POINT('',#1690);
#1690 = CARTESIAN_POINT('',(20.,-4.24,1.6));
#1691 = LINE('',#1692,#1693);
#1692 = CARTESIAN_POINT('',(20.,-12.,1.6));
#1693 = VECTOR('',#1694,1.);
#1694 = DIRECTION('',(0.,1.,0.));
#1695 = ORIENTED_EDGE('',*,*,#1696,.F.);
#1696 = EDGE_CURVE('',#1697,#1689,#1699,.T.);
#1697 = VERTEX_POINT('',#1698);
#1698 = CARTESIAN_POINT('',(19.5,-4.24,1.6));
#1699 = LINE('',#1700,#1701);
#1700 = CARTESIAN_POINT('',(19.,-4.24,1.6));
#1701 = VECTOR('',#1702,1.);
#1702 = DIRECTION('',(1.,0.,0.));
#1703 = ORIENTED_EDGE('',*,*,#1704,.T.);
#1704 = EDGE_CURVE('',#1697,#1654,#1705,.T.);
#1705 = LINE('',#1706,#1707);
#1706 = CARTESIAN_POINT('',(19.5,-11.75,1.6));
#1707 = VECTOR('',#1708,1.);
#1708 = DIRECTION('',(0.,-1.,0.));
#1709 = ORIENTED_EDGE('',*,*,#1661,.F.);
#1710 = PLANE('',#1711);
#1711 = AXIS2_PLACEMENT_3D('',#1712,#1713,#1714);
#1712 = CARTESIAN_POINT('',(-20.,-12.,1.6));
#1713 = DIRECTION('',(0.,0.,1.));
#1714 = DIRECTION('',(1.,0.,0.));
#1715 = ADVANCED_FACE('',(#1716),#1798,.F.);
#1716 = FACE_BOUND('',#1717,.F.);
#1717 = EDGE_LOOP('',(#1718,#1719,#1720,#1721,#1722,#1730,#1739,#1747,
    #1756,#1764,#1773,#1781,#1789,#1795,#1796,#1797));
#1718 = ORIENTED_EDGE('',*,*,#922,.F.);
#1719 = ORIENTED_EDGE('',*,*,#956,.T.);
#1720 = ORIENTED_EDGE('',*,*,#971,.T.);
#1721 = ORIENTED_EDGE('',*,*,#1005,.T.);
#1722 = ORIENTED_EDGE('',*,*,#1723,.F.);
#1723 = EDGE_CURVE('',#1724,#1006,#1726,.T.);
#1724 = VERTEX_POINT('',#1725);
#1725 = CARTESIAN_POINT('',(-16.5,-11.5,1.6));
#1726 = LINE('',#1727,#1728);
#1727 = CARTESIAN_POINT('',(-19.75,-11.5,1.6));
#1728 = VECTOR('',#1729,1.);
#1729 = DIRECTION('',(1.,0.,0.));
#1730 = ORIENTED_EDGE('',*,*,#1731,.F.);
#1731 = EDGE_CURVE('',#1732,#1724,#1734,.T.);
#1732 = VERTEX_POINT('',#1733);
#1733 = CARTESIAN_POINT('',(-19.5,-8.5,1.6));
#1734 = CIRCLE('',#1735,3.);
#1735 = AXIS2_PLACEMENT_3D('',#1736,#1737,#1738);
#1736 = CARTESIAN_POINT('',(-16.5,-8.5,1.6));
#1737 = DIRECTION('',(0.,0.,1.));
#1738 = DIRECTION('',(-1.,0.,0.));
#1739 = ORIENTED_EDGE('',*,*,#1740,.F.);
#1740 = EDGE_CURVE('',#1741,#1732,#1743,.T.);
#1741 = VERTEX_POINT('',#1742);
#1742 = CARTESIAN_POINT('',(-19.5,8.5,1.6));
#1743 = LINE('',#1744,#1745);
#1744 = CARTESIAN_POINT('',(-19.5,-11.75,1.6));
#1745 = VECTOR('',#1746,1.);
#1746 = DIRECTION('',(0.,-1.,0.));
#1747 = ORIENTED_EDGE('',*,*,#1748,.F.);
#1748 = EDGE_CURVE('',#1749,#1741,#1751,.T.);
#1749 = VERTEX_POINT('',#1750);
#1750 = CARTESIAN_POINT('',(-16.5,11.5,1.6));
#1751 = CIRCLE('',#1752,3.);
#1752 = AXIS2_PLACEMENT_3D('',#1753,#1754,#1755);
#1753 = CARTESIAN_POINT('',(-16.5,8.5,1.6));
#1754 = DIRECTION('',(0.,0.,1.));
#1755 = DIRECTION('',(-1.,0.,0.));
#1756 = ORIENTED_EDGE('',*,*,#1757,.T.);
#1757 = EDGE_CURVE('',#1749,#1758,#1760,.T.);
#1758 = VERTEX_POINT('',#1759);
#1759 = CARTESIAN_POINT('',(16.5,11.5,1.6));
#1760 = LINE('',#1761,#1762);
#1761 = CARTESIAN_POINT('',(-19.75,11.5,1.6));
#1762 = VECTOR('',#1763,1.);
#1763 = DIRECTION('',(1.,0.,0.));
#1764 = ORIENTED_EDGE('',*,*,#1765,.F.);
#1765 = EDGE_CURVE('',#1766,#1758,#1768,.T.);
#1766 = VERTEX_POINT('',#1767);
#1767 = CARTESIAN_POINT('',(19.5,8.5,1.6));
#1768 = CIRCLE('',#1769,3.);
#1769 = AXIS2_PLACEMENT_3D('',#1770,#1771,#1772);
#1770 = CARTESIAN_POINT('',(16.5,8.5,1.6));
#1771 = DIRECTION('',(0.,0.,1.));
#1772 = DIRECTION('',(1.,0.,0.));
#1773 = ORIENTED_EDGE('',*,*,#1774,.T.);
#1774 = EDGE_CURVE('',#1766,#1775,#1777,.T.);
#1775 = VERTEX_POINT('',#1776);
#1776 = CARTESIAN_POINT('',(19.5,4.24,1.6));
#1777 = LINE('',#1778,#1779);
#1778 = CARTESIAN_POINT('',(19.5,-11.75,1.6));
#1779 = VECTOR('',#1780,1.);
#1780 = DIRECTION('',(0.,-1.,0.));
#1781 = ORIENTED_EDGE('',*,*,#1782,.T.);
#1782 = EDGE_CURVE('',#1775,#1783,#1785,.T.);
#1783 = VERTEX_POINT('',#1784);
#1784 = CARTESIAN_POINT('',(20.,4.24,1.6));
#1785 = LINE('',#1786,#1787);
#1786 = CARTESIAN_POINT('',(19.,4.24,1.6));
#1787 = VECTOR('',#1788,1.);
#1788 = DIRECTION('',(1.,0.,0.));
#1789 = ORIENTED_EDGE('',*,*,#1790,.T.);
#1790 = EDGE_CURVE('',#1783,#842,#1791,.T.);
#1791 = LINE('',#1792,#1793);
#1792 = CARTESIAN_POINT('',(20.,-12.,1.6));
#1793 = VECTOR('',#1794,1.);
#1794 = DIRECTION('',(0.,1.,0.));
#1795 = ORIENTED_EDGE('',*,*,#858,.T.);
#1796 = ORIENTED_EDGE('',*,*,#882,.F.);
#1797 = ORIENTED_EDGE('',*,*,#907,.F.);
#1798 = PLANE('',#1799);
#1799 = AXIS2_PLACEMENT_3D('',#1800,#1801,#1802);
#1800 = CARTESIAN_POINT('',(-20.,-12.,1.6));
#1801 = DIRECTION('',(0.,0.,1.));
#1802 = DIRECTION('',(1.,0.,0.));
#1803 = ADVANCED_FACE('',(#1804),#1817,.T.);
#1804 = FACE_BOUND('',#1805,.T.);
#1805 = EDGE_LOOP('',(#1806,#1807,#1813,#1814,#1815,#1816));
#1806 = ORIENTED_EDGE('',*,*,#1723,.F.);
#1807 = ORIENTED_EDGE('',*,*,#1808,.T.);
#1808 = EDGE_CURVE('',#1724,#1557,#1809,.T.);
#1809 = LINE('',#1810,#1811);
#1810 = CARTESIAN_POINT('',(-16.5,-11.5,1.));
#1811 = VECTOR('',#1812,1.);
#1812 = DIRECTION('',(0.,0.,1.));
#1813 = ORIENTED_EDGE('',*,*,#1565,.T.);
#1814 = ORIENTED_EDGE('',*,*,#1670,.F.);
#1815 = ORIENTED_EDGE('',*,*,#1635,.F.);
#1816 = ORIENTED_EDGE('',*,*,#1013,.T.);
#1817 = PLANE('',#1818);
#1818 = AXIS2_PLACEMENT_3D('',#1819,#1820,#1821);
#1819 = CARTESIAN_POINT('',(-19.5,-11.5,1.));
#1820 = DIRECTION('',(0.,1.,0.));
#1821 = DIRECTION('',(0.,0.,1.));
#1822 = ADVANCED_FACE('',(#1823),#1852,.F.);
#1823 = FACE_BOUND('',#1824,.F.);
#1824 = EDGE_LOOP('',(#1825,#1831,#1832,#1838,#1839,#1840,#1841,#1842,
    #1843,#1844,#1845,#1851));
#1825 = ORIENTED_EDGE('',*,*,#1826,.F.);
#1826 = EDGE_CURVE('',#1766,#1583,#1827,.T.);
#1827 = LINE('',#1828,#1829);
#1828 = CARTESIAN_POINT('',(19.5,8.5,1.));
#1829 = VECTOR('',#1830,1.);
#1830 = DIRECTION('',(0.,0.,1.));
#1831 = ORIENTED_EDGE('',*,*,#1765,.T.);
#1832 = ORIENTED_EDGE('',*,*,#1833,.T.);
#1833 = EDGE_CURVE('',#1758,#1187,#1834,.T.);
#1834 = LINE('',#1835,#1836);
#1835 = CARTESIAN_POINT('',(16.5,11.5,1.));
#1836 = VECTOR('',#1837,1.);
#1837 = DIRECTION('',(0.,0.,1.));
#1838 = ORIENTED_EDGE('',*,*,#1195,.T.);
#1839 = ORIENTED_EDGE('',*,*,#1153,.F.);
#1840 = ORIENTED_EDGE('',*,*,#1119,.F.);
#1841 = ORIENTED_EDGE('',*,*,#1103,.T.);
#1842 = ORIENTED_EDGE('',*,*,#1060,.T.);
#1843 = ORIENTED_EDGE('',*,*,#1282,.T.);
#1844 = ORIENTED_EDGE('',*,*,#1252,.F.);
#1845 = ORIENTED_EDGE('',*,*,#1846,.T.);
#1846 = EDGE_CURVE('',#1244,#1591,#1847,.T.);
#1847 = LINE('',#1848,#1849);
#1848 = CARTESIAN_POINT('',(16.5,11.5,1.));
#1849 = VECTOR('',#1850,1.);
#1850 = DIRECTION('',(0.,0.,1.));
#1851 = ORIENTED_EDGE('',*,*,#1590,.F.);
#1852 = CYLINDRICAL_SURFACE('',#1853,3.);
#1853 = AXIS2_PLACEMENT_3D('',#1854,#1855,#1856);
#1854 = CARTESIAN_POINT('',(16.5,8.5,1.));
#1855 = DIRECTION('',(0.,0.,1.));
#1856 = DIRECTION('',(1.,0.,0.));
#1857 = ADVANCED_FACE('',(#1858),#1873,.F.);
#1858 = FACE_BOUND('',#1859,.F.);
#1859 = EDGE_LOOP('',(#1860,#1861,#1867,#1868,#1869,#1870,#1871,#1872));
#1860 = ORIENTED_EDGE('',*,*,#1757,.F.);
#1861 = ORIENTED_EDGE('',*,*,#1862,.T.);
#1862 = EDGE_CURVE('',#1749,#1600,#1863,.T.);
#1863 = LINE('',#1864,#1865);
#1864 = CARTESIAN_POINT('',(-16.5,11.5,1.));
#1865 = VECTOR('',#1866,1.);
#1866 = DIRECTION('',(0.,0.,1.));
#1867 = ORIENTED_EDGE('',*,*,#1599,.T.);
#1868 = ORIENTED_EDGE('',*,*,#1846,.F.);
#1869 = ORIENTED_EDGE('',*,*,#1243,.F.);
#1870 = ORIENTED_EDGE('',*,*,#1220,.F.);
#1871 = ORIENTED_EDGE('',*,*,#1186,.F.);
#1872 = ORIENTED_EDGE('',*,*,#1833,.F.);
#1873 = PLANE('',#1874);
#1874 = AXIS2_PLACEMENT_3D('',#1875,#1876,#1877);
#1875 = CARTESIAN_POINT('',(-19.5,11.5,1.));
#1876 = DIRECTION('',(0.,1.,0.));
#1877 = DIRECTION('',(0.,0.,1.));
#1878 = ADVANCED_FACE('',(#1879),#1903,.F.);
#1879 = FACE_BOUND('',#1880,.F.);
#1880 = EDGE_LOOP('',(#1881,#1882,#1883,#1884,#1890,#1891,#1892,#1893,
    #1894,#1895,#1901,#1902));
#1881 = ORIENTED_EDGE('',*,*,#1582,.F.);
#1882 = ORIENTED_EDGE('',*,*,#1653,.F.);
#1883 = ORIENTED_EDGE('',*,*,#1704,.F.);
#1884 = ORIENTED_EDGE('',*,*,#1885,.T.);
#1885 = EDGE_CURVE('',#1697,#1328,#1886,.T.);
#1886 = LINE('',#1887,#1888);
#1887 = CARTESIAN_POINT('',(19.5,-4.24,1.3));
#1888 = VECTOR('',#1889,1.);
#1889 = DIRECTION('',(0.,0.,1.));
#1890 = ORIENTED_EDGE('',*,*,#1335,.T.);
#1891 = ORIENTED_EDGE('',*,*,#1531,.T.);
#1892 = ORIENTED_EDGE('',*,*,#1506,.F.);
#1893 = ORIENTED_EDGE('',*,*,#1483,.F.);
#1894 = ORIENTED_EDGE('',*,*,#1430,.T.);
#1895 = ORIENTED_EDGE('',*,*,#1896,.F.);
#1896 = EDGE_CURVE('',#1775,#1433,#1897,.T.);
#1897 = LINE('',#1898,#1899);
#1898 = CARTESIAN_POINT('',(19.5,4.24,1.3));
#1899 = VECTOR('',#1900,1.);
#1900 = DIRECTION('',(0.,0.,1.));
#1901 = ORIENTED_EDGE('',*,*,#1774,.F.);
#1902 = ORIENTED_EDGE('',*,*,#1826,.T.);
#1903 = PLANE('',#1904);
#1904 = AXIS2_PLACEMENT_3D('',#1905,#1906,#1907);
#1905 = CARTESIAN_POINT('',(19.5,-11.5,1.));
#1906 = DIRECTION('',(1.,0.,0.));
#1907 = DIRECTION('',(0.,0.,1.));
#1908 = ADVANCED_FACE('',(#1909),#1920,.T.);
#1909 = FACE_BOUND('',#1910,.T.);
#1910 = EDGE_LOOP('',(#1911,#1917,#1918,#1919));
#1911 = ORIENTED_EDGE('',*,*,#1912,.F.);
#1912 = EDGE_CURVE('',#1689,#1319,#1913,.T.);
#1913 = LINE('',#1914,#1915);
#1914 = CARTESIAN_POINT('',(20.,-4.24,1.6));
#1915 = VECTOR('',#1916,1.);
#1916 = DIRECTION('',(0.,0.,1.));
#1917 = ORIENTED_EDGE('',*,*,#1696,.F.);
#1918 = ORIENTED_EDGE('',*,*,#1885,.T.);
#1919 = ORIENTED_EDGE('',*,*,#1327,.F.);
#1920 = PLANE('',#1921);
#1921 = AXIS2_PLACEMENT_3D('',#1922,#1923,#1924);
#1922 = CARTESIAN_POINT('',(19.,-4.24,1.6));
#1923 = DIRECTION('',(0.,1.,0.));
#1924 = DIRECTION('',(0.,0.,1.));
#1925 = ADVANCED_FACE('',(#1926),#1937,.F.);
#1926 = FACE_BOUND('',#1927,.F.);
#1927 = EDGE_LOOP('',(#1928,#1934,#1935,#1936));
#1928 = ORIENTED_EDGE('',*,*,#1929,.F.);
#1929 = EDGE_CURVE('',#1783,#1442,#1930,.T.);
#1930 = LINE('',#1931,#1932);
#1931 = CARTESIAN_POINT('',(20.,4.24,1.6));
#1932 = VECTOR('',#1933,1.);
#1933 = DIRECTION('',(0.,0.,1.));
#1934 = ORIENTED_EDGE('',*,*,#1782,.F.);
#1935 = ORIENTED_EDGE('',*,*,#1896,.T.);
#1936 = ORIENTED_EDGE('',*,*,#1441,.F.);
#1937 = PLANE('',#1938);
#1938 = AXIS2_PLACEMENT_3D('',#1939,#1940,#1941);
#1939 = CARTESIAN_POINT('',(19.,4.24,1.6));
#1940 = DIRECTION('',(0.,1.,0.));
#1941 = DIRECTION('',(0.,0.,1.));
#1942 = ADVANCED_FACE('',(#1943),#1959,.T.);
#1943 = FACE_BOUND('',#1944,.T.);
#1944 = EDGE_LOOP('',(#1945,#1946,#1952,#1953));
#1945 = ORIENTED_EDGE('',*,*,#1546,.F.);
#1946 = ORIENTED_EDGE('',*,*,#1947,.F.);
#1947 = EDGE_CURVE('',#1732,#1547,#1948,.T.);
#1948 = LINE('',#1949,#1950);
#1949 = CARTESIAN_POINT('',(-19.5,-8.5,1.));
#1950 = VECTOR('',#1951,1.);
#1951 = DIRECTION('',(0.,0.,1.));
#1952 = ORIENTED_EDGE('',*,*,#1740,.F.);
#1953 = ORIENTED_EDGE('',*,*,#1954,.T.);
#1954 = EDGE_CURVE('',#1741,#1549,#1955,.T.);
#1955 = LINE('',#1956,#1957);
#1956 = CARTESIAN_POINT('',(-19.5,8.5,1.));
#1957 = VECTOR('',#1958,1.);
#1958 = DIRECTION('',(0.,0.,1.));
#1959 = PLANE('',#1960);
#1960 = AXIS2_PLACEMENT_3D('',#1961,#1962,#1963);
#1961 = CARTESIAN_POINT('',(-19.5,-11.5,1.));
#1962 = DIRECTION('',(1.,0.,0.));
#1963 = DIRECTION('',(0.,0.,1.));
#1964 = ADVANCED_FACE('',(#1965),#1971,.F.);
#1965 = FACE_BOUND('',#1966,.F.);
#1966 = EDGE_LOOP('',(#1967,#1968,#1969,#1970));
#1967 = ORIENTED_EDGE('',*,*,#1947,.F.);
#1968 = ORIENTED_EDGE('',*,*,#1731,.T.);
#1969 = ORIENTED_EDGE('',*,*,#1808,.T.);
#1970 = ORIENTED_EDGE('',*,*,#1556,.F.);
#1971 = CYLINDRICAL_SURFACE('',#1972,3.);
#1972 = AXIS2_PLACEMENT_3D('',#1973,#1974,#1975);
#1973 = CARTESIAN_POINT('',(-16.5,-8.5,1.));
#1974 = DIRECTION('',(0.,0.,1.));
#1975 = DIRECTION('',(-1.,0.,0.));
#1976 = ADVANCED_FACE('',(#1977),#1983,.F.);
#1977 = FACE_BOUND('',#1978,.T.);
#1978 = EDGE_LOOP('',(#1979,#1980,#1981,#1982));
#1979 = ORIENTED_EDGE('',*,*,#1954,.F.);
#1980 = ORIENTED_EDGE('',*,*,#1748,.F.);
#1981 = ORIENTED_EDGE('',*,*,#1862,.T.);
#1982 = ORIENTED_EDGE('',*,*,#1607,.F.);
#1983 = CYLINDRICAL_SURFACE('',#1984,3.);
#1984 = AXIS2_PLACEMENT_3D('',#1985,#1986,#1987);
#1985 = CARTESIAN_POINT('',(-16.5,8.5,1.));
#1986 = DIRECTION('',(0.,0.,1.));
#1987 = DIRECTION('',(-1.,0.,0.));
#1988 = ADVANCED_FACE('',(#1989),#2005,.T.);
#1989 = FACE_BOUND('',#1990,.T.);
#1990 = EDGE_LOOP('',(#1991,#1992,#1993,#1994,#1995,#1996,#1997,#1998,
    #1999,#2000,#2001,#2002,#2003,#2004));
#1991 = ORIENTED_EDGE('',*,*,#1688,.T.);
#1992 = ORIENTED_EDGE('',*,*,#1912,.T.);
#1993 = ORIENTED_EDGE('',*,*,#1318,.F.);
#1994 = ORIENTED_EDGE('',*,*,#1309,.F.);
#1995 = ORIENTED_EDGE('',*,*,#1366,.T.);
#1996 = ORIENTED_EDGE('',*,*,#1382,.T.);
#1997 = ORIENTED_EDGE('',*,*,#1407,.F.);
#1998 = ORIENTED_EDGE('',*,*,#1458,.F.);
#1999 = ORIENTED_EDGE('',*,*,#1449,.F.);
#2000 = ORIENTED_EDGE('',*,*,#1929,.F.);
#2001 = ORIENTED_EDGE('',*,*,#1790,.T.);
#2002 = ORIENTED_EDGE('',*,*,#841,.F.);
#2003 = ORIENTED_EDGE('',*,*,#275,.F.);
#2004 = ORIENTED_EDGE('',*,*,#816,.T.);
#2005 = PLANE('',#2006);
#2006 = AXIS2_PLACEMENT_3D('',#2007,#2008,#2009);
#2007 = CARTESIAN_POINT('',(20.,-5.703517765991E-16,1.389873500522));
#2008 = DIRECTION('',(-1.,-0.,-0.));
#2009 = DIRECTION('',(0.,0.,-1.));
#2010 = ( GEOMETRIC_REPRESENTATION_CONTEXT(3) 
GLOBAL_UNCERTAINTY_ASSIGNED_CONTEXT((#2014)) 
GLOBAL_UNIT_ASSIGNED_CONTEXT((#2011,#2012,#2013)) REPRESENTATION_CONTEXT
('Context #1','3D Context with UNIT and UNCERTAINTY') );
#2011 = ( LENGTH_UNIT() NAMED_UNIT(*) SI_UNIT(.MILLI.,.METRE.) );
#2012 = ( NAMED_UNIT(*) PLANE_ANGLE_UNIT() SI_UNIT($,.RADIAN.) );
#2013 = ( NAMED_UNIT(*) SI_UNIT($,.STERADIAN.) SOLID_ANGLE_UNIT() );
#2014 = UNCERTAINTY_MEASURE_WITH_UNIT(LENGTH_MEASURE(1.E-05),#2011,
  'distance_accuracy_value','confusion accuracy');
#2015 = PRODUCT_RELATED_PRODUCT_CATEGORY('part',$,(#7));
#2016 = MECHANICAL_DESIGN_GEOMETRIC_PRESENTATION_REPRESENTATION('',(
    #2017),#2010);
#2017 = STYLED_ITEM('color',(#2018),#15);
#2018 = PRESENTATION_STYLE_ASSIGNMENT((#2019,#2027));
#2019 = SURFACE_STYLE_USAGE(.BOTH.,#2020);
#2020 = SURFACE_SIDE_STYLE('',(#2021,#2025));
#2021 = SURFACE_STYLE_FILL_AREA(#2022);
#2022 = FILL_AREA_STYLE('',(#2023));
#2023 = FILL_AREA_STYLE_COLOUR('',#2024);
#2024 = COLOUR_RGB('',0.447058818107,0.474509808674,0.501960817233);
#2025 = SURFACE_STYLE_RENDERING_WITH_PROPERTIES(.NORMAL_SHADING.,#2024,(
    #2026));
#2026 = SURFACE_STYLE_TRANSPARENT(0.399999976158);
#2027 = CURVE_STYLE('',#2028,POSITIVE_LENGTH_MEASURE(0.1),#2029);
#2028 = DRAUGHTING_PRE_DEFINED_CURVE_FONT('continuous');
#2029 = COLOUR_RGB('',9.803921802644E-02,9.803921802644E-02,
  9.803921802644E-02);
ENDSEC;
END-ISO-10303-21;
