ISO-10303-21;
HEADER;
FILE_DESCRIPTION(('FreeCAD Model'),'2;1');
FILE_NAME('Open CASCADE Shape Model','2026-10-05T14:30:45',(''),(''),
  'Open CASCADE STEP processor 7.8','FreeCAD','Unknown');
FILE_SCHEMA((
'AP242_MANAGED_MODEL_BASED_3D_ENGINEERING_MIM_LF. {1 0 10303 442 1 1 4 
}'));
ENDSEC;
DATA;
#1 = APPLICATION_PROTOCOL_DEFINITION('international standard',
  'ap242_managed_model_based_3d_engineering',2013,#2);
#2 = APPLICATION_CONTEXT('Managed model based 3d engineering');
#3 = SHAPE_DEFINITION_REPRESENTATION(#4,#10);
#4 = PRODUCT_DEFINITION_SHAPE('','',#5);
#5 = PRODUCT_DEFINITION('design','',#6,#9);
#6 = PRODUCT_DEFINITION_FORMATION('','',#7);
#7 = PRODUCT('Case Btm Cut','Case Btm Cut','',(#8));
#8 = PRODUCT_CONTEXT('',#2,'mechanical');
#9 = PRODUCT_DEFINITION_CONTEXT('part definition',#2,'design');
#10 = ADVANCED_BREP_SHAPE_REPRESENTATION('',(#11,#15),#1507);
#11 = AXIS2_PLACEMENT_3D('',#12,#13,#14);
#12 = CARTESIAN_POINT('',(0.,0.,0.));
#13 = DIRECTION('',(0.,0.,1.));
#14 = DIRECTION('',(1.,0.,-0.));
#15 = MANIFOLD_SOLID_BREP('',#16);
#16 = CLOSED_SHELL('',(#17,#157,#188,#212,#236,#269,#328,#353,#384,#408,
    #432,#457,#481,#505,#529,#547,#606,#639,#702,#735,#776,#843,#867,
    #892,#984,#1003,#1034,#1067,#1166,#1199,#1230,#1254,#1270,#1292,
    #1311,#1328,#1350,#1367,#1384,#1401,#1418,#1435,#1452,#1464,#1482));
#17 = ADVANCED_FACE('',(#18,#84),#152,.F.);
#18 = FACE_BOUND('',#19,.F.);
#19 = EDGE_LOOP('',(#20,#30,#38,#46,#54,#62,#70,#78));
#20 = ORIENTED_EDGE('',*,*,#21,.F.);
#21 = EDGE_CURVE('',#22,#24,#26,.T.);
#22 = VERTEX_POINT('',#23);
#23 = CARTESIAN_POINT('',(-21.,-9.,1.));
#24 = VERTEX_POINT('',#25);
#25 = CARTESIAN_POINT('',(-21.,-6.,1.));
#26 = LINE('',#27,#28);
#27 = CARTESIAN_POINT('',(-21.,-13.,1.));
#28 = VECTOR('',#29,1.);
#29 = DIRECTION('',(0.,1.,0.));
#30 = ORIENTED_EDGE('',*,*,#31,.F.);
#31 = EDGE_CURVE('',#32,#22,#34,.T.);
#32 = VERTEX_POINT('',#33);
#33 = CARTESIAN_POINT('',(-21.,-9.,-4.5));
#34 = LINE('',#35,#36);
#35 = CARTESIAN_POINT('',(-21.,-9.,-4.5));
#36 = VECTOR('',#37,1.);
#37 = DIRECTION('',(0.,0.,1.));
#38 = ORIENTED_EDGE('',*,*,#39,.T.);
#39 = EDGE_CURVE('',#32,#40,#42,.T.);
#40 = VERTEX_POINT('',#41);
#41 = CARTESIAN_POINT('',(-21.,9.,-4.5));
#42 = LINE('',#43,#44);
#43 = CARTESIAN_POINT('',(-21.,-13.,-4.5));
#44 = VECTOR('',#45,1.);
#45 = DIRECTION('',(0.,1.,0.));
#46 = ORIENTED_EDGE('',*,*,#47,.T.);
#47 = EDGE_CURVE('',#40,#48,#50,.T.);
#48 = VERTEX_POINT('',#49);
#49 = CARTESIAN_POINT('',(-21.,9.,1.));
#50 = LINE('',#51,#52);
#51 = CARTESIAN_POINT('',(-21.,9.,-4.5));
#52 = VECTOR('',#53,1.);
#53 = DIRECTION('',(0.,0.,1.));
#54 = ORIENTED_EDGE('',*,*,#55,.F.);
#55 = EDGE_CURVE('',#56,#48,#58,.T.);
#56 = VERTEX_POINT('',#57);
#57 = CARTESIAN_POINT('',(-21.,6.,1.));
#58 = LINE('',#59,#60);
#59 = CARTESIAN_POINT('',(-21.,-13.,1.));
#60 = VECTOR('',#61,1.);
#61 = DIRECTION('',(0.,1.,0.));
#62 = ORIENTED_EDGE('',*,*,#63,.F.);
#63 = EDGE_CURVE('',#64,#56,#66,.T.);
#64 = VERTEX_POINT('',#65);
#65 = CARTESIAN_POINT('',(-21.,6.,0.3));
#66 = LINE('',#67,#68);
#67 = CARTESIAN_POINT('',(-21.,6.,-2.1));
#68 = VECTOR('',#69,1.);
#69 = DIRECTION('',(0.,0.,1.));
#70 = ORIENTED_EDGE('',*,*,#71,.T.);
#71 = EDGE_CURVE('',#64,#72,#74,.T.);
#72 = VERTEX_POINT('',#73);
#73 = CARTESIAN_POINT('',(-21.,-6.,0.3));
#74 = LINE('',#75,#76);
#75 = CARTESIAN_POINT('',(-21.,-9.5,0.3));
#76 = VECTOR('',#77,1.);
#77 = DIRECTION('',(0.,-1.,0.));
#78 = ORIENTED_EDGE('',*,*,#79,.T.);
#79 = EDGE_CURVE('',#72,#24,#80,.T.);
#80 = LINE('',#81,#82);
#81 = CARTESIAN_POINT('',(-21.,-6.,-2.1));
#82 = VECTOR('',#83,1.);
#83 = DIRECTION('',(0.,0.,1.));
#84 = FACE_BOUND('',#85,.F.);
#85 = EDGE_LOOP('',(#86,#96,#105,#113,#121,#129,#138,#146));
#86 = ORIENTED_EDGE('',*,*,#87,.F.);
#87 = EDGE_CURVE('',#88,#90,#92,.T.);
#88 = VERTEX_POINT('',#89);
#89 = CARTESIAN_POINT('',(-21.,-2.9,-2.995993579438));
#90 = VERTEX_POINT('',#91);
#91 = CARTESIAN_POINT('',(-21.,-2.9,-3.));
#92 = LINE('',#93,#94);
#93 = CARTESIAN_POINT('',(-21.,-2.9,-3.75));
#94 = VECTOR('',#95,1.);
#95 = DIRECTION('',(0.,-0.,-1.));
#96 = ORIENTED_EDGE('',*,*,#97,.F.);
#97 = EDGE_CURVE('',#98,#88,#100,.T.);
#98 = VERTEX_POINT('',#99);
#99 = CARTESIAN_POINT('',(-21.,-2.9,-0.504006420562));
#100 = CIRCLE('',#101,1.25);
#101 = AXIS2_PLACEMENT_3D('',#102,#103,#104);
#102 = CARTESIAN_POINT('',(-21.,-3.,-1.75));
#103 = DIRECTION('',(1.,-1.224646799147E-16,-2.22044604925E-16));
#104 = DIRECTION('',(-2.22044604925E-16,2.719262146894E-32,-1.));
#105 = ORIENTED_EDGE('',*,*,#106,.F.);
#106 = EDGE_CURVE('',#107,#98,#109,.T.);
#107 = VERTEX_POINT('',#108);
#108 = CARTESIAN_POINT('',(-21.,-2.9,-0.5));
#109 = LINE('',#110,#111);
#110 = CARTESIAN_POINT('',(-21.,-2.9,-3.75));
#111 = VECTOR('',#112,1.);
#112 = DIRECTION('',(0.,-0.,-1.));
#113 = ORIENTED_EDGE('',*,*,#114,.F.);
#114 = EDGE_CURVE('',#115,#107,#117,.T.);
#115 = VERTEX_POINT('',#116);
#116 = CARTESIAN_POINT('',(-21.,2.9,-0.5));
#117 = LINE('',#118,#119);
#118 = CARTESIAN_POINT('',(-21.,-5.05,-0.5));
#119 = VECTOR('',#120,1.);
#120 = DIRECTION('',(0.,-1.,0.));
#121 = ORIENTED_EDGE('',*,*,#122,.T.);
#122 = EDGE_CURVE('',#115,#123,#125,.T.);
#123 = VERTEX_POINT('',#124);
#124 = CARTESIAN_POINT('',(-21.,2.9,-0.504006420562));
#125 = LINE('',#126,#127);
#126 = CARTESIAN_POINT('',(-21.,2.9,-3.75));
#127 = VECTOR('',#128,1.);
#128 = DIRECTION('',(0.,-0.,-1.));
#129 = ORIENTED_EDGE('',*,*,#130,.F.);
#130 = EDGE_CURVE('',#131,#123,#133,.T.);
#131 = VERTEX_POINT('',#132);
#132 = CARTESIAN_POINT('',(-21.,2.9,-2.995993579438));
#133 = CIRCLE('',#134,1.25);
#134 = AXIS2_PLACEMENT_3D('',#135,#136,#137);
#135 = CARTESIAN_POINT('',(-21.,3.,-1.75));
#136 = DIRECTION('',(1.,-1.224646799147E-16,-2.22044604925E-16));
#137 = DIRECTION('',(-2.22044604925E-16,2.719262146894E-32,-1.));
#138 = ORIENTED_EDGE('',*,*,#139,.T.);
#139 = EDGE_CURVE('',#131,#140,#142,.T.);
#140 = VERTEX_POINT('',#141);
#141 = CARTESIAN_POINT('',(-21.,2.9,-3.));
#142 = LINE('',#143,#144);
#143 = CARTESIAN_POINT('',(-21.,2.9,-3.75));
#144 = VECTOR('',#145,1.);
#145 = DIRECTION('',(0.,-0.,-1.));
#146 = ORIENTED_EDGE('',*,*,#147,.T.);
#147 = EDGE_CURVE('',#140,#90,#148,.T.);
#148 = LINE('',#149,#150);
#149 = CARTESIAN_POINT('',(-21.,-5.05,-3.));
#150 = VECTOR('',#151,1.);
#151 = DIRECTION('',(0.,-1.,0.));
#152 = PLANE('',#153);
#153 = AXIS2_PLACEMENT_3D('',#154,#155,#156);
#154 = CARTESIAN_POINT('',(-21.,-13.,-4.5));
#155 = DIRECTION('',(1.,0.,0.));
#156 = DIRECTION('',(0.,0.,1.));
#157 = ADVANCED_FACE('',(#158),#183,.T.);
#158 = FACE_BOUND('',#159,.T.);
#159 = EDGE_LOOP('',(#160,#170,#176,#177));
#160 = ORIENTED_EDGE('',*,*,#161,.F.);
#161 = EDGE_CURVE('',#162,#164,#166,.T.);
#162 = VERTEX_POINT('',#163);
#163 = CARTESIAN_POINT('',(-20.,-6.,0.3));
#164 = VERTEX_POINT('',#165);
#165 = CARTESIAN_POINT('',(-20.,-6.,1.));
#166 = LINE('',#167,#168);
#167 = CARTESIAN_POINT('',(-20.,-6.,-1.6));
#168 = VECTOR('',#169,1.);
#169 = DIRECTION('',(0.,0.,1.));
#170 = ORIENTED_EDGE('',*,*,#171,.T.);
#171 = EDGE_CURVE('',#162,#72,#172,.T.);
#172 = LINE('',#173,#174);
#173 = CARTESIAN_POINT('',(-16.,-6.,0.3));
#174 = VECTOR('',#175,1.);
#175 = DIRECTION('',(-1.,2.22044604925E-16,0.));
#176 = ORIENTED_EDGE('',*,*,#79,.T.);
#177 = ORIENTED_EDGE('',*,*,#178,.F.);
#178 = EDGE_CURVE('',#164,#24,#179,.T.);
#179 = LINE('',#180,#181);
#180 = CARTESIAN_POINT('',(-18.5,-6.,1.));
#181 = VECTOR('',#182,1.);
#182 = DIRECTION('',(-1.,2.22044604925E-16,0.));
#183 = PLANE('',#184);
#184 = AXIS2_PLACEMENT_3D('',#185,#186,#187);
#185 = CARTESIAN_POINT('',(-16.,-6.,0.3));
#186 = DIRECTION('',(2.22044604925E-16,1.,0.));
#187 = DIRECTION('',(0.,0.,1.));
#188 = ADVANCED_FACE('',(#189),#207,.T.);
#189 = FACE_BOUND('',#190,.T.);
#190 = EDGE_LOOP('',(#191,#192,#200,#206));
#191 = ORIENTED_EDGE('',*,*,#171,.F.);
#192 = ORIENTED_EDGE('',*,*,#193,.F.);
#193 = EDGE_CURVE('',#194,#162,#196,.T.);
#194 = VERTEX_POINT('',#195);
#195 = CARTESIAN_POINT('',(-20.,6.,0.3));
#196 = LINE('',#197,#198);
#197 = CARTESIAN_POINT('',(-20.,-9.,0.3));
#198 = VECTOR('',#199,1.);
#199 = DIRECTION('',(0.,-1.,0.));
#200 = ORIENTED_EDGE('',*,*,#201,.T.);
#201 = EDGE_CURVE('',#194,#64,#202,.T.);
#202 = LINE('',#203,#204);
#203 = CARTESIAN_POINT('',(-16.,6.,0.3));
#204 = VECTOR('',#205,1.);
#205 = DIRECTION('',(-1.,2.22044604925E-16,0.));
#206 = ORIENTED_EDGE('',*,*,#71,.T.);
#207 = PLANE('',#208);
#208 = AXIS2_PLACEMENT_3D('',#209,#210,#211);
#209 = CARTESIAN_POINT('',(-16.,-6.,0.3));
#210 = DIRECTION('',(0.,0.,1.));
#211 = DIRECTION('',(2.22044604925E-16,1.,0.));
#212 = ADVANCED_FACE('',(#213),#231,.F.);
#213 = FACE_BOUND('',#214,.F.);
#214 = EDGE_LOOP('',(#215,#223,#224,#225));
#215 = ORIENTED_EDGE('',*,*,#216,.F.);
#216 = EDGE_CURVE('',#194,#217,#219,.T.);
#217 = VERTEX_POINT('',#218);
#218 = CARTESIAN_POINT('',(-20.,6.,1.));
#219 = LINE('',#220,#221);
#220 = CARTESIAN_POINT('',(-20.,6.,-1.6));
#221 = VECTOR('',#222,1.);
#222 = DIRECTION('',(0.,0.,1.));
#223 = ORIENTED_EDGE('',*,*,#201,.T.);
#224 = ORIENTED_EDGE('',*,*,#63,.T.);
#225 = ORIENTED_EDGE('',*,*,#226,.F.);
#226 = EDGE_CURVE('',#217,#56,#227,.T.);
#227 = LINE('',#228,#229);
#228 = CARTESIAN_POINT('',(-18.5,6.,1.));
#229 = VECTOR('',#230,1.);
#230 = DIRECTION('',(-1.,2.22044604925E-16,0.));
#231 = PLANE('',#232);
#232 = AXIS2_PLACEMENT_3D('',#233,#234,#235);
#233 = CARTESIAN_POINT('',(-16.,6.,0.3));
#234 = DIRECTION('',(2.22044604925E-16,1.,0.));
#235 = DIRECTION('',(0.,0.,1.));
#236 = ADVANCED_FACE('',(#237),#264,.T.);
#237 = FACE_BOUND('',#238,.F.);
#238 = EDGE_LOOP('',(#239,#248,#256,#263));
#239 = ORIENTED_EDGE('',*,*,#240,.T.);
#240 = EDGE_CURVE('',#40,#241,#243,.T.);
#241 = VERTEX_POINT('',#242);
#242 = CARTESIAN_POINT('',(-17.,13.,-4.5));
#243 = CIRCLE('',#244,4.);
#244 = AXIS2_PLACEMENT_3D('',#245,#246,#247);
#245 = CARTESIAN_POINT('',(-17.,9.,-4.5));
#246 = DIRECTION('',(-0.,-0.,-1.));
#247 = DIRECTION('',(0.,-1.,0.));
#248 = ORIENTED_EDGE('',*,*,#249,.T.);
#249 = EDGE_CURVE('',#241,#250,#252,.T.);
#250 = VERTEX_POINT('',#251);
#251 = CARTESIAN_POINT('',(-17.,13.,1.));
#252 = LINE('',#253,#254);
#253 = CARTESIAN_POINT('',(-17.,13.,-4.5));
#254 = VECTOR('',#255,1.);
#255 = DIRECTION('',(0.,0.,1.));
#256 = ORIENTED_EDGE('',*,*,#257,.F.);
#257 = EDGE_CURVE('',#48,#250,#258,.T.);
#258 = CIRCLE('',#259,4.);
#259 = AXIS2_PLACEMENT_3D('',#260,#261,#262);
#260 = CARTESIAN_POINT('',(-17.,9.,1.));
#261 = DIRECTION('',(-0.,-0.,-1.));
#262 = DIRECTION('',(0.,-1.,0.));
#263 = ORIENTED_EDGE('',*,*,#47,.F.);
#264 = CYLINDRICAL_SURFACE('',#265,4.);
#265 = AXIS2_PLACEMENT_3D('',#266,#267,#268);
#266 = CARTESIAN_POINT('',(-17.,9.,-4.5));
#267 = DIRECTION('',(0.,0.,1.));
#268 = DIRECTION('',(-1.,0.,0.));
#269 = ADVANCED_FACE('',(#270),#323,.F.);
#270 = FACE_BOUND('',#271,.F.);
#271 = EDGE_LOOP('',(#272,#273,#282,#290,#299,#307,#316,#322));
#272 = ORIENTED_EDGE('',*,*,#39,.F.);
#273 = ORIENTED_EDGE('',*,*,#274,.T.);
#274 = EDGE_CURVE('',#32,#275,#277,.T.);
#275 = VERTEX_POINT('',#276);
#276 = CARTESIAN_POINT('',(-17.,-13.,-4.5));
#277 = CIRCLE('',#278,4.);
#278 = AXIS2_PLACEMENT_3D('',#279,#280,#281);
#279 = CARTESIAN_POINT('',(-17.,-9.,-4.5));
#280 = DIRECTION('',(-0.,0.,1.));
#281 = DIRECTION('',(0.,-1.,0.));
#282 = ORIENTED_EDGE('',*,*,#283,.T.);
#283 = EDGE_CURVE('',#275,#284,#286,.T.);
#284 = VERTEX_POINT('',#285);
#285 = CARTESIAN_POINT('',(17.,-13.,-4.5));
#286 = LINE('',#287,#288);
#287 = CARTESIAN_POINT('',(-21.,-13.,-4.5));
#288 = VECTOR('',#289,1.);
#289 = DIRECTION('',(1.,0.,0.));
#290 = ORIENTED_EDGE('',*,*,#291,.F.);
#291 = EDGE_CURVE('',#292,#284,#294,.T.);
#292 = VERTEX_POINT('',#293);
#293 = CARTESIAN_POINT('',(21.,-9.,-4.5));
#294 = CIRCLE('',#295,4.);
#295 = AXIS2_PLACEMENT_3D('',#296,#297,#298);
#296 = CARTESIAN_POINT('',(17.,-9.,-4.5));
#297 = DIRECTION('',(-0.,-0.,-1.));
#298 = DIRECTION('',(0.,-1.,0.));
#299 = ORIENTED_EDGE('',*,*,#300,.T.);
#300 = EDGE_CURVE('',#292,#301,#303,.T.);
#301 = VERTEX_POINT('',#302);
#302 = CARTESIAN_POINT('',(21.,9.,-4.5));
#303 = LINE('',#304,#305);
#304 = CARTESIAN_POINT('',(21.,-13.,-4.5));
#305 = VECTOR('',#306,1.);
#306 = DIRECTION('',(0.,1.,0.));
#307 = ORIENTED_EDGE('',*,*,#308,.T.);
#308 = EDGE_CURVE('',#301,#309,#311,.T.);
#309 = VERTEX_POINT('',#310);
#310 = CARTESIAN_POINT('',(17.,13.,-4.5));
#311 = CIRCLE('',#312,4.);
#312 = AXIS2_PLACEMENT_3D('',#313,#314,#315);
#313 = CARTESIAN_POINT('',(17.,9.,-4.5));
#314 = DIRECTION('',(-0.,0.,1.));
#315 = DIRECTION('',(0.,-1.,0.));
#316 = ORIENTED_EDGE('',*,*,#317,.F.);
#317 = EDGE_CURVE('',#241,#309,#318,.T.);
#318 = LINE('',#319,#320);
#319 = CARTESIAN_POINT('',(-21.,13.,-4.5));
#320 = VECTOR('',#321,1.);
#321 = DIRECTION('',(1.,0.,0.));
#322 = ORIENTED_EDGE('',*,*,#240,.F.);
#323 = PLANE('',#324);
#324 = AXIS2_PLACEMENT_3D('',#325,#326,#327);
#325 = CARTESIAN_POINT('',(-21.,-13.,-4.5));
#326 = DIRECTION('',(0.,0.,1.));
#327 = DIRECTION('',(1.,0.,0.));
#328 = ADVANCED_FACE('',(#329),#348,.T.);
#329 = FACE_BOUND('',#330,.T.);
#330 = EDGE_LOOP('',(#331,#332,#340,#347));
#331 = ORIENTED_EDGE('',*,*,#274,.T.);
#332 = ORIENTED_EDGE('',*,*,#333,.T.);
#333 = EDGE_CURVE('',#275,#334,#336,.T.);
#334 = VERTEX_POINT('',#335);
#335 = CARTESIAN_POINT('',(-17.,-13.,1.));
#336 = LINE('',#337,#338);
#337 = CARTESIAN_POINT('',(-17.,-13.,-4.5));
#338 = VECTOR('',#339,1.);
#339 = DIRECTION('',(0.,0.,1.));
#340 = ORIENTED_EDGE('',*,*,#341,.F.);
#341 = EDGE_CURVE('',#22,#334,#342,.T.);
#342 = CIRCLE('',#343,4.);
#343 = AXIS2_PLACEMENT_3D('',#344,#345,#346);
#344 = CARTESIAN_POINT('',(-17.,-9.,1.));
#345 = DIRECTION('',(-0.,0.,1.));
#346 = DIRECTION('',(0.,-1.,0.));
#347 = ORIENTED_EDGE('',*,*,#31,.F.);
#348 = CYLINDRICAL_SURFACE('',#349,4.);
#349 = AXIS2_PLACEMENT_3D('',#350,#351,#352);
#350 = CARTESIAN_POINT('',(-17.,-9.,-4.5));
#351 = DIRECTION('',(0.,0.,1.));
#352 = DIRECTION('',(-1.,0.,0.));
#353 = ADVANCED_FACE('',(#354),#379,.F.);
#354 = FACE_BOUND('',#355,.F.);
#355 = EDGE_LOOP('',(#356,#357,#365,#373));
#356 = ORIENTED_EDGE('',*,*,#87,.T.);
#357 = ORIENTED_EDGE('',*,*,#358,.F.);
#358 = EDGE_CURVE('',#359,#90,#361,.T.);
#359 = VERTEX_POINT('',#360);
#360 = CARTESIAN_POINT('',(-20.,-2.9,-3.));
#361 = LINE('',#362,#363);
#362 = CARTESIAN_POINT('',(-11.,-2.9,-3.));
#363 = VECTOR('',#364,1.);
#364 = DIRECTION('',(-1.,1.224646799147E-16,0.));
#365 = ORIENTED_EDGE('',*,*,#366,.F.);
#366 = EDGE_CURVE('',#367,#359,#369,.T.);
#367 = VERTEX_POINT('',#368);
#368 = CARTESIAN_POINT('',(-20.,-2.9,-2.995993579438));
#369 = LINE('',#370,#371);
#370 = CARTESIAN_POINT('',(-20.,-2.9,-3.25));
#371 = VECTOR('',#372,1.);
#372 = DIRECTION('',(0.,-0.,-1.));
#373 = ORIENTED_EDGE('',*,*,#374,.F.);
#374 = EDGE_CURVE('',#88,#367,#375,.T.);
#375 = LINE('',#376,#377);
#376 = CARTESIAN_POINT('',(-11.,-2.9,-2.995993579438));
#377 = VECTOR('',#378,1.);
#378 = DIRECTION('',(1.,-1.224646799147E-16,-2.22044604925E-16));
#379 = PLANE('',#380);
#380 = AXIS2_PLACEMENT_3D('',#381,#382,#383);
#381 = CARTESIAN_POINT('',(-11.,-2.9,-3.));
#382 = DIRECTION('',(-1.224646799147E-16,-1.,0.));
#383 = DIRECTION('',(0.,0.,1.));
#384 = ADVANCED_FACE('',(#385),#403,.T.);
#385 = FACE_BOUND('',#386,.T.);
#386 = EDGE_LOOP('',(#387,#388,#396,#402));
#387 = ORIENTED_EDGE('',*,*,#358,.F.);
#388 = ORIENTED_EDGE('',*,*,#389,.F.);
#389 = EDGE_CURVE('',#390,#359,#392,.T.);
#390 = VERTEX_POINT('',#391);
#391 = CARTESIAN_POINT('',(-20.,2.9,-3.));
#392 = LINE('',#393,#394);
#393 = CARTESIAN_POINT('',(-20.,-4.55,-3.));
#394 = VECTOR('',#395,1.);
#395 = DIRECTION('',(0.,-1.,0.));
#396 = ORIENTED_EDGE('',*,*,#397,.T.);
#397 = EDGE_CURVE('',#390,#140,#398,.T.);
#398 = LINE('',#399,#400);
#399 = CARTESIAN_POINT('',(-11.,2.9,-3.));
#400 = VECTOR('',#401,1.);
#401 = DIRECTION('',(-1.,1.224646799147E-16,0.));
#402 = ORIENTED_EDGE('',*,*,#147,.T.);
#403 = PLANE('',#404);
#404 = AXIS2_PLACEMENT_3D('',#405,#406,#407);
#405 = CARTESIAN_POINT('',(-11.,2.9,-3.));
#406 = DIRECTION('',(0.,0.,1.));
#407 = DIRECTION('',(-1.,1.224646799147E-16,0.));
#408 = ADVANCED_FACE('',(#409),#427,.T.);
#409 = FACE_BOUND('',#410,.T.);
#410 = EDGE_LOOP('',(#411,#412,#413,#421));
#411 = ORIENTED_EDGE('',*,*,#139,.T.);
#412 = ORIENTED_EDGE('',*,*,#397,.F.);
#413 = ORIENTED_EDGE('',*,*,#414,.F.);
#414 = EDGE_CURVE('',#415,#390,#417,.T.);
#415 = VERTEX_POINT('',#416);
#416 = CARTESIAN_POINT('',(-20.,2.9,-2.995993579438));
#417 = LINE('',#418,#419);
#418 = CARTESIAN_POINT('',(-20.,2.9,-3.25));
#419 = VECTOR('',#420,1.);
#420 = DIRECTION('',(0.,-0.,-1.));
#421 = ORIENTED_EDGE('',*,*,#422,.F.);
#422 = EDGE_CURVE('',#131,#415,#423,.T.);
#423 = LINE('',#424,#425);
#424 = CARTESIAN_POINT('',(-11.,2.9,-2.995993579438));
#425 = VECTOR('',#426,1.);
#426 = DIRECTION('',(1.,-1.224646799147E-16,-2.22044604925E-16));
#427 = PLANE('',#428);
#428 = AXIS2_PLACEMENT_3D('',#429,#430,#431);
#429 = CARTESIAN_POINT('',(-11.,2.9,-3.));
#430 = DIRECTION('',(-1.224646799147E-16,-1.,0.));
#431 = DIRECTION('',(0.,0.,1.));
#432 = ADVANCED_FACE('',(#433),#452,.F.);
#433 = FACE_BOUND('',#434,.T.);
#434 = EDGE_LOOP('',(#435,#443,#444,#445));
#435 = ORIENTED_EDGE('',*,*,#436,.F.);
#436 = EDGE_CURVE('',#123,#437,#439,.T.);
#437 = VERTEX_POINT('',#438);
#438 = CARTESIAN_POINT('',(-20.,2.9,-0.504006420562));
#439 = LINE('',#440,#441);
#440 = CARTESIAN_POINT('',(-11.,2.9,-0.504006420562));
#441 = VECTOR('',#442,1.);
#442 = DIRECTION('',(1.,-1.224646799147E-16,-2.22044604925E-16));
#443 = ORIENTED_EDGE('',*,*,#130,.F.);
#444 = ORIENTED_EDGE('',*,*,#422,.T.);
#445 = ORIENTED_EDGE('',*,*,#446,.T.);
#446 = EDGE_CURVE('',#415,#437,#447,.T.);
#447 = CIRCLE('',#448,1.25);
#448 = AXIS2_PLACEMENT_3D('',#449,#450,#451);
#449 = CARTESIAN_POINT('',(-20.,3.,-1.75));
#450 = DIRECTION('',(1.,-1.224646799147E-16,-2.22044604925E-16));
#451 = DIRECTION('',(-2.22044604925E-16,2.719262146894E-32,-1.));
#452 = CYLINDRICAL_SURFACE('',#453,1.25);
#453 = AXIS2_PLACEMENT_3D('',#454,#455,#456);
#454 = CARTESIAN_POINT('',(-11.,3.,-1.75));
#455 = DIRECTION('',(1.,-1.224646799147E-16,-2.22044604925E-16));
#456 = DIRECTION('',(-2.22044604925E-16,2.719262146894E-32,-1.));
#457 = ADVANCED_FACE('',(#458),#476,.T.);
#458 = FACE_BOUND('',#459,.T.);
#459 = EDGE_LOOP('',(#460,#461,#462,#470));
#460 = ORIENTED_EDGE('',*,*,#122,.T.);
#461 = ORIENTED_EDGE('',*,*,#436,.T.);
#462 = ORIENTED_EDGE('',*,*,#463,.F.);
#463 = EDGE_CURVE('',#464,#437,#466,.T.);
#464 = VERTEX_POINT('',#465);
#465 = CARTESIAN_POINT('',(-20.,2.9,-0.5));
#466 = LINE('',#467,#468);
#467 = CARTESIAN_POINT('',(-20.,2.9,-3.25));
#468 = VECTOR('',#469,1.);
#469 = DIRECTION('',(0.,-0.,-1.));
#470 = ORIENTED_EDGE('',*,*,#471,.T.);
#471 = EDGE_CURVE('',#464,#115,#472,.T.);
#472 = LINE('',#473,#474);
#473 = CARTESIAN_POINT('',(-11.,2.9,-0.5));
#474 = VECTOR('',#475,1.);
#475 = DIRECTION('',(-1.,1.224646799147E-16,0.));
#476 = PLANE('',#477);
#477 = AXIS2_PLACEMENT_3D('',#478,#479,#480);
#478 = CARTESIAN_POINT('',(-11.,2.9,-3.));
#479 = DIRECTION('',(-1.224646799147E-16,-1.,0.));
#480 = DIRECTION('',(0.,0.,1.));
#481 = ADVANCED_FACE('',(#482),#500,.F.);
#482 = FACE_BOUND('',#483,.F.);
#483 = EDGE_LOOP('',(#484,#492,#498,#499));
#484 = ORIENTED_EDGE('',*,*,#485,.F.);
#485 = EDGE_CURVE('',#486,#107,#488,.T.);
#486 = VERTEX_POINT('',#487);
#487 = CARTESIAN_POINT('',(-20.,-2.9,-0.5));
#488 = LINE('',#489,#490);
#489 = CARTESIAN_POINT('',(-11.,-2.9,-0.5));
#490 = VECTOR('',#491,1.);
#491 = DIRECTION('',(-1.,1.224646799147E-16,0.));
#492 = ORIENTED_EDGE('',*,*,#493,.F.);
#493 = EDGE_CURVE('',#464,#486,#494,.T.);
#494 = LINE('',#495,#496);
#495 = CARTESIAN_POINT('',(-20.,-4.55,-0.5));
#496 = VECTOR('',#497,1.);
#497 = DIRECTION('',(0.,-1.,0.));
#498 = ORIENTED_EDGE('',*,*,#471,.T.);
#499 = ORIENTED_EDGE('',*,*,#114,.T.);
#500 = PLANE('',#501);
#501 = AXIS2_PLACEMENT_3D('',#502,#503,#504);
#502 = CARTESIAN_POINT('',(-11.,2.9,-0.5));
#503 = DIRECTION('',(0.,0.,1.));
#504 = DIRECTION('',(-1.,1.224646799147E-16,0.));
#505 = ADVANCED_FACE('',(#506),#524,.F.);
#506 = FACE_BOUND('',#507,.F.);
#507 = EDGE_LOOP('',(#508,#509,#517,#523));
#508 = ORIENTED_EDGE('',*,*,#106,.T.);
#509 = ORIENTED_EDGE('',*,*,#510,.T.);
#510 = EDGE_CURVE('',#98,#511,#513,.T.);
#511 = VERTEX_POINT('',#512);
#512 = CARTESIAN_POINT('',(-20.,-2.9,-0.504006420562));
#513 = LINE('',#514,#515);
#514 = CARTESIAN_POINT('',(-11.,-2.9,-0.504006420562));
#515 = VECTOR('',#516,1.);
#516 = DIRECTION('',(1.,-1.224646799147E-16,-2.22044604925E-16));
#517 = ORIENTED_EDGE('',*,*,#518,.F.);
#518 = EDGE_CURVE('',#486,#511,#519,.T.);
#519 = LINE('',#520,#521);
#520 = CARTESIAN_POINT('',(-20.,-2.9,-3.25));
#521 = VECTOR('',#522,1.);
#522 = DIRECTION('',(0.,-0.,-1.));
#523 = ORIENTED_EDGE('',*,*,#485,.T.);
#524 = PLANE('',#525);
#525 = AXIS2_PLACEMENT_3D('',#526,#527,#528);
#526 = CARTESIAN_POINT('',(-11.,-2.9,-3.));
#527 = DIRECTION('',(-1.224646799147E-16,-1.,0.));
#528 = DIRECTION('',(0.,0.,1.));
#529 = ADVANCED_FACE('',(#530),#542,.F.);
#530 = FACE_BOUND('',#531,.T.);
#531 = EDGE_LOOP('',(#532,#533,#534,#535));
#532 = ORIENTED_EDGE('',*,*,#374,.F.);
#533 = ORIENTED_EDGE('',*,*,#97,.F.);
#534 = ORIENTED_EDGE('',*,*,#510,.T.);
#535 = ORIENTED_EDGE('',*,*,#536,.T.);
#536 = EDGE_CURVE('',#511,#367,#537,.T.);
#537 = CIRCLE('',#538,1.25);
#538 = AXIS2_PLACEMENT_3D('',#539,#540,#541);
#539 = CARTESIAN_POINT('',(-20.,-3.,-1.75));
#540 = DIRECTION('',(1.,-1.224646799147E-16,-2.22044604925E-16));
#541 = DIRECTION('',(-2.22044604925E-16,2.719262146894E-32,-1.));
#542 = CYLINDRICAL_SURFACE('',#543,1.25);
#543 = AXIS2_PLACEMENT_3D('',#544,#545,#546);
#544 = CARTESIAN_POINT('',(-11.,-3.,-1.75));
#545 = DIRECTION('',(1.,-1.224646799147E-16,-2.22044604925E-16));
#546 = DIRECTION('',(-2.22044604925E-16,2.719262146894E-32,-1.));
#547 = ADVANCED_FACE('',(#548,#591),#601,.T.);
#548 = FACE_BOUND('',#549,.T.);
#549 = EDGE_LOOP('',(#550,#558,#566,#574,#582,#588,#589,#590));
#550 = ORIENTED_EDGE('',*,*,#551,.F.);
#551 = EDGE_CURVE('',#552,#164,#554,.T.);
#552 = VERTEX_POINT('',#553);
#553 = CARTESIAN_POINT('',(-20.,-9.,1.));
#554 = LINE('',#555,#556);
#555 = CARTESIAN_POINT('',(-20.,-12.,1.));
#556 = VECTOR('',#557,1.);
#557 = DIRECTION('',(0.,1.,0.));
#558 = ORIENTED_EDGE('',*,*,#559,.F.);
#559 = EDGE_CURVE('',#560,#552,#562,.T.);
#560 = VERTEX_POINT('',#561);
#561 = CARTESIAN_POINT('',(-20.,-9.,-3.5));
#562 = LINE('',#563,#564);
#563 = CARTESIAN_POINT('',(-20.,-9.,-3.5));
#564 = VECTOR('',#565,1.);
#565 = DIRECTION('',(0.,0.,1.));
#566 = ORIENTED_EDGE('',*,*,#567,.T.);
#567 = EDGE_CURVE('',#560,#568,#570,.T.);
#568 = VERTEX_POINT('',#569);
#569 = CARTESIAN_POINT('',(-20.,9.,-3.5));
#570 = LINE('',#571,#572);
#571 = CARTESIAN_POINT('',(-20.,-12.,-3.5));
#572 = VECTOR('',#573,1.);
#573 = DIRECTION('',(0.,1.,0.));
#574 = ORIENTED_EDGE('',*,*,#575,.T.);
#575 = EDGE_CURVE('',#568,#576,#578,.T.);
#576 = VERTEX_POINT('',#577);
#577 = CARTESIAN_POINT('',(-20.,9.,1.));
#578 = LINE('',#579,#580);
#579 = CARTESIAN_POINT('',(-20.,9.,-3.5));
#580 = VECTOR('',#581,1.);
#581 = DIRECTION('',(0.,0.,1.));
#582 = ORIENTED_EDGE('',*,*,#583,.F.);
#583 = EDGE_CURVE('',#217,#576,#584,.T.);
#584 = LINE('',#585,#586);
#585 = CARTESIAN_POINT('',(-20.,-12.,1.));
#586 = VECTOR('',#587,1.);
#587 = DIRECTION('',(0.,1.,0.));
#588 = ORIENTED_EDGE('',*,*,#216,.F.);
#589 = ORIENTED_EDGE('',*,*,#193,.T.);
#590 = ORIENTED_EDGE('',*,*,#161,.T.);
#591 = FACE_BOUND('',#592,.T.);
#592 = EDGE_LOOP('',(#593,#594,#595,#596,#597,#598,#599,#600));
#593 = ORIENTED_EDGE('',*,*,#366,.F.);
#594 = ORIENTED_EDGE('',*,*,#536,.F.);
#595 = ORIENTED_EDGE('',*,*,#518,.F.);
#596 = ORIENTED_EDGE('',*,*,#493,.F.);
#597 = ORIENTED_EDGE('',*,*,#463,.T.);
#598 = ORIENTED_EDGE('',*,*,#446,.F.);
#599 = ORIENTED_EDGE('',*,*,#414,.T.);
#600 = ORIENTED_EDGE('',*,*,#389,.T.);
#601 = PLANE('',#602);
#602 = AXIS2_PLACEMENT_3D('',#603,#604,#605);
#603 = CARTESIAN_POINT('',(-20.,-12.,-3.5));
#604 = DIRECTION('',(1.,0.,0.));
#605 = DIRECTION('',(0.,0.,1.));
#606 = ADVANCED_FACE('',(#607),#634,.F.);
#607 = FACE_BOUND('',#608,.F.);
#608 = EDGE_LOOP('',(#609,#618,#626,#633));
#609 = ORIENTED_EDGE('',*,*,#610,.T.);
#610 = EDGE_CURVE('',#560,#611,#613,.T.);
#611 = VERTEX_POINT('',#612);
#612 = CARTESIAN_POINT('',(-17.,-12.,-3.5));
#613 = CIRCLE('',#614,3.);
#614 = AXIS2_PLACEMENT_3D('',#615,#616,#617);
#615 = CARTESIAN_POINT('',(-17.,-9.,-3.5));
#616 = DIRECTION('',(-0.,0.,1.));
#617 = DIRECTION('',(0.,-1.,0.));
#618 = ORIENTED_EDGE('',*,*,#619,.T.);
#619 = EDGE_CURVE('',#611,#620,#622,.T.);
#620 = VERTEX_POINT('',#621);
#621 = CARTESIAN_POINT('',(-17.,-12.,1.));
#622 = LINE('',#623,#624);
#623 = CARTESIAN_POINT('',(-17.,-12.,-3.5));
#624 = VECTOR('',#625,1.);
#625 = DIRECTION('',(0.,0.,1.));
#626 = ORIENTED_EDGE('',*,*,#627,.F.);
#627 = EDGE_CURVE('',#552,#620,#628,.T.);
#628 = CIRCLE('',#629,3.);
#629 = AXIS2_PLACEMENT_3D('',#630,#631,#632);
#630 = CARTESIAN_POINT('',(-17.,-9.,1.));
#631 = DIRECTION('',(-0.,0.,1.));
#632 = DIRECTION('',(0.,-1.,0.));
#633 = ORIENTED_EDGE('',*,*,#559,.F.);
#634 = CYLINDRICAL_SURFACE('',#635,3.);
#635 = AXIS2_PLACEMENT_3D('',#636,#637,#638);
#636 = CARTESIAN_POINT('',(-17.,-9.,-3.5));
#637 = DIRECTION('',(0.,0.,1.));
#638 = DIRECTION('',(-1.,0.,0.));
#639 = ADVANCED_FACE('',(#640),#697,.T.);
#640 = FACE_BOUND('',#641,.T.);
#641 = EDGE_LOOP('',(#642,#650,#651,#659,#667,#675,#683,#691));
#642 = ORIENTED_EDGE('',*,*,#643,.F.);
#643 = EDGE_CURVE('',#611,#644,#646,.T.);
#644 = VERTEX_POINT('',#645);
#645 = CARTESIAN_POINT('',(17.,-12.,-3.5));
#646 = LINE('',#647,#648);
#647 = CARTESIAN_POINT('',(-20.,-12.,-3.5));
#648 = VECTOR('',#649,1.);
#649 = DIRECTION('',(1.,0.,0.));
#650 = ORIENTED_EDGE('',*,*,#619,.T.);
#651 = ORIENTED_EDGE('',*,*,#652,.T.);
#652 = EDGE_CURVE('',#620,#653,#655,.T.);
#653 = VERTEX_POINT('',#654);
#654 = CARTESIAN_POINT('',(12.4,-12.,1.));
#655 = LINE('',#656,#657);
#656 = CARTESIAN_POINT('',(-20.,-12.,1.));
#657 = VECTOR('',#658,1.);
#658 = DIRECTION('',(1.,0.,0.));
#659 = ORIENTED_EDGE('',*,*,#660,.T.);
#660 = EDGE_CURVE('',#653,#661,#663,.T.);
#661 = VERTEX_POINT('',#662);
#662 = CARTESIAN_POINT('',(12.4,-12.,-0.5));
#663 = LINE('',#664,#665);
#664 = CARTESIAN_POINT('',(12.4,-12.,-2.));
#665 = VECTOR('',#666,1.);
#666 = DIRECTION('',(0.,0.,-1.));
#667 = ORIENTED_EDGE('',*,*,#668,.T.);
#668 = EDGE_CURVE('',#661,#669,#671,.T.);
#669 = VERTEX_POINT('',#670);
#670 = CARTESIAN_POINT('',(16.2,-12.,-0.5));
#671 = LINE('',#672,#673);
#672 = CARTESIAN_POINT('',(-3.8,-12.,-0.5));
#673 = VECTOR('',#674,1.);
#674 = DIRECTION('',(1.,0.,0.));
#675 = ORIENTED_EDGE('',*,*,#676,.F.);
#676 = EDGE_CURVE('',#677,#669,#679,.T.);
#677 = VERTEX_POINT('',#678);
#678 = CARTESIAN_POINT('',(16.2,-12.,1.));
#679 = LINE('',#680,#681);
#680 = CARTESIAN_POINT('',(16.2,-12.,-2.));
#681 = VECTOR('',#682,1.);
#682 = DIRECTION('',(0.,0.,-1.));
#683 = ORIENTED_EDGE('',*,*,#684,.T.);
#684 = EDGE_CURVE('',#677,#685,#687,.T.);
#685 = VERTEX_POINT('',#686);
#686 = CARTESIAN_POINT('',(17.,-12.,1.));
#687 = LINE('',#688,#689);
#688 = CARTESIAN_POINT('',(-20.,-12.,1.));
#689 = VECTOR('',#690,1.);
#690 = DIRECTION('',(1.,0.,0.));
#691 = ORIENTED_EDGE('',*,*,#692,.F.);
#692 = EDGE_CURVE('',#644,#685,#693,.T.);
#693 = LINE('',#694,#695);
#694 = CARTESIAN_POINT('',(17.,-12.,-3.5));
#695 = VECTOR('',#696,1.);
#696 = DIRECTION('',(0.,0.,1.));
#697 = PLANE('',#698);
#698 = AXIS2_PLACEMENT_3D('',#699,#700,#701);
#699 = CARTESIAN_POINT('',(-20.,-12.,-3.5));
#700 = DIRECTION('',(0.,1.,0.));
#701 = DIRECTION('',(0.,0.,1.));
#702 = ADVANCED_FACE('',(#703),#730,.F.);
#703 = FACE_BOUND('',#704,.F.);
#704 = EDGE_LOOP('',(#705,#706,#707,#715,#724));
#705 = ORIENTED_EDGE('',*,*,#283,.F.);
#706 = ORIENTED_EDGE('',*,*,#333,.T.);
#707 = ORIENTED_EDGE('',*,*,#708,.T.);
#708 = EDGE_CURVE('',#334,#709,#711,.T.);
#709 = VERTEX_POINT('',#710);
#710 = CARTESIAN_POINT('',(11.050384638146,-13.,1.));
#711 = LINE('',#712,#713);
#712 = CARTESIAN_POINT('',(-21.,-13.,1.));
#713 = VECTOR('',#714,1.);
#714 = DIRECTION('',(1.,0.,0.));
#715 = ORIENTED_EDGE('',*,*,#716,.F.);
#716 = EDGE_CURVE('',#717,#709,#719,.T.);
#717 = VERTEX_POINT('',#718);
#718 = CARTESIAN_POINT('',(17.,-13.,-0.808314132003));
#719 = CIRCLE('',#720,3.249615361854);
#720 = AXIS2_PLACEMENT_3D('',#721,#722,#723);
#721 = CARTESIAN_POINT('',(14.3,-13.,1.));
#722 = DIRECTION('',(0.,1.,0.));
#723 = DIRECTION('',(0.,-0.,1.));
#724 = ORIENTED_EDGE('',*,*,#725,.F.);
#725 = EDGE_CURVE('',#284,#717,#726,.T.);
#726 = LINE('',#727,#728);
#727 = CARTESIAN_POINT('',(17.,-13.,-4.5));
#728 = VECTOR('',#729,1.);
#729 = DIRECTION('',(0.,0.,1.));
#730 = PLANE('',#731);
#731 = AXIS2_PLACEMENT_3D('',#732,#733,#734);
#732 = CARTESIAN_POINT('',(-21.,-13.,-4.5));
#733 = DIRECTION('',(0.,1.,0.));
#734 = DIRECTION('',(0.,0.,1.));
#735 = ADVANCED_FACE('',(#736),#771,.F.);
#736 = FACE_BOUND('',#737,.F.);
#737 = EDGE_LOOP('',(#738,#748,#756,#764));
#738 = ORIENTED_EDGE('',*,*,#739,.F.);
#739 = EDGE_CURVE('',#740,#742,#744,.T.);
#740 = VERTEX_POINT('',#741);
#741 = CARTESIAN_POINT('',(12.4,-12.1,1.));
#742 = VERTEX_POINT('',#743);
#743 = CARTESIAN_POINT('',(12.594127789077,-12.1,1.));
#744 = LINE('',#745,#746);
#745 = CARTESIAN_POINT('',(-3.358125,-12.1,1.));
#746 = VECTOR('',#747,1.);
#747 = DIRECTION('',(1.,0.,0.));
#748 = ORIENTED_EDGE('',*,*,#749,.F.);
#749 = EDGE_CURVE('',#750,#740,#752,.T.);
#750 = VERTEX_POINT('',#751);
#751 = CARTESIAN_POINT('',(12.4,-12.1,-0.5));
#752 = LINE('',#753,#754);
#753 = CARTESIAN_POINT('',(12.4,-12.1,-0.5));
#754 = VECTOR('',#755,1.);
#755 = DIRECTION('',(0.,0.,1.));
#756 = ORIENTED_EDGE('',*,*,#757,.T.);
#757 = EDGE_CURVE('',#750,#758,#760,.T.);
#758 = VERTEX_POINT('',#759);
#759 = CARTESIAN_POINT('',(13.487596159536,-12.1,-0.5));
#760 = LINE('',#761,#762);
#761 = CARTESIAN_POINT('',(12.4,-12.1,-0.5));
#762 = VECTOR('',#763,1.);
#763 = DIRECTION('',(1.,0.,0.));
#764 = ORIENTED_EDGE('',*,*,#765,.F.);
#765 = EDGE_CURVE('',#742,#758,#766,.T.);
#766 = CIRCLE('',#767,1.705872210923);
#767 = AXIS2_PLACEMENT_3D('',#768,#769,#770);
#768 = CARTESIAN_POINT('',(14.3,-12.1,1.));
#769 = DIRECTION('',(0.,-1.,0.));
#770 = DIRECTION('',(0.,0.,-1.));
#771 = PLANE('',#772);
#772 = AXIS2_PLACEMENT_3D('',#773,#774,#775);
#773 = CARTESIAN_POINT('',(14.28375,-12.1,1.1125));
#774 = DIRECTION('',(-0.,-1.,-0.));
#775 = DIRECTION('',(0.,0.,-1.));
#776 = ADVANCED_FACE('',(#777),#838,.F.);
#777 = FACE_BOUND('',#778,.F.);
#778 = EDGE_LOOP('',(#779,#788,#797,#806,#829,#830,#837));
#779 = ORIENTED_EDGE('',*,*,#780,.F.);
#780 = EDGE_CURVE('',#781,#758,#783,.T.);
#781 = VERTEX_POINT('',#782);
#782 = CARTESIAN_POINT('',(15.112403840464,-12.1,-0.5));
#783 = CIRCLE('',#784,4.769696007085);
#784 = AXIS2_PLACEMENT_3D('',#785,#786,#787);
#785 = CARTESIAN_POINT('',(14.3,-16.8,-0.5));
#786 = DIRECTION('',(0.,0.,1.));
#787 = DIRECTION('',(1.,0.,0.));
#788 = ORIENTED_EDGE('',*,*,#789,.T.);
#789 = EDGE_CURVE('',#781,#790,#792,.T.);
#790 = VERTEX_POINT('',#791);
#791 = CARTESIAN_POINT('',(16.005872210923,-12.1,1.));
#792 = CIRCLE('',#793,1.705872210923);
#793 = AXIS2_PLACEMENT_3D('',#794,#795,#796);
#794 = CARTESIAN_POINT('',(14.3,-12.1,1.));
#795 = DIRECTION('',(0.,-1.,0.));
#796 = DIRECTION('',(0.,0.,-1.));
#797 = ORIENTED_EDGE('',*,*,#798,.F.);
#798 = EDGE_CURVE('',#799,#790,#801,.T.);
#799 = VERTEX_POINT('',#800);
#800 = CARTESIAN_POINT('',(17.510908145858,-12.9672374351,1.));
#801 = CIRCLE('',#802,5.);
#802 = AXIS2_PLACEMENT_3D('',#803,#804,#805);
#803 = CARTESIAN_POINT('',(14.3,-16.8,1.));
#804 = DIRECTION('',(0.,0.,1.));
#805 = DIRECTION('',(1.,0.,-0.));
#806 = ORIENTED_EDGE('',*,*,#807,.T.);
#807 = EDGE_CURVE('',#799,#717,#808,.T.);
#808 = B_SPLINE_CURVE_WITH_KNOTS('',7,(#809,#810,#811,#812,#813,#814,
    #815,#816,#817,#818,#819,#820,#821,#822,#823,#824,#825,#826,#827,
    #828),.UNSPECIFIED.,.F.,.F.,(8,6,6,8),(0.,5.210155829408E-05,
    0.741371402635,1.),.UNSPECIFIED.);
#809 = CARTESIAN_POINT('',(17.510908143187,-12.96723743544,
    1.000140683554));
#810 = CARTESIAN_POINT('',(17.510908143714,-12.96723743538,
    1.000126796005));
#811 = CARTESIAN_POINT('',(17.510908144181,-12.96723743532,
    1.000112908456));
#812 = CARTESIAN_POINT('',(17.510908144587,-12.96723743526,
    1.000099020907));
#813 = CARTESIAN_POINT('',(17.510908144932,-12.96723743522,
    1.000085133357));
#814 = CARTESIAN_POINT('',(17.510908145216,-12.96723743518,
    1.000071245808));
#815 = CARTESIAN_POINT('',(17.51090814544,-12.96723743515,1.000057358259
    ));
#816 = CARTESIAN_POINT('',(17.510910464319,-12.96723713652,
    0.802446535496));
#817 = CARTESIAN_POINT('',(17.49861920791,-12.96882183815,0.60525584359)
  );
#818 = CARTESIAN_POINT('',(17.474111114056,-12.97197234717,
    0.408613581579));
#819 = CARTESIAN_POINT('',(17.437050026876,-12.97651073739,
    0.212871247124));
#820 = CARTESIAN_POINT('',(17.386701607046,-12.98201428799,
    1.868056938333E-02));
#821 = CARTESIAN_POINT('',(17.322103130992,-12.98782987522,
    -0.173095803258));
#822 = CARTESIAN_POINT('',(17.21323845683,-12.99441173069,
    -0.426758465972));
#823 = CARTESIAN_POINT('',(17.183123087612,-12.99599995206,
    -0.49190764762));
#824 = CARTESIAN_POINT('',(17.150970015166,-12.99742114328,
    -0.556545133895));
#825 = CARTESIAN_POINT('',(17.116689584922,-12.99861287552,
    -0.620600913031));
#826 = CARTESIAN_POINT('',(17.080181876108,-12.9995017568,
    -0.683988062563));
#827 = CARTESIAN_POINT('',(17.041331910416,-13.,-0.746601315546));
#828 = CARTESIAN_POINT('',(17.,-13.,-0.808314132003));
#829 = ORIENTED_EDGE('',*,*,#716,.T.);
#830 = ORIENTED_EDGE('',*,*,#831,.F.);
#831 = EDGE_CURVE('',#742,#709,#832,.T.);
#832 = CIRCLE('',#833,5.);
#833 = AXIS2_PLACEMENT_3D('',#834,#835,#836);
#834 = CARTESIAN_POINT('',(14.3,-16.8,1.));
#835 = DIRECTION('',(0.,0.,1.));
#836 = DIRECTION('',(1.,0.,-0.));
#837 = ORIENTED_EDGE('',*,*,#765,.T.);
#838 = SPHERICAL_SURFACE('',#839,5.);
#839 = AXIS2_PLACEMENT_3D('',#840,#841,#842);
#840 = CARTESIAN_POINT('',(14.3,-16.8,1.));
#841 = DIRECTION('',(0.,0.,1.));
#842 = DIRECTION('',(1.,0.,0.));
#843 = ADVANCED_FACE('',(#844),#862,.T.);
#844 = FACE_BOUND('',#845,.T.);
#845 = EDGE_LOOP('',(#846,#847,#848,#856));
#846 = ORIENTED_EDGE('',*,*,#317,.F.);
#847 = ORIENTED_EDGE('',*,*,#249,.T.);
#848 = ORIENTED_EDGE('',*,*,#849,.T.);
#849 = EDGE_CURVE('',#250,#850,#852,.T.);
#850 = VERTEX_POINT('',#851);
#851 = CARTESIAN_POINT('',(17.,13.,1.));
#852 = LINE('',#853,#854);
#853 = CARTESIAN_POINT('',(-21.,13.,1.));
#854 = VECTOR('',#855,1.);
#855 = DIRECTION('',(1.,0.,0.));
#856 = ORIENTED_EDGE('',*,*,#857,.F.);
#857 = EDGE_CURVE('',#309,#850,#858,.T.);
#858 = LINE('',#859,#860);
#859 = CARTESIAN_POINT('',(17.,13.,-4.5));
#860 = VECTOR('',#861,1.);
#861 = DIRECTION('',(0.,0.,1.));
#862 = PLANE('',#863);
#863 = AXIS2_PLACEMENT_3D('',#864,#865,#866);
#864 = CARTESIAN_POINT('',(-21.,13.,-4.5));
#865 = DIRECTION('',(0.,1.,0.));
#866 = DIRECTION('',(0.,0.,1.));
#867 = ADVANCED_FACE('',(#868),#887,.T.);
#868 = FACE_BOUND('',#869,.T.);
#869 = EDGE_LOOP('',(#870,#871,#872,#881));
#870 = ORIENTED_EDGE('',*,*,#308,.T.);
#871 = ORIENTED_EDGE('',*,*,#857,.T.);
#872 = ORIENTED_EDGE('',*,*,#873,.F.);
#873 = EDGE_CURVE('',#874,#850,#876,.T.);
#874 = VERTEX_POINT('',#875);
#875 = CARTESIAN_POINT('',(21.,9.,1.));
#876 = CIRCLE('',#877,4.);
#877 = AXIS2_PLACEMENT_3D('',#878,#879,#880);
#878 = CARTESIAN_POINT('',(17.,9.,1.));
#879 = DIRECTION('',(-0.,0.,1.));
#880 = DIRECTION('',(0.,-1.,0.));
#881 = ORIENTED_EDGE('',*,*,#882,.F.);
#882 = EDGE_CURVE('',#301,#874,#883,.T.);
#883 = LINE('',#884,#885);
#884 = CARTESIAN_POINT('',(21.,9.,-4.5));
#885 = VECTOR('',#886,1.);
#886 = DIRECTION('',(0.,0.,1.));
#887 = CYLINDRICAL_SURFACE('',#888,4.);
#888 = AXIS2_PLACEMENT_3D('',#889,#890,#891);
#889 = CARTESIAN_POINT('',(17.,9.,-4.5));
#890 = DIRECTION('',(0.,0.,1.));
#891 = DIRECTION('',(1.,0.,0.));
#892 = ADVANCED_FACE('',(#893,#911),#979,.T.);
#893 = FACE_BOUND('',#894,.T.);
#894 = EDGE_LOOP('',(#895,#903,#909,#910));
#895 = ORIENTED_EDGE('',*,*,#896,.F.);
#896 = EDGE_CURVE('',#897,#874,#899,.T.);
#897 = VERTEX_POINT('',#898);
#898 = CARTESIAN_POINT('',(21.,-9.,1.));
#899 = LINE('',#900,#901);
#900 = CARTESIAN_POINT('',(21.,-13.,1.));
#901 = VECTOR('',#902,1.);
#902 = DIRECTION('',(0.,1.,0.));
#903 = ORIENTED_EDGE('',*,*,#904,.F.);
#904 = EDGE_CURVE('',#292,#897,#905,.T.);
#905 = LINE('',#906,#907);
#906 = CARTESIAN_POINT('',(21.,-9.,-4.5));
#907 = VECTOR('',#908,1.);
#908 = DIRECTION('',(0.,0.,1.));
#909 = ORIENTED_EDGE('',*,*,#300,.T.);
#910 = ORIENTED_EDGE('',*,*,#882,.T.);
#911 = FACE_BOUND('',#912,.T.);
#912 = EDGE_LOOP('',(#913,#923,#931,#939,#948,#956,#964,#972));
#913 = ORIENTED_EDGE('',*,*,#914,.F.);
#914 = EDGE_CURVE('',#915,#917,#919,.T.);
#915 = VERTEX_POINT('',#916);
#916 = CARTESIAN_POINT('',(21.,2.9,-3.));
#917 = VERTEX_POINT('',#918);
#918 = CARTESIAN_POINT('',(21.,2.9,-2.995993579438));
#919 = LINE('',#920,#921);
#920 = CARTESIAN_POINT('',(21.,2.9,-3.75));
#921 = VECTOR('',#922,1.);
#922 = DIRECTION('',(0.,0.,1.));
#923 = ORIENTED_EDGE('',*,*,#924,.T.);
#924 = EDGE_CURVE('',#915,#925,#927,.T.);
#925 = VERTEX_POINT('',#926);
#926 = CARTESIAN_POINT('',(21.,-2.9,-3.));
#927 = LINE('',#928,#929);
#928 = CARTESIAN_POINT('',(21.,-7.95,-3.));
#929 = VECTOR('',#930,1.);
#930 = DIRECTION('',(0.,-1.,0.));
#931 = ORIENTED_EDGE('',*,*,#932,.T.);
#932 = EDGE_CURVE('',#925,#933,#935,.T.);
#933 = VERTEX_POINT('',#934);
#934 = CARTESIAN_POINT('',(21.,-2.9,-2.995993579438));
#935 = LINE('',#936,#937);
#936 = CARTESIAN_POINT('',(21.,-2.9,-3.75));
#937 = VECTOR('',#938,1.);
#938 = DIRECTION('',(0.,0.,1.));
#939 = ORIENTED_EDGE('',*,*,#940,.T.);
#940 = EDGE_CURVE('',#933,#941,#943,.T.);
#941 = VERTEX_POINT('',#942);
#942 = CARTESIAN_POINT('',(21.,-2.9,-0.504006420562));
#943 = CIRCLE('',#944,1.25);
#944 = AXIS2_PLACEMENT_3D('',#945,#946,#947);
#945 = CARTESIAN_POINT('',(21.,-3.,-1.75));
#946 = DIRECTION('',(-1.,-0.,-2.22044604925E-16));
#947 = DIRECTION('',(2.22044604925E-16,0.,-1.));
#948 = ORIENTED_EDGE('',*,*,#949,.T.);
#949 = EDGE_CURVE('',#941,#950,#952,.T.);
#950 = VERTEX_POINT('',#951);
#951 = CARTESIAN_POINT('',(21.,-2.9,-0.5));
#952 = LINE('',#953,#954);
#953 = CARTESIAN_POINT('',(21.,-2.9,-3.75));
#954 = VECTOR('',#955,1.);
#955 = DIRECTION('',(0.,0.,1.));
#956 = ORIENTED_EDGE('',*,*,#957,.F.);
#957 = EDGE_CURVE('',#958,#950,#960,.T.);
#958 = VERTEX_POINT('',#959);
#959 = CARTESIAN_POINT('',(21.,2.9,-0.5));
#960 = LINE('',#961,#962);
#961 = CARTESIAN_POINT('',(21.,-7.95,-0.5));
#962 = VECTOR('',#963,1.);
#963 = DIRECTION('',(0.,-1.,0.));
#964 = ORIENTED_EDGE('',*,*,#965,.F.);
#965 = EDGE_CURVE('',#966,#958,#968,.T.);
#966 = VERTEX_POINT('',#967);
#967 = CARTESIAN_POINT('',(21.,2.9,-0.504006420562));
#968 = LINE('',#969,#970);
#969 = CARTESIAN_POINT('',(21.,2.9,-3.75));
#970 = VECTOR('',#971,1.);
#971 = DIRECTION('',(0.,0.,1.));
#972 = ORIENTED_EDGE('',*,*,#973,.T.);
#973 = EDGE_CURVE('',#966,#917,#974,.T.);
#974 = CIRCLE('',#975,1.25);
#975 = AXIS2_PLACEMENT_3D('',#976,#977,#978);
#976 = CARTESIAN_POINT('',(21.,3.,-1.75));
#977 = DIRECTION('',(-1.,-0.,-2.22044604925E-16));
#978 = DIRECTION('',(2.22044604925E-16,0.,-1.));
#979 = PLANE('',#980);
#980 = AXIS2_PLACEMENT_3D('',#981,#982,#983);
#981 = CARTESIAN_POINT('',(21.,-13.,-4.5));
#982 = DIRECTION('',(1.,0.,0.));
#983 = DIRECTION('',(0.,0.,1.));
#984 = ADVANCED_FACE('',(#985),#998,.T.);
#985 = FACE_BOUND('',#986,.F.);
#986 = EDGE_LOOP('',(#987,#988,#989,#990,#991));
#987 = ORIENTED_EDGE('',*,*,#904,.F.);
#988 = ORIENTED_EDGE('',*,*,#291,.T.);
#989 = ORIENTED_EDGE('',*,*,#725,.T.);
#990 = ORIENTED_EDGE('',*,*,#807,.F.);
#991 = ORIENTED_EDGE('',*,*,#992,.F.);
#992 = EDGE_CURVE('',#897,#799,#993,.T.);
#993 = CIRCLE('',#994,4.);
#994 = AXIS2_PLACEMENT_3D('',#995,#996,#997);
#995 = CARTESIAN_POINT('',(17.,-9.,1.));
#996 = DIRECTION('',(-0.,-0.,-1.));
#997 = DIRECTION('',(0.,-1.,0.));
#998 = CYLINDRICAL_SURFACE('',#999,4.);
#999 = AXIS2_PLACEMENT_3D('',#1000,#1001,#1002);
#1000 = CARTESIAN_POINT('',(17.,-9.,-4.5));
#1001 = DIRECTION('',(0.,0.,1.));
#1002 = DIRECTION('',(1.,0.,0.));
#1003 = ADVANCED_FACE('',(#1004),#1029,.F.);
#1004 = FACE_BOUND('',#1005,.F.);
#1005 = EDGE_LOOP('',(#1006,#1014,#1015,#1023));
#1006 = ORIENTED_EDGE('',*,*,#1007,.F.);
#1007 = EDGE_CURVE('',#790,#1008,#1010,.T.);
#1008 = VERTEX_POINT('',#1009);
#1009 = CARTESIAN_POINT('',(16.2,-12.1,1.));
#1010 = LINE('',#1011,#1012);
#1011 = CARTESIAN_POINT('',(-3.358125,-12.1,1.));
#1012 = VECTOR('',#1013,1.);
#1013 = DIRECTION('',(1.,0.,0.));
#1014 = ORIENTED_EDGE('',*,*,#789,.F.);
#1015 = ORIENTED_EDGE('',*,*,#1016,.T.);
#1016 = EDGE_CURVE('',#781,#1017,#1019,.T.);
#1017 = VERTEX_POINT('',#1018);
#1018 = CARTESIAN_POINT('',(16.2,-12.1,-0.5));
#1019 = LINE('',#1020,#1021);
#1020 = CARTESIAN_POINT('',(12.4,-12.1,-0.5));
#1021 = VECTOR('',#1022,1.);
#1022 = DIRECTION('',(1.,0.,0.));
#1023 = ORIENTED_EDGE('',*,*,#1024,.T.);
#1024 = EDGE_CURVE('',#1017,#1008,#1025,.T.);
#1025 = LINE('',#1026,#1027);
#1026 = CARTESIAN_POINT('',(16.2,-12.1,-0.5));
#1027 = VECTOR('',#1028,1.);
#1028 = DIRECTION('',(0.,0.,1.));
#1029 = PLANE('',#1030);
#1030 = AXIS2_PLACEMENT_3D('',#1031,#1032,#1033);
#1031 = CARTESIAN_POINT('',(14.28375,-12.1,1.1125));
#1032 = DIRECTION('',(-0.,-1.,-0.));
#1033 = DIRECTION('',(0.,0.,-1.));
#1034 = ADVANCED_FACE('',(#1035),#1062,.F.);
#1035 = FACE_BOUND('',#1036,.T.);
#1036 = EDGE_LOOP('',(#1037,#1046,#1047,#1056));
#1037 = ORIENTED_EDGE('',*,*,#1038,.T.);
#1038 = EDGE_CURVE('',#1039,#644,#1041,.T.);
#1039 = VERTEX_POINT('',#1040);
#1040 = CARTESIAN_POINT('',(20.,-9.,-3.5));
#1041 = CIRCLE('',#1042,3.);
#1042 = AXIS2_PLACEMENT_3D('',#1043,#1044,#1045);
#1043 = CARTESIAN_POINT('',(17.,-9.,-3.5));
#1044 = DIRECTION('',(-0.,-0.,-1.));
#1045 = DIRECTION('',(0.,-1.,0.));
#1046 = ORIENTED_EDGE('',*,*,#692,.T.);
#1047 = ORIENTED_EDGE('',*,*,#1048,.F.);
#1048 = EDGE_CURVE('',#1049,#685,#1051,.T.);
#1049 = VERTEX_POINT('',#1050);
#1050 = CARTESIAN_POINT('',(20.,-9.,1.));
#1051 = CIRCLE('',#1052,3.);
#1052 = AXIS2_PLACEMENT_3D('',#1053,#1054,#1055);
#1053 = CARTESIAN_POINT('',(17.,-9.,1.));
#1054 = DIRECTION('',(-0.,-0.,-1.));
#1055 = DIRECTION('',(0.,-1.,0.));
#1056 = ORIENTED_EDGE('',*,*,#1057,.F.);
#1057 = EDGE_CURVE('',#1039,#1049,#1058,.T.);
#1058 = LINE('',#1059,#1060);
#1059 = CARTESIAN_POINT('',(20.,-9.,-3.5));
#1060 = VECTOR('',#1061,1.);
#1061 = DIRECTION('',(0.,0.,1.));
#1062 = CYLINDRICAL_SURFACE('',#1063,3.);
#1063 = AXIS2_PLACEMENT_3D('',#1064,#1065,#1066);
#1064 = CARTESIAN_POINT('',(17.,-9.,-3.5));
#1065 = DIRECTION('',(0.,0.,1.));
#1066 = DIRECTION('',(1.,0.,0.));
#1067 = ADVANCED_FACE('',(#1068,#1093),#1161,.F.);
#1068 = FACE_BOUND('',#1069,.F.);
#1069 = EDGE_LOOP('',(#1070,#1078,#1079,#1087));
#1070 = ORIENTED_EDGE('',*,*,#1071,.F.);
#1071 = EDGE_CURVE('',#1049,#1072,#1074,.T.);
#1072 = VERTEX_POINT('',#1073);
#1073 = CARTESIAN_POINT('',(20.,9.,1.));
#1074 = LINE('',#1075,#1076);
#1075 = CARTESIAN_POINT('',(20.,-12.,1.));
#1076 = VECTOR('',#1077,1.);
#1077 = DIRECTION('',(0.,1.,0.));
#1078 = ORIENTED_EDGE('',*,*,#1057,.F.);
#1079 = ORIENTED_EDGE('',*,*,#1080,.T.);
#1080 = EDGE_CURVE('',#1039,#1081,#1083,.T.);
#1081 = VERTEX_POINT('',#1082);
#1082 = CARTESIAN_POINT('',(20.,9.,-3.5));
#1083 = LINE('',#1084,#1085);
#1084 = CARTESIAN_POINT('',(20.,-12.,-3.5));
#1085 = VECTOR('',#1086,1.);
#1086 = DIRECTION('',(0.,1.,0.));
#1087 = ORIENTED_EDGE('',*,*,#1088,.T.);
#1088 = EDGE_CURVE('',#1081,#1072,#1089,.T.);
#1089 = LINE('',#1090,#1091);
#1090 = CARTESIAN_POINT('',(20.,9.,-3.5));
#1091 = VECTOR('',#1092,1.);
#1092 = DIRECTION('',(0.,0.,1.));
#1093 = FACE_BOUND('',#1094,.F.);
#1094 = EDGE_LOOP('',(#1095,#1105,#1113,#1121,#1130,#1138,#1146,#1154));
#1095 = ORIENTED_EDGE('',*,*,#1096,.F.);
#1096 = EDGE_CURVE('',#1097,#1099,#1101,.T.);
#1097 = VERTEX_POINT('',#1098);
#1098 = CARTESIAN_POINT('',(20.,2.9,-3.));
#1099 = VERTEX_POINT('',#1100);
#1100 = CARTESIAN_POINT('',(20.,2.9,-2.995993579438));
#1101 = LINE('',#1102,#1103);
#1102 = CARTESIAN_POINT('',(20.,2.9,-3.25));
#1103 = VECTOR('',#1104,1.);
#1104 = DIRECTION('',(0.,0.,1.));
#1105 = ORIENTED_EDGE('',*,*,#1106,.T.);
#1106 = EDGE_CURVE('',#1097,#1107,#1109,.T.);
#1107 = VERTEX_POINT('',#1108);
#1108 = CARTESIAN_POINT('',(20.,-2.9,-3.));
#1109 = LINE('',#1110,#1111);
#1110 = CARTESIAN_POINT('',(20.,-7.45,-3.));
#1111 = VECTOR('',#1112,1.);
#1112 = DIRECTION('',(0.,-1.,0.));
#1113 = ORIENTED_EDGE('',*,*,#1114,.T.);
#1114 = EDGE_CURVE('',#1107,#1115,#1117,.T.);
#1115 = VERTEX_POINT('',#1116);
#1116 = CARTESIAN_POINT('',(20.,-2.9,-2.995993579438));
#1117 = LINE('',#1118,#1119);
#1118 = CARTESIAN_POINT('',(20.,-2.9,-3.25));
#1119 = VECTOR('',#1120,1.);
#1120 = DIRECTION('',(0.,0.,1.));
#1121 = ORIENTED_EDGE('',*,*,#1122,.T.);
#1122 = EDGE_CURVE('',#1115,#1123,#1125,.T.);
#1123 = VERTEX_POINT('',#1124);
#1124 = CARTESIAN_POINT('',(20.,-2.9,-0.504006420562));
#1125 = CIRCLE('',#1126,1.25);
#1126 = AXIS2_PLACEMENT_3D('',#1127,#1128,#1129);
#1127 = CARTESIAN_POINT('',(20.,-3.,-1.75));
#1128 = DIRECTION('',(-1.,-0.,-2.22044604925E-16));
#1129 = DIRECTION('',(2.22044604925E-16,0.,-1.));
#1130 = ORIENTED_EDGE('',*,*,#1131,.T.);
#1131 = EDGE_CURVE('',#1123,#1132,#1134,.T.);
#1132 = VERTEX_POINT('',#1133);
#1133 = CARTESIAN_POINT('',(20.,-2.9,-0.5));
#1134 = LINE('',#1135,#1136);
#1135 = CARTESIAN_POINT('',(20.,-2.9,-3.25));
#1136 = VECTOR('',#1137,1.);
#1137 = DIRECTION('',(0.,0.,1.));
#1138 = ORIENTED_EDGE('',*,*,#1139,.F.);
#1139 = EDGE_CURVE('',#1140,#1132,#1142,.T.);
#1140 = VERTEX_POINT('',#1141);
#1141 = CARTESIAN_POINT('',(20.,2.9,-0.5));
#1142 = LINE('',#1143,#1144);
#1143 = CARTESIAN_POINT('',(20.,-7.45,-0.5));
#1144 = VECTOR('',#1145,1.);
#1145 = DIRECTION('',(0.,-1.,0.));
#1146 = ORIENTED_EDGE('',*,*,#1147,.F.);
#1147 = EDGE_CURVE('',#1148,#1140,#1150,.T.);
#1148 = VERTEX_POINT('',#1149);
#1149 = CARTESIAN_POINT('',(20.,2.9,-0.504006420562));
#1150 = LINE('',#1151,#1152);
#1151 = CARTESIAN_POINT('',(20.,2.9,-3.25));
#1152 = VECTOR('',#1153,1.);
#1153 = DIRECTION('',(0.,0.,1.));
#1154 = ORIENTED_EDGE('',*,*,#1155,.T.);
#1155 = EDGE_CURVE('',#1148,#1099,#1156,.T.);
#1156 = CIRCLE('',#1157,1.25);
#1157 = AXIS2_PLACEMENT_3D('',#1158,#1159,#1160);
#1158 = CARTESIAN_POINT('',(20.,3.,-1.75));
#1159 = DIRECTION('',(-1.,-0.,-2.22044604925E-16));
#1160 = DIRECTION('',(2.22044604925E-16,0.,-1.));
#1161 = PLANE('',#1162);
#1162 = AXIS2_PLACEMENT_3D('',#1163,#1164,#1165);
#1163 = CARTESIAN_POINT('',(20.,-12.,-3.5));
#1164 = DIRECTION('',(1.,0.,0.));
#1165 = DIRECTION('',(0.,0.,1.));
#1166 = ADVANCED_FACE('',(#1167),#1194,.F.);
#1167 = FACE_BOUND('',#1168,.F.);
#1168 = EDGE_LOOP('',(#1169,#1178,#1186,#1193));
#1169 = ORIENTED_EDGE('',*,*,#1170,.T.);
#1170 = EDGE_CURVE('',#1081,#1171,#1173,.T.);
#1171 = VERTEX_POINT('',#1172);
#1172 = CARTESIAN_POINT('',(17.,12.,-3.5));
#1173 = CIRCLE('',#1174,3.);
#1174 = AXIS2_PLACEMENT_3D('',#1175,#1176,#1177);
#1175 = CARTESIAN_POINT('',(17.,9.,-3.5));
#1176 = DIRECTION('',(-0.,0.,1.));
#1177 = DIRECTION('',(0.,-1.,0.));
#1178 = ORIENTED_EDGE('',*,*,#1179,.T.);
#1179 = EDGE_CURVE('',#1171,#1180,#1182,.T.);
#1180 = VERTEX_POINT('',#1181);
#1181 = CARTESIAN_POINT('',(17.,12.,1.));
#1182 = LINE('',#1183,#1184);
#1183 = CARTESIAN_POINT('',(17.,12.,-3.5));
#1184 = VECTOR('',#1185,1.);
#1185 = DIRECTION('',(0.,0.,1.));
#1186 = ORIENTED_EDGE('',*,*,#1187,.F.);
#1187 = EDGE_CURVE('',#1072,#1180,#1188,.T.);
#1188 = CIRCLE('',#1189,3.);
#1189 = AXIS2_PLACEMENT_3D('',#1190,#1191,#1192);
#1190 = CARTESIAN_POINT('',(17.,9.,1.));
#1191 = DIRECTION('',(-0.,0.,1.));
#1192 = DIRECTION('',(0.,-1.,0.));
#1193 = ORIENTED_EDGE('',*,*,#1088,.F.);
#1194 = CYLINDRICAL_SURFACE('',#1195,3.);
#1195 = AXIS2_PLACEMENT_3D('',#1196,#1197,#1198);
#1196 = CARTESIAN_POINT('',(17.,9.,-3.5));
#1197 = DIRECTION('',(0.,0.,1.));
#1198 = DIRECTION('',(1.,0.,0.));
#1199 = ADVANCED_FACE('',(#1200),#1225,.F.);
#1200 = FACE_BOUND('',#1201,.F.);
#1201 = EDGE_LOOP('',(#1202,#1210,#1218,#1224));
#1202 = ORIENTED_EDGE('',*,*,#1203,.F.);
#1203 = EDGE_CURVE('',#1204,#1171,#1206,.T.);
#1204 = VERTEX_POINT('',#1205);
#1205 = CARTESIAN_POINT('',(-17.,12.,-3.5));
#1206 = LINE('',#1207,#1208);
#1207 = CARTESIAN_POINT('',(-20.,12.,-3.5));
#1208 = VECTOR('',#1209,1.);
#1209 = DIRECTION('',(1.,0.,0.));
#1210 = ORIENTED_EDGE('',*,*,#1211,.T.);
#1211 = EDGE_CURVE('',#1204,#1212,#1214,.T.);
#1212 = VERTEX_POINT('',#1213);
#1213 = CARTESIAN_POINT('',(-17.,12.,1.));
#1214 = LINE('',#1215,#1216);
#1215 = CARTESIAN_POINT('',(-17.,12.,-3.5));
#1216 = VECTOR('',#1217,1.);
#1217 = DIRECTION('',(0.,0.,1.));
#1218 = ORIENTED_EDGE('',*,*,#1219,.T.);
#1219 = EDGE_CURVE('',#1212,#1180,#1220,.T.);
#1220 = LINE('',#1221,#1222);
#1221 = CARTESIAN_POINT('',(-20.,12.,1.));
#1222 = VECTOR('',#1223,1.);
#1223 = DIRECTION('',(1.,0.,0.));
#1224 = ORIENTED_EDGE('',*,*,#1179,.F.);
#1225 = PLANE('',#1226);
#1226 = AXIS2_PLACEMENT_3D('',#1227,#1228,#1229);
#1227 = CARTESIAN_POINT('',(-20.,12.,-3.5));
#1228 = DIRECTION('',(0.,1.,0.));
#1229 = DIRECTION('',(0.,0.,1.));
#1230 = ADVANCED_FACE('',(#1231),#1249,.F.);
#1231 = FACE_BOUND('',#1232,.T.);
#1232 = EDGE_LOOP('',(#1233,#1240,#1241,#1248));
#1233 = ORIENTED_EDGE('',*,*,#1234,.T.);
#1234 = EDGE_CURVE('',#568,#1204,#1235,.T.);
#1235 = CIRCLE('',#1236,3.);
#1236 = AXIS2_PLACEMENT_3D('',#1237,#1238,#1239);
#1237 = CARTESIAN_POINT('',(-17.,9.,-3.5));
#1238 = DIRECTION('',(-0.,-0.,-1.));
#1239 = DIRECTION('',(0.,-1.,0.));
#1240 = ORIENTED_EDGE('',*,*,#1211,.T.);
#1241 = ORIENTED_EDGE('',*,*,#1242,.F.);
#1242 = EDGE_CURVE('',#576,#1212,#1243,.T.);
#1243 = CIRCLE('',#1244,3.);
#1244 = AXIS2_PLACEMENT_3D('',#1245,#1246,#1247);
#1245 = CARTESIAN_POINT('',(-17.,9.,1.));
#1246 = DIRECTION('',(-0.,-0.,-1.));
#1247 = DIRECTION('',(0.,-1.,0.));
#1248 = ORIENTED_EDGE('',*,*,#575,.F.);
#1249 = CYLINDRICAL_SURFACE('',#1250,3.);
#1250 = AXIS2_PLACEMENT_3D('',#1251,#1252,#1253);
#1251 = CARTESIAN_POINT('',(-17.,9.,-3.5));
#1252 = DIRECTION('',(0.,0.,1.));
#1253 = DIRECTION('',(-1.,0.,0.));
#1254 = ADVANCED_FACE('',(#1255),#1265,.T.);
#1255 = FACE_BOUND('',#1256,.T.);
#1256 = EDGE_LOOP('',(#1257,#1258,#1259,#1260,#1261,#1262,#1263,#1264));
#1257 = ORIENTED_EDGE('',*,*,#567,.F.);
#1258 = ORIENTED_EDGE('',*,*,#610,.T.);
#1259 = ORIENTED_EDGE('',*,*,#643,.T.);
#1260 = ORIENTED_EDGE('',*,*,#1038,.F.);
#1261 = ORIENTED_EDGE('',*,*,#1080,.T.);
#1262 = ORIENTED_EDGE('',*,*,#1170,.T.);
#1263 = ORIENTED_EDGE('',*,*,#1203,.F.);
#1264 = ORIENTED_EDGE('',*,*,#1234,.F.);
#1265 = PLANE('',#1266);
#1266 = AXIS2_PLACEMENT_3D('',#1267,#1268,#1269);
#1267 = CARTESIAN_POINT('',(-20.,-12.,-3.5));
#1268 = DIRECTION('',(0.,0.,1.));
#1269 = DIRECTION('',(1.,0.,0.));
#1270 = ADVANCED_FACE('',(#1271),#1287,.F.);
#1271 = FACE_BOUND('',#1272,.F.);
#1272 = EDGE_LOOP('',(#1273,#1274,#1280,#1281));
#1273 = ORIENTED_EDGE('',*,*,#1024,.F.);
#1274 = ORIENTED_EDGE('',*,*,#1275,.T.);
#1275 = EDGE_CURVE('',#1017,#669,#1276,.T.);
#1276 = LINE('',#1277,#1278);
#1277 = CARTESIAN_POINT('',(16.2,-12.1,-0.5));
#1278 = VECTOR('',#1279,1.);
#1279 = DIRECTION('',(0.,1.,0.));
#1280 = ORIENTED_EDGE('',*,*,#676,.F.);
#1281 = ORIENTED_EDGE('',*,*,#1282,.F.);
#1282 = EDGE_CURVE('',#1008,#677,#1283,.T.);
#1283 = LINE('',#1284,#1285);
#1284 = CARTESIAN_POINT('',(16.2,-12.1,1.));
#1285 = VECTOR('',#1286,1.);
#1286 = DIRECTION('',(0.,1.,0.));
#1287 = PLANE('',#1288);
#1288 = AXIS2_PLACEMENT_3D('',#1289,#1290,#1291);
#1289 = CARTESIAN_POINT('',(16.2,-12.1,-0.5));
#1290 = DIRECTION('',(1.,0.,0.));
#1291 = DIRECTION('',(0.,0.,1.));
#1292 = ADVANCED_FACE('',(#1293),#1306,.T.);
#1293 = FACE_BOUND('',#1294,.T.);
#1294 = EDGE_LOOP('',(#1295,#1296,#1297,#1303,#1304,#1305));
#1295 = ORIENTED_EDGE('',*,*,#1275,.T.);
#1296 = ORIENTED_EDGE('',*,*,#668,.F.);
#1297 = ORIENTED_EDGE('',*,*,#1298,.F.);
#1298 = EDGE_CURVE('',#750,#661,#1299,.T.);
#1299 = LINE('',#1300,#1301);
#1300 = CARTESIAN_POINT('',(12.4,-12.1,-0.5));
#1301 = VECTOR('',#1302,1.);
#1302 = DIRECTION('',(0.,1.,0.));
#1303 = ORIENTED_EDGE('',*,*,#757,.T.);
#1304 = ORIENTED_EDGE('',*,*,#780,.F.);
#1305 = ORIENTED_EDGE('',*,*,#1016,.T.);
#1306 = PLANE('',#1307);
#1307 = AXIS2_PLACEMENT_3D('',#1308,#1309,#1310);
#1308 = CARTESIAN_POINT('',(12.4,-12.1,-0.5));
#1309 = DIRECTION('',(0.,0.,1.));
#1310 = DIRECTION('',(1.,0.,0.));
#1311 = ADVANCED_FACE('',(#1312),#1323,.T.);
#1312 = FACE_BOUND('',#1313,.T.);
#1313 = EDGE_LOOP('',(#1314,#1315,#1316,#1317));
#1314 = ORIENTED_EDGE('',*,*,#749,.F.);
#1315 = ORIENTED_EDGE('',*,*,#1298,.T.);
#1316 = ORIENTED_EDGE('',*,*,#660,.F.);
#1317 = ORIENTED_EDGE('',*,*,#1318,.F.);
#1318 = EDGE_CURVE('',#740,#653,#1319,.T.);
#1319 = LINE('',#1320,#1321);
#1320 = CARTESIAN_POINT('',(12.4,-12.1,1.));
#1321 = VECTOR('',#1322,1.);
#1322 = DIRECTION('',(0.,1.,0.));
#1323 = PLANE('',#1324);
#1324 = AXIS2_PLACEMENT_3D('',#1325,#1326,#1327);
#1325 = CARTESIAN_POINT('',(12.4,-12.1,-0.5));
#1326 = DIRECTION('',(1.,0.,0.));
#1327 = DIRECTION('',(0.,0.,1.));
#1328 = ADVANCED_FACE('',(#1329),#1345,.F.);
#1329 = FACE_BOUND('',#1330,.F.);
#1330 = EDGE_LOOP('',(#1331,#1332,#1338,#1339));
#1331 = ORIENTED_EDGE('',*,*,#914,.F.);
#1332 = ORIENTED_EDGE('',*,*,#1333,.F.);
#1333 = EDGE_CURVE('',#1097,#915,#1334,.T.);
#1334 = LINE('',#1335,#1336);
#1335 = CARTESIAN_POINT('',(11.,2.9,-3.));
#1336 = VECTOR('',#1337,1.);
#1337 = DIRECTION('',(1.,0.,0.));
#1338 = ORIENTED_EDGE('',*,*,#1096,.T.);
#1339 = ORIENTED_EDGE('',*,*,#1340,.F.);
#1340 = EDGE_CURVE('',#917,#1099,#1341,.T.);
#1341 = LINE('',#1342,#1343);
#1342 = CARTESIAN_POINT('',(11.,2.9,-2.995993579438));
#1343 = VECTOR('',#1344,1.);
#1344 = DIRECTION('',(-1.,-0.,-2.22044604925E-16));
#1345 = PLANE('',#1346);
#1346 = AXIS2_PLACEMENT_3D('',#1347,#1348,#1349);
#1347 = CARTESIAN_POINT('',(11.,2.9,-3.));
#1348 = DIRECTION('',(0.,1.,0.));
#1349 = DIRECTION('',(0.,0.,1.));
#1350 = ADVANCED_FACE('',(#1351),#1362,.F.);
#1351 = FACE_BOUND('',#1352,.T.);
#1352 = EDGE_LOOP('',(#1353,#1354,#1355,#1361));
#1353 = ORIENTED_EDGE('',*,*,#1340,.F.);
#1354 = ORIENTED_EDGE('',*,*,#973,.F.);
#1355 = ORIENTED_EDGE('',*,*,#1356,.T.);
#1356 = EDGE_CURVE('',#966,#1148,#1357,.T.);
#1357 = LINE('',#1358,#1359);
#1358 = CARTESIAN_POINT('',(11.,2.9,-0.504006420562));
#1359 = VECTOR('',#1360,1.);
#1360 = DIRECTION('',(-1.,-0.,-2.22044604925E-16));
#1361 = ORIENTED_EDGE('',*,*,#1155,.T.);
#1362 = CYLINDRICAL_SURFACE('',#1363,1.25);
#1363 = AXIS2_PLACEMENT_3D('',#1364,#1365,#1366);
#1364 = CARTESIAN_POINT('',(11.,3.,-1.75));
#1365 = DIRECTION('',(-1.,-0.,-2.22044604925E-16));
#1366 = DIRECTION('',(2.22044604925E-16,0.,-1.));
#1367 = ADVANCED_FACE('',(#1368),#1379,.F.);
#1368 = FACE_BOUND('',#1369,.F.);
#1369 = EDGE_LOOP('',(#1370,#1371,#1372,#1373));
#1370 = ORIENTED_EDGE('',*,*,#965,.F.);
#1371 = ORIENTED_EDGE('',*,*,#1356,.T.);
#1372 = ORIENTED_EDGE('',*,*,#1147,.T.);
#1373 = ORIENTED_EDGE('',*,*,#1374,.T.);
#1374 = EDGE_CURVE('',#1140,#958,#1375,.T.);
#1375 = LINE('',#1376,#1377);
#1376 = CARTESIAN_POINT('',(11.,2.9,-0.5));
#1377 = VECTOR('',#1378,1.);
#1378 = DIRECTION('',(1.,0.,0.));
#1379 = PLANE('',#1380);
#1380 = AXIS2_PLACEMENT_3D('',#1381,#1382,#1383);
#1381 = CARTESIAN_POINT('',(11.,2.9,-3.));
#1382 = DIRECTION('',(0.,1.,0.));
#1383 = DIRECTION('',(0.,0.,1.));
#1384 = ADVANCED_FACE('',(#1385),#1396,.F.);
#1385 = FACE_BOUND('',#1386,.F.);
#1386 = EDGE_LOOP('',(#1387,#1388,#1389,#1395));
#1387 = ORIENTED_EDGE('',*,*,#1374,.F.);
#1388 = ORIENTED_EDGE('',*,*,#1139,.T.);
#1389 = ORIENTED_EDGE('',*,*,#1390,.T.);
#1390 = EDGE_CURVE('',#1132,#950,#1391,.T.);
#1391 = LINE('',#1392,#1393);
#1392 = CARTESIAN_POINT('',(11.,-2.9,-0.5));
#1393 = VECTOR('',#1394,1.);
#1394 = DIRECTION('',(1.,0.,0.));
#1395 = ORIENTED_EDGE('',*,*,#957,.F.);
#1396 = PLANE('',#1397);
#1397 = AXIS2_PLACEMENT_3D('',#1398,#1399,#1400);
#1398 = CARTESIAN_POINT('',(11.,-2.9,-0.5));
#1399 = DIRECTION('',(0.,0.,1.));
#1400 = DIRECTION('',(1.,0.,0.));
#1401 = ADVANCED_FACE('',(#1402),#1413,.T.);
#1402 = FACE_BOUND('',#1403,.T.);
#1403 = EDGE_LOOP('',(#1404,#1405,#1411,#1412));
#1404 = ORIENTED_EDGE('',*,*,#949,.F.);
#1405 = ORIENTED_EDGE('',*,*,#1406,.T.);
#1406 = EDGE_CURVE('',#941,#1123,#1407,.T.);
#1407 = LINE('',#1408,#1409);
#1408 = CARTESIAN_POINT('',(11.,-2.9,-0.504006420562));
#1409 = VECTOR('',#1410,1.);
#1410 = DIRECTION('',(-1.,-0.,-2.22044604925E-16));
#1411 = ORIENTED_EDGE('',*,*,#1131,.T.);
#1412 = ORIENTED_EDGE('',*,*,#1390,.T.);
#1413 = PLANE('',#1414);
#1414 = AXIS2_PLACEMENT_3D('',#1415,#1416,#1417);
#1415 = CARTESIAN_POINT('',(11.,-2.9,-3.));
#1416 = DIRECTION('',(0.,1.,0.));
#1417 = DIRECTION('',(0.,0.,1.));
#1418 = ADVANCED_FACE('',(#1419),#1430,.F.);
#1419 = FACE_BOUND('',#1420,.T.);
#1420 = EDGE_LOOP('',(#1421,#1422,#1423,#1429));
#1421 = ORIENTED_EDGE('',*,*,#1406,.F.);
#1422 = ORIENTED_EDGE('',*,*,#940,.F.);
#1423 = ORIENTED_EDGE('',*,*,#1424,.T.);
#1424 = EDGE_CURVE('',#933,#1115,#1425,.T.);
#1425 = LINE('',#1426,#1427);
#1426 = CARTESIAN_POINT('',(11.,-2.9,-2.995993579438));
#1427 = VECTOR('',#1428,1.);
#1428 = DIRECTION('',(-1.,-0.,-2.22044604925E-16));
#1429 = ORIENTED_EDGE('',*,*,#1122,.T.);
#1430 = CYLINDRICAL_SURFACE('',#1431,1.25);
#1431 = AXIS2_PLACEMENT_3D('',#1432,#1433,#1434);
#1432 = CARTESIAN_POINT('',(11.,-3.,-1.75));
#1433 = DIRECTION('',(-1.,-0.,-2.22044604925E-16));
#1434 = DIRECTION('',(2.22044604925E-16,0.,-1.));
#1435 = ADVANCED_FACE('',(#1436),#1447,.T.);
#1436 = FACE_BOUND('',#1437,.T.);
#1437 = EDGE_LOOP('',(#1438,#1439,#1445,#1446));
#1438 = ORIENTED_EDGE('',*,*,#932,.F.);
#1439 = ORIENTED_EDGE('',*,*,#1440,.F.);
#1440 = EDGE_CURVE('',#1107,#925,#1441,.T.);
#1441 = LINE('',#1442,#1443);
#1442 = CARTESIAN_POINT('',(11.,-2.9,-3.));
#1443 = VECTOR('',#1444,1.);
#1444 = DIRECTION('',(1.,0.,0.));
#1445 = ORIENTED_EDGE('',*,*,#1114,.T.);
#1446 = ORIENTED_EDGE('',*,*,#1424,.F.);
#1447 = PLANE('',#1448);
#1448 = AXIS2_PLACEMENT_3D('',#1449,#1450,#1451);
#1449 = CARTESIAN_POINT('',(11.,-2.9,-3.));
#1450 = DIRECTION('',(0.,1.,0.));
#1451 = DIRECTION('',(0.,0.,1.));
#1452 = ADVANCED_FACE('',(#1453),#1459,.T.);
#1453 = FACE_BOUND('',#1454,.T.);
#1454 = EDGE_LOOP('',(#1455,#1456,#1457,#1458));
#1455 = ORIENTED_EDGE('',*,*,#1333,.F.);
#1456 = ORIENTED_EDGE('',*,*,#1106,.T.);
#1457 = ORIENTED_EDGE('',*,*,#1440,.T.);
#1458 = ORIENTED_EDGE('',*,*,#924,.F.);
#1459 = PLANE('',#1460);
#1460 = AXIS2_PLACEMENT_3D('',#1461,#1462,#1463);
#1461 = CARTESIAN_POINT('',(11.,-2.9,-3.));
#1462 = DIRECTION('',(0.,0.,1.));
#1463 = DIRECTION('',(1.,0.,0.));
#1464 = ADVANCED_FACE('',(#1465),#1477,.T.);
#1465 = FACE_BOUND('',#1466,.T.);
#1466 = EDGE_LOOP('',(#1467,#1468,#1469,#1470,#1471,#1472,#1473,#1474,
    #1475,#1476));
#1467 = ORIENTED_EDGE('',*,*,#21,.F.);
#1468 = ORIENTED_EDGE('',*,*,#341,.T.);
#1469 = ORIENTED_EDGE('',*,*,#708,.T.);
#1470 = ORIENTED_EDGE('',*,*,#831,.F.);
#1471 = ORIENTED_EDGE('',*,*,#739,.F.);
#1472 = ORIENTED_EDGE('',*,*,#1318,.T.);
#1473 = ORIENTED_EDGE('',*,*,#652,.F.);
#1474 = ORIENTED_EDGE('',*,*,#627,.F.);
#1475 = ORIENTED_EDGE('',*,*,#551,.T.);
#1476 = ORIENTED_EDGE('',*,*,#178,.T.);
#1477 = PLANE('',#1478);
#1478 = AXIS2_PLACEMENT_3D('',#1479,#1480,#1481);
#1479 = CARTESIAN_POINT('',(-6.183398762453,-11.83885017306,1.));
#1480 = DIRECTION('',(0.,0.,1.));
#1481 = DIRECTION('',(1.,0.,-0.));
#1482 = ADVANCED_FACE('',(#1483),#1502,.T.);
#1483 = FACE_BOUND('',#1484,.T.);
#1484 = EDGE_LOOP('',(#1485,#1486,#1487,#1488,#1489,#1490,#1491,#1492,
    #1493,#1494,#1495,#1496,#1497,#1498,#1499,#1500,#1501));
#1485 = ORIENTED_EDGE('',*,*,#55,.F.);
#1486 = ORIENTED_EDGE('',*,*,#226,.F.);
#1487 = ORIENTED_EDGE('',*,*,#583,.T.);
#1488 = ORIENTED_EDGE('',*,*,#1242,.T.);
#1489 = ORIENTED_EDGE('',*,*,#1219,.T.);
#1490 = ORIENTED_EDGE('',*,*,#1187,.F.);
#1491 = ORIENTED_EDGE('',*,*,#1071,.F.);
#1492 = ORIENTED_EDGE('',*,*,#1048,.T.);
#1493 = ORIENTED_EDGE('',*,*,#684,.F.);
#1494 = ORIENTED_EDGE('',*,*,#1282,.F.);
#1495 = ORIENTED_EDGE('',*,*,#1007,.F.);
#1496 = ORIENTED_EDGE('',*,*,#798,.F.);
#1497 = ORIENTED_EDGE('',*,*,#992,.F.);
#1498 = ORIENTED_EDGE('',*,*,#896,.T.);
#1499 = ORIENTED_EDGE('',*,*,#873,.T.);
#1500 = ORIENTED_EDGE('',*,*,#849,.F.);
#1501 = ORIENTED_EDGE('',*,*,#257,.F.);
#1502 = PLANE('',#1503);
#1503 = AXIS2_PLACEMENT_3D('',#1504,#1505,#1506);
#1504 = CARTESIAN_POINT('',(5.770814798301,6.813052130745,1.));
#1505 = DIRECTION('',(0.,0.,1.));
#1506 = DIRECTION('',(1.,0.,-0.));
#1507 = ( GEOMETRIC_REPRESENTATION_CONTEXT(3) 
GLOBAL_UNCERTAINTY_ASSIGNED_CONTEXT((#1511)) 
GLOBAL_UNIT_ASSIGNED_CONTEXT((#1508,#1509,#1510)) REPRESENTATION_CONTEXT
('Context #1','3D Context with UNIT and UNCERTAINTY') );
#1508 = ( LENGTH_UNIT() NAMED_UNIT(*) SI_UNIT(.MILLI.,.METRE.) );
#1509 = ( NAMED_UNIT(*) PLANE_ANGLE_UNIT() SI_UNIT($,.RADIAN.) );
#1510 = ( NAMED_UNIT(*) SI_UNIT($,.STERADIAN.) SOLID_ANGLE_UNIT() );
#1511 = UNCERTAINTY_MEASURE_WITH_UNIT(LENGTH_MEASURE(2.E-05),#1508,
  'distance_accuracy_value','confusion accuracy');
#1512 = PRODUCT_RELATED_PRODUCT_CATEGORY('part',$,(#7));
#1513 = MECHANICAL_DESIGN_GEOMETRIC_PRESENTATION_REPRESENTATION('',(
    #1514),#1507);
#1514 = STYLED_ITEM('color',(#1515),#15);
#1515 = PRESENTATION_STYLE_ASSIGNMENT((#1516,#1524));
#1516 = SURFACE_STYLE_USAGE(.BOTH.,#1517);
#1517 = SURFACE_SIDE_STYLE('',(#1518,#1522));
#1518 = SURFACE_STYLE_FILL_AREA(#1519);
#1519 = FILL_AREA_STYLE('',(#1520));
#1520 = FILL_AREA_STYLE_COLOUR('',#1521);
#1521 = COLOUR_RGB('',0.447059003357,0.474510015008,0.501960993452);
#1522 = SURFACE_STYLE_RENDERING_WITH_PROPERTIES(.NORMAL_SHADING.,#1521,(
    #1523));
#1523 = SURFACE_STYLE_TRANSPARENT(0.199999988079);
#1524 = CURVE_STYLE('',#1525,POSITIVE_LENGTH_MEASURE(0.1),#1526);
#1525 = DRAUGHTING_PRE_DEFINED_CURVE_FONT('continuous');
#1526 = COLOUR_RGB('',9.803921802644E-02,9.803921802644E-02,
  9.803921802644E-02);
ENDSEC;
END-ISO-10303-21;
