ISO-10303-21;
HEADER;
FILE_DESCRIPTION(('FreeCAD Model'),'2;1');
FILE_NAME('Open CASCADE Shape Model','2026-10-07T02:58:11',(''),(''),
  'Open CASCADE STEP processor 7.8','FreeCAD','Unknown');
FILE_SCHEMA((
'AP242_MANAGED_MODEL_BASED_3D_ENGINEERING_MIM_LF. {1 0 10303 442 1 1 4 
}'));
ENDSEC;
DATA;
#1 = APPLICATION_PROTOCOL_DEFINITION('international standard',
  'ap242_managed_model_based_3d_engineering',2013,#2);
#2 = APPLICATION_CONTEXT('Managed model based 3d engineering');
#3 = SHAPE_DEFINITION_REPRESENTATION(#4,#10);
#4 = PRODUCT_DEFINITION_SHAPE('','',#5);
#5 = PRODUCT_DEFINITION('design','',#6,#9);
#6 = PRODUCT_DEFINITION_FORMATION('','',#7);
#7 = PRODUCT('Case Top Cut (male A to female C)',
  'Case Top Cut (male A to female C)','',(#8));
#8 = PRODUCT_CONTEXT('',#2,'mechanical');
#9 = PRODUCT_DEFINITION_CONTEXT('part definition',#2,'design');
#10 = ADVANCED_BREP_SHAPE_REPRESENTATION('',(#11,#15),#1810);
#11 = AXIS2_PLACEMENT_3D('',#12,#13,#14);
#12 = CARTESIAN_POINT('',(0.,0.,0.));
#13 = DIRECTION('',(0.,0.,1.));
#14 = DIRECTION('',(1.,0.,-0.));
#15 = MANIFOLD_SOLID_BREP('',#16);
#16 = CLOSED_SHELL('',(#17,#89,#167,#192,#334,#374,#398,#438,#521,#538,
    #564,#581,#619,#757,#769,#795,#832,#857,#897,#921,#946,#970,#995,
    #1019,#1044,#1061,#1127,#1169,#1193,#1244,#1261,#1278,#1311,#1329,
    #1371,#1395,#1430,#1455,#1495,#1519,#1559,#1577,#1647,#1675,#1699,
    #1716,#1746,#1767,#1779,#1796));
#17 = ADVANCED_FACE('',(#18),#84,.F.);
#18 = FACE_BOUND('',#19,.F.);
#19 = EDGE_LOOP('',(#20,#30,#38,#46,#54,#62,#70,#78));
#20 = ORIENTED_EDGE('',*,*,#21,.F.);
#21 = EDGE_CURVE('',#22,#24,#26,.T.);
#22 = VERTEX_POINT('',#23);
#23 = CARTESIAN_POINT('',(-21.,-9.5,6.));
#24 = VERTEX_POINT('',#25);
#25 = CARTESIAN_POINT('',(-21.,9.5,6.));
#26 = LINE('',#27,#28);
#27 = CARTESIAN_POINT('',(-21.,-13.,6.));
#28 = VECTOR('',#29,1.);
#29 = DIRECTION('',(0.,1.,0.));
#30 = ORIENTED_EDGE('',*,*,#31,.F.);
#31 = EDGE_CURVE('',#32,#22,#34,.T.);
#32 = VERTEX_POINT('',#33);
#33 = CARTESIAN_POINT('',(-21.,-9.5,1.));
#34 = LINE('',#35,#36);
#35 = CARTESIAN_POINT('',(-21.,-9.5,1.));
#36 = VECTOR('',#37,1.);
#37 = DIRECTION('',(0.,0.,1.));
#38 = ORIENTED_EDGE('',*,*,#39,.T.);
#39 = EDGE_CURVE('',#32,#40,#42,.T.);
#40 = VERTEX_POINT('',#41);
#41 = CARTESIAN_POINT('',(-21.,-6.,1.));
#42 = LINE('',#43,#44);
#43 = CARTESIAN_POINT('',(-21.,-13.,1.));
#44 = VECTOR('',#45,1.);
#45 = DIRECTION('',(0.,1.,0.));
#46 = ORIENTED_EDGE('',*,*,#47,.T.);
#47 = EDGE_CURVE('',#40,#48,#50,.T.);
#48 = VERTEX_POINT('',#49);
#49 = CARTESIAN_POINT('',(-21.,-6.,4.9));
#50 = LINE('',#51,#52);
#51 = CARTESIAN_POINT('',(-21.,-6.,0.65));
#52 = VECTOR('',#53,1.);
#53 = DIRECTION('',(0.,0.,1.));
#54 = ORIENTED_EDGE('',*,*,#55,.F.);
#55 = EDGE_CURVE('',#56,#48,#58,.T.);
#56 = VERTEX_POINT('',#57);
#57 = CARTESIAN_POINT('',(-21.,6.,4.9));
#58 = LINE('',#59,#60);
#59 = CARTESIAN_POINT('',(-21.,-9.5,4.9));
#60 = VECTOR('',#61,1.);
#61 = DIRECTION('',(0.,-1.,0.));
#62 = ORIENTED_EDGE('',*,*,#63,.F.);
#63 = EDGE_CURVE('',#64,#56,#66,.T.);
#64 = VERTEX_POINT('',#65);
#65 = CARTESIAN_POINT('',(-21.,6.,1.));
#66 = LINE('',#67,#68);
#67 = CARTESIAN_POINT('',(-21.,6.,0.65));
#68 = VECTOR('',#69,1.);
#69 = DIRECTION('',(0.,0.,1.));
#70 = ORIENTED_EDGE('',*,*,#71,.T.);
#71 = EDGE_CURVE('',#64,#72,#74,.T.);
#72 = VERTEX_POINT('',#73);
#73 = CARTESIAN_POINT('',(-21.,9.5,1.));
#74 = LINE('',#75,#76);
#75 = CARTESIAN_POINT('',(-21.,-13.,1.));
#76 = VECTOR('',#77,1.);
#77 = DIRECTION('',(0.,1.,0.));
#78 = ORIENTED_EDGE('',*,*,#79,.T.);
#79 = EDGE_CURVE('',#72,#24,#80,.T.);
#80 = LINE('',#81,#82);
#81 = CARTESIAN_POINT('',(-21.,9.5,1.));
#82 = VECTOR('',#83,1.);
#83 = DIRECTION('',(0.,0.,1.));
#84 = PLANE('',#85);
#85 = AXIS2_PLACEMENT_3D('',#86,#87,#88);
#86 = CARTESIAN_POINT('',(-21.,-13.,1.));
#87 = DIRECTION('',(1.,0.,0.));
#88 = DIRECTION('',(0.,0.,1.));
#89 = ADVANCED_FACE('',(#90,#151),#162,.T.);
#90 = FACE_BOUND('',#91,.T.);
#91 = EDGE_LOOP('',(#92,#93,#102,#110,#119,#127,#136,#144));
#92 = ORIENTED_EDGE('',*,*,#21,.F.);
#93 = ORIENTED_EDGE('',*,*,#94,.T.);
#94 = EDGE_CURVE('',#22,#95,#97,.T.);
#95 = VERTEX_POINT('',#96);
#96 = CARTESIAN_POINT('',(-17.5,-13.,6.));
#97 = CIRCLE('',#98,3.5);
#98 = AXIS2_PLACEMENT_3D('',#99,#100,#101);
#99 = CARTESIAN_POINT('',(-17.5,-9.5,6.));
#100 = DIRECTION('',(-0.,0.,1.));
#101 = DIRECTION('',(0.,-1.,0.));
#102 = ORIENTED_EDGE('',*,*,#103,.T.);
#103 = EDGE_CURVE('',#95,#104,#106,.T.);
#104 = VERTEX_POINT('',#105);
#105 = CARTESIAN_POINT('',(17.5,-13.,6.));
#106 = LINE('',#107,#108);
#107 = CARTESIAN_POINT('',(-21.,-13.,6.));
#108 = VECTOR('',#109,1.);
#109 = DIRECTION('',(1.,0.,0.));
#110 = ORIENTED_EDGE('',*,*,#111,.F.);
#111 = EDGE_CURVE('',#112,#104,#114,.T.);
#112 = VERTEX_POINT('',#113);
#113 = CARTESIAN_POINT('',(21.,-9.5,6.));
#114 = CIRCLE('',#115,3.5);
#115 = AXIS2_PLACEMENT_3D('',#116,#117,#118);
#116 = CARTESIAN_POINT('',(17.5,-9.5,6.));
#117 = DIRECTION('',(-0.,-0.,-1.));
#118 = DIRECTION('',(0.,-1.,0.));
#119 = ORIENTED_EDGE('',*,*,#120,.T.);
#120 = EDGE_CURVE('',#112,#121,#123,.T.);
#121 = VERTEX_POINT('',#122);
#122 = CARTESIAN_POINT('',(21.,9.5,6.));
#123 = LINE('',#124,#125);
#124 = CARTESIAN_POINT('',(21.,-13.,6.));
#125 = VECTOR('',#126,1.);
#126 = DIRECTION('',(0.,1.,0.));
#127 = ORIENTED_EDGE('',*,*,#128,.T.);
#128 = EDGE_CURVE('',#121,#129,#131,.T.);
#129 = VERTEX_POINT('',#130);
#130 = CARTESIAN_POINT('',(17.5,13.,6.));
#131 = CIRCLE('',#132,3.5);
#132 = AXIS2_PLACEMENT_3D('',#133,#134,#135);
#133 = CARTESIAN_POINT('',(17.5,9.5,6.));
#134 = DIRECTION('',(-0.,0.,1.));
#135 = DIRECTION('',(0.,-1.,0.));
#136 = ORIENTED_EDGE('',*,*,#137,.F.);
#137 = EDGE_CURVE('',#138,#129,#140,.T.);
#138 = VERTEX_POINT('',#139);
#139 = CARTESIAN_POINT('',(-17.5,13.,6.));
#140 = LINE('',#141,#142);
#141 = CARTESIAN_POINT('',(-21.,13.,6.));
#142 = VECTOR('',#143,1.);
#143 = DIRECTION('',(1.,0.,0.));
#144 = ORIENTED_EDGE('',*,*,#145,.F.);
#145 = EDGE_CURVE('',#24,#138,#146,.T.);
#146 = CIRCLE('',#147,3.5);
#147 = AXIS2_PLACEMENT_3D('',#148,#149,#150);
#148 = CARTESIAN_POINT('',(-17.5,9.5,6.));
#149 = DIRECTION('',(-0.,-0.,-1.));
#150 = DIRECTION('',(0.,-1.,0.));
#151 = FACE_BOUND('',#152,.T.);
#152 = EDGE_LOOP('',(#153));
#153 = ORIENTED_EDGE('',*,*,#154,.F.);
#154 = EDGE_CURVE('',#155,#155,#157,.T.);
#155 = VERTEX_POINT('',#156);
#156 = CARTESIAN_POINT('',(17.4,9.,6.));
#157 = CIRCLE('',#158,1.2);
#158 = AXIS2_PLACEMENT_3D('',#159,#160,#161);
#159 = CARTESIAN_POINT('',(16.2,9.,6.));
#160 = DIRECTION('',(0.,0.,1.));
#161 = DIRECTION('',(1.,0.,0.));
#162 = PLANE('',#163);
#163 = AXIS2_PLACEMENT_3D('',#164,#165,#166);
#164 = CARTESIAN_POINT('',(-21.,-13.,6.));
#165 = DIRECTION('',(0.,0.,1.));
#166 = DIRECTION('',(1.,0.,0.));
#167 = ADVANCED_FACE('',(#168),#187,.T.);
#168 = FACE_BOUND('',#169,.F.);
#169 = EDGE_LOOP('',(#170,#179,#185,#186));
#170 = ORIENTED_EDGE('',*,*,#171,.T.);
#171 = EDGE_CURVE('',#72,#172,#174,.T.);
#172 = VERTEX_POINT('',#173);
#173 = CARTESIAN_POINT('',(-17.5,13.,1.));
#174 = CIRCLE('',#175,3.5);
#175 = AXIS2_PLACEMENT_3D('',#176,#177,#178);
#176 = CARTESIAN_POINT('',(-17.5,9.5,1.));
#177 = DIRECTION('',(-0.,-0.,-1.));
#178 = DIRECTION('',(0.,-1.,0.));
#179 = ORIENTED_EDGE('',*,*,#180,.T.);
#180 = EDGE_CURVE('',#172,#138,#181,.T.);
#181 = LINE('',#182,#183);
#182 = CARTESIAN_POINT('',(-17.5,13.,1.));
#183 = VECTOR('',#184,1.);
#184 = DIRECTION('',(0.,0.,1.));
#185 = ORIENTED_EDGE('',*,*,#145,.F.);
#186 = ORIENTED_EDGE('',*,*,#79,.F.);
#187 = CYLINDRICAL_SURFACE('',#188,3.5);
#188 = AXIS2_PLACEMENT_3D('',#189,#190,#191);
#189 = CARTESIAN_POINT('',(-17.5,9.5,1.));
#190 = DIRECTION('',(0.,0.,1.));
#191 = DIRECTION('',(-1.,0.,0.));
#192 = ADVANCED_FACE('',(#193),#329,.F.);
#193 = FACE_BOUND('',#194,.F.);
#194 = EDGE_LOOP('',(#195,#196,#204,#212,#221,#229,#238,#246,#255,#263,
    #271,#279,#287,#296,#305,#313,#322,#328));
#195 = ORIENTED_EDGE('',*,*,#71,.F.);
#196 = ORIENTED_EDGE('',*,*,#197,.F.);
#197 = EDGE_CURVE('',#198,#64,#200,.T.);
#198 = VERTEX_POINT('',#199);
#199 = CARTESIAN_POINT('',(-20.,6.,1.));
#200 = LINE('',#201,#202);
#201 = CARTESIAN_POINT('',(-18.5,6.,1.));
#202 = VECTOR('',#203,1.);
#203 = DIRECTION('',(-1.,2.22044604925E-16,0.));
#204 = ORIENTED_EDGE('',*,*,#205,.T.);
#205 = EDGE_CURVE('',#198,#206,#208,.T.);
#206 = VERTEX_POINT('',#207);
#207 = CARTESIAN_POINT('',(-20.,9.,1.));
#208 = LINE('',#209,#210);
#209 = CARTESIAN_POINT('',(-20.,-12.5,1.));
#210 = VECTOR('',#211,1.);
#211 = DIRECTION('',(0.,1.,0.));
#212 = ORIENTED_EDGE('',*,*,#213,.F.);
#213 = EDGE_CURVE('',#214,#206,#216,.T.);
#214 = VERTEX_POINT('',#215);
#215 = CARTESIAN_POINT('',(-17.,12.,1.));
#216 = CIRCLE('',#217,3.);
#217 = AXIS2_PLACEMENT_3D('',#218,#219,#220);
#218 = CARTESIAN_POINT('',(-17.,9.,1.));
#219 = DIRECTION('',(0.,0.,1.));
#220 = DIRECTION('',(-1.,0.,0.));
#221 = ORIENTED_EDGE('',*,*,#222,.F.);
#222 = EDGE_CURVE('',#223,#214,#225,.T.);
#223 = VERTEX_POINT('',#224);
#224 = CARTESIAN_POINT('',(17.,12.,1.));
#225 = LINE('',#226,#227);
#226 = CARTESIAN_POINT('',(-20.5,12.,1.));
#227 = VECTOR('',#228,1.);
#228 = DIRECTION('',(-1.,0.,0.));
#229 = ORIENTED_EDGE('',*,*,#230,.F.);
#230 = EDGE_CURVE('',#231,#223,#233,.T.);
#231 = VERTEX_POINT('',#232);
#232 = CARTESIAN_POINT('',(20.,9.,1.));
#233 = CIRCLE('',#234,3.);
#234 = AXIS2_PLACEMENT_3D('',#235,#236,#237);
#235 = CARTESIAN_POINT('',(17.,9.,1.));
#236 = DIRECTION('',(0.,0.,1.));
#237 = DIRECTION('',(1.,0.,0.));
#238 = ORIENTED_EDGE('',*,*,#239,.F.);
#239 = EDGE_CURVE('',#240,#231,#242,.T.);
#240 = VERTEX_POINT('',#241);
#241 = CARTESIAN_POINT('',(20.,-9.,1.));
#242 = LINE('',#243,#244);
#243 = CARTESIAN_POINT('',(20.,-12.5,1.));
#244 = VECTOR('',#245,1.);
#245 = DIRECTION('',(0.,1.,0.));
#246 = ORIENTED_EDGE('',*,*,#247,.F.);
#247 = EDGE_CURVE('',#248,#240,#250,.T.);
#248 = VERTEX_POINT('',#249);
#249 = CARTESIAN_POINT('',(17.,-12.,1.));
#250 = CIRCLE('',#251,3.);
#251 = AXIS2_PLACEMENT_3D('',#252,#253,#254);
#252 = CARTESIAN_POINT('',(17.,-9.,1.));
#253 = DIRECTION('',(0.,0.,1.));
#254 = DIRECTION('',(1.,0.,0.));
#255 = ORIENTED_EDGE('',*,*,#256,.T.);
#256 = EDGE_CURVE('',#248,#257,#259,.T.);
#257 = VERTEX_POINT('',#258);
#258 = CARTESIAN_POINT('',(16.78,-12.,1.));
#259 = LINE('',#260,#261);
#260 = CARTESIAN_POINT('',(-20.5,-12.,1.));
#261 = VECTOR('',#262,1.);
#262 = DIRECTION('',(-1.,0.,0.));
#263 = ORIENTED_EDGE('',*,*,#264,.F.);
#264 = EDGE_CURVE('',#265,#257,#267,.T.);
#265 = VERTEX_POINT('',#266);
#266 = CARTESIAN_POINT('',(16.78,-12.1,1.));
#267 = LINE('',#268,#269);
#268 = CARTESIAN_POINT('',(16.78,-12.1,1.));
#269 = VECTOR('',#270,1.);
#270 = DIRECTION('',(0.,1.,0.));
#271 = ORIENTED_EDGE('',*,*,#272,.F.);
#272 = EDGE_CURVE('',#273,#265,#275,.T.);
#273 = VERTEX_POINT('',#274);
#274 = CARTESIAN_POINT('',(16.2,-12.1,1.));
#275 = LINE('',#276,#277);
#276 = CARTESIAN_POINT('',(11.78,-12.1,1.));
#277 = VECTOR('',#278,1.);
#278 = DIRECTION('',(1.,0.,0.));
#279 = ORIENTED_EDGE('',*,*,#280,.F.);
#280 = EDGE_CURVE('',#281,#273,#283,.T.);
#281 = VERTEX_POINT('',#282);
#282 = CARTESIAN_POINT('',(16.005872210923,-12.1,1.));
#283 = LINE('',#284,#285);
#284 = CARTESIAN_POINT('',(-2.493588458689,-12.1,1.));
#285 = VECTOR('',#286,1.);
#286 = DIRECTION('',(1.,0.,0.));
#287 = ORIENTED_EDGE('',*,*,#288,.F.);
#288 = EDGE_CURVE('',#289,#281,#291,.T.);
#289 = VERTEX_POINT('',#290);
#290 = CARTESIAN_POINT('',(17.549210747034,-12.99965402609,1.));
#291 = CIRCLE('',#292,5.);
#292 = AXIS2_PLACEMENT_3D('',#293,#294,#295);
#293 = CARTESIAN_POINT('',(14.3,-16.8,1.));
#294 = DIRECTION('',(0.,0.,1.));
#295 = DIRECTION('',(1.,0.,-0.));
#296 = ORIENTED_EDGE('',*,*,#297,.F.);
#297 = EDGE_CURVE('',#298,#289,#300,.T.);
#298 = VERTEX_POINT('',#299);
#299 = CARTESIAN_POINT('',(21.,-9.5,1.));
#300 = CIRCLE('',#301,3.5);
#301 = AXIS2_PLACEMENT_3D('',#302,#303,#304);
#302 = CARTESIAN_POINT('',(17.5,-9.5,1.));
#303 = DIRECTION('',(-0.,-0.,-1.));
#304 = DIRECTION('',(0.,-1.,0.));
#305 = ORIENTED_EDGE('',*,*,#306,.T.);
#306 = EDGE_CURVE('',#298,#307,#309,.T.);
#307 = VERTEX_POINT('',#308);
#308 = CARTESIAN_POINT('',(21.,9.5,1.));
#309 = LINE('',#310,#311);
#310 = CARTESIAN_POINT('',(21.,-13.,1.));
#311 = VECTOR('',#312,1.);
#312 = DIRECTION('',(0.,1.,0.));
#313 = ORIENTED_EDGE('',*,*,#314,.T.);
#314 = EDGE_CURVE('',#307,#315,#317,.T.);
#315 = VERTEX_POINT('',#316);
#316 = CARTESIAN_POINT('',(17.5,13.,1.));
#317 = CIRCLE('',#318,3.5);
#318 = AXIS2_PLACEMENT_3D('',#319,#320,#321);
#319 = CARTESIAN_POINT('',(17.5,9.5,1.));
#320 = DIRECTION('',(-0.,0.,1.));
#321 = DIRECTION('',(0.,-1.,0.));
#322 = ORIENTED_EDGE('',*,*,#323,.F.);
#323 = EDGE_CURVE('',#172,#315,#324,.T.);
#324 = LINE('',#325,#326);
#325 = CARTESIAN_POINT('',(-21.,13.,1.));
#326 = VECTOR('',#327,1.);
#327 = DIRECTION('',(1.,0.,0.));
#328 = ORIENTED_EDGE('',*,*,#171,.F.);
#329 = PLANE('',#330);
#330 = AXIS2_PLACEMENT_3D('',#331,#332,#333);
#331 = CARTESIAN_POINT('',(-21.,-13.,1.));
#332 = DIRECTION('',(0.,0.,1.));
#333 = DIRECTION('',(1.,0.,0.));
#334 = ADVANCED_FACE('',(#335),#369,.F.);
#335 = FACE_BOUND('',#336,.F.);
#336 = EDGE_LOOP('',(#337,#345,#353,#361,#367,#368));
#337 = ORIENTED_EDGE('',*,*,#338,.F.);
#338 = EDGE_CURVE('',#339,#56,#341,.T.);
#339 = VERTEX_POINT('',#340);
#340 = CARTESIAN_POINT('',(-19.5,6.,4.9));
#341 = LINE('',#342,#343);
#342 = CARTESIAN_POINT('',(-16.,6.,4.9));
#343 = VECTOR('',#344,1.);
#344 = DIRECTION('',(-1.,2.22044604925E-16,0.));
#345 = ORIENTED_EDGE('',*,*,#346,.F.);
#346 = EDGE_CURVE('',#347,#339,#349,.T.);
#347 = VERTEX_POINT('',#348);
#348 = CARTESIAN_POINT('',(-19.5,6.,1.6));
#349 = LINE('',#350,#351);
#350 = CARTESIAN_POINT('',(-19.5,6.,0.65));
#351 = VECTOR('',#352,1.);
#352 = DIRECTION('',(0.,0.,1.));
#353 = ORIENTED_EDGE('',*,*,#354,.T.);
#354 = EDGE_CURVE('',#347,#355,#357,.T.);
#355 = VERTEX_POINT('',#356);
#356 = CARTESIAN_POINT('',(-20.,6.,1.6));
#357 = LINE('',#358,#359);
#358 = CARTESIAN_POINT('',(-18.,6.,1.6));
#359 = VECTOR('',#360,1.);
#360 = DIRECTION('',(-1.,2.22044604925E-16,0.));
#361 = ORIENTED_EDGE('',*,*,#362,.F.);
#362 = EDGE_CURVE('',#198,#355,#363,.T.);
#363 = LINE('',#364,#365);
#364 = CARTESIAN_POINT('',(-20.,6.,0.15));
#365 = VECTOR('',#366,1.);
#366 = DIRECTION('',(0.,0.,1.));
#367 = ORIENTED_EDGE('',*,*,#197,.T.);
#368 = ORIENTED_EDGE('',*,*,#63,.T.);
#369 = PLANE('',#370);
#370 = AXIS2_PLACEMENT_3D('',#371,#372,#373);
#371 = CARTESIAN_POINT('',(-16.,6.,0.3));
#372 = DIRECTION('',(2.22044604925E-16,1.,0.));
#373 = DIRECTION('',(0.,0.,1.));
#374 = ADVANCED_FACE('',(#375),#393,.F.);
#375 = FACE_BOUND('',#376,.F.);
#376 = EDGE_LOOP('',(#377,#385,#391,#392));
#377 = ORIENTED_EDGE('',*,*,#378,.F.);
#378 = EDGE_CURVE('',#379,#48,#381,.T.);
#379 = VERTEX_POINT('',#380);
#380 = CARTESIAN_POINT('',(-19.5,-6.,4.9));
#381 = LINE('',#382,#383);
#382 = CARTESIAN_POINT('',(-16.,-6.,4.9));
#383 = VECTOR('',#384,1.);
#384 = DIRECTION('',(-1.,2.22044604925E-16,0.));
#385 = ORIENTED_EDGE('',*,*,#386,.F.);
#386 = EDGE_CURVE('',#339,#379,#387,.T.);
#387 = LINE('',#388,#389);
#388 = CARTESIAN_POINT('',(-19.5,-8.75,4.9));
#389 = VECTOR('',#390,1.);
#390 = DIRECTION('',(0.,-1.,0.));
#391 = ORIENTED_EDGE('',*,*,#338,.T.);
#392 = ORIENTED_EDGE('',*,*,#55,.T.);
#393 = PLANE('',#394);
#394 = AXIS2_PLACEMENT_3D('',#395,#396,#397);
#395 = CARTESIAN_POINT('',(-16.,-6.,4.9));
#396 = DIRECTION('',(0.,0.,1.));
#397 = DIRECTION('',(2.22044604925E-16,1.,0.));
#398 = ADVANCED_FACE('',(#399),#433,.T.);
#399 = FACE_BOUND('',#400,.T.);
#400 = EDGE_LOOP('',(#401,#402,#410,#418,#426,#432));
#401 = ORIENTED_EDGE('',*,*,#378,.F.);
#402 = ORIENTED_EDGE('',*,*,#403,.F.);
#403 = EDGE_CURVE('',#404,#379,#406,.T.);
#404 = VERTEX_POINT('',#405);
#405 = CARTESIAN_POINT('',(-19.5,-6.,1.6));
#406 = LINE('',#407,#408);
#407 = CARTESIAN_POINT('',(-19.5,-6.,0.65));
#408 = VECTOR('',#409,1.);
#409 = DIRECTION('',(0.,0.,1.));
#410 = ORIENTED_EDGE('',*,*,#411,.T.);
#411 = EDGE_CURVE('',#404,#412,#414,.T.);
#412 = VERTEX_POINT('',#413);
#413 = CARTESIAN_POINT('',(-20.,-6.,1.6));
#414 = LINE('',#415,#416);
#415 = CARTESIAN_POINT('',(-18.,-6.,1.6));
#416 = VECTOR('',#417,1.);
#417 = DIRECTION('',(-1.,2.22044604925E-16,0.));
#418 = ORIENTED_EDGE('',*,*,#419,.F.);
#419 = EDGE_CURVE('',#420,#412,#422,.T.);
#420 = VERTEX_POINT('',#421);
#421 = CARTESIAN_POINT('',(-20.,-6.,1.));
#422 = LINE('',#423,#424);
#423 = CARTESIAN_POINT('',(-20.,-6.,0.15));
#424 = VECTOR('',#425,1.);
#425 = DIRECTION('',(0.,0.,1.));
#426 = ORIENTED_EDGE('',*,*,#427,.T.);
#427 = EDGE_CURVE('',#420,#40,#428,.T.);
#428 = LINE('',#429,#430);
#429 = CARTESIAN_POINT('',(-18.5,-6.,1.));
#430 = VECTOR('',#431,1.);
#431 = DIRECTION('',(-1.,2.22044604925E-16,0.));
#432 = ORIENTED_EDGE('',*,*,#47,.T.);
#433 = PLANE('',#434);
#434 = AXIS2_PLACEMENT_3D('',#435,#436,#437);
#435 = CARTESIAN_POINT('',(-16.,-6.,0.3));
#436 = DIRECTION('',(2.22044604925E-16,1.,0.));
#437 = DIRECTION('',(0.,0.,1.));
#438 = ADVANCED_FACE('',(#439),#516,.F.);
#439 = FACE_BOUND('',#440,.F.);
#440 = EDGE_LOOP('',(#441,#442,#451,#459,#468,#476,#484,#492,#500,#509,
    #515));
#441 = ORIENTED_EDGE('',*,*,#39,.F.);
#442 = ORIENTED_EDGE('',*,*,#443,.T.);
#443 = EDGE_CURVE('',#32,#444,#446,.T.);
#444 = VERTEX_POINT('',#445);
#445 = CARTESIAN_POINT('',(-17.5,-13.,1.));
#446 = CIRCLE('',#447,3.5);
#447 = AXIS2_PLACEMENT_3D('',#448,#449,#450);
#448 = CARTESIAN_POINT('',(-17.5,-9.5,1.));
#449 = DIRECTION('',(-0.,0.,1.));
#450 = DIRECTION('',(0.,-1.,0.));
#451 = ORIENTED_EDGE('',*,*,#452,.T.);
#452 = EDGE_CURVE('',#444,#453,#455,.T.);
#453 = VERTEX_POINT('',#454);
#454 = CARTESIAN_POINT('',(11.050384638146,-13.,1.));
#455 = LINE('',#456,#457);
#456 = CARTESIAN_POINT('',(-21.,-13.,1.));
#457 = VECTOR('',#458,1.);
#458 = DIRECTION('',(1.,0.,0.));
#459 = ORIENTED_EDGE('',*,*,#460,.F.);
#460 = EDGE_CURVE('',#461,#453,#463,.T.);
#461 = VERTEX_POINT('',#462);
#462 = CARTESIAN_POINT('',(12.594127789077,-12.1,1.));
#463 = CIRCLE('',#464,5.);
#464 = AXIS2_PLACEMENT_3D('',#465,#466,#467);
#465 = CARTESIAN_POINT('',(14.3,-16.8,1.));
#466 = DIRECTION('',(0.,0.,1.));
#467 = DIRECTION('',(1.,0.,-0.));
#468 = ORIENTED_EDGE('',*,*,#469,.F.);
#469 = EDGE_CURVE('',#470,#461,#472,.T.);
#470 = VERTEX_POINT('',#471);
#471 = CARTESIAN_POINT('',(12.4,-12.1,1.));
#472 = LINE('',#473,#474);
#473 = CARTESIAN_POINT('',(-4.212522792992,-12.1,1.));
#474 = VECTOR('',#475,1.);
#475 = DIRECTION('',(1.,0.,0.));
#476 = ORIENTED_EDGE('',*,*,#477,.F.);
#477 = EDGE_CURVE('',#478,#470,#480,.T.);
#478 = VERTEX_POINT('',#479);
#479 = CARTESIAN_POINT('',(11.78,-12.1,1.));
#480 = LINE('',#481,#482);
#481 = CARTESIAN_POINT('',(11.78,-12.1,1.));
#482 = VECTOR('',#483,1.);
#483 = DIRECTION('',(1.,0.,0.));
#484 = ORIENTED_EDGE('',*,*,#485,.T.);
#485 = EDGE_CURVE('',#478,#486,#488,.T.);
#486 = VERTEX_POINT('',#487);
#487 = CARTESIAN_POINT('',(11.78,-12.,1.));
#488 = LINE('',#489,#490);
#489 = CARTESIAN_POINT('',(11.78,-12.1,1.));
#490 = VECTOR('',#491,1.);
#491 = DIRECTION('',(0.,1.,0.));
#492 = ORIENTED_EDGE('',*,*,#493,.T.);
#493 = EDGE_CURVE('',#486,#494,#496,.T.);
#494 = VERTEX_POINT('',#495);
#495 = CARTESIAN_POINT('',(-17.,-12.,1.));
#496 = LINE('',#497,#498);
#497 = CARTESIAN_POINT('',(-20.5,-12.,1.));
#498 = VECTOR('',#499,1.);
#499 = DIRECTION('',(-1.,0.,0.));
#500 = ORIENTED_EDGE('',*,*,#501,.F.);
#501 = EDGE_CURVE('',#502,#494,#504,.T.);
#502 = VERTEX_POINT('',#503);
#503 = CARTESIAN_POINT('',(-20.,-9.,1.));
#504 = CIRCLE('',#505,3.);
#505 = AXIS2_PLACEMENT_3D('',#506,#507,#508);
#506 = CARTESIAN_POINT('',(-17.,-9.,1.));
#507 = DIRECTION('',(0.,0.,1.));
#508 = DIRECTION('',(-1.,0.,0.));
#509 = ORIENTED_EDGE('',*,*,#510,.T.);
#510 = EDGE_CURVE('',#502,#420,#511,.T.);
#511 = LINE('',#512,#513);
#512 = CARTESIAN_POINT('',(-20.,-12.5,1.));
#513 = VECTOR('',#514,1.);
#514 = DIRECTION('',(0.,1.,0.));
#515 = ORIENTED_EDGE('',*,*,#427,.T.);
#516 = PLANE('',#517);
#517 = AXIS2_PLACEMENT_3D('',#518,#519,#520);
#518 = CARTESIAN_POINT('',(-21.,-13.,1.));
#519 = DIRECTION('',(0.,0.,1.));
#520 = DIRECTION('',(1.,0.,0.));
#521 = ADVANCED_FACE('',(#522),#533,.T.);
#522 = FACE_BOUND('',#523,.T.);
#523 = EDGE_LOOP('',(#524,#525,#531,#532));
#524 = ORIENTED_EDGE('',*,*,#443,.T.);
#525 = ORIENTED_EDGE('',*,*,#526,.T.);
#526 = EDGE_CURVE('',#444,#95,#527,.T.);
#527 = LINE('',#528,#529);
#528 = CARTESIAN_POINT('',(-17.5,-13.,1.));
#529 = VECTOR('',#530,1.);
#530 = DIRECTION('',(0.,0.,1.));
#531 = ORIENTED_EDGE('',*,*,#94,.F.);
#532 = ORIENTED_EDGE('',*,*,#31,.F.);
#533 = CYLINDRICAL_SURFACE('',#534,3.5);
#534 = AXIS2_PLACEMENT_3D('',#535,#536,#537);
#535 = CARTESIAN_POINT('',(-17.5,-9.5,1.));
#536 = DIRECTION('',(0.,0.,1.));
#537 = DIRECTION('',(-1.,0.,0.));
#538 = ADVANCED_FACE('',(#539),#559,.F.);
#539 = FACE_BOUND('',#540,.F.);
#540 = EDGE_LOOP('',(#541,#542,#543,#544,#552));
#541 = ORIENTED_EDGE('',*,*,#452,.F.);
#542 = ORIENTED_EDGE('',*,*,#526,.T.);
#543 = ORIENTED_EDGE('',*,*,#103,.T.);
#544 = ORIENTED_EDGE('',*,*,#545,.F.);
#545 = EDGE_CURVE('',#546,#104,#548,.T.);
#546 = VERTEX_POINT('',#547);
#547 = CARTESIAN_POINT('',(17.5,-13.,1.565685424949));
#548 = LINE('',#549,#550);
#549 = CARTESIAN_POINT('',(17.5,-13.,1.));
#550 = VECTOR('',#551,1.);
#551 = DIRECTION('',(0.,0.,1.));
#552 = ORIENTED_EDGE('',*,*,#553,.F.);
#553 = EDGE_CURVE('',#453,#546,#554,.T.);
#554 = CIRCLE('',#555,3.249615361854);
#555 = AXIS2_PLACEMENT_3D('',#556,#557,#558);
#556 = CARTESIAN_POINT('',(14.3,-13.,1.));
#557 = DIRECTION('',(0.,1.,0.));
#558 = DIRECTION('',(0.,-0.,1.));
#559 = PLANE('',#560);
#560 = AXIS2_PLACEMENT_3D('',#561,#562,#563);
#561 = CARTESIAN_POINT('',(-21.,-13.,1.));
#562 = DIRECTION('',(0.,1.,0.));
#563 = DIRECTION('',(0.,0.,1.));
#564 = ADVANCED_FACE('',(#565),#576,.T.);
#565 = FACE_BOUND('',#566,.T.);
#566 = EDGE_LOOP('',(#567,#568,#569,#570));
#567 = ORIENTED_EDGE('',*,*,#323,.F.);
#568 = ORIENTED_EDGE('',*,*,#180,.T.);
#569 = ORIENTED_EDGE('',*,*,#137,.T.);
#570 = ORIENTED_EDGE('',*,*,#571,.F.);
#571 = EDGE_CURVE('',#315,#129,#572,.T.);
#572 = LINE('',#573,#574);
#573 = CARTESIAN_POINT('',(17.5,13.,1.));
#574 = VECTOR('',#575,1.);
#575 = DIRECTION('',(0.,0.,1.));
#576 = PLANE('',#577);
#577 = AXIS2_PLACEMENT_3D('',#578,#579,#580);
#578 = CARTESIAN_POINT('',(-21.,13.,1.));
#579 = DIRECTION('',(0.,1.,0.));
#580 = DIRECTION('',(0.,0.,1.));
#581 = ADVANCED_FACE('',(#582),#614,.T.);
#582 = FACE_BOUND('',#583,.F.);
#583 = EDGE_LOOP('',(#584,#590,#591,#612,#613));
#584 = ORIENTED_EDGE('',*,*,#585,.F.);
#585 = EDGE_CURVE('',#298,#112,#586,.T.);
#586 = LINE('',#587,#588);
#587 = CARTESIAN_POINT('',(21.,-9.5,1.));
#588 = VECTOR('',#589,1.);
#589 = DIRECTION('',(0.,0.,1.));
#590 = ORIENTED_EDGE('',*,*,#297,.T.);
#591 = ORIENTED_EDGE('',*,*,#592,.F.);
#592 = EDGE_CURVE('',#546,#289,#593,.T.);
#593 = B_SPLINE_CURVE_WITH_KNOTS('',5,(#594,#595,#596,#597,#598,#599,
    #600,#601,#602,#603,#604,#605,#606,#607,#608,#609,#610,#611),
  .UNSPECIFIED.,.F.,.F.,(6,4,4,4,6),(0.,0.890748560864,0.936321418467,
    0.958036850962,1.),.UNSPECIFIED.);
#594 = CARTESIAN_POINT('',(17.5,-13.,1.565685424949));
#595 = CARTESIAN_POINT('',(17.517338633054,-13.,1.467603304878));
#596 = CARTESIAN_POINT('',(17.530742021391,-12.99989272117,
    1.369140269784));
#597 = CARTESIAN_POINT('',(17.540350540994,-12.99977506882,
    1.270422513437));
#598 = CARTESIAN_POINT('',(17.546234514138,-12.9996952881,1.171560949066
    ));
#599 = CARTESIAN_POINT('',(17.548522803399,-12.99966363383,1.06759230491
    ));
#600 = CARTESIAN_POINT('',(17.548624475412,-12.99966222295,
    1.062531800991));
#601 = CARTESIAN_POINT('',(17.548716445495,-12.99966094339,
    1.057471193301));
#602 = CARTESIAN_POINT('',(17.548798715475,-12.99965979641,
    1.052410495501));
#603 = CARTESIAN_POINT('',(17.548905866975,-12.99965830008,
    1.044938266051));
#604 = CARTESIAN_POINT('',(17.548940503129,-12.99965781598,
    1.042361801155));
#605 = CARTESIAN_POINT('',(17.548975160883,-12.99965733114,1.03960955496
    ));
#606 = CARTESIAN_POINT('',(17.549009800864,-12.99965684612,
    1.036593625662));
#607 = CARTESIAN_POINT('',(17.549111197283,-12.99965542514,
    1.026492511068));
#608 = CARTESIAN_POINT('',(17.549161241361,-12.99965472223,
    1.019835362589));
#609 = CARTESIAN_POINT('',(17.549194513375,-12.99965425436,
    1.013179180735));
#610 = CARTESIAN_POINT('',(17.549211014446,-12.99965402233,
    1.006523776939));
#611 = CARTESIAN_POINT('',(17.549210744361,-12.99965402613,
    0.999867129121));
#612 = ORIENTED_EDGE('',*,*,#545,.T.);
#613 = ORIENTED_EDGE('',*,*,#111,.F.);
#614 = CYLINDRICAL_SURFACE('',#615,3.5);
#615 = AXIS2_PLACEMENT_3D('',#616,#617,#618);
#616 = CARTESIAN_POINT('',(17.5,-9.5,1.));
#617 = DIRECTION('',(0.,0.,1.));
#618 = DIRECTION('',(1.,0.,0.));
#619 = ADVANCED_FACE('',(#620,#631),#752,.T.);
#620 = FACE_BOUND('',#621,.T.);
#621 = EDGE_LOOP('',(#622,#623,#624,#625));
#622 = ORIENTED_EDGE('',*,*,#314,.T.);
#623 = ORIENTED_EDGE('',*,*,#571,.T.);
#624 = ORIENTED_EDGE('',*,*,#128,.F.);
#625 = ORIENTED_EDGE('',*,*,#626,.F.);
#626 = EDGE_CURVE('',#307,#121,#627,.T.);
#627 = LINE('',#628,#629);
#628 = CARTESIAN_POINT('',(21.,9.5,1.));
#629 = VECTOR('',#630,1.);
#630 = DIRECTION('',(0.,0.,1.));
#631 = FACE_BOUND('',#632,.T.);
#632 = EDGE_LOOP('',(#633,#657,#666,#688,#696,#718,#727,#746));
#633 = ORIENTED_EDGE('',*,*,#634,.T.);
#634 = EDGE_CURVE('',#635,#637,#639,.T.);
#635 = VERTEX_POINT('',#636);
#636 = CARTESIAN_POINT('',(20.973238616575,9.931987861327,4.01));
#637 = VERTEX_POINT('',#638);
#638 = CARTESIAN_POINT('',(20.866975073808,10.455760876138,4.5));
#639 = B_SPLINE_CURVE_WITH_KNOTS('',6,(#640,#641,#642,#643,#644,#645,
    #646,#647,#648,#649,#650,#651,#652,#653,#654,#655,#656),
  .UNSPECIFIED.,.F.,.F.,(7,5,5,7),(0.,0.224893084347,0.7175792951,1.),
  .UNSPECIFIED.);
#640 = CARTESIAN_POINT('',(20.973238616575,9.931987861327,4.01));
#641 = CARTESIAN_POINT('',(20.973238616575,9.931987861327,4.038191909712
    ));
#642 = CARTESIAN_POINT('',(20.972966711555,9.934173620449,4.066381869973
    ));
#643 = CARTESIAN_POINT('',(20.97242319304,9.938544627565,4.094412912635)
  );
#644 = CARTESIAN_POINT('',(20.971600063962,9.945077427082,4.122127564326
    ));
#645 = CARTESIAN_POINT('',(20.970482606439,9.953725565879,4.149368897407
    ));
#646 = CARTESIAN_POINT('',(20.965914536514,9.987847444781,4.234283516865
    ));
#647 = CARTESIAN_POINT('',(20.961268573363,10.021104517579,
    4.289594800363));
#648 = CARTESIAN_POINT('',(20.954904818706,10.063489802213,
    4.340303821485));
#649 = CARTESIAN_POINT('',(20.946492140893,10.113802141325,4.38485236684
    ));
#650 = CARTESIAN_POINT('',(20.93575440607,10.170449493912,4.421818790192
    ));
#651 = CARTESIAN_POINT('',(20.91518905871,10.266660783827,4.466206933425
    ));
#652 = CARTESIAN_POINT('',(20.906927922468,10.303202434095,
    4.479506642637));
#653 = CARTESIAN_POINT('',(20.897909514515,10.340818757368,
    4.489680724004));
#654 = CARTESIAN_POINT('',(20.888181024806,10.379073929428,
    4.496548195264));
#655 = CARTESIAN_POINT('',(20.877827826998,10.417528562612,4.5));
#656 = CARTESIAN_POINT('',(20.866975073808,10.455760876138,4.5));
#657 = ORIENTED_EDGE('',*,*,#658,.T.);
#658 = EDGE_CURVE('',#637,#659,#661,.T.);
#659 = VERTEX_POINT('',#660);
#660 = CARTESIAN_POINT('',(18.849074321705,12.729550816215,4.5));
#661 = CIRCLE('',#662,3.5);
#662 = AXIS2_PLACEMENT_3D('',#663,#664,#665);
#663 = CARTESIAN_POINT('',(17.5,9.5,4.5));
#664 = DIRECTION('',(0.,0.,1.));
#665 = DIRECTION('',(1.,0.,0.));
#666 = ORIENTED_EDGE('',*,*,#667,.F.);
#667 = EDGE_CURVE('',#668,#659,#670,.T.);
#668 = VERTEX_POINT('',#669);
#669 = CARTESIAN_POINT('',(18.261336429892,12.91619186237,4.01));
#670 = B_SPLINE_CURVE_WITH_KNOTS('',6,(#671,#672,#673,#674,#675,#676,
    #677,#678,#679,#680,#681,#682,#683,#684,#685,#686,#687),
  .UNSPECIFIED.,.F.,.F.,(7,5,5,7),(0.,0.295625782274,0.625731739223,1.),
  .UNSPECIFIED.);
#671 = CARTESIAN_POINT('',(18.261336429892,12.91619186237,4.01));
#672 = CARTESIAN_POINT('',(18.261336429892,12.91619186237,4.048345168481
    ));
#673 = CARTESIAN_POINT('',(18.266098628136,12.915130538253,
    4.086644494503));
#674 = CARTESIAN_POINT('',(18.27560168726,12.913012745989,4.124463227841
    ));
#675 = CARTESIAN_POINT('',(18.289670328501,12.909824961749,
    4.161369042508));
#676 = CARTESIAN_POINT('',(18.307973937636,12.905538648207,
    4.196929797081));
#677 = CARTESIAN_POINT('',(18.354654426948,12.894143251129,
    4.268491812466));
#678 = CARTESIAN_POINT('',(18.383969619619,12.886760393264,4.30407997431
    ));
#679 = CARTESIAN_POINT('',(18.41743261137,12.877973754437,4.337124026577
    ));
#680 = CARTESIAN_POINT('',(18.454439700956,12.867746800992,
    4.367251863638));
#681 = CARTESIAN_POINT('',(18.494346220044,12.856072446485,
    4.394117568239));
#682 = CARTESIAN_POINT('',(18.584268141857,12.828192447683,
    4.443840117312));
#683 = CARTESIAN_POINT('',(18.635040660098,12.811552374403,
    4.465745669377));
#684 = CARTESIAN_POINT('',(18.687848326866,12.793154016101,
    4.482647603925));
#685 = CARTESIAN_POINT('',(18.741720754295,12.773154258027,
    4.494159217219));
#686 = CARTESIAN_POINT('',(18.795745298019,12.751827851181,4.5));
#687 = CARTESIAN_POINT('',(18.849074321705,12.729550816215,4.5));
#688 = ORIENTED_EDGE('',*,*,#689,.F.);
#689 = EDGE_CURVE('',#690,#668,#692,.T.);
#690 = VERTEX_POINT('',#691);
#691 = CARTESIAN_POINT('',(18.261336429892,12.91619186237,3.99));
#692 = LINE('',#693,#694);
#693 = CARTESIAN_POINT('',(18.261336429892,12.91619186237,3.5));
#694 = VECTOR('',#695,1.);
#695 = DIRECTION('',(0.,0.,1.));
#696 = ORIENTED_EDGE('',*,*,#697,.T.);
#697 = EDGE_CURVE('',#690,#698,#700,.T.);
#698 = VERTEX_POINT('',#699);
#699 = CARTESIAN_POINT('',(18.849074321705,12.729550816215,3.5));
#700 = B_SPLINE_CURVE_WITH_KNOTS('',6,(#701,#702,#703,#704,#705,#706,
    #707,#708,#709,#710,#711,#712,#713,#714,#715,#716,#717),
  .UNSPECIFIED.,.F.,.F.,(7,5,5,7),(0.,0.295625782396,0.625731739501,1.),
  .UNSPECIFIED.);
#701 = CARTESIAN_POINT('',(18.261336429892,12.91619186237,3.99));
#702 = CARTESIAN_POINT('',(18.261336429892,12.91619186237,3.951654830831
    ));
#703 = CARTESIAN_POINT('',(18.266098628307,12.915130538215,
    3.913355504126));
#704 = CARTESIAN_POINT('',(18.275601687771,12.913012745876,3.87553677013
    ));
#705 = CARTESIAN_POINT('',(18.289670329508,12.909824961521,
    3.838630954853));
#706 = CARTESIAN_POINT('',(18.307973939273,12.905538647823,
    3.803070199739));
#707 = CARTESIAN_POINT('',(18.354654430137,12.894143250332,
    3.731508183394));
#708 = CARTESIAN_POINT('',(18.38396962376,12.886760392199,3.695920021151
    ));
#709 = CARTESIAN_POINT('',(18.41743261656,12.877973753049,3.662875968607
    ));
#710 = CARTESIAN_POINT('',(18.45443970726,12.867746799229,3.63274813141)
  );
#711 = CARTESIAN_POINT('',(18.494346227492,12.856072444294,
    3.605882426828));
#712 = CARTESIAN_POINT('',(18.584268151682,12.828192444502,
    3.556159878179));
#713 = CARTESIAN_POINT('',(18.635040671159,12.811552370647,
    3.534254326554));
#714 = CARTESIAN_POINT('',(18.687848339107,12.793154011726,3.51735239267
    ));
#715 = CARTESIAN_POINT('',(18.741720767605,12.77315425301,3.505840780279
    ));
#716 = CARTESIAN_POINT('',(18.79574531224,12.75182784553,3.499999998637)
  );
#717 = CARTESIAN_POINT('',(18.84907433664,12.729550809976,3.5));
#718 = ORIENTED_EDGE('',*,*,#719,.F.);
#719 = EDGE_CURVE('',#720,#698,#722,.T.);
#720 = VERTEX_POINT('',#721);
#721 = CARTESIAN_POINT('',(20.866975073808,10.455760876138,3.5));
#722 = CIRCLE('',#723,3.5);
#723 = AXIS2_PLACEMENT_3D('',#724,#725,#726);
#724 = CARTESIAN_POINT('',(17.5,9.5,3.5));
#725 = DIRECTION('',(-0.,0.,1.));
#726 = DIRECTION('',(0.,-1.,0.));
#727 = ORIENTED_EDGE('',*,*,#728,.F.);
#728 = EDGE_CURVE('',#729,#720,#731,.T.);
#729 = VERTEX_POINT('',#730);
#730 = CARTESIAN_POINT('',(20.973238616575,9.931987861327,3.99));
#731 = B_SPLINE_CURVE_WITH_KNOTS('',7,(#732,#733,#734,#735,#736,#737,
    #738,#739,#740,#741,#742,#743,#744,#745),.UNSPECIFIED.,.F.,.F.,(8,6,
    8),(0.,0.717500184208,1.),.UNSPECIFIED.);
#732 = CARTESIAN_POINT('',(20.973238616575,9.931987861327,3.99));
#733 = CARTESIAN_POINT('',(20.973238616575,9.931987861327,3.912761541247
    ));
#734 = CARTESIAN_POINT('',(20.971255090809,9.94793901492,3.835740793264)
  );
#735 = CARTESIAN_POINT('',(20.967305316055,9.979678326084,3.761701370793
    ));
#736 = CARTESIAN_POINT('',(20.961052091112,10.026236311758,
    3.693408939706));
#737 = CARTESIAN_POINT('',(20.951792726962,10.085706471933,
    3.633677140565));
#738 = CARTESIAN_POINT('',(20.93899510347,10.155288472238,3.585175914923
    ));
#739 = CARTESIAN_POINT('',(20.916259524839,10.261652799994,
    3.536103555333));
#740 = CARTESIAN_POINT('',(20.909288247109,10.29276196259,3.524293274281
    ));
#741 = CARTESIAN_POINT('',(20.901774546495,10.324697475965,
    3.514679596582));
#742 = CARTESIAN_POINT('',(20.893740161783,10.357213831108,
    3.507376074027));
#743 = CARTESIAN_POINT('',(20.88522296829,10.39006096748,3.502465574811)
  );
#744 = CARTESIAN_POINT('',(20.876277433685,10.422990321687,3.5));
#745 = CARTESIAN_POINT('',(20.866975073808,10.455760876138,3.5));
#746 = ORIENTED_EDGE('',*,*,#747,.T.);
#747 = EDGE_CURVE('',#729,#635,#748,.T.);
#748 = LINE('',#749,#750);
#749 = CARTESIAN_POINT('',(20.973238616575,9.931987861327,3.5));
#750 = VECTOR('',#751,1.);
#751 = DIRECTION('',(0.,0.,1.));
#752 = CYLINDRICAL_SURFACE('',#753,3.5);
#753 = AXIS2_PLACEMENT_3D('',#754,#755,#756);
#754 = CARTESIAN_POINT('',(17.5,9.5,1.));
#755 = DIRECTION('',(0.,0.,1.));
#756 = DIRECTION('',(1.,0.,0.));
#757 = ADVANCED_FACE('',(#758),#764,.T.);
#758 = FACE_BOUND('',#759,.T.);
#759 = EDGE_LOOP('',(#760,#761,#762,#763));
#760 = ORIENTED_EDGE('',*,*,#120,.F.);
#761 = ORIENTED_EDGE('',*,*,#585,.F.);
#762 = ORIENTED_EDGE('',*,*,#306,.T.);
#763 = ORIENTED_EDGE('',*,*,#626,.T.);
#764 = PLANE('',#765);
#765 = AXIS2_PLACEMENT_3D('',#766,#767,#768);
#766 = CARTESIAN_POINT('',(21.,-13.,1.));
#767 = DIRECTION('',(1.,0.,0.));
#768 = DIRECTION('',(0.,0.,1.));
#769 = ADVANCED_FACE('',(#770),#790,.F.);
#770 = FACE_BOUND('',#771,.F.);
#771 = EDGE_LOOP('',(#772,#781,#788,#789));
#772 = ORIENTED_EDGE('',*,*,#773,.T.);
#773 = EDGE_CURVE('',#774,#774,#776,.T.);
#774 = VERTEX_POINT('',#775);
#775 = CARTESIAN_POINT('',(18.107878402834,9.,5.));
#776 = CIRCLE('',#777,1.907878402834);
#777 = AXIS2_PLACEMENT_3D('',#778,#779,#780);
#778 = CARTESIAN_POINT('',(16.2,9.,5.));
#779 = DIRECTION('',(0.,0.,1.));
#780 = DIRECTION('',(1.,0.,-0.));
#781 = ORIENTED_EDGE('',*,*,#782,.T.);
#782 = EDGE_CURVE('',#774,#155,#783,.T.);
#783 = CIRCLE('',#784,2.);
#784 = AXIS2_PLACEMENT_3D('',#785,#786,#787);
#785 = CARTESIAN_POINT('',(16.2,9.,4.4));
#786 = DIRECTION('',(-2.449293598295E-16,-1.,0.));
#787 = DIRECTION('',(1.,-2.449293598295E-16,0.));
#788 = ORIENTED_EDGE('',*,*,#154,.F.);
#789 = ORIENTED_EDGE('',*,*,#782,.F.);
#790 = SPHERICAL_SURFACE('',#791,2.);
#791 = AXIS2_PLACEMENT_3D('',#792,#793,#794);
#792 = CARTESIAN_POINT('',(16.2,9.,4.4));
#793 = DIRECTION('',(0.,0.,1.));
#794 = DIRECTION('',(1.,0.,0.));
#795 = ADVANCED_FACE('',(#796),#827,.F.);
#796 = FACE_BOUND('',#797,.F.);
#797 = EDGE_LOOP('',(#798,#807,#808,#809,#810,#811,#820));
#798 = ORIENTED_EDGE('',*,*,#799,.F.);
#799 = EDGE_CURVE('',#461,#800,#802,.T.);
#800 = VERTEX_POINT('',#801);
#801 = CARTESIAN_POINT('',(13.487596159536,-12.1,2.5));
#802 = CIRCLE('',#803,1.705872210923);
#803 = AXIS2_PLACEMENT_3D('',#804,#805,#806);
#804 = CARTESIAN_POINT('',(14.3,-12.1,1.));
#805 = DIRECTION('',(0.,1.,0.));
#806 = DIRECTION('',(0.,0.,1.));
#807 = ORIENTED_EDGE('',*,*,#460,.T.);
#808 = ORIENTED_EDGE('',*,*,#553,.T.);
#809 = ORIENTED_EDGE('',*,*,#592,.T.);
#810 = ORIENTED_EDGE('',*,*,#288,.T.);
#811 = ORIENTED_EDGE('',*,*,#812,.F.);
#812 = EDGE_CURVE('',#813,#281,#815,.T.);
#813 = VERTEX_POINT('',#814);
#814 = CARTESIAN_POINT('',(15.112403840464,-12.1,2.5));
#815 = CIRCLE('',#816,1.705872210923);
#816 = AXIS2_PLACEMENT_3D('',#817,#818,#819);
#817 = CARTESIAN_POINT('',(14.3,-12.1,1.));
#818 = DIRECTION('',(0.,1.,0.));
#819 = DIRECTION('',(0.,0.,1.));
#820 = ORIENTED_EDGE('',*,*,#821,.T.);
#821 = EDGE_CURVE('',#813,#800,#822,.T.);
#822 = CIRCLE('',#823,4.769696007085);
#823 = AXIS2_PLACEMENT_3D('',#824,#825,#826);
#824 = CARTESIAN_POINT('',(14.3,-16.8,2.5));
#825 = DIRECTION('',(0.,0.,1.));
#826 = DIRECTION('',(1.,0.,0.));
#827 = SPHERICAL_SURFACE('',#828,5.);
#828 = AXIS2_PLACEMENT_3D('',#829,#830,#831);
#829 = CARTESIAN_POINT('',(14.3,-16.8,1.));
#830 = DIRECTION('',(0.,0.,1.));
#831 = DIRECTION('',(1.,0.,0.));
#832 = ADVANCED_FACE('',(#833),#852,.F.);
#833 = FACE_BOUND('',#834,.F.);
#834 = EDGE_LOOP('',(#835,#836,#837,#838,#846));
#835 = ORIENTED_EDGE('',*,*,#812,.T.);
#836 = ORIENTED_EDGE('',*,*,#280,.T.);
#837 = ORIENTED_EDGE('',*,*,#272,.T.);
#838 = ORIENTED_EDGE('',*,*,#839,.T.);
#839 = EDGE_CURVE('',#265,#840,#842,.T.);
#840 = VERTEX_POINT('',#841);
#841 = CARTESIAN_POINT('',(16.78,-12.1,2.5));
#842 = LINE('',#843,#844);
#843 = CARTESIAN_POINT('',(16.78,-12.1,1.));
#844 = VECTOR('',#845,1.);
#845 = DIRECTION('',(0.,0.,1.));
#846 = ORIENTED_EDGE('',*,*,#847,.F.);
#847 = EDGE_CURVE('',#813,#840,#848,.T.);
#848 = LINE('',#849,#850);
#849 = CARTESIAN_POINT('',(11.78,-12.1,2.5));
#850 = VECTOR('',#851,1.);
#851 = DIRECTION('',(1.,0.,0.));
#852 = PLANE('',#853);
#853 = AXIS2_PLACEMENT_3D('',#854,#855,#856);
#854 = CARTESIAN_POINT('',(16.012823082622,-12.1,1.087163080312));
#855 = DIRECTION('',(-0.,-1.,-0.));
#856 = DIRECTION('',(0.,0.,-1.));
#857 = ADVANCED_FACE('',(#858),#892,.F.);
#858 = FACE_BOUND('',#859,.F.);
#859 = EDGE_LOOP('',(#860,#861,#862,#870,#878,#886));
#860 = ORIENTED_EDGE('',*,*,#839,.F.);
#861 = ORIENTED_EDGE('',*,*,#264,.T.);
#862 = ORIENTED_EDGE('',*,*,#863,.F.);
#863 = EDGE_CURVE('',#864,#257,#866,.T.);
#864 = VERTEX_POINT('',#865);
#865 = CARTESIAN_POINT('',(16.78,-12.,1.6));
#866 = LINE('',#867,#868);
#867 = CARTESIAN_POINT('',(16.78,-12.,0.5));
#868 = VECTOR('',#869,1.);
#869 = DIRECTION('',(0.,0.,-1.));
#870 = ORIENTED_EDGE('',*,*,#871,.T.);
#871 = EDGE_CURVE('',#864,#872,#874,.T.);
#872 = VERTEX_POINT('',#873);
#873 = CARTESIAN_POINT('',(16.78,-11.48690475241,1.6));
#874 = LINE('',#875,#876);
#875 = CARTESIAN_POINT('',(16.78,-12.05,1.6));
#876 = VECTOR('',#877,1.);
#877 = DIRECTION('',(0.,1.,0.));
#878 = ORIENTED_EDGE('',*,*,#879,.T.);
#879 = EDGE_CURVE('',#872,#880,#882,.T.);
#880 = VERTEX_POINT('',#881);
#881 = CARTESIAN_POINT('',(16.78,-11.48690475241,2.5));
#882 = LINE('',#883,#884);
#883 = CARTESIAN_POINT('',(16.78,-11.48690475241,1.));
#884 = VECTOR('',#885,1.);
#885 = DIRECTION('',(0.,0.,1.));
#886 = ORIENTED_EDGE('',*,*,#887,.F.);
#887 = EDGE_CURVE('',#840,#880,#888,.T.);
#888 = LINE('',#889,#890);
#889 = CARTESIAN_POINT('',(16.78,-12.1,2.5));
#890 = VECTOR('',#891,1.);
#891 = DIRECTION('',(0.,1.,0.));
#892 = PLANE('',#893);
#893 = AXIS2_PLACEMENT_3D('',#894,#895,#896);
#894 = CARTESIAN_POINT('',(16.78,-12.1,1.));
#895 = DIRECTION('',(1.,0.,0.));
#896 = DIRECTION('',(0.,0.,1.));
#897 = ADVANCED_FACE('',(#898),#916,.T.);
#898 = FACE_BOUND('',#899,.T.);
#899 = EDGE_LOOP('',(#900,#908,#909,#910));
#900 = ORIENTED_EDGE('',*,*,#901,.F.);
#901 = EDGE_CURVE('',#248,#902,#904,.T.);
#902 = VERTEX_POINT('',#903);
#903 = CARTESIAN_POINT('',(17.,-12.,1.6));
#904 = LINE('',#905,#906);
#905 = CARTESIAN_POINT('',(17.,-12.,0.));
#906 = VECTOR('',#907,1.);
#907 = DIRECTION('',(0.,0.,1.));
#908 = ORIENTED_EDGE('',*,*,#256,.T.);
#909 = ORIENTED_EDGE('',*,*,#863,.F.);
#910 = ORIENTED_EDGE('',*,*,#911,.T.);
#911 = EDGE_CURVE('',#864,#902,#912,.T.);
#912 = LINE('',#913,#914);
#913 = CARTESIAN_POINT('',(-20.,-12.,1.6));
#914 = VECTOR('',#915,1.);
#915 = DIRECTION('',(1.,0.,0.));
#916 = PLANE('',#917);
#917 = AXIS2_PLACEMENT_3D('',#918,#919,#920);
#918 = CARTESIAN_POINT('',(-20.,-12.,0.));
#919 = DIRECTION('',(0.,1.,0.));
#920 = DIRECTION('',(0.,0.,1.));
#921 = ADVANCED_FACE('',(#922),#941,.F.);
#922 = FACE_BOUND('',#923,.T.);
#923 = EDGE_LOOP('',(#924,#932,#933,#934));
#924 = ORIENTED_EDGE('',*,*,#925,.F.);
#925 = EDGE_CURVE('',#240,#926,#928,.T.);
#926 = VERTEX_POINT('',#927);
#927 = CARTESIAN_POINT('',(20.,-9.,1.6));
#928 = LINE('',#929,#930);
#929 = CARTESIAN_POINT('',(20.,-9.,0.));
#930 = VECTOR('',#931,1.);
#931 = DIRECTION('',(0.,0.,1.));
#932 = ORIENTED_EDGE('',*,*,#247,.F.);
#933 = ORIENTED_EDGE('',*,*,#901,.T.);
#934 = ORIENTED_EDGE('',*,*,#935,.F.);
#935 = EDGE_CURVE('',#926,#902,#936,.T.);
#936 = CIRCLE('',#937,3.);
#937 = AXIS2_PLACEMENT_3D('',#938,#939,#940);
#938 = CARTESIAN_POINT('',(17.,-9.,1.6));
#939 = DIRECTION('',(-0.,-0.,-1.));
#940 = DIRECTION('',(0.,-1.,0.));
#941 = CYLINDRICAL_SURFACE('',#942,3.);
#942 = AXIS2_PLACEMENT_3D('',#943,#944,#945);
#943 = CARTESIAN_POINT('',(17.,-9.,0.));
#944 = DIRECTION('',(0.,0.,1.));
#945 = DIRECTION('',(1.,0.,0.));
#946 = ADVANCED_FACE('',(#947),#965,.F.);
#947 = FACE_BOUND('',#948,.F.);
#948 = EDGE_LOOP('',(#949,#957,#958,#959));
#949 = ORIENTED_EDGE('',*,*,#950,.F.);
#950 = EDGE_CURVE('',#926,#951,#953,.T.);
#951 = VERTEX_POINT('',#952);
#952 = CARTESIAN_POINT('',(20.,9.,1.6));
#953 = LINE('',#954,#955);
#954 = CARTESIAN_POINT('',(20.,-12.,1.6));
#955 = VECTOR('',#956,1.);
#956 = DIRECTION('',(0.,1.,0.));
#957 = ORIENTED_EDGE('',*,*,#925,.F.);
#958 = ORIENTED_EDGE('',*,*,#239,.T.);
#959 = ORIENTED_EDGE('',*,*,#960,.T.);
#960 = EDGE_CURVE('',#231,#951,#961,.T.);
#961 = LINE('',#962,#963);
#962 = CARTESIAN_POINT('',(20.,9.,0.));
#963 = VECTOR('',#964,1.);
#964 = DIRECTION('',(0.,0.,1.));
#965 = PLANE('',#966);
#966 = AXIS2_PLACEMENT_3D('',#967,#968,#969);
#967 = CARTESIAN_POINT('',(20.,-12.,0.));
#968 = DIRECTION('',(1.,0.,0.));
#969 = DIRECTION('',(0.,0.,1.));
#970 = ADVANCED_FACE('',(#971),#990,.F.);
#971 = FACE_BOUND('',#972,.F.);
#972 = EDGE_LOOP('',(#973,#974,#975,#983));
#973 = ORIENTED_EDGE('',*,*,#960,.F.);
#974 = ORIENTED_EDGE('',*,*,#230,.T.);
#975 = ORIENTED_EDGE('',*,*,#976,.T.);
#976 = EDGE_CURVE('',#223,#977,#979,.T.);
#977 = VERTEX_POINT('',#978);
#978 = CARTESIAN_POINT('',(17.,12.,1.6));
#979 = LINE('',#980,#981);
#980 = CARTESIAN_POINT('',(17.,12.,0.));
#981 = VECTOR('',#982,1.);
#982 = DIRECTION('',(0.,0.,1.));
#983 = ORIENTED_EDGE('',*,*,#984,.F.);
#984 = EDGE_CURVE('',#951,#977,#985,.T.);
#985 = CIRCLE('',#986,3.);
#986 = AXIS2_PLACEMENT_3D('',#987,#988,#989);
#987 = CARTESIAN_POINT('',(17.,9.,1.6));
#988 = DIRECTION('',(-0.,0.,1.));
#989 = DIRECTION('',(0.,-1.,0.));
#990 = CYLINDRICAL_SURFACE('',#991,3.);
#991 = AXIS2_PLACEMENT_3D('',#992,#993,#994);
#992 = CARTESIAN_POINT('',(17.,9.,0.));
#993 = DIRECTION('',(0.,0.,1.));
#994 = DIRECTION('',(1.,0.,0.));
#995 = ADVANCED_FACE('',(#996),#1014,.F.);
#996 = FACE_BOUND('',#997,.F.);
#997 = EDGE_LOOP('',(#998,#999,#1007,#1013));
#998 = ORIENTED_EDGE('',*,*,#222,.T.);
#999 = ORIENTED_EDGE('',*,*,#1000,.T.);
#1000 = EDGE_CURVE('',#214,#1001,#1003,.T.);
#1001 = VERTEX_POINT('',#1002);
#1002 = CARTESIAN_POINT('',(-17.,12.,1.6));
#1003 = LINE('',#1004,#1005);
#1004 = CARTESIAN_POINT('',(-17.,12.,0.));
#1005 = VECTOR('',#1006,1.);
#1006 = DIRECTION('',(0.,0.,1.));
#1007 = ORIENTED_EDGE('',*,*,#1008,.T.);
#1008 = EDGE_CURVE('',#1001,#977,#1009,.T.);
#1009 = LINE('',#1010,#1011);
#1010 = CARTESIAN_POINT('',(-20.,12.,1.6));
#1011 = VECTOR('',#1012,1.);
#1012 = DIRECTION('',(1.,0.,0.));
#1013 = ORIENTED_EDGE('',*,*,#976,.F.);
#1014 = PLANE('',#1015);
#1015 = AXIS2_PLACEMENT_3D('',#1016,#1017,#1018);
#1016 = CARTESIAN_POINT('',(-20.,12.,0.));
#1017 = DIRECTION('',(0.,1.,0.));
#1018 = DIRECTION('',(0.,0.,1.));
#1019 = ADVANCED_FACE('',(#1020),#1039,.F.);
#1020 = FACE_BOUND('',#1021,.T.);
#1021 = EDGE_LOOP('',(#1022,#1030,#1031,#1032));
#1022 = ORIENTED_EDGE('',*,*,#1023,.F.);
#1023 = EDGE_CURVE('',#206,#1024,#1026,.T.);
#1024 = VERTEX_POINT('',#1025);
#1025 = CARTESIAN_POINT('',(-20.,9.,1.6));
#1026 = LINE('',#1027,#1028);
#1027 = CARTESIAN_POINT('',(-20.,9.,0.));
#1028 = VECTOR('',#1029,1.);
#1029 = DIRECTION('',(0.,0.,1.));
#1030 = ORIENTED_EDGE('',*,*,#213,.F.);
#1031 = ORIENTED_EDGE('',*,*,#1000,.T.);
#1032 = ORIENTED_EDGE('',*,*,#1033,.F.);
#1033 = EDGE_CURVE('',#1024,#1001,#1034,.T.);
#1034 = CIRCLE('',#1035,3.);
#1035 = AXIS2_PLACEMENT_3D('',#1036,#1037,#1038);
#1036 = CARTESIAN_POINT('',(-17.,9.,1.6));
#1037 = DIRECTION('',(-0.,-0.,-1.));
#1038 = DIRECTION('',(0.,-1.,0.));
#1039 = CYLINDRICAL_SURFACE('',#1040,3.);
#1040 = AXIS2_PLACEMENT_3D('',#1041,#1042,#1043);
#1041 = CARTESIAN_POINT('',(-17.,9.,0.));
#1042 = DIRECTION('',(0.,0.,1.));
#1043 = DIRECTION('',(-1.,0.,0.));
#1044 = ADVANCED_FACE('',(#1045),#1056,.T.);
#1045 = FACE_BOUND('',#1046,.T.);
#1046 = EDGE_LOOP('',(#1047,#1053,#1054,#1055));
#1047 = ORIENTED_EDGE('',*,*,#1048,.F.);
#1048 = EDGE_CURVE('',#355,#1024,#1049,.T.);
#1049 = LINE('',#1050,#1051);
#1050 = CARTESIAN_POINT('',(-20.,-12.,1.6));
#1051 = VECTOR('',#1052,1.);
#1052 = DIRECTION('',(0.,1.,0.));
#1053 = ORIENTED_EDGE('',*,*,#362,.F.);
#1054 = ORIENTED_EDGE('',*,*,#205,.T.);
#1055 = ORIENTED_EDGE('',*,*,#1023,.T.);
#1056 = PLANE('',#1057);
#1057 = AXIS2_PLACEMENT_3D('',#1058,#1059,#1060);
#1058 = CARTESIAN_POINT('',(-20.,-12.,0.));
#1059 = DIRECTION('',(1.,0.,0.));
#1060 = DIRECTION('',(0.,0.,1.));
#1061 = ADVANCED_FACE('',(#1062),#1122,.F.);
#1062 = FACE_BOUND('',#1063,.F.);
#1063 = EDGE_LOOP('',(#1064,#1065,#1066,#1074,#1083,#1091,#1100,#1108,
    #1115,#1116,#1117,#1118,#1119,#1120,#1121));
#1064 = ORIENTED_EDGE('',*,*,#1048,.F.);
#1065 = ORIENTED_EDGE('',*,*,#354,.F.);
#1066 = ORIENTED_EDGE('',*,*,#1067,.F.);
#1067 = EDGE_CURVE('',#1068,#347,#1070,.T.);
#1068 = VERTEX_POINT('',#1069);
#1069 = CARTESIAN_POINT('',(-19.5,8.5,1.6));
#1070 = LINE('',#1071,#1072);
#1071 = CARTESIAN_POINT('',(-19.5,-11.75,1.6));
#1072 = VECTOR('',#1073,1.);
#1073 = DIRECTION('',(0.,-1.,0.));
#1074 = ORIENTED_EDGE('',*,*,#1075,.F.);
#1075 = EDGE_CURVE('',#1076,#1068,#1078,.T.);
#1076 = VERTEX_POINT('',#1077);
#1077 = CARTESIAN_POINT('',(-16.5,11.5,1.6));
#1078 = CIRCLE('',#1079,3.);
#1079 = AXIS2_PLACEMENT_3D('',#1080,#1081,#1082);
#1080 = CARTESIAN_POINT('',(-16.5,8.5,1.6));
#1081 = DIRECTION('',(0.,0.,1.));
#1082 = DIRECTION('',(-1.,0.,0.));
#1083 = ORIENTED_EDGE('',*,*,#1084,.T.);
#1084 = EDGE_CURVE('',#1076,#1085,#1087,.T.);
#1085 = VERTEX_POINT('',#1086);
#1086 = CARTESIAN_POINT('',(16.5,11.5,1.6));
#1087 = LINE('',#1088,#1089);
#1088 = CARTESIAN_POINT('',(-19.75,11.5,1.6));
#1089 = VECTOR('',#1090,1.);
#1090 = DIRECTION('',(1.,0.,0.));
#1091 = ORIENTED_EDGE('',*,*,#1092,.F.);
#1092 = EDGE_CURVE('',#1093,#1085,#1095,.T.);
#1093 = VERTEX_POINT('',#1094);
#1094 = CARTESIAN_POINT('',(19.5,8.5,1.6));
#1095 = CIRCLE('',#1096,3.);
#1096 = AXIS2_PLACEMENT_3D('',#1097,#1098,#1099);
#1097 = CARTESIAN_POINT('',(16.5,8.5,1.6));
#1098 = DIRECTION('',(0.,0.,1.));
#1099 = DIRECTION('',(1.,0.,0.));
#1100 = ORIENTED_EDGE('',*,*,#1101,.T.);
#1101 = EDGE_CURVE('',#1093,#1102,#1104,.T.);
#1102 = VERTEX_POINT('',#1103);
#1103 = CARTESIAN_POINT('',(19.5,-8.5,1.6));
#1104 = LINE('',#1105,#1106);
#1105 = CARTESIAN_POINT('',(19.5,-11.75,1.6));
#1106 = VECTOR('',#1107,1.);
#1107 = DIRECTION('',(0.,-1.,0.));
#1108 = ORIENTED_EDGE('',*,*,#1109,.F.);
#1109 = EDGE_CURVE('',#872,#1102,#1110,.T.);
#1110 = CIRCLE('',#1111,3.);
#1111 = AXIS2_PLACEMENT_3D('',#1112,#1113,#1114);
#1112 = CARTESIAN_POINT('',(16.5,-8.5,1.6));
#1113 = DIRECTION('',(0.,0.,1.));
#1114 = DIRECTION('',(1.,0.,0.));
#1115 = ORIENTED_EDGE('',*,*,#871,.F.);
#1116 = ORIENTED_EDGE('',*,*,#911,.T.);
#1117 = ORIENTED_EDGE('',*,*,#935,.F.);
#1118 = ORIENTED_EDGE('',*,*,#950,.T.);
#1119 = ORIENTED_EDGE('',*,*,#984,.T.);
#1120 = ORIENTED_EDGE('',*,*,#1008,.F.);
#1121 = ORIENTED_EDGE('',*,*,#1033,.F.);
#1122 = PLANE('',#1123);
#1123 = AXIS2_PLACEMENT_3D('',#1124,#1125,#1126);
#1124 = CARTESIAN_POINT('',(-20.,-12.,1.6));
#1125 = DIRECTION('',(0.,0.,1.));
#1126 = DIRECTION('',(1.,0.,0.));
#1127 = ADVANCED_FACE('',(#1128),#1164,.T.);
#1128 = FACE_BOUND('',#1129,.T.);
#1129 = EDGE_LOOP('',(#1130,#1140,#1148,#1154,#1155,#1156,#1157,#1158));
#1130 = ORIENTED_EDGE('',*,*,#1131,.F.);
#1131 = EDGE_CURVE('',#1132,#1134,#1136,.T.);
#1132 = VERTEX_POINT('',#1133);
#1133 = CARTESIAN_POINT('',(-19.5,-8.5,5.));
#1134 = VERTEX_POINT('',#1135);
#1135 = CARTESIAN_POINT('',(-19.5,8.5,5.));
#1136 = LINE('',#1137,#1138);
#1137 = CARTESIAN_POINT('',(-19.5,-11.5,5.));
#1138 = VECTOR('',#1139,1.);
#1139 = DIRECTION('',(0.,1.,0.));
#1140 = ORIENTED_EDGE('',*,*,#1141,.F.);
#1141 = EDGE_CURVE('',#1142,#1132,#1144,.T.);
#1142 = VERTEX_POINT('',#1143);
#1143 = CARTESIAN_POINT('',(-19.5,-8.5,1.6));
#1144 = LINE('',#1145,#1146);
#1145 = CARTESIAN_POINT('',(-19.5,-8.5,1.));
#1146 = VECTOR('',#1147,1.);
#1147 = DIRECTION('',(0.,0.,1.));
#1148 = ORIENTED_EDGE('',*,*,#1149,.F.);
#1149 = EDGE_CURVE('',#404,#1142,#1150,.T.);
#1150 = LINE('',#1151,#1152);
#1151 = CARTESIAN_POINT('',(-19.5,-11.75,1.6));
#1152 = VECTOR('',#1153,1.);
#1153 = DIRECTION('',(0.,-1.,0.));
#1154 = ORIENTED_EDGE('',*,*,#403,.T.);
#1155 = ORIENTED_EDGE('',*,*,#386,.F.);
#1156 = ORIENTED_EDGE('',*,*,#346,.F.);
#1157 = ORIENTED_EDGE('',*,*,#1067,.F.);
#1158 = ORIENTED_EDGE('',*,*,#1159,.T.);
#1159 = EDGE_CURVE('',#1068,#1134,#1160,.T.);
#1160 = LINE('',#1161,#1162);
#1161 = CARTESIAN_POINT('',(-19.5,8.5,1.));
#1162 = VECTOR('',#1163,1.);
#1163 = DIRECTION('',(0.,0.,1.));
#1164 = PLANE('',#1165);
#1165 = AXIS2_PLACEMENT_3D('',#1166,#1167,#1168);
#1166 = CARTESIAN_POINT('',(-19.5,-11.5,1.));
#1167 = DIRECTION('',(1.,0.,0.));
#1168 = DIRECTION('',(0.,0.,1.));
#1169 = ADVANCED_FACE('',(#1170),#1188,.T.);
#1170 = FACE_BOUND('',#1171,.T.);
#1171 = EDGE_LOOP('',(#1172,#1180,#1186,#1187));
#1172 = ORIENTED_EDGE('',*,*,#1173,.F.);
#1173 = EDGE_CURVE('',#1174,#412,#1176,.T.);
#1174 = VERTEX_POINT('',#1175);
#1175 = CARTESIAN_POINT('',(-20.,-9.,1.6));
#1176 = LINE('',#1177,#1178);
#1177 = CARTESIAN_POINT('',(-20.,-12.,1.6));
#1178 = VECTOR('',#1179,1.);
#1179 = DIRECTION('',(0.,1.,0.));
#1180 = ORIENTED_EDGE('',*,*,#1181,.F.);
#1181 = EDGE_CURVE('',#502,#1174,#1182,.T.);
#1182 = LINE('',#1183,#1184);
#1183 = CARTESIAN_POINT('',(-20.,-9.,0.));
#1184 = VECTOR('',#1185,1.);
#1185 = DIRECTION('',(0.,0.,1.));
#1186 = ORIENTED_EDGE('',*,*,#510,.T.);
#1187 = ORIENTED_EDGE('',*,*,#419,.T.);
#1188 = PLANE('',#1189);
#1189 = AXIS2_PLACEMENT_3D('',#1190,#1191,#1192);
#1190 = CARTESIAN_POINT('',(-20.,-12.,0.));
#1191 = DIRECTION('',(1.,0.,0.));
#1192 = DIRECTION('',(0.,0.,1.));
#1193 = ADVANCED_FACE('',(#1194),#1239,.F.);
#1194 = FACE_BOUND('',#1195,.F.);
#1195 = EDGE_LOOP('',(#1196,#1197,#1206,#1214,#1222,#1230,#1237,#1238));
#1196 = ORIENTED_EDGE('',*,*,#1173,.F.);
#1197 = ORIENTED_EDGE('',*,*,#1198,.T.);
#1198 = EDGE_CURVE('',#1174,#1199,#1201,.T.);
#1199 = VERTEX_POINT('',#1200);
#1200 = CARTESIAN_POINT('',(-17.,-12.,1.6));
#1201 = CIRCLE('',#1202,3.);
#1202 = AXIS2_PLACEMENT_3D('',#1203,#1204,#1205);
#1203 = CARTESIAN_POINT('',(-17.,-9.,1.6));
#1204 = DIRECTION('',(-0.,0.,1.));
#1205 = DIRECTION('',(0.,-1.,0.));
#1206 = ORIENTED_EDGE('',*,*,#1207,.T.);
#1207 = EDGE_CURVE('',#1199,#1208,#1210,.T.);
#1208 = VERTEX_POINT('',#1209);
#1209 = CARTESIAN_POINT('',(11.78,-12.,1.6));
#1210 = LINE('',#1211,#1212);
#1211 = CARTESIAN_POINT('',(-20.,-12.,1.6));
#1212 = VECTOR('',#1213,1.);
#1213 = DIRECTION('',(1.,0.,0.));
#1214 = ORIENTED_EDGE('',*,*,#1215,.T.);
#1215 = EDGE_CURVE('',#1208,#1216,#1218,.T.);
#1216 = VERTEX_POINT('',#1217);
#1217 = CARTESIAN_POINT('',(11.78,-11.5,1.6));
#1218 = LINE('',#1219,#1220);
#1219 = CARTESIAN_POINT('',(11.78,-12.05,1.6));
#1220 = VECTOR('',#1221,1.);
#1221 = DIRECTION('',(0.,1.,0.));
#1222 = ORIENTED_EDGE('',*,*,#1223,.F.);
#1223 = EDGE_CURVE('',#1224,#1216,#1226,.T.);
#1224 = VERTEX_POINT('',#1225);
#1225 = CARTESIAN_POINT('',(-16.5,-11.5,1.6));
#1226 = LINE('',#1227,#1228);
#1227 = CARTESIAN_POINT('',(-19.75,-11.5,1.6));
#1228 = VECTOR('',#1229,1.);
#1229 = DIRECTION('',(1.,0.,0.));
#1230 = ORIENTED_EDGE('',*,*,#1231,.F.);
#1231 = EDGE_CURVE('',#1142,#1224,#1232,.T.);
#1232 = CIRCLE('',#1233,3.);
#1233 = AXIS2_PLACEMENT_3D('',#1234,#1235,#1236);
#1234 = CARTESIAN_POINT('',(-16.5,-8.5,1.6));
#1235 = DIRECTION('',(0.,0.,1.));
#1236 = DIRECTION('',(-1.,0.,0.));
#1237 = ORIENTED_EDGE('',*,*,#1149,.F.);
#1238 = ORIENTED_EDGE('',*,*,#411,.T.);
#1239 = PLANE('',#1240);
#1240 = AXIS2_PLACEMENT_3D('',#1241,#1242,#1243);
#1241 = CARTESIAN_POINT('',(-20.,-12.,1.6));
#1242 = DIRECTION('',(0.,0.,1.));
#1243 = DIRECTION('',(1.,0.,0.));
#1244 = ADVANCED_FACE('',(#1245),#1256,.F.);
#1245 = FACE_BOUND('',#1246,.F.);
#1246 = EDGE_LOOP('',(#1247,#1248,#1249,#1255));
#1247 = ORIENTED_EDGE('',*,*,#1181,.F.);
#1248 = ORIENTED_EDGE('',*,*,#501,.T.);
#1249 = ORIENTED_EDGE('',*,*,#1250,.T.);
#1250 = EDGE_CURVE('',#494,#1199,#1251,.T.);
#1251 = LINE('',#1252,#1253);
#1252 = CARTESIAN_POINT('',(-17.,-12.,0.));
#1253 = VECTOR('',#1254,1.);
#1254 = DIRECTION('',(0.,0.,1.));
#1255 = ORIENTED_EDGE('',*,*,#1198,.F.);
#1256 = CYLINDRICAL_SURFACE('',#1257,3.);
#1257 = AXIS2_PLACEMENT_3D('',#1258,#1259,#1260);
#1258 = CARTESIAN_POINT('',(-17.,-9.,0.));
#1259 = DIRECTION('',(0.,0.,1.));
#1260 = DIRECTION('',(-1.,0.,0.));
#1261 = ADVANCED_FACE('',(#1262),#1273,.T.);
#1262 = FACE_BOUND('',#1263,.T.);
#1263 = EDGE_LOOP('',(#1264,#1265,#1271,#1272));
#1264 = ORIENTED_EDGE('',*,*,#1207,.T.);
#1265 = ORIENTED_EDGE('',*,*,#1266,.T.);
#1266 = EDGE_CURVE('',#1208,#486,#1267,.T.);
#1267 = LINE('',#1268,#1269);
#1268 = CARTESIAN_POINT('',(11.78,-12.,0.5));
#1269 = VECTOR('',#1270,1.);
#1270 = DIRECTION('',(0.,0.,-1.));
#1271 = ORIENTED_EDGE('',*,*,#493,.T.);
#1272 = ORIENTED_EDGE('',*,*,#1250,.T.);
#1273 = PLANE('',#1274);
#1274 = AXIS2_PLACEMENT_3D('',#1275,#1276,#1277);
#1275 = CARTESIAN_POINT('',(-20.,-12.,0.));
#1276 = DIRECTION('',(0.,1.,0.));
#1277 = DIRECTION('',(0.,0.,1.));
#1278 = ADVANCED_FACE('',(#1279),#1306,.T.);
#1279 = FACE_BOUND('',#1280,.T.);
#1280 = EDGE_LOOP('',(#1281,#1289,#1290,#1291,#1292,#1300));
#1281 = ORIENTED_EDGE('',*,*,#1282,.F.);
#1282 = EDGE_CURVE('',#478,#1283,#1285,.T.);
#1283 = VERTEX_POINT('',#1284);
#1284 = CARTESIAN_POINT('',(11.78,-12.1,2.5));
#1285 = LINE('',#1286,#1287);
#1286 = CARTESIAN_POINT('',(11.78,-12.1,1.));
#1287 = VECTOR('',#1288,1.);
#1288 = DIRECTION('',(0.,0.,1.));
#1289 = ORIENTED_EDGE('',*,*,#485,.T.);
#1290 = ORIENTED_EDGE('',*,*,#1266,.F.);
#1291 = ORIENTED_EDGE('',*,*,#1215,.T.);
#1292 = ORIENTED_EDGE('',*,*,#1293,.F.);
#1293 = EDGE_CURVE('',#1294,#1216,#1296,.T.);
#1294 = VERTEX_POINT('',#1295);
#1295 = CARTESIAN_POINT('',(11.78,-11.5,2.5));
#1296 = LINE('',#1297,#1298);
#1297 = CARTESIAN_POINT('',(11.78,-11.5,1.));
#1298 = VECTOR('',#1299,1.);
#1299 = DIRECTION('',(0.,0.,-1.));
#1300 = ORIENTED_EDGE('',*,*,#1301,.F.);
#1301 = EDGE_CURVE('',#1283,#1294,#1302,.T.);
#1302 = LINE('',#1303,#1304);
#1303 = CARTESIAN_POINT('',(11.78,-12.1,2.5));
#1304 = VECTOR('',#1305,1.);
#1305 = DIRECTION('',(0.,1.,0.));
#1306 = PLANE('',#1307);
#1307 = AXIS2_PLACEMENT_3D('',#1308,#1309,#1310);
#1308 = CARTESIAN_POINT('',(11.78,-12.1,1.));
#1309 = DIRECTION('',(1.,0.,0.));
#1310 = DIRECTION('',(0.,0.,1.));
#1311 = ADVANCED_FACE('',(#1312),#1324,.F.);
#1312 = FACE_BOUND('',#1313,.F.);
#1313 = EDGE_LOOP('',(#1314,#1315,#1316,#1317,#1323));
#1314 = ORIENTED_EDGE('',*,*,#477,.T.);
#1315 = ORIENTED_EDGE('',*,*,#469,.T.);
#1316 = ORIENTED_EDGE('',*,*,#799,.T.);
#1317 = ORIENTED_EDGE('',*,*,#1318,.F.);
#1318 = EDGE_CURVE('',#1283,#800,#1319,.T.);
#1319 = LINE('',#1320,#1321);
#1320 = CARTESIAN_POINT('',(11.78,-12.1,2.5));
#1321 = VECTOR('',#1322,1.);
#1322 = DIRECTION('',(1.,0.,0.));
#1323 = ORIENTED_EDGE('',*,*,#1282,.F.);
#1324 = PLANE('',#1325);
#1325 = AXIS2_PLACEMENT_3D('',#1326,#1327,#1328);
#1326 = CARTESIAN_POINT('',(12.574954414016,-12.1,1.092433473321));
#1327 = DIRECTION('',(-0.,-1.,-0.));
#1328 = DIRECTION('',(0.,0.,-1.));
#1329 = ADVANCED_FACE('',(#1330),#1366,.F.);
#1330 = FACE_BOUND('',#1331,.T.);
#1331 = EDGE_LOOP('',(#1332,#1340,#1359,#1365));
#1332 = ORIENTED_EDGE('',*,*,#1333,.F.);
#1333 = EDGE_CURVE('',#1334,#635,#1336,.T.);
#1334 = VERTEX_POINT('',#1335);
#1335 = CARTESIAN_POINT('',(19.475424707065,8.883207271053,4.01));
#1336 = LINE('',#1337,#1338);
#1337 = CARTESIAN_POINT('',(17.5,7.5,4.01));
#1338 = VECTOR('',#1339,1.);
#1339 = DIRECTION('',(0.819152044289,0.573576436351,0.));
#1340 = ORIENTED_EDGE('',*,*,#1341,.T.);
#1341 = EDGE_CURVE('',#1334,#1342,#1344,.T.);
#1342 = VERTEX_POINT('',#1343);
#1343 = CARTESIAN_POINT('',(19.361343466926,9.401506275232,4.5));
#1344 = B_SPLINE_CURVE_WITH_KNOTS('',5,(#1345,#1346,#1347,#1348,#1349,
    #1350,#1351,#1352,#1353,#1354,#1355,#1356,#1357,#1358),
  .UNSPECIFIED.,.F.,.F.,(6,4,4,6),(0.,0.286049939414,0.71773180919,1.),
  .UNSPECIFIED.);
#1345 = CARTESIAN_POINT('',(19.475424707065,8.883207271053,4.01));
#1346 = CARTESIAN_POINT('',(19.475424707065,8.883207271053,
    4.053034092425));
#1347 = CARTESIAN_POINT('',(19.47474301471,8.888497425377,4.096056554633
    ));
#1348 = CARTESIAN_POINT('',(19.473382580648,8.899072688635,
    4.138426505889));
#1349 = CARTESIAN_POINT('',(19.47126452958,8.914742978965,4.179495807813
    ));
#1350 = CARTESIAN_POINT('',(19.463765031437,8.965901203447,
    4.277692592887));
#1351 = CARTESIAN_POINT('',(19.457267845091,9.007442321476,
    4.332400160517));
#1352 = CARTESIAN_POINT('',(19.448391852535,9.058534910678,
    4.380629043273));
#1353 = CARTESIAN_POINT('',(19.436572045588,9.11709283881,4.420366946534
    ));
#1354 = CARTESIAN_POINT('',(19.412083728412,9.222211404139,
    4.469431889452));
#1355 = CARTESIAN_POINT('',(19.401122197723,9.265922644786,
    4.484530220241));
#1356 = CARTESIAN_POINT('',(19.388896233006,9.310959437198,
    4.494818013106));
#1357 = CARTESIAN_POINT('',(19.375545374644,9.356430010115,4.5));
#1358 = CARTESIAN_POINT('',(19.361343466926,9.401506275232,4.5));
#1359 = ORIENTED_EDGE('',*,*,#1360,.T.);
#1360 = EDGE_CURVE('',#1342,#637,#1361,.T.);
#1361 = LINE('',#1362,#1363);
#1362 = CARTESIAN_POINT('',(17.218947546188,7.901384501702,4.5));
#1363 = VECTOR('',#1364,1.);
#1364 = DIRECTION('',(0.819152044289,0.573576436351,0.));
#1365 = ORIENTED_EDGE('',*,*,#634,.F.);
#1366 = CYLINDRICAL_SURFACE('',#1367,0.49);
#1367 = AXIS2_PLACEMENT_3D('',#1368,#1369,#1370);
#1368 = CARTESIAN_POINT('',(17.218947546188,7.901384501702,4.01));
#1369 = DIRECTION('',(0.819152044289,0.573576436351,0.));
#1370 = DIRECTION('',(0.573576436351,-0.819152044289,0.));
#1371 = ADVANCED_FACE('',(#1372),#1390,.T.);
#1372 = FACE_BOUND('',#1373,.T.);
#1373 = EDGE_LOOP('',(#1374,#1375,#1383,#1389));
#1374 = ORIENTED_EDGE('',*,*,#747,.F.);
#1375 = ORIENTED_EDGE('',*,*,#1376,.F.);
#1376 = EDGE_CURVE('',#1377,#729,#1379,.T.);
#1377 = VERTEX_POINT('',#1378);
#1378 = CARTESIAN_POINT('',(19.475424707065,8.883207271053,3.99));
#1379 = LINE('',#1380,#1381);
#1380 = CARTESIAN_POINT('',(17.5,7.5,3.99));
#1381 = VECTOR('',#1382,1.);
#1382 = DIRECTION('',(0.819152044289,0.573576436351,0.));
#1383 = ORIENTED_EDGE('',*,*,#1384,.T.);
#1384 = EDGE_CURVE('',#1377,#1334,#1385,.T.);
#1385 = LINE('',#1386,#1387);
#1386 = CARTESIAN_POINT('',(19.475424707065,8.883207271053,1.));
#1387 = VECTOR('',#1388,1.);
#1388 = DIRECTION('',(0.,0.,1.));
#1389 = ORIENTED_EDGE('',*,*,#1333,.T.);
#1390 = PLANE('',#1391);
#1391 = AXIS2_PLACEMENT_3D('',#1392,#1393,#1394);
#1392 = CARTESIAN_POINT('',(17.5,7.5,3.5));
#1393 = DIRECTION('',(-0.573576436351,0.819152044289,0.));
#1394 = DIRECTION('',(0.,0.,1.));
#1395 = ADVANCED_FACE('',(#1396),#1425,.F.);
#1396 = FACE_BOUND('',#1397,.F.);
#1397 = EDGE_LOOP('',(#1398,#1399,#1418,#1424));
#1398 = ORIENTED_EDGE('',*,*,#1376,.F.);
#1399 = ORIENTED_EDGE('',*,*,#1400,.T.);
#1400 = EDGE_CURVE('',#1377,#1401,#1403,.T.);
#1401 = VERTEX_POINT('',#1402);
#1402 = CARTESIAN_POINT('',(19.361343466926,9.401506275232,3.5));
#1403 = B_SPLINE_CURVE_WITH_KNOTS('',5,(#1404,#1405,#1406,#1407,#1408,
    #1409,#1410,#1411,#1412,#1413,#1414,#1415,#1416,#1417),
  .UNSPECIFIED.,.F.,.F.,(6,4,4,6),(0.,0.286049743334,0.717730116078,1.),
  .UNSPECIFIED.);
#1404 = CARTESIAN_POINT('',(19.475424707065,8.883207271053,3.99));
#1405 = CARTESIAN_POINT('',(19.475424707065,8.883207271053,
    3.946966079855));
#1406 = CARTESIAN_POINT('',(19.474743026055,8.88849738505,3.903943458216
    ));
#1407 = CARTESIAN_POINT('',(19.473382573486,8.899072721906,
    3.861573298307));
#1408 = CARTESIAN_POINT('',(19.471264511713,8.914743100841,3.82050395825
    ));
#1409 = CARTESIAN_POINT('',(19.46376507095,8.96590093391,3.722307924482)
  );
#1410 = CARTESIAN_POINT('',(19.457267860609,9.007442373824,
    3.667599314169));
#1411 = CARTESIAN_POINT('',(19.448391670392,9.058535866449,
    3.619370258008));
#1412 = CARTESIAN_POINT('',(19.436571905427,9.117093440463,3.57963277264
    ));
#1413 = CARTESIAN_POINT('',(19.412083728412,9.222211404139,
    3.530568110548));
#1414 = CARTESIAN_POINT('',(19.401122197723,9.265922644786,
    3.515469779759));
#1415 = CARTESIAN_POINT('',(19.388896233006,9.310959437198,
    3.505181986894));
#1416 = CARTESIAN_POINT('',(19.375545374644,9.356430010115,3.5));
#1417 = CARTESIAN_POINT('',(19.361343466926,9.401506275232,3.5));
#1418 = ORIENTED_EDGE('',*,*,#1419,.T.);
#1419 = EDGE_CURVE('',#1401,#720,#1420,.T.);
#1420 = LINE('',#1421,#1422);
#1421 = CARTESIAN_POINT('',(17.218947546188,7.901384501702,3.5));
#1422 = VECTOR('',#1423,1.);
#1423 = DIRECTION('',(0.819152044289,0.573576436351,0.));
#1424 = ORIENTED_EDGE('',*,*,#728,.F.);
#1425 = CYLINDRICAL_SURFACE('',#1426,0.49);
#1426 = AXIS2_PLACEMENT_3D('',#1427,#1428,#1429);
#1427 = CARTESIAN_POINT('',(17.218947546188,7.901384501702,3.99));
#1428 = DIRECTION('',(0.819152044289,0.573576436351,0.));
#1429 = DIRECTION('',(0.573576436351,-0.819152044289,0.));
#1430 = ADVANCED_FACE('',(#1431),#1450,.F.);
#1431 = FACE_BOUND('',#1432,.F.);
#1432 = EDGE_LOOP('',(#1433,#1442,#1448,#1449));
#1433 = ORIENTED_EDGE('',*,*,#1434,.T.);
#1434 = EDGE_CURVE('',#1401,#1435,#1437,.T.);
#1435 = VERTEX_POINT('',#1436);
#1436 = CARTESIAN_POINT('',(17.026577127644,11.453424542568,3.5));
#1437 = CIRCLE('',#1438,3.);
#1438 = AXIS2_PLACEMENT_3D('',#1439,#1440,#1441);
#1439 = CARTESIAN_POINT('',(16.5,8.5,3.5));
#1440 = DIRECTION('',(0.,0.,1.));
#1441 = DIRECTION('',(1.,0.,-0.));
#1442 = ORIENTED_EDGE('',*,*,#1443,.T.);
#1443 = EDGE_CURVE('',#1435,#698,#1444,.T.);
#1444 = LINE('',#1445,#1446);
#1445 = CARTESIAN_POINT('',(15.486746708408,10.375223675454,3.5));
#1446 = VECTOR('',#1447,1.);
#1447 = DIRECTION('',(0.819152044289,0.573576436351,0.));
#1448 = ORIENTED_EDGE('',*,*,#719,.F.);
#1449 = ORIENTED_EDGE('',*,*,#1419,.F.);
#1450 = PLANE('',#1451);
#1451 = AXIS2_PLACEMENT_3D('',#1452,#1453,#1454);
#1452 = CARTESIAN_POINT('',(17.862898745321,10.184678733225,3.5));
#1453 = DIRECTION('',(-0.,-0.,-1.));
#1454 = DIRECTION('',(-1.,0.,0.));
#1455 = ADVANCED_FACE('',(#1456),#1490,.F.);
#1456 = FACE_BOUND('',#1457,.T.);
#1457 = EDGE_LOOP('',(#1458,#1466,#1475,#1488,#1489));
#1458 = ORIENTED_EDGE('',*,*,#1459,.F.);
#1459 = EDGE_CURVE('',#1460,#690,#1462,.T.);
#1460 = VERTEX_POINT('',#1461);
#1461 = CARTESIAN_POINT('',(16.238804844484,11.5,3.99));
#1462 = LINE('',#1463,#1464);
#1463 = CARTESIAN_POINT('',(15.205694254596,10.776608177156,3.99));
#1464 = VECTOR('',#1465,1.);
#1465 = DIRECTION('',(0.819152044289,0.573576436351,0.));
#1466 = ORIENTED_EDGE('',*,*,#1467,.F.);
#1467 = EDGE_CURVE('',#1468,#1460,#1470,.T.);
#1468 = VERTEX_POINT('',#1469);
#1469 = CARTESIAN_POINT('',(16.5,11.5,3.63733241043));
#1470 = ELLIPSE('',#1471,0.854288929854,0.49);
#1471 = AXIS2_PLACEMENT_3D('',#1472,#1473,#1474);
#1472 = CARTESIAN_POINT('',(17.093093774338,11.5,3.99));
#1473 = DIRECTION('',(0.,1.,0.));
#1474 = DIRECTION('',(1.,-0.,0.));
#1475 = ORIENTED_EDGE('',*,*,#1476,.T.);
#1476 = EDGE_CURVE('',#1468,#1435,#1477,.T.);
#1477 = B_SPLINE_CURVE_WITH_KNOTS('',5,(#1478,#1479,#1480,#1481,#1482,
    #1483,#1484,#1485,#1486,#1487),.UNSPECIFIED.,.F.,.F.,(6,4,6),(0.,
    0.32079368476,1.),.UNSPECIFIED.);
#1478 = CARTESIAN_POINT('',(16.5,11.5,3.63733241043));
#1479 = CARTESIAN_POINT('',(16.530141430623,11.5,3.62065593453));
#1480 = CARTESIAN_POINT('',(16.561358745116,11.499621465516,
    3.605130169191));
#1481 = CARTESIAN_POINT('',(16.593449208752,11.498810283423,
    3.590779939809));
#1482 = CARTESIAN_POINT('',(16.626253999668,11.497528693273,
    3.577632637916));
#1483 = CARTESIAN_POINT('',(16.730352670898,11.491981110778,
    3.540509575343));
#1484 = CARTESIAN_POINT('',(16.803797180132,11.485975110401,
    3.520811724449));
#1485 = CARTESIAN_POINT('',(16.878467952393,11.477475324218,
    3.507126475192));
#1486 = CARTESIAN_POINT('',(16.953127180343,11.466520209363,
    3.499999998525));
#1487 = CARTESIAN_POINT('',(17.02657714665,11.453424539179,3.5));
#1488 = ORIENTED_EDGE('',*,*,#1443,.T.);
#1489 = ORIENTED_EDGE('',*,*,#697,.F.);
#1490 = CYLINDRICAL_SURFACE('',#1491,0.49);
#1491 = AXIS2_PLACEMENT_3D('',#1492,#1493,#1494);
#1492 = CARTESIAN_POINT('',(15.486746708408,10.375223675454,3.99));
#1493 = DIRECTION('',(0.819152044289,0.573576436351,0.));
#1494 = DIRECTION('',(-0.573576436351,0.819152044289,0.));
#1495 = ADVANCED_FACE('',(#1496),#1514,.F.);
#1496 = FACE_BOUND('',#1497,.F.);
#1497 = EDGE_LOOP('',(#1498,#1499,#1500,#1508));
#1498 = ORIENTED_EDGE('',*,*,#689,.F.);
#1499 = ORIENTED_EDGE('',*,*,#1459,.F.);
#1500 = ORIENTED_EDGE('',*,*,#1501,.T.);
#1501 = EDGE_CURVE('',#1460,#1502,#1504,.T.);
#1502 = VERTEX_POINT('',#1503);
#1503 = CARTESIAN_POINT('',(16.238804844484,11.5,4.01));
#1504 = LINE('',#1505,#1506);
#1505 = CARTESIAN_POINT('',(16.238804844484,11.5,2.25));
#1506 = VECTOR('',#1507,1.);
#1507 = DIRECTION('',(0.,-0.,1.));
#1508 = ORIENTED_EDGE('',*,*,#1509,.T.);
#1509 = EDGE_CURVE('',#1502,#668,#1510,.T.);
#1510 = LINE('',#1511,#1512);
#1511 = CARTESIAN_POINT('',(15.205694254596,10.776608177156,4.01));
#1512 = VECTOR('',#1513,1.);
#1513 = DIRECTION('',(0.819152044289,0.573576436351,0.));
#1514 = PLANE('',#1515);
#1515 = AXIS2_PLACEMENT_3D('',#1516,#1517,#1518);
#1516 = CARTESIAN_POINT('',(15.205694254596,10.776608177156,3.5));
#1517 = DIRECTION('',(-0.573576436351,0.819152044289,0.));
#1518 = DIRECTION('',(0.,0.,1.));
#1519 = ADVANCED_FACE('',(#1520),#1554,.F.);
#1520 = FACE_BOUND('',#1521,.F.);
#1521 = EDGE_LOOP('',(#1522,#1523,#1532,#1547,#1553));
#1522 = ORIENTED_EDGE('',*,*,#1509,.F.);
#1523 = ORIENTED_EDGE('',*,*,#1524,.T.);
#1524 = EDGE_CURVE('',#1502,#1525,#1527,.T.);
#1525 = VERTEX_POINT('',#1526);
#1526 = CARTESIAN_POINT('',(16.5,11.5,4.36266758957));
#1527 = ELLIPSE('',#1528,0.854288929854,0.49);
#1528 = AXIS2_PLACEMENT_3D('',#1529,#1530,#1531);
#1529 = CARTESIAN_POINT('',(17.093093774338,11.5,4.01));
#1530 = DIRECTION('',(0.,1.,0.));
#1531 = DIRECTION('',(1.,-0.,0.));
#1532 = ORIENTED_EDGE('',*,*,#1533,.T.);
#1533 = EDGE_CURVE('',#1525,#1534,#1536,.T.);
#1534 = VERTEX_POINT('',#1535);
#1535 = CARTESIAN_POINT('',(17.026577127644,11.453424542568,4.5));
#1536 = B_SPLINE_CURVE_WITH_KNOTS('',5,(#1537,#1538,#1539,#1540,#1541,
    #1542,#1543,#1544,#1545,#1546),.UNSPECIFIED.,.F.,.F.,(6,4,6),(0.,
    0.320793690308,1.),.UNSPECIFIED.);
#1537 = CARTESIAN_POINT('',(16.5,11.5,4.36266758957));
#1538 = CARTESIAN_POINT('',(16.530141430086,11.5,4.379344065173));
#1539 = CARTESIAN_POINT('',(16.561358744004,11.499621465529,
    4.394869830256));
#1540 = CARTESIAN_POINT('',(16.593449207037,11.498810283467,
    4.409220059424));
#1541 = CARTESIAN_POINT('',(16.62625399733,11.497528693365,
    4.422367361147));
#1542 = CARTESIAN_POINT('',(16.730352664777,11.491981111175,
    4.459490422692));
#1543 = CARTESIAN_POINT('',(16.803797170644,11.485975111237,
    4.479188273165));
#1544 = CARTESIAN_POINT('',(16.878467939524,11.477475325724,
    4.49287352256));
#1545 = CARTESIAN_POINT('',(16.953127164247,11.466520211746,4.5));
#1546 = CARTESIAN_POINT('',(17.026577127644,11.453424542568,4.5));
#1547 = ORIENTED_EDGE('',*,*,#1548,.T.);
#1548 = EDGE_CURVE('',#1534,#659,#1549,.T.);
#1549 = LINE('',#1550,#1551);
#1550 = CARTESIAN_POINT('',(15.486746708408,10.375223675454,4.5));
#1551 = VECTOR('',#1552,1.);
#1552 = DIRECTION('',(0.819152044289,0.573576436351,0.));
#1553 = ORIENTED_EDGE('',*,*,#667,.F.);
#1554 = CYLINDRICAL_SURFACE('',#1555,0.49);
#1555 = AXIS2_PLACEMENT_3D('',#1556,#1557,#1558);
#1556 = CARTESIAN_POINT('',(15.486746708408,10.375223675454,4.01));
#1557 = DIRECTION('',(0.819152044289,0.573576436351,0.));
#1558 = DIRECTION('',(-0.573576436351,0.819152044289,0.));
#1559 = ADVANCED_FACE('',(#1560),#1572,.F.);
#1560 = FACE_BOUND('',#1561,.F.);
#1561 = EDGE_LOOP('',(#1562,#1569,#1570,#1571));
#1562 = ORIENTED_EDGE('',*,*,#1563,.F.);
#1563 = EDGE_CURVE('',#1342,#1534,#1564,.T.);
#1564 = CIRCLE('',#1565,3.);
#1565 = AXIS2_PLACEMENT_3D('',#1566,#1567,#1568);
#1566 = CARTESIAN_POINT('',(16.5,8.5,4.5));
#1567 = DIRECTION('',(0.,0.,1.));
#1568 = DIRECTION('',(1.,0.,-0.));
#1569 = ORIENTED_EDGE('',*,*,#1360,.T.);
#1570 = ORIENTED_EDGE('',*,*,#658,.T.);
#1571 = ORIENTED_EDGE('',*,*,#1548,.F.);
#1572 = PLANE('',#1573);
#1573 = AXIS2_PLACEMENT_3D('',#1574,#1575,#1576);
#1574 = CARTESIAN_POINT('',(17.5,7.5,4.5));
#1575 = DIRECTION('',(0.,0.,1.));
#1576 = DIRECTION('',(0.819152044289,0.573576436351,0.));
#1577 = ADVANCED_FACE('',(#1578,#1639),#1642,.F.);
#1578 = FACE_BOUND('',#1579,.F.);
#1579 = EDGE_LOOP('',(#1580,#1581,#1590,#1598,#1607,#1615,#1624,#1632));
#1580 = ORIENTED_EDGE('',*,*,#1131,.F.);
#1581 = ORIENTED_EDGE('',*,*,#1582,.T.);
#1582 = EDGE_CURVE('',#1132,#1583,#1585,.T.);
#1583 = VERTEX_POINT('',#1584);
#1584 = CARTESIAN_POINT('',(-16.5,-11.5,5.));
#1585 = CIRCLE('',#1586,3.);
#1586 = AXIS2_PLACEMENT_3D('',#1587,#1588,#1589);
#1587 = CARTESIAN_POINT('',(-16.5,-8.5,5.));
#1588 = DIRECTION('',(-0.,0.,1.));
#1589 = DIRECTION('',(0.,-1.,0.));
#1590 = ORIENTED_EDGE('',*,*,#1591,.T.);
#1591 = EDGE_CURVE('',#1583,#1592,#1594,.T.);
#1592 = VERTEX_POINT('',#1593);
#1593 = CARTESIAN_POINT('',(16.5,-11.5,5.));
#1594 = LINE('',#1595,#1596);
#1595 = CARTESIAN_POINT('',(-19.5,-11.5,5.));
#1596 = VECTOR('',#1597,1.);
#1597 = DIRECTION('',(1.,0.,0.));
#1598 = ORIENTED_EDGE('',*,*,#1599,.F.);
#1599 = EDGE_CURVE('',#1600,#1592,#1602,.T.);
#1600 = VERTEX_POINT('',#1601);
#1601 = CARTESIAN_POINT('',(19.5,-8.5,5.));
#1602 = CIRCLE('',#1603,3.);
#1603 = AXIS2_PLACEMENT_3D('',#1604,#1605,#1606);
#1604 = CARTESIAN_POINT('',(16.5,-8.5,5.));
#1605 = DIRECTION('',(-0.,-0.,-1.));
#1606 = DIRECTION('',(0.,-1.,0.));
#1607 = ORIENTED_EDGE('',*,*,#1608,.T.);
#1608 = EDGE_CURVE('',#1600,#1609,#1611,.T.);
#1609 = VERTEX_POINT('',#1610);
#1610 = CARTESIAN_POINT('',(19.5,8.5,5.));
#1611 = LINE('',#1612,#1613);
#1612 = CARTESIAN_POINT('',(19.5,-11.5,5.));
#1613 = VECTOR('',#1614,1.);
#1614 = DIRECTION('',(0.,1.,0.));
#1615 = ORIENTED_EDGE('',*,*,#1616,.T.);
#1616 = EDGE_CURVE('',#1609,#1617,#1619,.T.);
#1617 = VERTEX_POINT('',#1618);
#1618 = CARTESIAN_POINT('',(16.5,11.5,5.));
#1619 = CIRCLE('',#1620,3.);
#1620 = AXIS2_PLACEMENT_3D('',#1621,#1622,#1623);
#1621 = CARTESIAN_POINT('',(16.5,8.5,5.));
#1622 = DIRECTION('',(-0.,0.,1.));
#1623 = DIRECTION('',(0.,-1.,0.));
#1624 = ORIENTED_EDGE('',*,*,#1625,.F.);
#1625 = EDGE_CURVE('',#1626,#1617,#1628,.T.);
#1626 = VERTEX_POINT('',#1627);
#1627 = CARTESIAN_POINT('',(-16.5,11.5,5.));
#1628 = LINE('',#1629,#1630);
#1629 = CARTESIAN_POINT('',(-19.5,11.5,5.));
#1630 = VECTOR('',#1631,1.);
#1631 = DIRECTION('',(1.,0.,0.));
#1632 = ORIENTED_EDGE('',*,*,#1633,.F.);
#1633 = EDGE_CURVE('',#1134,#1626,#1634,.T.);
#1634 = CIRCLE('',#1635,3.);
#1635 = AXIS2_PLACEMENT_3D('',#1636,#1637,#1638);
#1636 = CARTESIAN_POINT('',(-16.5,8.5,5.));
#1637 = DIRECTION('',(-0.,-0.,-1.));
#1638 = DIRECTION('',(0.,-1.,0.));
#1639 = FACE_BOUND('',#1640,.F.);
#1640 = EDGE_LOOP('',(#1641));
#1641 = ORIENTED_EDGE('',*,*,#773,.F.);
#1642 = PLANE('',#1643);
#1643 = AXIS2_PLACEMENT_3D('',#1644,#1645,#1646);
#1644 = CARTESIAN_POINT('',(-19.5,-11.5,5.));
#1645 = DIRECTION('',(0.,0.,1.));
#1646 = DIRECTION('',(1.,0.,0.));
#1647 = ADVANCED_FACE('',(#1648),#1670,.F.);
#1648 = FACE_BOUND('',#1649,.F.);
#1649 = EDGE_LOOP('',(#1650,#1651,#1660,#1666,#1667,#1668,#1669));
#1650 = ORIENTED_EDGE('',*,*,#887,.T.);
#1651 = ORIENTED_EDGE('',*,*,#1652,.F.);
#1652 = EDGE_CURVE('',#1653,#880,#1655,.T.);
#1653 = VERTEX_POINT('',#1654);
#1654 = CARTESIAN_POINT('',(16.5,-11.5,2.5));
#1655 = CIRCLE('',#1656,3.);
#1656 = AXIS2_PLACEMENT_3D('',#1657,#1658,#1659);
#1657 = CARTESIAN_POINT('',(16.5,-8.5,2.5));
#1658 = DIRECTION('',(0.,0.,1.));
#1659 = DIRECTION('',(1.,0.,-0.));
#1660 = ORIENTED_EDGE('',*,*,#1661,.F.);
#1661 = EDGE_CURVE('',#1294,#1653,#1662,.T.);
#1662 = LINE('',#1663,#1664);
#1663 = CARTESIAN_POINT('',(-3.86,-11.5,2.5));
#1664 = VECTOR('',#1665,1.);
#1665 = DIRECTION('',(1.,0.,0.));
#1666 = ORIENTED_EDGE('',*,*,#1301,.F.);
#1667 = ORIENTED_EDGE('',*,*,#1318,.T.);
#1668 = ORIENTED_EDGE('',*,*,#821,.F.);
#1669 = ORIENTED_EDGE('',*,*,#847,.T.);
#1670 = PLANE('',#1671);
#1671 = AXIS2_PLACEMENT_3D('',#1672,#1673,#1674);
#1672 = CARTESIAN_POINT('',(11.78,-12.1,2.5));
#1673 = DIRECTION('',(0.,0.,1.));
#1674 = DIRECTION('',(1.,0.,0.));
#1675 = ADVANCED_FACE('',(#1676),#1694,.F.);
#1676 = FACE_BOUND('',#1677,.T.);
#1677 = EDGE_LOOP('',(#1678,#1684,#1685,#1686,#1687,#1693));
#1678 = ORIENTED_EDGE('',*,*,#1679,.F.);
#1679 = EDGE_CURVE('',#1102,#1600,#1680,.T.);
#1680 = LINE('',#1681,#1682);
#1681 = CARTESIAN_POINT('',(19.5,-8.5,1.));
#1682 = VECTOR('',#1683,1.);
#1683 = DIRECTION('',(0.,0.,1.));
#1684 = ORIENTED_EDGE('',*,*,#1109,.F.);
#1685 = ORIENTED_EDGE('',*,*,#879,.T.);
#1686 = ORIENTED_EDGE('',*,*,#1652,.F.);
#1687 = ORIENTED_EDGE('',*,*,#1688,.T.);
#1688 = EDGE_CURVE('',#1653,#1592,#1689,.T.);
#1689 = LINE('',#1690,#1691);
#1690 = CARTESIAN_POINT('',(16.5,-11.5,1.));
#1691 = VECTOR('',#1692,1.);
#1692 = DIRECTION('',(0.,0.,1.));
#1693 = ORIENTED_EDGE('',*,*,#1599,.F.);
#1694 = CYLINDRICAL_SURFACE('',#1695,3.);
#1695 = AXIS2_PLACEMENT_3D('',#1696,#1697,#1698);
#1696 = CARTESIAN_POINT('',(16.5,-8.5,1.));
#1697 = DIRECTION('',(0.,0.,1.));
#1698 = DIRECTION('',(1.,0.,0.));
#1699 = ADVANCED_FACE('',(#1700),#1711,.F.);
#1700 = FACE_BOUND('',#1701,.F.);
#1701 = EDGE_LOOP('',(#1702,#1703,#1704,#1705));
#1702 = ORIENTED_EDGE('',*,*,#1608,.F.);
#1703 = ORIENTED_EDGE('',*,*,#1679,.F.);
#1704 = ORIENTED_EDGE('',*,*,#1101,.F.);
#1705 = ORIENTED_EDGE('',*,*,#1706,.T.);
#1706 = EDGE_CURVE('',#1093,#1609,#1707,.T.);
#1707 = LINE('',#1708,#1709);
#1708 = CARTESIAN_POINT('',(19.5,8.5,1.));
#1709 = VECTOR('',#1710,1.);
#1710 = DIRECTION('',(0.,0.,1.));
#1711 = PLANE('',#1712);
#1712 = AXIS2_PLACEMENT_3D('',#1713,#1714,#1715);
#1713 = CARTESIAN_POINT('',(19.5,-11.5,1.));
#1714 = DIRECTION('',(1.,0.,0.));
#1715 = DIRECTION('',(0.,0.,1.));
#1716 = ADVANCED_FACE('',(#1717),#1741,.F.);
#1717 = FACE_BOUND('',#1718,.F.);
#1718 = EDGE_LOOP('',(#1719,#1720,#1721,#1727,#1728,#1729,#1730,#1731,
    #1732,#1733,#1734,#1740));
#1719 = ORIENTED_EDGE('',*,*,#1706,.F.);
#1720 = ORIENTED_EDGE('',*,*,#1092,.T.);
#1721 = ORIENTED_EDGE('',*,*,#1722,.T.);
#1722 = EDGE_CURVE('',#1085,#1468,#1723,.T.);
#1723 = LINE('',#1724,#1725);
#1724 = CARTESIAN_POINT('',(16.5,11.5,1.));
#1725 = VECTOR('',#1726,1.);
#1726 = DIRECTION('',(0.,0.,1.));
#1727 = ORIENTED_EDGE('',*,*,#1476,.T.);
#1728 = ORIENTED_EDGE('',*,*,#1434,.F.);
#1729 = ORIENTED_EDGE('',*,*,#1400,.F.);
#1730 = ORIENTED_EDGE('',*,*,#1384,.T.);
#1731 = ORIENTED_EDGE('',*,*,#1341,.T.);
#1732 = ORIENTED_EDGE('',*,*,#1563,.T.);
#1733 = ORIENTED_EDGE('',*,*,#1533,.F.);
#1734 = ORIENTED_EDGE('',*,*,#1735,.T.);
#1735 = EDGE_CURVE('',#1525,#1617,#1736,.T.);
#1736 = LINE('',#1737,#1738);
#1737 = CARTESIAN_POINT('',(16.5,11.5,1.));
#1738 = VECTOR('',#1739,1.);
#1739 = DIRECTION('',(0.,0.,1.));
#1740 = ORIENTED_EDGE('',*,*,#1616,.F.);
#1741 = CYLINDRICAL_SURFACE('',#1742,3.);
#1742 = AXIS2_PLACEMENT_3D('',#1743,#1744,#1745);
#1743 = CARTESIAN_POINT('',(16.5,8.5,1.));
#1744 = DIRECTION('',(0.,0.,1.));
#1745 = DIRECTION('',(1.,0.,0.));
#1746 = ADVANCED_FACE('',(#1747),#1762,.F.);
#1747 = FACE_BOUND('',#1748,.F.);
#1748 = EDGE_LOOP('',(#1749,#1750,#1756,#1757,#1758,#1759,#1760,#1761));
#1749 = ORIENTED_EDGE('',*,*,#1084,.F.);
#1750 = ORIENTED_EDGE('',*,*,#1751,.T.);
#1751 = EDGE_CURVE('',#1076,#1626,#1752,.T.);
#1752 = LINE('',#1753,#1754);
#1753 = CARTESIAN_POINT('',(-16.5,11.5,1.));
#1754 = VECTOR('',#1755,1.);
#1755 = DIRECTION('',(0.,0.,1.));
#1756 = ORIENTED_EDGE('',*,*,#1625,.T.);
#1757 = ORIENTED_EDGE('',*,*,#1735,.F.);
#1758 = ORIENTED_EDGE('',*,*,#1524,.F.);
#1759 = ORIENTED_EDGE('',*,*,#1501,.F.);
#1760 = ORIENTED_EDGE('',*,*,#1467,.F.);
#1761 = ORIENTED_EDGE('',*,*,#1722,.F.);
#1762 = PLANE('',#1763);
#1763 = AXIS2_PLACEMENT_3D('',#1764,#1765,#1766);
#1764 = CARTESIAN_POINT('',(-19.5,11.5,1.));
#1765 = DIRECTION('',(0.,1.,0.));
#1766 = DIRECTION('',(0.,0.,1.));
#1767 = ADVANCED_FACE('',(#1768),#1774,.F.);
#1768 = FACE_BOUND('',#1769,.T.);
#1769 = EDGE_LOOP('',(#1770,#1771,#1772,#1773));
#1770 = ORIENTED_EDGE('',*,*,#1159,.F.);
#1771 = ORIENTED_EDGE('',*,*,#1075,.F.);
#1772 = ORIENTED_EDGE('',*,*,#1751,.T.);
#1773 = ORIENTED_EDGE('',*,*,#1633,.F.);
#1774 = CYLINDRICAL_SURFACE('',#1775,3.);
#1775 = AXIS2_PLACEMENT_3D('',#1776,#1777,#1778);
#1776 = CARTESIAN_POINT('',(-16.5,8.5,1.));
#1777 = DIRECTION('',(0.,0.,1.));
#1778 = DIRECTION('',(-1.,0.,0.));
#1779 = ADVANCED_FACE('',(#1780),#1791,.F.);
#1780 = FACE_BOUND('',#1781,.F.);
#1781 = EDGE_LOOP('',(#1782,#1783,#1784,#1790));
#1782 = ORIENTED_EDGE('',*,*,#1141,.F.);
#1783 = ORIENTED_EDGE('',*,*,#1231,.T.);
#1784 = ORIENTED_EDGE('',*,*,#1785,.T.);
#1785 = EDGE_CURVE('',#1224,#1583,#1786,.T.);
#1786 = LINE('',#1787,#1788);
#1787 = CARTESIAN_POINT('',(-16.5,-11.5,1.));
#1788 = VECTOR('',#1789,1.);
#1789 = DIRECTION('',(0.,0.,1.));
#1790 = ORIENTED_EDGE('',*,*,#1582,.F.);
#1791 = CYLINDRICAL_SURFACE('',#1792,3.);
#1792 = AXIS2_PLACEMENT_3D('',#1793,#1794,#1795);
#1793 = CARTESIAN_POINT('',(-16.5,-8.5,1.));
#1794 = DIRECTION('',(0.,0.,1.));
#1795 = DIRECTION('',(-1.,0.,0.));
#1796 = ADVANCED_FACE('',(#1797),#1805,.T.);
#1797 = FACE_BOUND('',#1798,.T.);
#1798 = EDGE_LOOP('',(#1799,#1800,#1801,#1802,#1803,#1804));
#1799 = ORIENTED_EDGE('',*,*,#1223,.F.);
#1800 = ORIENTED_EDGE('',*,*,#1785,.T.);
#1801 = ORIENTED_EDGE('',*,*,#1591,.T.);
#1802 = ORIENTED_EDGE('',*,*,#1688,.F.);
#1803 = ORIENTED_EDGE('',*,*,#1661,.F.);
#1804 = ORIENTED_EDGE('',*,*,#1293,.T.);
#1805 = PLANE('',#1806);
#1806 = AXIS2_PLACEMENT_3D('',#1807,#1808,#1809);
#1807 = CARTESIAN_POINT('',(-19.5,-11.5,1.));
#1808 = DIRECTION('',(0.,1.,0.));
#1809 = DIRECTION('',(0.,0.,1.));
#1810 = ( GEOMETRIC_REPRESENTATION_CONTEXT(3) 
GLOBAL_UNCERTAINTY_ASSIGNED_CONTEXT((#1814)) 
GLOBAL_UNIT_ASSIGNED_CONTEXT((#1811,#1812,#1813)) REPRESENTATION_CONTEXT
('Context #1','3D Context with UNIT and UNCERTAINTY') );
#1811 = ( LENGTH_UNIT() NAMED_UNIT(*) SI_UNIT(.MILLI.,.METRE.) );
#1812 = ( NAMED_UNIT(*) PLANE_ANGLE_UNIT() SI_UNIT($,.RADIAN.) );
#1813 = ( NAMED_UNIT(*) SI_UNIT($,.STERADIAN.) SOLID_ANGLE_UNIT() );
#1814 = UNCERTAINTY_MEASURE_WITH_UNIT(LENGTH_MEASURE(1.E-05),#1811,
  'distance_accuracy_value','confusion accuracy');
#1815 = PRODUCT_RELATED_PRODUCT_CATEGORY('part',$,(#7));
#1816 = MECHANICAL_DESIGN_GEOMETRIC_PRESENTATION_REPRESENTATION('',(
    #1817),#1810);
#1817 = STYLED_ITEM('color',(#1818),#15);
#1818 = PRESENTATION_STYLE_ASSIGNMENT((#1819,#1827));
#1819 = SURFACE_STYLE_USAGE(.BOTH.,#1820);
#1820 = SURFACE_SIDE_STYLE('',(#1821,#1825));
#1821 = SURFACE_STYLE_FILL_AREA(#1822);
#1822 = FILL_AREA_STYLE('',(#1823));
#1823 = FILL_AREA_STYLE_COLOUR('',#1824);
#1824 = COLOUR_RGB('',0.447058818107,0.474509808674,0.501960817233);
#1825 = SURFACE_STYLE_RENDERING_WITH_PROPERTIES(.NORMAL_SHADING.,#1824,(
    #1826));
#1826 = SURFACE_STYLE_TRANSPARENT(0.399999976158);
#1827 = CURVE_STYLE('',#1828,POSITIVE_LENGTH_MEASURE(0.1),#1829);
#1828 = DRAUGHTING_PRE_DEFINED_CURVE_FONT('continuous');
#1829 = COLOUR_RGB('',9.803921802644E-02,9.803921802644E-02,
  9.803921802644E-02);
ENDSEC;
END-ISO-10303-21;
