ISO-10303-21;
HEADER;
FILE_DESCRIPTION(('FreeCAD Model'),'2;1');
FILE_NAME('Open CASCADE Shape Model','2026-10-07T02:59:01',(''),(''),
  'Open CASCADE STEP processor 7.8','FreeCAD','Unknown');
FILE_SCHEMA((
'AP242_MANAGED_MODEL_BASED_3D_ENGINEERING_MIM_LF. {1 0 10303 442 1 1 4 
}'));
ENDSEC;
DATA;
#1 = APPLICATION_PROTOCOL_DEFINITION('international standard',
  'ap242_managed_model_based_3d_engineering',2013,#2);
#2 = APPLICATION_CONTEXT('Managed model based 3d engineering');
#3 = SHAPE_DEFINITION_REPRESENTATION(#4,#10);
#4 = PRODUCT_DEFINITION_SHAPE('','',#5);
#5 = PRODUCT_DEFINITION('design','',#6,#9);
#6 = PRODUCT_DEFINITION_FORMATION('','',#7);
#7 = PRODUCT('Case Btm Cut (female C to male C)',
  'Case Btm Cut (female C to male C)','',(#8));
#8 = PRODUCT_CONTEXT('',#2,'mechanical');
#9 = PRODUCT_DEFINITION_CONTEXT('part definition',#2,'design');
#10 = ADVANCED_BREP_SHAPE_REPRESENTATION('',(#11,#15),#1578);
#11 = AXIS2_PLACEMENT_3D('',#12,#13,#14);
#12 = CARTESIAN_POINT('',(0.,0.,0.));
#13 = DIRECTION('',(0.,0.,1.));
#14 = DIRECTION('',(1.,0.,-0.));
#15 = MANIFOLD_SOLID_BREP('',#16);
#16 = CLOSED_SHELL('',(#17,#125,#158,#191,#242,#273,#297,#331,#355,#379,
    #403,#437,#454,#478,#503,#527,#562,#623,#654,#685,#703,#736,#776,
    #807,#840,#871,#904,#935,#968,#1056,#1096,#1138,#1160,#1210,#1241,
    #1272,#1307,#1332,#1356,#1381,#1405,#1430,#1447,#1471,#1489,#1525,
    #1558));
#17 = ADVANCED_FACE('',(#18,#52),#120,.F.);
#18 = FACE_BOUND('',#19,.F.);
#19 = EDGE_LOOP('',(#20,#30,#38,#46));
#20 = ORIENTED_EDGE('',*,*,#21,.F.);
#21 = EDGE_CURVE('',#22,#24,#26,.T.);
#22 = VERTEX_POINT('',#23);
#23 = CARTESIAN_POINT('',(-21.,-9.5,1.));
#24 = VERTEX_POINT('',#25);
#25 = CARTESIAN_POINT('',(-21.,9.5,1.));
#26 = LINE('',#27,#28);
#27 = CARTESIAN_POINT('',(-21.,-13.,1.));
#28 = VECTOR('',#29,1.);
#29 = DIRECTION('',(0.,1.,0.));
#30 = ORIENTED_EDGE('',*,*,#31,.F.);
#31 = EDGE_CURVE('',#32,#22,#34,.T.);
#32 = VERTEX_POINT('',#33);
#33 = CARTESIAN_POINT('',(-21.,-9.5,-4.5));
#34 = LINE('',#35,#36);
#35 = CARTESIAN_POINT('',(-21.,-9.5,-4.5));
#36 = VECTOR('',#37,1.);
#37 = DIRECTION('',(0.,0.,1.));
#38 = ORIENTED_EDGE('',*,*,#39,.T.);
#39 = EDGE_CURVE('',#32,#40,#42,.T.);
#40 = VERTEX_POINT('',#41);
#41 = CARTESIAN_POINT('',(-21.,9.5,-4.5));
#42 = LINE('',#43,#44);
#43 = CARTESIAN_POINT('',(-21.,-13.,-4.5));
#44 = VECTOR('',#45,1.);
#45 = DIRECTION('',(0.,1.,0.));
#46 = ORIENTED_EDGE('',*,*,#47,.T.);
#47 = EDGE_CURVE('',#40,#24,#48,.T.);
#48 = LINE('',#49,#50);
#49 = CARTESIAN_POINT('',(-21.,9.5,-4.5));
#50 = VECTOR('',#51,1.);
#51 = DIRECTION('',(0.,0.,1.));
#52 = FACE_BOUND('',#53,.F.);
#53 = EDGE_LOOP('',(#54,#64,#72,#81,#89,#97,#105,#114));
#54 = ORIENTED_EDGE('',*,*,#55,.F.);
#55 = EDGE_CURVE('',#56,#58,#60,.T.);
#56 = VERTEX_POINT('',#57);
#57 = CARTESIAN_POINT('',(-21.,2.9,-0.5));
#58 = VERTEX_POINT('',#59);
#59 = CARTESIAN_POINT('',(-21.,-2.9,-0.5));
#60 = LINE('',#61,#62);
#61 = CARTESIAN_POINT('',(-21.,-5.05,-0.5));
#62 = VECTOR('',#63,1.);
#63 = DIRECTION('',(0.,-1.,0.));
#64 = ORIENTED_EDGE('',*,*,#65,.T.);
#65 = EDGE_CURVE('',#56,#66,#68,.T.);
#66 = VERTEX_POINT('',#67);
#67 = CARTESIAN_POINT('',(-21.,2.9,-0.504006420562));
#68 = LINE('',#69,#70);
#69 = CARTESIAN_POINT('',(-21.,2.9,-3.75));
#70 = VECTOR('',#71,1.);
#71 = DIRECTION('',(0.,-0.,-1.));
#72 = ORIENTED_EDGE('',*,*,#73,.F.);
#73 = EDGE_CURVE('',#74,#66,#76,.T.);
#74 = VERTEX_POINT('',#75);
#75 = CARTESIAN_POINT('',(-21.,2.9,-2.995993579438));
#76 = CIRCLE('',#77,1.25);
#77 = AXIS2_PLACEMENT_3D('',#78,#79,#80);
#78 = CARTESIAN_POINT('',(-21.,3.,-1.75));
#79 = DIRECTION('',(1.,-1.224646799147E-16,-2.22044604925E-16));
#80 = DIRECTION('',(-2.22044604925E-16,2.719262146894E-32,-1.));
#81 = ORIENTED_EDGE('',*,*,#82,.T.);
#82 = EDGE_CURVE('',#74,#83,#85,.T.);
#83 = VERTEX_POINT('',#84);
#84 = CARTESIAN_POINT('',(-21.,2.9,-3.));
#85 = LINE('',#86,#87);
#86 = CARTESIAN_POINT('',(-21.,2.9,-3.75));
#87 = VECTOR('',#88,1.);
#88 = DIRECTION('',(0.,-0.,-1.));
#89 = ORIENTED_EDGE('',*,*,#90,.T.);
#90 = EDGE_CURVE('',#83,#91,#93,.T.);
#91 = VERTEX_POINT('',#92);
#92 = CARTESIAN_POINT('',(-21.,-2.9,-3.));
#93 = LINE('',#94,#95);
#94 = CARTESIAN_POINT('',(-21.,-5.05,-3.));
#95 = VECTOR('',#96,1.);
#96 = DIRECTION('',(0.,-1.,0.));
#97 = ORIENTED_EDGE('',*,*,#98,.F.);
#98 = EDGE_CURVE('',#99,#91,#101,.T.);
#99 = VERTEX_POINT('',#100);
#100 = CARTESIAN_POINT('',(-21.,-2.9,-2.995993579438));
#101 = LINE('',#102,#103);
#102 = CARTESIAN_POINT('',(-21.,-2.9,-3.75));
#103 = VECTOR('',#104,1.);
#104 = DIRECTION('',(0.,-0.,-1.));
#105 = ORIENTED_EDGE('',*,*,#106,.F.);
#106 = EDGE_CURVE('',#107,#99,#109,.T.);
#107 = VERTEX_POINT('',#108);
#108 = CARTESIAN_POINT('',(-21.,-2.9,-0.504006420562));
#109 = CIRCLE('',#110,1.25);
#110 = AXIS2_PLACEMENT_3D('',#111,#112,#113);
#111 = CARTESIAN_POINT('',(-21.,-3.,-1.75));
#112 = DIRECTION('',(1.,-1.224646799147E-16,-2.22044604925E-16));
#113 = DIRECTION('',(-2.22044604925E-16,2.719262146894E-32,-1.));
#114 = ORIENTED_EDGE('',*,*,#115,.F.);
#115 = EDGE_CURVE('',#58,#107,#116,.T.);
#116 = LINE('',#117,#118);
#117 = CARTESIAN_POINT('',(-21.,-2.9,-3.75));
#118 = VECTOR('',#119,1.);
#119 = DIRECTION('',(0.,-0.,-1.));
#120 = PLANE('',#121);
#121 = AXIS2_PLACEMENT_3D('',#122,#123,#124);
#122 = CARTESIAN_POINT('',(-21.,-13.,-4.5));
#123 = DIRECTION('',(1.,0.,0.));
#124 = DIRECTION('',(0.,0.,1.));
#125 = ADVANCED_FACE('',(#126),#153,.T.);
#126 = FACE_BOUND('',#127,.T.);
#127 = EDGE_LOOP('',(#128,#137,#145,#152));
#128 = ORIENTED_EDGE('',*,*,#129,.T.);
#129 = EDGE_CURVE('',#32,#130,#132,.T.);
#130 = VERTEX_POINT('',#131);
#131 = CARTESIAN_POINT('',(-17.5,-13.,-4.5));
#132 = CIRCLE('',#133,3.5);
#133 = AXIS2_PLACEMENT_3D('',#134,#135,#136);
#134 = CARTESIAN_POINT('',(-17.5,-9.5,-4.5));
#135 = DIRECTION('',(-0.,0.,1.));
#136 = DIRECTION('',(0.,-1.,0.));
#137 = ORIENTED_EDGE('',*,*,#138,.T.);
#138 = EDGE_CURVE('',#130,#139,#141,.T.);
#139 = VERTEX_POINT('',#140);
#140 = CARTESIAN_POINT('',(-17.5,-13.,1.));
#141 = LINE('',#142,#143);
#142 = CARTESIAN_POINT('',(-17.5,-13.,-4.5));
#143 = VECTOR('',#144,1.);
#144 = DIRECTION('',(0.,0.,1.));
#145 = ORIENTED_EDGE('',*,*,#146,.F.);
#146 = EDGE_CURVE('',#22,#139,#147,.T.);
#147 = CIRCLE('',#148,3.5);
#148 = AXIS2_PLACEMENT_3D('',#149,#150,#151);
#149 = CARTESIAN_POINT('',(-17.5,-9.5,1.));
#150 = DIRECTION('',(-0.,0.,1.));
#151 = DIRECTION('',(0.,-1.,0.));
#152 = ORIENTED_EDGE('',*,*,#31,.F.);
#153 = CYLINDRICAL_SURFACE('',#154,3.5);
#154 = AXIS2_PLACEMENT_3D('',#155,#156,#157);
#155 = CARTESIAN_POINT('',(-17.5,-9.5,-4.5));
#156 = DIRECTION('',(0.,0.,1.));
#157 = DIRECTION('',(-1.,0.,0.));
#158 = ADVANCED_FACE('',(#159),#186,.T.);
#159 = FACE_BOUND('',#160,.F.);
#160 = EDGE_LOOP('',(#161,#170,#178,#185));
#161 = ORIENTED_EDGE('',*,*,#162,.T.);
#162 = EDGE_CURVE('',#40,#163,#165,.T.);
#163 = VERTEX_POINT('',#164);
#164 = CARTESIAN_POINT('',(-17.5,13.,-4.5));
#165 = CIRCLE('',#166,3.5);
#166 = AXIS2_PLACEMENT_3D('',#167,#168,#169);
#167 = CARTESIAN_POINT('',(-17.5,9.5,-4.5));
#168 = DIRECTION('',(-0.,-0.,-1.));
#169 = DIRECTION('',(0.,-1.,0.));
#170 = ORIENTED_EDGE('',*,*,#171,.T.);
#171 = EDGE_CURVE('',#163,#172,#174,.T.);
#172 = VERTEX_POINT('',#173);
#173 = CARTESIAN_POINT('',(-17.5,13.,1.));
#174 = LINE('',#175,#176);
#175 = CARTESIAN_POINT('',(-17.5,13.,-4.5));
#176 = VECTOR('',#177,1.);
#177 = DIRECTION('',(0.,0.,1.));
#178 = ORIENTED_EDGE('',*,*,#179,.F.);
#179 = EDGE_CURVE('',#24,#172,#180,.T.);
#180 = CIRCLE('',#181,3.5);
#181 = AXIS2_PLACEMENT_3D('',#182,#183,#184);
#182 = CARTESIAN_POINT('',(-17.5,9.5,1.));
#183 = DIRECTION('',(-0.,-0.,-1.));
#184 = DIRECTION('',(0.,-1.,0.));
#185 = ORIENTED_EDGE('',*,*,#47,.F.);
#186 = CYLINDRICAL_SURFACE('',#187,3.5);
#187 = AXIS2_PLACEMENT_3D('',#188,#189,#190);
#188 = CARTESIAN_POINT('',(-17.5,9.5,-4.5));
#189 = DIRECTION('',(0.,0.,1.));
#190 = DIRECTION('',(-1.,0.,0.));
#191 = ADVANCED_FACE('',(#192),#237,.F.);
#192 = FACE_BOUND('',#193,.F.);
#193 = EDGE_LOOP('',(#194,#195,#196,#204,#213,#221,#230,#236));
#194 = ORIENTED_EDGE('',*,*,#39,.F.);
#195 = ORIENTED_EDGE('',*,*,#129,.T.);
#196 = ORIENTED_EDGE('',*,*,#197,.T.);
#197 = EDGE_CURVE('',#130,#198,#200,.T.);
#198 = VERTEX_POINT('',#199);
#199 = CARTESIAN_POINT('',(17.5,-13.,-4.5));
#200 = LINE('',#201,#202);
#201 = CARTESIAN_POINT('',(-21.,-13.,-4.5));
#202 = VECTOR('',#203,1.);
#203 = DIRECTION('',(1.,0.,0.));
#204 = ORIENTED_EDGE('',*,*,#205,.F.);
#205 = EDGE_CURVE('',#206,#198,#208,.T.);
#206 = VERTEX_POINT('',#207);
#207 = CARTESIAN_POINT('',(21.,-9.5,-4.5));
#208 = CIRCLE('',#209,3.5);
#209 = AXIS2_PLACEMENT_3D('',#210,#211,#212);
#210 = CARTESIAN_POINT('',(17.5,-9.5,-4.5));
#211 = DIRECTION('',(-0.,-0.,-1.));
#212 = DIRECTION('',(0.,-1.,0.));
#213 = ORIENTED_EDGE('',*,*,#214,.T.);
#214 = EDGE_CURVE('',#206,#215,#217,.T.);
#215 = VERTEX_POINT('',#216);
#216 = CARTESIAN_POINT('',(21.,9.5,-4.5));
#217 = LINE('',#218,#219);
#218 = CARTESIAN_POINT('',(21.,-13.,-4.5));
#219 = VECTOR('',#220,1.);
#220 = DIRECTION('',(0.,1.,0.));
#221 = ORIENTED_EDGE('',*,*,#222,.T.);
#222 = EDGE_CURVE('',#215,#223,#225,.T.);
#223 = VERTEX_POINT('',#224);
#224 = CARTESIAN_POINT('',(17.5,13.,-4.5));
#225 = CIRCLE('',#226,3.5);
#226 = AXIS2_PLACEMENT_3D('',#227,#228,#229);
#227 = CARTESIAN_POINT('',(17.5,9.5,-4.5));
#228 = DIRECTION('',(-0.,0.,1.));
#229 = DIRECTION('',(0.,-1.,0.));
#230 = ORIENTED_EDGE('',*,*,#231,.F.);
#231 = EDGE_CURVE('',#163,#223,#232,.T.);
#232 = LINE('',#233,#234);
#233 = CARTESIAN_POINT('',(-21.,13.,-4.5));
#234 = VECTOR('',#235,1.);
#235 = DIRECTION('',(1.,0.,0.));
#236 = ORIENTED_EDGE('',*,*,#162,.F.);
#237 = PLANE('',#238);
#238 = AXIS2_PLACEMENT_3D('',#239,#240,#241);
#239 = CARTESIAN_POINT('',(-21.,-13.,-4.5));
#240 = DIRECTION('',(0.,0.,1.));
#241 = DIRECTION('',(1.,0.,0.));
#242 = ADVANCED_FACE('',(#243),#268,.F.);
#243 = FACE_BOUND('',#244,.F.);
#244 = EDGE_LOOP('',(#245,#253,#261,#267));
#245 = ORIENTED_EDGE('',*,*,#246,.F.);
#246 = EDGE_CURVE('',#247,#58,#249,.T.);
#247 = VERTEX_POINT('',#248);
#248 = CARTESIAN_POINT('',(-20.,-2.9,-0.5));
#249 = LINE('',#250,#251);
#250 = CARTESIAN_POINT('',(-11.,-2.9,-0.5));
#251 = VECTOR('',#252,1.);
#252 = DIRECTION('',(-1.,1.224646799147E-16,0.));
#253 = ORIENTED_EDGE('',*,*,#254,.F.);
#254 = EDGE_CURVE('',#255,#247,#257,.T.);
#255 = VERTEX_POINT('',#256);
#256 = CARTESIAN_POINT('',(-20.,2.9,-0.5));
#257 = LINE('',#258,#259);
#258 = CARTESIAN_POINT('',(-20.,3.7,-0.5));
#259 = VECTOR('',#260,1.);
#260 = DIRECTION('',(-1.224646799147E-16,-1.,0.));
#261 = ORIENTED_EDGE('',*,*,#262,.T.);
#262 = EDGE_CURVE('',#255,#56,#263,.T.);
#263 = LINE('',#264,#265);
#264 = CARTESIAN_POINT('',(-11.,2.9,-0.5));
#265 = VECTOR('',#266,1.);
#266 = DIRECTION('',(-1.,1.224646799147E-16,0.));
#267 = ORIENTED_EDGE('',*,*,#55,.T.);
#268 = PLANE('',#269);
#269 = AXIS2_PLACEMENT_3D('',#270,#271,#272);
#270 = CARTESIAN_POINT('',(-11.,2.9,-0.5));
#271 = DIRECTION('',(0.,0.,1.));
#272 = DIRECTION('',(-1.,1.224646799147E-16,0.));
#273 = ADVANCED_FACE('',(#274),#292,.F.);
#274 = FACE_BOUND('',#275,.F.);
#275 = EDGE_LOOP('',(#276,#277,#285,#291));
#276 = ORIENTED_EDGE('',*,*,#115,.T.);
#277 = ORIENTED_EDGE('',*,*,#278,.T.);
#278 = EDGE_CURVE('',#107,#279,#281,.T.);
#279 = VERTEX_POINT('',#280);
#280 = CARTESIAN_POINT('',(-20.,-2.9,-0.504006420562));
#281 = LINE('',#282,#283);
#282 = CARTESIAN_POINT('',(-11.,-2.9,-0.504006420562));
#283 = VECTOR('',#284,1.);
#284 = DIRECTION('',(1.,-1.224646799147E-16,-2.22044604925E-16));
#285 = ORIENTED_EDGE('',*,*,#286,.F.);
#286 = EDGE_CURVE('',#247,#279,#287,.T.);
#287 = LINE('',#288,#289);
#288 = CARTESIAN_POINT('',(-20.,-2.9,-3.25));
#289 = VECTOR('',#290,1.);
#290 = DIRECTION('',(-0.,0.,-1.));
#291 = ORIENTED_EDGE('',*,*,#246,.T.);
#292 = PLANE('',#293);
#293 = AXIS2_PLACEMENT_3D('',#294,#295,#296);
#294 = CARTESIAN_POINT('',(-11.,-2.9,-3.));
#295 = DIRECTION('',(-1.224646799147E-16,-1.,0.));
#296 = DIRECTION('',(0.,0.,1.));
#297 = ADVANCED_FACE('',(#298),#326,.F.);
#298 = FACE_BOUND('',#299,.T.);
#299 = EDGE_LOOP('',(#300,#301,#302,#311,#320));
#300 = ORIENTED_EDGE('',*,*,#106,.F.);
#301 = ORIENTED_EDGE('',*,*,#278,.T.);
#302 = ORIENTED_EDGE('',*,*,#303,.T.);
#303 = EDGE_CURVE('',#279,#304,#306,.T.);
#304 = VERTEX_POINT('',#305);
#305 = CARTESIAN_POINT('',(-20.,-3.,-3.));
#306 = CIRCLE('',#307,1.25);
#307 = AXIS2_PLACEMENT_3D('',#308,#309,#310);
#308 = CARTESIAN_POINT('',(-20.,-3.,-1.75));
#309 = DIRECTION('',(1.,-1.224646799147E-16,-2.22044604925E-16));
#310 = DIRECTION('',(-2.22044604925E-16,2.719262146894E-32,-1.));
#311 = ORIENTED_EDGE('',*,*,#312,.T.);
#312 = EDGE_CURVE('',#304,#313,#315,.T.);
#313 = VERTEX_POINT('',#314);
#314 = CARTESIAN_POINT('',(-20.,-2.9,-2.995993579438));
#315 = CIRCLE('',#316,1.25);
#316 = AXIS2_PLACEMENT_3D('',#317,#318,#319);
#317 = CARTESIAN_POINT('',(-20.,-3.,-1.75));
#318 = DIRECTION('',(1.,-1.224646799147E-16,-2.22044604925E-16));
#319 = DIRECTION('',(-2.22044604925E-16,2.719262146894E-32,-1.));
#320 = ORIENTED_EDGE('',*,*,#321,.F.);
#321 = EDGE_CURVE('',#99,#313,#322,.T.);
#322 = LINE('',#323,#324);
#323 = CARTESIAN_POINT('',(-11.,-2.9,-2.995993579438));
#324 = VECTOR('',#325,1.);
#325 = DIRECTION('',(1.,-1.224646799147E-16,-2.22044604925E-16));
#326 = CYLINDRICAL_SURFACE('',#327,1.25);
#327 = AXIS2_PLACEMENT_3D('',#328,#329,#330);
#328 = CARTESIAN_POINT('',(-11.,-3.,-1.75));
#329 = DIRECTION('',(1.,-1.224646799147E-16,-2.22044604925E-16));
#330 = DIRECTION('',(-2.22044604925E-16,2.719262146894E-32,-1.));
#331 = ADVANCED_FACE('',(#332),#350,.F.);
#332 = FACE_BOUND('',#333,.F.);
#333 = EDGE_LOOP('',(#334,#342,#348,#349));
#334 = ORIENTED_EDGE('',*,*,#335,.F.);
#335 = EDGE_CURVE('',#336,#91,#338,.T.);
#336 = VERTEX_POINT('',#337);
#337 = CARTESIAN_POINT('',(-20.,-2.9,-3.));
#338 = LINE('',#339,#340);
#339 = CARTESIAN_POINT('',(-11.,-2.9,-3.));
#340 = VECTOR('',#341,1.);
#341 = DIRECTION('',(-1.,1.224646799147E-16,0.));
#342 = ORIENTED_EDGE('',*,*,#343,.F.);
#343 = EDGE_CURVE('',#313,#336,#344,.T.);
#344 = LINE('',#345,#346);
#345 = CARTESIAN_POINT('',(-20.,-2.9,-3.25));
#346 = VECTOR('',#347,1.);
#347 = DIRECTION('',(-0.,0.,-1.));
#348 = ORIENTED_EDGE('',*,*,#321,.F.);
#349 = ORIENTED_EDGE('',*,*,#98,.T.);
#350 = PLANE('',#351);
#351 = AXIS2_PLACEMENT_3D('',#352,#353,#354);
#352 = CARTESIAN_POINT('',(-11.,-2.9,-3.));
#353 = DIRECTION('',(-1.224646799147E-16,-1.,0.));
#354 = DIRECTION('',(0.,0.,1.));
#355 = ADVANCED_FACE('',(#356),#374,.T.);
#356 = FACE_BOUND('',#357,.T.);
#357 = EDGE_LOOP('',(#358,#359,#367,#373));
#358 = ORIENTED_EDGE('',*,*,#335,.F.);
#359 = ORIENTED_EDGE('',*,*,#360,.F.);
#360 = EDGE_CURVE('',#361,#336,#363,.T.);
#361 = VERTEX_POINT('',#362);
#362 = CARTESIAN_POINT('',(-20.,2.9,-3.));
#363 = LINE('',#364,#365);
#364 = CARTESIAN_POINT('',(-20.,3.7,-3.));
#365 = VECTOR('',#366,1.);
#366 = DIRECTION('',(-1.224646799147E-16,-1.,0.));
#367 = ORIENTED_EDGE('',*,*,#368,.T.);
#368 = EDGE_CURVE('',#361,#83,#369,.T.);
#369 = LINE('',#370,#371);
#370 = CARTESIAN_POINT('',(-11.,2.9,-3.));
#371 = VECTOR('',#372,1.);
#372 = DIRECTION('',(-1.,1.224646799147E-16,0.));
#373 = ORIENTED_EDGE('',*,*,#90,.T.);
#374 = PLANE('',#375);
#375 = AXIS2_PLACEMENT_3D('',#376,#377,#378);
#376 = CARTESIAN_POINT('',(-11.,2.9,-3.));
#377 = DIRECTION('',(0.,0.,1.));
#378 = DIRECTION('',(-1.,1.224646799147E-16,0.));
#379 = ADVANCED_FACE('',(#380),#398,.T.);
#380 = FACE_BOUND('',#381,.T.);
#381 = EDGE_LOOP('',(#382,#383,#391,#397));
#382 = ORIENTED_EDGE('',*,*,#368,.F.);
#383 = ORIENTED_EDGE('',*,*,#384,.F.);
#384 = EDGE_CURVE('',#385,#361,#387,.T.);
#385 = VERTEX_POINT('',#386);
#386 = CARTESIAN_POINT('',(-20.,2.9,-2.995993579438));
#387 = LINE('',#388,#389);
#388 = CARTESIAN_POINT('',(-20.,2.9,-3.25));
#389 = VECTOR('',#390,1.);
#390 = DIRECTION('',(-0.,0.,-1.));
#391 = ORIENTED_EDGE('',*,*,#392,.F.);
#392 = EDGE_CURVE('',#74,#385,#393,.T.);
#393 = LINE('',#394,#395);
#394 = CARTESIAN_POINT('',(-11.,2.9,-2.995993579438));
#395 = VECTOR('',#396,1.);
#396 = DIRECTION('',(1.,-1.224646799147E-16,-2.22044604925E-16));
#397 = ORIENTED_EDGE('',*,*,#82,.T.);
#398 = PLANE('',#399);
#399 = AXIS2_PLACEMENT_3D('',#400,#401,#402);
#400 = CARTESIAN_POINT('',(-11.,2.9,-3.));
#401 = DIRECTION('',(-1.224646799147E-16,-1.,0.));
#402 = DIRECTION('',(0.,0.,1.));
#403 = ADVANCED_FACE('',(#404),#432,.F.);
#404 = FACE_BOUND('',#405,.T.);
#405 = EDGE_LOOP('',(#406,#407,#408,#417,#426));
#406 = ORIENTED_EDGE('',*,*,#73,.F.);
#407 = ORIENTED_EDGE('',*,*,#392,.T.);
#408 = ORIENTED_EDGE('',*,*,#409,.T.);
#409 = EDGE_CURVE('',#385,#410,#412,.T.);
#410 = VERTEX_POINT('',#411);
#411 = CARTESIAN_POINT('',(-20.,3.,-3.));
#412 = CIRCLE('',#413,1.25);
#413 = AXIS2_PLACEMENT_3D('',#414,#415,#416);
#414 = CARTESIAN_POINT('',(-20.,3.,-1.75));
#415 = DIRECTION('',(1.,-1.224646799147E-16,-2.22044604925E-16));
#416 = DIRECTION('',(-2.22044604925E-16,2.719262146894E-32,-1.));
#417 = ORIENTED_EDGE('',*,*,#418,.T.);
#418 = EDGE_CURVE('',#410,#419,#421,.T.);
#419 = VERTEX_POINT('',#420);
#420 = CARTESIAN_POINT('',(-20.,2.9,-0.504006420562));
#421 = CIRCLE('',#422,1.25);
#422 = AXIS2_PLACEMENT_3D('',#423,#424,#425);
#423 = CARTESIAN_POINT('',(-20.,3.,-1.75));
#424 = DIRECTION('',(1.,-1.224646799147E-16,-2.22044604925E-16));
#425 = DIRECTION('',(-2.22044604925E-16,2.719262146894E-32,-1.));
#426 = ORIENTED_EDGE('',*,*,#427,.F.);
#427 = EDGE_CURVE('',#66,#419,#428,.T.);
#428 = LINE('',#429,#430);
#429 = CARTESIAN_POINT('',(-11.,2.9,-0.504006420562));
#430 = VECTOR('',#431,1.);
#431 = DIRECTION('',(1.,-1.224646799147E-16,-2.22044604925E-16));
#432 = CYLINDRICAL_SURFACE('',#433,1.25);
#433 = AXIS2_PLACEMENT_3D('',#434,#435,#436);
#434 = CARTESIAN_POINT('',(-11.,3.,-1.75));
#435 = DIRECTION('',(1.,-1.224646799147E-16,-2.22044604925E-16));
#436 = DIRECTION('',(-2.22044604925E-16,2.719262146894E-32,-1.));
#437 = ADVANCED_FACE('',(#438),#449,.T.);
#438 = FACE_BOUND('',#439,.T.);
#439 = EDGE_LOOP('',(#440,#441,#442,#448));
#440 = ORIENTED_EDGE('',*,*,#65,.T.);
#441 = ORIENTED_EDGE('',*,*,#427,.T.);
#442 = ORIENTED_EDGE('',*,*,#443,.F.);
#443 = EDGE_CURVE('',#255,#419,#444,.T.);
#444 = LINE('',#445,#446);
#445 = CARTESIAN_POINT('',(-20.,2.9,-3.25));
#446 = VECTOR('',#447,1.);
#447 = DIRECTION('',(-0.,0.,-1.));
#448 = ORIENTED_EDGE('',*,*,#262,.T.);
#449 = PLANE('',#450);
#450 = AXIS2_PLACEMENT_3D('',#451,#452,#453);
#451 = CARTESIAN_POINT('',(-11.,2.9,-3.));
#452 = DIRECTION('',(-1.224646799147E-16,-1.,0.));
#453 = DIRECTION('',(0.,0.,1.));
#454 = ADVANCED_FACE('',(#455),#473,.T.);
#455 = FACE_BOUND('',#456,.T.);
#456 = EDGE_LOOP('',(#457,#458,#459,#467));
#457 = ORIENTED_EDGE('',*,*,#231,.F.);
#458 = ORIENTED_EDGE('',*,*,#171,.T.);
#459 = ORIENTED_EDGE('',*,*,#460,.T.);
#460 = EDGE_CURVE('',#172,#461,#463,.T.);
#461 = VERTEX_POINT('',#462);
#462 = CARTESIAN_POINT('',(17.5,13.,1.));
#463 = LINE('',#464,#465);
#464 = CARTESIAN_POINT('',(-21.,13.,1.));
#465 = VECTOR('',#466,1.);
#466 = DIRECTION('',(1.,0.,0.));
#467 = ORIENTED_EDGE('',*,*,#468,.F.);
#468 = EDGE_CURVE('',#223,#461,#469,.T.);
#469 = LINE('',#470,#471);
#470 = CARTESIAN_POINT('',(17.5,13.,-4.5));
#471 = VECTOR('',#472,1.);
#472 = DIRECTION('',(0.,0.,1.));
#473 = PLANE('',#474);
#474 = AXIS2_PLACEMENT_3D('',#475,#476,#477);
#475 = CARTESIAN_POINT('',(-21.,13.,-4.5));
#476 = DIRECTION('',(0.,1.,0.));
#477 = DIRECTION('',(0.,0.,1.));
#478 = ADVANCED_FACE('',(#479),#498,.T.);
#479 = FACE_BOUND('',#480,.T.);
#480 = EDGE_LOOP('',(#481,#482,#483,#492));
#481 = ORIENTED_EDGE('',*,*,#222,.T.);
#482 = ORIENTED_EDGE('',*,*,#468,.T.);
#483 = ORIENTED_EDGE('',*,*,#484,.F.);
#484 = EDGE_CURVE('',#485,#461,#487,.T.);
#485 = VERTEX_POINT('',#486);
#486 = CARTESIAN_POINT('',(21.,9.5,1.));
#487 = CIRCLE('',#488,3.5);
#488 = AXIS2_PLACEMENT_3D('',#489,#490,#491);
#489 = CARTESIAN_POINT('',(17.5,9.5,1.));
#490 = DIRECTION('',(-0.,0.,1.));
#491 = DIRECTION('',(0.,-1.,0.));
#492 = ORIENTED_EDGE('',*,*,#493,.F.);
#493 = EDGE_CURVE('',#215,#485,#494,.T.);
#494 = LINE('',#495,#496);
#495 = CARTESIAN_POINT('',(21.,9.5,-4.5));
#496 = VECTOR('',#497,1.);
#497 = DIRECTION('',(0.,0.,1.));
#498 = CYLINDRICAL_SURFACE('',#499,3.5);
#499 = AXIS2_PLACEMENT_3D('',#500,#501,#502);
#500 = CARTESIAN_POINT('',(17.5,9.5,-4.5));
#501 = DIRECTION('',(0.,0.,1.));
#502 = DIRECTION('',(1.,0.,0.));
#503 = ADVANCED_FACE('',(#504),#522,.T.);
#504 = FACE_BOUND('',#505,.T.);
#505 = EDGE_LOOP('',(#506,#514,#520,#521));
#506 = ORIENTED_EDGE('',*,*,#507,.F.);
#507 = EDGE_CURVE('',#508,#485,#510,.T.);
#508 = VERTEX_POINT('',#509);
#509 = CARTESIAN_POINT('',(21.,-9.5,1.));
#510 = LINE('',#511,#512);
#511 = CARTESIAN_POINT('',(21.,-13.,1.));
#512 = VECTOR('',#513,1.);
#513 = DIRECTION('',(0.,1.,0.));
#514 = ORIENTED_EDGE('',*,*,#515,.F.);
#515 = EDGE_CURVE('',#206,#508,#516,.T.);
#516 = LINE('',#517,#518);
#517 = CARTESIAN_POINT('',(21.,-9.5,-4.5));
#518 = VECTOR('',#519,1.);
#519 = DIRECTION('',(0.,0.,1.));
#520 = ORIENTED_EDGE('',*,*,#214,.T.);
#521 = ORIENTED_EDGE('',*,*,#493,.T.);
#522 = PLANE('',#523);
#523 = AXIS2_PLACEMENT_3D('',#524,#525,#526);
#524 = CARTESIAN_POINT('',(21.,-13.,-4.5));
#525 = DIRECTION('',(1.,0.,0.));
#526 = DIRECTION('',(0.,0.,1.));
#527 = ADVANCED_FACE('',(#528),#557,.T.);
#528 = FACE_BOUND('',#529,.F.);
#529 = EDGE_LOOP('',(#530,#531,#532,#540,#550));
#530 = ORIENTED_EDGE('',*,*,#515,.F.);
#531 = ORIENTED_EDGE('',*,*,#205,.T.);
#532 = ORIENTED_EDGE('',*,*,#533,.T.);
#533 = EDGE_CURVE('',#198,#534,#536,.T.);
#534 = VERTEX_POINT('',#535);
#535 = CARTESIAN_POINT('',(17.5,-13.,0.434314575051));
#536 = LINE('',#537,#538);
#537 = CARTESIAN_POINT('',(17.5,-13.,-4.5));
#538 = VECTOR('',#539,1.);
#539 = DIRECTION('',(0.,0.,1.));
#540 = ORIENTED_EDGE('',*,*,#541,.F.);
#541 = EDGE_CURVE('',#542,#534,#544,.T.);
#542 = VERTEX_POINT('',#543);
#543 = CARTESIAN_POINT('',(17.549210747034,-12.99965402609,1.));
#544 = B_SPLINE_CURVE_WITH_KNOTS('',4,(#545,#546,#547,#548,#549),
  .UNSPECIFIED.,.F.,.F.,(5,5),(0.,1.),.PIECEWISE_BEZIER_KNOTS.);
#545 = CARTESIAN_POINT('',(17.549210744966,-12.99965402612,
    1.000116854765));
#546 = CARTESIAN_POINT('',(17.549215768669,-12.99965395548,
    0.858132667006));
#547 = CARTESIAN_POINT('',(17.541082521925,-12.99976557406,
    0.716337971605));
#548 = CARTESIAN_POINT('',(17.524854045088,-13.,0.574910285624));
#549 = CARTESIAN_POINT('',(17.5,-13.,0.434314575051));
#550 = ORIENTED_EDGE('',*,*,#551,.F.);
#551 = EDGE_CURVE('',#508,#542,#552,.T.);
#552 = CIRCLE('',#553,3.5);
#553 = AXIS2_PLACEMENT_3D('',#554,#555,#556);
#554 = CARTESIAN_POINT('',(17.5,-9.5,1.));
#555 = DIRECTION('',(-0.,-0.,-1.));
#556 = DIRECTION('',(0.,-1.,0.));
#557 = CYLINDRICAL_SURFACE('',#558,3.5);
#558 = AXIS2_PLACEMENT_3D('',#559,#560,#561);
#559 = CARTESIAN_POINT('',(17.5,-9.5,-4.5));
#560 = DIRECTION('',(0.,0.,1.));
#561 = DIRECTION('',(1.,0.,0.));
#562 = ADVANCED_FACE('',(#563),#618,.F.);
#563 = FACE_BOUND('',#564,.F.);
#564 = EDGE_LOOP('',(#565,#576,#585,#594,#603,#610,#611));
#565 = ORIENTED_EDGE('',*,*,#566,.F.);
#566 = EDGE_CURVE('',#567,#569,#571,.T.);
#567 = VERTEX_POINT('',#568);
#568 = CARTESIAN_POINT('',(12.594127789077,-12.1,1.));
#569 = VERTEX_POINT('',#570);
#570 = CARTESIAN_POINT('',(11.050384638146,-13.,1.));
#571 = CIRCLE('',#572,5.);
#572 = AXIS2_PLACEMENT_3D('',#573,#574,#575);
#573 = CARTESIAN_POINT('',(14.3,-16.8,1.));
#574 = DIRECTION('',(0.,0.,1.));
#575 = DIRECTION('',(1.,0.,-0.));
#576 = ORIENTED_EDGE('',*,*,#577,.F.);
#577 = EDGE_CURVE('',#578,#567,#580,.T.);
#578 = VERTEX_POINT('',#579);
#579 = CARTESIAN_POINT('',(13.487596159536,-12.1,-0.5));
#580 = CIRCLE('',#581,1.705872210923);
#581 = AXIS2_PLACEMENT_3D('',#582,#583,#584);
#582 = CARTESIAN_POINT('',(14.3,-12.1,1.));
#583 = DIRECTION('',(0.,1.,0.));
#584 = DIRECTION('',(0.,0.,1.));
#585 = ORIENTED_EDGE('',*,*,#586,.F.);
#586 = EDGE_CURVE('',#587,#578,#589,.T.);
#587 = VERTEX_POINT('',#588);
#588 = CARTESIAN_POINT('',(15.112403840464,-12.1,-0.5));
#589 = CIRCLE('',#590,4.769696007085);
#590 = AXIS2_PLACEMENT_3D('',#591,#592,#593);
#591 = CARTESIAN_POINT('',(14.3,-16.8,-0.5));
#592 = DIRECTION('',(0.,0.,1.));
#593 = DIRECTION('',(1.,0.,0.));
#594 = ORIENTED_EDGE('',*,*,#595,.F.);
#595 = EDGE_CURVE('',#596,#587,#598,.T.);
#596 = VERTEX_POINT('',#597);
#597 = CARTESIAN_POINT('',(16.005872210923,-12.1,1.));
#598 = CIRCLE('',#599,1.705872210923);
#599 = AXIS2_PLACEMENT_3D('',#600,#601,#602);
#600 = CARTESIAN_POINT('',(14.3,-12.1,1.));
#601 = DIRECTION('',(0.,1.,0.));
#602 = DIRECTION('',(0.,0.,1.));
#603 = ORIENTED_EDGE('',*,*,#604,.F.);
#604 = EDGE_CURVE('',#542,#596,#605,.T.);
#605 = CIRCLE('',#606,5.);
#606 = AXIS2_PLACEMENT_3D('',#607,#608,#609);
#607 = CARTESIAN_POINT('',(14.3,-16.8,1.));
#608 = DIRECTION('',(0.,0.,1.));
#609 = DIRECTION('',(1.,0.,-0.));
#610 = ORIENTED_EDGE('',*,*,#541,.T.);
#611 = ORIENTED_EDGE('',*,*,#612,.T.);
#612 = EDGE_CURVE('',#534,#569,#613,.T.);
#613 = CIRCLE('',#614,3.249615361854);
#614 = AXIS2_PLACEMENT_3D('',#615,#616,#617);
#615 = CARTESIAN_POINT('',(14.3,-13.,1.));
#616 = DIRECTION('',(0.,1.,0.));
#617 = DIRECTION('',(0.,-0.,1.));
#618 = SPHERICAL_SURFACE('',#619,5.);
#619 = AXIS2_PLACEMENT_3D('',#620,#621,#622);
#620 = CARTESIAN_POINT('',(14.3,-16.8,1.));
#621 = DIRECTION('',(0.,0.,1.));
#622 = DIRECTION('',(1.,0.,0.));
#623 = ADVANCED_FACE('',(#624),#649,.F.);
#624 = FACE_BOUND('',#625,.F.);
#625 = EDGE_LOOP('',(#626,#627,#635,#643));
#626 = ORIENTED_EDGE('',*,*,#595,.T.);
#627 = ORIENTED_EDGE('',*,*,#628,.T.);
#628 = EDGE_CURVE('',#587,#629,#631,.T.);
#629 = VERTEX_POINT('',#630);
#630 = CARTESIAN_POINT('',(16.2,-12.1,-0.5));
#631 = LINE('',#632,#633);
#632 = CARTESIAN_POINT('',(12.4,-12.1,-0.5));
#633 = VECTOR('',#634,1.);
#634 = DIRECTION('',(1.,0.,0.));
#635 = ORIENTED_EDGE('',*,*,#636,.T.);
#636 = EDGE_CURVE('',#629,#637,#639,.T.);
#637 = VERTEX_POINT('',#638);
#638 = CARTESIAN_POINT('',(16.2,-12.1,1.));
#639 = LINE('',#640,#641);
#640 = CARTESIAN_POINT('',(16.2,-12.1,-0.5));
#641 = VECTOR('',#642,1.);
#642 = DIRECTION('',(0.,0.,1.));
#643 = ORIENTED_EDGE('',*,*,#644,.F.);
#644 = EDGE_CURVE('',#596,#637,#645,.T.);
#645 = LINE('',#646,#647);
#646 = CARTESIAN_POINT('',(-2.493588458689,-12.1,1.));
#647 = VECTOR('',#648,1.);
#648 = DIRECTION('',(1.,0.,0.));
#649 = PLANE('',#650);
#650 = AXIS2_PLACEMENT_3D('',#651,#652,#653);
#651 = CARTESIAN_POINT('',(16.012823082622,-12.1,1.087163080312));
#652 = DIRECTION('',(-0.,-1.,-0.));
#653 = DIRECTION('',(0.,0.,-1.));
#654 = ADVANCED_FACE('',(#655),#680,.F.);
#655 = FACE_BOUND('',#656,.F.);
#656 = EDGE_LOOP('',(#657,#667,#673,#674));
#657 = ORIENTED_EDGE('',*,*,#658,.F.);
#658 = EDGE_CURVE('',#659,#661,#663,.T.);
#659 = VERTEX_POINT('',#660);
#660 = CARTESIAN_POINT('',(12.4,-12.1,-0.5));
#661 = VERTEX_POINT('',#662);
#662 = CARTESIAN_POINT('',(12.4,-12.1,1.));
#663 = LINE('',#664,#665);
#664 = CARTESIAN_POINT('',(12.4,-12.1,-0.5));
#665 = VECTOR('',#666,1.);
#666 = DIRECTION('',(0.,0.,1.));
#667 = ORIENTED_EDGE('',*,*,#668,.T.);
#668 = EDGE_CURVE('',#659,#578,#669,.T.);
#669 = LINE('',#670,#671);
#670 = CARTESIAN_POINT('',(12.4,-12.1,-0.5));
#671 = VECTOR('',#672,1.);
#672 = DIRECTION('',(1.,0.,0.));
#673 = ORIENTED_EDGE('',*,*,#577,.T.);
#674 = ORIENTED_EDGE('',*,*,#675,.F.);
#675 = EDGE_CURVE('',#661,#567,#676,.T.);
#676 = LINE('',#677,#678);
#677 = CARTESIAN_POINT('',(-4.212522792992,-12.1,1.));
#678 = VECTOR('',#679,1.);
#679 = DIRECTION('',(1.,0.,0.));
#680 = PLANE('',#681);
#681 = AXIS2_PLACEMENT_3D('',#682,#683,#684);
#682 = CARTESIAN_POINT('',(12.574954414016,-12.1,1.092433473321));
#683 = DIRECTION('',(-0.,-1.,-0.));
#684 = DIRECTION('',(0.,0.,-1.));
#685 = ADVANCED_FACE('',(#686),#698,.F.);
#686 = FACE_BOUND('',#687,.F.);
#687 = EDGE_LOOP('',(#688,#689,#690,#696,#697));
#688 = ORIENTED_EDGE('',*,*,#197,.F.);
#689 = ORIENTED_EDGE('',*,*,#138,.T.);
#690 = ORIENTED_EDGE('',*,*,#691,.T.);
#691 = EDGE_CURVE('',#139,#569,#692,.T.);
#692 = LINE('',#693,#694);
#693 = CARTESIAN_POINT('',(-21.,-13.,1.));
#694 = VECTOR('',#695,1.);
#695 = DIRECTION('',(1.,0.,0.));
#696 = ORIENTED_EDGE('',*,*,#612,.F.);
#697 = ORIENTED_EDGE('',*,*,#533,.F.);
#698 = PLANE('',#699);
#699 = AXIS2_PLACEMENT_3D('',#700,#701,#702);
#700 = CARTESIAN_POINT('',(-21.,-13.,-4.5));
#701 = DIRECTION('',(0.,1.,0.));
#702 = DIRECTION('',(0.,0.,1.));
#703 = ADVANCED_FACE('',(#704),#731,.T.);
#704 = FACE_BOUND('',#705,.T.);
#705 = EDGE_LOOP('',(#706,#714,#722,#728,#729,#730));
#706 = ORIENTED_EDGE('',*,*,#707,.T.);
#707 = EDGE_CURVE('',#629,#708,#710,.T.);
#708 = VERTEX_POINT('',#709);
#709 = CARTESIAN_POINT('',(16.2,-11.5,-0.5));
#710 = LINE('',#711,#712);
#711 = CARTESIAN_POINT('',(16.2,-12.1,-0.5));
#712 = VECTOR('',#713,1.);
#713 = DIRECTION('',(0.,1.,0.));
#714 = ORIENTED_EDGE('',*,*,#715,.F.);
#715 = EDGE_CURVE('',#716,#708,#718,.T.);
#716 = VERTEX_POINT('',#717);
#717 = CARTESIAN_POINT('',(12.4,-11.5,-0.5));
#718 = LINE('',#719,#720);
#719 = CARTESIAN_POINT('',(-3.55,-11.5,-0.5));
#720 = VECTOR('',#721,1.);
#721 = DIRECTION('',(1.,0.,0.));
#722 = ORIENTED_EDGE('',*,*,#723,.F.);
#723 = EDGE_CURVE('',#659,#716,#724,.T.);
#724 = LINE('',#725,#726);
#725 = CARTESIAN_POINT('',(12.4,-12.1,-0.5));
#726 = VECTOR('',#727,1.);
#727 = DIRECTION('',(0.,1.,0.));
#728 = ORIENTED_EDGE('',*,*,#668,.T.);
#729 = ORIENTED_EDGE('',*,*,#586,.F.);
#730 = ORIENTED_EDGE('',*,*,#628,.T.);
#731 = PLANE('',#732);
#732 = AXIS2_PLACEMENT_3D('',#733,#734,#735);
#733 = CARTESIAN_POINT('',(12.4,-12.1,-0.5));
#734 = DIRECTION('',(0.,0.,1.));
#735 = DIRECTION('',(1.,0.,0.));
#736 = ADVANCED_FACE('',(#737),#771,.F.);
#737 = FACE_BOUND('',#738,.F.);
#738 = EDGE_LOOP('',(#739,#740,#741,#749,#757,#765));
#739 = ORIENTED_EDGE('',*,*,#636,.F.);
#740 = ORIENTED_EDGE('',*,*,#707,.T.);
#741 = ORIENTED_EDGE('',*,*,#742,.F.);
#742 = EDGE_CURVE('',#743,#708,#745,.T.);
#743 = VERTEX_POINT('',#744);
#744 = CARTESIAN_POINT('',(16.2,-11.5,0.));
#745 = LINE('',#746,#747);
#746 = CARTESIAN_POINT('',(16.2,-11.5,-2.));
#747 = VECTOR('',#748,1.);
#748 = DIRECTION('',(0.,0.,-1.));
#749 = ORIENTED_EDGE('',*,*,#750,.F.);
#750 = EDGE_CURVE('',#751,#743,#753,.T.);
#751 = VERTEX_POINT('',#752);
#752 = CARTESIAN_POINT('',(16.2,-12.,0.));
#753 = LINE('',#754,#755);
#754 = CARTESIAN_POINT('',(16.2,-12.05,0.));
#755 = VECTOR('',#756,1.);
#756 = DIRECTION('',(0.,1.,0.));
#757 = ORIENTED_EDGE('',*,*,#758,.F.);
#758 = EDGE_CURVE('',#759,#751,#761,.T.);
#759 = VERTEX_POINT('',#760);
#760 = CARTESIAN_POINT('',(16.2,-12.,1.));
#761 = LINE('',#762,#763);
#762 = CARTESIAN_POINT('',(16.2,-12.,-0.25));
#763 = VECTOR('',#764,1.);
#764 = DIRECTION('',(0.,0.,-1.));
#765 = ORIENTED_EDGE('',*,*,#766,.F.);
#766 = EDGE_CURVE('',#637,#759,#767,.T.);
#767 = LINE('',#768,#769);
#768 = CARTESIAN_POINT('',(16.2,-12.1,1.));
#769 = VECTOR('',#770,1.);
#770 = DIRECTION('',(0.,1.,0.));
#771 = PLANE('',#772);
#772 = AXIS2_PLACEMENT_3D('',#773,#774,#775);
#773 = CARTESIAN_POINT('',(16.2,-12.1,-0.5));
#774 = DIRECTION('',(1.,0.,0.));
#775 = DIRECTION('',(0.,0.,1.));
#776 = ADVANCED_FACE('',(#777),#802,.T.);
#777 = FACE_BOUND('',#778,.T.);
#778 = EDGE_LOOP('',(#779,#787,#788,#796));
#779 = ORIENTED_EDGE('',*,*,#780,.F.);
#780 = EDGE_CURVE('',#751,#781,#783,.T.);
#781 = VERTEX_POINT('',#782);
#782 = CARTESIAN_POINT('',(17.,-12.,0.));
#783 = LINE('',#784,#785);
#784 = CARTESIAN_POINT('',(-20.,-12.,0.));
#785 = VECTOR('',#786,1.);
#786 = DIRECTION('',(1.,0.,0.));
#787 = ORIENTED_EDGE('',*,*,#758,.F.);
#788 = ORIENTED_EDGE('',*,*,#789,.F.);
#789 = EDGE_CURVE('',#790,#759,#792,.T.);
#790 = VERTEX_POINT('',#791);
#791 = CARTESIAN_POINT('',(17.,-12.,1.));
#792 = LINE('',#793,#794);
#793 = CARTESIAN_POINT('',(-20.5,-12.,1.));
#794 = VECTOR('',#795,1.);
#795 = DIRECTION('',(-1.,0.,0.));
#796 = ORIENTED_EDGE('',*,*,#797,.F.);
#797 = EDGE_CURVE('',#781,#790,#798,.T.);
#798 = LINE('',#799,#800);
#799 = CARTESIAN_POINT('',(17.,-12.,0.));
#800 = VECTOR('',#801,1.);
#801 = DIRECTION('',(0.,0.,1.));
#802 = PLANE('',#803);
#803 = AXIS2_PLACEMENT_3D('',#804,#805,#806);
#804 = CARTESIAN_POINT('',(-20.,-12.,0.));
#805 = DIRECTION('',(0.,1.,0.));
#806 = DIRECTION('',(0.,0.,1.));
#807 = ADVANCED_FACE('',(#808),#835,.F.);
#808 = FACE_BOUND('',#809,.T.);
#809 = EDGE_LOOP('',(#810,#820,#827,#828));
#810 = ORIENTED_EDGE('',*,*,#811,.F.);
#811 = EDGE_CURVE('',#812,#814,#816,.T.);
#812 = VERTEX_POINT('',#813);
#813 = CARTESIAN_POINT('',(20.,-9.,0.));
#814 = VERTEX_POINT('',#815);
#815 = CARTESIAN_POINT('',(20.,-9.,1.));
#816 = LINE('',#817,#818);
#817 = CARTESIAN_POINT('',(20.,-9.,0.));
#818 = VECTOR('',#819,1.);
#819 = DIRECTION('',(0.,0.,1.));
#820 = ORIENTED_EDGE('',*,*,#821,.T.);
#821 = EDGE_CURVE('',#812,#781,#822,.T.);
#822 = CIRCLE('',#823,3.);
#823 = AXIS2_PLACEMENT_3D('',#824,#825,#826);
#824 = CARTESIAN_POINT('',(17.,-9.,0.));
#825 = DIRECTION('',(-0.,-0.,-1.));
#826 = DIRECTION('',(0.,-1.,0.));
#827 = ORIENTED_EDGE('',*,*,#797,.T.);
#828 = ORIENTED_EDGE('',*,*,#829,.T.);
#829 = EDGE_CURVE('',#790,#814,#830,.T.);
#830 = CIRCLE('',#831,3.);
#831 = AXIS2_PLACEMENT_3D('',#832,#833,#834);
#832 = CARTESIAN_POINT('',(17.,-9.,1.));
#833 = DIRECTION('',(0.,0.,1.));
#834 = DIRECTION('',(1.,0.,0.));
#835 = CYLINDRICAL_SURFACE('',#836,3.);
#836 = AXIS2_PLACEMENT_3D('',#837,#838,#839);
#837 = CARTESIAN_POINT('',(17.,-9.,0.));
#838 = DIRECTION('',(0.,0.,1.));
#839 = DIRECTION('',(1.,0.,0.));
#840 = ADVANCED_FACE('',(#841),#866,.F.);
#841 = FACE_BOUND('',#842,.F.);
#842 = EDGE_LOOP('',(#843,#851,#852,#860));
#843 = ORIENTED_EDGE('',*,*,#844,.F.);
#844 = EDGE_CURVE('',#814,#845,#847,.T.);
#845 = VERTEX_POINT('',#846);
#846 = CARTESIAN_POINT('',(20.,9.,1.));
#847 = LINE('',#848,#849);
#848 = CARTESIAN_POINT('',(20.,-12.5,1.));
#849 = VECTOR('',#850,1.);
#850 = DIRECTION('',(0.,1.,0.));
#851 = ORIENTED_EDGE('',*,*,#811,.F.);
#852 = ORIENTED_EDGE('',*,*,#853,.T.);
#853 = EDGE_CURVE('',#812,#854,#856,.T.);
#854 = VERTEX_POINT('',#855);
#855 = CARTESIAN_POINT('',(20.,9.,0.));
#856 = LINE('',#857,#858);
#857 = CARTESIAN_POINT('',(20.,-12.,0.));
#858 = VECTOR('',#859,1.);
#859 = DIRECTION('',(0.,1.,0.));
#860 = ORIENTED_EDGE('',*,*,#861,.T.);
#861 = EDGE_CURVE('',#854,#845,#862,.T.);
#862 = LINE('',#863,#864);
#863 = CARTESIAN_POINT('',(20.,9.,0.));
#864 = VECTOR('',#865,1.);
#865 = DIRECTION('',(0.,0.,1.));
#866 = PLANE('',#867);
#867 = AXIS2_PLACEMENT_3D('',#868,#869,#870);
#868 = CARTESIAN_POINT('',(20.,-12.,0.));
#869 = DIRECTION('',(1.,0.,0.));
#870 = DIRECTION('',(0.,0.,1.));
#871 = ADVANCED_FACE('',(#872),#899,.F.);
#872 = FACE_BOUND('',#873,.F.);
#873 = EDGE_LOOP('',(#874,#875,#884,#892));
#874 = ORIENTED_EDGE('',*,*,#861,.F.);
#875 = ORIENTED_EDGE('',*,*,#876,.T.);
#876 = EDGE_CURVE('',#854,#877,#879,.T.);
#877 = VERTEX_POINT('',#878);
#878 = CARTESIAN_POINT('',(17.,12.,0.));
#879 = CIRCLE('',#880,3.);
#880 = AXIS2_PLACEMENT_3D('',#881,#882,#883);
#881 = CARTESIAN_POINT('',(17.,9.,0.));
#882 = DIRECTION('',(-0.,0.,1.));
#883 = DIRECTION('',(0.,-1.,0.));
#884 = ORIENTED_EDGE('',*,*,#885,.T.);
#885 = EDGE_CURVE('',#877,#886,#888,.T.);
#886 = VERTEX_POINT('',#887);
#887 = CARTESIAN_POINT('',(17.,12.,1.));
#888 = LINE('',#889,#890);
#889 = CARTESIAN_POINT('',(17.,12.,0.));
#890 = VECTOR('',#891,1.);
#891 = DIRECTION('',(0.,0.,1.));
#892 = ORIENTED_EDGE('',*,*,#893,.F.);
#893 = EDGE_CURVE('',#845,#886,#894,.T.);
#894 = CIRCLE('',#895,3.);
#895 = AXIS2_PLACEMENT_3D('',#896,#897,#898);
#896 = CARTESIAN_POINT('',(17.,9.,1.));
#897 = DIRECTION('',(0.,0.,1.));
#898 = DIRECTION('',(1.,0.,0.));
#899 = CYLINDRICAL_SURFACE('',#900,3.);
#900 = AXIS2_PLACEMENT_3D('',#901,#902,#903);
#901 = CARTESIAN_POINT('',(17.,9.,0.));
#902 = DIRECTION('',(0.,0.,1.));
#903 = DIRECTION('',(1.,0.,0.));
#904 = ADVANCED_FACE('',(#905),#930,.F.);
#905 = FACE_BOUND('',#906,.F.);
#906 = EDGE_LOOP('',(#907,#915,#923,#929));
#907 = ORIENTED_EDGE('',*,*,#908,.F.);
#908 = EDGE_CURVE('',#909,#877,#911,.T.);
#909 = VERTEX_POINT('',#910);
#910 = CARTESIAN_POINT('',(-17.,12.,0.));
#911 = LINE('',#912,#913);
#912 = CARTESIAN_POINT('',(-20.,12.,0.));
#913 = VECTOR('',#914,1.);
#914 = DIRECTION('',(1.,0.,0.));
#915 = ORIENTED_EDGE('',*,*,#916,.T.);
#916 = EDGE_CURVE('',#909,#917,#919,.T.);
#917 = VERTEX_POINT('',#918);
#918 = CARTESIAN_POINT('',(-17.,12.,1.));
#919 = LINE('',#920,#921);
#920 = CARTESIAN_POINT('',(-17.,12.,0.));
#921 = VECTOR('',#922,1.);
#922 = DIRECTION('',(0.,0.,1.));
#923 = ORIENTED_EDGE('',*,*,#924,.F.);
#924 = EDGE_CURVE('',#886,#917,#925,.T.);
#925 = LINE('',#926,#927);
#926 = CARTESIAN_POINT('',(-20.5,12.,1.));
#927 = VECTOR('',#928,1.);
#928 = DIRECTION('',(-1.,0.,0.));
#929 = ORIENTED_EDGE('',*,*,#885,.F.);
#930 = PLANE('',#931);
#931 = AXIS2_PLACEMENT_3D('',#932,#933,#934);
#932 = CARTESIAN_POINT('',(-20.,12.,0.));
#933 = DIRECTION('',(0.,1.,0.));
#934 = DIRECTION('',(0.,0.,1.));
#935 = ADVANCED_FACE('',(#936),#963,.F.);
#936 = FACE_BOUND('',#937,.T.);
#937 = EDGE_LOOP('',(#938,#948,#955,#956));
#938 = ORIENTED_EDGE('',*,*,#939,.F.);
#939 = EDGE_CURVE('',#940,#942,#944,.T.);
#940 = VERTEX_POINT('',#941);
#941 = CARTESIAN_POINT('',(-20.,9.,0.));
#942 = VERTEX_POINT('',#943);
#943 = CARTESIAN_POINT('',(-20.,9.,1.));
#944 = LINE('',#945,#946);
#945 = CARTESIAN_POINT('',(-20.,9.,0.));
#946 = VECTOR('',#947,1.);
#947 = DIRECTION('',(0.,0.,1.));
#948 = ORIENTED_EDGE('',*,*,#949,.T.);
#949 = EDGE_CURVE('',#940,#909,#950,.T.);
#950 = CIRCLE('',#951,3.);
#951 = AXIS2_PLACEMENT_3D('',#952,#953,#954);
#952 = CARTESIAN_POINT('',(-17.,9.,0.));
#953 = DIRECTION('',(-0.,-0.,-1.));
#954 = DIRECTION('',(0.,-1.,0.));
#955 = ORIENTED_EDGE('',*,*,#916,.T.);
#956 = ORIENTED_EDGE('',*,*,#957,.T.);
#957 = EDGE_CURVE('',#917,#942,#958,.T.);
#958 = CIRCLE('',#959,3.);
#959 = AXIS2_PLACEMENT_3D('',#960,#961,#962);
#960 = CARTESIAN_POINT('',(-17.,9.,1.));
#961 = DIRECTION('',(0.,0.,1.));
#962 = DIRECTION('',(-1.,0.,0.));
#963 = CYLINDRICAL_SURFACE('',#964,3.);
#964 = AXIS2_PLACEMENT_3D('',#965,#966,#967);
#965 = CARTESIAN_POINT('',(-17.,9.,0.));
#966 = DIRECTION('',(0.,0.,1.));
#967 = DIRECTION('',(-1.,0.,0.));
#968 = ADVANCED_FACE('',(#969),#1051,.T.);
#969 = FACE_BOUND('',#970,.T.);
#970 = EDGE_LOOP('',(#971,#979,#987,#995,#1004,#1012,#1021,#1029,#1038,
    #1044,#1045,#1046,#1047,#1048,#1049,#1050));
#971 = ORIENTED_EDGE('',*,*,#972,.F.);
#972 = EDGE_CURVE('',#973,#940,#975,.T.);
#973 = VERTEX_POINT('',#974);
#974 = CARTESIAN_POINT('',(-20.,4.5,0.));
#975 = LINE('',#976,#977);
#976 = CARTESIAN_POINT('',(-20.,-12.,0.));
#977 = VECTOR('',#978,1.);
#978 = DIRECTION('',(0.,1.,0.));
#979 = ORIENTED_EDGE('',*,*,#980,.F.);
#980 = EDGE_CURVE('',#981,#973,#983,.T.);
#981 = VERTEX_POINT('',#982);
#982 = CARTESIAN_POINT('',(-19.5,4.5,0.));
#983 = LINE('',#984,#985);
#984 = CARTESIAN_POINT('',(-12.,4.5,0.));
#985 = VECTOR('',#986,1.);
#986 = DIRECTION('',(-1.,1.224646799147E-16,0.));
#987 = ORIENTED_EDGE('',*,*,#988,.F.);
#988 = EDGE_CURVE('',#989,#981,#991,.T.);
#989 = VERTEX_POINT('',#990);
#990 = CARTESIAN_POINT('',(-19.5,8.5,0.));
#991 = LINE('',#992,#993);
#992 = CARTESIAN_POINT('',(-19.5,-11.75,0.));
#993 = VECTOR('',#994,1.);
#994 = DIRECTION('',(0.,-1.,0.));
#995 = ORIENTED_EDGE('',*,*,#996,.F.);
#996 = EDGE_CURVE('',#997,#989,#999,.T.);
#997 = VERTEX_POINT('',#998);
#998 = CARTESIAN_POINT('',(-16.5,11.5,0.));
#999 = CIRCLE('',#1000,3.);
#1000 = AXIS2_PLACEMENT_3D('',#1001,#1002,#1003);
#1001 = CARTESIAN_POINT('',(-16.5,8.5,0.));
#1002 = DIRECTION('',(0.,0.,1.));
#1003 = DIRECTION('',(-1.,0.,0.));
#1004 = ORIENTED_EDGE('',*,*,#1005,.T.);
#1005 = EDGE_CURVE('',#997,#1006,#1008,.T.);
#1006 = VERTEX_POINT('',#1007);
#1007 = CARTESIAN_POINT('',(16.5,11.5,0.));
#1008 = LINE('',#1009,#1010);
#1009 = CARTESIAN_POINT('',(-19.75,11.5,0.));
#1010 = VECTOR('',#1011,1.);
#1011 = DIRECTION('',(1.,0.,0.));
#1012 = ORIENTED_EDGE('',*,*,#1013,.F.);
#1013 = EDGE_CURVE('',#1014,#1006,#1016,.T.);
#1014 = VERTEX_POINT('',#1015);
#1015 = CARTESIAN_POINT('',(19.5,8.5,0.));
#1016 = CIRCLE('',#1017,3.);
#1017 = AXIS2_PLACEMENT_3D('',#1018,#1019,#1020);
#1018 = CARTESIAN_POINT('',(16.5,8.5,0.));
#1019 = DIRECTION('',(0.,0.,1.));
#1020 = DIRECTION('',(1.,0.,0.));
#1021 = ORIENTED_EDGE('',*,*,#1022,.T.);
#1022 = EDGE_CURVE('',#1014,#1023,#1025,.T.);
#1023 = VERTEX_POINT('',#1024);
#1024 = CARTESIAN_POINT('',(19.5,-8.5,0.));
#1025 = LINE('',#1026,#1027);
#1026 = CARTESIAN_POINT('',(19.5,-11.75,0.));
#1027 = VECTOR('',#1028,1.);
#1028 = DIRECTION('',(0.,-1.,0.));
#1029 = ORIENTED_EDGE('',*,*,#1030,.F.);
#1030 = EDGE_CURVE('',#1031,#1023,#1033,.T.);
#1031 = VERTEX_POINT('',#1032);
#1032 = CARTESIAN_POINT('',(16.5,-11.5,0.));
#1033 = CIRCLE('',#1034,3.);
#1034 = AXIS2_PLACEMENT_3D('',#1035,#1036,#1037);
#1035 = CARTESIAN_POINT('',(16.5,-8.5,0.));
#1036 = DIRECTION('',(0.,0.,1.));
#1037 = DIRECTION('',(1.,0.,0.));
#1038 = ORIENTED_EDGE('',*,*,#1039,.F.);
#1039 = EDGE_CURVE('',#743,#1031,#1040,.T.);
#1040 = LINE('',#1041,#1042);
#1041 = CARTESIAN_POINT('',(-19.75,-11.5,0.));
#1042 = VECTOR('',#1043,1.);
#1043 = DIRECTION('',(1.,0.,0.));
#1044 = ORIENTED_EDGE('',*,*,#750,.F.);
#1045 = ORIENTED_EDGE('',*,*,#780,.T.);
#1046 = ORIENTED_EDGE('',*,*,#821,.F.);
#1047 = ORIENTED_EDGE('',*,*,#853,.T.);
#1048 = ORIENTED_EDGE('',*,*,#876,.T.);
#1049 = ORIENTED_EDGE('',*,*,#908,.F.);
#1050 = ORIENTED_EDGE('',*,*,#949,.F.);
#1051 = PLANE('',#1052);
#1052 = AXIS2_PLACEMENT_3D('',#1053,#1054,#1055);
#1053 = CARTESIAN_POINT('',(-20.,-12.,0.));
#1054 = DIRECTION('',(0.,0.,1.));
#1055 = DIRECTION('',(1.,0.,0.));
#1056 = ADVANCED_FACE('',(#1057),#1091,.T.);
#1057 = FACE_BOUND('',#1058,.T.);
#1058 = EDGE_LOOP('',(#1059,#1060,#1061,#1069,#1077,#1085));
#1059 = ORIENTED_EDGE('',*,*,#658,.F.);
#1060 = ORIENTED_EDGE('',*,*,#723,.T.);
#1061 = ORIENTED_EDGE('',*,*,#1062,.F.);
#1062 = EDGE_CURVE('',#1063,#716,#1065,.T.);
#1063 = VERTEX_POINT('',#1064);
#1064 = CARTESIAN_POINT('',(12.4,-11.5,0.));
#1065 = LINE('',#1066,#1067);
#1066 = CARTESIAN_POINT('',(12.4,-11.5,-2.));
#1067 = VECTOR('',#1068,1.);
#1068 = DIRECTION('',(0.,0.,-1.));
#1069 = ORIENTED_EDGE('',*,*,#1070,.F.);
#1070 = EDGE_CURVE('',#1071,#1063,#1073,.T.);
#1071 = VERTEX_POINT('',#1072);
#1072 = CARTESIAN_POINT('',(12.4,-12.,0.));
#1073 = LINE('',#1074,#1075);
#1074 = CARTESIAN_POINT('',(12.4,-12.05,0.));
#1075 = VECTOR('',#1076,1.);
#1076 = DIRECTION('',(0.,1.,0.));
#1077 = ORIENTED_EDGE('',*,*,#1078,.F.);
#1078 = EDGE_CURVE('',#1079,#1071,#1081,.T.);
#1079 = VERTEX_POINT('',#1080);
#1080 = CARTESIAN_POINT('',(12.4,-12.,1.));
#1081 = LINE('',#1082,#1083);
#1082 = CARTESIAN_POINT('',(12.4,-12.,-0.25));
#1083 = VECTOR('',#1084,1.);
#1084 = DIRECTION('',(0.,0.,-1.));
#1085 = ORIENTED_EDGE('',*,*,#1086,.F.);
#1086 = EDGE_CURVE('',#661,#1079,#1087,.T.);
#1087 = LINE('',#1088,#1089);
#1088 = CARTESIAN_POINT('',(12.4,-12.1,1.));
#1089 = VECTOR('',#1090,1.);
#1090 = DIRECTION('',(0.,1.,0.));
#1091 = PLANE('',#1092);
#1092 = AXIS2_PLACEMENT_3D('',#1093,#1094,#1095);
#1093 = CARTESIAN_POINT('',(12.4,-12.1,-0.5));
#1094 = DIRECTION('',(1.,0.,0.));
#1095 = DIRECTION('',(0.,0.,1.));
#1096 = ADVANCED_FACE('',(#1097),#1133,.F.);
#1097 = FACE_BOUND('',#1098,.F.);
#1098 = EDGE_LOOP('',(#1099,#1109,#1118,#1126));
#1099 = ORIENTED_EDGE('',*,*,#1100,.F.);
#1100 = EDGE_CURVE('',#1101,#1103,#1105,.T.);
#1101 = VERTEX_POINT('',#1102);
#1102 = CARTESIAN_POINT('',(-20.,-9.,0.));
#1103 = VERTEX_POINT('',#1104);
#1104 = CARTESIAN_POINT('',(-20.,-9.,1.));
#1105 = LINE('',#1106,#1107);
#1106 = CARTESIAN_POINT('',(-20.,-9.,0.));
#1107 = VECTOR('',#1108,1.);
#1108 = DIRECTION('',(0.,0.,1.));
#1109 = ORIENTED_EDGE('',*,*,#1110,.T.);
#1110 = EDGE_CURVE('',#1101,#1111,#1113,.T.);
#1111 = VERTEX_POINT('',#1112);
#1112 = CARTESIAN_POINT('',(-17.,-12.,0.));
#1113 = CIRCLE('',#1114,3.);
#1114 = AXIS2_PLACEMENT_3D('',#1115,#1116,#1117);
#1115 = CARTESIAN_POINT('',(-17.,-9.,0.));
#1116 = DIRECTION('',(-0.,0.,1.));
#1117 = DIRECTION('',(0.,-1.,0.));
#1118 = ORIENTED_EDGE('',*,*,#1119,.T.);
#1119 = EDGE_CURVE('',#1111,#1120,#1122,.T.);
#1120 = VERTEX_POINT('',#1121);
#1121 = CARTESIAN_POINT('',(-17.,-12.,1.));
#1122 = LINE('',#1123,#1124);
#1123 = CARTESIAN_POINT('',(-17.,-12.,0.));
#1124 = VECTOR('',#1125,1.);
#1125 = DIRECTION('',(0.,0.,1.));
#1126 = ORIENTED_EDGE('',*,*,#1127,.F.);
#1127 = EDGE_CURVE('',#1103,#1120,#1128,.T.);
#1128 = CIRCLE('',#1129,3.);
#1129 = AXIS2_PLACEMENT_3D('',#1130,#1131,#1132);
#1130 = CARTESIAN_POINT('',(-17.,-9.,1.));
#1131 = DIRECTION('',(0.,0.,1.));
#1132 = DIRECTION('',(-1.,0.,0.));
#1133 = CYLINDRICAL_SURFACE('',#1134,3.);
#1134 = AXIS2_PLACEMENT_3D('',#1135,#1136,#1137);
#1135 = CARTESIAN_POINT('',(-17.,-9.,0.));
#1136 = DIRECTION('',(0.,0.,1.));
#1137 = DIRECTION('',(-1.,0.,0.));
#1138 = ADVANCED_FACE('',(#1139),#1155,.T.);
#1139 = FACE_BOUND('',#1140,.T.);
#1140 = EDGE_LOOP('',(#1141,#1147,#1148,#1154));
#1141 = ORIENTED_EDGE('',*,*,#1142,.F.);
#1142 = EDGE_CURVE('',#1111,#1071,#1143,.T.);
#1143 = LINE('',#1144,#1145);
#1144 = CARTESIAN_POINT('',(-20.,-12.,0.));
#1145 = VECTOR('',#1146,1.);
#1146 = DIRECTION('',(1.,0.,0.));
#1147 = ORIENTED_EDGE('',*,*,#1119,.T.);
#1148 = ORIENTED_EDGE('',*,*,#1149,.F.);
#1149 = EDGE_CURVE('',#1079,#1120,#1150,.T.);
#1150 = LINE('',#1151,#1152);
#1151 = CARTESIAN_POINT('',(-20.5,-12.,1.));
#1152 = VECTOR('',#1153,1.);
#1153 = DIRECTION('',(-1.,0.,0.));
#1154 = ORIENTED_EDGE('',*,*,#1078,.T.);
#1155 = PLANE('',#1156);
#1156 = AXIS2_PLACEMENT_3D('',#1157,#1158,#1159);
#1157 = CARTESIAN_POINT('',(-20.,-12.,0.));
#1158 = DIRECTION('',(0.,1.,0.));
#1159 = DIRECTION('',(0.,0.,1.));
#1160 = ADVANCED_FACE('',(#1161),#1205,.T.);
#1161 = FACE_BOUND('',#1162,.T.);
#1162 = EDGE_LOOP('',(#1163,#1171,#1172,#1173,#1174,#1182,#1191,#1199));
#1163 = ORIENTED_EDGE('',*,*,#1164,.F.);
#1164 = EDGE_CURVE('',#1101,#1165,#1167,.T.);
#1165 = VERTEX_POINT('',#1166);
#1166 = CARTESIAN_POINT('',(-20.,-4.5,0.));
#1167 = LINE('',#1168,#1169);
#1168 = CARTESIAN_POINT('',(-20.,-12.,0.));
#1169 = VECTOR('',#1170,1.);
#1170 = DIRECTION('',(0.,1.,0.));
#1171 = ORIENTED_EDGE('',*,*,#1110,.T.);
#1172 = ORIENTED_EDGE('',*,*,#1142,.T.);
#1173 = ORIENTED_EDGE('',*,*,#1070,.T.);
#1174 = ORIENTED_EDGE('',*,*,#1175,.F.);
#1175 = EDGE_CURVE('',#1176,#1063,#1178,.T.);
#1176 = VERTEX_POINT('',#1177);
#1177 = CARTESIAN_POINT('',(-16.5,-11.5,0.));
#1178 = LINE('',#1179,#1180);
#1179 = CARTESIAN_POINT('',(-19.75,-11.5,0.));
#1180 = VECTOR('',#1181,1.);
#1181 = DIRECTION('',(1.,0.,0.));
#1182 = ORIENTED_EDGE('',*,*,#1183,.F.);
#1183 = EDGE_CURVE('',#1184,#1176,#1186,.T.);
#1184 = VERTEX_POINT('',#1185);
#1185 = CARTESIAN_POINT('',(-19.5,-8.5,0.));
#1186 = CIRCLE('',#1187,3.);
#1187 = AXIS2_PLACEMENT_3D('',#1188,#1189,#1190);
#1188 = CARTESIAN_POINT('',(-16.5,-8.5,0.));
#1189 = DIRECTION('',(0.,0.,1.));
#1190 = DIRECTION('',(-1.,0.,0.));
#1191 = ORIENTED_EDGE('',*,*,#1192,.F.);
#1192 = EDGE_CURVE('',#1193,#1184,#1195,.T.);
#1193 = VERTEX_POINT('',#1194);
#1194 = CARTESIAN_POINT('',(-19.5,-4.5,0.));
#1195 = LINE('',#1196,#1197);
#1196 = CARTESIAN_POINT('',(-19.5,-11.75,0.));
#1197 = VECTOR('',#1198,1.);
#1198 = DIRECTION('',(0.,-1.,0.));
#1199 = ORIENTED_EDGE('',*,*,#1200,.T.);
#1200 = EDGE_CURVE('',#1193,#1165,#1201,.T.);
#1201 = LINE('',#1202,#1203);
#1202 = CARTESIAN_POINT('',(-12.,-4.5,0.));
#1203 = VECTOR('',#1204,1.);
#1204 = DIRECTION('',(-1.,1.224646799147E-16,0.));
#1205 = PLANE('',#1206);
#1206 = AXIS2_PLACEMENT_3D('',#1207,#1208,#1209);
#1207 = CARTESIAN_POINT('',(-20.,-12.,0.));
#1208 = DIRECTION('',(0.,0.,1.));
#1209 = DIRECTION('',(1.,0.,0.));
#1210 = ADVANCED_FACE('',(#1211),#1236,.T.);
#1211 = FACE_BOUND('',#1212,.T.);
#1212 = EDGE_LOOP('',(#1213,#1223,#1229,#1230));
#1213 = ORIENTED_EDGE('',*,*,#1214,.F.);
#1214 = EDGE_CURVE('',#1215,#1217,#1219,.T.);
#1215 = VERTEX_POINT('',#1216);
#1216 = CARTESIAN_POINT('',(-19.5,4.5,-3.5));
#1217 = VERTEX_POINT('',#1218);
#1218 = CARTESIAN_POINT('',(-20.,4.5,-3.5));
#1219 = LINE('',#1220,#1221);
#1220 = CARTESIAN_POINT('',(-12.,4.5,-3.5));
#1221 = VECTOR('',#1222,1.);
#1222 = DIRECTION('',(-1.,1.224646799147E-16,0.));
#1223 = ORIENTED_EDGE('',*,*,#1224,.F.);
#1224 = EDGE_CURVE('',#981,#1215,#1225,.T.);
#1225 = LINE('',#1226,#1227);
#1226 = CARTESIAN_POINT('',(-19.5,4.5,-3.5));
#1227 = VECTOR('',#1228,1.);
#1228 = DIRECTION('',(0.,-0.,-1.));
#1229 = ORIENTED_EDGE('',*,*,#980,.T.);
#1230 = ORIENTED_EDGE('',*,*,#1231,.F.);
#1231 = EDGE_CURVE('',#1217,#973,#1232,.T.);
#1232 = LINE('',#1233,#1234);
#1233 = CARTESIAN_POINT('',(-20.,4.5,-3.5));
#1234 = VECTOR('',#1235,1.);
#1235 = DIRECTION('',(0.,0.,1.));
#1236 = PLANE('',#1237);
#1237 = AXIS2_PLACEMENT_3D('',#1238,#1239,#1240);
#1238 = CARTESIAN_POINT('',(-12.,4.5,-3.5));
#1239 = DIRECTION('',(-1.224646799147E-16,-1.,0.));
#1240 = DIRECTION('',(0.,0.,1.));
#1241 = ADVANCED_FACE('',(#1242),#1267,.F.);
#1242 = FACE_BOUND('',#1243,.F.);
#1243 = EDGE_LOOP('',(#1244,#1254,#1260,#1261));
#1244 = ORIENTED_EDGE('',*,*,#1245,.F.);
#1245 = EDGE_CURVE('',#1246,#1248,#1250,.T.);
#1246 = VERTEX_POINT('',#1247);
#1247 = CARTESIAN_POINT('',(-19.5,-4.5,-3.5));
#1248 = VERTEX_POINT('',#1249);
#1249 = CARTESIAN_POINT('',(-20.,-4.5,-3.5));
#1250 = LINE('',#1251,#1252);
#1251 = CARTESIAN_POINT('',(-12.,-4.5,-3.5));
#1252 = VECTOR('',#1253,1.);
#1253 = DIRECTION('',(-1.,1.224646799147E-16,0.));
#1254 = ORIENTED_EDGE('',*,*,#1255,.F.);
#1255 = EDGE_CURVE('',#1193,#1246,#1256,.T.);
#1256 = LINE('',#1257,#1258);
#1257 = CARTESIAN_POINT('',(-19.5,-4.5,-3.5));
#1258 = VECTOR('',#1259,1.);
#1259 = DIRECTION('',(0.,-0.,-1.));
#1260 = ORIENTED_EDGE('',*,*,#1200,.T.);
#1261 = ORIENTED_EDGE('',*,*,#1262,.F.);
#1262 = EDGE_CURVE('',#1248,#1165,#1263,.T.);
#1263 = LINE('',#1264,#1265);
#1264 = CARTESIAN_POINT('',(-20.,-4.5,-3.5));
#1265 = VECTOR('',#1266,1.);
#1266 = DIRECTION('',(0.,0.,1.));
#1267 = PLANE('',#1268);
#1268 = AXIS2_PLACEMENT_3D('',#1269,#1270,#1271);
#1269 = CARTESIAN_POINT('',(-12.,-4.5,-3.5));
#1270 = DIRECTION('',(-1.224646799147E-16,-1.,0.));
#1271 = DIRECTION('',(0.,0.,1.));
#1272 = ADVANCED_FACE('',(#1273),#1302,.T.);
#1273 = FACE_BOUND('',#1274,.T.);
#1274 = EDGE_LOOP('',(#1275,#1285,#1291,#1292,#1293,#1294,#1295,#1296));
#1275 = ORIENTED_EDGE('',*,*,#1276,.F.);
#1276 = EDGE_CURVE('',#1277,#1279,#1281,.T.);
#1277 = VERTEX_POINT('',#1278);
#1278 = CARTESIAN_POINT('',(-16.5,-11.5,-3.5));
#1279 = VERTEX_POINT('',#1280);
#1280 = CARTESIAN_POINT('',(16.5,-11.5,-3.5));
#1281 = LINE('',#1282,#1283);
#1282 = CARTESIAN_POINT('',(-19.5,-11.5,-3.5));
#1283 = VECTOR('',#1284,1.);
#1284 = DIRECTION('',(1.,0.,0.));
#1285 = ORIENTED_EDGE('',*,*,#1286,.T.);
#1286 = EDGE_CURVE('',#1277,#1176,#1287,.T.);
#1287 = LINE('',#1288,#1289);
#1288 = CARTESIAN_POINT('',(-16.5,-11.5,-3.5));
#1289 = VECTOR('',#1290,1.);
#1290 = DIRECTION('',(0.,0.,1.));
#1291 = ORIENTED_EDGE('',*,*,#1175,.T.);
#1292 = ORIENTED_EDGE('',*,*,#1062,.T.);
#1293 = ORIENTED_EDGE('',*,*,#715,.T.);
#1294 = ORIENTED_EDGE('',*,*,#742,.F.);
#1295 = ORIENTED_EDGE('',*,*,#1039,.T.);
#1296 = ORIENTED_EDGE('',*,*,#1297,.F.);
#1297 = EDGE_CURVE('',#1279,#1031,#1298,.T.);
#1298 = LINE('',#1299,#1300);
#1299 = CARTESIAN_POINT('',(16.5,-11.5,-3.5));
#1300 = VECTOR('',#1301,1.);
#1301 = DIRECTION('',(0.,0.,1.));
#1302 = PLANE('',#1303);
#1303 = AXIS2_PLACEMENT_3D('',#1304,#1305,#1306);
#1304 = CARTESIAN_POINT('',(-19.5,-11.5,-3.5));
#1305 = DIRECTION('',(0.,1.,0.));
#1306 = DIRECTION('',(0.,0.,1.));
#1307 = ADVANCED_FACE('',(#1308),#1327,.F.);
#1308 = FACE_BOUND('',#1309,.T.);
#1309 = EDGE_LOOP('',(#1310,#1318,#1325,#1326));
#1310 = ORIENTED_EDGE('',*,*,#1311,.F.);
#1311 = EDGE_CURVE('',#1312,#1023,#1314,.T.);
#1312 = VERTEX_POINT('',#1313);
#1313 = CARTESIAN_POINT('',(19.5,-8.5,-3.5));
#1314 = LINE('',#1315,#1316);
#1315 = CARTESIAN_POINT('',(19.5,-8.5,-3.5));
#1316 = VECTOR('',#1317,1.);
#1317 = DIRECTION('',(0.,0.,1.));
#1318 = ORIENTED_EDGE('',*,*,#1319,.T.);
#1319 = EDGE_CURVE('',#1312,#1279,#1320,.T.);
#1320 = CIRCLE('',#1321,3.);
#1321 = AXIS2_PLACEMENT_3D('',#1322,#1323,#1324);
#1322 = CARTESIAN_POINT('',(16.5,-8.5,-3.5));
#1323 = DIRECTION('',(-0.,-0.,-1.));
#1324 = DIRECTION('',(0.,-1.,0.));
#1325 = ORIENTED_EDGE('',*,*,#1297,.T.);
#1326 = ORIENTED_EDGE('',*,*,#1030,.T.);
#1327 = CYLINDRICAL_SURFACE('',#1328,3.);
#1328 = AXIS2_PLACEMENT_3D('',#1329,#1330,#1331);
#1329 = CARTESIAN_POINT('',(16.5,-8.5,-3.5));
#1330 = DIRECTION('',(0.,0.,1.));
#1331 = DIRECTION('',(1.,0.,0.));
#1332 = ADVANCED_FACE('',(#1333),#1351,.F.);
#1333 = FACE_BOUND('',#1334,.F.);
#1334 = EDGE_LOOP('',(#1335,#1336,#1337,#1345));
#1335 = ORIENTED_EDGE('',*,*,#1022,.T.);
#1336 = ORIENTED_EDGE('',*,*,#1311,.F.);
#1337 = ORIENTED_EDGE('',*,*,#1338,.T.);
#1338 = EDGE_CURVE('',#1312,#1339,#1341,.T.);
#1339 = VERTEX_POINT('',#1340);
#1340 = CARTESIAN_POINT('',(19.5,8.5,-3.5));
#1341 = LINE('',#1342,#1343);
#1342 = CARTESIAN_POINT('',(19.5,-11.5,-3.5));
#1343 = VECTOR('',#1344,1.);
#1344 = DIRECTION('',(0.,1.,0.));
#1345 = ORIENTED_EDGE('',*,*,#1346,.T.);
#1346 = EDGE_CURVE('',#1339,#1014,#1347,.T.);
#1347 = LINE('',#1348,#1349);
#1348 = CARTESIAN_POINT('',(19.5,8.5,-3.5));
#1349 = VECTOR('',#1350,1.);
#1350 = DIRECTION('',(0.,0.,1.));
#1351 = PLANE('',#1352);
#1352 = AXIS2_PLACEMENT_3D('',#1353,#1354,#1355);
#1353 = CARTESIAN_POINT('',(19.5,-11.5,-3.5));
#1354 = DIRECTION('',(1.,0.,0.));
#1355 = DIRECTION('',(0.,0.,1.));
#1356 = ADVANCED_FACE('',(#1357),#1376,.F.);
#1357 = FACE_BOUND('',#1358,.F.);
#1358 = EDGE_LOOP('',(#1359,#1360,#1369,#1375));
#1359 = ORIENTED_EDGE('',*,*,#1346,.F.);
#1360 = ORIENTED_EDGE('',*,*,#1361,.T.);
#1361 = EDGE_CURVE('',#1339,#1362,#1364,.T.);
#1362 = VERTEX_POINT('',#1363);
#1363 = CARTESIAN_POINT('',(16.5,11.5,-3.5));
#1364 = CIRCLE('',#1365,3.);
#1365 = AXIS2_PLACEMENT_3D('',#1366,#1367,#1368);
#1366 = CARTESIAN_POINT('',(16.5,8.5,-3.5));
#1367 = DIRECTION('',(-0.,0.,1.));
#1368 = DIRECTION('',(0.,-1.,0.));
#1369 = ORIENTED_EDGE('',*,*,#1370,.T.);
#1370 = EDGE_CURVE('',#1362,#1006,#1371,.T.);
#1371 = LINE('',#1372,#1373);
#1372 = CARTESIAN_POINT('',(16.5,11.5,-3.5));
#1373 = VECTOR('',#1374,1.);
#1374 = DIRECTION('',(0.,0.,1.));
#1375 = ORIENTED_EDGE('',*,*,#1013,.F.);
#1376 = CYLINDRICAL_SURFACE('',#1377,3.);
#1377 = AXIS2_PLACEMENT_3D('',#1378,#1379,#1380);
#1378 = CARTESIAN_POINT('',(16.5,8.5,-3.5));
#1379 = DIRECTION('',(0.,0.,1.));
#1380 = DIRECTION('',(1.,0.,0.));
#1381 = ADVANCED_FACE('',(#1382),#1400,.F.);
#1382 = FACE_BOUND('',#1383,.F.);
#1383 = EDGE_LOOP('',(#1384,#1392,#1398,#1399));
#1384 = ORIENTED_EDGE('',*,*,#1385,.F.);
#1385 = EDGE_CURVE('',#1386,#1362,#1388,.T.);
#1386 = VERTEX_POINT('',#1387);
#1387 = CARTESIAN_POINT('',(-16.5,11.5,-3.5));
#1388 = LINE('',#1389,#1390);
#1389 = CARTESIAN_POINT('',(-19.5,11.5,-3.5));
#1390 = VECTOR('',#1391,1.);
#1391 = DIRECTION('',(1.,0.,0.));
#1392 = ORIENTED_EDGE('',*,*,#1393,.T.);
#1393 = EDGE_CURVE('',#1386,#997,#1394,.T.);
#1394 = LINE('',#1395,#1396);
#1395 = CARTESIAN_POINT('',(-16.5,11.5,-3.5));
#1396 = VECTOR('',#1397,1.);
#1397 = DIRECTION('',(0.,0.,1.));
#1398 = ORIENTED_EDGE('',*,*,#1005,.T.);
#1399 = ORIENTED_EDGE('',*,*,#1370,.F.);
#1400 = PLANE('',#1401);
#1401 = AXIS2_PLACEMENT_3D('',#1402,#1403,#1404);
#1402 = CARTESIAN_POINT('',(-19.5,11.5,-3.5));
#1403 = DIRECTION('',(0.,1.,0.));
#1404 = DIRECTION('',(0.,0.,1.));
#1405 = ADVANCED_FACE('',(#1406),#1425,.F.);
#1406 = FACE_BOUND('',#1407,.T.);
#1407 = EDGE_LOOP('',(#1408,#1416,#1423,#1424));
#1408 = ORIENTED_EDGE('',*,*,#1409,.F.);
#1409 = EDGE_CURVE('',#1410,#989,#1412,.T.);
#1410 = VERTEX_POINT('',#1411);
#1411 = CARTESIAN_POINT('',(-19.5,8.5,-3.5));
#1412 = LINE('',#1413,#1414);
#1413 = CARTESIAN_POINT('',(-19.5,8.5,-3.5));
#1414 = VECTOR('',#1415,1.);
#1415 = DIRECTION('',(0.,0.,1.));
#1416 = ORIENTED_EDGE('',*,*,#1417,.T.);
#1417 = EDGE_CURVE('',#1410,#1386,#1418,.T.);
#1418 = CIRCLE('',#1419,3.);
#1419 = AXIS2_PLACEMENT_3D('',#1420,#1421,#1422);
#1420 = CARTESIAN_POINT('',(-16.5,8.5,-3.5));
#1421 = DIRECTION('',(-0.,-0.,-1.));
#1422 = DIRECTION('',(0.,-1.,0.));
#1423 = ORIENTED_EDGE('',*,*,#1393,.T.);
#1424 = ORIENTED_EDGE('',*,*,#996,.T.);
#1425 = CYLINDRICAL_SURFACE('',#1426,3.);
#1426 = AXIS2_PLACEMENT_3D('',#1427,#1428,#1429);
#1427 = CARTESIAN_POINT('',(-16.5,8.5,-3.5));
#1428 = DIRECTION('',(0.,0.,1.));
#1429 = DIRECTION('',(-1.,0.,0.));
#1430 = ADVANCED_FACE('',(#1431),#1442,.T.);
#1431 = FACE_BOUND('',#1432,.T.);
#1432 = EDGE_LOOP('',(#1433,#1434,#1435,#1436));
#1433 = ORIENTED_EDGE('',*,*,#1409,.T.);
#1434 = ORIENTED_EDGE('',*,*,#988,.T.);
#1435 = ORIENTED_EDGE('',*,*,#1224,.T.);
#1436 = ORIENTED_EDGE('',*,*,#1437,.T.);
#1437 = EDGE_CURVE('',#1215,#1410,#1438,.T.);
#1438 = LINE('',#1439,#1440);
#1439 = CARTESIAN_POINT('',(-19.5,-11.5,-3.5));
#1440 = VECTOR('',#1441,1.);
#1441 = DIRECTION('',(0.,1.,0.));
#1442 = PLANE('',#1443);
#1443 = AXIS2_PLACEMENT_3D('',#1444,#1445,#1446);
#1444 = CARTESIAN_POINT('',(-19.5,-11.5,-3.5));
#1445 = DIRECTION('',(1.,0.,0.));
#1446 = DIRECTION('',(0.,0.,1.));
#1447 = ADVANCED_FACE('',(#1448),#1466,.T.);
#1448 = FACE_BOUND('',#1449,.T.);
#1449 = EDGE_LOOP('',(#1450,#1451,#1452,#1460));
#1450 = ORIENTED_EDGE('',*,*,#1255,.F.);
#1451 = ORIENTED_EDGE('',*,*,#1192,.T.);
#1452 = ORIENTED_EDGE('',*,*,#1453,.F.);
#1453 = EDGE_CURVE('',#1454,#1184,#1456,.T.);
#1454 = VERTEX_POINT('',#1455);
#1455 = CARTESIAN_POINT('',(-19.5,-8.5,-3.5));
#1456 = LINE('',#1457,#1458);
#1457 = CARTESIAN_POINT('',(-19.5,-8.5,-3.5));
#1458 = VECTOR('',#1459,1.);
#1459 = DIRECTION('',(0.,0.,1.));
#1460 = ORIENTED_EDGE('',*,*,#1461,.T.);
#1461 = EDGE_CURVE('',#1454,#1246,#1462,.T.);
#1462 = LINE('',#1463,#1464);
#1463 = CARTESIAN_POINT('',(-19.5,-11.5,-3.5));
#1464 = VECTOR('',#1465,1.);
#1465 = DIRECTION('',(0.,1.,0.));
#1466 = PLANE('',#1467);
#1467 = AXIS2_PLACEMENT_3D('',#1468,#1469,#1470);
#1468 = CARTESIAN_POINT('',(-19.5,-11.5,-3.5));
#1469 = DIRECTION('',(1.,0.,0.));
#1470 = DIRECTION('',(0.,0.,1.));
#1471 = ADVANCED_FACE('',(#1472),#1484,.F.);
#1472 = FACE_BOUND('',#1473,.F.);
#1473 = EDGE_LOOP('',(#1474,#1475,#1482,#1483));
#1474 = ORIENTED_EDGE('',*,*,#1453,.F.);
#1475 = ORIENTED_EDGE('',*,*,#1476,.T.);
#1476 = EDGE_CURVE('',#1454,#1277,#1477,.T.);
#1477 = CIRCLE('',#1478,3.);
#1478 = AXIS2_PLACEMENT_3D('',#1479,#1480,#1481);
#1479 = CARTESIAN_POINT('',(-16.5,-8.5,-3.5));
#1480 = DIRECTION('',(-0.,0.,1.));
#1481 = DIRECTION('',(0.,-1.,0.));
#1482 = ORIENTED_EDGE('',*,*,#1286,.T.);
#1483 = ORIENTED_EDGE('',*,*,#1183,.F.);
#1484 = CYLINDRICAL_SURFACE('',#1485,3.);
#1485 = AXIS2_PLACEMENT_3D('',#1486,#1487,#1488);
#1486 = CARTESIAN_POINT('',(-16.5,-8.5,-3.5));
#1487 = DIRECTION('',(0.,0.,1.));
#1488 = DIRECTION('',(-1.,0.,0.));
#1489 = ADVANCED_FACE('',(#1490),#1520,.T.);
#1490 = FACE_BOUND('',#1491,.T.);
#1491 = EDGE_LOOP('',(#1492,#1493,#1494,#1495,#1496,#1497,#1498,#1499,
    #1500,#1506,#1507,#1508,#1509,#1510,#1511,#1512,#1513,#1514,#1515,
    #1516,#1517,#1518,#1519));
#1492 = ORIENTED_EDGE('',*,*,#21,.F.);
#1493 = ORIENTED_EDGE('',*,*,#146,.T.);
#1494 = ORIENTED_EDGE('',*,*,#691,.T.);
#1495 = ORIENTED_EDGE('',*,*,#566,.F.);
#1496 = ORIENTED_EDGE('',*,*,#675,.F.);
#1497 = ORIENTED_EDGE('',*,*,#1086,.T.);
#1498 = ORIENTED_EDGE('',*,*,#1149,.T.);
#1499 = ORIENTED_EDGE('',*,*,#1127,.F.);
#1500 = ORIENTED_EDGE('',*,*,#1501,.T.);
#1501 = EDGE_CURVE('',#1103,#942,#1502,.T.);
#1502 = LINE('',#1503,#1504);
#1503 = CARTESIAN_POINT('',(-20.,-12.5,1.));
#1504 = VECTOR('',#1505,1.);
#1505 = DIRECTION('',(0.,1.,0.));
#1506 = ORIENTED_EDGE('',*,*,#957,.F.);
#1507 = ORIENTED_EDGE('',*,*,#924,.F.);
#1508 = ORIENTED_EDGE('',*,*,#893,.F.);
#1509 = ORIENTED_EDGE('',*,*,#844,.F.);
#1510 = ORIENTED_EDGE('',*,*,#829,.F.);
#1511 = ORIENTED_EDGE('',*,*,#789,.T.);
#1512 = ORIENTED_EDGE('',*,*,#766,.F.);
#1513 = ORIENTED_EDGE('',*,*,#644,.F.);
#1514 = ORIENTED_EDGE('',*,*,#604,.F.);
#1515 = ORIENTED_EDGE('',*,*,#551,.F.);
#1516 = ORIENTED_EDGE('',*,*,#507,.T.);
#1517 = ORIENTED_EDGE('',*,*,#484,.T.);
#1518 = ORIENTED_EDGE('',*,*,#460,.F.);
#1519 = ORIENTED_EDGE('',*,*,#179,.F.);
#1520 = PLANE('',#1521);
#1521 = AXIS2_PLACEMENT_3D('',#1522,#1523,#1524);
#1522 = CARTESIAN_POINT('',(-0.355242261744,0.31688545094,1.));
#1523 = DIRECTION('',(0.,0.,1.));
#1524 = DIRECTION('',(1.,0.,-0.));
#1525 = ADVANCED_FACE('',(#1526,#1541),#1553,.T.);
#1526 = FACE_BOUND('',#1527,.T.);
#1527 = EDGE_LOOP('',(#1528,#1529,#1530,#1531,#1532,#1538,#1539,#1540));
#1528 = ORIENTED_EDGE('',*,*,#1501,.F.);
#1529 = ORIENTED_EDGE('',*,*,#1100,.F.);
#1530 = ORIENTED_EDGE('',*,*,#1164,.T.);
#1531 = ORIENTED_EDGE('',*,*,#1262,.F.);
#1532 = ORIENTED_EDGE('',*,*,#1533,.F.);
#1533 = EDGE_CURVE('',#1217,#1248,#1534,.T.);
#1534 = LINE('',#1535,#1536);
#1535 = CARTESIAN_POINT('',(-20.,4.5,-3.5));
#1536 = VECTOR('',#1537,1.);
#1537 = DIRECTION('',(-1.224646799147E-16,-1.,0.));
#1538 = ORIENTED_EDGE('',*,*,#1231,.T.);
#1539 = ORIENTED_EDGE('',*,*,#972,.T.);
#1540 = ORIENTED_EDGE('',*,*,#939,.T.);
#1541 = FACE_BOUND('',#1542,.T.);
#1542 = EDGE_LOOP('',(#1543,#1544,#1545,#1546,#1547,#1548,#1549,#1550,
    #1551,#1552));
#1543 = ORIENTED_EDGE('',*,*,#443,.T.);
#1544 = ORIENTED_EDGE('',*,*,#418,.F.);
#1545 = ORIENTED_EDGE('',*,*,#409,.F.);
#1546 = ORIENTED_EDGE('',*,*,#384,.T.);
#1547 = ORIENTED_EDGE('',*,*,#360,.T.);
#1548 = ORIENTED_EDGE('',*,*,#343,.F.);
#1549 = ORIENTED_EDGE('',*,*,#312,.F.);
#1550 = ORIENTED_EDGE('',*,*,#303,.F.);
#1551 = ORIENTED_EDGE('',*,*,#286,.F.);
#1552 = ORIENTED_EDGE('',*,*,#254,.F.);
#1553 = PLANE('',#1554);
#1554 = AXIS2_PLACEMENT_3D('',#1555,#1556,#1557);
#1555 = CARTESIAN_POINT('',(-20.,1.578983857245E-16,-0.55));
#1556 = DIRECTION('',(1.,0.,0.));
#1557 = DIRECTION('',(-0.,0.,1.));
#1558 = ADVANCED_FACE('',(#1559),#1573,.T.);
#1559 = FACE_BOUND('',#1560,.T.);
#1560 = EDGE_LOOP('',(#1561,#1562,#1563,#1564,#1565,#1566,#1567,#1568,
    #1569,#1570,#1571,#1572));
#1561 = ORIENTED_EDGE('',*,*,#1245,.F.);
#1562 = ORIENTED_EDGE('',*,*,#1461,.F.);
#1563 = ORIENTED_EDGE('',*,*,#1476,.T.);
#1564 = ORIENTED_EDGE('',*,*,#1276,.T.);
#1565 = ORIENTED_EDGE('',*,*,#1319,.F.);
#1566 = ORIENTED_EDGE('',*,*,#1338,.T.);
#1567 = ORIENTED_EDGE('',*,*,#1361,.T.);
#1568 = ORIENTED_EDGE('',*,*,#1385,.F.);
#1569 = ORIENTED_EDGE('',*,*,#1417,.F.);
#1570 = ORIENTED_EDGE('',*,*,#1437,.F.);
#1571 = ORIENTED_EDGE('',*,*,#1214,.T.);
#1572 = ORIENTED_EDGE('',*,*,#1533,.T.);
#1573 = PLANE('',#1574);
#1574 = AXIS2_PLACEMENT_3D('',#1575,#1576,#1577);
#1575 = CARTESIAN_POINT('',(-0.202699927514,2.969628062562E-17,-3.5));
#1576 = DIRECTION('',(0.,0.,1.));
#1577 = DIRECTION('',(1.,0.,-0.));
#1578 = ( GEOMETRIC_REPRESENTATION_CONTEXT(3) 
GLOBAL_UNCERTAINTY_ASSIGNED_CONTEXT((#1582)) 
GLOBAL_UNIT_ASSIGNED_CONTEXT((#1579,#1580,#1581)) REPRESENTATION_CONTEXT
('Context #1','3D Context with UNIT and UNCERTAINTY') );
#1579 = ( LENGTH_UNIT() NAMED_UNIT(*) SI_UNIT(.MILLI.,.METRE.) );
#1580 = ( NAMED_UNIT(*) PLANE_ANGLE_UNIT() SI_UNIT($,.RADIAN.) );
#1581 = ( NAMED_UNIT(*) SI_UNIT($,.STERADIAN.) SOLID_ANGLE_UNIT() );
#1582 = UNCERTAINTY_MEASURE_WITH_UNIT(LENGTH_MEASURE(2.E-05),#1579,
  'distance_accuracy_value','confusion accuracy');
#1583 = PRODUCT_RELATED_PRODUCT_CATEGORY('part',$,(#7));
#1584 = MECHANICAL_DESIGN_GEOMETRIC_PRESENTATION_REPRESENTATION('',(
    #1585),#1578);
#1585 = STYLED_ITEM('color',(#1586),#15);
#1586 = PRESENTATION_STYLE_ASSIGNMENT((#1587,#1595));
#1587 = SURFACE_STYLE_USAGE(.BOTH.,#1588);
#1588 = SURFACE_SIDE_STYLE('',(#1589,#1593));
#1589 = SURFACE_STYLE_FILL_AREA(#1590);
#1590 = FILL_AREA_STYLE('',(#1591));
#1591 = FILL_AREA_STYLE_COLOUR('',#1592);
#1592 = COLOUR_RGB('',0.447058818107,0.474509808674,0.501960817233);
#1593 = SURFACE_STYLE_RENDERING_WITH_PROPERTIES(.NORMAL_SHADING.,#1592,(
    #1594));
#1594 = SURFACE_STYLE_TRANSPARENT(0.399999976158);
#1595 = CURVE_STYLE('',#1596,POSITIVE_LENGTH_MEASURE(0.1),#1597);
#1596 = DRAUGHTING_PRE_DEFINED_CURVE_FONT('continuous');
#1597 = COLOUR_RGB('',9.803921802644E-02,9.803921802644E-02,
  9.803921802644E-02);
ENDSEC;
END-ISO-10303-21;
