ISO-10303-21;
HEADER;
FILE_DESCRIPTION(('FreeCAD Model'),'2;1');
FILE_NAME('Open CASCADE Shape Model','2026-10-07T02:51:50',(''),(''),
  'Open CASCADE STEP processor 7.8','FreeCAD','Unknown');
FILE_SCHEMA((
'AP242_MANAGED_MODEL_BASED_3D_ENGINEERING_MIM_LF. {1 0 10303 442 1 1 4 
}'));
ENDSEC;
DATA;
#1 = APPLICATION_PROTOCOL_DEFINITION('international standard',
  'ap242_managed_model_based_3d_engineering',2013,#2);
#2 = APPLICATION_CONTEXT('Managed model based 3d engineering');
#3 = SHAPE_DEFINITION_REPRESENTATION(#4,#10);
#4 = PRODUCT_DEFINITION_SHAPE('','',#5);
#5 = PRODUCT_DEFINITION('design','',#6,#9);
#6 = PRODUCT_DEFINITION_FORMATION('','',#7);
#7 = PRODUCT('Case Btm Cut (female C to female C)',
  'Case Btm Cut (female C to female C)','',(#8));
#8 = PRODUCT_CONTEXT('',#2,'mechanical');
#9 = PRODUCT_DEFINITION_CONTEXT('part definition',#2,'design');
#10 = ADVANCED_BREP_SHAPE_REPRESENTATION('',(#11,#15),#1850);
#11 = AXIS2_PLACEMENT_3D('',#12,#13,#14);
#12 = CARTESIAN_POINT('',(0.,0.,0.));
#13 = DIRECTION('',(0.,0.,1.));
#14 = DIRECTION('',(1.,0.,-0.));
#15 = MANIFOLD_SOLID_BREP('',#16);
#16 = CLOSED_SHELL('',(#17,#125,#158,#191,#242,#273,#297,#331,#355,#379,
    #403,#437,#454,#478,#503,#595,#630,#691,#722,#753,#771,#802,#827,
    #851,#875,#899,#924,#948,#965,#998,#1038,#1069,#1102,#1133,#1166,
    #1197,#1230,#1318,#1358,#1400,#1422,#1472,#1503,#1534,#1575,#1610,
    #1628,#1653,#1677,#1702,#1719,#1743,#1761,#1797,#1830));
#17 = ADVANCED_FACE('',(#18,#52),#120,.F.);
#18 = FACE_BOUND('',#19,.F.);
#19 = EDGE_LOOP('',(#20,#30,#38,#46));
#20 = ORIENTED_EDGE('',*,*,#21,.F.);
#21 = EDGE_CURVE('',#22,#24,#26,.T.);
#22 = VERTEX_POINT('',#23);
#23 = CARTESIAN_POINT('',(-21.,-9.5,1.));
#24 = VERTEX_POINT('',#25);
#25 = CARTESIAN_POINT('',(-21.,9.5,1.));
#26 = LINE('',#27,#28);
#27 = CARTESIAN_POINT('',(-21.,-13.,1.));
#28 = VECTOR('',#29,1.);
#29 = DIRECTION('',(0.,1.,0.));
#30 = ORIENTED_EDGE('',*,*,#31,.F.);
#31 = EDGE_CURVE('',#32,#22,#34,.T.);
#32 = VERTEX_POINT('',#33);
#33 = CARTESIAN_POINT('',(-21.,-9.5,-4.5));
#34 = LINE('',#35,#36);
#35 = CARTESIAN_POINT('',(-21.,-9.5,-4.5));
#36 = VECTOR('',#37,1.);
#37 = DIRECTION('',(0.,0.,1.));
#38 = ORIENTED_EDGE('',*,*,#39,.T.);
#39 = EDGE_CURVE('',#32,#40,#42,.T.);
#40 = VERTEX_POINT('',#41);
#41 = CARTESIAN_POINT('',(-21.,9.5,-4.5));
#42 = LINE('',#43,#44);
#43 = CARTESIAN_POINT('',(-21.,-13.,-4.5));
#44 = VECTOR('',#45,1.);
#45 = DIRECTION('',(0.,1.,0.));
#46 = ORIENTED_EDGE('',*,*,#47,.T.);
#47 = EDGE_CURVE('',#40,#24,#48,.T.);
#48 = LINE('',#49,#50);
#49 = CARTESIAN_POINT('',(-21.,9.5,-4.5));
#50 = VECTOR('',#51,1.);
#51 = DIRECTION('',(0.,0.,1.));
#52 = FACE_BOUND('',#53,.F.);
#53 = EDGE_LOOP('',(#54,#64,#72,#81,#89,#97,#105,#114));
#54 = ORIENTED_EDGE('',*,*,#55,.F.);
#55 = EDGE_CURVE('',#56,#58,#60,.T.);
#56 = VERTEX_POINT('',#57);
#57 = CARTESIAN_POINT('',(-21.,2.9,-0.5));
#58 = VERTEX_POINT('',#59);
#59 = CARTESIAN_POINT('',(-21.,-2.9,-0.5));
#60 = LINE('',#61,#62);
#61 = CARTESIAN_POINT('',(-21.,-5.05,-0.5));
#62 = VECTOR('',#63,1.);
#63 = DIRECTION('',(0.,-1.,0.));
#64 = ORIENTED_EDGE('',*,*,#65,.T.);
#65 = EDGE_CURVE('',#56,#66,#68,.T.);
#66 = VERTEX_POINT('',#67);
#67 = CARTESIAN_POINT('',(-21.,2.9,-0.504006420562));
#68 = LINE('',#69,#70);
#69 = CARTESIAN_POINT('',(-21.,2.9,-3.75));
#70 = VECTOR('',#71,1.);
#71 = DIRECTION('',(0.,-0.,-1.));
#72 = ORIENTED_EDGE('',*,*,#73,.F.);
#73 = EDGE_CURVE('',#74,#66,#76,.T.);
#74 = VERTEX_POINT('',#75);
#75 = CARTESIAN_POINT('',(-21.,2.9,-2.995993579438));
#76 = CIRCLE('',#77,1.25);
#77 = AXIS2_PLACEMENT_3D('',#78,#79,#80);
#78 = CARTESIAN_POINT('',(-21.,3.,-1.75));
#79 = DIRECTION('',(1.,-1.224646799147E-16,-2.22044604925E-16));
#80 = DIRECTION('',(-2.22044604925E-16,2.719262146894E-32,-1.));
#81 = ORIENTED_EDGE('',*,*,#82,.T.);
#82 = EDGE_CURVE('',#74,#83,#85,.T.);
#83 = VERTEX_POINT('',#84);
#84 = CARTESIAN_POINT('',(-21.,2.9,-3.));
#85 = LINE('',#86,#87);
#86 = CARTESIAN_POINT('',(-21.,2.9,-3.75));
#87 = VECTOR('',#88,1.);
#88 = DIRECTION('',(0.,-0.,-1.));
#89 = ORIENTED_EDGE('',*,*,#90,.T.);
#90 = EDGE_CURVE('',#83,#91,#93,.T.);
#91 = VERTEX_POINT('',#92);
#92 = CARTESIAN_POINT('',(-21.,-2.9,-3.));
#93 = LINE('',#94,#95);
#94 = CARTESIAN_POINT('',(-21.,-5.05,-3.));
#95 = VECTOR('',#96,1.);
#96 = DIRECTION('',(0.,-1.,0.));
#97 = ORIENTED_EDGE('',*,*,#98,.F.);
#98 = EDGE_CURVE('',#99,#91,#101,.T.);
#99 = VERTEX_POINT('',#100);
#100 = CARTESIAN_POINT('',(-21.,-2.9,-2.995993579438));
#101 = LINE('',#102,#103);
#102 = CARTESIAN_POINT('',(-21.,-2.9,-3.75));
#103 = VECTOR('',#104,1.);
#104 = DIRECTION('',(0.,-0.,-1.));
#105 = ORIENTED_EDGE('',*,*,#106,.F.);
#106 = EDGE_CURVE('',#107,#99,#109,.T.);
#107 = VERTEX_POINT('',#108);
#108 = CARTESIAN_POINT('',(-21.,-2.9,-0.504006420562));
#109 = CIRCLE('',#110,1.25);
#110 = AXIS2_PLACEMENT_3D('',#111,#112,#113);
#111 = CARTESIAN_POINT('',(-21.,-3.,-1.75));
#112 = DIRECTION('',(1.,-1.224646799147E-16,-2.22044604925E-16));
#113 = DIRECTION('',(-2.22044604925E-16,2.719262146894E-32,-1.));
#114 = ORIENTED_EDGE('',*,*,#115,.F.);
#115 = EDGE_CURVE('',#58,#107,#116,.T.);
#116 = LINE('',#117,#118);
#117 = CARTESIAN_POINT('',(-21.,-2.9,-3.75));
#118 = VECTOR('',#119,1.);
#119 = DIRECTION('',(0.,-0.,-1.));
#120 = PLANE('',#121);
#121 = AXIS2_PLACEMENT_3D('',#122,#123,#124);
#122 = CARTESIAN_POINT('',(-21.,-13.,-4.5));
#123 = DIRECTION('',(1.,0.,0.));
#124 = DIRECTION('',(0.,0.,1.));
#125 = ADVANCED_FACE('',(#126),#153,.T.);
#126 = FACE_BOUND('',#127,.T.);
#127 = EDGE_LOOP('',(#128,#137,#145,#152));
#128 = ORIENTED_EDGE('',*,*,#129,.T.);
#129 = EDGE_CURVE('',#32,#130,#132,.T.);
#130 = VERTEX_POINT('',#131);
#131 = CARTESIAN_POINT('',(-17.5,-13.,-4.5));
#132 = CIRCLE('',#133,3.5);
#133 = AXIS2_PLACEMENT_3D('',#134,#135,#136);
#134 = CARTESIAN_POINT('',(-17.5,-9.5,-4.5));
#135 = DIRECTION('',(-0.,0.,1.));
#136 = DIRECTION('',(0.,-1.,0.));
#137 = ORIENTED_EDGE('',*,*,#138,.T.);
#138 = EDGE_CURVE('',#130,#139,#141,.T.);
#139 = VERTEX_POINT('',#140);
#140 = CARTESIAN_POINT('',(-17.5,-13.,1.));
#141 = LINE('',#142,#143);
#142 = CARTESIAN_POINT('',(-17.5,-13.,-4.5));
#143 = VECTOR('',#144,1.);
#144 = DIRECTION('',(0.,0.,1.));
#145 = ORIENTED_EDGE('',*,*,#146,.F.);
#146 = EDGE_CURVE('',#22,#139,#147,.T.);
#147 = CIRCLE('',#148,3.5);
#148 = AXIS2_PLACEMENT_3D('',#149,#150,#151);
#149 = CARTESIAN_POINT('',(-17.5,-9.5,1.));
#150 = DIRECTION('',(-0.,0.,1.));
#151 = DIRECTION('',(0.,-1.,0.));
#152 = ORIENTED_EDGE('',*,*,#31,.F.);
#153 = CYLINDRICAL_SURFACE('',#154,3.5);
#154 = AXIS2_PLACEMENT_3D('',#155,#156,#157);
#155 = CARTESIAN_POINT('',(-17.5,-9.5,-4.5));
#156 = DIRECTION('',(0.,0.,1.));
#157 = DIRECTION('',(-1.,0.,0.));
#158 = ADVANCED_FACE('',(#159),#186,.T.);
#159 = FACE_BOUND('',#160,.F.);
#160 = EDGE_LOOP('',(#161,#170,#178,#185));
#161 = ORIENTED_EDGE('',*,*,#162,.T.);
#162 = EDGE_CURVE('',#40,#163,#165,.T.);
#163 = VERTEX_POINT('',#164);
#164 = CARTESIAN_POINT('',(-17.5,13.,-4.5));
#165 = CIRCLE('',#166,3.5);
#166 = AXIS2_PLACEMENT_3D('',#167,#168,#169);
#167 = CARTESIAN_POINT('',(-17.5,9.5,-4.5));
#168 = DIRECTION('',(-0.,-0.,-1.));
#169 = DIRECTION('',(0.,-1.,0.));
#170 = ORIENTED_EDGE('',*,*,#171,.T.);
#171 = EDGE_CURVE('',#163,#172,#174,.T.);
#172 = VERTEX_POINT('',#173);
#173 = CARTESIAN_POINT('',(-17.5,13.,1.));
#174 = LINE('',#175,#176);
#175 = CARTESIAN_POINT('',(-17.5,13.,-4.5));
#176 = VECTOR('',#177,1.);
#177 = DIRECTION('',(0.,0.,1.));
#178 = ORIENTED_EDGE('',*,*,#179,.F.);
#179 = EDGE_CURVE('',#24,#172,#180,.T.);
#180 = CIRCLE('',#181,3.5);
#181 = AXIS2_PLACEMENT_3D('',#182,#183,#184);
#182 = CARTESIAN_POINT('',(-17.5,9.5,1.));
#183 = DIRECTION('',(-0.,-0.,-1.));
#184 = DIRECTION('',(0.,-1.,0.));
#185 = ORIENTED_EDGE('',*,*,#47,.F.);
#186 = CYLINDRICAL_SURFACE('',#187,3.5);
#187 = AXIS2_PLACEMENT_3D('',#188,#189,#190);
#188 = CARTESIAN_POINT('',(-17.5,9.5,-4.5));
#189 = DIRECTION('',(0.,0.,1.));
#190 = DIRECTION('',(-1.,0.,0.));
#191 = ADVANCED_FACE('',(#192),#237,.F.);
#192 = FACE_BOUND('',#193,.F.);
#193 = EDGE_LOOP('',(#194,#195,#196,#204,#213,#221,#230,#236));
#194 = ORIENTED_EDGE('',*,*,#39,.F.);
#195 = ORIENTED_EDGE('',*,*,#129,.T.);
#196 = ORIENTED_EDGE('',*,*,#197,.T.);
#197 = EDGE_CURVE('',#130,#198,#200,.T.);
#198 = VERTEX_POINT('',#199);
#199 = CARTESIAN_POINT('',(17.5,-13.,-4.5));
#200 = LINE('',#201,#202);
#201 = CARTESIAN_POINT('',(-21.,-13.,-4.5));
#202 = VECTOR('',#203,1.);
#203 = DIRECTION('',(1.,0.,0.));
#204 = ORIENTED_EDGE('',*,*,#205,.F.);
#205 = EDGE_CURVE('',#206,#198,#208,.T.);
#206 = VERTEX_POINT('',#207);
#207 = CARTESIAN_POINT('',(21.,-9.5,-4.5));
#208 = CIRCLE('',#209,3.5);
#209 = AXIS2_PLACEMENT_3D('',#210,#211,#212);
#210 = CARTESIAN_POINT('',(17.5,-9.5,-4.5));
#211 = DIRECTION('',(-0.,-0.,-1.));
#212 = DIRECTION('',(0.,-1.,0.));
#213 = ORIENTED_EDGE('',*,*,#214,.T.);
#214 = EDGE_CURVE('',#206,#215,#217,.T.);
#215 = VERTEX_POINT('',#216);
#216 = CARTESIAN_POINT('',(21.,9.5,-4.5));
#217 = LINE('',#218,#219);
#218 = CARTESIAN_POINT('',(21.,-13.,-4.5));
#219 = VECTOR('',#220,1.);
#220 = DIRECTION('',(0.,1.,0.));
#221 = ORIENTED_EDGE('',*,*,#222,.T.);
#222 = EDGE_CURVE('',#215,#223,#225,.T.);
#223 = VERTEX_POINT('',#224);
#224 = CARTESIAN_POINT('',(17.5,13.,-4.5));
#225 = CIRCLE('',#226,3.5);
#226 = AXIS2_PLACEMENT_3D('',#227,#228,#229);
#227 = CARTESIAN_POINT('',(17.5,9.5,-4.5));
#228 = DIRECTION('',(-0.,0.,1.));
#229 = DIRECTION('',(0.,-1.,0.));
#230 = ORIENTED_EDGE('',*,*,#231,.F.);
#231 = EDGE_CURVE('',#163,#223,#232,.T.);
#232 = LINE('',#233,#234);
#233 = CARTESIAN_POINT('',(-21.,13.,-4.5));
#234 = VECTOR('',#235,1.);
#235 = DIRECTION('',(1.,0.,0.));
#236 = ORIENTED_EDGE('',*,*,#162,.F.);
#237 = PLANE('',#238);
#238 = AXIS2_PLACEMENT_3D('',#239,#240,#241);
#239 = CARTESIAN_POINT('',(-21.,-13.,-4.5));
#240 = DIRECTION('',(0.,0.,1.));
#241 = DIRECTION('',(1.,0.,0.));
#242 = ADVANCED_FACE('',(#243),#268,.F.);
#243 = FACE_BOUND('',#244,.F.);
#244 = EDGE_LOOP('',(#245,#253,#261,#267));
#245 = ORIENTED_EDGE('',*,*,#246,.F.);
#246 = EDGE_CURVE('',#247,#58,#249,.T.);
#247 = VERTEX_POINT('',#248);
#248 = CARTESIAN_POINT('',(-20.,-2.9,-0.5));
#249 = LINE('',#250,#251);
#250 = CARTESIAN_POINT('',(-11.,-2.9,-0.5));
#251 = VECTOR('',#252,1.);
#252 = DIRECTION('',(-1.,1.224646799147E-16,0.));
#253 = ORIENTED_EDGE('',*,*,#254,.F.);
#254 = EDGE_CURVE('',#255,#247,#257,.T.);
#255 = VERTEX_POINT('',#256);
#256 = CARTESIAN_POINT('',(-20.,2.9,-0.5));
#257 = LINE('',#258,#259);
#258 = CARTESIAN_POINT('',(-20.,3.7,-0.5));
#259 = VECTOR('',#260,1.);
#260 = DIRECTION('',(-1.224646799147E-16,-1.,0.));
#261 = ORIENTED_EDGE('',*,*,#262,.T.);
#262 = EDGE_CURVE('',#255,#56,#263,.T.);
#263 = LINE('',#264,#265);
#264 = CARTESIAN_POINT('',(-11.,2.9,-0.5));
#265 = VECTOR('',#266,1.);
#266 = DIRECTION('',(-1.,1.224646799147E-16,0.));
#267 = ORIENTED_EDGE('',*,*,#55,.T.);
#268 = PLANE('',#269);
#269 = AXIS2_PLACEMENT_3D('',#270,#271,#272);
#270 = CARTESIAN_POINT('',(-11.,2.9,-0.5));
#271 = DIRECTION('',(0.,0.,1.));
#272 = DIRECTION('',(-1.,1.224646799147E-16,0.));
#273 = ADVANCED_FACE('',(#274),#292,.F.);
#274 = FACE_BOUND('',#275,.F.);
#275 = EDGE_LOOP('',(#276,#277,#285,#291));
#276 = ORIENTED_EDGE('',*,*,#115,.T.);
#277 = ORIENTED_EDGE('',*,*,#278,.T.);
#278 = EDGE_CURVE('',#107,#279,#281,.T.);
#279 = VERTEX_POINT('',#280);
#280 = CARTESIAN_POINT('',(-20.,-2.9,-0.504006420562));
#281 = LINE('',#282,#283);
#282 = CARTESIAN_POINT('',(-11.,-2.9,-0.504006420562));
#283 = VECTOR('',#284,1.);
#284 = DIRECTION('',(1.,-1.224646799147E-16,-2.22044604925E-16));
#285 = ORIENTED_EDGE('',*,*,#286,.F.);
#286 = EDGE_CURVE('',#247,#279,#287,.T.);
#287 = LINE('',#288,#289);
#288 = CARTESIAN_POINT('',(-20.,-2.9,-3.25));
#289 = VECTOR('',#290,1.);
#290 = DIRECTION('',(-0.,0.,-1.));
#291 = ORIENTED_EDGE('',*,*,#246,.T.);
#292 = PLANE('',#293);
#293 = AXIS2_PLACEMENT_3D('',#294,#295,#296);
#294 = CARTESIAN_POINT('',(-11.,-2.9,-3.));
#295 = DIRECTION('',(-1.224646799147E-16,-1.,0.));
#296 = DIRECTION('',(0.,0.,1.));
#297 = ADVANCED_FACE('',(#298),#326,.F.);
#298 = FACE_BOUND('',#299,.T.);
#299 = EDGE_LOOP('',(#300,#301,#302,#311,#320));
#300 = ORIENTED_EDGE('',*,*,#106,.F.);
#301 = ORIENTED_EDGE('',*,*,#278,.T.);
#302 = ORIENTED_EDGE('',*,*,#303,.T.);
#303 = EDGE_CURVE('',#279,#304,#306,.T.);
#304 = VERTEX_POINT('',#305);
#305 = CARTESIAN_POINT('',(-20.,-3.,-3.));
#306 = CIRCLE('',#307,1.25);
#307 = AXIS2_PLACEMENT_3D('',#308,#309,#310);
#308 = CARTESIAN_POINT('',(-20.,-3.,-1.75));
#309 = DIRECTION('',(1.,-1.224646799147E-16,-2.22044604925E-16));
#310 = DIRECTION('',(-2.22044604925E-16,2.719262146894E-32,-1.));
#311 = ORIENTED_EDGE('',*,*,#312,.T.);
#312 = EDGE_CURVE('',#304,#313,#315,.T.);
#313 = VERTEX_POINT('',#314);
#314 = CARTESIAN_POINT('',(-20.,-2.9,-2.995993579438));
#315 = CIRCLE('',#316,1.25);
#316 = AXIS2_PLACEMENT_3D('',#317,#318,#319);
#317 = CARTESIAN_POINT('',(-20.,-3.,-1.75));
#318 = DIRECTION('',(1.,-1.224646799147E-16,-2.22044604925E-16));
#319 = DIRECTION('',(-2.22044604925E-16,2.719262146894E-32,-1.));
#320 = ORIENTED_EDGE('',*,*,#321,.F.);
#321 = EDGE_CURVE('',#99,#313,#322,.T.);
#322 = LINE('',#323,#324);
#323 = CARTESIAN_POINT('',(-11.,-2.9,-2.995993579438));
#324 = VECTOR('',#325,1.);
#325 = DIRECTION('',(1.,-1.224646799147E-16,-2.22044604925E-16));
#326 = CYLINDRICAL_SURFACE('',#327,1.25);
#327 = AXIS2_PLACEMENT_3D('',#328,#329,#330);
#328 = CARTESIAN_POINT('',(-11.,-3.,-1.75));
#329 = DIRECTION('',(1.,-1.224646799147E-16,-2.22044604925E-16));
#330 = DIRECTION('',(-2.22044604925E-16,2.719262146894E-32,-1.));
#331 = ADVANCED_FACE('',(#332),#350,.F.);
#332 = FACE_BOUND('',#333,.F.);
#333 = EDGE_LOOP('',(#334,#342,#348,#349));
#334 = ORIENTED_EDGE('',*,*,#335,.F.);
#335 = EDGE_CURVE('',#336,#91,#338,.T.);
#336 = VERTEX_POINT('',#337);
#337 = CARTESIAN_POINT('',(-20.,-2.9,-3.));
#338 = LINE('',#339,#340);
#339 = CARTESIAN_POINT('',(-11.,-2.9,-3.));
#340 = VECTOR('',#341,1.);
#341 = DIRECTION('',(-1.,1.224646799147E-16,0.));
#342 = ORIENTED_EDGE('',*,*,#343,.F.);
#343 = EDGE_CURVE('',#313,#336,#344,.T.);
#344 = LINE('',#345,#346);
#345 = CARTESIAN_POINT('',(-20.,-2.9,-3.25));
#346 = VECTOR('',#347,1.);
#347 = DIRECTION('',(-0.,0.,-1.));
#348 = ORIENTED_EDGE('',*,*,#321,.F.);
#349 = ORIENTED_EDGE('',*,*,#98,.T.);
#350 = PLANE('',#351);
#351 = AXIS2_PLACEMENT_3D('',#352,#353,#354);
#352 = CARTESIAN_POINT('',(-11.,-2.9,-3.));
#353 = DIRECTION('',(-1.224646799147E-16,-1.,0.));
#354 = DIRECTION('',(0.,0.,1.));
#355 = ADVANCED_FACE('',(#356),#374,.T.);
#356 = FACE_BOUND('',#357,.T.);
#357 = EDGE_LOOP('',(#358,#359,#367,#373));
#358 = ORIENTED_EDGE('',*,*,#335,.F.);
#359 = ORIENTED_EDGE('',*,*,#360,.F.);
#360 = EDGE_CURVE('',#361,#336,#363,.T.);
#361 = VERTEX_POINT('',#362);
#362 = CARTESIAN_POINT('',(-20.,2.9,-3.));
#363 = LINE('',#364,#365);
#364 = CARTESIAN_POINT('',(-20.,3.7,-3.));
#365 = VECTOR('',#366,1.);
#366 = DIRECTION('',(-1.224646799147E-16,-1.,0.));
#367 = ORIENTED_EDGE('',*,*,#368,.T.);
#368 = EDGE_CURVE('',#361,#83,#369,.T.);
#369 = LINE('',#370,#371);
#370 = CARTESIAN_POINT('',(-11.,2.9,-3.));
#371 = VECTOR('',#372,1.);
#372 = DIRECTION('',(-1.,1.224646799147E-16,0.));
#373 = ORIENTED_EDGE('',*,*,#90,.T.);
#374 = PLANE('',#375);
#375 = AXIS2_PLACEMENT_3D('',#376,#377,#378);
#376 = CARTESIAN_POINT('',(-11.,2.9,-3.));
#377 = DIRECTION('',(0.,0.,1.));
#378 = DIRECTION('',(-1.,1.224646799147E-16,0.));
#379 = ADVANCED_FACE('',(#380),#398,.T.);
#380 = FACE_BOUND('',#381,.T.);
#381 = EDGE_LOOP('',(#382,#383,#391,#397));
#382 = ORIENTED_EDGE('',*,*,#368,.F.);
#383 = ORIENTED_EDGE('',*,*,#384,.F.);
#384 = EDGE_CURVE('',#385,#361,#387,.T.);
#385 = VERTEX_POINT('',#386);
#386 = CARTESIAN_POINT('',(-20.,2.9,-2.995993579438));
#387 = LINE('',#388,#389);
#388 = CARTESIAN_POINT('',(-20.,2.9,-3.25));
#389 = VECTOR('',#390,1.);
#390 = DIRECTION('',(-0.,0.,-1.));
#391 = ORIENTED_EDGE('',*,*,#392,.F.);
#392 = EDGE_CURVE('',#74,#385,#393,.T.);
#393 = LINE('',#394,#395);
#394 = CARTESIAN_POINT('',(-11.,2.9,-2.995993579438));
#395 = VECTOR('',#396,1.);
#396 = DIRECTION('',(1.,-1.224646799147E-16,-2.22044604925E-16));
#397 = ORIENTED_EDGE('',*,*,#82,.T.);
#398 = PLANE('',#399);
#399 = AXIS2_PLACEMENT_3D('',#400,#401,#402);
#400 = CARTESIAN_POINT('',(-11.,2.9,-3.));
#401 = DIRECTION('',(-1.224646799147E-16,-1.,0.));
#402 = DIRECTION('',(0.,0.,1.));
#403 = ADVANCED_FACE('',(#404),#432,.F.);
#404 = FACE_BOUND('',#405,.T.);
#405 = EDGE_LOOP('',(#406,#407,#408,#417,#426));
#406 = ORIENTED_EDGE('',*,*,#73,.F.);
#407 = ORIENTED_EDGE('',*,*,#392,.T.);
#408 = ORIENTED_EDGE('',*,*,#409,.T.);
#409 = EDGE_CURVE('',#385,#410,#412,.T.);
#410 = VERTEX_POINT('',#411);
#411 = CARTESIAN_POINT('',(-20.,3.,-3.));
#412 = CIRCLE('',#413,1.25);
#413 = AXIS2_PLACEMENT_3D('',#414,#415,#416);
#414 = CARTESIAN_POINT('',(-20.,3.,-1.75));
#415 = DIRECTION('',(1.,-1.224646799147E-16,-2.22044604925E-16));
#416 = DIRECTION('',(-2.22044604925E-16,2.719262146894E-32,-1.));
#417 = ORIENTED_EDGE('',*,*,#418,.T.);
#418 = EDGE_CURVE('',#410,#419,#421,.T.);
#419 = VERTEX_POINT('',#420);
#420 = CARTESIAN_POINT('',(-20.,2.9,-0.504006420562));
#421 = CIRCLE('',#422,1.25);
#422 = AXIS2_PLACEMENT_3D('',#423,#424,#425);
#423 = CARTESIAN_POINT('',(-20.,3.,-1.75));
#424 = DIRECTION('',(1.,-1.224646799147E-16,-2.22044604925E-16));
#425 = DIRECTION('',(-2.22044604925E-16,2.719262146894E-32,-1.));
#426 = ORIENTED_EDGE('',*,*,#427,.F.);
#427 = EDGE_CURVE('',#66,#419,#428,.T.);
#428 = LINE('',#429,#430);
#429 = CARTESIAN_POINT('',(-11.,2.9,-0.504006420562));
#430 = VECTOR('',#431,1.);
#431 = DIRECTION('',(1.,-1.224646799147E-16,-2.22044604925E-16));
#432 = CYLINDRICAL_SURFACE('',#433,1.25);
#433 = AXIS2_PLACEMENT_3D('',#434,#435,#436);
#434 = CARTESIAN_POINT('',(-11.,3.,-1.75));
#435 = DIRECTION('',(1.,-1.224646799147E-16,-2.22044604925E-16));
#436 = DIRECTION('',(-2.22044604925E-16,2.719262146894E-32,-1.));
#437 = ADVANCED_FACE('',(#438),#449,.T.);
#438 = FACE_BOUND('',#439,.T.);
#439 = EDGE_LOOP('',(#440,#441,#442,#448));
#440 = ORIENTED_EDGE('',*,*,#65,.T.);
#441 = ORIENTED_EDGE('',*,*,#427,.T.);
#442 = ORIENTED_EDGE('',*,*,#443,.F.);
#443 = EDGE_CURVE('',#255,#419,#444,.T.);
#444 = LINE('',#445,#446);
#445 = CARTESIAN_POINT('',(-20.,2.9,-3.25));
#446 = VECTOR('',#447,1.);
#447 = DIRECTION('',(-0.,0.,-1.));
#448 = ORIENTED_EDGE('',*,*,#262,.T.);
#449 = PLANE('',#450);
#450 = AXIS2_PLACEMENT_3D('',#451,#452,#453);
#451 = CARTESIAN_POINT('',(-11.,2.9,-3.));
#452 = DIRECTION('',(-1.224646799147E-16,-1.,0.));
#453 = DIRECTION('',(0.,0.,1.));
#454 = ADVANCED_FACE('',(#455),#473,.T.);
#455 = FACE_BOUND('',#456,.T.);
#456 = EDGE_LOOP('',(#457,#458,#459,#467));
#457 = ORIENTED_EDGE('',*,*,#231,.F.);
#458 = ORIENTED_EDGE('',*,*,#171,.T.);
#459 = ORIENTED_EDGE('',*,*,#460,.T.);
#460 = EDGE_CURVE('',#172,#461,#463,.T.);
#461 = VERTEX_POINT('',#462);
#462 = CARTESIAN_POINT('',(17.5,13.,1.));
#463 = LINE('',#464,#465);
#464 = CARTESIAN_POINT('',(-21.,13.,1.));
#465 = VECTOR('',#466,1.);
#466 = DIRECTION('',(1.,0.,0.));
#467 = ORIENTED_EDGE('',*,*,#468,.F.);
#468 = EDGE_CURVE('',#223,#461,#469,.T.);
#469 = LINE('',#470,#471);
#470 = CARTESIAN_POINT('',(17.5,13.,-4.5));
#471 = VECTOR('',#472,1.);
#472 = DIRECTION('',(0.,0.,1.));
#473 = PLANE('',#474);
#474 = AXIS2_PLACEMENT_3D('',#475,#476,#477);
#475 = CARTESIAN_POINT('',(-21.,13.,-4.5));
#476 = DIRECTION('',(0.,1.,0.));
#477 = DIRECTION('',(0.,0.,1.));
#478 = ADVANCED_FACE('',(#479),#498,.T.);
#479 = FACE_BOUND('',#480,.T.);
#480 = EDGE_LOOP('',(#481,#482,#483,#492));
#481 = ORIENTED_EDGE('',*,*,#222,.T.);
#482 = ORIENTED_EDGE('',*,*,#468,.T.);
#483 = ORIENTED_EDGE('',*,*,#484,.F.);
#484 = EDGE_CURVE('',#485,#461,#487,.T.);
#485 = VERTEX_POINT('',#486);
#486 = CARTESIAN_POINT('',(21.,9.5,1.));
#487 = CIRCLE('',#488,3.5);
#488 = AXIS2_PLACEMENT_3D('',#489,#490,#491);
#489 = CARTESIAN_POINT('',(17.5,9.5,1.));
#490 = DIRECTION('',(-0.,0.,1.));
#491 = DIRECTION('',(0.,-1.,0.));
#492 = ORIENTED_EDGE('',*,*,#493,.F.);
#493 = EDGE_CURVE('',#215,#485,#494,.T.);
#494 = LINE('',#495,#496);
#495 = CARTESIAN_POINT('',(21.,9.5,-4.5));
#496 = VECTOR('',#497,1.);
#497 = DIRECTION('',(0.,0.,1.));
#498 = CYLINDRICAL_SURFACE('',#499,3.5);
#499 = AXIS2_PLACEMENT_3D('',#500,#501,#502);
#500 = CARTESIAN_POINT('',(17.5,9.5,-4.5));
#501 = DIRECTION('',(0.,0.,1.));
#502 = DIRECTION('',(1.,0.,0.));
#503 = ADVANCED_FACE('',(#504,#522),#590,.T.);
#504 = FACE_BOUND('',#505,.T.);
#505 = EDGE_LOOP('',(#506,#514,#520,#521));
#506 = ORIENTED_EDGE('',*,*,#507,.F.);
#507 = EDGE_CURVE('',#508,#485,#510,.T.);
#508 = VERTEX_POINT('',#509);
#509 = CARTESIAN_POINT('',(21.,-9.5,1.));
#510 = LINE('',#511,#512);
#511 = CARTESIAN_POINT('',(21.,-13.,1.));
#512 = VECTOR('',#513,1.);
#513 = DIRECTION('',(0.,1.,0.));
#514 = ORIENTED_EDGE('',*,*,#515,.F.);
#515 = EDGE_CURVE('',#206,#508,#516,.T.);
#516 = LINE('',#517,#518);
#517 = CARTESIAN_POINT('',(21.,-9.5,-4.5));
#518 = VECTOR('',#519,1.);
#519 = DIRECTION('',(0.,0.,1.));
#520 = ORIENTED_EDGE('',*,*,#214,.T.);
#521 = ORIENTED_EDGE('',*,*,#493,.T.);
#522 = FACE_BOUND('',#523,.T.);
#523 = EDGE_LOOP('',(#524,#534,#542,#550,#559,#567,#575,#583));
#524 = ORIENTED_EDGE('',*,*,#525,.F.);
#525 = EDGE_CURVE('',#526,#528,#530,.T.);
#526 = VERTEX_POINT('',#527);
#527 = CARTESIAN_POINT('',(21.,2.9,-3.));
#528 = VERTEX_POINT('',#529);
#529 = CARTESIAN_POINT('',(21.,2.9,-2.995993579438));
#530 = LINE('',#531,#532);
#531 = CARTESIAN_POINT('',(21.,2.9,-3.75));
#532 = VECTOR('',#533,1.);
#533 = DIRECTION('',(0.,0.,1.));
#534 = ORIENTED_EDGE('',*,*,#535,.T.);
#535 = EDGE_CURVE('',#526,#536,#538,.T.);
#536 = VERTEX_POINT('',#537);
#537 = CARTESIAN_POINT('',(21.,-2.9,-3.));
#538 = LINE('',#539,#540);
#539 = CARTESIAN_POINT('',(21.,-7.95,-3.));
#540 = VECTOR('',#541,1.);
#541 = DIRECTION('',(0.,-1.,0.));
#542 = ORIENTED_EDGE('',*,*,#543,.T.);
#543 = EDGE_CURVE('',#536,#544,#546,.T.);
#544 = VERTEX_POINT('',#545);
#545 = CARTESIAN_POINT('',(21.,-2.9,-2.995993579438));
#546 = LINE('',#547,#548);
#547 = CARTESIAN_POINT('',(21.,-2.9,-3.75));
#548 = VECTOR('',#549,1.);
#549 = DIRECTION('',(0.,0.,1.));
#550 = ORIENTED_EDGE('',*,*,#551,.T.);
#551 = EDGE_CURVE('',#544,#552,#554,.T.);
#552 = VERTEX_POINT('',#553);
#553 = CARTESIAN_POINT('',(21.,-2.9,-0.504006420562));
#554 = CIRCLE('',#555,1.25);
#555 = AXIS2_PLACEMENT_3D('',#556,#557,#558);
#556 = CARTESIAN_POINT('',(21.,-3.,-1.75));
#557 = DIRECTION('',(-1.,-0.,-2.22044604925E-16));
#558 = DIRECTION('',(2.22044604925E-16,0.,-1.));
#559 = ORIENTED_EDGE('',*,*,#560,.T.);
#560 = EDGE_CURVE('',#552,#561,#563,.T.);
#561 = VERTEX_POINT('',#562);
#562 = CARTESIAN_POINT('',(21.,-2.9,-0.5));
#563 = LINE('',#564,#565);
#564 = CARTESIAN_POINT('',(21.,-2.9,-3.75));
#565 = VECTOR('',#566,1.);
#566 = DIRECTION('',(0.,0.,1.));
#567 = ORIENTED_EDGE('',*,*,#568,.F.);
#568 = EDGE_CURVE('',#569,#561,#571,.T.);
#569 = VERTEX_POINT('',#570);
#570 = CARTESIAN_POINT('',(21.,2.9,-0.5));
#571 = LINE('',#572,#573);
#572 = CARTESIAN_POINT('',(21.,-7.95,-0.5));
#573 = VECTOR('',#574,1.);
#574 = DIRECTION('',(0.,-1.,0.));
#575 = ORIENTED_EDGE('',*,*,#576,.F.);
#576 = EDGE_CURVE('',#577,#569,#579,.T.);
#577 = VERTEX_POINT('',#578);
#578 = CARTESIAN_POINT('',(21.,2.9,-0.504006420562));
#579 = LINE('',#580,#581);
#580 = CARTESIAN_POINT('',(21.,2.9,-3.75));
#581 = VECTOR('',#582,1.);
#582 = DIRECTION('',(0.,0.,1.));
#583 = ORIENTED_EDGE('',*,*,#584,.T.);
#584 = EDGE_CURVE('',#577,#528,#585,.T.);
#585 = CIRCLE('',#586,1.25);
#586 = AXIS2_PLACEMENT_3D('',#587,#588,#589);
#587 = CARTESIAN_POINT('',(21.,3.,-1.75));
#588 = DIRECTION('',(-1.,-0.,-2.22044604925E-16));
#589 = DIRECTION('',(2.22044604925E-16,0.,-1.));
#590 = PLANE('',#591);
#591 = AXIS2_PLACEMENT_3D('',#592,#593,#594);
#592 = CARTESIAN_POINT('',(21.,-13.,-4.5));
#593 = DIRECTION('',(1.,0.,0.));
#594 = DIRECTION('',(0.,0.,1.));
#595 = ADVANCED_FACE('',(#596),#625,.T.);
#596 = FACE_BOUND('',#597,.F.);
#597 = EDGE_LOOP('',(#598,#599,#600,#608,#618));
#598 = ORIENTED_EDGE('',*,*,#515,.F.);
#599 = ORIENTED_EDGE('',*,*,#205,.T.);
#600 = ORIENTED_EDGE('',*,*,#601,.T.);
#601 = EDGE_CURVE('',#198,#602,#604,.T.);
#602 = VERTEX_POINT('',#603);
#603 = CARTESIAN_POINT('',(17.5,-13.,0.434314575051));
#604 = LINE('',#605,#606);
#605 = CARTESIAN_POINT('',(17.5,-13.,-4.5));
#606 = VECTOR('',#607,1.);
#607 = DIRECTION('',(0.,0.,1.));
#608 = ORIENTED_EDGE('',*,*,#609,.F.);
#609 = EDGE_CURVE('',#610,#602,#612,.T.);
#610 = VERTEX_POINT('',#611);
#611 = CARTESIAN_POINT('',(17.549210747034,-12.99965402609,1.));
#612 = B_SPLINE_CURVE_WITH_KNOTS('',4,(#613,#614,#615,#616,#617),
  .UNSPECIFIED.,.F.,.F.,(5,5),(0.,1.),.PIECEWISE_BEZIER_KNOTS.);
#613 = CARTESIAN_POINT('',(17.549210744772,-12.99965402612,
    1.000122235917));
#614 = CARTESIAN_POINT('',(17.549215999777,-12.99965395223,
    0.858139069427));
#615 = CARTESIAN_POINT('',(17.541082795741,-12.99976556963,
    0.716340093645));
#616 = CARTESIAN_POINT('',(17.524854291962,-13.,0.574911682157));
#617 = CARTESIAN_POINT('',(17.5,-13.,0.434314575051));
#618 = ORIENTED_EDGE('',*,*,#619,.F.);
#619 = EDGE_CURVE('',#508,#610,#620,.T.);
#620 = CIRCLE('',#621,3.5);
#621 = AXIS2_PLACEMENT_3D('',#622,#623,#624);
#622 = CARTESIAN_POINT('',(17.5,-9.5,1.));
#623 = DIRECTION('',(-0.,-0.,-1.));
#624 = DIRECTION('',(0.,-1.,0.));
#625 = CYLINDRICAL_SURFACE('',#626,3.5);
#626 = AXIS2_PLACEMENT_3D('',#627,#628,#629);
#627 = CARTESIAN_POINT('',(17.5,-9.5,-4.5));
#628 = DIRECTION('',(0.,0.,1.));
#629 = DIRECTION('',(1.,0.,0.));
#630 = ADVANCED_FACE('',(#631),#686,.F.);
#631 = FACE_BOUND('',#632,.F.);
#632 = EDGE_LOOP('',(#633,#644,#653,#662,#671,#678,#679));
#633 = ORIENTED_EDGE('',*,*,#634,.F.);
#634 = EDGE_CURVE('',#635,#637,#639,.T.);
#635 = VERTEX_POINT('',#636);
#636 = CARTESIAN_POINT('',(12.594127789077,-12.1,1.));
#637 = VERTEX_POINT('',#638);
#638 = CARTESIAN_POINT('',(11.050384638146,-13.,1.));
#639 = CIRCLE('',#640,5.);
#640 = AXIS2_PLACEMENT_3D('',#641,#642,#643);
#641 = CARTESIAN_POINT('',(14.3,-16.8,1.));
#642 = DIRECTION('',(0.,0.,1.));
#643 = DIRECTION('',(1.,0.,-0.));
#644 = ORIENTED_EDGE('',*,*,#645,.F.);
#645 = EDGE_CURVE('',#646,#635,#648,.T.);
#646 = VERTEX_POINT('',#647);
#647 = CARTESIAN_POINT('',(13.487596159536,-12.1,-0.5));
#648 = CIRCLE('',#649,1.705872210923);
#649 = AXIS2_PLACEMENT_3D('',#650,#651,#652);
#650 = CARTESIAN_POINT('',(14.3,-12.1,1.));
#651 = DIRECTION('',(0.,1.,0.));
#652 = DIRECTION('',(0.,0.,1.));
#653 = ORIENTED_EDGE('',*,*,#654,.F.);
#654 = EDGE_CURVE('',#655,#646,#657,.T.);
#655 = VERTEX_POINT('',#656);
#656 = CARTESIAN_POINT('',(15.112403840464,-12.1,-0.5));
#657 = CIRCLE('',#658,4.769696007085);
#658 = AXIS2_PLACEMENT_3D('',#659,#660,#661);
#659 = CARTESIAN_POINT('',(14.3,-16.8,-0.5));
#660 = DIRECTION('',(0.,0.,1.));
#661 = DIRECTION('',(1.,0.,0.));
#662 = ORIENTED_EDGE('',*,*,#663,.F.);
#663 = EDGE_CURVE('',#664,#655,#666,.T.);
#664 = VERTEX_POINT('',#665);
#665 = CARTESIAN_POINT('',(16.005872210923,-12.1,1.));
#666 = CIRCLE('',#667,1.705872210923);
#667 = AXIS2_PLACEMENT_3D('',#668,#669,#670);
#668 = CARTESIAN_POINT('',(14.3,-12.1,1.));
#669 = DIRECTION('',(0.,1.,0.));
#670 = DIRECTION('',(0.,0.,1.));
#671 = ORIENTED_EDGE('',*,*,#672,.F.);
#672 = EDGE_CURVE('',#610,#664,#673,.T.);
#673 = CIRCLE('',#674,5.);
#674 = AXIS2_PLACEMENT_3D('',#675,#676,#677);
#675 = CARTESIAN_POINT('',(14.3,-16.8,1.));
#676 = DIRECTION('',(0.,0.,1.));
#677 = DIRECTION('',(1.,0.,-0.));
#678 = ORIENTED_EDGE('',*,*,#609,.T.);
#679 = ORIENTED_EDGE('',*,*,#680,.T.);
#680 = EDGE_CURVE('',#602,#637,#681,.T.);
#681 = CIRCLE('',#682,3.249615361854);
#682 = AXIS2_PLACEMENT_3D('',#683,#684,#685);
#683 = CARTESIAN_POINT('',(14.3,-13.,1.));
#684 = DIRECTION('',(0.,1.,0.));
#685 = DIRECTION('',(0.,-0.,1.));
#686 = SPHERICAL_SURFACE('',#687,5.);
#687 = AXIS2_PLACEMENT_3D('',#688,#689,#690);
#688 = CARTESIAN_POINT('',(14.3,-16.8,1.));
#689 = DIRECTION('',(0.,0.,1.));
#690 = DIRECTION('',(1.,0.,0.));
#691 = ADVANCED_FACE('',(#692),#717,.F.);
#692 = FACE_BOUND('',#693,.F.);
#693 = EDGE_LOOP('',(#694,#695,#703,#711));
#694 = ORIENTED_EDGE('',*,*,#663,.T.);
#695 = ORIENTED_EDGE('',*,*,#696,.T.);
#696 = EDGE_CURVE('',#655,#697,#699,.T.);
#697 = VERTEX_POINT('',#698);
#698 = CARTESIAN_POINT('',(16.2,-12.1,-0.5));
#699 = LINE('',#700,#701);
#700 = CARTESIAN_POINT('',(12.4,-12.1,-0.5));
#701 = VECTOR('',#702,1.);
#702 = DIRECTION('',(1.,0.,0.));
#703 = ORIENTED_EDGE('',*,*,#704,.T.);
#704 = EDGE_CURVE('',#697,#705,#707,.T.);
#705 = VERTEX_POINT('',#706);
#706 = CARTESIAN_POINT('',(16.2,-12.1,1.));
#707 = LINE('',#708,#709);
#708 = CARTESIAN_POINT('',(16.2,-12.1,-0.5));
#709 = VECTOR('',#710,1.);
#710 = DIRECTION('',(0.,0.,1.));
#711 = ORIENTED_EDGE('',*,*,#712,.F.);
#712 = EDGE_CURVE('',#664,#705,#713,.T.);
#713 = LINE('',#714,#715);
#714 = CARTESIAN_POINT('',(-2.493588458689,-12.1,1.));
#715 = VECTOR('',#716,1.);
#716 = DIRECTION('',(1.,0.,0.));
#717 = PLANE('',#718);
#718 = AXIS2_PLACEMENT_3D('',#719,#720,#721);
#719 = CARTESIAN_POINT('',(16.012823082622,-12.1,1.087163080312));
#720 = DIRECTION('',(-0.,-1.,-0.));
#721 = DIRECTION('',(0.,0.,-1.));
#722 = ADVANCED_FACE('',(#723),#748,.F.);
#723 = FACE_BOUND('',#724,.F.);
#724 = EDGE_LOOP('',(#725,#735,#741,#742));
#725 = ORIENTED_EDGE('',*,*,#726,.F.);
#726 = EDGE_CURVE('',#727,#729,#731,.T.);
#727 = VERTEX_POINT('',#728);
#728 = CARTESIAN_POINT('',(12.4,-12.1,-0.5));
#729 = VERTEX_POINT('',#730);
#730 = CARTESIAN_POINT('',(12.4,-12.1,1.));
#731 = LINE('',#732,#733);
#732 = CARTESIAN_POINT('',(12.4,-12.1,-0.5));
#733 = VECTOR('',#734,1.);
#734 = DIRECTION('',(0.,0.,1.));
#735 = ORIENTED_EDGE('',*,*,#736,.T.);
#736 = EDGE_CURVE('',#727,#646,#737,.T.);
#737 = LINE('',#738,#739);
#738 = CARTESIAN_POINT('',(12.4,-12.1,-0.5));
#739 = VECTOR('',#740,1.);
#740 = DIRECTION('',(1.,0.,0.));
#741 = ORIENTED_EDGE('',*,*,#645,.T.);
#742 = ORIENTED_EDGE('',*,*,#743,.F.);
#743 = EDGE_CURVE('',#729,#635,#744,.T.);
#744 = LINE('',#745,#746);
#745 = CARTESIAN_POINT('',(-4.212522792992,-12.1,1.));
#746 = VECTOR('',#747,1.);
#747 = DIRECTION('',(1.,0.,0.));
#748 = PLANE('',#749);
#749 = AXIS2_PLACEMENT_3D('',#750,#751,#752);
#750 = CARTESIAN_POINT('',(12.574954414016,-12.1,1.092433473321));
#751 = DIRECTION('',(-0.,-1.,-0.));
#752 = DIRECTION('',(0.,0.,-1.));
#753 = ADVANCED_FACE('',(#754),#766,.F.);
#754 = FACE_BOUND('',#755,.F.);
#755 = EDGE_LOOP('',(#756,#757,#758,#764,#765));
#756 = ORIENTED_EDGE('',*,*,#197,.F.);
#757 = ORIENTED_EDGE('',*,*,#138,.T.);
#758 = ORIENTED_EDGE('',*,*,#759,.T.);
#759 = EDGE_CURVE('',#139,#637,#760,.T.);
#760 = LINE('',#761,#762);
#761 = CARTESIAN_POINT('',(-21.,-13.,1.));
#762 = VECTOR('',#763,1.);
#763 = DIRECTION('',(1.,0.,0.));
#764 = ORIENTED_EDGE('',*,*,#680,.F.);
#765 = ORIENTED_EDGE('',*,*,#601,.F.);
#766 = PLANE('',#767);
#767 = AXIS2_PLACEMENT_3D('',#768,#769,#770);
#768 = CARTESIAN_POINT('',(-21.,-13.,-4.5));
#769 = DIRECTION('',(0.,1.,0.));
#770 = DIRECTION('',(0.,0.,1.));
#771 = ADVANCED_FACE('',(#772),#797,.F.);
#772 = FACE_BOUND('',#773,.F.);
#773 = EDGE_LOOP('',(#774,#775,#783,#791));
#774 = ORIENTED_EDGE('',*,*,#525,.F.);
#775 = ORIENTED_EDGE('',*,*,#776,.F.);
#776 = EDGE_CURVE('',#777,#526,#779,.T.);
#777 = VERTEX_POINT('',#778);
#778 = CARTESIAN_POINT('',(19.5,2.9,-3.));
#779 = LINE('',#780,#781);
#780 = CARTESIAN_POINT('',(11.,2.9,-3.));
#781 = VECTOR('',#782,1.);
#782 = DIRECTION('',(1.,0.,0.));
#783 = ORIENTED_EDGE('',*,*,#784,.T.);
#784 = EDGE_CURVE('',#777,#785,#787,.T.);
#785 = VERTEX_POINT('',#786);
#786 = CARTESIAN_POINT('',(19.5,2.9,-2.995993579438));
#787 = LINE('',#788,#789);
#788 = CARTESIAN_POINT('',(19.5,2.9,-3.25));
#789 = VECTOR('',#790,1.);
#790 = DIRECTION('',(0.,0.,1.));
#791 = ORIENTED_EDGE('',*,*,#792,.F.);
#792 = EDGE_CURVE('',#528,#785,#793,.T.);
#793 = LINE('',#794,#795);
#794 = CARTESIAN_POINT('',(11.,2.9,-2.995993579438));
#795 = VECTOR('',#796,1.);
#796 = DIRECTION('',(-1.,-0.,-2.22044604925E-16));
#797 = PLANE('',#798);
#798 = AXIS2_PLACEMENT_3D('',#799,#800,#801);
#799 = CARTESIAN_POINT('',(11.,2.9,-3.));
#800 = DIRECTION('',(0.,1.,0.));
#801 = DIRECTION('',(0.,0.,1.));
#802 = ADVANCED_FACE('',(#803),#822,.F.);
#803 = FACE_BOUND('',#804,.T.);
#804 = EDGE_LOOP('',(#805,#806,#807,#815));
#805 = ORIENTED_EDGE('',*,*,#792,.F.);
#806 = ORIENTED_EDGE('',*,*,#584,.F.);
#807 = ORIENTED_EDGE('',*,*,#808,.T.);
#808 = EDGE_CURVE('',#577,#809,#811,.T.);
#809 = VERTEX_POINT('',#810);
#810 = CARTESIAN_POINT('',(19.5,2.9,-0.504006420562));
#811 = LINE('',#812,#813);
#812 = CARTESIAN_POINT('',(11.,2.9,-0.504006420562));
#813 = VECTOR('',#814,1.);
#814 = DIRECTION('',(-1.,-0.,-2.22044604925E-16));
#815 = ORIENTED_EDGE('',*,*,#816,.T.);
#816 = EDGE_CURVE('',#809,#785,#817,.T.);
#817 = CIRCLE('',#818,1.25);
#818 = AXIS2_PLACEMENT_3D('',#819,#820,#821);
#819 = CARTESIAN_POINT('',(19.5,3.,-1.75));
#820 = DIRECTION('',(-1.,-0.,-2.22044604925E-16));
#821 = DIRECTION('',(2.22044604925E-16,0.,-1.));
#822 = CYLINDRICAL_SURFACE('',#823,1.25);
#823 = AXIS2_PLACEMENT_3D('',#824,#825,#826);
#824 = CARTESIAN_POINT('',(11.,3.,-1.75));
#825 = DIRECTION('',(-1.,-0.,-2.22044604925E-16));
#826 = DIRECTION('',(2.22044604925E-16,0.,-1.));
#827 = ADVANCED_FACE('',(#828),#846,.F.);
#828 = FACE_BOUND('',#829,.F.);
#829 = EDGE_LOOP('',(#830,#831,#832,#840));
#830 = ORIENTED_EDGE('',*,*,#576,.F.);
#831 = ORIENTED_EDGE('',*,*,#808,.T.);
#832 = ORIENTED_EDGE('',*,*,#833,.T.);
#833 = EDGE_CURVE('',#809,#834,#836,.T.);
#834 = VERTEX_POINT('',#835);
#835 = CARTESIAN_POINT('',(19.5,2.9,-0.5));
#836 = LINE('',#837,#838);
#837 = CARTESIAN_POINT('',(19.5,2.9,-3.25));
#838 = VECTOR('',#839,1.);
#839 = DIRECTION('',(0.,0.,1.));
#840 = ORIENTED_EDGE('',*,*,#841,.T.);
#841 = EDGE_CURVE('',#834,#569,#842,.T.);
#842 = LINE('',#843,#844);
#843 = CARTESIAN_POINT('',(11.,2.9,-0.5));
#844 = VECTOR('',#845,1.);
#845 = DIRECTION('',(1.,0.,0.));
#846 = PLANE('',#847);
#847 = AXIS2_PLACEMENT_3D('',#848,#849,#850);
#848 = CARTESIAN_POINT('',(11.,2.9,-3.));
#849 = DIRECTION('',(0.,1.,0.));
#850 = DIRECTION('',(0.,0.,1.));
#851 = ADVANCED_FACE('',(#852),#870,.F.);
#852 = FACE_BOUND('',#853,.F.);
#853 = EDGE_LOOP('',(#854,#855,#863,#869));
#854 = ORIENTED_EDGE('',*,*,#841,.F.);
#855 = ORIENTED_EDGE('',*,*,#856,.T.);
#856 = EDGE_CURVE('',#834,#857,#859,.T.);
#857 = VERTEX_POINT('',#858);
#858 = CARTESIAN_POINT('',(19.5,-2.9,-0.5));
#859 = LINE('',#860,#861);
#860 = CARTESIAN_POINT('',(19.5,-7.2,-0.5));
#861 = VECTOR('',#862,1.);
#862 = DIRECTION('',(0.,-1.,0.));
#863 = ORIENTED_EDGE('',*,*,#864,.T.);
#864 = EDGE_CURVE('',#857,#561,#865,.T.);
#865 = LINE('',#866,#867);
#866 = CARTESIAN_POINT('',(11.,-2.9,-0.5));
#867 = VECTOR('',#868,1.);
#868 = DIRECTION('',(1.,0.,0.));
#869 = ORIENTED_EDGE('',*,*,#568,.F.);
#870 = PLANE('',#871);
#871 = AXIS2_PLACEMENT_3D('',#872,#873,#874);
#872 = CARTESIAN_POINT('',(11.,-2.9,-0.5));
#873 = DIRECTION('',(0.,0.,1.));
#874 = DIRECTION('',(1.,0.,0.));
#875 = ADVANCED_FACE('',(#876),#894,.T.);
#876 = FACE_BOUND('',#877,.T.);
#877 = EDGE_LOOP('',(#878,#879,#887,#893));
#878 = ORIENTED_EDGE('',*,*,#560,.F.);
#879 = ORIENTED_EDGE('',*,*,#880,.T.);
#880 = EDGE_CURVE('',#552,#881,#883,.T.);
#881 = VERTEX_POINT('',#882);
#882 = CARTESIAN_POINT('',(19.5,-2.9,-0.504006420562));
#883 = LINE('',#884,#885);
#884 = CARTESIAN_POINT('',(11.,-2.9,-0.504006420562));
#885 = VECTOR('',#886,1.);
#886 = DIRECTION('',(-1.,-0.,-2.22044604925E-16));
#887 = ORIENTED_EDGE('',*,*,#888,.T.);
#888 = EDGE_CURVE('',#881,#857,#889,.T.);
#889 = LINE('',#890,#891);
#890 = CARTESIAN_POINT('',(19.5,-2.9,-3.25));
#891 = VECTOR('',#892,1.);
#892 = DIRECTION('',(0.,0.,1.));
#893 = ORIENTED_EDGE('',*,*,#864,.T.);
#894 = PLANE('',#895);
#895 = AXIS2_PLACEMENT_3D('',#896,#897,#898);
#896 = CARTESIAN_POINT('',(11.,-2.9,-3.));
#897 = DIRECTION('',(0.,1.,0.));
#898 = DIRECTION('',(0.,0.,1.));
#899 = ADVANCED_FACE('',(#900),#919,.F.);
#900 = FACE_BOUND('',#901,.T.);
#901 = EDGE_LOOP('',(#902,#903,#904,#912));
#902 = ORIENTED_EDGE('',*,*,#880,.F.);
#903 = ORIENTED_EDGE('',*,*,#551,.F.);
#904 = ORIENTED_EDGE('',*,*,#905,.T.);
#905 = EDGE_CURVE('',#544,#906,#908,.T.);
#906 = VERTEX_POINT('',#907);
#907 = CARTESIAN_POINT('',(19.5,-2.9,-2.995993579438));
#908 = LINE('',#909,#910);
#909 = CARTESIAN_POINT('',(11.,-2.9,-2.995993579438));
#910 = VECTOR('',#911,1.);
#911 = DIRECTION('',(-1.,-0.,-2.22044604925E-16));
#912 = ORIENTED_EDGE('',*,*,#913,.T.);
#913 = EDGE_CURVE('',#906,#881,#914,.T.);
#914 = CIRCLE('',#915,1.25);
#915 = AXIS2_PLACEMENT_3D('',#916,#917,#918);
#916 = CARTESIAN_POINT('',(19.5,-3.,-1.75));
#917 = DIRECTION('',(-1.,-0.,-2.22044604925E-16));
#918 = DIRECTION('',(2.22044604925E-16,0.,-1.));
#919 = CYLINDRICAL_SURFACE('',#920,1.25);
#920 = AXIS2_PLACEMENT_3D('',#921,#922,#923);
#921 = CARTESIAN_POINT('',(11.,-3.,-1.75));
#922 = DIRECTION('',(-1.,-0.,-2.22044604925E-16));
#923 = DIRECTION('',(2.22044604925E-16,0.,-1.));
#924 = ADVANCED_FACE('',(#925),#943,.T.);
#925 = FACE_BOUND('',#926,.T.);
#926 = EDGE_LOOP('',(#927,#928,#936,#942));
#927 = ORIENTED_EDGE('',*,*,#543,.F.);
#928 = ORIENTED_EDGE('',*,*,#929,.F.);
#929 = EDGE_CURVE('',#930,#536,#932,.T.);
#930 = VERTEX_POINT('',#931);
#931 = CARTESIAN_POINT('',(19.5,-2.9,-3.));
#932 = LINE('',#933,#934);
#933 = CARTESIAN_POINT('',(11.,-2.9,-3.));
#934 = VECTOR('',#935,1.);
#935 = DIRECTION('',(1.,0.,0.));
#936 = ORIENTED_EDGE('',*,*,#937,.T.);
#937 = EDGE_CURVE('',#930,#906,#938,.T.);
#938 = LINE('',#939,#940);
#939 = CARTESIAN_POINT('',(19.5,-2.9,-3.25));
#940 = VECTOR('',#941,1.);
#941 = DIRECTION('',(0.,0.,1.));
#942 = ORIENTED_EDGE('',*,*,#905,.F.);
#943 = PLANE('',#944);
#944 = AXIS2_PLACEMENT_3D('',#945,#946,#947);
#945 = CARTESIAN_POINT('',(11.,-2.9,-3.));
#946 = DIRECTION('',(0.,1.,0.));
#947 = DIRECTION('',(0.,0.,1.));
#948 = ADVANCED_FACE('',(#949),#960,.T.);
#949 = FACE_BOUND('',#950,.T.);
#950 = EDGE_LOOP('',(#951,#952,#958,#959));
#951 = ORIENTED_EDGE('',*,*,#776,.F.);
#952 = ORIENTED_EDGE('',*,*,#953,.T.);
#953 = EDGE_CURVE('',#777,#930,#954,.T.);
#954 = LINE('',#955,#956);
#955 = CARTESIAN_POINT('',(19.5,-7.2,-3.));
#956 = VECTOR('',#957,1.);
#957 = DIRECTION('',(0.,-1.,0.));
#958 = ORIENTED_EDGE('',*,*,#929,.T.);
#959 = ORIENTED_EDGE('',*,*,#535,.F.);
#960 = PLANE('',#961);
#961 = AXIS2_PLACEMENT_3D('',#962,#963,#964);
#962 = CARTESIAN_POINT('',(11.,-2.9,-3.));
#963 = DIRECTION('',(0.,0.,1.));
#964 = DIRECTION('',(1.,0.,0.));
#965 = ADVANCED_FACE('',(#966),#993,.T.);
#966 = FACE_BOUND('',#967,.T.);
#967 = EDGE_LOOP('',(#968,#976,#984,#990,#991,#992));
#968 = ORIENTED_EDGE('',*,*,#969,.T.);
#969 = EDGE_CURVE('',#697,#970,#972,.T.);
#970 = VERTEX_POINT('',#971);
#971 = CARTESIAN_POINT('',(16.2,-11.5,-0.5));
#972 = LINE('',#973,#974);
#973 = CARTESIAN_POINT('',(16.2,-12.1,-0.5));
#974 = VECTOR('',#975,1.);
#975 = DIRECTION('',(0.,1.,0.));
#976 = ORIENTED_EDGE('',*,*,#977,.F.);
#977 = EDGE_CURVE('',#978,#970,#980,.T.);
#978 = VERTEX_POINT('',#979);
#979 = CARTESIAN_POINT('',(12.4,-11.5,-0.5));
#980 = LINE('',#981,#982);
#981 = CARTESIAN_POINT('',(-3.55,-11.5,-0.5));
#982 = VECTOR('',#983,1.);
#983 = DIRECTION('',(1.,0.,0.));
#984 = ORIENTED_EDGE('',*,*,#985,.F.);
#985 = EDGE_CURVE('',#727,#978,#986,.T.);
#986 = LINE('',#987,#988);
#987 = CARTESIAN_POINT('',(12.4,-12.1,-0.5));
#988 = VECTOR('',#989,1.);
#989 = DIRECTION('',(0.,1.,0.));
#990 = ORIENTED_EDGE('',*,*,#736,.T.);
#991 = ORIENTED_EDGE('',*,*,#654,.F.);
#992 = ORIENTED_EDGE('',*,*,#696,.T.);
#993 = PLANE('',#994);
#994 = AXIS2_PLACEMENT_3D('',#995,#996,#997);
#995 = CARTESIAN_POINT('',(12.4,-12.1,-0.5));
#996 = DIRECTION('',(0.,0.,1.));
#997 = DIRECTION('',(1.,0.,0.));
#998 = ADVANCED_FACE('',(#999),#1033,.F.);
#999 = FACE_BOUND('',#1000,.F.);
#1000 = EDGE_LOOP('',(#1001,#1002,#1003,#1011,#1019,#1027));
#1001 = ORIENTED_EDGE('',*,*,#704,.F.);
#1002 = ORIENTED_EDGE('',*,*,#969,.T.);
#1003 = ORIENTED_EDGE('',*,*,#1004,.F.);
#1004 = EDGE_CURVE('',#1005,#970,#1007,.T.);
#1005 = VERTEX_POINT('',#1006);
#1006 = CARTESIAN_POINT('',(16.2,-11.5,0.));
#1007 = LINE('',#1008,#1009);
#1008 = CARTESIAN_POINT('',(16.2,-11.5,-2.));
#1009 = VECTOR('',#1010,1.);
#1010 = DIRECTION('',(0.,0.,-1.));
#1011 = ORIENTED_EDGE('',*,*,#1012,.F.);
#1012 = EDGE_CURVE('',#1013,#1005,#1015,.T.);
#1013 = VERTEX_POINT('',#1014);
#1014 = CARTESIAN_POINT('',(16.2,-12.,0.));
#1015 = LINE('',#1016,#1017);
#1016 = CARTESIAN_POINT('',(16.2,-12.05,0.));
#1017 = VECTOR('',#1018,1.);
#1018 = DIRECTION('',(0.,1.,0.));
#1019 = ORIENTED_EDGE('',*,*,#1020,.F.);
#1020 = EDGE_CURVE('',#1021,#1013,#1023,.T.);
#1021 = VERTEX_POINT('',#1022);
#1022 = CARTESIAN_POINT('',(16.2,-12.,1.));
#1023 = LINE('',#1024,#1025);
#1024 = CARTESIAN_POINT('',(16.2,-12.,-0.25));
#1025 = VECTOR('',#1026,1.);
#1026 = DIRECTION('',(0.,0.,-1.));
#1027 = ORIENTED_EDGE('',*,*,#1028,.F.);
#1028 = EDGE_CURVE('',#705,#1021,#1029,.T.);
#1029 = LINE('',#1030,#1031);
#1030 = CARTESIAN_POINT('',(16.2,-12.1,1.));
#1031 = VECTOR('',#1032,1.);
#1032 = DIRECTION('',(0.,1.,0.));
#1033 = PLANE('',#1034);
#1034 = AXIS2_PLACEMENT_3D('',#1035,#1036,#1037);
#1035 = CARTESIAN_POINT('',(16.2,-12.1,-0.5));
#1036 = DIRECTION('',(1.,0.,0.));
#1037 = DIRECTION('',(0.,0.,1.));
#1038 = ADVANCED_FACE('',(#1039),#1064,.T.);
#1039 = FACE_BOUND('',#1040,.T.);
#1040 = EDGE_LOOP('',(#1041,#1049,#1050,#1058));
#1041 = ORIENTED_EDGE('',*,*,#1042,.F.);
#1042 = EDGE_CURVE('',#1013,#1043,#1045,.T.);
#1043 = VERTEX_POINT('',#1044);
#1044 = CARTESIAN_POINT('',(17.,-12.,0.));
#1045 = LINE('',#1046,#1047);
#1046 = CARTESIAN_POINT('',(-20.,-12.,0.));
#1047 = VECTOR('',#1048,1.);
#1048 = DIRECTION('',(1.,0.,0.));
#1049 = ORIENTED_EDGE('',*,*,#1020,.F.);
#1050 = ORIENTED_EDGE('',*,*,#1051,.F.);
#1051 = EDGE_CURVE('',#1052,#1021,#1054,.T.);
#1052 = VERTEX_POINT('',#1053);
#1053 = CARTESIAN_POINT('',(17.,-12.,1.));
#1054 = LINE('',#1055,#1056);
#1055 = CARTESIAN_POINT('',(-20.5,-12.,1.));
#1056 = VECTOR('',#1057,1.);
#1057 = DIRECTION('',(-1.,0.,0.));
#1058 = ORIENTED_EDGE('',*,*,#1059,.F.);
#1059 = EDGE_CURVE('',#1043,#1052,#1060,.T.);
#1060 = LINE('',#1061,#1062);
#1061 = CARTESIAN_POINT('',(17.,-12.,0.));
#1062 = VECTOR('',#1063,1.);
#1063 = DIRECTION('',(0.,0.,1.));
#1064 = PLANE('',#1065);
#1065 = AXIS2_PLACEMENT_3D('',#1066,#1067,#1068);
#1066 = CARTESIAN_POINT('',(-20.,-12.,0.));
#1067 = DIRECTION('',(0.,1.,0.));
#1068 = DIRECTION('',(0.,0.,1.));
#1069 = ADVANCED_FACE('',(#1070),#1097,.F.);
#1070 = FACE_BOUND('',#1071,.T.);
#1071 = EDGE_LOOP('',(#1072,#1082,#1089,#1090));
#1072 = ORIENTED_EDGE('',*,*,#1073,.F.);
#1073 = EDGE_CURVE('',#1074,#1076,#1078,.T.);
#1074 = VERTEX_POINT('',#1075);
#1075 = CARTESIAN_POINT('',(20.,-9.,0.));
#1076 = VERTEX_POINT('',#1077);
#1077 = CARTESIAN_POINT('',(20.,-9.,1.));
#1078 = LINE('',#1079,#1080);
#1079 = CARTESIAN_POINT('',(20.,-9.,0.));
#1080 = VECTOR('',#1081,1.);
#1081 = DIRECTION('',(0.,0.,1.));
#1082 = ORIENTED_EDGE('',*,*,#1083,.T.);
#1083 = EDGE_CURVE('',#1074,#1043,#1084,.T.);
#1084 = CIRCLE('',#1085,3.);
#1085 = AXIS2_PLACEMENT_3D('',#1086,#1087,#1088);
#1086 = CARTESIAN_POINT('',(17.,-9.,0.));
#1087 = DIRECTION('',(-0.,-0.,-1.));
#1088 = DIRECTION('',(0.,-1.,0.));
#1089 = ORIENTED_EDGE('',*,*,#1059,.T.);
#1090 = ORIENTED_EDGE('',*,*,#1091,.T.);
#1091 = EDGE_CURVE('',#1052,#1076,#1092,.T.);
#1092 = CIRCLE('',#1093,3.);
#1093 = AXIS2_PLACEMENT_3D('',#1094,#1095,#1096);
#1094 = CARTESIAN_POINT('',(17.,-9.,1.));
#1095 = DIRECTION('',(0.,0.,1.));
#1096 = DIRECTION('',(1.,0.,0.));
#1097 = CYLINDRICAL_SURFACE('',#1098,3.);
#1098 = AXIS2_PLACEMENT_3D('',#1099,#1100,#1101);
#1099 = CARTESIAN_POINT('',(17.,-9.,0.));
#1100 = DIRECTION('',(0.,0.,1.));
#1101 = DIRECTION('',(1.,0.,0.));
#1102 = ADVANCED_FACE('',(#1103),#1128,.F.);
#1103 = FACE_BOUND('',#1104,.F.);
#1104 = EDGE_LOOP('',(#1105,#1113,#1114,#1122));
#1105 = ORIENTED_EDGE('',*,*,#1106,.F.);
#1106 = EDGE_CURVE('',#1076,#1107,#1109,.T.);
#1107 = VERTEX_POINT('',#1108);
#1108 = CARTESIAN_POINT('',(20.,9.,1.));
#1109 = LINE('',#1110,#1111);
#1110 = CARTESIAN_POINT('',(20.,-12.5,1.));
#1111 = VECTOR('',#1112,1.);
#1112 = DIRECTION('',(0.,1.,0.));
#1113 = ORIENTED_EDGE('',*,*,#1073,.F.);
#1114 = ORIENTED_EDGE('',*,*,#1115,.T.);
#1115 = EDGE_CURVE('',#1074,#1116,#1118,.T.);
#1116 = VERTEX_POINT('',#1117);
#1117 = CARTESIAN_POINT('',(20.,9.,0.));
#1118 = LINE('',#1119,#1120);
#1119 = CARTESIAN_POINT('',(20.,-12.,0.));
#1120 = VECTOR('',#1121,1.);
#1121 = DIRECTION('',(0.,1.,0.));
#1122 = ORIENTED_EDGE('',*,*,#1123,.T.);
#1123 = EDGE_CURVE('',#1116,#1107,#1124,.T.);
#1124 = LINE('',#1125,#1126);
#1125 = CARTESIAN_POINT('',(20.,9.,0.));
#1126 = VECTOR('',#1127,1.);
#1127 = DIRECTION('',(0.,0.,1.));
#1128 = PLANE('',#1129);
#1129 = AXIS2_PLACEMENT_3D('',#1130,#1131,#1132);
#1130 = CARTESIAN_POINT('',(20.,-12.,0.));
#1131 = DIRECTION('',(1.,0.,0.));
#1132 = DIRECTION('',(0.,0.,1.));
#1133 = ADVANCED_FACE('',(#1134),#1161,.F.);
#1134 = FACE_BOUND('',#1135,.F.);
#1135 = EDGE_LOOP('',(#1136,#1137,#1146,#1154));
#1136 = ORIENTED_EDGE('',*,*,#1123,.F.);
#1137 = ORIENTED_EDGE('',*,*,#1138,.T.);
#1138 = EDGE_CURVE('',#1116,#1139,#1141,.T.);
#1139 = VERTEX_POINT('',#1140);
#1140 = CARTESIAN_POINT('',(17.,12.,0.));
#1141 = CIRCLE('',#1142,3.);
#1142 = AXIS2_PLACEMENT_3D('',#1143,#1144,#1145);
#1143 = CARTESIAN_POINT('',(17.,9.,0.));
#1144 = DIRECTION('',(-0.,0.,1.));
#1145 = DIRECTION('',(0.,-1.,0.));
#1146 = ORIENTED_EDGE('',*,*,#1147,.T.);
#1147 = EDGE_CURVE('',#1139,#1148,#1150,.T.);
#1148 = VERTEX_POINT('',#1149);
#1149 = CARTESIAN_POINT('',(17.,12.,1.));
#1150 = LINE('',#1151,#1152);
#1151 = CARTESIAN_POINT('',(17.,12.,0.));
#1152 = VECTOR('',#1153,1.);
#1153 = DIRECTION('',(0.,0.,1.));
#1154 = ORIENTED_EDGE('',*,*,#1155,.F.);
#1155 = EDGE_CURVE('',#1107,#1148,#1156,.T.);
#1156 = CIRCLE('',#1157,3.);
#1157 = AXIS2_PLACEMENT_3D('',#1158,#1159,#1160);
#1158 = CARTESIAN_POINT('',(17.,9.,1.));
#1159 = DIRECTION('',(0.,0.,1.));
#1160 = DIRECTION('',(1.,0.,0.));
#1161 = CYLINDRICAL_SURFACE('',#1162,3.);
#1162 = AXIS2_PLACEMENT_3D('',#1163,#1164,#1165);
#1163 = CARTESIAN_POINT('',(17.,9.,0.));
#1164 = DIRECTION('',(0.,0.,1.));
#1165 = DIRECTION('',(1.,0.,0.));
#1166 = ADVANCED_FACE('',(#1167),#1192,.F.);
#1167 = FACE_BOUND('',#1168,.F.);
#1168 = EDGE_LOOP('',(#1169,#1177,#1185,#1191));
#1169 = ORIENTED_EDGE('',*,*,#1170,.F.);
#1170 = EDGE_CURVE('',#1171,#1139,#1173,.T.);
#1171 = VERTEX_POINT('',#1172);
#1172 = CARTESIAN_POINT('',(-17.,12.,0.));
#1173 = LINE('',#1174,#1175);
#1174 = CARTESIAN_POINT('',(-20.,12.,0.));
#1175 = VECTOR('',#1176,1.);
#1176 = DIRECTION('',(1.,0.,0.));
#1177 = ORIENTED_EDGE('',*,*,#1178,.T.);
#1178 = EDGE_CURVE('',#1171,#1179,#1181,.T.);
#1179 = VERTEX_POINT('',#1180);
#1180 = CARTESIAN_POINT('',(-17.,12.,1.));
#1181 = LINE('',#1182,#1183);
#1182 = CARTESIAN_POINT('',(-17.,12.,0.));
#1183 = VECTOR('',#1184,1.);
#1184 = DIRECTION('',(0.,0.,1.));
#1185 = ORIENTED_EDGE('',*,*,#1186,.F.);
#1186 = EDGE_CURVE('',#1148,#1179,#1187,.T.);
#1187 = LINE('',#1188,#1189);
#1188 = CARTESIAN_POINT('',(-20.5,12.,1.));
#1189 = VECTOR('',#1190,1.);
#1190 = DIRECTION('',(-1.,0.,0.));
#1191 = ORIENTED_EDGE('',*,*,#1147,.F.);
#1192 = PLANE('',#1193);
#1193 = AXIS2_PLACEMENT_3D('',#1194,#1195,#1196);
#1194 = CARTESIAN_POINT('',(-20.,12.,0.));
#1195 = DIRECTION('',(0.,1.,0.));
#1196 = DIRECTION('',(0.,0.,1.));
#1197 = ADVANCED_FACE('',(#1198),#1225,.F.);
#1198 = FACE_BOUND('',#1199,.T.);
#1199 = EDGE_LOOP('',(#1200,#1210,#1217,#1218));
#1200 = ORIENTED_EDGE('',*,*,#1201,.F.);
#1201 = EDGE_CURVE('',#1202,#1204,#1206,.T.);
#1202 = VERTEX_POINT('',#1203);
#1203 = CARTESIAN_POINT('',(-20.,9.,0.));
#1204 = VERTEX_POINT('',#1205);
#1205 = CARTESIAN_POINT('',(-20.,9.,1.));
#1206 = LINE('',#1207,#1208);
#1207 = CARTESIAN_POINT('',(-20.,9.,0.));
#1208 = VECTOR('',#1209,1.);
#1209 = DIRECTION('',(0.,0.,1.));
#1210 = ORIENTED_EDGE('',*,*,#1211,.T.);
#1211 = EDGE_CURVE('',#1202,#1171,#1212,.T.);
#1212 = CIRCLE('',#1213,3.);
#1213 = AXIS2_PLACEMENT_3D('',#1214,#1215,#1216);
#1214 = CARTESIAN_POINT('',(-17.,9.,0.));
#1215 = DIRECTION('',(-0.,-0.,-1.));
#1216 = DIRECTION('',(0.,-1.,0.));
#1217 = ORIENTED_EDGE('',*,*,#1178,.T.);
#1218 = ORIENTED_EDGE('',*,*,#1219,.T.);
#1219 = EDGE_CURVE('',#1179,#1204,#1220,.T.);
#1220 = CIRCLE('',#1221,3.);
#1221 = AXIS2_PLACEMENT_3D('',#1222,#1223,#1224);
#1222 = CARTESIAN_POINT('',(-17.,9.,1.));
#1223 = DIRECTION('',(0.,0.,1.));
#1224 = DIRECTION('',(-1.,0.,0.));
#1225 = CYLINDRICAL_SURFACE('',#1226,3.);
#1226 = AXIS2_PLACEMENT_3D('',#1227,#1228,#1229);
#1227 = CARTESIAN_POINT('',(-17.,9.,0.));
#1228 = DIRECTION('',(0.,0.,1.));
#1229 = DIRECTION('',(-1.,0.,0.));
#1230 = ADVANCED_FACE('',(#1231),#1313,.T.);
#1231 = FACE_BOUND('',#1232,.T.);
#1232 = EDGE_LOOP('',(#1233,#1241,#1249,#1257,#1266,#1274,#1283,#1291,
    #1300,#1306,#1307,#1308,#1309,#1310,#1311,#1312));
#1233 = ORIENTED_EDGE('',*,*,#1234,.F.);
#1234 = EDGE_CURVE('',#1235,#1202,#1237,.T.);
#1235 = VERTEX_POINT('',#1236);
#1236 = CARTESIAN_POINT('',(-20.,4.5,0.));
#1237 = LINE('',#1238,#1239);
#1238 = CARTESIAN_POINT('',(-20.,-12.,0.));
#1239 = VECTOR('',#1240,1.);
#1240 = DIRECTION('',(0.,1.,0.));
#1241 = ORIENTED_EDGE('',*,*,#1242,.F.);
#1242 = EDGE_CURVE('',#1243,#1235,#1245,.T.);
#1243 = VERTEX_POINT('',#1244);
#1244 = CARTESIAN_POINT('',(-19.5,4.5,0.));
#1245 = LINE('',#1246,#1247);
#1246 = CARTESIAN_POINT('',(-12.,4.5,0.));
#1247 = VECTOR('',#1248,1.);
#1248 = DIRECTION('',(-1.,1.224646799147E-16,0.));
#1249 = ORIENTED_EDGE('',*,*,#1250,.F.);
#1250 = EDGE_CURVE('',#1251,#1243,#1253,.T.);
#1251 = VERTEX_POINT('',#1252);
#1252 = CARTESIAN_POINT('',(-19.5,8.5,0.));
#1253 = LINE('',#1254,#1255);
#1254 = CARTESIAN_POINT('',(-19.5,-11.75,0.));
#1255 = VECTOR('',#1256,1.);
#1256 = DIRECTION('',(0.,-1.,0.));
#1257 = ORIENTED_EDGE('',*,*,#1258,.F.);
#1258 = EDGE_CURVE('',#1259,#1251,#1261,.T.);
#1259 = VERTEX_POINT('',#1260);
#1260 = CARTESIAN_POINT('',(-16.5,11.5,0.));
#1261 = CIRCLE('',#1262,3.);
#1262 = AXIS2_PLACEMENT_3D('',#1263,#1264,#1265);
#1263 = CARTESIAN_POINT('',(-16.5,8.5,0.));
#1264 = DIRECTION('',(0.,0.,1.));
#1265 = DIRECTION('',(-1.,0.,0.));
#1266 = ORIENTED_EDGE('',*,*,#1267,.T.);
#1267 = EDGE_CURVE('',#1259,#1268,#1270,.T.);
#1268 = VERTEX_POINT('',#1269);
#1269 = CARTESIAN_POINT('',(16.5,11.5,0.));
#1270 = LINE('',#1271,#1272);
#1271 = CARTESIAN_POINT('',(-19.75,11.5,0.));
#1272 = VECTOR('',#1273,1.);
#1273 = DIRECTION('',(1.,0.,0.));
#1274 = ORIENTED_EDGE('',*,*,#1275,.F.);
#1275 = EDGE_CURVE('',#1276,#1268,#1278,.T.);
#1276 = VERTEX_POINT('',#1277);
#1277 = CARTESIAN_POINT('',(19.5,8.5,0.));
#1278 = CIRCLE('',#1279,3.);
#1279 = AXIS2_PLACEMENT_3D('',#1280,#1281,#1282);
#1280 = CARTESIAN_POINT('',(16.5,8.5,0.));
#1281 = DIRECTION('',(0.,0.,1.));
#1282 = DIRECTION('',(1.,0.,0.));
#1283 = ORIENTED_EDGE('',*,*,#1284,.T.);
#1284 = EDGE_CURVE('',#1276,#1285,#1287,.T.);
#1285 = VERTEX_POINT('',#1286);
#1286 = CARTESIAN_POINT('',(19.5,-8.5,0.));
#1287 = LINE('',#1288,#1289);
#1288 = CARTESIAN_POINT('',(19.5,-11.75,0.));
#1289 = VECTOR('',#1290,1.);
#1290 = DIRECTION('',(0.,-1.,0.));
#1291 = ORIENTED_EDGE('',*,*,#1292,.F.);
#1292 = EDGE_CURVE('',#1293,#1285,#1295,.T.);
#1293 = VERTEX_POINT('',#1294);
#1294 = CARTESIAN_POINT('',(16.5,-11.5,0.));
#1295 = CIRCLE('',#1296,3.);
#1296 = AXIS2_PLACEMENT_3D('',#1297,#1298,#1299);
#1297 = CARTESIAN_POINT('',(16.5,-8.5,0.));
#1298 = DIRECTION('',(0.,0.,1.));
#1299 = DIRECTION('',(1.,0.,0.));
#1300 = ORIENTED_EDGE('',*,*,#1301,.F.);
#1301 = EDGE_CURVE('',#1005,#1293,#1302,.T.);
#1302 = LINE('',#1303,#1304);
#1303 = CARTESIAN_POINT('',(-19.75,-11.5,0.));
#1304 = VECTOR('',#1305,1.);
#1305 = DIRECTION('',(1.,0.,0.));
#1306 = ORIENTED_EDGE('',*,*,#1012,.F.);
#1307 = ORIENTED_EDGE('',*,*,#1042,.T.);
#1308 = ORIENTED_EDGE('',*,*,#1083,.F.);
#1309 = ORIENTED_EDGE('',*,*,#1115,.T.);
#1310 = ORIENTED_EDGE('',*,*,#1138,.T.);
#1311 = ORIENTED_EDGE('',*,*,#1170,.F.);
#1312 = ORIENTED_EDGE('',*,*,#1211,.F.);
#1313 = PLANE('',#1314);
#1314 = AXIS2_PLACEMENT_3D('',#1315,#1316,#1317);
#1315 = CARTESIAN_POINT('',(-20.,-12.,0.));
#1316 = DIRECTION('',(0.,0.,1.));
#1317 = DIRECTION('',(1.,0.,0.));
#1318 = ADVANCED_FACE('',(#1319),#1353,.T.);
#1319 = FACE_BOUND('',#1320,.T.);
#1320 = EDGE_LOOP('',(#1321,#1322,#1323,#1331,#1339,#1347));
#1321 = ORIENTED_EDGE('',*,*,#726,.F.);
#1322 = ORIENTED_EDGE('',*,*,#985,.T.);
#1323 = ORIENTED_EDGE('',*,*,#1324,.F.);
#1324 = EDGE_CURVE('',#1325,#978,#1327,.T.);
#1325 = VERTEX_POINT('',#1326);
#1326 = CARTESIAN_POINT('',(12.4,-11.5,0.));
#1327 = LINE('',#1328,#1329);
#1328 = CARTESIAN_POINT('',(12.4,-11.5,-2.));
#1329 = VECTOR('',#1330,1.);
#1330 = DIRECTION('',(0.,0.,-1.));
#1331 = ORIENTED_EDGE('',*,*,#1332,.F.);
#1332 = EDGE_CURVE('',#1333,#1325,#1335,.T.);
#1333 = VERTEX_POINT('',#1334);
#1334 = CARTESIAN_POINT('',(12.4,-12.,0.));
#1335 = LINE('',#1336,#1337);
#1336 = CARTESIAN_POINT('',(12.4,-12.05,0.));
#1337 = VECTOR('',#1338,1.);
#1338 = DIRECTION('',(0.,1.,0.));
#1339 = ORIENTED_EDGE('',*,*,#1340,.F.);
#1340 = EDGE_CURVE('',#1341,#1333,#1343,.T.);
#1341 = VERTEX_POINT('',#1342);
#1342 = CARTESIAN_POINT('',(12.4,-12.,1.));
#1343 = LINE('',#1344,#1345);
#1344 = CARTESIAN_POINT('',(12.4,-12.,-0.25));
#1345 = VECTOR('',#1346,1.);
#1346 = DIRECTION('',(0.,0.,-1.));
#1347 = ORIENTED_EDGE('',*,*,#1348,.F.);
#1348 = EDGE_CURVE('',#729,#1341,#1349,.T.);
#1349 = LINE('',#1350,#1351);
#1350 = CARTESIAN_POINT('',(12.4,-12.1,1.));
#1351 = VECTOR('',#1352,1.);
#1352 = DIRECTION('',(0.,1.,0.));
#1353 = PLANE('',#1354);
#1354 = AXIS2_PLACEMENT_3D('',#1355,#1356,#1357);
#1355 = CARTESIAN_POINT('',(12.4,-12.1,-0.5));
#1356 = DIRECTION('',(1.,0.,0.));
#1357 = DIRECTION('',(0.,0.,1.));
#1358 = ADVANCED_FACE('',(#1359),#1395,.F.);
#1359 = FACE_BOUND('',#1360,.F.);
#1360 = EDGE_LOOP('',(#1361,#1371,#1380,#1388));
#1361 = ORIENTED_EDGE('',*,*,#1362,.F.);
#1362 = EDGE_CURVE('',#1363,#1365,#1367,.T.);
#1363 = VERTEX_POINT('',#1364);
#1364 = CARTESIAN_POINT('',(-20.,-9.,0.));
#1365 = VERTEX_POINT('',#1366);
#1366 = CARTESIAN_POINT('',(-20.,-9.,1.));
#1367 = LINE('',#1368,#1369);
#1368 = CARTESIAN_POINT('',(-20.,-9.,0.));
#1369 = VECTOR('',#1370,1.);
#1370 = DIRECTION('',(0.,0.,1.));
#1371 = ORIENTED_EDGE('',*,*,#1372,.T.);
#1372 = EDGE_CURVE('',#1363,#1373,#1375,.T.);
#1373 = VERTEX_POINT('',#1374);
#1374 = CARTESIAN_POINT('',(-17.,-12.,0.));
#1375 = CIRCLE('',#1376,3.);
#1376 = AXIS2_PLACEMENT_3D('',#1377,#1378,#1379);
#1377 = CARTESIAN_POINT('',(-17.,-9.,0.));
#1378 = DIRECTION('',(-0.,0.,1.));
#1379 = DIRECTION('',(0.,-1.,0.));
#1380 = ORIENTED_EDGE('',*,*,#1381,.T.);
#1381 = EDGE_CURVE('',#1373,#1382,#1384,.T.);
#1382 = VERTEX_POINT('',#1383);
#1383 = CARTESIAN_POINT('',(-17.,-12.,1.));
#1384 = LINE('',#1385,#1386);
#1385 = CARTESIAN_POINT('',(-17.,-12.,0.));
#1386 = VECTOR('',#1387,1.);
#1387 = DIRECTION('',(0.,0.,1.));
#1388 = ORIENTED_EDGE('',*,*,#1389,.F.);
#1389 = EDGE_CURVE('',#1365,#1382,#1390,.T.);
#1390 = CIRCLE('',#1391,3.);
#1391 = AXIS2_PLACEMENT_3D('',#1392,#1393,#1394);
#1392 = CARTESIAN_POINT('',(-17.,-9.,1.));
#1393 = DIRECTION('',(0.,0.,1.));
#1394 = DIRECTION('',(-1.,0.,0.));
#1395 = CYLINDRICAL_SURFACE('',#1396,3.);
#1396 = AXIS2_PLACEMENT_3D('',#1397,#1398,#1399);
#1397 = CARTESIAN_POINT('',(-17.,-9.,0.));
#1398 = DIRECTION('',(0.,0.,1.));
#1399 = DIRECTION('',(-1.,0.,0.));
#1400 = ADVANCED_FACE('',(#1401),#1417,.T.);
#1401 = FACE_BOUND('',#1402,.T.);
#1402 = EDGE_LOOP('',(#1403,#1409,#1410,#1416));
#1403 = ORIENTED_EDGE('',*,*,#1404,.F.);
#1404 = EDGE_CURVE('',#1373,#1333,#1405,.T.);
#1405 = LINE('',#1406,#1407);
#1406 = CARTESIAN_POINT('',(-20.,-12.,0.));
#1407 = VECTOR('',#1408,1.);
#1408 = DIRECTION('',(1.,0.,0.));
#1409 = ORIENTED_EDGE('',*,*,#1381,.T.);
#1410 = ORIENTED_EDGE('',*,*,#1411,.F.);
#1411 = EDGE_CURVE('',#1341,#1382,#1412,.T.);
#1412 = LINE('',#1413,#1414);
#1413 = CARTESIAN_POINT('',(-20.5,-12.,1.));
#1414 = VECTOR('',#1415,1.);
#1415 = DIRECTION('',(-1.,0.,0.));
#1416 = ORIENTED_EDGE('',*,*,#1340,.T.);
#1417 = PLANE('',#1418);
#1418 = AXIS2_PLACEMENT_3D('',#1419,#1420,#1421);
#1419 = CARTESIAN_POINT('',(-20.,-12.,0.));
#1420 = DIRECTION('',(0.,1.,0.));
#1421 = DIRECTION('',(0.,0.,1.));
#1422 = ADVANCED_FACE('',(#1423),#1467,.T.);
#1423 = FACE_BOUND('',#1424,.T.);
#1424 = EDGE_LOOP('',(#1425,#1433,#1434,#1435,#1436,#1444,#1453,#1461));
#1425 = ORIENTED_EDGE('',*,*,#1426,.F.);
#1426 = EDGE_CURVE('',#1363,#1427,#1429,.T.);
#1427 = VERTEX_POINT('',#1428);
#1428 = CARTESIAN_POINT('',(-20.,-4.5,0.));
#1429 = LINE('',#1430,#1431);
#1430 = CARTESIAN_POINT('',(-20.,-12.,0.));
#1431 = VECTOR('',#1432,1.);
#1432 = DIRECTION('',(0.,1.,0.));
#1433 = ORIENTED_EDGE('',*,*,#1372,.T.);
#1434 = ORIENTED_EDGE('',*,*,#1404,.T.);
#1435 = ORIENTED_EDGE('',*,*,#1332,.T.);
#1436 = ORIENTED_EDGE('',*,*,#1437,.F.);
#1437 = EDGE_CURVE('',#1438,#1325,#1440,.T.);
#1438 = VERTEX_POINT('',#1439);
#1439 = CARTESIAN_POINT('',(-16.5,-11.5,0.));
#1440 = LINE('',#1441,#1442);
#1441 = CARTESIAN_POINT('',(-19.75,-11.5,0.));
#1442 = VECTOR('',#1443,1.);
#1443 = DIRECTION('',(1.,0.,0.));
#1444 = ORIENTED_EDGE('',*,*,#1445,.F.);
#1445 = EDGE_CURVE('',#1446,#1438,#1448,.T.);
#1446 = VERTEX_POINT('',#1447);
#1447 = CARTESIAN_POINT('',(-19.5,-8.5,0.));
#1448 = CIRCLE('',#1449,3.);
#1449 = AXIS2_PLACEMENT_3D('',#1450,#1451,#1452);
#1450 = CARTESIAN_POINT('',(-16.5,-8.5,0.));
#1451 = DIRECTION('',(0.,0.,1.));
#1452 = DIRECTION('',(-1.,0.,0.));
#1453 = ORIENTED_EDGE('',*,*,#1454,.F.);
#1454 = EDGE_CURVE('',#1455,#1446,#1457,.T.);
#1455 = VERTEX_POINT('',#1456);
#1456 = CARTESIAN_POINT('',(-19.5,-4.5,0.));
#1457 = LINE('',#1458,#1459);
#1458 = CARTESIAN_POINT('',(-19.5,-11.75,0.));
#1459 = VECTOR('',#1460,1.);
#1460 = DIRECTION('',(0.,-1.,0.));
#1461 = ORIENTED_EDGE('',*,*,#1462,.T.);
#1462 = EDGE_CURVE('',#1455,#1427,#1463,.T.);
#1463 = LINE('',#1464,#1465);
#1464 = CARTESIAN_POINT('',(-12.,-4.5,0.));
#1465 = VECTOR('',#1466,1.);
#1466 = DIRECTION('',(-1.,1.224646799147E-16,0.));
#1467 = PLANE('',#1468);
#1468 = AXIS2_PLACEMENT_3D('',#1469,#1470,#1471);
#1469 = CARTESIAN_POINT('',(-20.,-12.,0.));
#1470 = DIRECTION('',(0.,0.,1.));
#1471 = DIRECTION('',(1.,0.,0.));
#1472 = ADVANCED_FACE('',(#1473),#1498,.T.);
#1473 = FACE_BOUND('',#1474,.T.);
#1474 = EDGE_LOOP('',(#1475,#1485,#1491,#1492));
#1475 = ORIENTED_EDGE('',*,*,#1476,.F.);
#1476 = EDGE_CURVE('',#1477,#1479,#1481,.T.);
#1477 = VERTEX_POINT('',#1478);
#1478 = CARTESIAN_POINT('',(-19.5,4.5,-3.5));
#1479 = VERTEX_POINT('',#1480);
#1480 = CARTESIAN_POINT('',(-20.,4.5,-3.5));
#1481 = LINE('',#1482,#1483);
#1482 = CARTESIAN_POINT('',(-12.,4.5,-3.5));
#1483 = VECTOR('',#1484,1.);
#1484 = DIRECTION('',(-1.,1.224646799147E-16,0.));
#1485 = ORIENTED_EDGE('',*,*,#1486,.F.);
#1486 = EDGE_CURVE('',#1243,#1477,#1487,.T.);
#1487 = LINE('',#1488,#1489);
#1488 = CARTESIAN_POINT('',(-19.5,4.5,-3.5));
#1489 = VECTOR('',#1490,1.);
#1490 = DIRECTION('',(0.,-0.,-1.));
#1491 = ORIENTED_EDGE('',*,*,#1242,.T.);
#1492 = ORIENTED_EDGE('',*,*,#1493,.F.);
#1493 = EDGE_CURVE('',#1479,#1235,#1494,.T.);
#1494 = LINE('',#1495,#1496);
#1495 = CARTESIAN_POINT('',(-20.,4.5,-3.5));
#1496 = VECTOR('',#1497,1.);
#1497 = DIRECTION('',(0.,0.,1.));
#1498 = PLANE('',#1499);
#1499 = AXIS2_PLACEMENT_3D('',#1500,#1501,#1502);
#1500 = CARTESIAN_POINT('',(-12.,4.5,-3.5));
#1501 = DIRECTION('',(-1.224646799147E-16,-1.,0.));
#1502 = DIRECTION('',(0.,0.,1.));
#1503 = ADVANCED_FACE('',(#1504),#1529,.F.);
#1504 = FACE_BOUND('',#1505,.F.);
#1505 = EDGE_LOOP('',(#1506,#1516,#1522,#1523));
#1506 = ORIENTED_EDGE('',*,*,#1507,.F.);
#1507 = EDGE_CURVE('',#1508,#1510,#1512,.T.);
#1508 = VERTEX_POINT('',#1509);
#1509 = CARTESIAN_POINT('',(-19.5,-4.5,-3.5));
#1510 = VERTEX_POINT('',#1511);
#1511 = CARTESIAN_POINT('',(-20.,-4.5,-3.5));
#1512 = LINE('',#1513,#1514);
#1513 = CARTESIAN_POINT('',(-12.,-4.5,-3.5));
#1514 = VECTOR('',#1515,1.);
#1515 = DIRECTION('',(-1.,1.224646799147E-16,0.));
#1516 = ORIENTED_EDGE('',*,*,#1517,.F.);
#1517 = EDGE_CURVE('',#1455,#1508,#1518,.T.);
#1518 = LINE('',#1519,#1520);
#1519 = CARTESIAN_POINT('',(-19.5,-4.5,-3.5));
#1520 = VECTOR('',#1521,1.);
#1521 = DIRECTION('',(0.,-0.,-1.));
#1522 = ORIENTED_EDGE('',*,*,#1462,.T.);
#1523 = ORIENTED_EDGE('',*,*,#1524,.F.);
#1524 = EDGE_CURVE('',#1510,#1427,#1525,.T.);
#1525 = LINE('',#1526,#1527);
#1526 = CARTESIAN_POINT('',(-20.,-4.5,-3.5));
#1527 = VECTOR('',#1528,1.);
#1528 = DIRECTION('',(0.,0.,1.));
#1529 = PLANE('',#1530);
#1530 = AXIS2_PLACEMENT_3D('',#1531,#1532,#1533);
#1531 = CARTESIAN_POINT('',(-12.,-4.5,-3.5));
#1532 = DIRECTION('',(-1.224646799147E-16,-1.,0.));
#1533 = DIRECTION('',(0.,0.,1.));
#1534 = ADVANCED_FACE('',(#1535,#1560),#1570,.F.);
#1535 = FACE_BOUND('',#1536,.F.);
#1536 = EDGE_LOOP('',(#1537,#1538,#1546,#1554));
#1537 = ORIENTED_EDGE('',*,*,#1284,.T.);
#1538 = ORIENTED_EDGE('',*,*,#1539,.F.);
#1539 = EDGE_CURVE('',#1540,#1285,#1542,.T.);
#1540 = VERTEX_POINT('',#1541);
#1541 = CARTESIAN_POINT('',(19.5,-8.5,-3.5));
#1542 = LINE('',#1543,#1544);
#1543 = CARTESIAN_POINT('',(19.5,-8.5,-3.5));
#1544 = VECTOR('',#1545,1.);
#1545 = DIRECTION('',(0.,0.,1.));
#1546 = ORIENTED_EDGE('',*,*,#1547,.T.);
#1547 = EDGE_CURVE('',#1540,#1548,#1550,.T.);
#1548 = VERTEX_POINT('',#1549);
#1549 = CARTESIAN_POINT('',(19.5,8.5,-3.5));
#1550 = LINE('',#1551,#1552);
#1551 = CARTESIAN_POINT('',(19.5,-11.5,-3.5));
#1552 = VECTOR('',#1553,1.);
#1553 = DIRECTION('',(0.,1.,0.));
#1554 = ORIENTED_EDGE('',*,*,#1555,.T.);
#1555 = EDGE_CURVE('',#1548,#1276,#1556,.T.);
#1556 = LINE('',#1557,#1558);
#1557 = CARTESIAN_POINT('',(19.5,8.5,-3.5));
#1558 = VECTOR('',#1559,1.);
#1559 = DIRECTION('',(0.,0.,1.));
#1560 = FACE_BOUND('',#1561,.F.);
#1561 = EDGE_LOOP('',(#1562,#1563,#1564,#1565,#1566,#1567,#1568,#1569));
#1562 = ORIENTED_EDGE('',*,*,#784,.F.);
#1563 = ORIENTED_EDGE('',*,*,#953,.T.);
#1564 = ORIENTED_EDGE('',*,*,#937,.T.);
#1565 = ORIENTED_EDGE('',*,*,#913,.T.);
#1566 = ORIENTED_EDGE('',*,*,#888,.T.);
#1567 = ORIENTED_EDGE('',*,*,#856,.F.);
#1568 = ORIENTED_EDGE('',*,*,#833,.F.);
#1569 = ORIENTED_EDGE('',*,*,#816,.T.);
#1570 = PLANE('',#1571);
#1571 = AXIS2_PLACEMENT_3D('',#1572,#1573,#1574);
#1572 = CARTESIAN_POINT('',(19.5,-11.5,-3.5));
#1573 = DIRECTION('',(1.,0.,0.));
#1574 = DIRECTION('',(0.,0.,1.));
#1575 = ADVANCED_FACE('',(#1576),#1605,.T.);
#1576 = FACE_BOUND('',#1577,.T.);
#1577 = EDGE_LOOP('',(#1578,#1588,#1594,#1595,#1596,#1597,#1598,#1599));
#1578 = ORIENTED_EDGE('',*,*,#1579,.F.);
#1579 = EDGE_CURVE('',#1580,#1582,#1584,.T.);
#1580 = VERTEX_POINT('',#1581);
#1581 = CARTESIAN_POINT('',(-16.5,-11.5,-3.5));
#1582 = VERTEX_POINT('',#1583);
#1583 = CARTESIAN_POINT('',(16.5,-11.5,-3.5));
#1584 = LINE('',#1585,#1586);
#1585 = CARTESIAN_POINT('',(-19.5,-11.5,-3.5));
#1586 = VECTOR('',#1587,1.);
#1587 = DIRECTION('',(1.,0.,0.));
#1588 = ORIENTED_EDGE('',*,*,#1589,.T.);
#1589 = EDGE_CURVE('',#1580,#1438,#1590,.T.);
#1590 = LINE('',#1591,#1592);
#1591 = CARTESIAN_POINT('',(-16.5,-11.5,-3.5));
#1592 = VECTOR('',#1593,1.);
#1593 = DIRECTION('',(0.,0.,1.));
#1594 = ORIENTED_EDGE('',*,*,#1437,.T.);
#1595 = ORIENTED_EDGE('',*,*,#1324,.T.);
#1596 = ORIENTED_EDGE('',*,*,#977,.T.);
#1597 = ORIENTED_EDGE('',*,*,#1004,.F.);
#1598 = ORIENTED_EDGE('',*,*,#1301,.T.);
#1599 = ORIENTED_EDGE('',*,*,#1600,.F.);
#1600 = EDGE_CURVE('',#1582,#1293,#1601,.T.);
#1601 = LINE('',#1602,#1603);
#1602 = CARTESIAN_POINT('',(16.5,-11.5,-3.5));
#1603 = VECTOR('',#1604,1.);
#1604 = DIRECTION('',(0.,0.,1.));
#1605 = PLANE('',#1606);
#1606 = AXIS2_PLACEMENT_3D('',#1607,#1608,#1609);
#1607 = CARTESIAN_POINT('',(-19.5,-11.5,-3.5));
#1608 = DIRECTION('',(0.,1.,0.));
#1609 = DIRECTION('',(0.,0.,1.));
#1610 = ADVANCED_FACE('',(#1611),#1623,.F.);
#1611 = FACE_BOUND('',#1612,.T.);
#1612 = EDGE_LOOP('',(#1613,#1614,#1621,#1622));
#1613 = ORIENTED_EDGE('',*,*,#1539,.F.);
#1614 = ORIENTED_EDGE('',*,*,#1615,.T.);
#1615 = EDGE_CURVE('',#1540,#1582,#1616,.T.);
#1616 = CIRCLE('',#1617,3.);
#1617 = AXIS2_PLACEMENT_3D('',#1618,#1619,#1620);
#1618 = CARTESIAN_POINT('',(16.5,-8.5,-3.5));
#1619 = DIRECTION('',(-0.,-0.,-1.));
#1620 = DIRECTION('',(0.,-1.,0.));
#1621 = ORIENTED_EDGE('',*,*,#1600,.T.);
#1622 = ORIENTED_EDGE('',*,*,#1292,.T.);
#1623 = CYLINDRICAL_SURFACE('',#1624,3.);
#1624 = AXIS2_PLACEMENT_3D('',#1625,#1626,#1627);
#1625 = CARTESIAN_POINT('',(16.5,-8.5,-3.5));
#1626 = DIRECTION('',(0.,0.,1.));
#1627 = DIRECTION('',(1.,0.,0.));
#1628 = ADVANCED_FACE('',(#1629),#1648,.F.);
#1629 = FACE_BOUND('',#1630,.F.);
#1630 = EDGE_LOOP('',(#1631,#1632,#1641,#1647));
#1631 = ORIENTED_EDGE('',*,*,#1555,.F.);
#1632 = ORIENTED_EDGE('',*,*,#1633,.T.);
#1633 = EDGE_CURVE('',#1548,#1634,#1636,.T.);
#1634 = VERTEX_POINT('',#1635);
#1635 = CARTESIAN_POINT('',(16.5,11.5,-3.5));
#1636 = CIRCLE('',#1637,3.);
#1637 = AXIS2_PLACEMENT_3D('',#1638,#1639,#1640);
#1638 = CARTESIAN_POINT('',(16.5,8.5,-3.5));
#1639 = DIRECTION('',(-0.,0.,1.));
#1640 = DIRECTION('',(0.,-1.,0.));
#1641 = ORIENTED_EDGE('',*,*,#1642,.T.);
#1642 = EDGE_CURVE('',#1634,#1268,#1643,.T.);
#1643 = LINE('',#1644,#1645);
#1644 = CARTESIAN_POINT('',(16.5,11.5,-3.5));
#1645 = VECTOR('',#1646,1.);
#1646 = DIRECTION('',(0.,0.,1.));
#1647 = ORIENTED_EDGE('',*,*,#1275,.F.);
#1648 = CYLINDRICAL_SURFACE('',#1649,3.);
#1649 = AXIS2_PLACEMENT_3D('',#1650,#1651,#1652);
#1650 = CARTESIAN_POINT('',(16.5,8.5,-3.5));
#1651 = DIRECTION('',(0.,0.,1.));
#1652 = DIRECTION('',(1.,0.,0.));
#1653 = ADVANCED_FACE('',(#1654),#1672,.F.);
#1654 = FACE_BOUND('',#1655,.F.);
#1655 = EDGE_LOOP('',(#1656,#1664,#1670,#1671));
#1656 = ORIENTED_EDGE('',*,*,#1657,.F.);
#1657 = EDGE_CURVE('',#1658,#1634,#1660,.T.);
#1658 = VERTEX_POINT('',#1659);
#1659 = CARTESIAN_POINT('',(-16.5,11.5,-3.5));
#1660 = LINE('',#1661,#1662);
#1661 = CARTESIAN_POINT('',(-19.5,11.5,-3.5));
#1662 = VECTOR('',#1663,1.);
#1663 = DIRECTION('',(1.,0.,0.));
#1664 = ORIENTED_EDGE('',*,*,#1665,.T.);
#1665 = EDGE_CURVE('',#1658,#1259,#1666,.T.);
#1666 = LINE('',#1667,#1668);
#1667 = CARTESIAN_POINT('',(-16.5,11.5,-3.5));
#1668 = VECTOR('',#1669,1.);
#1669 = DIRECTION('',(0.,0.,1.));
#1670 = ORIENTED_EDGE('',*,*,#1267,.T.);
#1671 = ORIENTED_EDGE('',*,*,#1642,.F.);
#1672 = PLANE('',#1673);
#1673 = AXIS2_PLACEMENT_3D('',#1674,#1675,#1676);
#1674 = CARTESIAN_POINT('',(-19.5,11.5,-3.5));
#1675 = DIRECTION('',(0.,1.,0.));
#1676 = DIRECTION('',(0.,0.,1.));
#1677 = ADVANCED_FACE('',(#1678),#1697,.F.);
#1678 = FACE_BOUND('',#1679,.T.);
#1679 = EDGE_LOOP('',(#1680,#1688,#1695,#1696));
#1680 = ORIENTED_EDGE('',*,*,#1681,.F.);
#1681 = EDGE_CURVE('',#1682,#1251,#1684,.T.);
#1682 = VERTEX_POINT('',#1683);
#1683 = CARTESIAN_POINT('',(-19.5,8.5,-3.5));
#1684 = LINE('',#1685,#1686);
#1685 = CARTESIAN_POINT('',(-19.5,8.5,-3.5));
#1686 = VECTOR('',#1687,1.);
#1687 = DIRECTION('',(0.,0.,1.));
#1688 = ORIENTED_EDGE('',*,*,#1689,.T.);
#1689 = EDGE_CURVE('',#1682,#1658,#1690,.T.);
#1690 = CIRCLE('',#1691,3.);
#1691 = AXIS2_PLACEMENT_3D('',#1692,#1693,#1694);
#1692 = CARTESIAN_POINT('',(-16.5,8.5,-3.5));
#1693 = DIRECTION('',(-0.,-0.,-1.));
#1694 = DIRECTION('',(0.,-1.,0.));
#1695 = ORIENTED_EDGE('',*,*,#1665,.T.);
#1696 = ORIENTED_EDGE('',*,*,#1258,.T.);
#1697 = CYLINDRICAL_SURFACE('',#1698,3.);
#1698 = AXIS2_PLACEMENT_3D('',#1699,#1700,#1701);
#1699 = CARTESIAN_POINT('',(-16.5,8.5,-3.5));
#1700 = DIRECTION('',(0.,0.,1.));
#1701 = DIRECTION('',(-1.,0.,0.));
#1702 = ADVANCED_FACE('',(#1703),#1714,.T.);
#1703 = FACE_BOUND('',#1704,.T.);
#1704 = EDGE_LOOP('',(#1705,#1706,#1707,#1708));
#1705 = ORIENTED_EDGE('',*,*,#1681,.T.);
#1706 = ORIENTED_EDGE('',*,*,#1250,.T.);
#1707 = ORIENTED_EDGE('',*,*,#1486,.T.);
#1708 = ORIENTED_EDGE('',*,*,#1709,.T.);
#1709 = EDGE_CURVE('',#1477,#1682,#1710,.T.);
#1710 = LINE('',#1711,#1712);
#1711 = CARTESIAN_POINT('',(-19.5,-11.5,-3.5));
#1712 = VECTOR('',#1713,1.);
#1713 = DIRECTION('',(0.,1.,0.));
#1714 = PLANE('',#1715);
#1715 = AXIS2_PLACEMENT_3D('',#1716,#1717,#1718);
#1716 = CARTESIAN_POINT('',(-19.5,-11.5,-3.5));
#1717 = DIRECTION('',(1.,0.,0.));
#1718 = DIRECTION('',(0.,0.,1.));
#1719 = ADVANCED_FACE('',(#1720),#1738,.T.);
#1720 = FACE_BOUND('',#1721,.T.);
#1721 = EDGE_LOOP('',(#1722,#1723,#1724,#1732));
#1722 = ORIENTED_EDGE('',*,*,#1517,.F.);
#1723 = ORIENTED_EDGE('',*,*,#1454,.T.);
#1724 = ORIENTED_EDGE('',*,*,#1725,.F.);
#1725 = EDGE_CURVE('',#1726,#1446,#1728,.T.);
#1726 = VERTEX_POINT('',#1727);
#1727 = CARTESIAN_POINT('',(-19.5,-8.5,-3.5));
#1728 = LINE('',#1729,#1730);
#1729 = CARTESIAN_POINT('',(-19.5,-8.5,-3.5));
#1730 = VECTOR('',#1731,1.);
#1731 = DIRECTION('',(0.,0.,1.));
#1732 = ORIENTED_EDGE('',*,*,#1733,.T.);
#1733 = EDGE_CURVE('',#1726,#1508,#1734,.T.);
#1734 = LINE('',#1735,#1736);
#1735 = CARTESIAN_POINT('',(-19.5,-11.5,-3.5));
#1736 = VECTOR('',#1737,1.);
#1737 = DIRECTION('',(0.,1.,0.));
#1738 = PLANE('',#1739);
#1739 = AXIS2_PLACEMENT_3D('',#1740,#1741,#1742);
#1740 = CARTESIAN_POINT('',(-19.5,-11.5,-3.5));
#1741 = DIRECTION('',(1.,0.,0.));
#1742 = DIRECTION('',(0.,0.,1.));
#1743 = ADVANCED_FACE('',(#1744),#1756,.F.);
#1744 = FACE_BOUND('',#1745,.F.);
#1745 = EDGE_LOOP('',(#1746,#1747,#1754,#1755));
#1746 = ORIENTED_EDGE('',*,*,#1725,.F.);
#1747 = ORIENTED_EDGE('',*,*,#1748,.T.);
#1748 = EDGE_CURVE('',#1726,#1580,#1749,.T.);
#1749 = CIRCLE('',#1750,3.);
#1750 = AXIS2_PLACEMENT_3D('',#1751,#1752,#1753);
#1751 = CARTESIAN_POINT('',(-16.5,-8.5,-3.5));
#1752 = DIRECTION('',(-0.,0.,1.));
#1753 = DIRECTION('',(0.,-1.,0.));
#1754 = ORIENTED_EDGE('',*,*,#1589,.T.);
#1755 = ORIENTED_EDGE('',*,*,#1445,.F.);
#1756 = CYLINDRICAL_SURFACE('',#1757,3.);
#1757 = AXIS2_PLACEMENT_3D('',#1758,#1759,#1760);
#1758 = CARTESIAN_POINT('',(-16.5,-8.5,-3.5));
#1759 = DIRECTION('',(0.,0.,1.));
#1760 = DIRECTION('',(-1.,0.,0.));
#1761 = ADVANCED_FACE('',(#1762),#1792,.T.);
#1762 = FACE_BOUND('',#1763,.T.);
#1763 = EDGE_LOOP('',(#1764,#1765,#1766,#1767,#1768,#1769,#1770,#1771,
    #1772,#1778,#1779,#1780,#1781,#1782,#1783,#1784,#1785,#1786,#1787,
    #1788,#1789,#1790,#1791));
#1764 = ORIENTED_EDGE('',*,*,#21,.F.);
#1765 = ORIENTED_EDGE('',*,*,#146,.T.);
#1766 = ORIENTED_EDGE('',*,*,#759,.T.);
#1767 = ORIENTED_EDGE('',*,*,#634,.F.);
#1768 = ORIENTED_EDGE('',*,*,#743,.F.);
#1769 = ORIENTED_EDGE('',*,*,#1348,.T.);
#1770 = ORIENTED_EDGE('',*,*,#1411,.T.);
#1771 = ORIENTED_EDGE('',*,*,#1389,.F.);
#1772 = ORIENTED_EDGE('',*,*,#1773,.T.);
#1773 = EDGE_CURVE('',#1365,#1204,#1774,.T.);
#1774 = LINE('',#1775,#1776);
#1775 = CARTESIAN_POINT('',(-20.,-12.5,1.));
#1776 = VECTOR('',#1777,1.);
#1777 = DIRECTION('',(0.,1.,0.));
#1778 = ORIENTED_EDGE('',*,*,#1219,.F.);
#1779 = ORIENTED_EDGE('',*,*,#1186,.F.);
#1780 = ORIENTED_EDGE('',*,*,#1155,.F.);
#1781 = ORIENTED_EDGE('',*,*,#1106,.F.);
#1782 = ORIENTED_EDGE('',*,*,#1091,.F.);
#1783 = ORIENTED_EDGE('',*,*,#1051,.T.);
#1784 = ORIENTED_EDGE('',*,*,#1028,.F.);
#1785 = ORIENTED_EDGE('',*,*,#712,.F.);
#1786 = ORIENTED_EDGE('',*,*,#672,.F.);
#1787 = ORIENTED_EDGE('',*,*,#619,.F.);
#1788 = ORIENTED_EDGE('',*,*,#507,.T.);
#1789 = ORIENTED_EDGE('',*,*,#484,.T.);
#1790 = ORIENTED_EDGE('',*,*,#460,.F.);
#1791 = ORIENTED_EDGE('',*,*,#179,.F.);
#1792 = PLANE('',#1793);
#1793 = AXIS2_PLACEMENT_3D('',#1794,#1795,#1796);
#1794 = CARTESIAN_POINT('',(-0.355242261744,0.31688545094,1.));
#1795 = DIRECTION('',(0.,0.,1.));
#1796 = DIRECTION('',(1.,0.,-0.));
#1797 = ADVANCED_FACE('',(#1798,#1813),#1825,.T.);
#1798 = FACE_BOUND('',#1799,.T.);
#1799 = EDGE_LOOP('',(#1800,#1801,#1802,#1803,#1804,#1810,#1811,#1812));
#1800 = ORIENTED_EDGE('',*,*,#1773,.F.);
#1801 = ORIENTED_EDGE('',*,*,#1362,.F.);
#1802 = ORIENTED_EDGE('',*,*,#1426,.T.);
#1803 = ORIENTED_EDGE('',*,*,#1524,.F.);
#1804 = ORIENTED_EDGE('',*,*,#1805,.F.);
#1805 = EDGE_CURVE('',#1479,#1510,#1806,.T.);
#1806 = LINE('',#1807,#1808);
#1807 = CARTESIAN_POINT('',(-20.,4.5,-3.5));
#1808 = VECTOR('',#1809,1.);
#1809 = DIRECTION('',(-1.224646799147E-16,-1.,0.));
#1810 = ORIENTED_EDGE('',*,*,#1493,.T.);
#1811 = ORIENTED_EDGE('',*,*,#1234,.T.);
#1812 = ORIENTED_EDGE('',*,*,#1201,.T.);
#1813 = FACE_BOUND('',#1814,.T.);
#1814 = EDGE_LOOP('',(#1815,#1816,#1817,#1818,#1819,#1820,#1821,#1822,
    #1823,#1824));
#1815 = ORIENTED_EDGE('',*,*,#443,.T.);
#1816 = ORIENTED_EDGE('',*,*,#418,.F.);
#1817 = ORIENTED_EDGE('',*,*,#409,.F.);
#1818 = ORIENTED_EDGE('',*,*,#384,.T.);
#1819 = ORIENTED_EDGE('',*,*,#360,.T.);
#1820 = ORIENTED_EDGE('',*,*,#343,.F.);
#1821 = ORIENTED_EDGE('',*,*,#312,.F.);
#1822 = ORIENTED_EDGE('',*,*,#303,.F.);
#1823 = ORIENTED_EDGE('',*,*,#286,.F.);
#1824 = ORIENTED_EDGE('',*,*,#254,.F.);
#1825 = PLANE('',#1826);
#1826 = AXIS2_PLACEMENT_3D('',#1827,#1828,#1829);
#1827 = CARTESIAN_POINT('',(-20.,1.578983857245E-16,-0.55));
#1828 = DIRECTION('',(1.,0.,0.));
#1829 = DIRECTION('',(-0.,0.,1.));
#1830 = ADVANCED_FACE('',(#1831),#1845,.T.);
#1831 = FACE_BOUND('',#1832,.T.);
#1832 = EDGE_LOOP('',(#1833,#1834,#1835,#1836,#1837,#1838,#1839,#1840,
    #1841,#1842,#1843,#1844));
#1833 = ORIENTED_EDGE('',*,*,#1507,.F.);
#1834 = ORIENTED_EDGE('',*,*,#1733,.F.);
#1835 = ORIENTED_EDGE('',*,*,#1748,.T.);
#1836 = ORIENTED_EDGE('',*,*,#1579,.T.);
#1837 = ORIENTED_EDGE('',*,*,#1615,.F.);
#1838 = ORIENTED_EDGE('',*,*,#1547,.T.);
#1839 = ORIENTED_EDGE('',*,*,#1633,.T.);
#1840 = ORIENTED_EDGE('',*,*,#1657,.F.);
#1841 = ORIENTED_EDGE('',*,*,#1689,.F.);
#1842 = ORIENTED_EDGE('',*,*,#1709,.F.);
#1843 = ORIENTED_EDGE('',*,*,#1476,.T.);
#1844 = ORIENTED_EDGE('',*,*,#1805,.T.);
#1845 = PLANE('',#1846);
#1846 = AXIS2_PLACEMENT_3D('',#1847,#1848,#1849);
#1847 = CARTESIAN_POINT('',(-0.202699927514,2.969628062562E-17,-3.5));
#1848 = DIRECTION('',(0.,0.,1.));
#1849 = DIRECTION('',(1.,0.,-0.));
#1850 = ( GEOMETRIC_REPRESENTATION_CONTEXT(3) 
GLOBAL_UNCERTAINTY_ASSIGNED_CONTEXT((#1854)) 
GLOBAL_UNIT_ASSIGNED_CONTEXT((#1851,#1852,#1853)) REPRESENTATION_CONTEXT
('Context #1','3D Context with UNIT and UNCERTAINTY') );
#1851 = ( LENGTH_UNIT() NAMED_UNIT(*) SI_UNIT(.MILLI.,.METRE.) );
#1852 = ( NAMED_UNIT(*) PLANE_ANGLE_UNIT() SI_UNIT($,.RADIAN.) );
#1853 = ( NAMED_UNIT(*) SI_UNIT($,.STERADIAN.) SOLID_ANGLE_UNIT() );
#1854 = UNCERTAINTY_MEASURE_WITH_UNIT(LENGTH_MEASURE(2.E-05),#1851,
  'distance_accuracy_value','confusion accuracy');
#1855 = PRODUCT_RELATED_PRODUCT_CATEGORY('part',$,(#7));
#1856 = MECHANICAL_DESIGN_GEOMETRIC_PRESENTATION_REPRESENTATION('',(
    #1857),#1850);
#1857 = STYLED_ITEM('color',(#1858),#15);
#1858 = PRESENTATION_STYLE_ASSIGNMENT((#1859,#1867));
#1859 = SURFACE_STYLE_USAGE(.BOTH.,#1860);
#1860 = SURFACE_SIDE_STYLE('',(#1861,#1865));
#1861 = SURFACE_STYLE_FILL_AREA(#1862);
#1862 = FILL_AREA_STYLE('',(#1863));
#1863 = FILL_AREA_STYLE_COLOUR('',#1864);
#1864 = COLOUR_RGB('',0.447058818107,0.474509808674,0.501960817233);
#1865 = SURFACE_STYLE_RENDERING_WITH_PROPERTIES(.NORMAL_SHADING.,#1864,(
    #1866));
#1866 = SURFACE_STYLE_TRANSPARENT(0.399999976158);
#1867 = CURVE_STYLE('',#1868,POSITIVE_LENGTH_MEASURE(0.1),#1869);
#1868 = DRAUGHTING_PRE_DEFINED_CURVE_FONT('continuous');
#1869 = COLOUR_RGB('',9.803921802644E-02,9.803921802644E-02,
  9.803921802644E-02);
ENDSEC;
END-ISO-10303-21;
