ISO-10303-21;
HEADER;
FILE_DESCRIPTION(('FreeCAD Model'),'2;1');
FILE_NAME('Open CASCADE Shape Model','2026-10-07T01:17:37',(''),(''),
  'Open CASCADE STEP processor 7.8','FreeCAD','Unknown');
FILE_SCHEMA((
'AP242_MANAGED_MODEL_BASED_3D_ENGINEERING_MIM_LF. {1 0 10303 442 1 1 4 
}'));
ENDSEC;
DATA;
#1 = APPLICATION_PROTOCOL_DEFINITION('international standard',
  'ap242_managed_model_based_3d_engineering',2013,#2);
#2 = APPLICATION_CONTEXT('Managed model based 3d engineering');
#3 = SHAPE_DEFINITION_REPRESENTATION(#4,#10);
#4 = PRODUCT_DEFINITION_SHAPE('','',#5);
#5 = PRODUCT_DEFINITION('design','',#6,#9);
#6 = PRODUCT_DEFINITION_FORMATION('','',#7);
#7 = PRODUCT('LightPipe000','LightPipe000','',(#8));
#8 = PRODUCT_CONTEXT('',#2,'mechanical');
#9 = PRODUCT_DEFINITION_CONTEXT('part definition',#2,'design');
#10 = ADVANCED_BREP_SHAPE_REPRESENTATION('',(#11,#15),#602);
#11 = AXIS2_PLACEMENT_3D('',#12,#13,#14);
#12 = CARTESIAN_POINT('',(0.,0.,0.));
#13 = DIRECTION('',(0.,0.,1.));
#14 = DIRECTION('',(1.,0.,-0.));
#15 = MANIFOLD_SOLID_BREP('',#16);
#16 = CLOSED_SHELL('',(#17,#117,#150,#224,#338,#386,#395,#470,#494,#512,
    #530,#547,#573,#590));
#17 = ADVANCED_FACE('',(#18),#112,.T.);
#18 = FACE_BOUND('',#19,.T.);
#19 = EDGE_LOOP('',(#20,#31,#40,#47,#48,#57,#72,#81,#90,#99));
#20 = ORIENTED_EDGE('',*,*,#21,.T.);
#21 = EDGE_CURVE('',#22,#24,#26,.T.);
#22 = VERTEX_POINT('',#23);
#23 = CARTESIAN_POINT('',(18.146320560612,8.550738077134,4.5));
#24 = VERTEX_POINT('',#25);
#25 = CARTESIAN_POINT('',(18.197498435544,9.,4.5));
#26 = CIRCLE('',#27,1.997498435544);
#27 = AXIS2_PLACEMENT_3D('',#28,#29,#30);
#28 = CARTESIAN_POINT('',(16.2,9.,4.5));
#29 = DIRECTION('',(0.,0.,1.));
#30 = DIRECTION('',(1.,0.,0.));
#31 = ORIENTED_EDGE('',*,*,#32,.T.);
#32 = EDGE_CURVE('',#24,#33,#35,.T.);
#33 = VERTEX_POINT('',#34);
#34 = CARTESIAN_POINT('',(17.4,9.,6.));
#35 = CIRCLE('',#36,2.);
#36 = AXIS2_PLACEMENT_3D('',#37,#38,#39);
#37 = CARTESIAN_POINT('',(16.2,9.,4.4));
#38 = DIRECTION('',(-2.449293598295E-16,-1.,0.));
#39 = DIRECTION('',(1.,-2.449293598295E-16,0.));
#40 = ORIENTED_EDGE('',*,*,#41,.F.);
#41 = EDGE_CURVE('',#33,#33,#42,.T.);
#42 = CIRCLE('',#43,1.2);
#43 = AXIS2_PLACEMENT_3D('',#44,#45,#46);
#44 = CARTESIAN_POINT('',(16.2,9.,6.));
#45 = DIRECTION('',(0.,0.,1.));
#46 = DIRECTION('',(1.,0.,0.));
#47 = ORIENTED_EDGE('',*,*,#32,.F.);
#48 = ORIENTED_EDGE('',*,*,#49,.T.);
#49 = EDGE_CURVE('',#24,#50,#52,.T.);
#50 = VERTEX_POINT('',#51);
#51 = CARTESIAN_POINT('',(16.365623996425,10.990620177685,4.5));
#52 = CIRCLE('',#53,1.997498435544);
#53 = AXIS2_PLACEMENT_3D('',#54,#55,#56);
#54 = CARTESIAN_POINT('',(16.2,9.,4.5));
#55 = DIRECTION('',(0.,0.,1.));
#56 = DIRECTION('',(1.,0.,0.));
#57 = ORIENTED_EDGE('',*,*,#58,.T.);
#58 = EDGE_CURVE('',#50,#59,#61,.T.);
#59 = VERTEX_POINT('',#60);
#60 = CARTESIAN_POINT('',(15.805798631583,10.960766503472,4.4));
#61 = B_SPLINE_CURVE_WITH_KNOTS('',5,(#62,#63,#64,#65,#66,#67,#68,#69,
    #70,#71),.UNSPECIFIED.,.F.,.F.,(6,4,6),(0.,0.477175466474,1.),
  .UNSPECIFIED.);
#62 = CARTESIAN_POINT('',(16.365623996425,10.990620177685,4.5));
#63 = CARTESIAN_POINT('',(16.313552868288,10.994952610581,4.5));
#64 = CARTESIAN_POINT('',(16.260669041728,10.997781417207,4.497151436353
    ));
#65 = CARTESIAN_POINT('',(16.207288141873,10.99897691883,4.491715806183)
  );
#66 = CARTESIAN_POINT('',(16.153643976653,10.998446954492,4.483970924508
    ));
#67 = CARTESIAN_POINT('',(16.04099904699,10.993559201816,4.463483225257)
  );
#68 = CARTESIAN_POINT('',(15.981981751824,10.988840395469,4.450333904218
    ));
#69 = CARTESIAN_POINT('',(15.923042577104,10.981856112025,4.435114863475
    ));
#70 = CARTESIAN_POINT('',(15.864309018955,10.972529696452,4.418197704997
    ));
#71 = CARTESIAN_POINT('',(15.805798631583,10.960766503472,4.4));
#72 = ORIENTED_EDGE('',*,*,#73,.F.);
#73 = EDGE_CURVE('',#74,#59,#76,.T.);
#74 = VERTEX_POINT('',#75);
#75 = CARTESIAN_POINT('',(14.2,9.,4.4));
#76 = CIRCLE('',#77,2.);
#77 = AXIS2_PLACEMENT_3D('',#78,#79,#80);
#78 = CARTESIAN_POINT('',(16.2,9.,4.4));
#79 = DIRECTION('',(0.,0.,-1.));
#80 = DIRECTION('',(0.,1.,0.));
#81 = ORIENTED_EDGE('',*,*,#82,.F.);
#82 = EDGE_CURVE('',#83,#74,#85,.T.);
#83 = VERTEX_POINT('',#84);
#84 = CARTESIAN_POINT('',(16.2,7.,4.4));
#85 = CIRCLE('',#86,2.);
#86 = AXIS2_PLACEMENT_3D('',#87,#88,#89);
#87 = CARTESIAN_POINT('',(16.2,9.,4.4));
#88 = DIRECTION('',(0.,0.,-1.));
#89 = DIRECTION('',(0.,1.,0.));
#90 = ORIENTED_EDGE('',*,*,#91,.F.);
#91 = EDGE_CURVE('',#92,#83,#94,.T.);
#92 = VERTEX_POINT('',#93);
#93 = CARTESIAN_POINT('',(17.966914410189,8.062976271876,4.4));
#94 = CIRCLE('',#95,2.);
#95 = AXIS2_PLACEMENT_3D('',#96,#97,#98);
#96 = CARTESIAN_POINT('',(16.2,9.,4.4));
#97 = DIRECTION('',(0.,0.,-1.));
#98 = DIRECTION('',(0.,1.,0.));
#99 = ORIENTED_EDGE('',*,*,#100,.F.);
#100 = EDGE_CURVE('',#22,#92,#101,.T.);
#101 = B_SPLINE_CURVE_WITH_KNOTS('',5,(#102,#103,#104,#105,#106,#107,
    #108,#109,#110,#111),.UNSPECIFIED.,.F.,.F.,(6,4,6),(0.,
    0.483567788267,1.),.UNSPECIFIED.);
#102 = CARTESIAN_POINT('',(18.146320560612,8.550738077134,4.5));
#103 = CARTESIAN_POINT('',(18.135181935156,8.502482628274,4.5));
#104 = CARTESIAN_POINT('',(18.12255025682,8.453959265347,4.497198318649)
  );
#105 = CARTESIAN_POINT('',(18.108414307817,8.405497203592,4.491810662299
    ));
#106 = CARTESIAN_POINT('',(18.092773858161,8.357348355478,4.48406951449)
  );
#107 = CARTESIAN_POINT('',(18.057316959882,8.258814038244,4.463662100125
    ));
#108 = CARTESIAN_POINT('',(18.03728983421,8.208501419096,4.450697364053)
  );
#109 = CARTESIAN_POINT('',(18.0155455254,8.158991175324,4.435583915223)
  );
#110 = CARTESIAN_POINT('',(17.992089099223,8.110447343836,4.418594818707
    ));
#111 = CARTESIAN_POINT('',(17.966914410189,8.062976271876,4.4));
#112 = SPHERICAL_SURFACE('',#113,2.);
#113 = AXIS2_PLACEMENT_3D('',#114,#115,#116);
#114 = CARTESIAN_POINT('',(16.2,9.,4.4));
#115 = DIRECTION('',(0.,0.,1.));
#116 = DIRECTION('',(1.,0.,0.));
#117 = ADVANCED_FACE('',(#118),#145,.T.);
#118 = FACE_BOUND('',#119,.T.);
#119 = EDGE_LOOP('',(#120,#121,#129,#138,#144));
#120 = ORIENTED_EDGE('',*,*,#21,.F.);
#121 = ORIENTED_EDGE('',*,*,#122,.T.);
#122 = EDGE_CURVE('',#22,#123,#125,.T.);
#123 = VERTEX_POINT('',#124);
#124 = CARTESIAN_POINT('',(20.866975073808,10.455760876138,4.5));
#125 = LINE('',#126,#127);
#126 = CARTESIAN_POINT('',(17.218947546188,7.901384501702,4.5));
#127 = VECTOR('',#128,1.);
#128 = DIRECTION('',(0.819152044289,0.573576436351,0.));
#129 = ORIENTED_EDGE('',*,*,#130,.T.);
#130 = EDGE_CURVE('',#123,#131,#133,.T.);
#131 = VERTEX_POINT('',#132);
#132 = CARTESIAN_POINT('',(18.849074321705,12.729550816215,4.5));
#133 = CIRCLE('',#134,3.5);
#134 = AXIS2_PLACEMENT_3D('',#135,#136,#137);
#135 = CARTESIAN_POINT('',(17.5,9.5,4.5));
#136 = DIRECTION('',(0.,0.,1.));
#137 = DIRECTION('',(1.,0.,-0.));
#138 = ORIENTED_EDGE('',*,*,#139,.F.);
#139 = EDGE_CURVE('',#50,#131,#140,.T.);
#140 = LINE('',#141,#142);
#141 = CARTESIAN_POINT('',(15.486746708408,10.375223675454,4.5));
#142 = VECTOR('',#143,1.);
#143 = DIRECTION('',(0.819152044289,0.573576436351,0.));
#144 = ORIENTED_EDGE('',*,*,#49,.F.);
#145 = PLANE('',#146);
#146 = AXIS2_PLACEMENT_3D('',#147,#148,#149);
#147 = CARTESIAN_POINT('',(17.5,7.5,4.5));
#148 = DIRECTION('',(0.,0.,1.));
#149 = DIRECTION('',(0.819152044289,0.573576436351,0.));
#150 = ADVANCED_FACE('',(#151),#219,.T.);
#151 = FACE_BOUND('',#152,.F.);
#152 = EDGE_LOOP('',(#153,#163,#172,#197,#198,#199));
#153 = ORIENTED_EDGE('',*,*,#154,.F.);
#154 = EDGE_CURVE('',#155,#157,#159,.T.);
#155 = VERTEX_POINT('',#156);
#156 = CARTESIAN_POINT('',(17.5,7.5,4.01));
#157 = VERTEX_POINT('',#158);
#158 = CARTESIAN_POINT('',(20.973238616575,9.931987861327,4.01));
#159 = LINE('',#160,#161);
#160 = CARTESIAN_POINT('',(17.5,7.5,4.01));
#161 = VECTOR('',#162,1.);
#162 = DIRECTION('',(0.819152044289,0.573576436351,0.));
#163 = ORIENTED_EDGE('',*,*,#164,.T.);
#164 = EDGE_CURVE('',#155,#165,#167,.T.);
#165 = VERTEX_POINT('',#166);
#166 = CARTESIAN_POINT('',(17.495445588166,7.506504374183,4.09785509475)
  );
#167 = CIRCLE('',#168,0.49);
#168 = AXIS2_PLACEMENT_3D('',#169,#170,#171);
#169 = CARTESIAN_POINT('',(17.218947546188,7.901384501702,4.01));
#170 = DIRECTION('',(-0.819152044289,-0.573576436351,-0.));
#171 = DIRECTION('',(-0.573576436351,0.819152044289,0.));
#172 = ORIENTED_EDGE('',*,*,#173,.F.);
#173 = EDGE_CURVE('',#92,#165,#174,.T.);
#174 = B_SPLINE_CURVE_WITH_KNOTS('',6,(#175,#176,#177,#178,#179,#180,
    #181,#182,#183,#184,#185,#186,#187,#188,#189,#190,#191,#192,#193,
    #194,#195,#196),.UNSPECIFIED.,.F.,.F.,(7,5,5,5,7),(0.,0.372557095172
    ,0.670177418915,0.943756079764,1.),.UNSPECIFIED.);
#175 = CARTESIAN_POINT('',(17.966914410189,8.062976271876,4.4));
#176 = CARTESIAN_POINT('',(17.945947437257,8.023439549913,4.384513133014
    ));
#177 = CARTESIAN_POINT('',(17.923837083766,7.984618604547,4.367957371879
    ));
#178 = CARTESIAN_POINT('',(17.900579222201,7.946565271965,4.350468597365
    ));
#179 = CARTESIAN_POINT('',(17.876169687582,7.909317650816,4.332181620202
    ));
#180 = CARTESIAN_POINT('',(17.850596084216,7.872894322339,4.313238123131
    ));
#181 = CARTESIAN_POINT('',(17.802446958617,7.808844620458,4.278261985683
    ));
#182 = CARTESIAN_POINT('',(17.780304118141,7.78092393843,4.262411396693)
  );
#183 = CARTESIAN_POINT('',(17.757385013367,7.753521051467,4.246322080195
    ));
#184 = CARTESIAN_POINT('',(17.733666448192,7.726621625939,4.230084325161
    ));
#185 = CARTESIAN_POINT('',(17.70911785357,7.700200457452,4.213801405269)
  );
#186 = CARTESIAN_POINT('',(17.660284617299,7.650292996273,4.182745533088
    ));
#187 = CARTESIAN_POINT('',(17.636150441671,7.626753984505,4.16796461409)
  );
#188 = CARTESIAN_POINT('',(17.6112054372,7.603514424758,4.153379245059)
  );
#189 = CARTESIAN_POINT('',(17.585375130553,7.58050829086,4.139145702834)
  );
#190 = CARTESIAN_POINT('',(17.55858029099,7.557652783958,4.125482889075)
  );
#191 = CARTESIAN_POINT('',(17.524894467768,7.530059396338,4.11018762451)
  );
#192 = CARTESIAN_POINT('',(17.519102211436,7.525353057891,4.107620880823
    ));
#193 = CARTESIAN_POINT('',(17.513260783257,7.520644470072,4.105099290526
    ));
#194 = CARTESIAN_POINT('',(17.507368933188,7.515932263174,4.102626942171
    ));
#195 = CARTESIAN_POINT('',(17.501425446092,7.511215048485,4.10020838366)
  );
#196 = CARTESIAN_POINT('',(17.49542914174,7.506491418288,4.097848622241)
  );
#197 = ORIENTED_EDGE('',*,*,#100,.F.);
#198 = ORIENTED_EDGE('',*,*,#122,.T.);
#199 = ORIENTED_EDGE('',*,*,#200,.F.);
#200 = EDGE_CURVE('',#157,#123,#201,.T.);
#201 = B_SPLINE_CURVE_WITH_KNOTS('',6,(#202,#203,#204,#205,#206,#207,
    #208,#209,#210,#211,#212,#213,#214,#215,#216,#217,#218),
  .UNSPECIFIED.,.F.,.F.,(7,5,5,7),(0.,0.224893084347,0.7175792951,1.),
  .UNSPECIFIED.);
#202 = CARTESIAN_POINT('',(20.973238616575,9.931987861327,4.01));
#203 = CARTESIAN_POINT('',(20.973238616575,9.931987861327,4.038191909712
    ));
#204 = CARTESIAN_POINT('',(20.972966711555,9.934173620449,4.066381869973
    ));
#205 = CARTESIAN_POINT('',(20.97242319304,9.938544627565,4.094412912635)
  );
#206 = CARTESIAN_POINT('',(20.971600063962,9.945077427082,4.122127564326
    ));
#207 = CARTESIAN_POINT('',(20.970482606439,9.953725565879,4.149368897407
    ));
#208 = CARTESIAN_POINT('',(20.965914536514,9.987847444781,4.234283516865
    ));
#209 = CARTESIAN_POINT('',(20.961268573363,10.021104517579,
    4.289594800363));
#210 = CARTESIAN_POINT('',(20.954904818706,10.063489802213,
    4.340303821485));
#211 = CARTESIAN_POINT('',(20.946492140893,10.113802141325,4.38485236684
    ));
#212 = CARTESIAN_POINT('',(20.93575440607,10.170449493912,4.421818790192
    ));
#213 = CARTESIAN_POINT('',(20.91518905871,10.266660783827,4.466206933425
    ));
#214 = CARTESIAN_POINT('',(20.906927922468,10.303202434095,
    4.479506642637));
#215 = CARTESIAN_POINT('',(20.897909514515,10.340818757368,
    4.489680724004));
#216 = CARTESIAN_POINT('',(20.888181024806,10.379073929428,
    4.496548195264));
#217 = CARTESIAN_POINT('',(20.877827826998,10.417528562612,4.5));
#218 = CARTESIAN_POINT('',(20.866975073808,10.455760876138,4.5));
#219 = CYLINDRICAL_SURFACE('',#220,0.49);
#220 = AXIS2_PLACEMENT_3D('',#221,#222,#223);
#221 = CARTESIAN_POINT('',(17.218947546188,7.901384501702,4.01));
#222 = DIRECTION('',(0.819152044289,0.573576436351,0.));
#223 = DIRECTION('',(0.573576436351,-0.819152044289,0.));
#224 = ADVANCED_FACE('',(#225),#333,.T.);
#225 = FACE_BOUND('',#226,.T.);
#226 = EDGE_LOOP('',(#227,#228,#229,#230,#231,#256,#265,#290,#299,#326)
  );
#227 = ORIENTED_EDGE('',*,*,#173,.F.);
#228 = ORIENTED_EDGE('',*,*,#91,.T.);
#229 = ORIENTED_EDGE('',*,*,#82,.T.);
#230 = ORIENTED_EDGE('',*,*,#73,.T.);
#231 = ORIENTED_EDGE('',*,*,#232,.T.);
#232 = EDGE_CURVE('',#59,#233,#235,.T.);
#233 = VERTEX_POINT('',#234);
#234 = CARTESIAN_POINT('',(15.231370332531,10.739938937632,
    4.214611055856));
#235 = B_SPLINE_CURVE_WITH_KNOTS('',7,(#236,#237,#238,#239,#240,#241,
    #242,#243,#244,#245,#246,#247,#248,#249,#250,#251,#252,#253,#254,
    #255),.UNSPECIFIED.,.F.,.F.,(8,6,6,8),(0.,0.494459093122,
    0.964589708792,1.),.UNSPECIFIED.);
#236 = CARTESIAN_POINT('',(15.805798631583,10.960766503472,4.4));
#237 = CARTESIAN_POINT('',(15.76506752781,10.952577738101,4.387331948327
    ));
#238 = CARTESIAN_POINT('',(15.724442933104,10.943287838078,
    4.374086674037));
#239 = CARTESIAN_POINT('',(15.683924233813,10.932871186675,
    4.360373646855));
#240 = CARTESIAN_POINT('',(15.643503732571,10.92129922464,4.346312517952
    ));
#241 = CARTESIAN_POINT('',(15.603164340458,10.908541099152,
    4.332036544315));
#242 = CARTESIAN_POINT('',(15.56287143794,10.894559004837,4.31770184138)
  );
#243 = CARTESIAN_POINT('',(15.484229836802,10.864788293256,
    4.290001727161));
#244 = CARTESIAN_POINT('',(15.445914449402,10.849134264889,
    4.276634538635));
#245 = CARTESIAN_POINT('',(15.407521556224,10.832279361098,
    4.263555012168));
#246 = CARTESIAN_POINT('',(15.368986353041,10.814165843724,
    4.250969628514));
#247 = CARTESIAN_POINT('',(15.330262601643,10.794743006631,
    4.239145698858));
#248 = CARTESIAN_POINT('',(15.291298179692,10.773962836667,
    4.228441658953));
#249 = CARTESIAN_POINT('',(15.249109732983,10.750114905911,4.21856814733
    ));
#250 = CARTESIAN_POINT('',(15.246153342727,10.748436677723,
    4.217885244478));
#251 = CARTESIAN_POINT('',(15.243195641199,10.746750634981,
    4.217211199032));
#252 = CARTESIAN_POINT('',(15.240236648393,10.745056780706,
    4.216546188393));
#253 = CARTESIAN_POINT('',(15.237276388224,10.743355120445,
    4.215890390944));
#254 = CARTESIAN_POINT('',(15.234314888528,10.741645662272,
    4.215243986048));
#255 = CARTESIAN_POINT('',(15.231352181065,10.739928416787,
    4.214607154053));
#256 = ORIENTED_EDGE('',*,*,#257,.F.);
#257 = EDGE_CURVE('',#258,#233,#260,.T.);
#258 = VERTEX_POINT('',#259);
#259 = CARTESIAN_POINT('',(15.325653422079,10.605288731225,
    3.588479112358));
#260 = CIRCLE('',#261,1.989514074005);
#261 = AXIS2_PLACEMENT_3D('',#262,#263,#264);
#262 = CARTESIAN_POINT('',(16.367543627572,9.117315311005,4.4));
#263 = DIRECTION('',(0.819152044289,0.573576436351,-0.));
#264 = DIRECTION('',(-0.573576436351,0.819152044289,0.));
#265 = ORIENTED_EDGE('',*,*,#266,.F.);
#266 = EDGE_CURVE('',#267,#258,#269,.T.);
#267 = VERTEX_POINT('',#268);
#268 = CARTESIAN_POINT('',(16.066323335716,10.781047598866,3.5));
#269 = B_SPLINE_CURVE_WITH_KNOTS('',7,(#270,#271,#272,#273,#274,#275,
    #276,#277,#278,#279,#280,#281,#282,#283,#284,#285,#286,#287,#288,
    #289),.UNSPECIFIED.,.F.,.F.,(8,6,6,8),(0.,0.200317793432,
    0.635518483468,1.),.UNSPECIFIED.);
#270 = CARTESIAN_POINT('',(16.066323362425,10.78104760087,3.5));
#271 = CARTESIAN_POINT('',(16.045519692103,10.779486179961,
    3.499999999703));
#272 = CARTESIAN_POINT('',(16.024661740582,10.777772096122,
    3.500270190481));
#273 = CARTESIAN_POINT('',(16.003755319266,10.7758983346,3.500802086612)
  );
#274 = CARTESIAN_POINT('',(15.982805686104,10.773857619843,
    3.501586758858));
#275 = CARTESIAN_POINT('',(15.961817545591,10.771642415504,
    3.502614834476));
#276 = CARTESIAN_POINT('',(15.940795048766,10.769244924441,
    3.503876497209));
#277 = CARTESIAN_POINT('',(15.87400251471,10.761034882751,3.508587704486
    ));
#278 = CARTESIAN_POINT('',(15.828126127255,10.754514929124,
    3.512867202675));
#279 = CARTESIAN_POINT('',(15.782138092463,10.747012973594,
    3.518094058466));
#280 = CARTESIAN_POINT('',(15.736061695476,10.738433987591,
    3.524149432579));
#281 = CARTESIAN_POINT('',(15.689916314804,10.728671139741,
    3.530894785529));
#282 = CARTESIAN_POINT('',(15.643710354088,10.717593873663,
    3.538158824333));
#283 = CARTESIAN_POINT('',(15.558667964391,10.694498710308,
    3.552049157085));
#284 = CARTESIAN_POINT('',(15.519880112532,10.68293313548,3.558582958633
    ));
#285 = CARTESIAN_POINT('',(15.481032759659,10.670220276234,
    3.565191834415));
#286 = CARTESIAN_POINT('',(15.442130616327,10.6562372894,3.571714474418)
  );
#287 = CARTESIAN_POINT('',(15.40321231294,10.640850775393,3.577946743133
    ));
#288 = CARTESIAN_POINT('',(15.36434381732,10.623908843659,3.583625165376
    ));
#289 = CARTESIAN_POINT('',(15.325634335523,10.605279545826,
    3.588481506967));
#290 = ORIENTED_EDGE('',*,*,#291,.T.);
#291 = EDGE_CURVE('',#267,#292,#294,.T.);
#292 = VERTEX_POINT('',#293);
#293 = CARTESIAN_POINT('',(17.865058879635,8.353796527904,3.5));
#294 = CIRCLE('',#295,1.786057109949);
#295 = AXIS2_PLACEMENT_3D('',#296,#297,#298);
#296 = CARTESIAN_POINT('',(16.2,9.,3.5));
#297 = DIRECTION('',(0.,0.,1.));
#298 = DIRECTION('',(1.,0.,0.));
#299 = ORIENTED_EDGE('',*,*,#300,.T.);
#300 = EDGE_CURVE('',#292,#301,#303,.T.);
#301 = VERTEX_POINT('',#302);
#302 = CARTESIAN_POINT('',(17.426889154575,7.604413108166,3.660351279507
    ));
#303 = B_SPLINE_CURVE_WITH_KNOTS('',6,(#304,#305,#306,#307,#308,#309,
    #310,#311,#312,#313,#314,#315,#316,#317,#318,#319,#320,#321,#322,
    #323,#324,#325),.UNSPECIFIED.,.F.,.F.,(7,5,5,5,7),(0.,0.445916922285
    ,0.697768392112,0.95675334328,1.),.UNSPECIFIED.);
#304 = CARTESIAN_POINT('',(17.865058879635,8.353796527904,3.5));
#305 = CARTESIAN_POINT('',(17.842278911554,8.29509986382,3.5));
#306 = CARTESIAN_POINT('',(17.818242725368,8.23634636899,3.503002518059)
  );
#307 = CARTESIAN_POINT('',(17.792855981913,8.177814534514,3.508791696389
    ));
#308 = CARTESIAN_POINT('',(17.766011644593,8.119732532095,3.517131436881
    ));
#309 = CARTESIAN_POINT('',(17.737594659251,8.062290519959,3.527769432061
    ));
#310 = CARTESIAN_POINT('',(17.690345369224,7.973608705427,3.547499149526
    ));
#311 = CARTESIAN_POINT('',(17.672725056981,7.941847383887,3.555248384324
    ));
#312 = CARTESIAN_POINT('',(17.654501053549,7.910355587774,3.563566612234
    ));
#313 = CARTESIAN_POINT('',(17.635626790064,7.879152919738,3.572384895982
    ));
#314 = CARTESIAN_POINT('',(17.616044631487,7.848255236038,3.581621239027
    ));
#315 = CARTESIAN_POINT('',(17.574696166286,7.7862118292,3.600966973203)
  );
#316 = CARTESIAN_POINT('',(17.552896526919,7.755103456343,3.611087451939
    ));
#317 = CARTESIAN_POINT('',(17.530139806079,7.724316167588,3.621402309866
    ));
#318 = CARTESIAN_POINT('',(17.506280897992,7.693857452507,3.631739532636
    ));
#319 = CARTESIAN_POINT('',(17.481144062797,7.663752107881,3.641844137748
    ));
#320 = CARTESIAN_POINT('',(17.449916136727,7.629052643053,3.652831954891
    ));
#321 = CARTESIAN_POINT('',(17.445402927746,7.624098339805,3.654384829072
    ));
#322 = CARTESIAN_POINT('',(17.440843557482,7.619155223817,3.655916129738
    ));
#323 = CARTESIAN_POINT('',(17.436236623971,7.614223712292,3.657423476537
    ));
#324 = CARTESIAN_POINT('',(17.431580714242,7.609304334122,3.658904297492
    ));
#325 = CARTESIAN_POINT('',(17.426874404318,7.60439772989,3.660355829));
#326 = ORIENTED_EDGE('',*,*,#327,.F.);
#327 = EDGE_CURVE('',#165,#301,#328,.T.);
#328 = CIRCLE('',#329,1.989514074005);
#329 = AXIS2_PLACEMENT_3D('',#330,#331,#332);
#330 = CARTESIAN_POINT('',(16.367543627572,9.117315311005,4.4));
#331 = DIRECTION('',(0.819152044289,0.573576436351,-0.));
#332 = DIRECTION('',(-0.573576436351,0.819152044289,0.));
#333 = SPHERICAL_SURFACE('',#334,2.);
#334 = AXIS2_PLACEMENT_3D('',#335,#336,#337);
#335 = CARTESIAN_POINT('',(16.2,9.,4.4));
#336 = DIRECTION('',(0.,0.,1.));
#337 = DIRECTION('',(1.,0.,0.));
#338 = ADVANCED_FACE('',(#339),#381,.T.);
#339 = FACE_BOUND('',#340,.T.);
#340 = EDGE_LOOP('',(#341,#351,#358,#359,#360,#361));
#341 = ORIENTED_EDGE('',*,*,#342,.F.);
#342 = EDGE_CURVE('',#343,#345,#347,.T.);
#343 = VERTEX_POINT('',#344);
#344 = CARTESIAN_POINT('',(15.205694254596,10.776608177156,4.01));
#345 = VERTEX_POINT('',#346);
#346 = CARTESIAN_POINT('',(18.261336429892,12.91619186237,4.01));
#347 = LINE('',#348,#349);
#348 = CARTESIAN_POINT('',(15.205694254596,10.776608177156,4.01));
#349 = VECTOR('',#350,1.);
#350 = DIRECTION('',(0.819152044289,0.573576436351,0.));
#351 = ORIENTED_EDGE('',*,*,#352,.T.);
#352 = EDGE_CURVE('',#343,#233,#353,.T.);
#353 = CIRCLE('',#354,0.49);
#354 = AXIS2_PLACEMENT_3D('',#355,#356,#357);
#355 = CARTESIAN_POINT('',(15.486746708408,10.375223675454,4.01));
#356 = DIRECTION('',(0.819152044289,0.573576436351,-0.));
#357 = DIRECTION('',(-0.573576436351,0.819152044289,0.));
#358 = ORIENTED_EDGE('',*,*,#232,.F.);
#359 = ORIENTED_EDGE('',*,*,#58,.F.);
#360 = ORIENTED_EDGE('',*,*,#139,.T.);
#361 = ORIENTED_EDGE('',*,*,#362,.F.);
#362 = EDGE_CURVE('',#345,#131,#363,.T.);
#363 = B_SPLINE_CURVE_WITH_KNOTS('',6,(#364,#365,#366,#367,#368,#369,
    #370,#371,#372,#373,#374,#375,#376,#377,#378,#379,#380),
  .UNSPECIFIED.,.F.,.F.,(7,5,5,7),(0.,0.295625782274,0.625731739223,1.),
  .UNSPECIFIED.);
#364 = CARTESIAN_POINT('',(18.261336429892,12.91619186237,4.01));
#365 = CARTESIAN_POINT('',(18.261336429892,12.91619186237,4.048345168481
    ));
#366 = CARTESIAN_POINT('',(18.266098628136,12.915130538253,
    4.086644494503));
#367 = CARTESIAN_POINT('',(18.27560168726,12.913012745989,4.124463227841
    ));
#368 = CARTESIAN_POINT('',(18.289670328501,12.909824961749,
    4.161369042508));
#369 = CARTESIAN_POINT('',(18.307973937636,12.905538648207,
    4.196929797081));
#370 = CARTESIAN_POINT('',(18.354654426948,12.894143251129,
    4.268491812466));
#371 = CARTESIAN_POINT('',(18.383969619619,12.886760393264,4.30407997431
    ));
#372 = CARTESIAN_POINT('',(18.41743261137,12.877973754437,4.337124026577
    ));
#373 = CARTESIAN_POINT('',(18.454439700956,12.867746800992,
    4.367251863638));
#374 = CARTESIAN_POINT('',(18.494346220044,12.856072446485,
    4.394117568239));
#375 = CARTESIAN_POINT('',(18.584268141857,12.828192447683,
    4.443840117312));
#376 = CARTESIAN_POINT('',(18.635040660098,12.811552374403,
    4.465745669377));
#377 = CARTESIAN_POINT('',(18.687848326866,12.793154016101,
    4.482647603925));
#378 = CARTESIAN_POINT('',(18.741720754295,12.773154258027,
    4.494159217219));
#379 = CARTESIAN_POINT('',(18.795745298019,12.751827851181,4.5));
#380 = CARTESIAN_POINT('',(18.849074321705,12.729550816215,4.5));
#381 = CYLINDRICAL_SURFACE('',#382,0.49);
#382 = AXIS2_PLACEMENT_3D('',#383,#384,#385);
#383 = CARTESIAN_POINT('',(15.486746708408,10.375223675454,4.01));
#384 = DIRECTION('',(0.819152044289,0.573576436351,0.));
#385 = DIRECTION('',(-0.573576436351,0.819152044289,0.));
#386 = ADVANCED_FACE('',(#387),#390,.T.);
#387 = FACE_BOUND('',#388,.T.);
#388 = EDGE_LOOP('',(#389));
#389 = ORIENTED_EDGE('',*,*,#41,.T.);
#390 = PLANE('',#391);
#391 = AXIS2_PLACEMENT_3D('',#392,#393,#394);
#392 = CARTESIAN_POINT('',(16.2,9.,6.));
#393 = DIRECTION('',(0.,0.,1.));
#394 = DIRECTION('',(1.,0.,0.));
#395 = ADVANCED_FACE('',(#396),#465,.T.);
#396 = FACE_BOUND('',#397,.T.);
#397 = EDGE_LOOP('',(#398,#419,#428,#450,#456,#457,#458,#459));
#398 = ORIENTED_EDGE('',*,*,#399,.T.);
#399 = EDGE_CURVE('',#400,#402,#404,.T.);
#400 = VERTEX_POINT('',#401);
#401 = CARTESIAN_POINT('',(20.973238616575,9.931987861327,3.99));
#402 = VERTEX_POINT('',#403);
#403 = CARTESIAN_POINT('',(20.866975073808,10.455760876138,3.5));
#404 = B_SPLINE_CURVE_WITH_KNOTS('',7,(#405,#406,#407,#408,#409,#410,
    #411,#412,#413,#414,#415,#416,#417,#418),.UNSPECIFIED.,.F.,.F.,(8,6,
    8),(0.,0.717500184208,1.),.UNSPECIFIED.);
#405 = CARTESIAN_POINT('',(20.973238616575,9.931987861327,3.99));
#406 = CARTESIAN_POINT('',(20.973238616575,9.931987861327,3.912761541247
    ));
#407 = CARTESIAN_POINT('',(20.971255090809,9.94793901492,3.835740793264)
  );
#408 = CARTESIAN_POINT('',(20.967305316055,9.979678326084,3.761701370793
    ));
#409 = CARTESIAN_POINT('',(20.961052091112,10.026236311758,
    3.693408939706));
#410 = CARTESIAN_POINT('',(20.951792726962,10.085706471933,
    3.633677140565));
#411 = CARTESIAN_POINT('',(20.93899510347,10.155288472238,3.585175914923
    ));
#412 = CARTESIAN_POINT('',(20.916259524839,10.261652799994,
    3.536103555333));
#413 = CARTESIAN_POINT('',(20.909288247109,10.29276196259,3.524293274281
    ));
#414 = CARTESIAN_POINT('',(20.901774546495,10.324697475965,
    3.514679596582));
#415 = CARTESIAN_POINT('',(20.893740161783,10.357213831108,
    3.507376074027));
#416 = CARTESIAN_POINT('',(20.88522296829,10.39006096748,3.502465574811)
  );
#417 = CARTESIAN_POINT('',(20.876277433685,10.422990321687,3.5));
#418 = CARTESIAN_POINT('',(20.866975073808,10.455760876138,3.5));
#419 = ORIENTED_EDGE('',*,*,#420,.T.);
#420 = EDGE_CURVE('',#402,#421,#423,.T.);
#421 = VERTEX_POINT('',#422);
#422 = CARTESIAN_POINT('',(18.849074321705,12.729550816215,3.5));
#423 = CIRCLE('',#424,3.5);
#424 = AXIS2_PLACEMENT_3D('',#425,#426,#427);
#425 = CARTESIAN_POINT('',(17.5,9.5,3.5));
#426 = DIRECTION('',(-0.,0.,1.));
#427 = DIRECTION('',(0.,-1.,0.));
#428 = ORIENTED_EDGE('',*,*,#429,.F.);
#429 = EDGE_CURVE('',#430,#421,#432,.T.);
#430 = VERTEX_POINT('',#431);
#431 = CARTESIAN_POINT('',(18.261336429892,12.91619186237,3.99));
#432 = B_SPLINE_CURVE_WITH_KNOTS('',6,(#433,#434,#435,#436,#437,#438,
    #439,#440,#441,#442,#443,#444,#445,#446,#447,#448,#449),
  .UNSPECIFIED.,.F.,.F.,(7,5,5,7),(0.,0.295625782396,0.625731739501,1.),
  .UNSPECIFIED.);
#433 = CARTESIAN_POINT('',(18.261336429892,12.91619186237,3.99));
#434 = CARTESIAN_POINT('',(18.261336429892,12.91619186237,3.951654830831
    ));
#435 = CARTESIAN_POINT('',(18.266098628307,12.915130538215,
    3.913355504126));
#436 = CARTESIAN_POINT('',(18.275601687771,12.913012745876,3.87553677013
    ));
#437 = CARTESIAN_POINT('',(18.289670329508,12.909824961521,
    3.838630954853));
#438 = CARTESIAN_POINT('',(18.307973939273,12.905538647823,
    3.803070199739));
#439 = CARTESIAN_POINT('',(18.354654430137,12.894143250332,
    3.731508183394));
#440 = CARTESIAN_POINT('',(18.38396962376,12.886760392199,3.695920021151
    ));
#441 = CARTESIAN_POINT('',(18.41743261656,12.877973753049,3.662875968607
    ));
#442 = CARTESIAN_POINT('',(18.45443970726,12.867746799229,3.63274813141)
  );
#443 = CARTESIAN_POINT('',(18.494346227492,12.856072444294,
    3.605882426828));
#444 = CARTESIAN_POINT('',(18.584268151682,12.828192444502,
    3.556159878179));
#445 = CARTESIAN_POINT('',(18.635040671159,12.811552370647,
    3.534254326554));
#446 = CARTESIAN_POINT('',(18.687848339107,12.793154011726,3.51735239267
    ));
#447 = CARTESIAN_POINT('',(18.741720767605,12.77315425301,3.505840780279
    ));
#448 = CARTESIAN_POINT('',(18.79574531224,12.75182784553,3.499999998637)
  );
#449 = CARTESIAN_POINT('',(18.84907433664,12.729550809976,3.5));
#450 = ORIENTED_EDGE('',*,*,#451,.T.);
#451 = EDGE_CURVE('',#430,#345,#452,.T.);
#452 = LINE('',#453,#454);
#453 = CARTESIAN_POINT('',(18.261336429892,12.91619186237,3.5));
#454 = VECTOR('',#455,1.);
#455 = DIRECTION('',(0.,0.,1.));
#456 = ORIENTED_EDGE('',*,*,#362,.T.);
#457 = ORIENTED_EDGE('',*,*,#130,.F.);
#458 = ORIENTED_EDGE('',*,*,#200,.F.);
#459 = ORIENTED_EDGE('',*,*,#460,.F.);
#460 = EDGE_CURVE('',#400,#157,#461,.T.);
#461 = LINE('',#462,#463);
#462 = CARTESIAN_POINT('',(20.973238616575,9.931987861327,3.5));
#463 = VECTOR('',#464,1.);
#464 = DIRECTION('',(0.,0.,1.));
#465 = CYLINDRICAL_SURFACE('',#466,3.5);
#466 = AXIS2_PLACEMENT_3D('',#467,#468,#469);
#467 = CARTESIAN_POINT('',(17.5,9.5,3.5));
#468 = DIRECTION('',(0.,0.,1.));
#469 = DIRECTION('',(1.,0.,0.));
#470 = ADVANCED_FACE('',(#471),#489,.F.);
#471 = FACE_BOUND('',#472,.F.);
#472 = EDGE_LOOP('',(#473,#474,#482,#488));
#473 = ORIENTED_EDGE('',*,*,#460,.F.);
#474 = ORIENTED_EDGE('',*,*,#475,.F.);
#475 = EDGE_CURVE('',#476,#400,#478,.T.);
#476 = VERTEX_POINT('',#477);
#477 = CARTESIAN_POINT('',(17.5,7.5,3.99));
#478 = LINE('',#479,#480);
#479 = CARTESIAN_POINT('',(17.5,7.5,3.99));
#480 = VECTOR('',#481,1.);
#481 = DIRECTION('',(0.819152044289,0.573576436351,0.));
#482 = ORIENTED_EDGE('',*,*,#483,.T.);
#483 = EDGE_CURVE('',#476,#155,#484,.T.);
#484 = LINE('',#485,#486);
#485 = CARTESIAN_POINT('',(17.5,7.5,3.5));
#486 = VECTOR('',#487,1.);
#487 = DIRECTION('',(0.,0.,1.));
#488 = ORIENTED_EDGE('',*,*,#154,.T.);
#489 = PLANE('',#490);
#490 = AXIS2_PLACEMENT_3D('',#491,#492,#493);
#491 = CARTESIAN_POINT('',(17.5,7.5,3.5));
#492 = DIRECTION('',(-0.573576436351,0.819152044289,0.));
#493 = DIRECTION('',(0.,0.,1.));
#494 = ADVANCED_FACE('',(#495),#507,.F.);
#495 = FACE_BOUND('',#496,.F.);
#496 = EDGE_LOOP('',(#497,#498,#505,#506));
#497 = ORIENTED_EDGE('',*,*,#483,.F.);
#498 = ORIENTED_EDGE('',*,*,#499,.T.);
#499 = EDGE_CURVE('',#476,#301,#500,.T.);
#500 = CIRCLE('',#501,0.49);
#501 = AXIS2_PLACEMENT_3D('',#502,#503,#504);
#502 = CARTESIAN_POINT('',(17.218947546188,7.901384501702,3.99));
#503 = DIRECTION('',(0.819152044289,0.573576436351,-0.));
#504 = DIRECTION('',(-0.573576436351,0.819152044289,0.));
#505 = ORIENTED_EDGE('',*,*,#327,.F.);
#506 = ORIENTED_EDGE('',*,*,#164,.F.);
#507 = PLANE('',#508);
#508 = AXIS2_PLACEMENT_3D('',#509,#510,#511);
#509 = CARTESIAN_POINT('',(17.5,7.5,3.5));
#510 = DIRECTION('',(0.819152044289,0.573576436351,0.));
#511 = DIRECTION('',(0.,0.,1.));
#512 = ADVANCED_FACE('',(#513),#525,.T.);
#513 = FACE_BOUND('',#514,.T.);
#514 = EDGE_LOOP('',(#515,#516,#517,#518,#524));
#515 = ORIENTED_EDGE('',*,*,#475,.F.);
#516 = ORIENTED_EDGE('',*,*,#499,.T.);
#517 = ORIENTED_EDGE('',*,*,#300,.F.);
#518 = ORIENTED_EDGE('',*,*,#519,.T.);
#519 = EDGE_CURVE('',#292,#402,#520,.T.);
#520 = LINE('',#521,#522);
#521 = CARTESIAN_POINT('',(17.218947546188,7.901384501702,3.5));
#522 = VECTOR('',#523,1.);
#523 = DIRECTION('',(0.819152044289,0.573576436351,0.));
#524 = ORIENTED_EDGE('',*,*,#399,.F.);
#525 = CYLINDRICAL_SURFACE('',#526,0.49);
#526 = AXIS2_PLACEMENT_3D('',#527,#528,#529);
#527 = CARTESIAN_POINT('',(17.218947546188,7.901384501702,3.99));
#528 = DIRECTION('',(0.819152044289,0.573576436351,0.));
#529 = DIRECTION('',(0.573576436351,-0.819152044289,0.));
#530 = ADVANCED_FACE('',(#531),#542,.T.);
#531 = FACE_BOUND('',#532,.T.);
#532 = EDGE_LOOP('',(#533,#534,#540,#541));
#533 = ORIENTED_EDGE('',*,*,#291,.F.);
#534 = ORIENTED_EDGE('',*,*,#535,.T.);
#535 = EDGE_CURVE('',#267,#421,#536,.T.);
#536 = LINE('',#537,#538);
#537 = CARTESIAN_POINT('',(15.486746708408,10.375223675454,3.5));
#538 = VECTOR('',#539,1.);
#539 = DIRECTION('',(0.819152044289,0.573576436351,0.));
#540 = ORIENTED_EDGE('',*,*,#420,.F.);
#541 = ORIENTED_EDGE('',*,*,#519,.F.);
#542 = PLANE('',#543);
#543 = AXIS2_PLACEMENT_3D('',#544,#545,#546);
#544 = CARTESIAN_POINT('',(17.862898745321,10.184678733225,3.5));
#545 = DIRECTION('',(-0.,-0.,-1.));
#546 = DIRECTION('',(-1.,0.,0.));
#547 = ADVANCED_FACE('',(#548),#568,.T.);
#548 = FACE_BOUND('',#549,.F.);
#549 = EDGE_LOOP('',(#550,#558,#565,#566,#567));
#550 = ORIENTED_EDGE('',*,*,#551,.F.);
#551 = EDGE_CURVE('',#552,#430,#554,.T.);
#552 = VERTEX_POINT('',#553);
#553 = CARTESIAN_POINT('',(15.205694254596,10.776608177156,3.99));
#554 = LINE('',#555,#556);
#555 = CARTESIAN_POINT('',(15.205694254596,10.776608177156,3.99));
#556 = VECTOR('',#557,1.);
#557 = DIRECTION('',(0.819152044289,0.573576436351,0.));
#558 = ORIENTED_EDGE('',*,*,#559,.T.);
#559 = EDGE_CURVE('',#552,#258,#560,.T.);
#560 = CIRCLE('',#561,0.49);
#561 = AXIS2_PLACEMENT_3D('',#562,#563,#564);
#562 = CARTESIAN_POINT('',(15.486746708408,10.375223675454,3.99));
#563 = DIRECTION('',(-0.819152044289,-0.573576436351,-0.));
#564 = DIRECTION('',(-0.573576436351,0.819152044289,0.));
#565 = ORIENTED_EDGE('',*,*,#266,.F.);
#566 = ORIENTED_EDGE('',*,*,#535,.T.);
#567 = ORIENTED_EDGE('',*,*,#429,.F.);
#568 = CYLINDRICAL_SURFACE('',#569,0.49);
#569 = AXIS2_PLACEMENT_3D('',#570,#571,#572);
#570 = CARTESIAN_POINT('',(15.486746708408,10.375223675454,3.99));
#571 = DIRECTION('',(0.819152044289,0.573576436351,0.));
#572 = DIRECTION('',(-0.573576436351,0.819152044289,0.));
#573 = ADVANCED_FACE('',(#574),#585,.F.);
#574 = FACE_BOUND('',#575,.F.);
#575 = EDGE_LOOP('',(#576,#577,#578,#584));
#576 = ORIENTED_EDGE('',*,*,#257,.F.);
#577 = ORIENTED_EDGE('',*,*,#559,.F.);
#578 = ORIENTED_EDGE('',*,*,#579,.T.);
#579 = EDGE_CURVE('',#552,#343,#580,.T.);
#580 = LINE('',#581,#582);
#581 = CARTESIAN_POINT('',(15.205694254596,10.776608177156,3.5));
#582 = VECTOR('',#583,1.);
#583 = DIRECTION('',(0.,0.,1.));
#584 = ORIENTED_EDGE('',*,*,#352,.T.);
#585 = PLANE('',#586);
#586 = AXIS2_PLACEMENT_3D('',#587,#588,#589);
#587 = CARTESIAN_POINT('',(17.5,7.5,3.5));
#588 = DIRECTION('',(0.819152044289,0.573576436351,0.));
#589 = DIRECTION('',(0.,0.,1.));
#590 = ADVANCED_FACE('',(#591),#597,.T.);
#591 = FACE_BOUND('',#592,.T.);
#592 = EDGE_LOOP('',(#593,#594,#595,#596));
#593 = ORIENTED_EDGE('',*,*,#451,.F.);
#594 = ORIENTED_EDGE('',*,*,#551,.F.);
#595 = ORIENTED_EDGE('',*,*,#579,.T.);
#596 = ORIENTED_EDGE('',*,*,#342,.T.);
#597 = PLANE('',#598);
#598 = AXIS2_PLACEMENT_3D('',#599,#600,#601);
#599 = CARTESIAN_POINT('',(15.205694254596,10.776608177156,3.5));
#600 = DIRECTION('',(-0.573576436351,0.819152044289,0.));
#601 = DIRECTION('',(0.,0.,1.));
#602 = ( GEOMETRIC_REPRESENTATION_CONTEXT(3) 
GLOBAL_UNCERTAINTY_ASSIGNED_CONTEXT((#606)) GLOBAL_UNIT_ASSIGNED_CONTEXT
((#603,#604,#605)) REPRESENTATION_CONTEXT('Context #1',
  '3D Context with UNIT and UNCERTAINTY') );
#603 = ( LENGTH_UNIT() NAMED_UNIT(*) SI_UNIT(.MILLI.,.METRE.) );
#604 = ( NAMED_UNIT(*) PLANE_ANGLE_UNIT() SI_UNIT($,.RADIAN.) );
#605 = ( NAMED_UNIT(*) SI_UNIT($,.STERADIAN.) SOLID_ANGLE_UNIT() );
#606 = UNCERTAINTY_MEASURE_WITH_UNIT(LENGTH_MEASURE(1.E-07),#603,
  'distance_accuracy_value','confusion accuracy');
#607 = PRODUCT_RELATED_PRODUCT_CATEGORY('part',$,(#7));
#608 = MECHANICAL_DESIGN_GEOMETRIC_PRESENTATION_REPRESENTATION('',(#609)
  ,#602);
#609 = STYLED_ITEM('color',(#610),#15);
#610 = PRESENTATION_STYLE_ASSIGNMENT((#611,#619));
#611 = SURFACE_STYLE_USAGE(.BOTH.,#612);
#612 = SURFACE_SIDE_STYLE('',(#613,#617));
#613 = SURFACE_STYLE_FILL_AREA(#614);
#614 = FILL_AREA_STYLE('',(#615));
#615 = FILL_AREA_STYLE_COLOUR('',#616);
#616 = COLOUR_RGB('',0.447058818107,0.474509808674,0.501960817233);
#617 = SURFACE_STYLE_RENDERING_WITH_PROPERTIES(.NORMAL_SHADING.,#616,(
    #618));
#618 = SURFACE_STYLE_TRANSPARENT(0.800000011921);
#619 = CURVE_STYLE('',#620,POSITIVE_LENGTH_MEASURE(0.1),#621);
#620 = DRAUGHTING_PRE_DEFINED_CURVE_FONT('continuous');
#621 = COLOUR_RGB('',9.803921802644E-02,9.803921802644E-02,
  9.803921802644E-02);
ENDSEC;
END-ISO-10303-21;
