ISO-10303-21;
HEADER;
FILE_DESCRIPTION(('FreeCAD Model'),'2;1');
FILE_NAME('Open CASCADE Shape Model','2026-10-08T22:06:40',(''),(''),
  'Open CASCADE STEP processor 7.8','FreeCAD','Unknown');
FILE_SCHEMA(('AUTOMOTIVE_DESIGN { 1 0 10303 214 1 1 1 1 }'));
ENDSEC;
DATA;
#1 = APPLICATION_PROTOCOL_DEFINITION('international standard',
  'automotive_design',2000,#2);
#2 = APPLICATION_CONTEXT(
  'core data for automotive mechanical design processes');
#3 = SHAPE_DEFINITION_REPRESENTATION(#4,#10);
#4 = PRODUCT_DEFINITION_SHAPE('','',#5);
#5 = PRODUCT_DEFINITION('design','',#6,#9);
#6 = PRODUCT_DEFINITION_FORMATION('','',#7);
#7 = PRODUCT('Da Bottom','Da Bottom','',(#8));
#8 = PRODUCT_CONTEXT('',#2,'mechanical');
#9 = PRODUCT_DEFINITION_CONTEXT('part definition',#2,'design');
#10 = ADVANCED_BREP_SHAPE_REPRESENTATION('',(#11,#15),#2321);
#11 = AXIS2_PLACEMENT_3D('',#12,#13,#14);
#12 = CARTESIAN_POINT('',(0.,0.,0.));
#13 = DIRECTION('',(0.,0.,1.));
#14 = DIRECTION('',(1.,0.,-0.));
#15 = MANIFOLD_SOLID_BREP('',#16);
#16 = CLOSED_SHELL('',(#17,#157,#238,#262,#286,#310,#442,#509,#540,#564,
    #598,#622,#646,#670,#704,#721,#800,#825,#849,#889,#914,#957,#980,
    #1037,#1094,#1116,#1173,#1263,#1321,#1345,#1385,#1409,#1434,#1458,
    #1483,#1507,#1525,#1568,#1592,#1684,#1708,#1782,#1813,#1827,#1844,
    #1854,#1871,#1881,#1898,#1908,#1939,#1964,#1988,#2012,#2036,#2061,
    #2085,#2102,#2119,#2129,#2146,#2158,#2175,#2202,#2219,#2236,#2253,
    #2265,#2279,#2293,#2307));
#17 = ADVANCED_FACE('',(#18,#84),#152,.F.);
#18 = FACE_BOUND('',#19,.F.);
#19 = EDGE_LOOP('',(#20,#30,#38,#46,#54,#62,#70,#78));
#20 = ORIENTED_EDGE('',*,*,#21,.F.);
#21 = EDGE_CURVE('',#22,#24,#26,.T.);
#22 = VERTEX_POINT('',#23);
#23 = CARTESIAN_POINT('',(-21.,-9.5,1.));
#24 = VERTEX_POINT('',#25);
#25 = CARTESIAN_POINT('',(-21.,-6.,1.));
#26 = LINE('',#27,#28);
#27 = CARTESIAN_POINT('',(-21.,-13.,1.));
#28 = VECTOR('',#29,1.);
#29 = DIRECTION('',(0.,1.,0.));
#30 = ORIENTED_EDGE('',*,*,#31,.F.);
#31 = EDGE_CURVE('',#32,#22,#34,.T.);
#32 = VERTEX_POINT('',#33);
#33 = CARTESIAN_POINT('',(-21.,-9.5,-4.5));
#34 = LINE('',#35,#36);
#35 = CARTESIAN_POINT('',(-21.,-9.5,-4.5));
#36 = VECTOR('',#37,1.);
#37 = DIRECTION('',(0.,0.,1.));
#38 = ORIENTED_EDGE('',*,*,#39,.T.);
#39 = EDGE_CURVE('',#32,#40,#42,.T.);
#40 = VERTEX_POINT('',#41);
#41 = CARTESIAN_POINT('',(-21.,9.5,-4.5));
#42 = LINE('',#43,#44);
#43 = CARTESIAN_POINT('',(-21.,-13.,-4.5));
#44 = VECTOR('',#45,1.);
#45 = DIRECTION('',(0.,1.,0.));
#46 = ORIENTED_EDGE('',*,*,#47,.T.);
#47 = EDGE_CURVE('',#40,#48,#50,.T.);
#48 = VERTEX_POINT('',#49);
#49 = CARTESIAN_POINT('',(-21.,9.5,1.));
#50 = LINE('',#51,#52);
#51 = CARTESIAN_POINT('',(-21.,9.5,-4.5));
#52 = VECTOR('',#53,1.);
#53 = DIRECTION('',(0.,0.,1.));
#54 = ORIENTED_EDGE('',*,*,#55,.F.);
#55 = EDGE_CURVE('',#56,#48,#58,.T.);
#56 = VERTEX_POINT('',#57);
#57 = CARTESIAN_POINT('',(-21.,6.,1.));
#58 = LINE('',#59,#60);
#59 = CARTESIAN_POINT('',(-21.,-13.,1.));
#60 = VECTOR('',#61,1.);
#61 = DIRECTION('',(0.,1.,0.));
#62 = ORIENTED_EDGE('',*,*,#63,.F.);
#63 = EDGE_CURVE('',#64,#56,#66,.T.);
#64 = VERTEX_POINT('',#65);
#65 = CARTESIAN_POINT('',(-21.,6.,0.3));
#66 = LINE('',#67,#68);
#67 = CARTESIAN_POINT('',(-21.,6.,-2.1));
#68 = VECTOR('',#69,1.);
#69 = DIRECTION('',(0.,0.,1.));
#70 = ORIENTED_EDGE('',*,*,#71,.T.);
#71 = EDGE_CURVE('',#64,#72,#74,.T.);
#72 = VERTEX_POINT('',#73);
#73 = CARTESIAN_POINT('',(-21.,-6.,0.3));
#74 = LINE('',#75,#76);
#75 = CARTESIAN_POINT('',(-21.,-9.5,0.3));
#76 = VECTOR('',#77,1.);
#77 = DIRECTION('',(0.,-1.,0.));
#78 = ORIENTED_EDGE('',*,*,#79,.T.);
#79 = EDGE_CURVE('',#72,#24,#80,.T.);
#80 = LINE('',#81,#82);
#81 = CARTESIAN_POINT('',(-21.,-6.,-2.1));
#82 = VECTOR('',#83,1.);
#83 = DIRECTION('',(0.,0.,1.));
#84 = FACE_BOUND('',#85,.F.);
#85 = EDGE_LOOP('',(#86,#96,#104,#113,#121,#129,#137,#146));
#86 = ORIENTED_EDGE('',*,*,#87,.F.);
#87 = EDGE_CURVE('',#88,#90,#92,.T.);
#88 = VERTEX_POINT('',#89);
#89 = CARTESIAN_POINT('',(-21.,2.9,-0.5));
#90 = VERTEX_POINT('',#91);
#91 = CARTESIAN_POINT('',(-21.,-2.9,-0.5));
#92 = LINE('',#93,#94);
#93 = CARTESIAN_POINT('',(-21.,-5.05,-0.5));
#94 = VECTOR('',#95,1.);
#95 = DIRECTION('',(0.,-1.,0.));
#96 = ORIENTED_EDGE('',*,*,#97,.T.);
#97 = EDGE_CURVE('',#88,#98,#100,.T.);
#98 = VERTEX_POINT('',#99);
#99 = CARTESIAN_POINT('',(-21.,2.9,-0.504006420562));
#100 = LINE('',#101,#102);
#101 = CARTESIAN_POINT('',(-21.,2.9,-3.75));
#102 = VECTOR('',#103,1.);
#103 = DIRECTION('',(0.,0.,-1.));
#104 = ORIENTED_EDGE('',*,*,#105,.F.);
#105 = EDGE_CURVE('',#106,#98,#108,.T.);
#106 = VERTEX_POINT('',#107);
#107 = CARTESIAN_POINT('',(-21.,2.9,-2.995993579438));
#108 = CIRCLE('',#109,1.25);
#109 = AXIS2_PLACEMENT_3D('',#110,#111,#112);
#110 = CARTESIAN_POINT('',(-21.,3.,-1.75));
#111 = DIRECTION('',(1.,-1.2E-16,-2.2E-16));
#112 = DIRECTION('',(-2.2E-16,0.,-1.));
#113 = ORIENTED_EDGE('',*,*,#114,.T.);
#114 = EDGE_CURVE('',#106,#115,#117,.T.);
#115 = VERTEX_POINT('',#116);
#116 = CARTESIAN_POINT('',(-21.,2.9,-3.));
#117 = LINE('',#118,#119);
#118 = CARTESIAN_POINT('',(-21.,2.9,-3.75));
#119 = VECTOR('',#120,1.);
#120 = DIRECTION('',(0.,0.,-1.));
#121 = ORIENTED_EDGE('',*,*,#122,.T.);
#122 = EDGE_CURVE('',#115,#123,#125,.T.);
#123 = VERTEX_POINT('',#124);
#124 = CARTESIAN_POINT('',(-21.,-2.9,-3.));
#125 = LINE('',#126,#127);
#126 = CARTESIAN_POINT('',(-21.,-5.05,-3.));
#127 = VECTOR('',#128,1.);
#128 = DIRECTION('',(0.,-1.,0.));
#129 = ORIENTED_EDGE('',*,*,#130,.F.);
#130 = EDGE_CURVE('',#131,#123,#133,.T.);
#131 = VERTEX_POINT('',#132);
#132 = CARTESIAN_POINT('',(-21.,-2.9,-2.995993579438));
#133 = LINE('',#134,#135);
#134 = CARTESIAN_POINT('',(-21.,-2.9,-3.75));
#135 = VECTOR('',#136,1.);
#136 = DIRECTION('',(0.,0.,-1.));
#137 = ORIENTED_EDGE('',*,*,#138,.F.);
#138 = EDGE_CURVE('',#139,#131,#141,.T.);
#139 = VERTEX_POINT('',#140);
#140 = CARTESIAN_POINT('',(-21.,-2.9,-0.504006420562));
#141 = CIRCLE('',#142,1.25);
#142 = AXIS2_PLACEMENT_3D('',#143,#144,#145);
#143 = CARTESIAN_POINT('',(-21.,-3.,-1.75));
#144 = DIRECTION('',(1.,-1.2E-16,-2.2E-16));
#145 = DIRECTION('',(-2.2E-16,0.,-1.));
#146 = ORIENTED_EDGE('',*,*,#147,.F.);
#147 = EDGE_CURVE('',#90,#139,#148,.T.);
#148 = LINE('',#149,#150);
#149 = CARTESIAN_POINT('',(-21.,-2.9,-3.75));
#150 = VECTOR('',#151,1.);
#151 = DIRECTION('',(0.,0.,-1.));
#152 = PLANE('',#153);
#153 = AXIS2_PLACEMENT_3D('',#154,#155,#156);
#154 = CARTESIAN_POINT('',(-21.,-13.,-4.5));
#155 = DIRECTION('',(1.,0.,0.));
#156 = DIRECTION('',(0.,0.,1.));
#157 = ADVANCED_FACE('',(#158),#233,.T.);
#158 = FACE_BOUND('',#159,.T.);
#159 = EDGE_LOOP('',(#160,#161,#169,#177,#186,#194,#202,#210,#219,#227)
  );
#160 = ORIENTED_EDGE('',*,*,#21,.F.);
#161 = ORIENTED_EDGE('',*,*,#162,.T.);
#162 = EDGE_CURVE('',#22,#163,#165,.T.);
#163 = VERTEX_POINT('',#164);
#164 = CARTESIAN_POINT('',(-17.5,-13.,1.));
#165 = LINE('',#166,#167);
#166 = CARTESIAN_POINT('',(-14.9618681574,-15.53813184259,1.));
#167 = VECTOR('',#168,1.);
#168 = DIRECTION('',(0.707106781187,-0.707106781187,0.));
#169 = ORIENTED_EDGE('',*,*,#170,.T.);
#170 = EDGE_CURVE('',#163,#171,#173,.T.);
#171 = VERTEX_POINT('',#172);
#172 = CARTESIAN_POINT('',(11.050384638146,-13.,1.));
#173 = LINE('',#174,#175);
#174 = CARTESIAN_POINT('',(-21.,-13.,1.));
#175 = VECTOR('',#176,1.);
#176 = DIRECTION('',(1.,0.,0.));
#177 = ORIENTED_EDGE('',*,*,#178,.F.);
#178 = EDGE_CURVE('',#179,#171,#181,.T.);
#179 = VERTEX_POINT('',#180);
#180 = CARTESIAN_POINT('',(12.594127789077,-12.1,1.));
#181 = CIRCLE('',#182,5.);
#182 = AXIS2_PLACEMENT_3D('',#183,#184,#185);
#183 = CARTESIAN_POINT('',(14.3,-16.8,1.));
#184 = DIRECTION('',(0.,0.,1.));
#185 = DIRECTION('',(1.,0.,0.));
#186 = ORIENTED_EDGE('',*,*,#187,.F.);
#187 = EDGE_CURVE('',#188,#179,#190,.T.);
#188 = VERTEX_POINT('',#189);
#189 = CARTESIAN_POINT('',(12.4,-12.1,1.));
#190 = LINE('',#191,#192);
#191 = CARTESIAN_POINT('',(-4.212522792992,-12.1,1.));
#192 = VECTOR('',#193,1.);
#193 = DIRECTION('',(1.,0.,0.));
#194 = ORIENTED_EDGE('',*,*,#195,.T.);
#195 = EDGE_CURVE('',#188,#196,#198,.T.);
#196 = VERTEX_POINT('',#197);
#197 = CARTESIAN_POINT('',(12.4,-12.,1.));
#198 = LINE('',#199,#200);
#199 = CARTESIAN_POINT('',(12.4,-12.1,1.));
#200 = VECTOR('',#201,1.);
#201 = DIRECTION('',(0.,1.,0.));
#202 = ORIENTED_EDGE('',*,*,#203,.T.);
#203 = EDGE_CURVE('',#196,#204,#206,.T.);
#204 = VERTEX_POINT('',#205);
#205 = CARTESIAN_POINT('',(-17.,-12.,1.));
#206 = LINE('',#207,#208);
#207 = CARTESIAN_POINT('',(-20.5,-12.,1.));
#208 = VECTOR('',#209,1.);
#209 = DIRECTION('',(-1.,0.,0.));
#210 = ORIENTED_EDGE('',*,*,#211,.F.);
#211 = EDGE_CURVE('',#212,#204,#214,.T.);
#212 = VERTEX_POINT('',#213);
#213 = CARTESIAN_POINT('',(-20.,-9.,1.));
#214 = CIRCLE('',#215,3.);
#215 = AXIS2_PLACEMENT_3D('',#216,#217,#218);
#216 = CARTESIAN_POINT('',(-17.,-9.,1.));
#217 = DIRECTION('',(0.,0.,1.));
#218 = DIRECTION('',(-1.,0.,0.));
#219 = ORIENTED_EDGE('',*,*,#220,.T.);
#220 = EDGE_CURVE('',#212,#221,#223,.T.);
#221 = VERTEX_POINT('',#222);
#222 = CARTESIAN_POINT('',(-20.,-6.,1.));
#223 = LINE('',#224,#225);
#224 = CARTESIAN_POINT('',(-20.,-12.5,1.));
#225 = VECTOR('',#226,1.);
#226 = DIRECTION('',(0.,1.,0.));
#227 = ORIENTED_EDGE('',*,*,#228,.T.);
#228 = EDGE_CURVE('',#221,#24,#229,.T.);
#229 = LINE('',#230,#231);
#230 = CARTESIAN_POINT('',(-18.5,-6.,1.));
#231 = VECTOR('',#232,1.);
#232 = DIRECTION('',(-1.,2.2E-16,0.));
#233 = PLANE('',#234);
#234 = AXIS2_PLACEMENT_3D('',#235,#236,#237);
#235 = CARTESIAN_POINT('',(-6.230264229602,-11.84639549689,1.));
#236 = DIRECTION('',(0.,0.,1.));
#237 = DIRECTION('',(1.,0.,0.));
#238 = ADVANCED_FACE('',(#239),#257,.T.);
#239 = FACE_BOUND('',#240,.T.);
#240 = EDGE_LOOP('',(#241,#249,#255,#256));
#241 = ORIENTED_EDGE('',*,*,#242,.F.);
#242 = EDGE_CURVE('',#243,#221,#245,.T.);
#243 = VERTEX_POINT('',#244);
#244 = CARTESIAN_POINT('',(-20.,-6.,0.3));
#245 = LINE('',#246,#247);
#246 = CARTESIAN_POINT('',(-20.,-6.,0.15));
#247 = VECTOR('',#248,1.);
#248 = DIRECTION('',(0.,0.,1.));
#249 = ORIENTED_EDGE('',*,*,#250,.T.);
#250 = EDGE_CURVE('',#243,#72,#251,.T.);
#251 = LINE('',#252,#253);
#252 = CARTESIAN_POINT('',(-16.,-6.,0.3));
#253 = VECTOR('',#254,1.);
#254 = DIRECTION('',(-1.,0.,0.));
#255 = ORIENTED_EDGE('',*,*,#79,.T.);
#256 = ORIENTED_EDGE('',*,*,#228,.F.);
#257 = PLANE('',#258);
#258 = AXIS2_PLACEMENT_3D('',#259,#260,#261);
#259 = CARTESIAN_POINT('',(-16.,-6.,0.3));
#260 = DIRECTION('',(0.,1.,0.));
#261 = DIRECTION('',(0.,0.,1.));
#262 = ADVANCED_FACE('',(#263),#281,.T.);
#263 = FACE_BOUND('',#264,.T.);
#264 = EDGE_LOOP('',(#265,#266,#274,#280));
#265 = ORIENTED_EDGE('',*,*,#250,.F.);
#266 = ORIENTED_EDGE('',*,*,#267,.F.);
#267 = EDGE_CURVE('',#268,#243,#270,.T.);
#268 = VERTEX_POINT('',#269);
#269 = CARTESIAN_POINT('',(-20.,6.,0.3));
#270 = LINE('',#271,#272);
#271 = CARTESIAN_POINT('',(-20.,-9.,0.3));
#272 = VECTOR('',#273,1.);
#273 = DIRECTION('',(0.,-1.,0.));
#274 = ORIENTED_EDGE('',*,*,#275,.T.);
#275 = EDGE_CURVE('',#268,#64,#276,.T.);
#276 = LINE('',#277,#278);
#277 = CARTESIAN_POINT('',(-16.,6.,0.3));
#278 = VECTOR('',#279,1.);
#279 = DIRECTION('',(-1.,0.,0.));
#280 = ORIENTED_EDGE('',*,*,#71,.T.);
#281 = PLANE('',#282);
#282 = AXIS2_PLACEMENT_3D('',#283,#284,#285);
#283 = CARTESIAN_POINT('',(-16.,-6.,0.3));
#284 = DIRECTION('',(0.,0.,1.));
#285 = DIRECTION('',(0.,1.,0.));
#286 = ADVANCED_FACE('',(#287),#305,.F.);
#287 = FACE_BOUND('',#288,.F.);
#288 = EDGE_LOOP('',(#289,#297,#298,#299));
#289 = ORIENTED_EDGE('',*,*,#290,.F.);
#290 = EDGE_CURVE('',#268,#291,#293,.T.);
#291 = VERTEX_POINT('',#292);
#292 = CARTESIAN_POINT('',(-20.,6.,1.));
#293 = LINE('',#294,#295);
#294 = CARTESIAN_POINT('',(-20.,6.,0.15));
#295 = VECTOR('',#296,1.);
#296 = DIRECTION('',(0.,0.,1.));
#297 = ORIENTED_EDGE('',*,*,#275,.T.);
#298 = ORIENTED_EDGE('',*,*,#63,.T.);
#299 = ORIENTED_EDGE('',*,*,#300,.F.);
#300 = EDGE_CURVE('',#291,#56,#301,.T.);
#301 = LINE('',#302,#303);
#302 = CARTESIAN_POINT('',(-18.5,6.,1.));
#303 = VECTOR('',#304,1.);
#304 = DIRECTION('',(-1.,2.2E-16,0.));
#305 = PLANE('',#306);
#306 = AXIS2_PLACEMENT_3D('',#307,#308,#309);
#307 = CARTESIAN_POINT('',(-16.,6.,0.3));
#308 = DIRECTION('',(0.,1.,0.));
#309 = DIRECTION('',(0.,0.,1.));
#310 = ADVANCED_FACE('',(#311),#437,.T.);
#311 = FACE_BOUND('',#312,.T.);
#312 = EDGE_LOOP('',(#313,#314,#315,#323,#332,#340,#349,#357,#366,#374,
    #382,#390,#399,#407,#415,#423,#431));
#313 = ORIENTED_EDGE('',*,*,#55,.F.);
#314 = ORIENTED_EDGE('',*,*,#300,.F.);
#315 = ORIENTED_EDGE('',*,*,#316,.T.);
#316 = EDGE_CURVE('',#291,#317,#319,.T.);
#317 = VERTEX_POINT('',#318);
#318 = CARTESIAN_POINT('',(-20.,9.,1.));
#319 = LINE('',#320,#321);
#320 = CARTESIAN_POINT('',(-20.,-12.5,1.));
#321 = VECTOR('',#322,1.);
#322 = DIRECTION('',(0.,1.,0.));
#323 = ORIENTED_EDGE('',*,*,#324,.F.);
#324 = EDGE_CURVE('',#325,#317,#327,.T.);
#325 = VERTEX_POINT('',#326);
#326 = CARTESIAN_POINT('',(-17.,12.,1.));
#327 = CIRCLE('',#328,3.);
#328 = AXIS2_PLACEMENT_3D('',#329,#330,#331);
#329 = CARTESIAN_POINT('',(-17.,9.,1.));
#330 = DIRECTION('',(0.,0.,1.));
#331 = DIRECTION('',(-1.,0.,0.));
#332 = ORIENTED_EDGE('',*,*,#333,.F.);
#333 = EDGE_CURVE('',#334,#325,#336,.T.);
#334 = VERTEX_POINT('',#335);
#335 = CARTESIAN_POINT('',(17.,12.,1.));
#336 = LINE('',#337,#338);
#337 = CARTESIAN_POINT('',(-20.5,12.,1.));
#338 = VECTOR('',#339,1.);
#339 = DIRECTION('',(-1.,0.,0.));
#340 = ORIENTED_EDGE('',*,*,#341,.F.);
#341 = EDGE_CURVE('',#342,#334,#344,.T.);
#342 = VERTEX_POINT('',#343);
#343 = CARTESIAN_POINT('',(20.,9.,1.));
#344 = CIRCLE('',#345,3.);
#345 = AXIS2_PLACEMENT_3D('',#346,#347,#348);
#346 = CARTESIAN_POINT('',(17.,9.,1.));
#347 = DIRECTION('',(0.,0.,1.));
#348 = DIRECTION('',(1.,0.,0.));
#349 = ORIENTED_EDGE('',*,*,#350,.F.);
#350 = EDGE_CURVE('',#351,#342,#353,.T.);
#351 = VERTEX_POINT('',#352);
#352 = CARTESIAN_POINT('',(20.,-9.,1.));
#353 = LINE('',#354,#355);
#354 = CARTESIAN_POINT('',(20.,-12.5,1.));
#355 = VECTOR('',#356,1.);
#356 = DIRECTION('',(0.,1.,0.));
#357 = ORIENTED_EDGE('',*,*,#358,.F.);
#358 = EDGE_CURVE('',#359,#351,#361,.T.);
#359 = VERTEX_POINT('',#360);
#360 = CARTESIAN_POINT('',(17.,-12.,1.));
#361 = CIRCLE('',#362,3.);
#362 = AXIS2_PLACEMENT_3D('',#363,#364,#365);
#363 = CARTESIAN_POINT('',(17.,-9.,1.));
#364 = DIRECTION('',(0.,0.,1.));
#365 = DIRECTION('',(1.,0.,0.));
#366 = ORIENTED_EDGE('',*,*,#367,.T.);
#367 = EDGE_CURVE('',#359,#368,#370,.T.);
#368 = VERTEX_POINT('',#369);
#369 = CARTESIAN_POINT('',(16.2,-12.,1.));
#370 = LINE('',#371,#372);
#371 = CARTESIAN_POINT('',(-20.5,-12.,1.));
#372 = VECTOR('',#373,1.);
#373 = DIRECTION('',(-1.,0.,0.));
#374 = ORIENTED_EDGE('',*,*,#375,.F.);
#375 = EDGE_CURVE('',#376,#368,#378,.T.);
#376 = VERTEX_POINT('',#377);
#377 = CARTESIAN_POINT('',(16.2,-12.1,1.));
#378 = LINE('',#379,#380);
#379 = CARTESIAN_POINT('',(16.2,-12.1,1.));
#380 = VECTOR('',#381,1.);
#381 = DIRECTION('',(0.,1.,0.));
#382 = ORIENTED_EDGE('',*,*,#383,.F.);
#383 = EDGE_CURVE('',#384,#376,#386,.T.);
#384 = VERTEX_POINT('',#385);
#385 = CARTESIAN_POINT('',(16.005872210923,-12.1,1.));
#386 = LINE('',#387,#388);
#387 = CARTESIAN_POINT('',(-2.493588458689,-12.1,1.));
#388 = VECTOR('',#389,1.);
#389 = DIRECTION('',(1.,0.,0.));
#390 = ORIENTED_EDGE('',*,*,#391,.F.);
#391 = EDGE_CURVE('',#392,#384,#394,.T.);
#392 = VERTEX_POINT('',#393);
#393 = CARTESIAN_POINT('',(17.522782990762,-12.97721700923,1.));
#394 = CIRCLE('',#395,5.);
#395 = AXIS2_PLACEMENT_3D('',#396,#397,#398);
#396 = CARTESIAN_POINT('',(14.3,-16.8,1.));
#397 = DIRECTION('',(0.,0.,1.));
#398 = DIRECTION('',(1.,0.,0.));
#399 = ORIENTED_EDGE('',*,*,#400,.T.);
#400 = EDGE_CURVE('',#392,#401,#403,.T.);
#401 = VERTEX_POINT('',#402);
#402 = CARTESIAN_POINT('',(21.,-9.5,1.));
#403 = LINE('',#404,#405);
#404 = CARTESIAN_POINT('',(19.511574406133,-10.98842559386,1.));
#405 = VECTOR('',#406,1.);
#406 = DIRECTION('',(0.707106781187,0.707106781187,-0.));
#407 = ORIENTED_EDGE('',*,*,#408,.T.);
#408 = EDGE_CURVE('',#401,#409,#411,.T.);
#409 = VERTEX_POINT('',#410);
#410 = CARTESIAN_POINT('',(21.,9.5,1.));
#411 = LINE('',#412,#413);
#412 = CARTESIAN_POINT('',(21.,-13.,1.));
#413 = VECTOR('',#414,1.);
#414 = DIRECTION('',(0.,1.,0.));
#415 = ORIENTED_EDGE('',*,*,#416,.T.);
#416 = EDGE_CURVE('',#409,#417,#419,.T.);
#417 = VERTEX_POINT('',#418);
#418 = CARTESIAN_POINT('',(17.5,13.,1.));
#419 = LINE('',#420,#421);
#420 = CARTESIAN_POINT('',(16.10925885917,14.39074114083,1.));
#421 = VECTOR('',#422,1.);
#422 = DIRECTION('',(-0.707106781187,0.707106781187,0.));
#423 = ORIENTED_EDGE('',*,*,#424,.F.);
#424 = EDGE_CURVE('',#425,#417,#427,.T.);
#425 = VERTEX_POINT('',#426);
#426 = CARTESIAN_POINT('',(-17.5,13.,1.));
#427 = LINE('',#428,#429);
#428 = CARTESIAN_POINT('',(-21.,13.,1.));
#429 = VECTOR('',#430,1.);
#430 = DIRECTION('',(1.,0.,0.));
#431 = ORIENTED_EDGE('',*,*,#432,.T.);
#432 = EDGE_CURVE('',#425,#48,#433,.T.);
#433 = LINE('',#434,#435);
#434 = CARTESIAN_POINT('',(-13.22022754233,17.279772457667,1.));
#435 = VECTOR('',#436,1.);
#436 = DIRECTION('',(-0.707106781187,-0.707106781187,0.));
#437 = PLANE('',#438);
#438 = AXIS2_PLACEMENT_3D('',#439,#440,#441);
#439 = CARTESIAN_POINT('',(5.778062633674,6.804631093925,1.));
#440 = DIRECTION('',(0.,0.,1.));
#441 = DIRECTION('',(1.,0.,0.));
#442 = ADVANCED_FACE('',(#443),#504,.F.);
#443 = FACE_BOUND('',#444,.F.);
#444 = EDGE_LOOP('',(#445,#446,#455,#463,#472,#480,#489,#497));
#445 = ORIENTED_EDGE('',*,*,#39,.F.);
#446 = ORIENTED_EDGE('',*,*,#447,.T.);
#447 = EDGE_CURVE('',#32,#448,#450,.T.);
#448 = VERTEX_POINT('',#449);
#449 = CARTESIAN_POINT('',(-17.5,-13.,-4.5));
#450 = CIRCLE('',#451,3.5);
#451 = AXIS2_PLACEMENT_3D('',#452,#453,#454);
#452 = CARTESIAN_POINT('',(-17.5,-9.5,-4.5));
#453 = DIRECTION('',(-0.,0.,1.));
#454 = DIRECTION('',(0.,-1.,0.));
#455 = ORIENTED_EDGE('',*,*,#456,.T.);
#456 = EDGE_CURVE('',#448,#457,#459,.T.);
#457 = VERTEX_POINT('',#458);
#458 = CARTESIAN_POINT('',(17.5,-13.,-4.5));
#459 = LINE('',#460,#461);
#460 = CARTESIAN_POINT('',(-21.,-13.,-4.5));
#461 = VECTOR('',#462,1.);
#462 = DIRECTION('',(1.,0.,0.));
#463 = ORIENTED_EDGE('',*,*,#464,.F.);
#464 = EDGE_CURVE('',#465,#457,#467,.T.);
#465 = VERTEX_POINT('',#466);
#466 = CARTESIAN_POINT('',(21.,-9.5,-4.5));
#467 = CIRCLE('',#468,3.5);
#468 = AXIS2_PLACEMENT_3D('',#469,#470,#471);
#469 = CARTESIAN_POINT('',(17.5,-9.5,-4.5));
#470 = DIRECTION('',(-0.,-0.,-1.));
#471 = DIRECTION('',(0.,-1.,0.));
#472 = ORIENTED_EDGE('',*,*,#473,.T.);
#473 = EDGE_CURVE('',#465,#474,#476,.T.);
#474 = VERTEX_POINT('',#475);
#475 = CARTESIAN_POINT('',(21.,9.5,-4.5));
#476 = LINE('',#477,#478);
#477 = CARTESIAN_POINT('',(21.,-13.,-4.5));
#478 = VECTOR('',#479,1.);
#479 = DIRECTION('',(0.,1.,0.));
#480 = ORIENTED_EDGE('',*,*,#481,.T.);
#481 = EDGE_CURVE('',#474,#482,#484,.T.);
#482 = VERTEX_POINT('',#483);
#483 = CARTESIAN_POINT('',(17.5,13.,-4.5));
#484 = CIRCLE('',#485,3.5);
#485 = AXIS2_PLACEMENT_3D('',#486,#487,#488);
#486 = CARTESIAN_POINT('',(17.5,9.5,-4.5));
#487 = DIRECTION('',(-0.,0.,1.));
#488 = DIRECTION('',(0.,-1.,0.));
#489 = ORIENTED_EDGE('',*,*,#490,.F.);
#490 = EDGE_CURVE('',#491,#482,#493,.T.);
#491 = VERTEX_POINT('',#492);
#492 = CARTESIAN_POINT('',(-17.5,13.,-4.5));
#493 = LINE('',#494,#495);
#494 = CARTESIAN_POINT('',(-21.,13.,-4.5));
#495 = VECTOR('',#496,1.);
#496 = DIRECTION('',(1.,0.,0.));
#497 = ORIENTED_EDGE('',*,*,#498,.F.);
#498 = EDGE_CURVE('',#40,#491,#499,.T.);
#499 = CIRCLE('',#500,3.5);
#500 = AXIS2_PLACEMENT_3D('',#501,#502,#503);
#501 = CARTESIAN_POINT('',(-17.5,9.5,-4.5));
#502 = DIRECTION('',(-0.,-0.,-1.));
#503 = DIRECTION('',(0.,-1.,0.));
#504 = PLANE('',#505);
#505 = AXIS2_PLACEMENT_3D('',#506,#507,#508);
#506 = CARTESIAN_POINT('',(-21.,-13.,-4.5));
#507 = DIRECTION('',(0.,0.,1.));
#508 = DIRECTION('',(1.,0.,0.));
#509 = ADVANCED_FACE('',(#510),#535,.F.);
#510 = FACE_BOUND('',#511,.F.);
#511 = EDGE_LOOP('',(#512,#520,#528,#534));
#512 = ORIENTED_EDGE('',*,*,#513,.F.);
#513 = EDGE_CURVE('',#514,#90,#516,.T.);
#514 = VERTEX_POINT('',#515);
#515 = CARTESIAN_POINT('',(-20.,-2.9,-0.5));
#516 = LINE('',#517,#518);
#517 = CARTESIAN_POINT('',(-11.,-2.9,-0.5));
#518 = VECTOR('',#519,1.);
#519 = DIRECTION('',(-1.,0.,0.));
#520 = ORIENTED_EDGE('',*,*,#521,.F.);
#521 = EDGE_CURVE('',#522,#514,#524,.T.);
#522 = VERTEX_POINT('',#523);
#523 = CARTESIAN_POINT('',(-20.,2.9,-0.5));
#524 = LINE('',#525,#526);
#525 = CARTESIAN_POINT('',(-20.,3.7,-0.5));
#526 = VECTOR('',#527,1.);
#527 = DIRECTION('',(0.,-1.,0.));
#528 = ORIENTED_EDGE('',*,*,#529,.T.);
#529 = EDGE_CURVE('',#522,#88,#530,.T.);
#530 = LINE('',#531,#532);
#531 = CARTESIAN_POINT('',(-11.,2.9,-0.5));
#532 = VECTOR('',#533,1.);
#533 = DIRECTION('',(-1.,0.,0.));
#534 = ORIENTED_EDGE('',*,*,#87,.T.);
#535 = PLANE('',#536);
#536 = AXIS2_PLACEMENT_3D('',#537,#538,#539);
#537 = CARTESIAN_POINT('',(-11.,2.9,-0.5));
#538 = DIRECTION('',(0.,0.,1.));
#539 = DIRECTION('',(-1.,0.,0.));
#540 = ADVANCED_FACE('',(#541),#559,.F.);
#541 = FACE_BOUND('',#542,.F.);
#542 = EDGE_LOOP('',(#543,#544,#552,#558));
#543 = ORIENTED_EDGE('',*,*,#147,.T.);
#544 = ORIENTED_EDGE('',*,*,#545,.T.);
#545 = EDGE_CURVE('',#139,#546,#548,.T.);
#546 = VERTEX_POINT('',#547);
#547 = CARTESIAN_POINT('',(-20.,-2.9,-0.504006420562));
#548 = LINE('',#549,#550);
#549 = CARTESIAN_POINT('',(-11.,-2.9,-0.504006420562));
#550 = VECTOR('',#551,1.);
#551 = DIRECTION('',(1.,0.,-2.2E-16));
#552 = ORIENTED_EDGE('',*,*,#553,.F.);
#553 = EDGE_CURVE('',#514,#546,#554,.T.);
#554 = LINE('',#555,#556);
#555 = CARTESIAN_POINT('',(-20.,-2.9,-3.25));
#556 = VECTOR('',#557,1.);
#557 = DIRECTION('',(0.,0.,-1.));
#558 = ORIENTED_EDGE('',*,*,#513,.T.);
#559 = PLANE('',#560);
#560 = AXIS2_PLACEMENT_3D('',#561,#562,#563);
#561 = CARTESIAN_POINT('',(-11.,-2.9,-3.));
#562 = DIRECTION('',(0.,-1.,0.));
#563 = DIRECTION('',(0.,0.,1.));
#564 = ADVANCED_FACE('',(#565),#593,.F.);
#565 = FACE_BOUND('',#566,.T.);
#566 = EDGE_LOOP('',(#567,#568,#569,#578,#587));
#567 = ORIENTED_EDGE('',*,*,#138,.F.);
#568 = ORIENTED_EDGE('',*,*,#545,.T.);
#569 = ORIENTED_EDGE('',*,*,#570,.T.);
#570 = EDGE_CURVE('',#546,#571,#573,.T.);
#571 = VERTEX_POINT('',#572);
#572 = CARTESIAN_POINT('',(-20.,-3.,-3.));
#573 = CIRCLE('',#574,1.25);
#574 = AXIS2_PLACEMENT_3D('',#575,#576,#577);
#575 = CARTESIAN_POINT('',(-20.,-3.,-1.75));
#576 = DIRECTION('',(1.,0.,-2.2E-16));
#577 = DIRECTION('',(-2.2E-16,0.,-1.));
#578 = ORIENTED_EDGE('',*,*,#579,.T.);
#579 = EDGE_CURVE('',#571,#580,#582,.T.);
#580 = VERTEX_POINT('',#581);
#581 = CARTESIAN_POINT('',(-20.,-2.9,-2.995993579438));
#582 = CIRCLE('',#583,1.25);
#583 = AXIS2_PLACEMENT_3D('',#584,#585,#586);
#584 = CARTESIAN_POINT('',(-20.,-3.,-1.75));
#585 = DIRECTION('',(1.,0.,-2.2E-16));
#586 = DIRECTION('',(-2.2E-16,0.,-1.));
#587 = ORIENTED_EDGE('',*,*,#588,.F.);
#588 = EDGE_CURVE('',#131,#580,#589,.T.);
#589 = LINE('',#590,#591);
#590 = CARTESIAN_POINT('',(-11.,-2.9,-2.995993579438));
#591 = VECTOR('',#592,1.);
#592 = DIRECTION('',(1.,0.,-2.2E-16));
#593 = CYLINDRICAL_SURFACE('',#594,1.25);
#594 = AXIS2_PLACEMENT_3D('',#595,#596,#597);
#595 = CARTESIAN_POINT('',(-11.,-3.,-1.75));
#596 = DIRECTION('',(1.,0.,-2.2E-16));
#597 = DIRECTION('',(-2.2E-16,0.,-1.));
#598 = ADVANCED_FACE('',(#599),#617,.F.);
#599 = FACE_BOUND('',#600,.F.);
#600 = EDGE_LOOP('',(#601,#609,#615,#616));
#601 = ORIENTED_EDGE('',*,*,#602,.F.);
#602 = EDGE_CURVE('',#603,#123,#605,.T.);
#603 = VERTEX_POINT('',#604);
#604 = CARTESIAN_POINT('',(-20.,-2.9,-3.));
#605 = LINE('',#606,#607);
#606 = CARTESIAN_POINT('',(-11.,-2.9,-3.));
#607 = VECTOR('',#608,1.);
#608 = DIRECTION('',(-1.,0.,0.));
#609 = ORIENTED_EDGE('',*,*,#610,.F.);
#610 = EDGE_CURVE('',#580,#603,#611,.T.);
#611 = LINE('',#612,#613);
#612 = CARTESIAN_POINT('',(-20.,-2.9,-3.25));
#613 = VECTOR('',#614,1.);
#614 = DIRECTION('',(0.,0.,-1.));
#615 = ORIENTED_EDGE('',*,*,#588,.F.);
#616 = ORIENTED_EDGE('',*,*,#130,.T.);
#617 = PLANE('',#618);
#618 = AXIS2_PLACEMENT_3D('',#619,#620,#621);
#619 = CARTESIAN_POINT('',(-11.,-2.9,-3.));
#620 = DIRECTION('',(0.,-1.,0.));
#621 = DIRECTION('',(0.,0.,1.));
#622 = ADVANCED_FACE('',(#623),#641,.T.);
#623 = FACE_BOUND('',#624,.T.);
#624 = EDGE_LOOP('',(#625,#626,#634,#640));
#625 = ORIENTED_EDGE('',*,*,#602,.F.);
#626 = ORIENTED_EDGE('',*,*,#627,.F.);
#627 = EDGE_CURVE('',#628,#603,#630,.T.);
#628 = VERTEX_POINT('',#629);
#629 = CARTESIAN_POINT('',(-20.,2.9,-3.));
#630 = LINE('',#631,#632);
#631 = CARTESIAN_POINT('',(-20.,3.7,-3.));
#632 = VECTOR('',#633,1.);
#633 = DIRECTION('',(0.,-1.,0.));
#634 = ORIENTED_EDGE('',*,*,#635,.T.);
#635 = EDGE_CURVE('',#628,#115,#636,.T.);
#636 = LINE('',#637,#638);
#637 = CARTESIAN_POINT('',(-11.,2.9,-3.));
#638 = VECTOR('',#639,1.);
#639 = DIRECTION('',(-1.,0.,0.));
#640 = ORIENTED_EDGE('',*,*,#122,.T.);
#641 = PLANE('',#642);
#642 = AXIS2_PLACEMENT_3D('',#643,#644,#645);
#643 = CARTESIAN_POINT('',(-11.,2.9,-3.));
#644 = DIRECTION('',(0.,0.,1.));
#645 = DIRECTION('',(-1.,0.,0.));
#646 = ADVANCED_FACE('',(#647),#665,.T.);
#647 = FACE_BOUND('',#648,.T.);
#648 = EDGE_LOOP('',(#649,#650,#658,#664));
#649 = ORIENTED_EDGE('',*,*,#635,.F.);
#650 = ORIENTED_EDGE('',*,*,#651,.F.);
#651 = EDGE_CURVE('',#652,#628,#654,.T.);
#652 = VERTEX_POINT('',#653);
#653 = CARTESIAN_POINT('',(-20.,2.9,-2.995993579438));
#654 = LINE('',#655,#656);
#655 = CARTESIAN_POINT('',(-20.,2.9,-3.25));
#656 = VECTOR('',#657,1.);
#657 = DIRECTION('',(0.,0.,-1.));
#658 = ORIENTED_EDGE('',*,*,#659,.F.);
#659 = EDGE_CURVE('',#106,#652,#660,.T.);
#660 = LINE('',#661,#662);
#661 = CARTESIAN_POINT('',(-11.,2.9,-2.995993579438));
#662 = VECTOR('',#663,1.);
#663 = DIRECTION('',(1.,0.,-2.2E-16));
#664 = ORIENTED_EDGE('',*,*,#114,.T.);
#665 = PLANE('',#666);
#666 = AXIS2_PLACEMENT_3D('',#667,#668,#669);
#667 = CARTESIAN_POINT('',(-11.,2.9,-3.));
#668 = DIRECTION('',(0.,-1.,0.));
#669 = DIRECTION('',(0.,0.,1.));
#670 = ADVANCED_FACE('',(#671),#699,.F.);
#671 = FACE_BOUND('',#672,.T.);
#672 = EDGE_LOOP('',(#673,#674,#675,#684,#693));
#673 = ORIENTED_EDGE('',*,*,#105,.F.);
#674 = ORIENTED_EDGE('',*,*,#659,.T.);
#675 = ORIENTED_EDGE('',*,*,#676,.T.);
#676 = EDGE_CURVE('',#652,#677,#679,.T.);
#677 = VERTEX_POINT('',#678);
#678 = CARTESIAN_POINT('',(-20.,3.,-3.));
#679 = CIRCLE('',#680,1.25);
#680 = AXIS2_PLACEMENT_3D('',#681,#682,#683);
#681 = CARTESIAN_POINT('',(-20.,3.,-1.75));
#682 = DIRECTION('',(1.,0.,-2.2E-16));
#683 = DIRECTION('',(-2.2E-16,0.,-1.));
#684 = ORIENTED_EDGE('',*,*,#685,.T.);
#685 = EDGE_CURVE('',#677,#686,#688,.T.);
#686 = VERTEX_POINT('',#687);
#687 = CARTESIAN_POINT('',(-20.,2.9,-0.504006420562));
#688 = CIRCLE('',#689,1.25);
#689 = AXIS2_PLACEMENT_3D('',#690,#691,#692);
#690 = CARTESIAN_POINT('',(-20.,3.,-1.75));
#691 = DIRECTION('',(1.,0.,-2.2E-16));
#692 = DIRECTION('',(-2.2E-16,0.,-1.));
#693 = ORIENTED_EDGE('',*,*,#694,.F.);
#694 = EDGE_CURVE('',#98,#686,#695,.T.);
#695 = LINE('',#696,#697);
#696 = CARTESIAN_POINT('',(-11.,2.9,-0.504006420562));
#697 = VECTOR('',#698,1.);
#698 = DIRECTION('',(1.,0.,-2.2E-16));
#699 = CYLINDRICAL_SURFACE('',#700,1.25);
#700 = AXIS2_PLACEMENT_3D('',#701,#702,#703);
#701 = CARTESIAN_POINT('',(-11.,3.,-1.75));
#702 = DIRECTION('',(1.,0.,-2.2E-16));
#703 = DIRECTION('',(-2.2E-16,0.,-1.));
#704 = ADVANCED_FACE('',(#705),#716,.T.);
#705 = FACE_BOUND('',#706,.T.);
#706 = EDGE_LOOP('',(#707,#708,#709,#715));
#707 = ORIENTED_EDGE('',*,*,#97,.T.);
#708 = ORIENTED_EDGE('',*,*,#694,.T.);
#709 = ORIENTED_EDGE('',*,*,#710,.F.);
#710 = EDGE_CURVE('',#522,#686,#711,.T.);
#711 = LINE('',#712,#713);
#712 = CARTESIAN_POINT('',(-20.,2.9,-3.25));
#713 = VECTOR('',#714,1.);
#714 = DIRECTION('',(0.,0.,-1.));
#715 = ORIENTED_EDGE('',*,*,#529,.T.);
#716 = PLANE('',#717);
#717 = AXIS2_PLACEMENT_3D('',#718,#719,#720);
#718 = CARTESIAN_POINT('',(-11.,2.9,-3.));
#719 = DIRECTION('',(0.,-1.,0.));
#720 = DIRECTION('',(0.,0.,1.));
#721 = ADVANCED_FACE('',(#722,#783),#795,.T.);
#722 = FACE_BOUND('',#723,.T.);
#723 = EDGE_LOOP('',(#724,#725,#733,#741,#749,#757,#765,#773,#779,#780,
    #781,#782));
#724 = ORIENTED_EDGE('',*,*,#220,.F.);
#725 = ORIENTED_EDGE('',*,*,#726,.F.);
#726 = EDGE_CURVE('',#727,#212,#729,.T.);
#727 = VERTEX_POINT('',#728);
#728 = CARTESIAN_POINT('',(-20.,-9.,0.));
#729 = LINE('',#730,#731);
#730 = CARTESIAN_POINT('',(-20.,-9.,0.));
#731 = VECTOR('',#732,1.);
#732 = DIRECTION('',(0.,0.,1.));
#733 = ORIENTED_EDGE('',*,*,#734,.T.);
#734 = EDGE_CURVE('',#727,#735,#737,.T.);
#735 = VERTEX_POINT('',#736);
#736 = CARTESIAN_POINT('',(-20.,-4.5,0.));
#737 = LINE('',#738,#739);
#738 = CARTESIAN_POINT('',(-20.,-12.,0.));
#739 = VECTOR('',#740,1.);
#740 = DIRECTION('',(0.,1.,0.));
#741 = ORIENTED_EDGE('',*,*,#742,.F.);
#742 = EDGE_CURVE('',#743,#735,#745,.T.);
#743 = VERTEX_POINT('',#744);
#744 = CARTESIAN_POINT('',(-20.,-4.5,-3.5));
#745 = LINE('',#746,#747);
#746 = CARTESIAN_POINT('',(-20.,-4.5,-3.5));
#747 = VECTOR('',#748,1.);
#748 = DIRECTION('',(0.,0.,1.));
#749 = ORIENTED_EDGE('',*,*,#750,.F.);
#750 = EDGE_CURVE('',#751,#743,#753,.T.);
#751 = VERTEX_POINT('',#752);
#752 = CARTESIAN_POINT('',(-20.,4.5,-3.5));
#753 = LINE('',#754,#755);
#754 = CARTESIAN_POINT('',(-20.,4.5,-3.5));
#755 = VECTOR('',#756,1.);
#756 = DIRECTION('',(0.,-1.,0.));
#757 = ORIENTED_EDGE('',*,*,#758,.T.);
#758 = EDGE_CURVE('',#751,#759,#761,.T.);
#759 = VERTEX_POINT('',#760);
#760 = CARTESIAN_POINT('',(-20.,4.5,0.));
#761 = LINE('',#762,#763);
#762 = CARTESIAN_POINT('',(-20.,4.5,-3.5));
#763 = VECTOR('',#764,1.);
#764 = DIRECTION('',(0.,0.,1.));
#765 = ORIENTED_EDGE('',*,*,#766,.T.);
#766 = EDGE_CURVE('',#759,#767,#769,.T.);
#767 = VERTEX_POINT('',#768);
#768 = CARTESIAN_POINT('',(-20.,9.,0.));
#769 = LINE('',#770,#771);
#770 = CARTESIAN_POINT('',(-20.,-12.,0.));
#771 = VECTOR('',#772,1.);
#772 = DIRECTION('',(0.,1.,0.));
#773 = ORIENTED_EDGE('',*,*,#774,.T.);
#774 = EDGE_CURVE('',#767,#317,#775,.T.);
#775 = LINE('',#776,#777);
#776 = CARTESIAN_POINT('',(-20.,9.,0.));
#777 = VECTOR('',#778,1.);
#778 = DIRECTION('',(0.,0.,1.));
#779 = ORIENTED_EDGE('',*,*,#316,.F.);
#780 = ORIENTED_EDGE('',*,*,#290,.F.);
#781 = ORIENTED_EDGE('',*,*,#267,.T.);
#782 = ORIENTED_EDGE('',*,*,#242,.T.);
#783 = FACE_BOUND('',#784,.T.);
#784 = EDGE_LOOP('',(#785,#786,#787,#788,#789,#790,#791,#792,#793,#794)
  );
#785 = ORIENTED_EDGE('',*,*,#710,.T.);
#786 = ORIENTED_EDGE('',*,*,#685,.F.);
#787 = ORIENTED_EDGE('',*,*,#676,.F.);
#788 = ORIENTED_EDGE('',*,*,#651,.T.);
#789 = ORIENTED_EDGE('',*,*,#627,.T.);
#790 = ORIENTED_EDGE('',*,*,#610,.F.);
#791 = ORIENTED_EDGE('',*,*,#579,.F.);
#792 = ORIENTED_EDGE('',*,*,#570,.F.);
#793 = ORIENTED_EDGE('',*,*,#553,.F.);
#794 = ORIENTED_EDGE('',*,*,#521,.F.);
#795 = PLANE('',#796);
#796 = AXIS2_PLACEMENT_3D('',#797,#798,#799);
#797 = CARTESIAN_POINT('',(-20.,2.3E-16,-0.694827586207));
#798 = DIRECTION('',(1.,0.,0.));
#799 = DIRECTION('',(0.,0.,1.));
#800 = ADVANCED_FACE('',(#801),#820,.F.);
#801 = FACE_BOUND('',#802,.F.);
#802 = EDGE_LOOP('',(#803,#804,#813,#819));
#803 = ORIENTED_EDGE('',*,*,#726,.F.);
#804 = ORIENTED_EDGE('',*,*,#805,.T.);
#805 = EDGE_CURVE('',#727,#806,#808,.T.);
#806 = VERTEX_POINT('',#807);
#807 = CARTESIAN_POINT('',(-17.,-12.,0.));
#808 = CIRCLE('',#809,3.);
#809 = AXIS2_PLACEMENT_3D('',#810,#811,#812);
#810 = CARTESIAN_POINT('',(-17.,-9.,0.));
#811 = DIRECTION('',(-0.,0.,1.));
#812 = DIRECTION('',(0.,-1.,0.));
#813 = ORIENTED_EDGE('',*,*,#814,.T.);
#814 = EDGE_CURVE('',#806,#204,#815,.T.);
#815 = LINE('',#816,#817);
#816 = CARTESIAN_POINT('',(-17.,-12.,0.));
#817 = VECTOR('',#818,1.);
#818 = DIRECTION('',(0.,0.,1.));
#819 = ORIENTED_EDGE('',*,*,#211,.F.);
#820 = CYLINDRICAL_SURFACE('',#821,3.);
#821 = AXIS2_PLACEMENT_3D('',#822,#823,#824);
#822 = CARTESIAN_POINT('',(-17.,-9.,0.));
#823 = DIRECTION('',(0.,0.,1.));
#824 = DIRECTION('',(-1.,0.,0.));
#825 = ADVANCED_FACE('',(#826),#844,.T.);
#826 = FACE_BOUND('',#827,.T.);
#827 = EDGE_LOOP('',(#828,#836,#837,#838));
#828 = ORIENTED_EDGE('',*,*,#829,.F.);
#829 = EDGE_CURVE('',#806,#830,#832,.T.);
#830 = VERTEX_POINT('',#831);
#831 = CARTESIAN_POINT('',(12.4,-12.,0.));
#832 = LINE('',#833,#834);
#833 = CARTESIAN_POINT('',(-20.,-12.,0.));
#834 = VECTOR('',#835,1.);
#835 = DIRECTION('',(1.,0.,0.));
#836 = ORIENTED_EDGE('',*,*,#814,.T.);
#837 = ORIENTED_EDGE('',*,*,#203,.F.);
#838 = ORIENTED_EDGE('',*,*,#839,.T.);
#839 = EDGE_CURVE('',#196,#830,#840,.T.);
#840 = LINE('',#841,#842);
#841 = CARTESIAN_POINT('',(12.4,-12.,-0.25));
#842 = VECTOR('',#843,1.);
#843 = DIRECTION('',(0.,0.,-1.));
#844 = PLANE('',#845);
#845 = AXIS2_PLACEMENT_3D('',#846,#847,#848);
#846 = CARTESIAN_POINT('',(-20.,-12.,0.));
#847 = DIRECTION('',(0.,1.,0.));
#848 = DIRECTION('',(0.,0.,1.));
#849 = ADVANCED_FACE('',(#850),#884,.T.);
#850 = FACE_BOUND('',#851,.T.);
#851 = EDGE_LOOP('',(#852,#860,#868,#876,#882,#883));
#852 = ORIENTED_EDGE('',*,*,#853,.F.);
#853 = EDGE_CURVE('',#854,#188,#856,.T.);
#854 = VERTEX_POINT('',#855);
#855 = CARTESIAN_POINT('',(12.4,-12.1,-0.5));
#856 = LINE('',#857,#858);
#857 = CARTESIAN_POINT('',(12.4,-12.1,-0.5));
#858 = VECTOR('',#859,1.);
#859 = DIRECTION('',(0.,0.,1.));
#860 = ORIENTED_EDGE('',*,*,#861,.T.);
#861 = EDGE_CURVE('',#854,#862,#864,.T.);
#862 = VERTEX_POINT('',#863);
#863 = CARTESIAN_POINT('',(12.4,-11.5,-0.5));
#864 = LINE('',#865,#866);
#865 = CARTESIAN_POINT('',(12.4,-12.1,-0.5));
#866 = VECTOR('',#867,1.);
#867 = DIRECTION('',(0.,1.,0.));
#868 = ORIENTED_EDGE('',*,*,#869,.F.);
#869 = EDGE_CURVE('',#870,#862,#872,.T.);
#870 = VERTEX_POINT('',#871);
#871 = CARTESIAN_POINT('',(12.4,-11.5,0.));
#872 = LINE('',#873,#874);
#873 = CARTESIAN_POINT('',(12.4,-11.5,-2.));
#874 = VECTOR('',#875,1.);
#875 = DIRECTION('',(0.,0.,-1.));
#876 = ORIENTED_EDGE('',*,*,#877,.F.);
#877 = EDGE_CURVE('',#830,#870,#878,.T.);
#878 = LINE('',#879,#880);
#879 = CARTESIAN_POINT('',(12.4,-12.05,0.));
#880 = VECTOR('',#881,1.);
#881 = DIRECTION('',(0.,1.,0.));
#882 = ORIENTED_EDGE('',*,*,#839,.F.);
#883 = ORIENTED_EDGE('',*,*,#195,.F.);
#884 = PLANE('',#885);
#885 = AXIS2_PLACEMENT_3D('',#886,#887,#888);
#886 = CARTESIAN_POINT('',(12.4,-12.1,-0.5));
#887 = DIRECTION('',(1.,0.,0.));
#888 = DIRECTION('',(0.,0.,1.));
#889 = ADVANCED_FACE('',(#890),#909,.F.);
#890 = FACE_BOUND('',#891,.F.);
#891 = EDGE_LOOP('',(#892,#893,#901,#908));
#892 = ORIENTED_EDGE('',*,*,#853,.F.);
#893 = ORIENTED_EDGE('',*,*,#894,.T.);
#894 = EDGE_CURVE('',#854,#895,#897,.T.);
#895 = VERTEX_POINT('',#896);
#896 = CARTESIAN_POINT('',(13.487596159536,-12.1,-0.5));
#897 = LINE('',#898,#899);
#898 = CARTESIAN_POINT('',(12.4,-12.1,-0.5));
#899 = VECTOR('',#900,1.);
#900 = DIRECTION('',(1.,0.,0.));
#901 = ORIENTED_EDGE('',*,*,#902,.T.);
#902 = EDGE_CURVE('',#895,#179,#903,.T.);
#903 = CIRCLE('',#904,1.705872210923);
#904 = AXIS2_PLACEMENT_3D('',#905,#906,#907);
#905 = CARTESIAN_POINT('',(14.3,-12.1,1.));
#906 = DIRECTION('',(0.,1.,0.));
#907 = DIRECTION('',(0.,0.,1.));
#908 = ORIENTED_EDGE('',*,*,#187,.F.);
#909 = PLANE('',#910);
#910 = AXIS2_PLACEMENT_3D('',#911,#912,#913);
#911 = CARTESIAN_POINT('',(12.574954414016,-12.1,1.092433473321));
#912 = DIRECTION('',(-0.,-1.,-0.));
#913 = DIRECTION('',(0.,0.,-1.));
#914 = ADVANCED_FACE('',(#915),#952,.F.);
#915 = FACE_BOUND('',#916,.F.);
#916 = EDGE_LOOP('',(#917,#918,#919,#928,#935,#936,#945));
#917 = ORIENTED_EDGE('',*,*,#178,.F.);
#918 = ORIENTED_EDGE('',*,*,#902,.F.);
#919 = ORIENTED_EDGE('',*,*,#920,.F.);
#920 = EDGE_CURVE('',#921,#895,#923,.T.);
#921 = VERTEX_POINT('',#922);
#922 = CARTESIAN_POINT('',(15.112403840464,-12.1,-0.5));
#923 = CIRCLE('',#924,4.769696007085);
#924 = AXIS2_PLACEMENT_3D('',#925,#926,#927);
#925 = CARTESIAN_POINT('',(14.3,-16.8,-0.5));
#926 = DIRECTION('',(0.,0.,1.));
#927 = DIRECTION('',(1.,0.,0.));
#928 = ORIENTED_EDGE('',*,*,#929,.F.);
#929 = EDGE_CURVE('',#384,#921,#930,.T.);
#930 = CIRCLE('',#931,1.705872210923);
#931 = AXIS2_PLACEMENT_3D('',#932,#933,#934);
#932 = CARTESIAN_POINT('',(14.3,-12.1,1.));
#933 = DIRECTION('',(0.,1.,0.));
#934 = DIRECTION('',(0.,0.,1.));
#935 = ORIENTED_EDGE('',*,*,#391,.F.);
#936 = ORIENTED_EDGE('',*,*,#937,.F.);
#937 = EDGE_CURVE('',#938,#392,#940,.T.);
#938 = VERTEX_POINT('',#939);
#939 = CARTESIAN_POINT('',(17.5,-13.,0.434314575051));
#940 = CIRCLE('',#941,4.981967482832);
#941 = AXIS2_PLACEMENT_3D('',#942,#943,#944);
#942 = CARTESIAN_POINT('',(14.,-16.5,1.));
#943 = DIRECTION('',(0.707106781187,-0.707106781187,0.));
#944 = DIRECTION('',(0.707106781187,0.707106781187,0.));
#945 = ORIENTED_EDGE('',*,*,#946,.T.);
#946 = EDGE_CURVE('',#938,#171,#947,.T.);
#947 = CIRCLE('',#948,3.249615361854);
#948 = AXIS2_PLACEMENT_3D('',#949,#950,#951);
#949 = CARTESIAN_POINT('',(14.3,-13.,1.));
#950 = DIRECTION('',(0.,1.,0.));
#951 = DIRECTION('',(0.,0.,1.));
#952 = SPHERICAL_SURFACE('',#953,5.);
#953 = AXIS2_PLACEMENT_3D('',#954,#955,#956);
#954 = CARTESIAN_POINT('',(14.3,-16.8,1.));
#955 = DIRECTION('',(0.,0.,1.));
#956 = DIRECTION('',(1.,0.,0.));
#957 = ADVANCED_FACE('',(#958),#975,.F.);
#958 = FACE_BOUND('',#959,.F.);
#959 = EDGE_LOOP('',(#960,#961,#967,#968,#969));
#960 = ORIENTED_EDGE('',*,*,#456,.F.);
#961 = ORIENTED_EDGE('',*,*,#962,.T.);
#962 = EDGE_CURVE('',#448,#163,#963,.T.);
#963 = LINE('',#964,#965);
#964 = CARTESIAN_POINT('',(-17.5,-13.,-4.5));
#965 = VECTOR('',#966,1.);
#966 = DIRECTION('',(0.,0.,1.));
#967 = ORIENTED_EDGE('',*,*,#170,.T.);
#968 = ORIENTED_EDGE('',*,*,#946,.F.);
#969 = ORIENTED_EDGE('',*,*,#970,.F.);
#970 = EDGE_CURVE('',#457,#938,#971,.T.);
#971 = LINE('',#972,#973);
#972 = CARTESIAN_POINT('',(17.5,-13.,-4.5));
#973 = VECTOR('',#974,1.);
#974 = DIRECTION('',(0.,0.,1.));
#975 = PLANE('',#976);
#976 = AXIS2_PLACEMENT_3D('',#977,#978,#979);
#977 = CARTESIAN_POINT('',(-21.,-13.,-4.5));
#978 = DIRECTION('',(0.,1.,0.));
#979 = DIRECTION('',(0.,0.,1.));
#980 = ADVANCED_FACE('',(#981,#1014),#1032,.F.);
#981 = FACE_BOUND('',#982,.F.);
#982 = EDGE_LOOP('',(#983,#993,#1001,#1007,#1008));
#983 = ORIENTED_EDGE('',*,*,#984,.T.);
#984 = EDGE_CURVE('',#985,#987,#989,.T.);
#985 = VERTEX_POINT('',#986);
#986 = CARTESIAN_POINT('',(-17.5,-13.,3.23));
#987 = VERTEX_POINT('',#988);
#988 = CARTESIAN_POINT('',(-19.21421356237,-11.28578643762,3.23));
#989 = LINE('',#990,#991);
#990 = CARTESIAN_POINT('',(-17.48180194846,-13.01819805153,3.23));
#991 = VECTOR('',#992,1.);
#992 = DIRECTION('',(-0.707106781187,0.707106781187,0.));
#993 = ORIENTED_EDGE('',*,*,#994,.T.);
#994 = EDGE_CURVE('',#987,#995,#997,.T.);
#995 = VERTEX_POINT('',#996);
#996 = CARTESIAN_POINT('',(-21.,-9.5,3.23));
#997 = LINE('',#998,#999);
#998 = CARTESIAN_POINT('',(-17.48180194846,-13.01819805153,3.23));
#999 = VECTOR('',#1000,1.);
#1000 = DIRECTION('',(-0.707106781187,0.707106781187,0.));
#1001 = ORIENTED_EDGE('',*,*,#1002,.F.);
#1002 = EDGE_CURVE('',#22,#995,#1003,.T.);
#1003 = LINE('',#1004,#1005);
#1004 = CARTESIAN_POINT('',(-21.,-9.5,-5.02));
#1005 = VECTOR('',#1006,1.);
#1006 = DIRECTION('',(0.,0.,1.));
#1007 = ORIENTED_EDGE('',*,*,#162,.T.);
#1008 = ORIENTED_EDGE('',*,*,#1009,.T.);
#1009 = EDGE_CURVE('',#163,#985,#1010,.T.);
#1010 = LINE('',#1011,#1012);
#1011 = CARTESIAN_POINT('',(-17.5,-13.,-5.02));
#1012 = VECTOR('',#1013,1.);
#1013 = DIRECTION('',(0.,0.,1.));
#1014 = FACE_BOUND('',#1015,.F.);
#1015 = EDGE_LOOP('',(#1016,#1025));
#1016 = ORIENTED_EDGE('',*,*,#1017,.T.);
#1017 = EDGE_CURVE('',#1018,#987,#1020,.T.);
#1018 = VERTEX_POINT('',#1019);
#1019 = CARTESIAN_POINT('',(-19.21421356237,-11.28578643762,1.73));
#1020 = CIRCLE('',#1021,0.75);
#1021 = AXIS2_PLACEMENT_3D('',#1022,#1023,#1024);
#1022 = CARTESIAN_POINT('',(-19.21421356237,-11.28578643762,2.48));
#1023 = DIRECTION('',(0.707106781187,0.707106781187,-0.));
#1024 = DIRECTION('',(-0.707106781187,0.707106781187,0.));
#1025 = ORIENTED_EDGE('',*,*,#1026,.F.);
#1026 = EDGE_CURVE('',#1018,#987,#1027,.T.);
#1027 = CIRCLE('',#1028,0.75);
#1028 = AXIS2_PLACEMENT_3D('',#1029,#1030,#1031);
#1029 = CARTESIAN_POINT('',(-19.21421356237,-11.28578643762,2.48));
#1030 = DIRECTION('',(-0.707106781187,-0.707106781187,0.));
#1031 = DIRECTION('',(0.,0.,1.));
#1032 = PLANE('',#1033);
#1033 = AXIS2_PLACEMENT_3D('',#1034,#1035,#1036);
#1034 = CARTESIAN_POINT('',(-17.48180194846,-13.01819805153,-2.02));
#1035 = DIRECTION('',(-0.707106781187,-0.707106781187,0.));
#1036 = DIRECTION('',(0.,0.,1.));
#1037 = ADVANCED_FACE('',(#1038,#1071),#1089,.F.);
#1038 = FACE_BOUND('',#1039,.F.);
#1039 = EDGE_LOOP('',(#1040,#1050,#1056,#1057,#1065));
#1040 = ORIENTED_EDGE('',*,*,#1041,.F.);
#1041 = EDGE_CURVE('',#1042,#1044,#1046,.T.);
#1042 = VERTEX_POINT('',#1043);
#1043 = CARTESIAN_POINT('',(-17.5,13.,3.23));
#1044 = VERTEX_POINT('',#1045);
#1045 = CARTESIAN_POINT('',(-19.21421356237,11.285786437627,3.23));
#1046 = LINE('',#1047,#1048);
#1047 = CARTESIAN_POINT('',(-17.48180194846,13.018198051534,3.23));
#1048 = VECTOR('',#1049,1.);
#1049 = DIRECTION('',(-0.707106781187,-0.707106781187,0.));
#1050 = ORIENTED_EDGE('',*,*,#1051,.F.);
#1051 = EDGE_CURVE('',#425,#1042,#1052,.T.);
#1052 = LINE('',#1053,#1054);
#1053 = CARTESIAN_POINT('',(-17.5,13.,-5.02));
#1054 = VECTOR('',#1055,1.);
#1055 = DIRECTION('',(0.,0.,1.));
#1056 = ORIENTED_EDGE('',*,*,#432,.T.);
#1057 = ORIENTED_EDGE('',*,*,#1058,.T.);
#1058 = EDGE_CURVE('',#48,#1059,#1061,.T.);
#1059 = VERTEX_POINT('',#1060);
#1060 = CARTESIAN_POINT('',(-21.,9.5,3.23));
#1061 = LINE('',#1062,#1063);
#1062 = CARTESIAN_POINT('',(-21.,9.5,-5.02));
#1063 = VECTOR('',#1064,1.);
#1064 = DIRECTION('',(0.,0.,1.));
#1065 = ORIENTED_EDGE('',*,*,#1066,.F.);
#1066 = EDGE_CURVE('',#1044,#1059,#1067,.T.);
#1067 = LINE('',#1068,#1069);
#1068 = CARTESIAN_POINT('',(-17.48180194846,13.018198051534,3.23));
#1069 = VECTOR('',#1070,1.);
#1070 = DIRECTION('',(-0.707106781187,-0.707106781187,0.));
#1071 = FACE_BOUND('',#1072,.F.);
#1072 = EDGE_LOOP('',(#1073,#1082));
#1073 = ORIENTED_EDGE('',*,*,#1074,.F.);
#1074 = EDGE_CURVE('',#1044,#1075,#1077,.T.);
#1075 = VERTEX_POINT('',#1076);
#1076 = CARTESIAN_POINT('',(-19.21421356237,11.285786437627,1.73));
#1077 = CIRCLE('',#1078,0.75);
#1078 = AXIS2_PLACEMENT_3D('',#1079,#1080,#1081);
#1079 = CARTESIAN_POINT('',(-19.21421356237,11.285786437627,2.48));
#1080 = DIRECTION('',(-0.707106781187,0.707106781187,0.));
#1081 = DIRECTION('',(0.,0.,1.));
#1082 = ORIENTED_EDGE('',*,*,#1083,.F.);
#1083 = EDGE_CURVE('',#1075,#1044,#1084,.T.);
#1084 = CIRCLE('',#1085,0.75);
#1085 = AXIS2_PLACEMENT_3D('',#1086,#1087,#1088);
#1086 = CARTESIAN_POINT('',(-19.21421356237,11.285786437627,2.48));
#1087 = DIRECTION('',(-0.707106781187,0.707106781187,0.));
#1088 = DIRECTION('',(0.,0.,1.));
#1089 = PLANE('',#1090);
#1090 = AXIS2_PLACEMENT_3D('',#1091,#1092,#1093);
#1091 = CARTESIAN_POINT('',(-17.48180194846,13.018198051534,-2.02));
#1092 = DIRECTION('',(-0.707106781187,0.707106781187,0.));
#1093 = DIRECTION('',(0.,0.,1.));
#1094 = ADVANCED_FACE('',(#1095),#1111,.T.);
#1095 = FACE_BOUND('',#1096,.T.);
#1096 = EDGE_LOOP('',(#1097,#1098,#1104,#1105));
#1097 = ORIENTED_EDGE('',*,*,#490,.F.);
#1098 = ORIENTED_EDGE('',*,*,#1099,.T.);
#1099 = EDGE_CURVE('',#491,#425,#1100,.T.);
#1100 = LINE('',#1101,#1102);
#1101 = CARTESIAN_POINT('',(-17.5,13.,-4.5));
#1102 = VECTOR('',#1103,1.);
#1103 = DIRECTION('',(0.,0.,1.));
#1104 = ORIENTED_EDGE('',*,*,#424,.T.);
#1105 = ORIENTED_EDGE('',*,*,#1106,.F.);
#1106 = EDGE_CURVE('',#482,#417,#1107,.T.);
#1107 = LINE('',#1108,#1109);
#1108 = CARTESIAN_POINT('',(17.5,13.,-4.5));
#1109 = VECTOR('',#1110,1.);
#1110 = DIRECTION('',(0.,0.,1.));
#1111 = PLANE('',#1112);
#1112 = AXIS2_PLACEMENT_3D('',#1113,#1114,#1115);
#1113 = CARTESIAN_POINT('',(-21.,13.,-4.5));
#1114 = DIRECTION('',(0.,1.,0.));
#1115 = DIRECTION('',(0.,0.,1.));
#1116 = ADVANCED_FACE('',(#1117,#1150),#1168,.F.);
#1117 = FACE_BOUND('',#1118,.F.);
#1118 = EDGE_LOOP('',(#1119,#1129,#1137,#1143,#1144));
#1119 = ORIENTED_EDGE('',*,*,#1120,.T.);
#1120 = EDGE_CURVE('',#1121,#1123,#1125,.T.);
#1121 = VERTEX_POINT('',#1122);
#1122 = CARTESIAN_POINT('',(17.5,13.,3.23));
#1123 = VERTEX_POINT('',#1124);
#1124 = CARTESIAN_POINT('',(19.214213562373,11.285786437627,3.23));
#1125 = LINE('',#1126,#1127);
#1126 = CARTESIAN_POINT('',(17.481801948466,13.018198051534,3.23));
#1127 = VECTOR('',#1128,1.);
#1128 = DIRECTION('',(0.707106781187,-0.707106781187,0.));
#1129 = ORIENTED_EDGE('',*,*,#1130,.T.);
#1130 = EDGE_CURVE('',#1123,#1131,#1133,.T.);
#1131 = VERTEX_POINT('',#1132);
#1132 = CARTESIAN_POINT('',(21.,9.5,3.23));
#1133 = LINE('',#1134,#1135);
#1134 = CARTESIAN_POINT('',(17.481801948466,13.018198051534,3.23));
#1135 = VECTOR('',#1136,1.);
#1136 = DIRECTION('',(0.707106781187,-0.707106781187,0.));
#1137 = ORIENTED_EDGE('',*,*,#1138,.F.);
#1138 = EDGE_CURVE('',#409,#1131,#1139,.T.);
#1139 = LINE('',#1140,#1141);
#1140 = CARTESIAN_POINT('',(21.,9.5,-5.02));
#1141 = VECTOR('',#1142,1.);
#1142 = DIRECTION('',(0.,0.,1.));
#1143 = ORIENTED_EDGE('',*,*,#416,.T.);
#1144 = ORIENTED_EDGE('',*,*,#1145,.T.);
#1145 = EDGE_CURVE('',#417,#1121,#1146,.T.);
#1146 = LINE('',#1147,#1148);
#1147 = CARTESIAN_POINT('',(17.5,13.,-5.02));
#1148 = VECTOR('',#1149,1.);
#1149 = DIRECTION('',(0.,0.,1.));
#1150 = FACE_BOUND('',#1151,.F.);
#1151 = EDGE_LOOP('',(#1152,#1161));
#1152 = ORIENTED_EDGE('',*,*,#1153,.T.);
#1153 = EDGE_CURVE('',#1154,#1123,#1156,.T.);
#1154 = VERTEX_POINT('',#1155);
#1155 = CARTESIAN_POINT('',(19.214213562373,11.285786437627,1.73));
#1156 = CIRCLE('',#1157,0.75);
#1157 = AXIS2_PLACEMENT_3D('',#1158,#1159,#1160);
#1158 = CARTESIAN_POINT('',(19.214213562373,11.285786437627,2.48));
#1159 = DIRECTION('',(-0.707106781187,-0.707106781187,0.));
#1160 = DIRECTION('',(0.707106781187,-0.707106781187,0.));
#1161 = ORIENTED_EDGE('',*,*,#1162,.F.);
#1162 = EDGE_CURVE('',#1154,#1123,#1163,.T.);
#1163 = CIRCLE('',#1164,0.75);
#1164 = AXIS2_PLACEMENT_3D('',#1165,#1166,#1167);
#1165 = CARTESIAN_POINT('',(19.214213562373,11.285786437627,2.48));
#1166 = DIRECTION('',(0.707106781187,0.707106781187,-0.));
#1167 = DIRECTION('',(0.,0.,1.));
#1168 = PLANE('',#1169);
#1169 = AXIS2_PLACEMENT_3D('',#1170,#1171,#1172);
#1170 = CARTESIAN_POINT('',(17.481801948466,13.018198051534,-2.02));
#1171 = DIRECTION('',(0.707106781187,0.707106781187,0.));
#1172 = DIRECTION('',(0.,0.,1.));
#1173 = ADVANCED_FACE('',(#1174,#1190),#1258,.T.);
#1174 = FACE_BOUND('',#1175,.T.);
#1175 = EDGE_LOOP('',(#1176,#1177,#1183,#1184));
#1176 = ORIENTED_EDGE('',*,*,#408,.F.);
#1177 = ORIENTED_EDGE('',*,*,#1178,.F.);
#1178 = EDGE_CURVE('',#465,#401,#1179,.T.);
#1179 = LINE('',#1180,#1181);
#1180 = CARTESIAN_POINT('',(21.,-9.5,-4.5));
#1181 = VECTOR('',#1182,1.);
#1182 = DIRECTION('',(0.,0.,1.));
#1183 = ORIENTED_EDGE('',*,*,#473,.T.);
#1184 = ORIENTED_EDGE('',*,*,#1185,.T.);
#1185 = EDGE_CURVE('',#474,#409,#1186,.T.);
#1186 = LINE('',#1187,#1188);
#1187 = CARTESIAN_POINT('',(21.,9.5,-4.5));
#1188 = VECTOR('',#1189,1.);
#1189 = DIRECTION('',(0.,0.,1.));
#1190 = FACE_BOUND('',#1191,.T.);
#1191 = EDGE_LOOP('',(#1192,#1202,#1210,#1218,#1227,#1235,#1243,#1251));
#1192 = ORIENTED_EDGE('',*,*,#1193,.F.);
#1193 = EDGE_CURVE('',#1194,#1196,#1198,.T.);
#1194 = VERTEX_POINT('',#1195);
#1195 = CARTESIAN_POINT('',(21.,2.9,-3.));
#1196 = VERTEX_POINT('',#1197);
#1197 = CARTESIAN_POINT('',(21.,2.9,-2.995993579438));
#1198 = LINE('',#1199,#1200);
#1199 = CARTESIAN_POINT('',(21.,2.9,-3.75));
#1200 = VECTOR('',#1201,1.);
#1201 = DIRECTION('',(0.,0.,1.));
#1202 = ORIENTED_EDGE('',*,*,#1203,.T.);
#1203 = EDGE_CURVE('',#1194,#1204,#1206,.T.);
#1204 = VERTEX_POINT('',#1205);
#1205 = CARTESIAN_POINT('',(21.,-2.9,-3.));
#1206 = LINE('',#1207,#1208);
#1207 = CARTESIAN_POINT('',(21.,-7.95,-3.));
#1208 = VECTOR('',#1209,1.);
#1209 = DIRECTION('',(0.,-1.,0.));
#1210 = ORIENTED_EDGE('',*,*,#1211,.T.);
#1211 = EDGE_CURVE('',#1204,#1212,#1214,.T.);
#1212 = VERTEX_POINT('',#1213);
#1213 = CARTESIAN_POINT('',(21.,-2.9,-2.995993579438));
#1214 = LINE('',#1215,#1216);
#1215 = CARTESIAN_POINT('',(21.,-2.9,-3.75));
#1216 = VECTOR('',#1217,1.);
#1217 = DIRECTION('',(0.,0.,1.));
#1218 = ORIENTED_EDGE('',*,*,#1219,.T.);
#1219 = EDGE_CURVE('',#1212,#1220,#1222,.T.);
#1220 = VERTEX_POINT('',#1221);
#1221 = CARTESIAN_POINT('',(21.,-2.9,-0.504006420562));
#1222 = CIRCLE('',#1223,1.25);
#1223 = AXIS2_PLACEMENT_3D('',#1224,#1225,#1226);
#1224 = CARTESIAN_POINT('',(21.,-3.,-1.75));
#1225 = DIRECTION('',(-1.,-0.,-2.2E-16));
#1226 = DIRECTION('',(2.2E-16,0.,-1.));
#1227 = ORIENTED_EDGE('',*,*,#1228,.T.);
#1228 = EDGE_CURVE('',#1220,#1229,#1231,.T.);
#1229 = VERTEX_POINT('',#1230);
#1230 = CARTESIAN_POINT('',(21.,-2.9,-0.5));
#1231 = LINE('',#1232,#1233);
#1232 = CARTESIAN_POINT('',(21.,-2.9,-3.75));
#1233 = VECTOR('',#1234,1.);
#1234 = DIRECTION('',(0.,0.,1.));
#1235 = ORIENTED_EDGE('',*,*,#1236,.F.);
#1236 = EDGE_CURVE('',#1237,#1229,#1239,.T.);
#1237 = VERTEX_POINT('',#1238);
#1238 = CARTESIAN_POINT('',(21.,2.9,-0.5));
#1239 = LINE('',#1240,#1241);
#1240 = CARTESIAN_POINT('',(21.,-7.95,-0.5));
#1241 = VECTOR('',#1242,1.);
#1242 = DIRECTION('',(0.,-1.,0.));
#1243 = ORIENTED_EDGE('',*,*,#1244,.F.);
#1244 = EDGE_CURVE('',#1245,#1237,#1247,.T.);
#1245 = VERTEX_POINT('',#1246);
#1246 = CARTESIAN_POINT('',(21.,2.9,-0.504006420562));
#1247 = LINE('',#1248,#1249);
#1248 = CARTESIAN_POINT('',(21.,2.9,-3.75));
#1249 = VECTOR('',#1250,1.);
#1250 = DIRECTION('',(0.,0.,1.));
#1251 = ORIENTED_EDGE('',*,*,#1252,.T.);
#1252 = EDGE_CURVE('',#1245,#1196,#1253,.T.);
#1253 = CIRCLE('',#1254,1.25);
#1254 = AXIS2_PLACEMENT_3D('',#1255,#1256,#1257);
#1255 = CARTESIAN_POINT('',(21.,3.,-1.75));
#1256 = DIRECTION('',(-1.,-0.,-2.2E-16));
#1257 = DIRECTION('',(2.2E-16,0.,-1.));
#1258 = PLANE('',#1259);
#1259 = AXIS2_PLACEMENT_3D('',#1260,#1261,#1262);
#1260 = CARTESIAN_POINT('',(21.,-13.,-4.5));
#1261 = DIRECTION('',(1.,0.,0.));
#1262 = DIRECTION('',(0.,0.,1.));
#1263 = ADVANCED_FACE('',(#1264,#1298),#1316,.F.);
#1264 = FACE_BOUND('',#1265,.F.);
#1265 = EDGE_LOOP('',(#1266,#1276,#1282,#1283,#1284,#1292));
#1266 = ORIENTED_EDGE('',*,*,#1267,.F.);
#1267 = EDGE_CURVE('',#1268,#1270,#1272,.T.);
#1268 = VERTEX_POINT('',#1269);
#1269 = CARTESIAN_POINT('',(17.5,-13.,3.23));
#1270 = VERTEX_POINT('',#1271);
#1271 = CARTESIAN_POINT('',(19.214213562373,-11.28578643762,3.23));
#1272 = LINE('',#1273,#1274);
#1273 = CARTESIAN_POINT('',(17.481801948466,-13.01819805153,3.23));
#1274 = VECTOR('',#1275,1.);
#1275 = DIRECTION('',(0.707106781187,0.707106781187,0.));
#1276 = ORIENTED_EDGE('',*,*,#1277,.F.);
#1277 = EDGE_CURVE('',#938,#1268,#1278,.T.);
#1278 = LINE('',#1279,#1280);
#1279 = CARTESIAN_POINT('',(17.5,-13.,-5.02));
#1280 = VECTOR('',#1281,1.);
#1281 = DIRECTION('',(0.,0.,1.));
#1282 = ORIENTED_EDGE('',*,*,#937,.T.);
#1283 = ORIENTED_EDGE('',*,*,#400,.T.);
#1284 = ORIENTED_EDGE('',*,*,#1285,.T.);
#1285 = EDGE_CURVE('',#401,#1286,#1288,.T.);
#1286 = VERTEX_POINT('',#1287);
#1287 = CARTESIAN_POINT('',(21.,-9.5,3.23));
#1288 = LINE('',#1289,#1290);
#1289 = CARTESIAN_POINT('',(21.,-9.5,-5.02));
#1290 = VECTOR('',#1291,1.);
#1291 = DIRECTION('',(0.,0.,1.));
#1292 = ORIENTED_EDGE('',*,*,#1293,.F.);
#1293 = EDGE_CURVE('',#1270,#1286,#1294,.T.);
#1294 = LINE('',#1295,#1296);
#1295 = CARTESIAN_POINT('',(17.481801948466,-13.01819805153,3.23));
#1296 = VECTOR('',#1297,1.);
#1297 = DIRECTION('',(0.707106781187,0.707106781187,0.));
#1298 = FACE_BOUND('',#1299,.F.);
#1299 = EDGE_LOOP('',(#1300,#1309));
#1300 = ORIENTED_EDGE('',*,*,#1301,.F.);
#1301 = EDGE_CURVE('',#1270,#1302,#1304,.T.);
#1302 = VERTEX_POINT('',#1303);
#1303 = CARTESIAN_POINT('',(19.214213562373,-11.28578643762,1.73));
#1304 = CIRCLE('',#1305,0.75);
#1305 = AXIS2_PLACEMENT_3D('',#1306,#1307,#1308);
#1306 = CARTESIAN_POINT('',(19.214213562373,-11.28578643762,2.48));
#1307 = DIRECTION('',(0.707106781187,-0.707106781187,0.));
#1308 = DIRECTION('',(0.,0.,1.));
#1309 = ORIENTED_EDGE('',*,*,#1310,.F.);
#1310 = EDGE_CURVE('',#1302,#1270,#1311,.T.);
#1311 = CIRCLE('',#1312,0.75);
#1312 = AXIS2_PLACEMENT_3D('',#1313,#1314,#1315);
#1313 = CARTESIAN_POINT('',(19.214213562373,-11.28578643762,2.48));
#1314 = DIRECTION('',(0.707106781187,-0.707106781187,0.));
#1315 = DIRECTION('',(0.,0.,1.));
#1316 = PLANE('',#1317);
#1317 = AXIS2_PLACEMENT_3D('',#1318,#1319,#1320);
#1318 = CARTESIAN_POINT('',(17.481801948466,-13.01819805153,-2.02));
#1319 = DIRECTION('',(0.707106781187,-0.707106781187,0.));
#1320 = DIRECTION('',(0.,0.,1.));
#1321 = ADVANCED_FACE('',(#1322),#1340,.F.);
#1322 = FACE_BOUND('',#1323,.F.);
#1323 = EDGE_LOOP('',(#1324,#1325,#1333,#1339));
#1324 = ORIENTED_EDGE('',*,*,#929,.T.);
#1325 = ORIENTED_EDGE('',*,*,#1326,.T.);
#1326 = EDGE_CURVE('',#921,#1327,#1329,.T.);
#1327 = VERTEX_POINT('',#1328);
#1328 = CARTESIAN_POINT('',(16.2,-12.1,-0.5));
#1329 = LINE('',#1330,#1331);
#1330 = CARTESIAN_POINT('',(12.4,-12.1,-0.5));
#1331 = VECTOR('',#1332,1.);
#1332 = DIRECTION('',(1.,0.,0.));
#1333 = ORIENTED_EDGE('',*,*,#1334,.T.);
#1334 = EDGE_CURVE('',#1327,#376,#1335,.T.);
#1335 = LINE('',#1336,#1337);
#1336 = CARTESIAN_POINT('',(16.2,-12.1,-0.5));
#1337 = VECTOR('',#1338,1.);
#1338 = DIRECTION('',(0.,0.,1.));
#1339 = ORIENTED_EDGE('',*,*,#383,.F.);
#1340 = PLANE('',#1341);
#1341 = AXIS2_PLACEMENT_3D('',#1342,#1343,#1344);
#1342 = CARTESIAN_POINT('',(16.012823082622,-12.1,1.087163080312));
#1343 = DIRECTION('',(-0.,-1.,-0.));
#1344 = DIRECTION('',(0.,0.,-1.));
#1345 = ADVANCED_FACE('',(#1346),#1380,.F.);
#1346 = FACE_BOUND('',#1347,.F.);
#1347 = EDGE_LOOP('',(#1348,#1349,#1357,#1365,#1373,#1379));
#1348 = ORIENTED_EDGE('',*,*,#1334,.F.);
#1349 = ORIENTED_EDGE('',*,*,#1350,.T.);
#1350 = EDGE_CURVE('',#1327,#1351,#1353,.T.);
#1351 = VERTEX_POINT('',#1352);
#1352 = CARTESIAN_POINT('',(16.2,-11.5,-0.5));
#1353 = LINE('',#1354,#1355);
#1354 = CARTESIAN_POINT('',(16.2,-12.1,-0.5));
#1355 = VECTOR('',#1356,1.);
#1356 = DIRECTION('',(0.,1.,0.));
#1357 = ORIENTED_EDGE('',*,*,#1358,.F.);
#1358 = EDGE_CURVE('',#1359,#1351,#1361,.T.);
#1359 = VERTEX_POINT('',#1360);
#1360 = CARTESIAN_POINT('',(16.2,-11.5,0.));
#1361 = LINE('',#1362,#1363);
#1362 = CARTESIAN_POINT('',(16.2,-11.5,-2.));
#1363 = VECTOR('',#1364,1.);
#1364 = DIRECTION('',(0.,0.,-1.));
#1365 = ORIENTED_EDGE('',*,*,#1366,.F.);
#1366 = EDGE_CURVE('',#1367,#1359,#1369,.T.);
#1367 = VERTEX_POINT('',#1368);
#1368 = CARTESIAN_POINT('',(16.2,-12.,0.));
#1369 = LINE('',#1370,#1371);
#1370 = CARTESIAN_POINT('',(16.2,-12.05,0.));
#1371 = VECTOR('',#1372,1.);
#1372 = DIRECTION('',(0.,1.,0.));
#1373 = ORIENTED_EDGE('',*,*,#1374,.F.);
#1374 = EDGE_CURVE('',#368,#1367,#1375,.T.);
#1375 = LINE('',#1376,#1377);
#1376 = CARTESIAN_POINT('',(16.2,-12.,-0.25));
#1377 = VECTOR('',#1378,1.);
#1378 = DIRECTION('',(0.,0.,-1.));
#1379 = ORIENTED_EDGE('',*,*,#375,.F.);
#1380 = PLANE('',#1381);
#1381 = AXIS2_PLACEMENT_3D('',#1382,#1383,#1384);
#1382 = CARTESIAN_POINT('',(16.2,-12.1,-0.5));
#1383 = DIRECTION('',(1.,0.,0.));
#1384 = DIRECTION('',(0.,0.,1.));
#1385 = ADVANCED_FACE('',(#1386),#1404,.T.);
#1386 = FACE_BOUND('',#1387,.T.);
#1387 = EDGE_LOOP('',(#1388,#1396,#1397,#1398));
#1388 = ORIENTED_EDGE('',*,*,#1389,.F.);
#1389 = EDGE_CURVE('',#1367,#1390,#1392,.T.);
#1390 = VERTEX_POINT('',#1391);
#1391 = CARTESIAN_POINT('',(17.,-12.,0.));
#1392 = LINE('',#1393,#1394);
#1393 = CARTESIAN_POINT('',(-20.,-12.,0.));
#1394 = VECTOR('',#1395,1.);
#1395 = DIRECTION('',(1.,0.,0.));
#1396 = ORIENTED_EDGE('',*,*,#1374,.F.);
#1397 = ORIENTED_EDGE('',*,*,#367,.F.);
#1398 = ORIENTED_EDGE('',*,*,#1399,.F.);
#1399 = EDGE_CURVE('',#1390,#359,#1400,.T.);
#1400 = LINE('',#1401,#1402);
#1401 = CARTESIAN_POINT('',(17.,-12.,0.));
#1402 = VECTOR('',#1403,1.);
#1403 = DIRECTION('',(0.,0.,1.));
#1404 = PLANE('',#1405);
#1405 = AXIS2_PLACEMENT_3D('',#1406,#1407,#1408);
#1406 = CARTESIAN_POINT('',(-20.,-12.,0.));
#1407 = DIRECTION('',(0.,1.,0.));
#1408 = DIRECTION('',(0.,0.,1.));
#1409 = ADVANCED_FACE('',(#1410),#1429,.F.);
#1410 = FACE_BOUND('',#1411,.T.);
#1411 = EDGE_LOOP('',(#1412,#1420,#1427,#1428));
#1412 = ORIENTED_EDGE('',*,*,#1413,.F.);
#1413 = EDGE_CURVE('',#1414,#351,#1416,.T.);
#1414 = VERTEX_POINT('',#1415);
#1415 = CARTESIAN_POINT('',(20.,-9.,0.));
#1416 = LINE('',#1417,#1418);
#1417 = CARTESIAN_POINT('',(20.,-9.,0.));
#1418 = VECTOR('',#1419,1.);
#1419 = DIRECTION('',(0.,0.,1.));
#1420 = ORIENTED_EDGE('',*,*,#1421,.T.);
#1421 = EDGE_CURVE('',#1414,#1390,#1422,.T.);
#1422 = CIRCLE('',#1423,3.);
#1423 = AXIS2_PLACEMENT_3D('',#1424,#1425,#1426);
#1424 = CARTESIAN_POINT('',(17.,-9.,0.));
#1425 = DIRECTION('',(-0.,-0.,-1.));
#1426 = DIRECTION('',(0.,-1.,0.));
#1427 = ORIENTED_EDGE('',*,*,#1399,.T.);
#1428 = ORIENTED_EDGE('',*,*,#358,.T.);
#1429 = CYLINDRICAL_SURFACE('',#1430,3.);
#1430 = AXIS2_PLACEMENT_3D('',#1431,#1432,#1433);
#1431 = CARTESIAN_POINT('',(17.,-9.,0.));
#1432 = DIRECTION('',(0.,0.,1.));
#1433 = DIRECTION('',(1.,0.,0.));
#1434 = ADVANCED_FACE('',(#1435),#1453,.F.);
#1435 = FACE_BOUND('',#1436,.F.);
#1436 = EDGE_LOOP('',(#1437,#1438,#1439,#1447));
#1437 = ORIENTED_EDGE('',*,*,#350,.F.);
#1438 = ORIENTED_EDGE('',*,*,#1413,.F.);
#1439 = ORIENTED_EDGE('',*,*,#1440,.T.);
#1440 = EDGE_CURVE('',#1414,#1441,#1443,.T.);
#1441 = VERTEX_POINT('',#1442);
#1442 = CARTESIAN_POINT('',(20.,9.,0.));
#1443 = LINE('',#1444,#1445);
#1444 = CARTESIAN_POINT('',(20.,-12.,0.));
#1445 = VECTOR('',#1446,1.);
#1446 = DIRECTION('',(0.,1.,0.));
#1447 = ORIENTED_EDGE('',*,*,#1448,.T.);
#1448 = EDGE_CURVE('',#1441,#342,#1449,.T.);
#1449 = LINE('',#1450,#1451);
#1450 = CARTESIAN_POINT('',(20.,9.,0.));
#1451 = VECTOR('',#1452,1.);
#1452 = DIRECTION('',(0.,0.,1.));
#1453 = PLANE('',#1454);
#1454 = AXIS2_PLACEMENT_3D('',#1455,#1456,#1457);
#1455 = CARTESIAN_POINT('',(20.,-12.,0.));
#1456 = DIRECTION('',(1.,0.,0.));
#1457 = DIRECTION('',(0.,0.,1.));
#1458 = ADVANCED_FACE('',(#1459),#1478,.F.);
#1459 = FACE_BOUND('',#1460,.F.);
#1460 = EDGE_LOOP('',(#1461,#1462,#1471,#1477));
#1461 = ORIENTED_EDGE('',*,*,#1448,.F.);
#1462 = ORIENTED_EDGE('',*,*,#1463,.T.);
#1463 = EDGE_CURVE('',#1441,#1464,#1466,.T.);
#1464 = VERTEX_POINT('',#1465);
#1465 = CARTESIAN_POINT('',(17.,12.,0.));
#1466 = CIRCLE('',#1467,3.);
#1467 = AXIS2_PLACEMENT_3D('',#1468,#1469,#1470);
#1468 = CARTESIAN_POINT('',(17.,9.,0.));
#1469 = DIRECTION('',(-0.,0.,1.));
#1470 = DIRECTION('',(0.,-1.,0.));
#1471 = ORIENTED_EDGE('',*,*,#1472,.T.);
#1472 = EDGE_CURVE('',#1464,#334,#1473,.T.);
#1473 = LINE('',#1474,#1475);
#1474 = CARTESIAN_POINT('',(17.,12.,0.));
#1475 = VECTOR('',#1476,1.);
#1476 = DIRECTION('',(0.,0.,1.));
#1477 = ORIENTED_EDGE('',*,*,#341,.F.);
#1478 = CYLINDRICAL_SURFACE('',#1479,3.);
#1479 = AXIS2_PLACEMENT_3D('',#1480,#1481,#1482);
#1480 = CARTESIAN_POINT('',(17.,9.,0.));
#1481 = DIRECTION('',(0.,0.,1.));
#1482 = DIRECTION('',(1.,0.,0.));
#1483 = ADVANCED_FACE('',(#1484),#1502,.F.);
#1484 = FACE_BOUND('',#1485,.F.);
#1485 = EDGE_LOOP('',(#1486,#1494,#1500,#1501));
#1486 = ORIENTED_EDGE('',*,*,#1487,.F.);
#1487 = EDGE_CURVE('',#1488,#1464,#1490,.T.);
#1488 = VERTEX_POINT('',#1489);
#1489 = CARTESIAN_POINT('',(-17.,12.,0.));
#1490 = LINE('',#1491,#1492);
#1491 = CARTESIAN_POINT('',(-20.,12.,0.));
#1492 = VECTOR('',#1493,1.);
#1493 = DIRECTION('',(1.,0.,0.));
#1494 = ORIENTED_EDGE('',*,*,#1495,.T.);
#1495 = EDGE_CURVE('',#1488,#325,#1496,.T.);
#1496 = LINE('',#1497,#1498);
#1497 = CARTESIAN_POINT('',(-17.,12.,0.));
#1498 = VECTOR('',#1499,1.);
#1499 = DIRECTION('',(0.,0.,1.));
#1500 = ORIENTED_EDGE('',*,*,#333,.F.);
#1501 = ORIENTED_EDGE('',*,*,#1472,.F.);
#1502 = PLANE('',#1503);
#1503 = AXIS2_PLACEMENT_3D('',#1504,#1505,#1506);
#1504 = CARTESIAN_POINT('',(-20.,12.,0.));
#1505 = DIRECTION('',(0.,1.,0.));
#1506 = DIRECTION('',(0.,0.,1.));
#1507 = ADVANCED_FACE('',(#1508),#1520,.F.);
#1508 = FACE_BOUND('',#1509,.T.);
#1509 = EDGE_LOOP('',(#1510,#1511,#1518,#1519));
#1510 = ORIENTED_EDGE('',*,*,#774,.F.);
#1511 = ORIENTED_EDGE('',*,*,#1512,.T.);
#1512 = EDGE_CURVE('',#767,#1488,#1513,.T.);
#1513 = CIRCLE('',#1514,3.);
#1514 = AXIS2_PLACEMENT_3D('',#1515,#1516,#1517);
#1515 = CARTESIAN_POINT('',(-17.,9.,0.));
#1516 = DIRECTION('',(-0.,-0.,-1.));
#1517 = DIRECTION('',(0.,-1.,0.));
#1518 = ORIENTED_EDGE('',*,*,#1495,.T.);
#1519 = ORIENTED_EDGE('',*,*,#324,.T.);
#1520 = CYLINDRICAL_SURFACE('',#1521,3.);
#1521 = AXIS2_PLACEMENT_3D('',#1522,#1523,#1524);
#1522 = CARTESIAN_POINT('',(-17.,9.,0.));
#1523 = DIRECTION('',(0.,0.,1.));
#1524 = DIRECTION('',(-1.,0.,0.));
#1525 = ADVANCED_FACE('',(#1526),#1563,.T.);
#1526 = FACE_BOUND('',#1527,.T.);
#1527 = EDGE_LOOP('',(#1528,#1529,#1530,#1531,#1532,#1540,#1549,#1557));
#1528 = ORIENTED_EDGE('',*,*,#734,.F.);
#1529 = ORIENTED_EDGE('',*,*,#805,.T.);
#1530 = ORIENTED_EDGE('',*,*,#829,.T.);
#1531 = ORIENTED_EDGE('',*,*,#877,.T.);
#1532 = ORIENTED_EDGE('',*,*,#1533,.F.);
#1533 = EDGE_CURVE('',#1534,#870,#1536,.T.);
#1534 = VERTEX_POINT('',#1535);
#1535 = CARTESIAN_POINT('',(-16.5,-11.5,0.));
#1536 = LINE('',#1537,#1538);
#1537 = CARTESIAN_POINT('',(-19.75,-11.5,0.));
#1538 = VECTOR('',#1539,1.);
#1539 = DIRECTION('',(1.,0.,0.));
#1540 = ORIENTED_EDGE('',*,*,#1541,.F.);
#1541 = EDGE_CURVE('',#1542,#1534,#1544,.T.);
#1542 = VERTEX_POINT('',#1543);
#1543 = CARTESIAN_POINT('',(-19.5,-8.5,0.));
#1544 = CIRCLE('',#1545,3.);
#1545 = AXIS2_PLACEMENT_3D('',#1546,#1547,#1548);
#1546 = CARTESIAN_POINT('',(-16.5,-8.5,0.));
#1547 = DIRECTION('',(0.,0.,1.));
#1548 = DIRECTION('',(-1.,0.,0.));
#1549 = ORIENTED_EDGE('',*,*,#1550,.F.);
#1550 = EDGE_CURVE('',#1551,#1542,#1553,.T.);
#1551 = VERTEX_POINT('',#1552);
#1552 = CARTESIAN_POINT('',(-19.5,-4.5,0.));
#1553 = LINE('',#1554,#1555);
#1554 = CARTESIAN_POINT('',(-19.5,-11.75,0.));
#1555 = VECTOR('',#1556,1.);
#1556 = DIRECTION('',(0.,-1.,0.));
#1557 = ORIENTED_EDGE('',*,*,#1558,.T.);
#1558 = EDGE_CURVE('',#1551,#735,#1559,.T.);
#1559 = LINE('',#1560,#1561);
#1560 = CARTESIAN_POINT('',(-12.,-4.5,0.));
#1561 = VECTOR('',#1562,1.);
#1562 = DIRECTION('',(-1.,0.,0.));
#1563 = PLANE('',#1564);
#1564 = AXIS2_PLACEMENT_3D('',#1565,#1566,#1567);
#1565 = CARTESIAN_POINT('',(-20.,-12.,0.));
#1566 = DIRECTION('',(0.,0.,1.));
#1567 = DIRECTION('',(1.,0.,0.));
#1568 = ADVANCED_FACE('',(#1569),#1587,.F.);
#1569 = FACE_BOUND('',#1570,.F.);
#1570 = EDGE_LOOP('',(#1571,#1579,#1585,#1586));
#1571 = ORIENTED_EDGE('',*,*,#1572,.F.);
#1572 = EDGE_CURVE('',#1573,#743,#1575,.T.);
#1573 = VERTEX_POINT('',#1574);
#1574 = CARTESIAN_POINT('',(-19.5,-4.5,-3.5));
#1575 = LINE('',#1576,#1577);
#1576 = CARTESIAN_POINT('',(-12.,-4.5,-3.5));
#1577 = VECTOR('',#1578,1.);
#1578 = DIRECTION('',(-1.,0.,0.));
#1579 = ORIENTED_EDGE('',*,*,#1580,.F.);
#1580 = EDGE_CURVE('',#1551,#1573,#1581,.T.);
#1581 = LINE('',#1582,#1583);
#1582 = CARTESIAN_POINT('',(-19.5,-4.5,-3.5));
#1583 = VECTOR('',#1584,1.);
#1584 = DIRECTION('',(0.,0.,-1.));
#1585 = ORIENTED_EDGE('',*,*,#1558,.T.);
#1586 = ORIENTED_EDGE('',*,*,#742,.F.);
#1587 = PLANE('',#1588);
#1588 = AXIS2_PLACEMENT_3D('',#1589,#1590,#1591);
#1589 = CARTESIAN_POINT('',(-12.,-4.5,-3.5));
#1590 = DIRECTION('',(0.,-1.,0.));
#1591 = DIRECTION('',(0.,0.,1.));
#1592 = ADVANCED_FACE('',(#1593),#1679,.T.);
#1593 = FACE_BOUND('',#1594,.T.);
#1594 = EDGE_LOOP('',(#1595,#1596,#1604,#1613,#1621,#1630,#1638,#1647,
    #1655,#1664,#1672,#1678));
#1595 = ORIENTED_EDGE('',*,*,#1572,.F.);
#1596 = ORIENTED_EDGE('',*,*,#1597,.F.);
#1597 = EDGE_CURVE('',#1598,#1573,#1600,.T.);
#1598 = VERTEX_POINT('',#1599);
#1599 = CARTESIAN_POINT('',(-19.5,-8.5,-3.5));
#1600 = LINE('',#1601,#1602);
#1601 = CARTESIAN_POINT('',(-19.5,-11.5,-3.5));
#1602 = VECTOR('',#1603,1.);
#1603 = DIRECTION('',(0.,1.,0.));
#1604 = ORIENTED_EDGE('',*,*,#1605,.T.);
#1605 = EDGE_CURVE('',#1598,#1606,#1608,.T.);
#1606 = VERTEX_POINT('',#1607);
#1607 = CARTESIAN_POINT('',(-16.5,-11.5,-3.5));
#1608 = CIRCLE('',#1609,3.);
#1609 = AXIS2_PLACEMENT_3D('',#1610,#1611,#1612);
#1610 = CARTESIAN_POINT('',(-16.5,-8.5,-3.5));
#1611 = DIRECTION('',(-0.,0.,1.));
#1612 = DIRECTION('',(0.,-1.,0.));
#1613 = ORIENTED_EDGE('',*,*,#1614,.T.);
#1614 = EDGE_CURVE('',#1606,#1615,#1617,.T.);
#1615 = VERTEX_POINT('',#1616);
#1616 = CARTESIAN_POINT('',(16.5,-11.5,-3.5));
#1617 = LINE('',#1618,#1619);
#1618 = CARTESIAN_POINT('',(-19.5,-11.5,-3.5));
#1619 = VECTOR('',#1620,1.);
#1620 = DIRECTION('',(1.,0.,0.));
#1621 = ORIENTED_EDGE('',*,*,#1622,.F.);
#1622 = EDGE_CURVE('',#1623,#1615,#1625,.T.);
#1623 = VERTEX_POINT('',#1624);
#1624 = CARTESIAN_POINT('',(19.5,-8.5,-3.5));
#1625 = CIRCLE('',#1626,3.);
#1626 = AXIS2_PLACEMENT_3D('',#1627,#1628,#1629);
#1627 = CARTESIAN_POINT('',(16.5,-8.5,-3.5));
#1628 = DIRECTION('',(-0.,-0.,-1.));
#1629 = DIRECTION('',(0.,-1.,0.));
#1630 = ORIENTED_EDGE('',*,*,#1631,.T.);
#1631 = EDGE_CURVE('',#1623,#1632,#1634,.T.);
#1632 = VERTEX_POINT('',#1633);
#1633 = CARTESIAN_POINT('',(19.5,8.5,-3.5));
#1634 = LINE('',#1635,#1636);
#1635 = CARTESIAN_POINT('',(19.5,-11.5,-3.5));
#1636 = VECTOR('',#1637,1.);
#1637 = DIRECTION('',(0.,1.,0.));
#1638 = ORIENTED_EDGE('',*,*,#1639,.T.);
#1639 = EDGE_CURVE('',#1632,#1640,#1642,.T.);
#1640 = VERTEX_POINT('',#1641);
#1641 = CARTESIAN_POINT('',(16.5,11.5,-3.5));
#1642 = CIRCLE('',#1643,3.);
#1643 = AXIS2_PLACEMENT_3D('',#1644,#1645,#1646);
#1644 = CARTESIAN_POINT('',(16.5,8.5,-3.5));
#1645 = DIRECTION('',(-0.,0.,1.));
#1646 = DIRECTION('',(0.,-1.,0.));
#1647 = ORIENTED_EDGE('',*,*,#1648,.F.);
#1648 = EDGE_CURVE('',#1649,#1640,#1651,.T.);
#1649 = VERTEX_POINT('',#1650);
#1650 = CARTESIAN_POINT('',(-16.5,11.5,-3.5));
#1651 = LINE('',#1652,#1653);
#1652 = CARTESIAN_POINT('',(-19.5,11.5,-3.5));
#1653 = VECTOR('',#1654,1.);
#1654 = DIRECTION('',(1.,0.,0.));
#1655 = ORIENTED_EDGE('',*,*,#1656,.F.);
#1656 = EDGE_CURVE('',#1657,#1649,#1659,.T.);
#1657 = VERTEX_POINT('',#1658);
#1658 = CARTESIAN_POINT('',(-19.5,8.5,-3.5));
#1659 = CIRCLE('',#1660,3.);
#1660 = AXIS2_PLACEMENT_3D('',#1661,#1662,#1663);
#1661 = CARTESIAN_POINT('',(-16.5,8.5,-3.5));
#1662 = DIRECTION('',(-0.,-0.,-1.));
#1663 = DIRECTION('',(0.,-1.,0.));
#1664 = ORIENTED_EDGE('',*,*,#1665,.F.);
#1665 = EDGE_CURVE('',#1666,#1657,#1668,.T.);
#1666 = VERTEX_POINT('',#1667);
#1667 = CARTESIAN_POINT('',(-19.5,4.5,-3.5));
#1668 = LINE('',#1669,#1670);
#1669 = CARTESIAN_POINT('',(-19.5,-11.5,-3.5));
#1670 = VECTOR('',#1671,1.);
#1671 = DIRECTION('',(0.,1.,0.));
#1672 = ORIENTED_EDGE('',*,*,#1673,.T.);
#1673 = EDGE_CURVE('',#1666,#751,#1674,.T.);
#1674 = LINE('',#1675,#1676);
#1675 = CARTESIAN_POINT('',(-12.,4.5,-3.5));
#1676 = VECTOR('',#1677,1.);
#1677 = DIRECTION('',(-1.,0.,0.));
#1678 = ORIENTED_EDGE('',*,*,#750,.T.);
#1679 = PLANE('',#1680);
#1680 = AXIS2_PLACEMENT_3D('',#1681,#1682,#1683);
#1681 = CARTESIAN_POINT('',(-0.202699927514,3.E-17,-3.5));
#1682 = DIRECTION('',(0.,0.,1.));
#1683 = DIRECTION('',(1.,0.,0.));
#1684 = ADVANCED_FACE('',(#1685),#1703,.T.);
#1685 = FACE_BOUND('',#1686,.T.);
#1686 = EDGE_LOOP('',(#1687,#1688,#1696,#1702));
#1687 = ORIENTED_EDGE('',*,*,#1673,.F.);
#1688 = ORIENTED_EDGE('',*,*,#1689,.F.);
#1689 = EDGE_CURVE('',#1690,#1666,#1692,.T.);
#1690 = VERTEX_POINT('',#1691);
#1691 = CARTESIAN_POINT('',(-19.5,4.5,0.));
#1692 = LINE('',#1693,#1694);
#1693 = CARTESIAN_POINT('',(-19.5,4.5,-3.5));
#1694 = VECTOR('',#1695,1.);
#1695 = DIRECTION('',(0.,0.,-1.));
#1696 = ORIENTED_EDGE('',*,*,#1697,.T.);
#1697 = EDGE_CURVE('',#1690,#759,#1698,.T.);
#1698 = LINE('',#1699,#1700);
#1699 = CARTESIAN_POINT('',(-12.,4.5,0.));
#1700 = VECTOR('',#1701,1.);
#1701 = DIRECTION('',(-1.,0.,0.));
#1702 = ORIENTED_EDGE('',*,*,#758,.F.);
#1703 = PLANE('',#1704);
#1704 = AXIS2_PLACEMENT_3D('',#1705,#1706,#1707);
#1705 = CARTESIAN_POINT('',(-12.,4.5,-3.5));
#1706 = DIRECTION('',(0.,-1.,0.));
#1707 = DIRECTION('',(0.,0.,1.));
#1708 = ADVANCED_FACE('',(#1709),#1777,.T.);
#1709 = FACE_BOUND('',#1710,.T.);
#1710 = EDGE_LOOP('',(#1711,#1712,#1713,#1721,#1730,#1738,#1747,#1755,
    #1764,#1770,#1771,#1772,#1773,#1774,#1775,#1776));
#1711 = ORIENTED_EDGE('',*,*,#766,.F.);
#1712 = ORIENTED_EDGE('',*,*,#1697,.F.);
#1713 = ORIENTED_EDGE('',*,*,#1714,.F.);
#1714 = EDGE_CURVE('',#1715,#1690,#1717,.T.);
#1715 = VERTEX_POINT('',#1716);
#1716 = CARTESIAN_POINT('',(-19.5,8.5,0.));
#1717 = LINE('',#1718,#1719);
#1718 = CARTESIAN_POINT('',(-19.5,-11.75,0.));
#1719 = VECTOR('',#1720,1.);
#1720 = DIRECTION('',(0.,-1.,0.));
#1721 = ORIENTED_EDGE('',*,*,#1722,.F.);
#1722 = EDGE_CURVE('',#1723,#1715,#1725,.T.);
#1723 = VERTEX_POINT('',#1724);
#1724 = CARTESIAN_POINT('',(-16.5,11.5,0.));
#1725 = CIRCLE('',#1726,3.);
#1726 = AXIS2_PLACEMENT_3D('',#1727,#1728,#1729);
#1727 = CARTESIAN_POINT('',(-16.5,8.5,0.));
#1728 = DIRECTION('',(0.,0.,1.));
#1729 = DIRECTION('',(-1.,0.,0.));
#1730 = ORIENTED_EDGE('',*,*,#1731,.T.);
#1731 = EDGE_CURVE('',#1723,#1732,#1734,.T.);
#1732 = VERTEX_POINT('',#1733);
#1733 = CARTESIAN_POINT('',(16.5,11.5,0.));
#1734 = LINE('',#1735,#1736);
#1735 = CARTESIAN_POINT('',(-19.75,11.5,0.));
#1736 = VECTOR('',#1737,1.);
#1737 = DIRECTION('',(1.,0.,0.));
#1738 = ORIENTED_EDGE('',*,*,#1739,.F.);
#1739 = EDGE_CURVE('',#1740,#1732,#1742,.T.);
#1740 = VERTEX_POINT('',#1741);
#1741 = CARTESIAN_POINT('',(19.5,8.5,0.));
#1742 = CIRCLE('',#1743,3.);
#1743 = AXIS2_PLACEMENT_3D('',#1744,#1745,#1746);
#1744 = CARTESIAN_POINT('',(16.5,8.5,0.));
#1745 = DIRECTION('',(0.,0.,1.));
#1746 = DIRECTION('',(1.,0.,0.));
#1747 = ORIENTED_EDGE('',*,*,#1748,.T.);
#1748 = EDGE_CURVE('',#1740,#1749,#1751,.T.);
#1749 = VERTEX_POINT('',#1750);
#1750 = CARTESIAN_POINT('',(19.5,-8.5,0.));
#1751 = LINE('',#1752,#1753);
#1752 = CARTESIAN_POINT('',(19.5,-11.75,0.));
#1753 = VECTOR('',#1754,1.);
#1754 = DIRECTION('',(0.,-1.,0.));
#1755 = ORIENTED_EDGE('',*,*,#1756,.F.);
#1756 = EDGE_CURVE('',#1757,#1749,#1759,.T.);
#1757 = VERTEX_POINT('',#1758);
#1758 = CARTESIAN_POINT('',(16.5,-11.5,0.));
#1759 = CIRCLE('',#1760,3.);
#1760 = AXIS2_PLACEMENT_3D('',#1761,#1762,#1763);
#1761 = CARTESIAN_POINT('',(16.5,-8.5,0.));
#1762 = DIRECTION('',(0.,0.,1.));
#1763 = DIRECTION('',(1.,0.,0.));
#1764 = ORIENTED_EDGE('',*,*,#1765,.F.);
#1765 = EDGE_CURVE('',#1359,#1757,#1766,.T.);
#1766 = LINE('',#1767,#1768);
#1767 = CARTESIAN_POINT('',(-19.75,-11.5,0.));
#1768 = VECTOR('',#1769,1.);
#1769 = DIRECTION('',(1.,0.,0.));
#1770 = ORIENTED_EDGE('',*,*,#1366,.F.);
#1771 = ORIENTED_EDGE('',*,*,#1389,.T.);
#1772 = ORIENTED_EDGE('',*,*,#1421,.F.);
#1773 = ORIENTED_EDGE('',*,*,#1440,.T.);
#1774 = ORIENTED_EDGE('',*,*,#1463,.T.);
#1775 = ORIENTED_EDGE('',*,*,#1487,.F.);
#1776 = ORIENTED_EDGE('',*,*,#1512,.F.);
#1777 = PLANE('',#1778);
#1778 = AXIS2_PLACEMENT_3D('',#1779,#1780,#1781);
#1779 = CARTESIAN_POINT('',(-20.,-12.,0.));
#1780 = DIRECTION('',(0.,0.,1.));
#1781 = DIRECTION('',(1.,0.,0.));
#1782 = ADVANCED_FACE('',(#1783),#1808,.T.);
#1783 = FACE_BOUND('',#1784,.T.);
#1784 = EDGE_LOOP('',(#1785,#1786,#1792,#1793,#1794,#1800,#1801,#1802));
#1785 = ORIENTED_EDGE('',*,*,#1614,.F.);
#1786 = ORIENTED_EDGE('',*,*,#1787,.T.);
#1787 = EDGE_CURVE('',#1606,#1534,#1788,.T.);
#1788 = LINE('',#1789,#1790);
#1789 = CARTESIAN_POINT('',(-16.5,-11.5,-3.5));
#1790 = VECTOR('',#1791,1.);
#1791 = DIRECTION('',(0.,0.,1.));
#1792 = ORIENTED_EDGE('',*,*,#1533,.T.);
#1793 = ORIENTED_EDGE('',*,*,#869,.T.);
#1794 = ORIENTED_EDGE('',*,*,#1795,.T.);
#1795 = EDGE_CURVE('',#862,#1351,#1796,.T.);
#1796 = LINE('',#1797,#1798);
#1797 = CARTESIAN_POINT('',(-3.55,-11.5,-0.5));
#1798 = VECTOR('',#1799,1.);
#1799 = DIRECTION('',(1.,0.,0.));
#1800 = ORIENTED_EDGE('',*,*,#1358,.F.);
#1801 = ORIENTED_EDGE('',*,*,#1765,.T.);
#1802 = ORIENTED_EDGE('',*,*,#1803,.F.);
#1803 = EDGE_CURVE('',#1615,#1757,#1804,.T.);
#1804 = LINE('',#1805,#1806);
#1805 = CARTESIAN_POINT('',(16.5,-11.5,-3.5));
#1806 = VECTOR('',#1807,1.);
#1807 = DIRECTION('',(0.,0.,1.));
#1808 = PLANE('',#1809);
#1809 = AXIS2_PLACEMENT_3D('',#1810,#1811,#1812);
#1810 = CARTESIAN_POINT('',(-19.5,-11.5,-3.5));
#1811 = DIRECTION('',(0.,1.,0.));
#1812 = DIRECTION('',(0.,0.,1.));
#1813 = ADVANCED_FACE('',(#1814),#1822,.T.);
#1814 = FACE_BOUND('',#1815,.T.);
#1815 = EDGE_LOOP('',(#1816,#1817,#1818,#1819,#1820,#1821));
#1816 = ORIENTED_EDGE('',*,*,#1350,.T.);
#1817 = ORIENTED_EDGE('',*,*,#1795,.F.);
#1818 = ORIENTED_EDGE('',*,*,#861,.F.);
#1819 = ORIENTED_EDGE('',*,*,#894,.T.);
#1820 = ORIENTED_EDGE('',*,*,#920,.F.);
#1821 = ORIENTED_EDGE('',*,*,#1326,.T.);
#1822 = PLANE('',#1823);
#1823 = AXIS2_PLACEMENT_3D('',#1824,#1825,#1826);
#1824 = CARTESIAN_POINT('',(12.4,-12.1,-0.5));
#1825 = DIRECTION('',(0.,0.,1.));
#1826 = DIRECTION('',(1.,0.,0.));
#1827 = ADVANCED_FACE('',(#1828),#1839,.T.);
#1828 = FACE_BOUND('',#1829,.T.);
#1829 = EDGE_LOOP('',(#1830,#1837,#1838));
#1830 = ORIENTED_EDGE('',*,*,#1831,.T.);
#1831 = EDGE_CURVE('',#995,#985,#1832,.T.);
#1832 = CIRCLE('',#1833,3.5);
#1833 = AXIS2_PLACEMENT_3D('',#1834,#1835,#1836);
#1834 = CARTESIAN_POINT('',(-17.5,-9.5,3.23));
#1835 = DIRECTION('',(0.,0.,1.));
#1836 = DIRECTION('',(-1.,0.,0.));
#1837 = ORIENTED_EDGE('',*,*,#984,.T.);
#1838 = ORIENTED_EDGE('',*,*,#994,.T.);
#1839 = PLANE('',#1840);
#1840 = AXIS2_PLACEMENT_3D('',#1841,#1842,#1843);
#1841 = CARTESIAN_POINT('',(-17.48180194846,-13.01819805153,3.23));
#1842 = DIRECTION('',(0.,0.,1.));
#1843 = DIRECTION('',(-0.707106781187,0.707106781187,0.));
#1844 = ADVANCED_FACE('',(#1845),#1849,.T.);
#1845 = FACE_BOUND('',#1846,.T.);
#1846 = EDGE_LOOP('',(#1847,#1848));
#1847 = ORIENTED_EDGE('',*,*,#1017,.T.);
#1848 = ORIENTED_EDGE('',*,*,#1026,.F.);
#1849 = SPHERICAL_SURFACE('',#1850,0.75);
#1850 = AXIS2_PLACEMENT_3D('',#1851,#1852,#1853);
#1851 = CARTESIAN_POINT('',(-19.21421356237,-11.28578643762,2.48));
#1852 = DIRECTION('',(0.,0.,1.));
#1853 = DIRECTION('',(-0.707106781187,0.707106781187,0.));
#1854 = ADVANCED_FACE('',(#1855),#1866,.T.);
#1855 = FACE_BOUND('',#1856,.T.);
#1856 = EDGE_LOOP('',(#1857,#1858,#1865));
#1857 = ORIENTED_EDGE('',*,*,#1041,.F.);
#1858 = ORIENTED_EDGE('',*,*,#1859,.T.);
#1859 = EDGE_CURVE('',#1042,#1059,#1860,.T.);
#1860 = CIRCLE('',#1861,3.5);
#1861 = AXIS2_PLACEMENT_3D('',#1862,#1863,#1864);
#1862 = CARTESIAN_POINT('',(-17.5,9.5,3.23));
#1863 = DIRECTION('',(0.,0.,1.));
#1864 = DIRECTION('',(-1.,0.,0.));
#1865 = ORIENTED_EDGE('',*,*,#1066,.F.);
#1866 = PLANE('',#1867);
#1867 = AXIS2_PLACEMENT_3D('',#1868,#1869,#1870);
#1868 = CARTESIAN_POINT('',(-17.48180194846,13.018198051534,3.23));
#1869 = DIRECTION('',(0.,0.,1.));
#1870 = DIRECTION('',(-0.707106781187,0.707106781187,0.));
#1871 = ADVANCED_FACE('',(#1872),#1876,.T.);
#1872 = FACE_BOUND('',#1873,.T.);
#1873 = EDGE_LOOP('',(#1874,#1875));
#1874 = ORIENTED_EDGE('',*,*,#1074,.F.);
#1875 = ORIENTED_EDGE('',*,*,#1083,.F.);
#1876 = SPHERICAL_SURFACE('',#1877,0.75);
#1877 = AXIS2_PLACEMENT_3D('',#1878,#1879,#1880);
#1878 = CARTESIAN_POINT('',(-19.21421356237,11.285786437627,2.48));
#1879 = DIRECTION('',(0.,0.,1.));
#1880 = DIRECTION('',(-0.707106781187,0.707106781187,0.));
#1881 = ADVANCED_FACE('',(#1882),#1893,.T.);
#1882 = FACE_BOUND('',#1883,.T.);
#1883 = EDGE_LOOP('',(#1884,#1891,#1892));
#1884 = ORIENTED_EDGE('',*,*,#1885,.T.);
#1885 = EDGE_CURVE('',#1131,#1121,#1886,.T.);
#1886 = CIRCLE('',#1887,3.5);
#1887 = AXIS2_PLACEMENT_3D('',#1888,#1889,#1890);
#1888 = CARTESIAN_POINT('',(17.5,9.5,3.23));
#1889 = DIRECTION('',(0.,0.,1.));
#1890 = DIRECTION('',(1.,0.,0.));
#1891 = ORIENTED_EDGE('',*,*,#1120,.T.);
#1892 = ORIENTED_EDGE('',*,*,#1130,.T.);
#1893 = PLANE('',#1894);
#1894 = AXIS2_PLACEMENT_3D('',#1895,#1896,#1897);
#1895 = CARTESIAN_POINT('',(17.481801948466,13.018198051534,3.23));
#1896 = DIRECTION('',(0.,0.,1.));
#1897 = DIRECTION('',(0.707106781187,-0.707106781187,0.));
#1898 = ADVANCED_FACE('',(#1899),#1903,.T.);
#1899 = FACE_BOUND('',#1900,.T.);
#1900 = EDGE_LOOP('',(#1901,#1902));
#1901 = ORIENTED_EDGE('',*,*,#1153,.T.);
#1902 = ORIENTED_EDGE('',*,*,#1162,.F.);
#1903 = SPHERICAL_SURFACE('',#1904,0.75);
#1904 = AXIS2_PLACEMENT_3D('',#1905,#1906,#1907);
#1905 = CARTESIAN_POINT('',(19.214213562373,11.285786437627,2.48));
#1906 = DIRECTION('',(0.,0.,1.));
#1907 = DIRECTION('',(0.707106781187,-0.707106781187,0.));
#1908 = ADVANCED_FACE('',(#1909),#1934,.F.);
#1909 = FACE_BOUND('',#1910,.F.);
#1910 = EDGE_LOOP('',(#1911,#1912,#1920,#1928));
#1911 = ORIENTED_EDGE('',*,*,#1193,.F.);
#1912 = ORIENTED_EDGE('',*,*,#1913,.F.);
#1913 = EDGE_CURVE('',#1914,#1194,#1916,.T.);
#1914 = VERTEX_POINT('',#1915);
#1915 = CARTESIAN_POINT('',(19.5,2.9,-3.));
#1916 = LINE('',#1917,#1918);
#1917 = CARTESIAN_POINT('',(11.,2.9,-3.));
#1918 = VECTOR('',#1919,1.);
#1919 = DIRECTION('',(1.,0.,0.));
#1920 = ORIENTED_EDGE('',*,*,#1921,.T.);
#1921 = EDGE_CURVE('',#1914,#1922,#1924,.T.);
#1922 = VERTEX_POINT('',#1923);
#1923 = CARTESIAN_POINT('',(19.5,2.9,-2.995993579438));
#1924 = LINE('',#1925,#1926);
#1925 = CARTESIAN_POINT('',(19.5,2.9,-3.25));
#1926 = VECTOR('',#1927,1.);
#1927 = DIRECTION('',(0.,0.,1.));
#1928 = ORIENTED_EDGE('',*,*,#1929,.F.);
#1929 = EDGE_CURVE('',#1196,#1922,#1930,.T.);
#1930 = LINE('',#1931,#1932);
#1931 = CARTESIAN_POINT('',(11.,2.9,-2.995993579438));
#1932 = VECTOR('',#1933,1.);
#1933 = DIRECTION('',(-1.,-0.,-2.2E-16));
#1934 = PLANE('',#1935);
#1935 = AXIS2_PLACEMENT_3D('',#1936,#1937,#1938);
#1936 = CARTESIAN_POINT('',(11.,2.9,-3.));
#1937 = DIRECTION('',(0.,1.,0.));
#1938 = DIRECTION('',(0.,0.,1.));
#1939 = ADVANCED_FACE('',(#1940),#1959,.F.);
#1940 = FACE_BOUND('',#1941,.T.);
#1941 = EDGE_LOOP('',(#1942,#1943,#1944,#1952));
#1942 = ORIENTED_EDGE('',*,*,#1929,.F.);
#1943 = ORIENTED_EDGE('',*,*,#1252,.F.);
#1944 = ORIENTED_EDGE('',*,*,#1945,.T.);
#1945 = EDGE_CURVE('',#1245,#1946,#1948,.T.);
#1946 = VERTEX_POINT('',#1947);
#1947 = CARTESIAN_POINT('',(19.5,2.9,-0.504006420562));
#1948 = LINE('',#1949,#1950);
#1949 = CARTESIAN_POINT('',(11.,2.9,-0.504006420562));
#1950 = VECTOR('',#1951,1.);
#1951 = DIRECTION('',(-1.,-0.,-2.2E-16));
#1952 = ORIENTED_EDGE('',*,*,#1953,.T.);
#1953 = EDGE_CURVE('',#1946,#1922,#1954,.T.);
#1954 = CIRCLE('',#1955,1.25);
#1955 = AXIS2_PLACEMENT_3D('',#1956,#1957,#1958);
#1956 = CARTESIAN_POINT('',(19.5,3.,-1.75));
#1957 = DIRECTION('',(-1.,-0.,-2.2E-16));
#1958 = DIRECTION('',(2.2E-16,0.,-1.));
#1959 = CYLINDRICAL_SURFACE('',#1960,1.25);
#1960 = AXIS2_PLACEMENT_3D('',#1961,#1962,#1963);
#1961 = CARTESIAN_POINT('',(11.,3.,-1.75));
#1962 = DIRECTION('',(-1.,-0.,-2.2E-16));
#1963 = DIRECTION('',(2.2E-16,0.,-1.));
#1964 = ADVANCED_FACE('',(#1965),#1983,.F.);
#1965 = FACE_BOUND('',#1966,.F.);
#1966 = EDGE_LOOP('',(#1967,#1968,#1969,#1977));
#1967 = ORIENTED_EDGE('',*,*,#1244,.F.);
#1968 = ORIENTED_EDGE('',*,*,#1945,.T.);
#1969 = ORIENTED_EDGE('',*,*,#1970,.T.);
#1970 = EDGE_CURVE('',#1946,#1971,#1973,.T.);
#1971 = VERTEX_POINT('',#1972);
#1972 = CARTESIAN_POINT('',(19.5,2.9,-0.5));
#1973 = LINE('',#1974,#1975);
#1974 = CARTESIAN_POINT('',(19.5,2.9,-3.25));
#1975 = VECTOR('',#1976,1.);
#1976 = DIRECTION('',(0.,0.,1.));
#1977 = ORIENTED_EDGE('',*,*,#1978,.T.);
#1978 = EDGE_CURVE('',#1971,#1237,#1979,.T.);
#1979 = LINE('',#1980,#1981);
#1980 = CARTESIAN_POINT('',(11.,2.9,-0.5));
#1981 = VECTOR('',#1982,1.);
#1982 = DIRECTION('',(1.,0.,0.));
#1983 = PLANE('',#1984);
#1984 = AXIS2_PLACEMENT_3D('',#1985,#1986,#1987);
#1985 = CARTESIAN_POINT('',(11.,2.9,-3.));
#1986 = DIRECTION('',(0.,1.,0.));
#1987 = DIRECTION('',(0.,0.,1.));
#1988 = ADVANCED_FACE('',(#1989),#2007,.F.);
#1989 = FACE_BOUND('',#1990,.F.);
#1990 = EDGE_LOOP('',(#1991,#1992,#2000,#2006));
#1991 = ORIENTED_EDGE('',*,*,#1978,.F.);
#1992 = ORIENTED_EDGE('',*,*,#1993,.T.);
#1993 = EDGE_CURVE('',#1971,#1994,#1996,.T.);
#1994 = VERTEX_POINT('',#1995);
#1995 = CARTESIAN_POINT('',(19.5,-2.9,-0.5));
#1996 = LINE('',#1997,#1998);
#1997 = CARTESIAN_POINT('',(19.5,-7.2,-0.5));
#1998 = VECTOR('',#1999,1.);
#1999 = DIRECTION('',(0.,-1.,0.));
#2000 = ORIENTED_EDGE('',*,*,#2001,.T.);
#2001 = EDGE_CURVE('',#1994,#1229,#2002,.T.);
#2002 = LINE('',#2003,#2004);
#2003 = CARTESIAN_POINT('',(11.,-2.9,-0.5));
#2004 = VECTOR('',#2005,1.);
#2005 = DIRECTION('',(1.,0.,0.));
#2006 = ORIENTED_EDGE('',*,*,#1236,.F.);
#2007 = PLANE('',#2008);
#2008 = AXIS2_PLACEMENT_3D('',#2009,#2010,#2011);
#2009 = CARTESIAN_POINT('',(11.,-2.9,-0.5));
#2010 = DIRECTION('',(0.,0.,1.));
#2011 = DIRECTION('',(1.,0.,0.));
#2012 = ADVANCED_FACE('',(#2013),#2031,.T.);
#2013 = FACE_BOUND('',#2014,.T.);
#2014 = EDGE_LOOP('',(#2015,#2016,#2024,#2030));
#2015 = ORIENTED_EDGE('',*,*,#1228,.F.);
#2016 = ORIENTED_EDGE('',*,*,#2017,.T.);
#2017 = EDGE_CURVE('',#1220,#2018,#2020,.T.);
#2018 = VERTEX_POINT('',#2019);
#2019 = CARTESIAN_POINT('',(19.5,-2.9,-0.504006420562));
#2020 = LINE('',#2021,#2022);
#2021 = CARTESIAN_POINT('',(11.,-2.9,-0.504006420562));
#2022 = VECTOR('',#2023,1.);
#2023 = DIRECTION('',(-1.,-0.,-2.2E-16));
#2024 = ORIENTED_EDGE('',*,*,#2025,.T.);
#2025 = EDGE_CURVE('',#2018,#1994,#2026,.T.);
#2026 = LINE('',#2027,#2028);
#2027 = CARTESIAN_POINT('',(19.5,-2.9,-3.25));
#2028 = VECTOR('',#2029,1.);
#2029 = DIRECTION('',(0.,0.,1.));
#2030 = ORIENTED_EDGE('',*,*,#2001,.T.);
#2031 = PLANE('',#2032);
#2032 = AXIS2_PLACEMENT_3D('',#2033,#2034,#2035);
#2033 = CARTESIAN_POINT('',(11.,-2.9,-3.));
#2034 = DIRECTION('',(0.,1.,0.));
#2035 = DIRECTION('',(0.,0.,1.));
#2036 = ADVANCED_FACE('',(#2037),#2056,.F.);
#2037 = FACE_BOUND('',#2038,.T.);
#2038 = EDGE_LOOP('',(#2039,#2040,#2041,#2049));
#2039 = ORIENTED_EDGE('',*,*,#2017,.F.);
#2040 = ORIENTED_EDGE('',*,*,#1219,.F.);
#2041 = ORIENTED_EDGE('',*,*,#2042,.T.);
#2042 = EDGE_CURVE('',#1212,#2043,#2045,.T.);
#2043 = VERTEX_POINT('',#2044);
#2044 = CARTESIAN_POINT('',(19.5,-2.9,-2.995993579438));
#2045 = LINE('',#2046,#2047);
#2046 = CARTESIAN_POINT('',(11.,-2.9,-2.995993579438));
#2047 = VECTOR('',#2048,1.);
#2048 = DIRECTION('',(-1.,-0.,-2.2E-16));
#2049 = ORIENTED_EDGE('',*,*,#2050,.T.);
#2050 = EDGE_CURVE('',#2043,#2018,#2051,.T.);
#2051 = CIRCLE('',#2052,1.25);
#2052 = AXIS2_PLACEMENT_3D('',#2053,#2054,#2055);
#2053 = CARTESIAN_POINT('',(19.5,-3.,-1.75));
#2054 = DIRECTION('',(-1.,-0.,-2.2E-16));
#2055 = DIRECTION('',(2.2E-16,0.,-1.));
#2056 = CYLINDRICAL_SURFACE('',#2057,1.25);
#2057 = AXIS2_PLACEMENT_3D('',#2058,#2059,#2060);
#2058 = CARTESIAN_POINT('',(11.,-3.,-1.75));
#2059 = DIRECTION('',(-1.,-0.,-2.2E-16));
#2060 = DIRECTION('',(2.2E-16,0.,-1.));
#2061 = ADVANCED_FACE('',(#2062),#2080,.T.);
#2062 = FACE_BOUND('',#2063,.T.);
#2063 = EDGE_LOOP('',(#2064,#2065,#2073,#2079));
#2064 = ORIENTED_EDGE('',*,*,#1211,.F.);
#2065 = ORIENTED_EDGE('',*,*,#2066,.F.);
#2066 = EDGE_CURVE('',#2067,#1204,#2069,.T.);
#2067 = VERTEX_POINT('',#2068);
#2068 = CARTESIAN_POINT('',(19.5,-2.9,-3.));
#2069 = LINE('',#2070,#2071);
#2070 = CARTESIAN_POINT('',(11.,-2.9,-3.));
#2071 = VECTOR('',#2072,1.);
#2072 = DIRECTION('',(1.,0.,0.));
#2073 = ORIENTED_EDGE('',*,*,#2074,.T.);
#2074 = EDGE_CURVE('',#2067,#2043,#2075,.T.);
#2075 = LINE('',#2076,#2077);
#2076 = CARTESIAN_POINT('',(19.5,-2.9,-3.25));
#2077 = VECTOR('',#2078,1.);
#2078 = DIRECTION('',(0.,0.,1.));
#2079 = ORIENTED_EDGE('',*,*,#2042,.F.);
#2080 = PLANE('',#2081);
#2081 = AXIS2_PLACEMENT_3D('',#2082,#2083,#2084);
#2082 = CARTESIAN_POINT('',(11.,-2.9,-3.));
#2083 = DIRECTION('',(0.,1.,0.));
#2084 = DIRECTION('',(0.,0.,1.));
#2085 = ADVANCED_FACE('',(#2086),#2097,.T.);
#2086 = FACE_BOUND('',#2087,.T.);
#2087 = EDGE_LOOP('',(#2088,#2089,#2095,#2096));
#2088 = ORIENTED_EDGE('',*,*,#1913,.F.);
#2089 = ORIENTED_EDGE('',*,*,#2090,.T.);
#2090 = EDGE_CURVE('',#1914,#2067,#2091,.T.);
#2091 = LINE('',#2092,#2093);
#2092 = CARTESIAN_POINT('',(19.5,-7.2,-3.));
#2093 = VECTOR('',#2094,1.);
#2094 = DIRECTION('',(0.,-1.,0.));
#2095 = ORIENTED_EDGE('',*,*,#2066,.T.);
#2096 = ORIENTED_EDGE('',*,*,#1203,.F.);
#2097 = PLANE('',#2098);
#2098 = AXIS2_PLACEMENT_3D('',#2099,#2100,#2101);
#2099 = CARTESIAN_POINT('',(11.,-2.9,-3.));
#2100 = DIRECTION('',(0.,0.,1.));
#2101 = DIRECTION('',(1.,0.,0.));
#2102 = ADVANCED_FACE('',(#2103),#2114,.T.);
#2103 = FACE_BOUND('',#2104,.T.);
#2104 = EDGE_LOOP('',(#2105,#2106,#2113));
#2105 = ORIENTED_EDGE('',*,*,#1267,.F.);
#2106 = ORIENTED_EDGE('',*,*,#2107,.T.);
#2107 = EDGE_CURVE('',#1268,#1286,#2108,.T.);
#2108 = CIRCLE('',#2109,3.5);
#2109 = AXIS2_PLACEMENT_3D('',#2110,#2111,#2112);
#2110 = CARTESIAN_POINT('',(17.5,-9.5,3.23));
#2111 = DIRECTION('',(0.,0.,1.));
#2112 = DIRECTION('',(1.,0.,0.));
#2113 = ORIENTED_EDGE('',*,*,#1293,.F.);
#2114 = PLANE('',#2115);
#2115 = AXIS2_PLACEMENT_3D('',#2116,#2117,#2118);
#2116 = CARTESIAN_POINT('',(17.481801948466,-13.01819805153,3.23));
#2117 = DIRECTION('',(0.,0.,1.));
#2118 = DIRECTION('',(0.707106781187,-0.707106781187,0.));
#2119 = ADVANCED_FACE('',(#2120),#2124,.T.);
#2120 = FACE_BOUND('',#2121,.T.);
#2121 = EDGE_LOOP('',(#2122,#2123));
#2122 = ORIENTED_EDGE('',*,*,#1301,.F.);
#2123 = ORIENTED_EDGE('',*,*,#1310,.F.);
#2124 = SPHERICAL_SURFACE('',#2125,0.75);
#2125 = AXIS2_PLACEMENT_3D('',#2126,#2127,#2128);
#2126 = CARTESIAN_POINT('',(19.214213562373,-11.28578643762,2.48));
#2127 = DIRECTION('',(0.,0.,1.));
#2128 = DIRECTION('',(0.707106781187,-0.707106781187,0.));
#2129 = ADVANCED_FACE('',(#2130),#2141,.T.);
#2130 = FACE_BOUND('',#2131,.T.);
#2131 = EDGE_LOOP('',(#2132,#2133,#2134,#2140));
#2132 = ORIENTED_EDGE('',*,*,#1580,.F.);
#2133 = ORIENTED_EDGE('',*,*,#1550,.T.);
#2134 = ORIENTED_EDGE('',*,*,#2135,.F.);
#2135 = EDGE_CURVE('',#1598,#1542,#2136,.T.);
#2136 = LINE('',#2137,#2138);
#2137 = CARTESIAN_POINT('',(-19.5,-8.5,-3.5));
#2138 = VECTOR('',#2139,1.);
#2139 = DIRECTION('',(0.,0.,1.));
#2140 = ORIENTED_EDGE('',*,*,#1597,.T.);
#2141 = PLANE('',#2142);
#2142 = AXIS2_PLACEMENT_3D('',#2143,#2144,#2145);
#2143 = CARTESIAN_POINT('',(-19.5,-11.5,-3.5));
#2144 = DIRECTION('',(1.,0.,0.));
#2145 = DIRECTION('',(0.,0.,1.));
#2146 = ADVANCED_FACE('',(#2147),#2153,.F.);
#2147 = FACE_BOUND('',#2148,.F.);
#2148 = EDGE_LOOP('',(#2149,#2150,#2151,#2152));
#2149 = ORIENTED_EDGE('',*,*,#2135,.F.);
#2150 = ORIENTED_EDGE('',*,*,#1605,.T.);
#2151 = ORIENTED_EDGE('',*,*,#1787,.T.);
#2152 = ORIENTED_EDGE('',*,*,#1541,.F.);
#2153 = CYLINDRICAL_SURFACE('',#2154,3.);
#2154 = AXIS2_PLACEMENT_3D('',#2155,#2156,#2157);
#2155 = CARTESIAN_POINT('',(-16.5,-8.5,-3.5));
#2156 = DIRECTION('',(0.,0.,1.));
#2157 = DIRECTION('',(-1.,0.,0.));
#2158 = ADVANCED_FACE('',(#2159),#2170,.F.);
#2159 = FACE_BOUND('',#2160,.T.);
#2160 = EDGE_LOOP('',(#2161,#2167,#2168,#2169));
#2161 = ORIENTED_EDGE('',*,*,#2162,.F.);
#2162 = EDGE_CURVE('',#1623,#1749,#2163,.T.);
#2163 = LINE('',#2164,#2165);
#2164 = CARTESIAN_POINT('',(19.5,-8.5,-3.5));
#2165 = VECTOR('',#2166,1.);
#2166 = DIRECTION('',(0.,0.,1.));
#2167 = ORIENTED_EDGE('',*,*,#1622,.T.);
#2168 = ORIENTED_EDGE('',*,*,#1803,.T.);
#2169 = ORIENTED_EDGE('',*,*,#1756,.T.);
#2170 = CYLINDRICAL_SURFACE('',#2171,3.);
#2171 = AXIS2_PLACEMENT_3D('',#2172,#2173,#2174);
#2172 = CARTESIAN_POINT('',(16.5,-8.5,-3.5));
#2173 = DIRECTION('',(0.,0.,1.));
#2174 = DIRECTION('',(1.,0.,0.));
#2175 = ADVANCED_FACE('',(#2176,#2187),#2197,.F.);
#2176 = FACE_BOUND('',#2177,.F.);
#2177 = EDGE_LOOP('',(#2178,#2179,#2180,#2181));
#2178 = ORIENTED_EDGE('',*,*,#1748,.T.);
#2179 = ORIENTED_EDGE('',*,*,#2162,.F.);
#2180 = ORIENTED_EDGE('',*,*,#1631,.T.);
#2181 = ORIENTED_EDGE('',*,*,#2182,.T.);
#2182 = EDGE_CURVE('',#1632,#1740,#2183,.T.);
#2183 = LINE('',#2184,#2185);
#2184 = CARTESIAN_POINT('',(19.5,8.5,-3.5));
#2185 = VECTOR('',#2186,1.);
#2186 = DIRECTION('',(0.,0.,1.));
#2187 = FACE_BOUND('',#2188,.F.);
#2188 = EDGE_LOOP('',(#2189,#2190,#2191,#2192,#2193,#2194,#2195,#2196));
#2189 = ORIENTED_EDGE('',*,*,#1921,.F.);
#2190 = ORIENTED_EDGE('',*,*,#2090,.T.);
#2191 = ORIENTED_EDGE('',*,*,#2074,.T.);
#2192 = ORIENTED_EDGE('',*,*,#2050,.T.);
#2193 = ORIENTED_EDGE('',*,*,#2025,.T.);
#2194 = ORIENTED_EDGE('',*,*,#1993,.F.);
#2195 = ORIENTED_EDGE('',*,*,#1970,.F.);
#2196 = ORIENTED_EDGE('',*,*,#1953,.T.);
#2197 = PLANE('',#2198);
#2198 = AXIS2_PLACEMENT_3D('',#2199,#2200,#2201);
#2199 = CARTESIAN_POINT('',(19.5,-11.5,-3.5));
#2200 = DIRECTION('',(1.,0.,0.));
#2201 = DIRECTION('',(0.,0.,1.));
#2202 = ADVANCED_FACE('',(#2203),#2214,.F.);
#2203 = FACE_BOUND('',#2204,.F.);
#2204 = EDGE_LOOP('',(#2205,#2206,#2207,#2213));
#2205 = ORIENTED_EDGE('',*,*,#2182,.F.);
#2206 = ORIENTED_EDGE('',*,*,#1639,.T.);
#2207 = ORIENTED_EDGE('',*,*,#2208,.T.);
#2208 = EDGE_CURVE('',#1640,#1732,#2209,.T.);
#2209 = LINE('',#2210,#2211);
#2210 = CARTESIAN_POINT('',(16.5,11.5,-3.5));
#2211 = VECTOR('',#2212,1.);
#2212 = DIRECTION('',(0.,0.,1.));
#2213 = ORIENTED_EDGE('',*,*,#1739,.F.);
#2214 = CYLINDRICAL_SURFACE('',#2215,3.);
#2215 = AXIS2_PLACEMENT_3D('',#2216,#2217,#2218);
#2216 = CARTESIAN_POINT('',(16.5,8.5,-3.5));
#2217 = DIRECTION('',(0.,0.,1.));
#2218 = DIRECTION('',(1.,0.,0.));
#2219 = ADVANCED_FACE('',(#2220),#2231,.F.);
#2220 = FACE_BOUND('',#2221,.F.);
#2221 = EDGE_LOOP('',(#2222,#2223,#2229,#2230));
#2222 = ORIENTED_EDGE('',*,*,#1648,.F.);
#2223 = ORIENTED_EDGE('',*,*,#2224,.T.);
#2224 = EDGE_CURVE('',#1649,#1723,#2225,.T.);
#2225 = LINE('',#2226,#2227);
#2226 = CARTESIAN_POINT('',(-16.5,11.5,-3.5));
#2227 = VECTOR('',#2228,1.);
#2228 = DIRECTION('',(0.,0.,1.));
#2229 = ORIENTED_EDGE('',*,*,#1731,.T.);
#2230 = ORIENTED_EDGE('',*,*,#2208,.F.);
#2231 = PLANE('',#2232);
#2232 = AXIS2_PLACEMENT_3D('',#2233,#2234,#2235);
#2233 = CARTESIAN_POINT('',(-19.5,11.5,-3.5));
#2234 = DIRECTION('',(0.,1.,0.));
#2235 = DIRECTION('',(0.,0.,1.));
#2236 = ADVANCED_FACE('',(#2237),#2248,.F.);
#2237 = FACE_BOUND('',#2238,.T.);
#2238 = EDGE_LOOP('',(#2239,#2245,#2246,#2247));
#2239 = ORIENTED_EDGE('',*,*,#2240,.F.);
#2240 = EDGE_CURVE('',#1657,#1715,#2241,.T.);
#2241 = LINE('',#2242,#2243);
#2242 = CARTESIAN_POINT('',(-19.5,8.5,-3.5));
#2243 = VECTOR('',#2244,1.);
#2244 = DIRECTION('',(0.,0.,1.));
#2245 = ORIENTED_EDGE('',*,*,#1656,.T.);
#2246 = ORIENTED_EDGE('',*,*,#2224,.T.);
#2247 = ORIENTED_EDGE('',*,*,#1722,.T.);
#2248 = CYLINDRICAL_SURFACE('',#2249,3.);
#2249 = AXIS2_PLACEMENT_3D('',#2250,#2251,#2252);
#2250 = CARTESIAN_POINT('',(-16.5,8.5,-3.5));
#2251 = DIRECTION('',(0.,0.,1.));
#2252 = DIRECTION('',(-1.,0.,0.));
#2253 = ADVANCED_FACE('',(#2254),#2260,.T.);
#2254 = FACE_BOUND('',#2255,.T.);
#2255 = EDGE_LOOP('',(#2256,#2257,#2258,#2259));
#2256 = ORIENTED_EDGE('',*,*,#2240,.T.);
#2257 = ORIENTED_EDGE('',*,*,#1714,.T.);
#2258 = ORIENTED_EDGE('',*,*,#1689,.T.);
#2259 = ORIENTED_EDGE('',*,*,#1665,.T.);
#2260 = PLANE('',#2261);
#2261 = AXIS2_PLACEMENT_3D('',#2262,#2263,#2264);
#2262 = CARTESIAN_POINT('',(-19.5,-11.5,-3.5));
#2263 = DIRECTION('',(1.,0.,0.));
#2264 = DIRECTION('',(0.,0.,1.));
#2265 = ADVANCED_FACE('',(#2266),#2274,.T.);
#2266 = FACE_BOUND('',#2267,.F.);
#2267 = EDGE_LOOP('',(#2268,#2269,#2270,#2271,#2272,#2273));
#2268 = ORIENTED_EDGE('',*,*,#1859,.T.);
#2269 = ORIENTED_EDGE('',*,*,#1058,.F.);
#2270 = ORIENTED_EDGE('',*,*,#47,.F.);
#2271 = ORIENTED_EDGE('',*,*,#498,.T.);
#2272 = ORIENTED_EDGE('',*,*,#1099,.T.);
#2273 = ORIENTED_EDGE('',*,*,#1051,.T.);
#2274 = CYLINDRICAL_SURFACE('',#2275,3.5);
#2275 = AXIS2_PLACEMENT_3D('',#2276,#2277,#2278);
#2276 = CARTESIAN_POINT('',(-17.5,9.5,-4.5));
#2277 = DIRECTION('',(0.,0.,1.));
#2278 = DIRECTION('',(-1.,0.,0.));
#2279 = ADVANCED_FACE('',(#2280),#2288,.T.);
#2280 = FACE_BOUND('',#2281,.T.);
#2281 = EDGE_LOOP('',(#2282,#2283,#2284,#2285,#2286,#2287));
#2282 = ORIENTED_EDGE('',*,*,#1009,.T.);
#2283 = ORIENTED_EDGE('',*,*,#1831,.F.);
#2284 = ORIENTED_EDGE('',*,*,#1002,.F.);
#2285 = ORIENTED_EDGE('',*,*,#31,.F.);
#2286 = ORIENTED_EDGE('',*,*,#447,.T.);
#2287 = ORIENTED_EDGE('',*,*,#962,.T.);
#2288 = CYLINDRICAL_SURFACE('',#2289,3.5);
#2289 = AXIS2_PLACEMENT_3D('',#2290,#2291,#2292);
#2290 = CARTESIAN_POINT('',(-17.5,-9.5,-4.5));
#2291 = DIRECTION('',(0.,0.,1.));
#2292 = DIRECTION('',(-1.,0.,0.));
#2293 = ADVANCED_FACE('',(#2294),#2302,.T.);
#2294 = FACE_BOUND('',#2295,.F.);
#2295 = EDGE_LOOP('',(#2296,#2297,#2298,#2299,#2300,#2301));
#2296 = ORIENTED_EDGE('',*,*,#2107,.T.);
#2297 = ORIENTED_EDGE('',*,*,#1285,.F.);
#2298 = ORIENTED_EDGE('',*,*,#1178,.F.);
#2299 = ORIENTED_EDGE('',*,*,#464,.T.);
#2300 = ORIENTED_EDGE('',*,*,#970,.T.);
#2301 = ORIENTED_EDGE('',*,*,#1277,.T.);
#2302 = CYLINDRICAL_SURFACE('',#2303,3.5);
#2303 = AXIS2_PLACEMENT_3D('',#2304,#2305,#2306);
#2304 = CARTESIAN_POINT('',(17.5,-9.5,-4.5));
#2305 = DIRECTION('',(0.,0.,1.));
#2306 = DIRECTION('',(1.,0.,0.));
#2307 = ADVANCED_FACE('',(#2308),#2316,.T.);
#2308 = FACE_BOUND('',#2309,.T.);
#2309 = EDGE_LOOP('',(#2310,#2311,#2312,#2313,#2314,#2315));
#2310 = ORIENTED_EDGE('',*,*,#1145,.T.);
#2311 = ORIENTED_EDGE('',*,*,#1885,.F.);
#2312 = ORIENTED_EDGE('',*,*,#1138,.F.);
#2313 = ORIENTED_EDGE('',*,*,#1185,.F.);
#2314 = ORIENTED_EDGE('',*,*,#481,.T.);
#2315 = ORIENTED_EDGE('',*,*,#1106,.T.);
#2316 = CYLINDRICAL_SURFACE('',#2317,3.5);
#2317 = AXIS2_PLACEMENT_3D('',#2318,#2319,#2320);
#2318 = CARTESIAN_POINT('',(17.5,9.5,-4.5));
#2319 = DIRECTION('',(0.,0.,1.));
#2320 = DIRECTION('',(1.,0.,0.));
#2321 = ( GEOMETRIC_REPRESENTATION_CONTEXT(3) 
GLOBAL_UNCERTAINTY_ASSIGNED_CONTEXT((#2325)) 
GLOBAL_UNIT_ASSIGNED_CONTEXT((#2322,#2323,#2324)) REPRESENTATION_CONTEXT
('Context #1','3D Context with UNIT and UNCERTAINTY') );
#2322 = ( LENGTH_UNIT() NAMED_UNIT(*) SI_UNIT(.MILLI.,.METRE.) );
#2323 = ( NAMED_UNIT(*) PLANE_ANGLE_UNIT() SI_UNIT($,.RADIAN.) );
#2324 = ( NAMED_UNIT(*) SI_UNIT($,.STERADIAN.) SOLID_ANGLE_UNIT() );
#2325 = UNCERTAINTY_MEASURE_WITH_UNIT(LENGTH_MEASURE(2.E-05),#2322,
  'distance_accuracy_value','confusion accuracy');
#2326 = PRODUCT_RELATED_PRODUCT_CATEGORY('part',$,(#7));
#2327 = MECHANICAL_DESIGN_GEOMETRIC_PRESENTATION_REPRESENTATION('',(
    #2328),#2321);
#2328 = STYLED_ITEM('color',(#2329),#15);
#2329 = PRESENTATION_STYLE_ASSIGNMENT((#2330,#2336));
#2330 = SURFACE_STYLE_USAGE(.BOTH.,#2331);
#2331 = SURFACE_SIDE_STYLE('',(#2332));
#2332 = SURFACE_STYLE_FILL_AREA(#2333);
#2333 = FILL_AREA_STYLE('',(#2334));
#2334 = FILL_AREA_STYLE_COLOUR('',#2335);
#2335 = COLOUR_RGB('',0.447058818107,0.474509808674,0.501960817233);
#2336 = CURVE_STYLE('',#2337,POSITIVE_LENGTH_MEASURE(0.1),#2338);
#2337 = DRAUGHTING_PRE_DEFINED_CURVE_FONT('continuous');
#2338 = COLOUR_RGB('',9.803921802644E-02,9.803921802644E-02,
  9.803921802644E-02);
ENDSEC;
END-ISO-10303-21;
