ISO-10303-21;
HEADER;
FILE_DESCRIPTION(('FreeCAD Model'),'2;1');
FILE_NAME('Open CASCADE Shape Model','2026-09-27T12:44:12',(''),(''),
  'Open CASCADE STEP processor 7.8','FreeCAD','Unknown');
FILE_SCHEMA(('AUTOMOTIVE_DESIGN { 1 0 10303 214 1 1 1 1 }'));
ENDSEC;
DATA;
#1 = APPLICATION_PROTOCOL_DEFINITION('international standard',
  'automotive_design',2000,#2);
#2 = APPLICATION_CONTEXT(
  'core data for automotive mechanical design processes');
#3 = SHAPE_DEFINITION_REPRESENTATION(#4,#10);
#4 = PRODUCT_DEFINITION_SHAPE('','',#5);
#5 = PRODUCT_DEFINITION('design','',#6,#9);
#6 = PRODUCT_DEFINITION_FORMATION('','',#7);
#7 = PRODUCT('Body','Body','',(#8));
#8 = PRODUCT_CONTEXT('',#2,'mechanical');
#9 = PRODUCT_DEFINITION_CONTEXT('part definition',#2,'design');
#10 = ADVANCED_BREP_SHAPE_REPRESENTATION('',(#11,#15),#988);
#11 = AXIS2_PLACEMENT_3D('',#12,#13,#14);
#12 = CARTESIAN_POINT('',(0.,0.,0.));
#13 = DIRECTION('',(0.,0.,1.));
#14 = DIRECTION('',(1.,0.,-0.));
#15 = MANIFOLD_SOLID_BREP('',#16);
#16 = CLOSED_SHELL('',(#17,#50,#76,#85,#110,#327,#360,#466,#583,#668,
    #777,#886,#979));
#17 = ADVANCED_FACE('',(#18),#45,.T.);
#18 = FACE_BOUND('',#19,.T.);
#19 = EDGE_LOOP('',(#20,#30,#37,#38));
#20 = ORIENTED_EDGE('',*,*,#21,.T.);
#21 = EDGE_CURVE('',#22,#24,#26,.T.);
#22 = VERTEX_POINT('',#23);
#23 = CARTESIAN_POINT('',(0.5,2.5E-14,-2.E-14));
#24 = VERTEX_POINT('',#25);
#25 = CARTESIAN_POINT('',(0.5,0.,-8.));
#26 = LINE('',#27,#28);
#27 = CARTESIAN_POINT('',(0.5,0.,0.));
#28 = VECTOR('',#29,1.);
#29 = DIRECTION('',(-0.,-0.,-1.));
#30 = ORIENTED_EDGE('',*,*,#31,.T.);
#31 = EDGE_CURVE('',#24,#24,#32,.T.);
#32 = CIRCLE('',#33,0.5);
#33 = AXIS2_PLACEMENT_3D('',#34,#35,#36);
#34 = CARTESIAN_POINT('',(0.,0.,-8.));
#35 = DIRECTION('',(0.,0.,1.));
#36 = DIRECTION('',(1.,0.,0.));
#37 = ORIENTED_EDGE('',*,*,#21,.F.);
#38 = ORIENTED_EDGE('',*,*,#39,.F.);
#39 = EDGE_CURVE('',#22,#22,#40,.T.);
#40 = CIRCLE('',#41,0.5);
#41 = AXIS2_PLACEMENT_3D('',#42,#43,#44);
#42 = CARTESIAN_POINT('',(0.,0.,0.));
#43 = DIRECTION('',(0.,0.,1.));
#44 = DIRECTION('',(1.,0.,0.));
#45 = CYLINDRICAL_SURFACE('',#46,0.5);
#46 = AXIS2_PLACEMENT_3D('',#47,#48,#49);
#47 = CARTESIAN_POINT('',(0.,0.,0.));
#48 = DIRECTION('',(0.,0.,1.));
#49 = DIRECTION('',(1.,0.,0.));
#50 = ADVANCED_FACE('',(#51),#71,.T.);
#51 = FACE_BOUND('',#52,.T.);
#52 = EDGE_LOOP('',(#53,#62,#63,#64));
#53 = ORIENTED_EDGE('',*,*,#54,.T.);
#54 = EDGE_CURVE('',#55,#22,#57,.T.);
#55 = VERTEX_POINT('',#56);
#56 = CARTESIAN_POINT('',(0.749999999999,0.,0.249999999999));
#57 = CIRCLE('',#58,0.249999999999);
#58 = AXIS2_PLACEMENT_3D('',#59,#60,#61);
#59 = CARTESIAN_POINT('',(0.749999999999,4.324E-14,-6.482E-14));
#60 = DIRECTION('',(0.,-1.,2.2E-16));
#61 = DIRECTION('',(1.,6.38E-32,2.9E-16));
#62 = ORIENTED_EDGE('',*,*,#39,.T.);
#63 = ORIENTED_EDGE('',*,*,#54,.F.);
#64 = ORIENTED_EDGE('',*,*,#65,.T.);
#65 = EDGE_CURVE('',#55,#55,#66,.T.);
#66 = CIRCLE('',#67,0.5);
#67 = AXIS2_PLACEMENT_3D('',#68,#69,#70);
#68 = CARTESIAN_POINT('',(0.749999999998,1.7E-16,0.749999999999));
#69 = DIRECTION('',(-1.,0.,0.));
#70 = DIRECTION('',(-0.,-2.2E-16,-1.));
#71 = TOROIDAL_SURFACE('',#72,0.749999999999,0.5);
#72 = AXIS2_PLACEMENT_3D('',#73,#74,#75);
#73 = CARTESIAN_POINT('',(0.749999999999,0.,-6.482E-14));
#74 = DIRECTION('',(0.,-1.,2.2E-16));
#75 = DIRECTION('',(1.,6.38E-32,2.9E-16));
#76 = ADVANCED_FACE('',(#77),#80,.F.);
#77 = FACE_BOUND('',#78,.F.);
#78 = EDGE_LOOP('',(#79));
#79 = ORIENTED_EDGE('',*,*,#31,.T.);
#80 = PLANE('',#81);
#81 = AXIS2_PLACEMENT_3D('',#82,#83,#84);
#82 = CARTESIAN_POINT('',(-3.E-17,4.E-17,-8.));
#83 = DIRECTION('',(0.,0.,1.));
#84 = DIRECTION('',(1.,0.,0.));
#85 = ADVANCED_FACE('',(#86),#105,.T.);
#86 = FACE_BOUND('',#87,.T.);
#87 = EDGE_LOOP('',(#88,#96,#97,#98));
#88 = ORIENTED_EDGE('',*,*,#89,.T.);
#89 = EDGE_CURVE('',#90,#55,#92,.T.);
#90 = VERTEX_POINT('',#91);
#91 = CARTESIAN_POINT('',(1.000000000002,0.,0.249999999999));
#92 = LINE('',#93,#94);
#93 = CARTESIAN_POINT('',(0.749999999998,1.8E-16,0.249999999999));
#94 = VECTOR('',#95,1.);
#95 = DIRECTION('',(-1.,0.,0.));
#96 = ORIENTED_EDGE('',*,*,#65,.F.);
#97 = ORIENTED_EDGE('',*,*,#89,.F.);
#98 = ORIENTED_EDGE('',*,*,#99,.T.);
#99 = EDGE_CURVE('',#90,#90,#100,.T.);
#100 = CIRCLE('',#101,0.5);
#101 = AXIS2_PLACEMENT_3D('',#102,#103,#104);
#102 = CARTESIAN_POINT('',(1.000000000002,1.7E-16,0.749999999999));
#103 = DIRECTION('',(-1.,0.,0.));
#104 = DIRECTION('',(-0.,-2.2E-16,-1.));
#105 = CYLINDRICAL_SURFACE('',#106,0.5);
#106 = AXIS2_PLACEMENT_3D('',#107,#108,#109);
#107 = CARTESIAN_POINT('',(0.749999999998,1.7E-16,0.749999999999));
#108 = DIRECTION('',(-1.,0.,0.));
#109 = DIRECTION('',(-0.,-2.2E-16,-1.));
#110 = ADVANCED_FACE('',(#111),#322,.T.);
#111 = FACE_BOUND('',#112,.T.);
#112 = EDGE_LOOP('',(#113,#114,#123,#142,#205,#224,#233,#260,#321));
#113 = ORIENTED_EDGE('',*,*,#99,.F.);
#114 = ORIENTED_EDGE('',*,*,#115,.T.);
#115 = EDGE_CURVE('',#90,#116,#118,.T.);
#116 = VERTEX_POINT('',#117);
#117 = CARTESIAN_POINT('',(1.749962568829,0.742506979338,0.249999999999)
  );
#118 = CIRCLE('',#119,0.75);
#119 = AXIS2_PLACEMENT_3D('',#120,#121,#122);
#120 = CARTESIAN_POINT('',(1.000000000002,0.75,0.249999999999));
#121 = DIRECTION('',(0.,0.,1.));
#122 = DIRECTION('',(1.,0.,0.));
#123 = ORIENTED_EDGE('',*,*,#124,.T.);
#124 = EDGE_CURVE('',#116,#125,#127,.T.);
#125 = VERTEX_POINT('',#126);
#126 = CARTESIAN_POINT('',(2.249962859233,0.740364101271,0.75000001132)
  );
#127 = B_SPLINE_CURVE_WITH_KNOTS('',7,(#128,#129,#130,#131,#132,#133,
    #134,#135,#136,#137,#138,#139,#140,#141),.UNSPECIFIED.,.F.,.F.,(8,6,
    8),(0.,0.15205146989,1.),.UNSPECIFIED.);
#128 = CARTESIAN_POINT('',(1.749962568829,0.742506979338,0.249999999999)
  );
#129 = CARTESIAN_POINT('',(1.767017008775,0.74243388821,0.249999999999)
  );
#130 = CARTESIAN_POINT('',(1.784071531652,0.742360796726,0.250678657161)
  );
#131 = CARTESIAN_POINT('',(1.80109354325,0.742287844578,0.252035957975)
  );
#132 = CARTESIAN_POINT('',(1.818050679538,0.742215170469,0.254069969138)
  );
#133 = CARTESIAN_POINT('',(1.834910806665,0.742142912118,0.256776837555)
  );
#134 = CARTESIAN_POINT('',(1.851642020959,0.742071206255,0.26015079034)
  );
#135 = CARTESIAN_POINT('',(1.960622407527,0.741604143166,0.28667696911)
  );
#136 = CARTESIAN_POINT('',(2.048163643718,0.741228962994,0.329706260448)
  );
#137 = CARTESIAN_POINT('',(2.125117085884,0.740899159499,0.391989924515)
  );
#138 = CARTESIAN_POINT('',(2.186540059765,0.740635915765,0.470156878397)
  );
#139 = CARTESIAN_POINT('',(2.228857502686,0.74045455363,0.559657477343)
  );
#140 = CARTESIAN_POINT('',(2.249962861386,0.740364101262,0.654891980581)
  );
#141 = CARTESIAN_POINT('',(2.249962859233,0.740364101271,0.75000001132)
  );
#142 = ORIENTED_EDGE('',*,*,#143,.T.);
#143 = EDGE_CURVE('',#125,#144,#146,.T.);
#144 = VERTEX_POINT('',#145);
#145 = CARTESIAN_POINT('',(1.864578788978,0.742015762455,1.236685988796)
  );
#146 = B_SPLINE_CURVE_WITH_KNOTS('',8,(#147,#148,#149,#150,#151,#152,
    #153,#154,#155,#156,#157,#158,#159,#160,#161,#162,#163,#164,#165,
    #166,#167,#168,#169,#170,#171,#172,#173,#174,#175,#176,#177,#178,
    #179,#180,#181,#182,#183,#184,#185,#186,#187,#188,#189,#190,#191,
    #192,#193,#194,#195,#196,#197,#198,#199,#200,#201,#202,#203,#204),
  .UNSPECIFIED.,.F.,.F.,(9,7,7,7,7,7,7,7,9),(0.,0.304731399383,
    0.356739448571,0.440752974887,0.546105077588,0.667457603648,
    0.787119526152,0.892471643922,1.),.UNSPECIFIED.);
#147 = CARTESIAN_POINT('',(2.249962859233,0.740364101271,0.75000001132)
  );
#148 = CARTESIAN_POINT('',(2.249962857201,0.74036410128,0.839737684139)
  );
#149 = CARTESIAN_POINT('',(2.231556439892,0.74044298665,0.929612524122)
  );
#150 = CARTESIAN_POINT('',(2.19464476978,0.740601180975,1.01500465365));
#151 = CARTESIAN_POINT('',(2.140643029962,0.740832619128,1.091462764302)
  );
#152 = CARTESIAN_POINT('',(2.072100718088,0.741126374591,1.155212017119)
  );
#153 = CARTESIAN_POINT('',(1.992417458652,0.74146787741,1.203220622164)
  );
#154 = CARTESIAN_POINT('',(1.905815080564,0.741839033868,1.233490414048)
  );
#155 = CARTESIAN_POINT('',(1.801707478328,0.742285213403,1.247551057856)
  );
#156 = CARTESIAN_POINT('',(1.786458089698,0.742350568526,1.249069613013)
  );
#157 = CARTESIAN_POINT('',(1.771158701994,0.742416137933,1.25005392479)
  );
#158 = CARTESIAN_POINT('',(1.755831160331,0.742481828,1.250502129255));
#159 = CARTESIAN_POINT('',(1.740497322338,0.742547545052,1.250413435033)
  );
#160 = CARTESIAN_POINT('',(1.725179058157,0.742613195359,1.249788123307)
  );
#161 = CARTESIAN_POINT('',(1.709898250445,0.742678685136,1.24862754782)
  );
#162 = CARTESIAN_POINT('',(1.670088135105,0.742849301483,1.244198604599)
  );
#163 = CARTESIAN_POINT('',(1.64565395,0.742954020381,1.24007260332));
#164 = CARTESIAN_POINT('',(1.621466291962,0.743057682725,1.234566350344)
  );
#165 = CARTESIAN_POINT('',(1.597616100534,0.743159898769,1.227697369977)
  );
#166 = CARTESIAN_POINT('',(1.574192649439,0.74326028591,1.219490315202)
  );
#167 = CARTESIAN_POINT('',(1.551282994121,0.743358471049,1.209976791357)
  );
#168 = CARTESIAN_POINT('',(1.52897141929,0.743454092962,1.199195179813)
  );
#169 = CARTESIAN_POINT('',(1.480211911571,0.7436630642,1.172136667864));
#170 = CARTESIAN_POINT('',(1.454151834052,0.743774751272,1.155159046778)
  );
#171 = CARTESIAN_POINT('',(1.429318716902,0.743881179895,1.136346327822)
  );
#172 = CARTESIAN_POINT('',(1.405862870247,0.743981705875,1.115802836697)
  );
#173 = CARTESIAN_POINT('',(1.383923550833,0.744075732393,1.09364725005)
  );
#174 = CARTESIAN_POINT('',(1.363627661509,0.744162715575,1.070011350161)
  );
#175 = CARTESIAN_POINT('',(1.345088450703,0.744242170065,1.045038779619)
  );
#176 = CARTESIAN_POINT('',(1.309186042824,0.74439603894,0.988756506205)
  );
#177 = CARTESIAN_POINT('',(1.292427840484,0.744467860467,0.957058462411)
  );
#178 = CARTESIAN_POINT('',(1.278280551999,0.74452849226,0.924025468553)
  );
#179 = CARTESIAN_POINT('',(1.266866662916,0.744577409377,0.889909424479)
  );
#180 = CARTESIAN_POINT('',(1.258279315722,0.744614212631,0.854974344406)
  );
#181 = CARTESIAN_POINT('',(1.252581389956,0.744638632538,0.819493119165)
  );
#182 = CARTESIAN_POINT('',(1.249804355903,0.744650534221,0.783744337339)
  );
#183 = CARTESIAN_POINT('',(1.250087088652,0.744649322498,0.712770471882)
  );
#184 = CARTESIAN_POINT('',(1.253066089816,0.744636555233,0.677542584273)
  );
#185 = CARTESIAN_POINT('',(1.258882986544,0.744611625447,0.642593677205)
  );
#186 = CARTESIAN_POINT('',(1.267505923093,0.744574669665,0.608190596523)
  );
#187 = CARTESIAN_POINT('',(1.278873382621,0.744525951534,0.574594646103)
  );
#188 = CARTESIAN_POINT('',(1.29289526707,0.744465857192,0.542058622847)
  );
#189 = CARTESIAN_POINT('',(1.309453768434,0.744394891534,0.510823796039)
  );
#190 = CARTESIAN_POINT('',(1.345088451365,0.744242170062,0.454961218212)
  );
#191 = CARTESIAN_POINT('',(1.363627669548,0.74416271554,0.429988638132)
  );
#192 = CARTESIAN_POINT('',(1.383923567593,0.744075732321,0.40635272976)
  );
#193 = CARTESIAN_POINT('',(1.405862896936,0.74398170576,0.384197135852)
  );
#194 = CARTESIAN_POINT('',(1.429318754575,0.743881179733,0.363653638832)
  );
#195 = CARTESIAN_POINT('',(1.454151883591,0.74377475106,0.344840915473)
  );
#196 = CARTESIAN_POINT('',(1.480211973667,0.743663063934,0.327863291575)
  );
#197 = CARTESIAN_POINT('',(1.535026306504,0.743428143207,0.297444738384)
  );
#198 = CARTESIAN_POINT('',(1.563826355242,0.743304713293,0.284083406597)
  );
#199 = CARTESIAN_POINT('',(1.593569011802,0.743177243595,0.272820078811)
  );
#200 = CARTESIAN_POINT('',(1.624075415106,0.743046500666,0.263731393615)
  );
#201 = CARTESIAN_POINT('',(1.655159868872,0.742913280355,0.256875550879)
  );
#202 = CARTESIAN_POINT('',(1.68663177146,0.742778399533,0.252291811974)
  );
#203 = CARTESIAN_POINT('',(1.718297545718,0.742642687826,0.249999999999)
  );
#204 = CARTESIAN_POINT('',(1.749962568829,0.742506979338,0.249999999999)
  );
#205 = ORIENTED_EDGE('',*,*,#206,.T.);
#206 = EDGE_CURVE('',#144,#207,#209,.T.);
#207 = VERTEX_POINT('',#208);
#208 = CARTESIAN_POINT('',(1.888406503795,0.749999967216,1.230461902451)
  );
#209 = B_SPLINE_CURVE_WITH_KNOTS('',4,(#210,#211,#212,#213,#214,#215,
    #216,#217,#218,#219,#220,#221,#222,#223),.UNSPECIFIED.,.F.,.F.,(5,3,
    3,3,5),(0.,4.716931963352E-02,6.376873695363E-02,0.262126264151,1.),
  .UNSPECIFIED.);
#210 = CARTESIAN_POINT('',(1.864578788978,0.742015762455,1.236685988796)
  );
#211 = CARTESIAN_POINT('',(1.864385306568,0.743734238075,1.236735289621)
  );
#212 = CARTESIAN_POINT('',(1.863978813181,0.747328199825,1.236836117058)
  );
#213 = CARTESIAN_POINT('',(1.863834292289,0.748456955331,1.236869213977)
  );
#214 = CARTESIAN_POINT('',(1.863662310149,0.750011280774,1.236909542838)
  );
#215 = CARTESIAN_POINT('',(1.863691609891,0.750045628621,1.236902744101)
  );
#216 = CARTESIAN_POINT('',(1.864034142574,0.7499972284,1.236822582327));
#217 = CARTESIAN_POINT('',(1.865434561391,0.750003811959,1.236494217672)
  );
#218 = CARTESIAN_POINT('',(1.866728134005,0.749996739427,1.236186074631)
  );
#219 = CARTESIAN_POINT('',(1.868018777196,0.749999772101,1.235873782978)
  );
#220 = CARTESIAN_POINT('',(1.874107790979,0.749999982151,1.234377617728)
  );
#221 = CARTESIAN_POINT('',(1.878891241227,0.749999910242,1.233135191444)
  );
#222 = CARTESIAN_POINT('',(1.88365788159,0.749999958619,1.231829836503)
  );
#223 = CARTESIAN_POINT('',(1.888406503795,0.749999967216,1.230461902451)
  );
#224 = ORIENTED_EDGE('',*,*,#225,.T.);
#225 = EDGE_CURVE('',#207,#226,#228,.T.);
#226 = VERTEX_POINT('',#227);
#227 = CARTESIAN_POINT('',(1.603768889005,0.749999976392,0.271861461313)
  );
#228 = CIRCLE('',#229,0.5);
#229 = AXIS2_PLACEMENT_3D('',#230,#231,#232);
#230 = CARTESIAN_POINT('',(1.750000000002,0.75,0.749999999999));
#231 = DIRECTION('',(-2.867E-14,-1.,0.));
#232 = DIRECTION('',(1.,-2.867E-14,0.));
#233 = ORIENTED_EDGE('',*,*,#234,.F.);
#234 = EDGE_CURVE('',#235,#226,#237,.T.);
#235 = VERTEX_POINT('',#236);
#236 = CARTESIAN_POINT('',(1.638705744022,0.74298379868,0.262534960592)
  );
#237 = B_SPLINE_CURVE_WITH_KNOTS('',5,(#238,#239,#240,#241,#242,#243,
    #244,#245,#246,#247,#248,#249,#250,#251,#252,#253,#254,#255,#256,
    #257,#258,#259),.UNSPECIFIED.,.F.,.F.,(6,4,4,4,4,6),(0.,
    0.111266050408,0.144103280942,0.158946694093,0.330219365968,1.),
  .UNSPECIFIED.);
#238 = CARTESIAN_POINT('',(1.638705744022,0.74298379868,0.262534960592)
  );
#239 = CARTESIAN_POINT('',(1.638331848628,0.744110714795,0.262623115973)
  );
#240 = CARTESIAN_POINT('',(1.637956017962,0.745236715122,0.262711549762)
  );
#241 = CARTESIAN_POINT('',(1.637577852324,0.746361662231,0.262800353829)
  );
#242 = CARTESIAN_POINT('',(1.637198253308,0.747485842117,0.262889316319)
  );
#243 = CARTESIAN_POINT('',(1.636702949938,0.74894019611,0.263005161839)
  );
#244 = CARTESIAN_POINT('',(1.636578084481,0.749167905492,0.263034376454)
  );
#245 = CARTESIAN_POINT('',(1.636514389234,0.749549450568,0.263049232284)
  );
#246 = CARTESIAN_POINT('',(1.63645219295,0.749980057374,0.263063697004)
  );
#247 = CARTESIAN_POINT('',(1.636084525493,0.749998333283,0.263149634405)
  );
#248 = CARTESIAN_POINT('',(1.635971272418,0.749997420388,0.263176141039)
  );
#249 = CARTESIAN_POINT('',(1.635858040223,0.749996798769,0.263202677523)
  );
#250 = CARTESIAN_POINT('',(1.635744473399,0.749998261638,0.263229326871)
  );
#251 = CARTESIAN_POINT('',(1.634322238405,0.750001272879,0.263563505666)
  );
#252 = CARTESIAN_POINT('',(1.633015302567,0.749999657515,0.26387523224)
  );
#253 = CARTESIAN_POINT('',(1.631709209928,0.74999880246,0.264191399155)
  );
#254 = CARTESIAN_POINT('',(1.630403750105,0.749999834681,0.264512056143)
  );
#255 = CARTESIAN_POINT('',(1.623999233895,0.749999965634,0.26610803341)
  );
#256 = CARTESIAN_POINT('',(1.618914824838,0.749999954858,0.267446228832)
  );
#257 = CARTESIAN_POINT('',(1.613847494866,0.749999946205,0.26885139766)
  );
#258 = CARTESIAN_POINT('',(1.608798445746,0.749999971337,0.270323250919)
  );
#259 = CARTESIAN_POINT('',(1.603768889005,0.749999976392,0.271861461313)
  );
#260 = ORIENTED_EDGE('',*,*,#261,.T.);
#261 = EDGE_CURVE('',#235,#116,#262,.T.);
#262 = B_SPLINE_CURVE_WITH_KNOTS('',8,(#263,#264,#265,#266,#267,#268,
    #269,#270,#271,#272,#273,#274,#275,#276,#277,#278,#279,#280,#281,
    #282,#283,#284,#285,#286,#287,#288,#289,#290,#291,#292,#293,#294,
    #295,#296,#297,#298,#299,#300,#301,#302,#303,#304,#305,#306,#307,
    #308,#309,#310,#311,#312,#313,#314,#315,#316,#317,#318,#319,#320),
  .UNSPECIFIED.,.F.,.F.,(9,7,7,7,7,7,7,7,9),(0.,0.304731399383,
    0.356739448571,0.440752974887,0.546105077588,0.667457603648,
    0.787119526152,0.892471643922,1.),.UNSPECIFIED.);
#263 = CARTESIAN_POINT('',(2.249962859233,0.740364101271,0.75000001132)
  );
#264 = CARTESIAN_POINT('',(2.249962857201,0.74036410128,0.839737684139)
  );
#265 = CARTESIAN_POINT('',(2.231556439892,0.74044298665,0.929612524122)
  );
#266 = CARTESIAN_POINT('',(2.19464476978,0.740601180975,1.01500465365));
#267 = CARTESIAN_POINT('',(2.140643029962,0.740832619128,1.091462764302)
  );
#268 = CARTESIAN_POINT('',(2.072100718088,0.741126374591,1.155212017119)
  );
#269 = CARTESIAN_POINT('',(1.992417458652,0.74146787741,1.203220622164)
  );
#270 = CARTESIAN_POINT('',(1.905815080564,0.741839033868,1.233490414048)
  );
#271 = CARTESIAN_POINT('',(1.801707478328,0.742285213403,1.247551057856)
  );
#272 = CARTESIAN_POINT('',(1.786458089698,0.742350568526,1.249069613013)
  );
#273 = CARTESIAN_POINT('',(1.771158701994,0.742416137933,1.25005392479)
  );
#274 = CARTESIAN_POINT('',(1.755831160331,0.742481828,1.250502129255));
#275 = CARTESIAN_POINT('',(1.740497322338,0.742547545052,1.250413435033)
  );
#276 = CARTESIAN_POINT('',(1.725179058157,0.742613195359,1.249788123307)
  );
#277 = CARTESIAN_POINT('',(1.709898250445,0.742678685136,1.24862754782)
  );
#278 = CARTESIAN_POINT('',(1.670088135105,0.742849301483,1.244198604599)
  );
#279 = CARTESIAN_POINT('',(1.64565395,0.742954020381,1.24007260332));
#280 = CARTESIAN_POINT('',(1.621466291962,0.743057682725,1.234566350344)
  );
#281 = CARTESIAN_POINT('',(1.597616100534,0.743159898769,1.227697369977)
  );
#282 = CARTESIAN_POINT('',(1.574192649439,0.74326028591,1.219490315202)
  );
#283 = CARTESIAN_POINT('',(1.551282994121,0.743358471049,1.209976791357)
  );
#284 = CARTESIAN_POINT('',(1.52897141929,0.743454092962,1.199195179813)
  );
#285 = CARTESIAN_POINT('',(1.480211911571,0.7436630642,1.172136667864));
#286 = CARTESIAN_POINT('',(1.454151834052,0.743774751272,1.155159046778)
  );
#287 = CARTESIAN_POINT('',(1.429318716902,0.743881179895,1.136346327822)
  );
#288 = CARTESIAN_POINT('',(1.405862870247,0.743981705875,1.115802836697)
  );
#289 = CARTESIAN_POINT('',(1.383923550833,0.744075732393,1.09364725005)
  );
#290 = CARTESIAN_POINT('',(1.363627661509,0.744162715575,1.070011350161)
  );
#291 = CARTESIAN_POINT('',(1.345088450703,0.744242170065,1.045038779619)
  );
#292 = CARTESIAN_POINT('',(1.309186042824,0.74439603894,0.988756506205)
  );
#293 = CARTESIAN_POINT('',(1.292427840484,0.744467860467,0.957058462411)
  );
#294 = CARTESIAN_POINT('',(1.278280551999,0.74452849226,0.924025468553)
  );
#295 = CARTESIAN_POINT('',(1.266866662916,0.744577409377,0.889909424479)
  );
#296 = CARTESIAN_POINT('',(1.258279315722,0.744614212631,0.854974344406)
  );
#297 = CARTESIAN_POINT('',(1.252581389956,0.744638632538,0.819493119165)
  );
#298 = CARTESIAN_POINT('',(1.249804355903,0.744650534221,0.783744337339)
  );
#299 = CARTESIAN_POINT('',(1.250087088652,0.744649322498,0.712770471882)
  );
#300 = CARTESIAN_POINT('',(1.253066089816,0.744636555233,0.677542584273)
  );
#301 = CARTESIAN_POINT('',(1.258882986544,0.744611625447,0.642593677205)
  );
#302 = CARTESIAN_POINT('',(1.267505923093,0.744574669665,0.608190596523)
  );
#303 = CARTESIAN_POINT('',(1.278873382621,0.744525951534,0.574594646103)
  );
#304 = CARTESIAN_POINT('',(1.29289526707,0.744465857192,0.542058622847)
  );
#305 = CARTESIAN_POINT('',(1.309453768434,0.744394891534,0.510823796039)
  );
#306 = CARTESIAN_POINT('',(1.345088451365,0.744242170062,0.454961218212)
  );
#307 = CARTESIAN_POINT('',(1.363627669548,0.74416271554,0.429988638132)
  );
#308 = CARTESIAN_POINT('',(1.383923567593,0.744075732321,0.40635272976)
  );
#309 = CARTESIAN_POINT('',(1.405862896936,0.74398170576,0.384197135852)
  );
#310 = CARTESIAN_POINT('',(1.429318754575,0.743881179733,0.363653638832)
  );
#311 = CARTESIAN_POINT('',(1.454151883591,0.74377475106,0.344840915473)
  );
#312 = CARTESIAN_POINT('',(1.480211973667,0.743663063934,0.327863291575)
  );
#313 = CARTESIAN_POINT('',(1.535026306504,0.743428143207,0.297444738384)
  );
#314 = CARTESIAN_POINT('',(1.563826355242,0.743304713293,0.284083406597)
  );
#315 = CARTESIAN_POINT('',(1.593569011802,0.743177243595,0.272820078811)
  );
#316 = CARTESIAN_POINT('',(1.624075415106,0.743046500666,0.263731393615)
  );
#317 = CARTESIAN_POINT('',(1.655159868872,0.742913280355,0.256875550879)
  );
#318 = CARTESIAN_POINT('',(1.68663177146,0.742778399533,0.252291811974)
  );
#319 = CARTESIAN_POINT('',(1.718297545718,0.742642687826,0.249999999999)
  );
#320 = CARTESIAN_POINT('',(1.749962568829,0.742506979338,0.249999999999)
  );
#321 = ORIENTED_EDGE('',*,*,#115,.F.);
#322 = TOROIDAL_SURFACE('',#323,0.75,0.5);
#323 = AXIS2_PLACEMENT_3D('',#324,#325,#326);
#324 = CARTESIAN_POINT('',(1.000000000002,0.75,0.749999999999));
#325 = DIRECTION('',(0.,0.,1.));
#326 = DIRECTION('',(1.,0.,0.));
#327 = ADVANCED_FACE('',(#328),#355,.F.);
#328 = FACE_BOUND('',#329,.F.);
#329 = EDGE_LOOP('',(#330,#342,#352,#353,#354));
#330 = ORIENTED_EDGE('',*,*,#331,.T.);
#331 = EDGE_CURVE('',#144,#332,#334,.T.);
#332 = VERTEX_POINT('',#333);
#333 = CARTESIAN_POINT('',(1.753198214223,0.742493112159,0.249249695826)
  );
#334 = ( BOUNDED_CURVE() B_SPLINE_CURVE(6,(#335,#336,#337,#338,#339,#340
,#341),.UNSPECIFIED.,.T.,.F.) B_SPLINE_CURVE_WITH_KNOTS((7,7),(
1.570796326795,7.853981633974),.PIECEWISE_BEZIER_KNOTS.) CURVE() 
GEOMETRIC_REPRESENTATION_ITEM() RATIONAL_B_SPLINE_CURVE((1.669078461068,
    1.03672962321,1.038346699848,0.853534330196,1.038346699848,
1.03672962321,1.669078461068)) REPRESENTATION_ITEM('') );
#335 = CARTESIAN_POINT('',(1.753198214223,0.742493112159,0.249249695826)
  );
#336 = CARTESIAN_POINT('',(0.922434306009,0.746053561606,0.249249695826)
  );
#337 = CARTESIAN_POINT('',(0.803150747645,0.746564781551,1.276523791101)
  );
#338 = CARTESIAN_POINT('',(1.753198214222,0.742493112159,2.12380815633)
  );
#339 = CARTESIAN_POINT('',(2.703245680799,0.738421442767,1.2765237911));
#340 = CARTESIAN_POINT('',(2.583962122438,0.738932662712,0.249249695828)
  );
#341 = CARTESIAN_POINT('',(1.753198214223,0.742493112159,0.249249695826)
  );
#342 = ORIENTED_EDGE('',*,*,#343,.T.);
#343 = EDGE_CURVE('',#332,#235,#344,.T.);
#344 = ( BOUNDED_CURVE() B_SPLINE_CURVE(6,(#345,#346,#347,#348,#349,#350
,#351),.UNSPECIFIED.,.T.,.F.) B_SPLINE_CURVE_WITH_KNOTS((7,7),(
1.570796326795,7.853981633974),.PIECEWISE_BEZIER_KNOTS.) CURVE() 
GEOMETRIC_REPRESENTATION_ITEM() RATIONAL_B_SPLINE_CURVE((1.669078461068,
    1.03672962321,1.038346699848,0.853534330196,1.038346699848,
1.03672962321,1.669078461068)) REPRESENTATION_ITEM('') );
#345 = CARTESIAN_POINT('',(1.753198214223,0.742493112159,0.249249695826)
  );
#346 = CARTESIAN_POINT('',(0.922434306009,0.746053561606,0.249249695826)
  );
#347 = CARTESIAN_POINT('',(0.803150747645,0.746564781551,1.276523791101)
  );
#348 = CARTESIAN_POINT('',(1.753198214222,0.742493112159,2.12380815633)
  );
#349 = CARTESIAN_POINT('',(2.703245680799,0.738421442767,1.2765237911));
#350 = CARTESIAN_POINT('',(2.583962122438,0.738932662712,0.249249695828)
  );
#351 = CARTESIAN_POINT('',(1.753198214223,0.742493112159,0.249249695826)
  );
#352 = ORIENTED_EDGE('',*,*,#261,.T.);
#353 = ORIENTED_EDGE('',*,*,#124,.T.);
#354 = ORIENTED_EDGE('',*,*,#143,.T.);
#355 = PLANE('',#356);
#356 = AXIS2_PLACEMENT_3D('',#357,#358,#359);
#357 = CARTESIAN_POINT('',(1.753198214222,0.742493112159,0.749249695825)
  );
#358 = DIRECTION('',(4.285714284843E-03,0.999990816284,4.E-16));
#359 = DIRECTION('',(0.999990816284,-4.285714284843E-03,1.25E-15));
#360 = ADVANCED_FACE('',(#361),#388,.T.);
#361 = FACE_BOUND('',#362,.T.);
#362 = EDGE_LOOP('',(#363,#379,#380,#381));
#363 = ORIENTED_EDGE('',*,*,#364,.F.);
#364 = EDGE_CURVE('',#332,#365,#367,.T.);
#365 = VERTEX_POINT('',#366);
#366 = CARTESIAN_POINT('',(1.750000000002,0.75,0.249999999999));
#367 = ( BOUNDED_CURVE() B_SPLINE_CURVE(10,(#368,#369,#370,#371,#372,
    #373,#374,#375,#376,#377,#378),.UNSPECIFIED.,.F.,.F.) 
B_SPLINE_CURVE_WITH_KNOTS((11,11),(0.,6.289200474175),
.PIECEWISE_BEZIER_KNOTS.) CURVE() GEOMETRIC_REPRESENTATION_ITEM() 
RATIONAL_B_SPLINE_CURVE((1.669078461068,1.669078461068,1.669078461068,
    1.669078461069,1.669078461068,1.669078461069,1.669078461068,
    1.669078461069,1.669078461068,1.669078461068,1.669078461068)) 
REPRESENTATION_ITEM('') );
#368 = CARTESIAN_POINT('',(1.753198214223,0.742493112159,0.249249695826)
  );
#369 = CARTESIAN_POINT('',(1.286676031609,1.8440600472,0.359249695818));
#370 = CARTESIAN_POINT('',(5.090527948596E-02,2.62088897904,
    0.469249695821));
#371 = CARTESIAN_POINT('',(-1.6967191201,2.4602137778,0.579249696463));
#372 = CARTESIAN_POINT('',(-3.163239993054,1.027338527975,0.689249693762
    ));
#373 = CARTESIAN_POINT('',(-3.244503584713,-1.374072544773,
    0.799249699509));
#374 = CARTESIAN_POINT('',(-1.46326369353,-2.986698941496,0.909249691752
    ));
#375 = CARTESIAN_POINT('',(0.586286130222,-2.930490784979,1.01924969888)
  );
#376 = CARTESIAN_POINT('',(1.917744449739,-1.787150480812,1.129249694375
    ));
#377 = CARTESIAN_POINT('',(2.219720377779,-0.359073827397,1.239249696248
    ));
#378 = CARTESIAN_POINT('',(1.753198214798,0.74249311212,1.349249695813)
  );
#379 = ORIENTED_EDGE('',*,*,#343,.T.);
#380 = ORIENTED_EDGE('',*,*,#234,.T.);
#381 = ORIENTED_EDGE('',*,*,#382,.T.);
#382 = EDGE_CURVE('',#226,#365,#383,.T.);
#383 = CIRCLE('',#384,0.5);
#384 = AXIS2_PLACEMENT_3D('',#385,#386,#387);
#385 = CARTESIAN_POINT('',(1.750000000002,0.75,0.749999999999));
#386 = DIRECTION('',(-2.867E-14,-1.,0.));
#387 = DIRECTION('',(1.,-2.867E-14,0.));
#388 = ( BOUNDED_SURFACE() B_SPLINE_SURFACE(6,10,(
    (#389,#390,#391,#392,#393,#394,#395,#396,#397,#398,#399)
    ,(#400,#401,#402,#403,#404,#405,#406,#407,#408,#409,#410)
    ,(#411,#412,#413,#414,#415,#416,#417,#418,#419,#420,#421)
    ,(#422,#423,#424,#425,#426,#427,#428,#429,#430,#431,#432)
    ,(#433,#434,#435,#436,#437,#438,#439,#440,#441,#442,#443)
    ,(#444,#445,#446,#447,#448,#449,#450,#451,#452,#453,#454)
    ,(#455,#456,#457,#458,#459,#460,#461,#462,#463,#464,#465
)),.UNSPECIFIED.,.T.,.F.,.F.) B_SPLINE_SURFACE_WITH_KNOTS((7,7),(11,11),
  (1.570796326795,7.853981633974),(0.,6.289200474175),
.PIECEWISE_BEZIER_KNOTS.) GEOMETRIC_REPRESENTATION_ITEM() 
RATIONAL_B_SPLINE_SURFACE((
    (1.669078461068,1.669078461068,1.669078461068,1.669078461069
      ,1.669078461068,1.669078461069,1.669078461068,1.669078461069
      ,1.669078461068,1.669078461068,1.669078461068)
    ,(1.03672962321,1.03672962321,1.03672962321,1.03672962321
      ,1.036729623209,1.03672962321,1.036729623209,1.03672962321
      ,1.03672962321,1.03672962321,1.03672962321)
    ,(1.038346699848,1.038346699848,1.038346699847,1.038346699848
      ,1.038346699847,1.038346699848,1.038346699847,1.038346699848
      ,1.038346699847,1.038346699848,1.038346699848)
    ,(0.853534330196,0.853534330196,0.853534330196,0.853534330196
      ,0.853534330196,0.853534330196,0.853534330196,0.853534330196
      ,0.853534330196,0.853534330196,0.853534330196)
    ,(1.038346699848,1.038346699848,1.038346699847,1.038346699848
      ,1.038346699847,1.038346699848,1.038346699847,1.038346699848
      ,1.038346699847,1.038346699848,1.038346699848)
    ,(1.03672962321,1.03672962321,1.03672962321,1.03672962321
      ,1.036729623209,1.03672962321,1.036729623209,1.03672962321
      ,1.03672962321,1.03672962321,1.03672962321)
    ,(1.669078461068,1.669078461068,1.669078461068,1.669078461069
      ,1.669078461068,1.669078461069,1.669078461068,1.669078461069
      ,1.669078461068,1.669078461068,1.669078461068
))) REPRESENTATION_ITEM('') SURFACE() );
#389 = CARTESIAN_POINT('',(1.753198214223,0.742493112159,0.249249695826)
  );
#390 = CARTESIAN_POINT('',(1.286676031609,1.8440600472,0.359249695818));
#391 = CARTESIAN_POINT('',(5.090527948596E-02,2.62088897904,
    0.469249695821));
#392 = CARTESIAN_POINT('',(-1.6967191201,2.4602137778,0.579249696463));
#393 = CARTESIAN_POINT('',(-3.163239993054,1.027338527975,0.689249693762
    ));
#394 = CARTESIAN_POINT('',(-3.244503584713,-1.374072544773,
    0.799249699509));
#395 = CARTESIAN_POINT('',(-1.46326369353,-2.986698941496,0.909249691752
    ));
#396 = CARTESIAN_POINT('',(0.586286130222,-2.930490784979,1.01924969888)
  );
#397 = CARTESIAN_POINT('',(1.917744449739,-1.787150480812,1.129249694375
    ));
#398 = CARTESIAN_POINT('',(2.219720377779,-0.359073827397,1.239249696248
    ));
#399 = CARTESIAN_POINT('',(1.753198214798,0.74249311212,1.349249695813)
  );
#400 = CARTESIAN_POINT('',(0.922434306009,0.746053561606,0.249249695826)
  );
#401 = CARTESIAN_POINT('',(0.453675026994,1.325636138505,0.359249695925)
  );
#402 = CARTESIAN_POINT('',(-0.419999172746,1.578499460057,0.469249695437
    ));
#403 = CARTESIAN_POINT('',(-1.439100164216,1.181876774473,0.579249697245
    ));
#404 = CARTESIAN_POINT('',(-2.071167033195,7.160232692081E-02,
    0.689249692669));
#405 = CARTESIAN_POINT('',(-1.707075398189,-1.380661583477,
    0.799249700587));
#406 = CARTESIAN_POINT('',(-0.363038901102,-2.040358388092,
    0.909249691017));
#407 = CARTESIAN_POINT('',(0.854852696028,-1.65440888343,1.019249699192)
  );
#408 = CARTESIAN_POINT('',(1.455791981403,-0.740762966775,1.129249694312
    ));
#409 = CARTESIAN_POINT('',(1.391193565861,0.166470980165,1.239249696248)
  );
#410 = CARTESIAN_POINT('',(0.922434306584,0.746053561567,1.349249695812)
  );
#411 = CARTESIAN_POINT('',(0.803150747645,0.746564781551,1.276523791101)
  );
#412 = CARTESIAN_POINT('',(0.33407025967,1.25119928833,1.386523791075));
#413 = CARTESIAN_POINT('',(-0.487613037765,1.428830065659,1.496523791167
    ));
#414 = CARTESIAN_POINT('',(-1.402110466423,0.99832933697,1.606523791504)
  );
#415 = CARTESIAN_POINT('',(-1.914363942686,-6.562512581186E-02,
    1.716523789533));
#416 = CARTESIAN_POINT('',(-1.486326875547,-1.38160765725,1.826523794104
    ));
#417 = CARTESIAN_POINT('',(-0.205065346594,-1.904479990535,
    1.936523787656));
#418 = CARTESIAN_POINT('',(0.893414284807,-1.471185240111,2.046523793759
    ));
#419 = CARTESIAN_POINT('',(1.389463468583,-0.590519528354,2.156523789808
    ));
#420 = CARTESIAN_POINT('',(1.27223121657,0.241930270232,2.266523791491)
  );
#421 = CARTESIAN_POINT('',(0.803150748221,0.746564781512,2.376523791087)
  );
#422 = CARTESIAN_POINT('',(1.753198214222,0.742493112159,2.12380815633)
  );
#423 = CARTESIAN_POINT('',(1.286676031646,1.844060047201,2.233808156311)
  );
#424 = CARTESIAN_POINT('',(5.090527935135E-02,2.620888979036,
    2.343808156421));
#425 = CARTESIAN_POINT('',(-1.696719119837,2.460213777811,2.4538081567)
  );
#426 = CARTESIAN_POINT('',(-3.163239993373,1.027338527956,2.563808154782
    ));
#427 = CARTESIAN_POINT('',(-3.244503584556,-1.374072544751,
    2.673808159303));
#428 = CARTESIAN_POINT('',(-1.463263693468,-2.986698941514,2.78380815298
    ));
#429 = CARTESIAN_POINT('',(0.586286130091,-2.930490784968,2.893808158843
    ));
#430 = CARTESIAN_POINT('',(1.917744449803,-1.787150480818,3.003808155153
    ));
#431 = CARTESIAN_POINT('',(2.219720377761,-0.359073827396,3.113808156676
    ));
#432 = CARTESIAN_POINT('',(1.753198214797,0.74249311212,3.223808156316)
  );
#433 = CARTESIAN_POINT('',(2.703245680799,0.738421442767,1.2765237911));
#434 = CARTESIAN_POINT('',(2.239281803544,2.436920806065,1.386523791075)
  );
#435 = CARTESIAN_POINT('',(0.589423596748,3.812947892437,1.496523791188)
  );
#436 = CARTESIAN_POINT('',(-1.991327773832,3.922098218596,1.606523791443
    ));
#437 = CARTESIAN_POINT('',(-4.412116043314,2.120302181813,1.716523789654
    ));
#438 = CARTESIAN_POINT('',(-5.002680294005,-1.366537432353,
    1.826523793874));
#439 = CARTESIAN_POINT('',(-2.721462040446,-4.068917892411,
    1.936523787983));
#440 = CARTESIAN_POINT('',(0.279157975765,-4.389796329873,2.046523793448
    ));
#441 = CARTESIAN_POINT('',(2.446025430733,-2.983781433262,2.156523789996
    ));
#442 = CARTESIAN_POINT('',(3.167209539056,-0.960077925028,2.266523791432
    ));
#443 = CARTESIAN_POINT('',(2.703245681375,0.738421442728,2.376523791087)
  );
#444 = CARTESIAN_POINT('',(2.583962122438,0.738932662712,0.249249695828)
  );
#445 = CARTESIAN_POINT('',(2.119677036175,2.362483955888,0.359249695822)
  );
#446 = CARTESIAN_POINT('',(0.521809731957,3.663278498048,0.469249695897)
  );
#447 = CARTESIAN_POINT('',(-1.954338076613,3.738550781071,0.579249696171
    ));
#448 = CARTESIAN_POINT('',(-4.255312951833,1.983074729117,0.689249694371
    ));
#449 = CARTESIAN_POINT('',(-4.781931772586,-1.367483506168,
    0.799249698721));
#450 = CARTESIAN_POINT('',(-2.563488484729,-3.933039494816,0.9092496925)
  );
#451 = CARTESIAN_POINT('',(0.317719563615,-4.206572686581,1.019249698342
    ));
#452 = CARTESIAN_POINT('',(2.37969691843,-2.833537994826,1.129249694653)
  );
#453 = CARTESIAN_POINT('',(3.048247189599,-0.884618634965,1.239249696171
    ));
#454 = CARTESIAN_POINT('',(2.583962123013,0.738932662673,1.349249695814)
  );
#455 = CARTESIAN_POINT('',(1.753198214223,0.742493112159,0.249249695826)
  );
#456 = CARTESIAN_POINT('',(1.286676031609,1.8440600472,0.359249695818));
#457 = CARTESIAN_POINT('',(5.090527948596E-02,2.62088897904,
    0.469249695821));
#458 = CARTESIAN_POINT('',(-1.6967191201,2.4602137778,0.579249696463));
#459 = CARTESIAN_POINT('',(-3.163239993054,1.027338527975,0.689249693762
    ));
#460 = CARTESIAN_POINT('',(-3.244503584713,-1.374072544773,
    0.799249699509));
#461 = CARTESIAN_POINT('',(-1.46326369353,-2.986698941496,0.909249691752
    ));
#462 = CARTESIAN_POINT('',(0.586286130222,-2.930490784979,1.01924969888)
  );
#463 = CARTESIAN_POINT('',(1.917744449739,-1.787150480812,1.129249694375
    ));
#464 = CARTESIAN_POINT('',(2.219720377779,-0.359073827397,1.239249696248
    ));
#465 = CARTESIAN_POINT('',(1.753198214798,0.74249311212,1.349249695813)
  );
#466 = ADVANCED_FACE('',(#467),#505,.T.);
#467 = FACE_BOUND('',#468,.T.);
#468 = EDGE_LOOP('',(#469,#476,#492,#502,#503,#504));
#469 = ORIENTED_EDGE('',*,*,#470,.F.);
#470 = EDGE_CURVE('',#365,#207,#471,.T.);
#471 = CIRCLE('',#472,0.5);
#472 = AXIS2_PLACEMENT_3D('',#473,#474,#475);
#473 = CARTESIAN_POINT('',(1.750000000002,0.75,0.749999999999));
#474 = DIRECTION('',(-2.867E-14,-1.,0.));
#475 = DIRECTION('',(1.,-2.867E-14,0.));
#476 = ORIENTED_EDGE('',*,*,#477,.T.);
#477 = EDGE_CURVE('',#365,#478,#480,.T.);
#478 = VERTEX_POINT('',#479);
#479 = CARTESIAN_POINT('',(1.753198214799,0.74249311212,1.349249695814)
  );
#480 = ( BOUNDED_CURVE() B_SPLINE_CURVE(10,(#481,#482,#483,#484,#485,
    #486,#487,#488,#489,#490,#491),.UNSPECIFIED.,.F.,.F.) 
B_SPLINE_CURVE_WITH_KNOTS((11,11),(0.,6.289200474175),
.PIECEWISE_BEZIER_KNOTS.) CURVE() GEOMETRIC_REPRESENTATION_ITEM() 
RATIONAL_B_SPLINE_CURVE((1.669078461068,1.669078461068,1.669078461068,
    1.669078461069,1.669078461068,1.669078461069,1.669078461068,
    1.669078461069,1.669078461068,1.669078461068,1.669078461068)) 
REPRESENTATION_ITEM('') );
#481 = CARTESIAN_POINT('',(1.753198214223,0.742493112159,0.249249695826)
  );
#482 = CARTESIAN_POINT('',(1.286676031609,1.8440600472,0.359249695818));
#483 = CARTESIAN_POINT('',(5.090527948596E-02,2.62088897904,
    0.469249695821));
#484 = CARTESIAN_POINT('',(-1.6967191201,2.4602137778,0.579249696463));
#485 = CARTESIAN_POINT('',(-3.163239993054,1.027338527975,0.689249693762
    ));
#486 = CARTESIAN_POINT('',(-3.244503584713,-1.374072544773,
    0.799249699509));
#487 = CARTESIAN_POINT('',(-1.46326369353,-2.986698941496,0.909249691752
    ));
#488 = CARTESIAN_POINT('',(0.586286130222,-2.930490784979,1.01924969888)
  );
#489 = CARTESIAN_POINT('',(1.917744449739,-1.787150480812,1.129249694375
    ));
#490 = CARTESIAN_POINT('',(2.219720377779,-0.359073827397,1.239249696248
    ));
#491 = CARTESIAN_POINT('',(1.753198214798,0.74249311212,1.349249695813)
  );
#492 = ORIENTED_EDGE('',*,*,#493,.F.);
#493 = EDGE_CURVE('',#478,#478,#494,.T.);
#494 = ( BOUNDED_CURVE() B_SPLINE_CURVE(6,(#495,#496,#497,#498,#499,#500
,#501),.UNSPECIFIED.,.T.,.F.) B_SPLINE_CURVE_WITH_KNOTS((7,7),(
1.570796326795,7.853981633974),.PIECEWISE_BEZIER_KNOTS.) CURVE() 
GEOMETRIC_REPRESENTATION_ITEM() RATIONAL_B_SPLINE_CURVE((1.669078461068,
    1.03672962321,1.038346699848,0.853534330196,1.038346699848,
1.03672962321,1.669078461068)) REPRESENTATION_ITEM('') );
#495 = CARTESIAN_POINT('',(1.753198214798,0.74249311212,1.349249695813)
  );
#496 = CARTESIAN_POINT('',(0.922434306584,0.746053561567,1.349249695812)
  );
#497 = CARTESIAN_POINT('',(0.803150748221,0.746564781512,2.376523791087)
  );
#498 = CARTESIAN_POINT('',(1.753198214797,0.74249311212,3.223808156316)
  );
#499 = CARTESIAN_POINT('',(2.703245681375,0.738421442728,2.376523791087)
  );
#500 = CARTESIAN_POINT('',(2.583962123013,0.738932662673,1.349249695814)
  );
#501 = CARTESIAN_POINT('',(1.753198214798,0.74249311212,1.349249695813)
  );
#502 = ORIENTED_EDGE('',*,*,#477,.F.);
#503 = ORIENTED_EDGE('',*,*,#382,.F.);
#504 = ORIENTED_EDGE('',*,*,#225,.F.);
#505 = ( BOUNDED_SURFACE() B_SPLINE_SURFACE(6,10,(
    (#506,#507,#508,#509,#510,#511,#512,#513,#514,#515,#516)
    ,(#517,#518,#519,#520,#521,#522,#523,#524,#525,#526,#527)
    ,(#528,#529,#530,#531,#532,#533,#534,#535,#536,#537,#538)
    ,(#539,#540,#541,#542,#543,#544,#545,#546,#547,#548,#549)
    ,(#550,#551,#552,#553,#554,#555,#556,#557,#558,#559,#560)
    ,(#561,#562,#563,#564,#565,#566,#567,#568,#569,#570,#571)
    ,(#572,#573,#574,#575,#576,#577,#578,#579,#580,#581,#582
)),.UNSPECIFIED.,.T.,.F.,.F.) B_SPLINE_SURFACE_WITH_KNOTS((7,7),(11,11),
  (1.570796326795,7.853981633974),(0.,6.289200474175),
.PIECEWISE_BEZIER_KNOTS.) GEOMETRIC_REPRESENTATION_ITEM() 
RATIONAL_B_SPLINE_SURFACE((
    (1.669078461068,1.669078461068,1.669078461068,1.669078461069
      ,1.669078461068,1.669078461069,1.669078461068,1.669078461069
      ,1.669078461068,1.669078461068,1.669078461068)
    ,(1.03672962321,1.03672962321,1.03672962321,1.03672962321
      ,1.036729623209,1.03672962321,1.036729623209,1.03672962321
      ,1.03672962321,1.03672962321,1.03672962321)
    ,(1.038346699848,1.038346699848,1.038346699847,1.038346699848
      ,1.038346699847,1.038346699848,1.038346699847,1.038346699848
      ,1.038346699847,1.038346699848,1.038346699848)
    ,(0.853534330196,0.853534330196,0.853534330196,0.853534330196
      ,0.853534330196,0.853534330196,0.853534330196,0.853534330196
      ,0.853534330196,0.853534330196,0.853534330196)
    ,(1.038346699848,1.038346699848,1.038346699847,1.038346699848
      ,1.038346699847,1.038346699848,1.038346699847,1.038346699848
      ,1.038346699847,1.038346699848,1.038346699848)
    ,(1.03672962321,1.03672962321,1.03672962321,1.03672962321
      ,1.036729623209,1.03672962321,1.036729623209,1.03672962321
      ,1.03672962321,1.03672962321,1.03672962321)
    ,(1.669078461068,1.669078461068,1.669078461068,1.669078461069
      ,1.669078461068,1.669078461069,1.669078461068,1.669078461069
      ,1.669078461068,1.669078461068,1.669078461068
))) REPRESENTATION_ITEM('') SURFACE() );
#506 = CARTESIAN_POINT('',(1.753198214223,0.742493112159,0.249249695826)
  );
#507 = CARTESIAN_POINT('',(1.286676031609,1.8440600472,0.359249695818));
#508 = CARTESIAN_POINT('',(5.090527948596E-02,2.62088897904,
    0.469249695821));
#509 = CARTESIAN_POINT('',(-1.6967191201,2.4602137778,0.579249696463));
#510 = CARTESIAN_POINT('',(-3.163239993054,1.027338527975,0.689249693762
    ));
#511 = CARTESIAN_POINT('',(-3.244503584713,-1.374072544773,
    0.799249699509));
#512 = CARTESIAN_POINT('',(-1.46326369353,-2.986698941496,0.909249691752
    ));
#513 = CARTESIAN_POINT('',(0.586286130222,-2.930490784979,1.01924969888)
  );
#514 = CARTESIAN_POINT('',(1.917744449739,-1.787150480812,1.129249694375
    ));
#515 = CARTESIAN_POINT('',(2.219720377779,-0.359073827397,1.239249696248
    ));
#516 = CARTESIAN_POINT('',(1.753198214798,0.74249311212,1.349249695813)
  );
#517 = CARTESIAN_POINT('',(0.922434306009,0.746053561606,0.249249695826)
  );
#518 = CARTESIAN_POINT('',(0.453675026994,1.325636138505,0.359249695925)
  );
#519 = CARTESIAN_POINT('',(-0.419999172746,1.578499460057,0.469249695437
    ));
#520 = CARTESIAN_POINT('',(-1.439100164216,1.181876774473,0.579249697245
    ));
#521 = CARTESIAN_POINT('',(-2.071167033195,7.160232692081E-02,
    0.689249692669));
#522 = CARTESIAN_POINT('',(-1.707075398189,-1.380661583477,
    0.799249700587));
#523 = CARTESIAN_POINT('',(-0.363038901102,-2.040358388092,
    0.909249691017));
#524 = CARTESIAN_POINT('',(0.854852696028,-1.65440888343,1.019249699192)
  );
#525 = CARTESIAN_POINT('',(1.455791981403,-0.740762966775,1.129249694312
    ));
#526 = CARTESIAN_POINT('',(1.391193565861,0.166470980165,1.239249696248)
  );
#527 = CARTESIAN_POINT('',(0.922434306584,0.746053561567,1.349249695812)
  );
#528 = CARTESIAN_POINT('',(0.803150747645,0.746564781551,1.276523791101)
  );
#529 = CARTESIAN_POINT('',(0.33407025967,1.25119928833,1.386523791075));
#530 = CARTESIAN_POINT('',(-0.487613037765,1.428830065659,1.496523791167
    ));
#531 = CARTESIAN_POINT('',(-1.402110466423,0.99832933697,1.606523791504)
  );
#532 = CARTESIAN_POINT('',(-1.914363942686,-6.562512581186E-02,
    1.716523789533));
#533 = CARTESIAN_POINT('',(-1.486326875547,-1.38160765725,1.826523794104
    ));
#534 = CARTESIAN_POINT('',(-0.205065346594,-1.904479990535,
    1.936523787656));
#535 = CARTESIAN_POINT('',(0.893414284807,-1.471185240111,2.046523793759
    ));
#536 = CARTESIAN_POINT('',(1.389463468583,-0.590519528354,2.156523789808
    ));
#537 = CARTESIAN_POINT('',(1.27223121657,0.241930270232,2.266523791491)
  );
#538 = CARTESIAN_POINT('',(0.803150748221,0.746564781512,2.376523791087)
  );
#539 = CARTESIAN_POINT('',(1.753198214222,0.742493112159,2.12380815633)
  );
#540 = CARTESIAN_POINT('',(1.286676031646,1.844060047201,2.233808156311)
  );
#541 = CARTESIAN_POINT('',(5.090527935135E-02,2.620888979036,
    2.343808156421));
#542 = CARTESIAN_POINT('',(-1.696719119837,2.460213777811,2.4538081567)
  );
#543 = CARTESIAN_POINT('',(-3.163239993373,1.027338527956,2.563808154782
    ));
#544 = CARTESIAN_POINT('',(-3.244503584556,-1.374072544751,
    2.673808159303));
#545 = CARTESIAN_POINT('',(-1.463263693468,-2.986698941514,2.78380815298
    ));
#546 = CARTESIAN_POINT('',(0.586286130091,-2.930490784968,2.893808158843
    ));
#547 = CARTESIAN_POINT('',(1.917744449803,-1.787150480818,3.003808155153
    ));
#548 = CARTESIAN_POINT('',(2.219720377761,-0.359073827396,3.113808156676
    ));
#549 = CARTESIAN_POINT('',(1.753198214797,0.74249311212,3.223808156316)
  );
#550 = CARTESIAN_POINT('',(2.703245680799,0.738421442767,1.2765237911));
#551 = CARTESIAN_POINT('',(2.239281803544,2.436920806065,1.386523791075)
  );
#552 = CARTESIAN_POINT('',(0.589423596748,3.812947892437,1.496523791188)
  );
#553 = CARTESIAN_POINT('',(-1.991327773832,3.922098218596,1.606523791443
    ));
#554 = CARTESIAN_POINT('',(-4.412116043314,2.120302181813,1.716523789654
    ));
#555 = CARTESIAN_POINT('',(-5.002680294005,-1.366537432353,
    1.826523793874));
#556 = CARTESIAN_POINT('',(-2.721462040446,-4.068917892411,
    1.936523787983));
#557 = CARTESIAN_POINT('',(0.279157975765,-4.389796329873,2.046523793448
    ));
#558 = CARTESIAN_POINT('',(2.446025430733,-2.983781433262,2.156523789996
    ));
#559 = CARTESIAN_POINT('',(3.167209539056,-0.960077925028,2.266523791432
    ));
#560 = CARTESIAN_POINT('',(2.703245681375,0.738421442728,2.376523791087)
  );
#561 = CARTESIAN_POINT('',(2.583962122438,0.738932662712,0.249249695828)
  );
#562 = CARTESIAN_POINT('',(2.119677036175,2.362483955888,0.359249695822)
  );
#563 = CARTESIAN_POINT('',(0.521809731957,3.663278498048,0.469249695897)
  );
#564 = CARTESIAN_POINT('',(-1.954338076613,3.738550781071,0.579249696171
    ));
#565 = CARTESIAN_POINT('',(-4.255312951833,1.983074729117,0.689249694371
    ));
#566 = CARTESIAN_POINT('',(-4.781931772586,-1.367483506168,
    0.799249698721));
#567 = CARTESIAN_POINT('',(-2.563488484729,-3.933039494816,0.9092496925)
  );
#568 = CARTESIAN_POINT('',(0.317719563615,-4.206572686581,1.019249698342
    ));
#569 = CARTESIAN_POINT('',(2.37969691843,-2.833537994826,1.129249694653)
  );
#570 = CARTESIAN_POINT('',(3.048247189599,-0.884618634965,1.239249696171
    ));
#571 = CARTESIAN_POINT('',(2.583962123013,0.738932662673,1.349249695814)
  );
#572 = CARTESIAN_POINT('',(1.753198214223,0.742493112159,0.249249695826)
  );
#573 = CARTESIAN_POINT('',(1.286676031609,1.8440600472,0.359249695818));
#574 = CARTESIAN_POINT('',(5.090527948596E-02,2.62088897904,
    0.469249695821));
#575 = CARTESIAN_POINT('',(-1.6967191201,2.4602137778,0.579249696463));
#576 = CARTESIAN_POINT('',(-3.163239993054,1.027338527975,0.689249693762
    ));
#577 = CARTESIAN_POINT('',(-3.244503584713,-1.374072544773,
    0.799249699509));
#578 = CARTESIAN_POINT('',(-1.46326369353,-2.986698941496,0.909249691752
    ));
#579 = CARTESIAN_POINT('',(0.586286130222,-2.930490784979,1.01924969888)
  );
#580 = CARTESIAN_POINT('',(1.917744449739,-1.787150480812,1.129249694375
    ));
#581 = CARTESIAN_POINT('',(2.219720377779,-0.359073827397,1.239249696248
    ));
#582 = CARTESIAN_POINT('',(1.753198214798,0.74249311212,1.349249695813)
  );
#583 = ADVANCED_FACE('',(#584),#590,.T.);
#584 = FACE_BOUND('',#585,.T.);
#585 = EDGE_LOOP('',(#586,#587,#588,#589));
#586 = ORIENTED_EDGE('',*,*,#331,.T.);
#587 = ORIENTED_EDGE('',*,*,#364,.T.);
#588 = ORIENTED_EDGE('',*,*,#470,.T.);
#589 = ORIENTED_EDGE('',*,*,#206,.F.);
#590 = ( BOUNDED_SURFACE() B_SPLINE_SURFACE(6,10,(
    (#591,#592,#593,#594,#595,#596,#597,#598,#599,#600,#601)
    ,(#602,#603,#604,#605,#606,#607,#608,#609,#610,#611,#612)
    ,(#613,#614,#615,#616,#617,#618,#619,#620,#621,#622,#623)
    ,(#624,#625,#626,#627,#628,#629,#630,#631,#632,#633,#634)
    ,(#635,#636,#637,#638,#639,#640,#641,#642,#643,#644,#645)
    ,(#646,#647,#648,#649,#650,#651,#652,#653,#654,#655,#656)
    ,(#657,#658,#659,#660,#661,#662,#663,#664,#665,#666,#667
)),.UNSPECIFIED.,.T.,.F.,.F.) B_SPLINE_SURFACE_WITH_KNOTS((7,7),(11,11),
  (1.570796326795,7.853981633974),(0.,6.289200474175),
.PIECEWISE_BEZIER_KNOTS.) GEOMETRIC_REPRESENTATION_ITEM() 
RATIONAL_B_SPLINE_SURFACE((
    (1.669078461068,1.669078461068,1.669078461068,1.669078461069
      ,1.669078461068,1.669078461069,1.669078461068,1.669078461069
      ,1.669078461068,1.669078461068,1.669078461068)
    ,(1.03672962321,1.03672962321,1.03672962321,1.03672962321
      ,1.036729623209,1.03672962321,1.036729623209,1.03672962321
      ,1.03672962321,1.03672962321,1.03672962321)
    ,(1.038346699848,1.038346699848,1.038346699847,1.038346699848
      ,1.038346699847,1.038346699848,1.038346699847,1.038346699848
      ,1.038346699847,1.038346699848,1.038346699848)
    ,(0.853534330196,0.853534330196,0.853534330196,0.853534330196
      ,0.853534330196,0.853534330196,0.853534330196,0.853534330196
      ,0.853534330196,0.853534330196,0.853534330196)
    ,(1.038346699848,1.038346699848,1.038346699847,1.038346699848
      ,1.038346699847,1.038346699848,1.038346699847,1.038346699848
      ,1.038346699847,1.038346699848,1.038346699848)
    ,(1.03672962321,1.03672962321,1.03672962321,1.03672962321
      ,1.036729623209,1.03672962321,1.036729623209,1.03672962321
      ,1.03672962321,1.03672962321,1.03672962321)
    ,(1.669078461068,1.669078461068,1.669078461068,1.669078461069
      ,1.669078461068,1.669078461069,1.669078461068,1.669078461069
      ,1.669078461068,1.669078461068,1.669078461068
))) REPRESENTATION_ITEM('') SURFACE() );
#591 = CARTESIAN_POINT('',(1.753198214223,0.742493112159,0.249249695826)
  );
#592 = CARTESIAN_POINT('',(1.286676031609,1.8440600472,0.359249695818));
#593 = CARTESIAN_POINT('',(5.090527948596E-02,2.62088897904,
    0.469249695821));
#594 = CARTESIAN_POINT('',(-1.6967191201,2.4602137778,0.579249696463));
#595 = CARTESIAN_POINT('',(-3.163239993054,1.027338527975,0.689249693762
    ));
#596 = CARTESIAN_POINT('',(-3.244503584713,-1.374072544773,
    0.799249699509));
#597 = CARTESIAN_POINT('',(-1.46326369353,-2.986698941496,0.909249691752
    ));
#598 = CARTESIAN_POINT('',(0.586286130222,-2.930490784979,1.01924969888)
  );
#599 = CARTESIAN_POINT('',(1.917744449739,-1.787150480812,1.129249694375
    ));
#600 = CARTESIAN_POINT('',(2.219720377779,-0.359073827397,1.239249696248
    ));
#601 = CARTESIAN_POINT('',(1.753198214798,0.74249311212,1.349249695813)
  );
#602 = CARTESIAN_POINT('',(0.922434306009,0.746053561606,0.249249695826)
  );
#603 = CARTESIAN_POINT('',(0.453675026994,1.325636138505,0.359249695925)
  );
#604 = CARTESIAN_POINT('',(-0.419999172746,1.578499460057,0.469249695437
    ));
#605 = CARTESIAN_POINT('',(-1.439100164216,1.181876774473,0.579249697245
    ));
#606 = CARTESIAN_POINT('',(-2.071167033195,7.160232692081E-02,
    0.689249692669));
#607 = CARTESIAN_POINT('',(-1.707075398189,-1.380661583477,
    0.799249700587));
#608 = CARTESIAN_POINT('',(-0.363038901102,-2.040358388092,
    0.909249691017));
#609 = CARTESIAN_POINT('',(0.854852696028,-1.65440888343,1.019249699192)
  );
#610 = CARTESIAN_POINT('',(1.455791981403,-0.740762966775,1.129249694312
    ));
#611 = CARTESIAN_POINT('',(1.391193565861,0.166470980165,1.239249696248)
  );
#612 = CARTESIAN_POINT('',(0.922434306584,0.746053561567,1.349249695812)
  );
#613 = CARTESIAN_POINT('',(0.803150747645,0.746564781551,1.276523791101)
  );
#614 = CARTESIAN_POINT('',(0.33407025967,1.25119928833,1.386523791075));
#615 = CARTESIAN_POINT('',(-0.487613037765,1.428830065659,1.496523791167
    ));
#616 = CARTESIAN_POINT('',(-1.402110466423,0.99832933697,1.606523791504)
  );
#617 = CARTESIAN_POINT('',(-1.914363942686,-6.562512581186E-02,
    1.716523789533));
#618 = CARTESIAN_POINT('',(-1.486326875547,-1.38160765725,1.826523794104
    ));
#619 = CARTESIAN_POINT('',(-0.205065346594,-1.904479990535,
    1.936523787656));
#620 = CARTESIAN_POINT('',(0.893414284807,-1.471185240111,2.046523793759
    ));
#621 = CARTESIAN_POINT('',(1.389463468583,-0.590519528354,2.156523789808
    ));
#622 = CARTESIAN_POINT('',(1.27223121657,0.241930270232,2.266523791491)
  );
#623 = CARTESIAN_POINT('',(0.803150748221,0.746564781512,2.376523791087)
  );
#624 = CARTESIAN_POINT('',(1.753198214222,0.742493112159,2.12380815633)
  );
#625 = CARTESIAN_POINT('',(1.286676031646,1.844060047201,2.233808156311)
  );
#626 = CARTESIAN_POINT('',(5.090527935135E-02,2.620888979036,
    2.343808156421));
#627 = CARTESIAN_POINT('',(-1.696719119837,2.460213777811,2.4538081567)
  );
#628 = CARTESIAN_POINT('',(-3.163239993373,1.027338527956,2.563808154782
    ));
#629 = CARTESIAN_POINT('',(-3.244503584556,-1.374072544751,
    2.673808159303));
#630 = CARTESIAN_POINT('',(-1.463263693468,-2.986698941514,2.78380815298
    ));
#631 = CARTESIAN_POINT('',(0.586286130091,-2.930490784968,2.893808158843
    ));
#632 = CARTESIAN_POINT('',(1.917744449803,-1.787150480818,3.003808155153
    ));
#633 = CARTESIAN_POINT('',(2.219720377761,-0.359073827396,3.113808156676
    ));
#634 = CARTESIAN_POINT('',(1.753198214797,0.74249311212,3.223808156316)
  );
#635 = CARTESIAN_POINT('',(2.703245680799,0.738421442767,1.2765237911));
#636 = CARTESIAN_POINT('',(2.239281803544,2.436920806065,1.386523791075)
  );
#637 = CARTESIAN_POINT('',(0.589423596748,3.812947892437,1.496523791188)
  );
#638 = CARTESIAN_POINT('',(-1.991327773832,3.922098218596,1.606523791443
    ));
#639 = CARTESIAN_POINT('',(-4.412116043314,2.120302181813,1.716523789654
    ));
#640 = CARTESIAN_POINT('',(-5.002680294005,-1.366537432353,
    1.826523793874));
#641 = CARTESIAN_POINT('',(-2.721462040446,-4.068917892411,
    1.936523787983));
#642 = CARTESIAN_POINT('',(0.279157975765,-4.389796329873,2.046523793448
    ));
#643 = CARTESIAN_POINT('',(2.446025430733,-2.983781433262,2.156523789996
    ));
#644 = CARTESIAN_POINT('',(3.167209539056,-0.960077925028,2.266523791432
    ));
#645 = CARTESIAN_POINT('',(2.703245681375,0.738421442728,2.376523791087)
  );
#646 = CARTESIAN_POINT('',(2.583962122438,0.738932662712,0.249249695828)
  );
#647 = CARTESIAN_POINT('',(2.119677036175,2.362483955888,0.359249695822)
  );
#648 = CARTESIAN_POINT('',(0.521809731957,3.663278498048,0.469249695897)
  );
#649 = CARTESIAN_POINT('',(-1.954338076613,3.738550781071,0.579249696171
    ));
#650 = CARTESIAN_POINT('',(-4.255312951833,1.983074729117,0.689249694371
    ));
#651 = CARTESIAN_POINT('',(-4.781931772586,-1.367483506168,
    0.799249698721));
#652 = CARTESIAN_POINT('',(-2.563488484729,-3.933039494816,0.9092496925)
  );
#653 = CARTESIAN_POINT('',(0.317719563615,-4.206572686581,1.019249698342
    ));
#654 = CARTESIAN_POINT('',(2.37969691843,-2.833537994826,1.129249694653)
  );
#655 = CARTESIAN_POINT('',(3.048247189599,-0.884618634965,1.239249696171
    ));
#656 = CARTESIAN_POINT('',(2.583962123013,0.738932662673,1.349249695814)
  );
#657 = CARTESIAN_POINT('',(1.753198214223,0.742493112159,0.249249695826)
  );
#658 = CARTESIAN_POINT('',(1.286676031609,1.8440600472,0.359249695818));
#659 = CARTESIAN_POINT('',(5.090527948596E-02,2.62088897904,
    0.469249695821));
#660 = CARTESIAN_POINT('',(-1.6967191201,2.4602137778,0.579249696463));
#661 = CARTESIAN_POINT('',(-3.163239993054,1.027338527975,0.689249693762
    ));
#662 = CARTESIAN_POINT('',(-3.244503584713,-1.374072544773,
    0.799249699509));
#663 = CARTESIAN_POINT('',(-1.46326369353,-2.986698941496,0.909249691752
    ));
#664 = CARTESIAN_POINT('',(0.586286130222,-2.930490784979,1.01924969888)
  );
#665 = CARTESIAN_POINT('',(1.917744449739,-1.787150480812,1.129249694375
    ));
#666 = CARTESIAN_POINT('',(2.219720377779,-0.359073827397,1.239249696248
    ));
#667 = CARTESIAN_POINT('',(1.753198214798,0.74249311212,1.349249695813)
  );
#668 = ADVANCED_FACE('',(#669),#699,.T.);
#669 = FACE_BOUND('',#670,.T.);
#670 = EDGE_LOOP('',(#671,#687,#697,#698));
#671 = ORIENTED_EDGE('',*,*,#672,.T.);
#672 = EDGE_CURVE('',#478,#673,#675,.T.);
#673 = VERTEX_POINT('',#674);
#674 = CARTESIAN_POINT('',(1.75319822266,0.742493111904,2.449249695632)
  );
#675 = ( BOUNDED_CURVE() B_SPLINE_CURVE(10,(#676,#677,#678,#679,#680,
    #681,#682,#683,#684,#685,#686),.UNSPECIFIED.,.F.,.F.) 
B_SPLINE_CURVE_WITH_KNOTS((11,11),(0.,6.289200474175),
.PIECEWISE_BEZIER_KNOTS.) CURVE() GEOMETRIC_REPRESENTATION_ITEM() 
RATIONAL_B_SPLINE_CURVE((1.669078461068,1.669078461068,1.669078461068,
    1.669078461069,1.669078461068,1.669078461069,1.669078461068,
    1.669078461069,1.669078461068,1.669078461068,1.669078461068)) 
REPRESENTATION_ITEM('') );
#676 = CARTESIAN_POINT('',(1.753198214799,0.74249311212,1.349249695814)
  );
#677 = CARTESIAN_POINT('',(1.286676038852,1.844060047969,1.459249695798)
  );
#678 = CARTESIAN_POINT('',(5.090528790242E-02,2.620888986271,
    1.569249694936));
#679 = CARTESIAN_POINT('',(-1.696719203687,2.460213769074,1.679249700119
    ));
#680 = CARTESIAN_POINT('',(-3.16323975019,1.02733855005,1.789249684783)
  );
#681 = CARTESIAN_POINT('',(-3.244504009699,-1.374072568006,
    1.899249713274));
#682 = CARTESIAN_POINT('',(-1.463263224849,-2.986698924047,
    2.009249677294));
#683 = CARTESIAN_POINT('',(0.586285777297,-2.930490800756,2.119249709092
    ));
#684 = CARTESIAN_POINT('',(1.917744622612,-1.787150478486,2.229249689489
    ));
#685 = CARTESIAN_POINT('',(2.219720330685,-0.359073829434,2.339249697549
    ));
#686 = CARTESIAN_POINT('',(1.75319822266,0.742493111904,2.449249695632)
  );
#687 = ORIENTED_EDGE('',*,*,#688,.F.);
#688 = EDGE_CURVE('',#673,#673,#689,.T.);
#689 = ( BOUNDED_CURVE() B_SPLINE_CURVE(6,(#690,#691,#692,#693,#694,#695
,#696),.UNSPECIFIED.,.T.,.F.) B_SPLINE_CURVE_WITH_KNOTS((7,7),(
1.570796326795,7.853981633974),.PIECEWISE_BEZIER_KNOTS.) CURVE() 
GEOMETRIC_REPRESENTATION_ITEM() RATIONAL_B_SPLINE_CURVE((1.669078461068,
    1.03672962321,1.038346699848,0.853534330196,1.038346699848,
1.03672962321,1.669078461068)) REPRESENTATION_ITEM('') );
#690 = CARTESIAN_POINT('',(1.75319822266,0.742493111904,2.449249695632)
  );
#691 = CARTESIAN_POINT('',(0.922434314445,0.746053561351,2.44924969563)
  );
#692 = CARTESIAN_POINT('',(0.803150756082,0.746564781296,3.476523790905)
  );
#693 = CARTESIAN_POINT('',(1.753198222657,0.742493111904,4.323808156136)
  );
#694 = CARTESIAN_POINT('',(2.703245689234,0.738421442512,3.476523790905)
  );
#695 = CARTESIAN_POINT('',(2.583962130876,0.738932662457,2.449249695632)
  );
#696 = CARTESIAN_POINT('',(1.75319822266,0.742493111904,2.449249695632)
  );
#697 = ORIENTED_EDGE('',*,*,#672,.F.);
#698 = ORIENTED_EDGE('',*,*,#493,.T.);
#699 = ( BOUNDED_SURFACE() B_SPLINE_SURFACE(6,10,(
    (#700,#701,#702,#703,#704,#705,#706,#707,#708,#709,#710)
    ,(#711,#712,#713,#714,#715,#716,#717,#718,#719,#720,#721)
    ,(#722,#723,#724,#725,#726,#727,#728,#729,#730,#731,#732)
    ,(#733,#734,#735,#736,#737,#738,#739,#740,#741,#742,#743)
    ,(#744,#745,#746,#747,#748,#749,#750,#751,#752,#753,#754)
    ,(#755,#756,#757,#758,#759,#760,#761,#762,#763,#764,#765)
    ,(#766,#767,#768,#769,#770,#771,#772,#773,#774,#775,#776
)),.UNSPECIFIED.,.T.,.F.,.F.) B_SPLINE_SURFACE_WITH_KNOTS((7,7),(11,11),
  (1.570796326795,7.853981633974),(0.,6.289200474175),
.PIECEWISE_BEZIER_KNOTS.) GEOMETRIC_REPRESENTATION_ITEM() 
RATIONAL_B_SPLINE_SURFACE((
    (1.669078461068,1.669078461068,1.669078461068,1.669078461069
      ,1.669078461068,1.669078461069,1.669078461068,1.669078461069
      ,1.669078461068,1.669078461068,1.669078461068)
    ,(1.03672962321,1.03672962321,1.03672962321,1.03672962321
      ,1.036729623209,1.03672962321,1.036729623209,1.03672962321
      ,1.03672962321,1.03672962321,1.03672962321)
    ,(1.038346699848,1.038346699848,1.038346699847,1.038346699848
      ,1.038346699847,1.038346699848,1.038346699847,1.038346699848
      ,1.038346699847,1.038346699848,1.038346699848)
    ,(0.853534330196,0.853534330196,0.853534330196,0.853534330196
      ,0.853534330196,0.853534330196,0.853534330196,0.853534330196
      ,0.853534330196,0.853534330196,0.853534330196)
    ,(1.038346699848,1.038346699848,1.038346699847,1.038346699848
      ,1.038346699847,1.038346699848,1.038346699847,1.038346699848
      ,1.038346699847,1.038346699848,1.038346699848)
    ,(1.03672962321,1.03672962321,1.03672962321,1.03672962321
      ,1.036729623209,1.03672962321,1.036729623209,1.03672962321
      ,1.03672962321,1.03672962321,1.03672962321)
    ,(1.669078461068,1.669078461068,1.669078461068,1.669078461069
      ,1.669078461068,1.669078461069,1.669078461068,1.669078461069
      ,1.669078461068,1.669078461068,1.669078461068
))) REPRESENTATION_ITEM('') SURFACE() );
#700 = CARTESIAN_POINT('',(1.753198214799,0.74249311212,1.349249695814)
  );
#701 = CARTESIAN_POINT('',(1.286676038852,1.844060047969,1.459249695798)
  );
#702 = CARTESIAN_POINT('',(5.090528790242E-02,2.620888986271,
    1.569249694936));
#703 = CARTESIAN_POINT('',(-1.696719203687,2.460213769074,1.679249700119
    ));
#704 = CARTESIAN_POINT('',(-3.16323975019,1.02733855005,1.789249684783)
  );
#705 = CARTESIAN_POINT('',(-3.244504009699,-1.374072568006,
    1.899249713274));
#706 = CARTESIAN_POINT('',(-1.463263224849,-2.986698924047,
    2.009249677294));
#707 = CARTESIAN_POINT('',(0.586285777297,-2.930490800756,2.119249709092
    ));
#708 = CARTESIAN_POINT('',(1.917744622612,-1.787150478486,2.229249689489
    ));
#709 = CARTESIAN_POINT('',(2.219720330685,-0.359073829434,2.339249697549
    ));
#710 = CARTESIAN_POINT('',(1.75319822266,0.742493111904,2.449249695632)
  );
#711 = CARTESIAN_POINT('',(0.922434306584,0.746053561567,1.349249695813)
  );
#712 = CARTESIAN_POINT('',(0.453675034246,1.325636139276,1.45924969578)
  );
#713 = CARTESIAN_POINT('',(-0.419999164332,1.578499467281,1.569249695055
    ));
#714 = CARTESIAN_POINT('',(-1.4391002479,1.181876765757,1.679249699725)
  );
#715 = CARTESIAN_POINT('',(-2.071166790032,7.160234898592E-02,
    1.789249685608));
#716 = CARTESIAN_POINT('',(-1.707075823596,-1.380661606703,
    1.899249712063));
#717 = CARTESIAN_POINT('',(-0.363038432066,-2.040358370643,
    2.009249678566));
#718 = CARTESIAN_POINT('',(0.85485234292,-1.65440889921,2.119249708127)
  );
#719 = CARTESIAN_POINT('',(1.455792154332,-0.740762964447,2.229249689976
    ));
#720 = CARTESIAN_POINT('',(1.391193518754,0.166470978127,2.339249697414)
  );
#721 = CARTESIAN_POINT('',(0.922434314445,0.746053561351,2.44924969563)
  );
#722 = CARTESIAN_POINT('',(0.803150748223,0.746564781512,2.376523791088)
  );
#723 = CARTESIAN_POINT('',(0.334070266917,1.251199289096,2.486523790973)
  );
#724 = CARTESIAN_POINT('',(-0.487613029352,1.428830072902,2.596523790593
    ));
#725 = CARTESIAN_POINT('',(-1.402110550027,0.998329328213,2.706523794428
    ));
#726 = CARTESIAN_POINT('',(-1.914363699772,-6.562510368263E-02,
    2.816523781734));
#727 = CARTESIAN_POINT('',(-1.486327300536,-1.381607680549,
    2.926523806483));
#728 = CARTESIAN_POINT('',(-0.205064878011,-1.904479973025,3.03652377439
    ));
#729 = CARTESIAN_POINT('',(0.893413932029,-1.471185255928,3.146523803222
    ));
#730 = CARTESIAN_POINT('',(1.389463641358,-0.590519526009,3.256523785244
    ));
#731 = CARTESIAN_POINT('',(1.272231169509,0.24193026819,3.36652379271));
#732 = CARTESIAN_POINT('',(0.803150756082,0.746564781296,3.476523790905)
  );
#733 = CARTESIAN_POINT('',(1.753198214798,0.74249311212,3.223808156319)
  );
#734 = CARTESIAN_POINT('',(1.286676038761,1.84406004797,3.333808156196)
  );
#735 = CARTESIAN_POINT('',(5.090528828987E-02,2.620888986267,
    3.443808155915));
#736 = CARTESIAN_POINT('',(-1.696719204632,2.46021376908,3.553808159412)
  );
#737 = CARTESIAN_POINT('',(-3.163239748593,1.027338550042,3.663808147512
    ));
#738 = CARTESIAN_POINT('',(-3.244504011683,-1.374072568002,3.77380817078
    ));
#739 = CARTESIAN_POINT('',(-1.463263223045,-2.986698924045,
    3.883808140726));
#740 = CARTESIAN_POINT('',(0.586285776131,-2.93049080076,3.993808167569)
  );
#741 = CARTESIAN_POINT('',(1.91774462311,-1.787150478482,4.103808150938)
  );
#742 = CARTESIAN_POINT('',(2.219720330563,-0.359073829435,4.213808157809
    ));
#743 = CARTESIAN_POINT('',(1.753198222657,0.742493111904,4.323808156136)
  );
#744 = CARTESIAN_POINT('',(2.703245681375,0.738421442728,2.376523791087)
  );
#745 = CARTESIAN_POINT('',(2.239281810665,2.43692080684,2.486523790966)
  );
#746 = CARTESIAN_POINT('',(0.589423605659,3.812947899646,2.596523790666)
  );
#747 = CARTESIAN_POINT('',(-1.991327858595,3.922098209921,2.706523794173
    ));
#748 = CARTESIAN_POINT('',(-4.412115798561,2.120302203806,2.816523782311
    ));
#749 = CARTESIAN_POINT('',(-5.002680721164,-1.366537455494,2.92652380558
    ));
#750 = CARTESIAN_POINT('',(-2.721461569924,-4.068917875038,3.03652377536
    ));
#751 = CARTESIAN_POINT('',(0.279157621689,-4.389796345605,3.14652380251)
  );
#752 = CARTESIAN_POINT('',(2.446025604108,-2.983781430952,3.25652378559)
  );
#753 = CARTESIAN_POINT('',(3.167209491835,-0.960077927061,3.36652379262)
  );
#754 = CARTESIAN_POINT('',(2.703245689234,0.738421442512,3.476523790905)
  );
#755 = CARTESIAN_POINT('',(2.583962123016,0.738932662673,1.349249695813)
  );
#756 = CARTESIAN_POINT('',(2.119677043312,2.362483956664,1.459249695596)
  );
#757 = CARTESIAN_POINT('',(0.52180974079,3.663278505254,1.569249695815)
  );
#758 = CARTESIAN_POINT('',(-1.954338161192,3.738550772404,1.67924969791)
  );
#759 = CARTESIAN_POINT('',(-4.255312707331,1.983074751102,1.789249688609
    ));
#760 = CARTESIAN_POINT('',(-4.78193219949,-1.367483529304,1.899249708471
    ));
#761 = CARTESIAN_POINT('',(-2.563488014441,-3.933039477446,
    2.009249681737));
#762 = CARTESIAN_POINT('',(0.317719209746,-4.206572702312,2.119249706099
    ));
#763 = CARTESIAN_POINT('',(2.379697091674,-2.833537992518,2.229249690869
    ));
#764 = CARTESIAN_POINT('',(3.048247142425,-0.884618636998,2.339249697187
    ));
#765 = CARTESIAN_POINT('',(2.583962130876,0.738932662457,2.449249695632)
  );
#766 = CARTESIAN_POINT('',(1.753198214799,0.74249311212,1.349249695814)
  );
#767 = CARTESIAN_POINT('',(1.286676038852,1.844060047969,1.459249695798)
  );
#768 = CARTESIAN_POINT('',(5.090528790242E-02,2.620888986271,
    1.569249694936));
#769 = CARTESIAN_POINT('',(-1.696719203687,2.460213769074,1.679249700119
    ));
#770 = CARTESIAN_POINT('',(-3.16323975019,1.02733855005,1.789249684783)
  );
#771 = CARTESIAN_POINT('',(-3.244504009699,-1.374072568006,
    1.899249713274));
#772 = CARTESIAN_POINT('',(-1.463263224849,-2.986698924047,
    2.009249677294));
#773 = CARTESIAN_POINT('',(0.586285777297,-2.930490800756,2.119249709092
    ));
#774 = CARTESIAN_POINT('',(1.917744622612,-1.787150478486,2.229249689489
    ));
#775 = CARTESIAN_POINT('',(2.219720330685,-0.359073829434,2.339249697549
    ));
#776 = CARTESIAN_POINT('',(1.75319822266,0.742493111904,2.449249695632)
  );
#777 = ADVANCED_FACE('',(#778),#808,.T.);
#778 = FACE_BOUND('',#779,.T.);
#779 = EDGE_LOOP('',(#780,#796,#806,#807));
#780 = ORIENTED_EDGE('',*,*,#781,.T.);
#781 = EDGE_CURVE('',#673,#782,#784,.T.);
#782 = VERTEX_POINT('',#783);
#783 = CARTESIAN_POINT('',(1.753198228954,0.742493111535,3.549249695486)
  );
#784 = ( BOUNDED_CURVE() B_SPLINE_CURVE(10,(#785,#786,#787,#788,#789,
    #790,#791,#792,#793,#794,#795),.UNSPECIFIED.,.F.,.F.) 
B_SPLINE_CURVE_WITH_KNOTS((11,11),(0.,6.289200474175),
.PIECEWISE_BEZIER_KNOTS.) CURVE() GEOMETRIC_REPRESENTATION_ITEM() 
RATIONAL_B_SPLINE_CURVE((1.669078461068,1.669078461068,1.669078461068,
    1.669078461069,1.669078461068,1.669078461069,1.669078461068,
    1.669078461069,1.669078461068,1.669078461068,1.669078461068)) 
REPRESENTATION_ITEM('') );
#785 = CARTESIAN_POINT('',(1.75319822266,0.742493111904,2.449249695631)
  );
#786 = CARTESIAN_POINT('',(1.286676019803,1.844060051074,2.559249696067)
  );
#787 = CARTESIAN_POINT('',(5.090538262539E-02,2.620888989885,
    2.669249693387));
#788 = CARTESIAN_POINT('',(-1.696719416013,2.460213783517,2.779249703352
    ));
#789 = CARTESIAN_POINT('',(-3.163239424085,1.027338547187,2.889249679331
    ));
#790 = CARTESIAN_POINT('',(-3.244504390231,-1.374072560376,
    2.999249719077));
#791 = CARTESIAN_POINT('',(-1.463262932392,-2.986698932069,
    3.109249672617));
#792 = CARTESIAN_POINT('',(0.586285603266,-2.930490807736,3.219249711362
    ));
#793 = CARTESIAN_POINT('',(1.917744691802,-1.78715048521,3.329249688563)
  );
#794 = CARTESIAN_POINT('',(2.219720319874,-0.359073832887,3.439249697596
    ));
#795 = CARTESIAN_POINT('',(1.753198228954,0.742493111535,3.549249695486)
  );
#796 = ORIENTED_EDGE('',*,*,#797,.F.);
#797 = EDGE_CURVE('',#782,#782,#798,.T.);
#798 = ( BOUNDED_CURVE() B_SPLINE_CURVE(6,(#799,#800,#801,#802,#803,#804
,#805),.UNSPECIFIED.,.T.,.F.) B_SPLINE_CURVE_WITH_KNOTS((7,7),(
1.570796326795,7.853981633974),.PIECEWISE_BEZIER_KNOTS.) CURVE() 
GEOMETRIC_REPRESENTATION_ITEM() RATIONAL_B_SPLINE_CURVE((1.669078461068,
    1.03672962321,1.038346699848,0.853534330196,1.038346699848,
1.03672962321,1.669078461068)) REPRESENTATION_ITEM('') );
#799 = CARTESIAN_POINT('',(1.753198228954,0.742493111535,3.549249695486)
  );
#800 = CARTESIAN_POINT('',(0.922434320738,0.746053560982,3.549249695485)
  );
#801 = CARTESIAN_POINT('',(0.803150762375,0.746564780927,4.576523790758)
  );
#802 = CARTESIAN_POINT('',(1.753198228948,0.742493111535,5.423808155991)
  );
#803 = CARTESIAN_POINT('',(2.703245695528,0.738421442143,4.576523790762)
  );
#804 = CARTESIAN_POINT('',(2.58396213717,0.738932662088,3.549249695487)
  );
#805 = CARTESIAN_POINT('',(1.753198228954,0.742493111535,3.549249695486)
  );
#806 = ORIENTED_EDGE('',*,*,#781,.F.);
#807 = ORIENTED_EDGE('',*,*,#688,.T.);
#808 = ( BOUNDED_SURFACE() B_SPLINE_SURFACE(6,10,(
    (#809,#810,#811,#812,#813,#814,#815,#816,#817,#818,#819)
    ,(#820,#821,#822,#823,#824,#825,#826,#827,#828,#829,#830)
    ,(#831,#832,#833,#834,#835,#836,#837,#838,#839,#840,#841)
    ,(#842,#843,#844,#845,#846,#847,#848,#849,#850,#851,#852)
    ,(#853,#854,#855,#856,#857,#858,#859,#860,#861,#862,#863)
    ,(#864,#865,#866,#867,#868,#869,#870,#871,#872,#873,#874)
    ,(#875,#876,#877,#878,#879,#880,#881,#882,#883,#884,#885
)),.UNSPECIFIED.,.T.,.F.,.F.) B_SPLINE_SURFACE_WITH_KNOTS((7,7),(11,11),
  (1.570796326795,7.853981633974),(0.,6.289200474175),
.PIECEWISE_BEZIER_KNOTS.) GEOMETRIC_REPRESENTATION_ITEM() 
RATIONAL_B_SPLINE_SURFACE((
    (1.669078461068,1.669078461068,1.669078461068,1.669078461069
      ,1.669078461068,1.669078461069,1.669078461068,1.669078461069
      ,1.669078461068,1.669078461068,1.669078461068)
    ,(1.03672962321,1.03672962321,1.03672962321,1.03672962321
      ,1.036729623209,1.03672962321,1.036729623209,1.03672962321
      ,1.03672962321,1.03672962321,1.03672962321)
    ,(1.038346699848,1.038346699848,1.038346699847,1.038346699848
      ,1.038346699847,1.038346699848,1.038346699847,1.038346699848
      ,1.038346699847,1.038346699848,1.038346699848)
    ,(0.853534330196,0.853534330196,0.853534330196,0.853534330196
      ,0.853534330196,0.853534330196,0.853534330196,0.853534330196
      ,0.853534330196,0.853534330196,0.853534330196)
    ,(1.038346699848,1.038346699848,1.038346699847,1.038346699848
      ,1.038346699847,1.038346699848,1.038346699847,1.038346699848
      ,1.038346699847,1.038346699848,1.038346699848)
    ,(1.03672962321,1.03672962321,1.03672962321,1.03672962321
      ,1.036729623209,1.03672962321,1.036729623209,1.03672962321
      ,1.03672962321,1.03672962321,1.03672962321)
    ,(1.669078461068,1.669078461068,1.669078461068,1.669078461069
      ,1.669078461068,1.669078461069,1.669078461068,1.669078461069
      ,1.669078461068,1.669078461068,1.669078461068
))) REPRESENTATION_ITEM('') SURFACE() );
#809 = CARTESIAN_POINT('',(1.75319822266,0.742493111904,2.449249695631)
  );
#810 = CARTESIAN_POINT('',(1.286676019803,1.844060051074,2.559249696067)
  );
#811 = CARTESIAN_POINT('',(5.090538262539E-02,2.620888989885,
    2.669249693387));
#812 = CARTESIAN_POINT('',(-1.696719416013,2.460213783517,2.779249703352
    ));
#813 = CARTESIAN_POINT('',(-3.163239424085,1.027338547187,2.889249679331
    ));
#814 = CARTESIAN_POINT('',(-3.244504390231,-1.374072560376,
    2.999249719077));
#815 = CARTESIAN_POINT('',(-1.463262932392,-2.986698932069,
    3.109249672617));
#816 = CARTESIAN_POINT('',(0.586285603266,-2.930490807736,3.219249711362
    ));
#817 = CARTESIAN_POINT('',(1.917744691802,-1.78715048521,3.329249688563)
  );
#818 = CARTESIAN_POINT('',(2.219720319874,-0.359073832887,3.439249697596
    ));
#819 = CARTESIAN_POINT('',(1.753198228954,0.742493111535,3.549249695486)
  );
#820 = CARTESIAN_POINT('',(0.922434314445,0.746053561351,2.449249695631)
  );
#821 = CARTESIAN_POINT('',(0.453675015055,1.325636142384,2.559249696257)
  );
#822 = CARTESIAN_POINT('',(-0.419999069084,1.578499470885,2.66924969265)
  );
#823 = CARTESIAN_POINT('',(-1.439100461303,1.181876780224,2.779249704969
    ));
#824 = CARTESIAN_POINT('',(-2.071166462387,7.160234608489E-02,
    2.889249676953));
#825 = CARTESIAN_POINT('',(-1.707076205797,-1.380661599026,
    2.999249721571));
#826 = CARTESIAN_POINT('',(-0.363038138167,-2.040358378708,
    3.109249670708));
#827 = CARTESIAN_POINT('',(0.854852167913,-1.654408906159,3.219249712444
    ));
#828 = CARTESIAN_POINT('',(1.455792223993,-0.740762971186,3.329249688125
    ));
#829 = CARTESIAN_POINT('',(1.391193507818,0.166470974678,3.439249697703)
  );
#830 = CARTESIAN_POINT('',(0.922434320738,0.746053560982,3.549249695485)
  );
#831 = CARTESIAN_POINT('',(0.803150756082,0.746564781296,3.476523790904)
  );
#832 = CARTESIAN_POINT('',(0.334070247752,1.251199292202,3.586523791322)
  );
#833 = CARTESIAN_POINT('',(-0.487612934164,1.428830076512,3.696523788752
    ));
#834 = CARTESIAN_POINT('',(-1.402110763408,0.998329342661,3.806523798327
    ));
#835 = CARTESIAN_POINT('',(-1.914363371931,-6.562510655476E-02,
    3.916523775285));
#836 = CARTESIAN_POINT('',(-1.486327683237,-1.381607672908,
    4.026523813362));
#837 = CARTESIAN_POINT('',(-0.205064583478,-1.904479981057,
    4.136523768838));
#838 = CARTESIAN_POINT('',(0.893413756518,-1.471185262897,4.246523806027
    ));
#839 = CARTESIAN_POINT('',(1.389463711278,-0.590519532737,4.356523784094
    ));
#840 = CARTESIAN_POINT('',(1.272231158496,0.241930264739,4.466523792812)
  );
#841 = CARTESIAN_POINT('',(0.803150762375,0.746564780927,4.576523790758)
  );
#842 = CARTESIAN_POINT('',(1.753198222656,0.742493111904,4.323808156138)
  );
#843 = CARTESIAN_POINT('',(1.2866760196,1.844060051075,4.433808156657));
#844 = CARTESIAN_POINT('',(5.090538342029E-02,2.620888989878,
    4.543808153627));
#845 = CARTESIAN_POINT('',(-1.696719417825,2.460213783526,4.65380816437)
  );
#846 = CARTESIAN_POINT('',(-3.163239421146,1.02733854717,4.763808139216)
  );
#847 = CARTESIAN_POINT('',(-3.244504393779,-1.374072560361,
    4.873808180062));
#848 = CARTESIAN_POINT('',(-1.463262929192,-2.986698932075,
    4.983808132921));
#849 = CARTESIAN_POINT('',(0.586285601164,-2.930490807731,5.093808171864
    ));
#850 = CARTESIAN_POINT('',(1.917744692749,-1.787150485208,5.203808149121
    ));
#851 = CARTESIAN_POINT('',(2.219720319627,-0.359073832887,5.313808158085
    ));
#852 = CARTESIAN_POINT('',(1.753198228948,0.742493111535,5.423808155991)
  );
#853 = CARTESIAN_POINT('',(2.703245689236,0.738421442512,3.476523790907)
  );
#854 = CARTESIAN_POINT('',(2.239281791575,2.436920809942,3.586523791402)
  );
#855 = CARTESIAN_POINT('',(0.589423700552,3.812947903271,3.696523788473)
  );
#856 = CARTESIAN_POINT('',(-1.991328071316,3.922098224337,3.806523798901
    ));
#857 = CARTESIAN_POINT('',(-4.412115471762,2.120302200982,3.916523774491
    ));
#858 = CARTESIAN_POINT('',(-5.002681102635,-1.366537447906,
    4.026523814155));
#859 = CARTESIAN_POINT('',(-2.721461276486,-4.068917883028,
    4.136523768249));
#860 = CARTESIAN_POINT('',(0.27915744691,-4.3897963526,4.246523806369));
#861 = CARTESIAN_POINT('',(2.446025673698,-2.98378143767,4.356523783955)
  );
#862 = CARTESIAN_POINT('',(3.167209480907,-0.960077930515,4.466523792847
    ));
#863 = CARTESIAN_POINT('',(2.703245695528,0.738421442143,4.576523790762)
  );
#864 = CARTESIAN_POINT('',(2.583962130877,0.738932662457,2.449249695632)
  );
#865 = CARTESIAN_POINT('',(2.119677024079,2.362483959768,2.559249696047)
  );
#866 = CARTESIAN_POINT('',(0.521809836239,3.663278508871,2.669249693544)
  );
#867 = CARTESIAN_POINT('',(-1.954338375114,3.738550786838,2.779249702872
    ));
#868 = CARTESIAN_POINT('',(-4.255312378726,1.983074748253,2.88924968029)
  );
#869 = CARTESIAN_POINT('',(-4.781932582992,-1.367483521689,
    2.999249717795));
#870 = CARTESIAN_POINT('',(-2.563487719219,-3.933039485457,
    3.109249673828));
#871 = CARTESIAN_POINT('',(0.317719033766,-4.206572709296,3.219249710568
    ));
#872 = CARTESIAN_POINT('',(2.379697161818,-2.833537999242,3.329249688918
    ));
#873 = CARTESIAN_POINT('',(3.048247131354,-0.884618640451,3.439249697509
    ));
#874 = CARTESIAN_POINT('',(2.58396213717,0.738932662088,3.549249695487)
  );
#875 = CARTESIAN_POINT('',(1.75319822266,0.742493111904,2.449249695631)
  );
#876 = CARTESIAN_POINT('',(1.286676019803,1.844060051074,2.559249696067)
  );
#877 = CARTESIAN_POINT('',(5.090538262539E-02,2.620888989885,
    2.669249693387));
#878 = CARTESIAN_POINT('',(-1.696719416013,2.460213783517,2.779249703352
    ));
#879 = CARTESIAN_POINT('',(-3.163239424085,1.027338547187,2.889249679331
    ));
#880 = CARTESIAN_POINT('',(-3.244504390231,-1.374072560376,
    2.999249719077));
#881 = CARTESIAN_POINT('',(-1.463262932392,-2.986698932069,
    3.109249672617));
#882 = CARTESIAN_POINT('',(0.586285603266,-2.930490807736,3.219249711362
    ));
#883 = CARTESIAN_POINT('',(1.917744691802,-1.78715048521,3.329249688563)
  );
#884 = CARTESIAN_POINT('',(2.219720319874,-0.359073832887,3.439249697596
    ));
#885 = CARTESIAN_POINT('',(1.753198228954,0.742493111535,3.549249695486)
  );
#886 = ADVANCED_FACE('',(#887),#915,.T.);
#887 = FACE_BOUND('',#888,.T.);
#888 = EDGE_LOOP('',(#889,#903,#913,#914));
#889 = ORIENTED_EDGE('',*,*,#890,.T.);
#890 = EDGE_CURVE('',#782,#891,#893,.T.);
#891 = VERTEX_POINT('',#892);
#892 = CARTESIAN_POINT('',(-0.586961823898,-1.811208396326,
    4.249249695569));
#893 = ( BOUNDED_CURVE() B_SPLINE_CURVE(8,(#894,#895,#896,#897,#898,#899
,#900,#901,#902),.UNSPECIFIED.,.F.,.F.) B_SPLINE_CURVE_WITH_KNOTS((9,9),
(0.,4.002218483566),.PIECEWISE_BEZIER_KNOTS.) CURVE() 
GEOMETRIC_REPRESENTATION_ITEM() RATIONAL_B_SPLINE_CURVE((1.669078461068,
    1.669078461068,1.669078461068,1.669078461068,1.669078461068,
    1.669078461068,1.669078461068,1.669078461068,1.669078461068)) 
REPRESENTATION_ITEM('') );
#894 = CARTESIAN_POINT('',(1.753198228954,0.742493111534,3.549249695486)
  );
#895 = CARTESIAN_POINT('',(1.382100972263,1.618739522093,3.636749697003)
  );
#896 = CARTESIAN_POINT('',(0.509996014714,2.282613348194,3.724249691726)
  );
#897 = CARTESIAN_POINT('',(-0.717783310811,2.403632752889,3.811749701404
    ));
#898 = CARTESIAN_POINT('',(-1.909956875515,1.750245876709,3.899249690588
    ));
#899 = CARTESIAN_POINT('',(-2.457018664949,0.505690631559,3.986749698019
    ));
#900 = CARTESIAN_POINT('',(-2.229515436619,-0.706880529801,
    4.074249695164));
#901 = CARTESIAN_POINT('',(-1.492201652655,-1.517845567551,
    4.161749695579));
#902 = CARTESIAN_POINT('',(-0.586961823898,-1.811208396326,
    4.249249695569));
#903 = ORIENTED_EDGE('',*,*,#904,.F.);
#904 = EDGE_CURVE('',#891,#891,#905,.T.);
#905 = ( BOUNDED_CURVE() B_SPLINE_CURVE(6,(#906,#907,#908,#909,#910,#911
,#912),.UNSPECIFIED.,.T.,.F.) B_SPLINE_CURVE_WITH_KNOTS((7,7),(
1.570796326795,7.853981633974),.PIECEWISE_BEZIER_KNOTS.) CURVE() 
GEOMETRIC_REPRESENTATION_ITEM() RATIONAL_B_SPLINE_CURVE((1.669078461068,
    1.03672962321,1.038346699848,0.853534330196,1.038346699848,
1.03672962321,1.669078461068)) REPRESENTATION_ITEM('') );
#906 = CARTESIAN_POINT('',(-0.586961823898,-1.811208396326,
    4.249249695569));
#907 = CARTESIAN_POINT('',(-4.023635307567E-02,-1.185690524839,
    4.249249695569));
#908 = CARTESIAN_POINT('',(3.826411975706E-02,-1.095876804246,
    5.276523790841));
#909 = CARTESIAN_POINT('',(-0.586961823896,-1.811208396321,
    6.123808156074));
#910 = CARTESIAN_POINT('',(-1.212187767552,-2.526539988399,
    5.276523790842));
#911 = CARTESIAN_POINT('',(-1.133687294722,-2.43672626781,4.249249695571
    ));
#912 = CARTESIAN_POINT('',(-0.586961823898,-1.811208396326,
    4.249249695569));
#913 = ORIENTED_EDGE('',*,*,#890,.F.);
#914 = ORIENTED_EDGE('',*,*,#797,.T.);
#915 = ( BOUNDED_SURFACE() B_SPLINE_SURFACE(6,8,(
    (#916,#917,#918,#919,#920,#921,#922,#923,#924)
    ,(#925,#926,#927,#928,#929,#930,#931,#932,#933)
    ,(#934,#935,#936,#937,#938,#939,#940,#941,#942)
    ,(#943,#944,#945,#946,#947,#948,#949,#950,#951)
    ,(#952,#953,#954,#955,#956,#957,#958,#959,#960)
    ,(#961,#962,#963,#964,#965,#966,#967,#968,#969)
    ,(#970,#971,#972,#973,#974,#975,#976,#977,#978
)),.UNSPECIFIED.,.T.,.F.,.F.) B_SPLINE_SURFACE_WITH_KNOTS((7,7),(9,9),(
    1.570796326795,7.853981633974),(0.,4.002218483566),
.PIECEWISE_BEZIER_KNOTS.) GEOMETRIC_REPRESENTATION_ITEM() 
RATIONAL_B_SPLINE_SURFACE((
    (1.669078461068,1.669078461068,1.669078461068,1.669078461068
      ,1.669078461068,1.669078461068,1.669078461068,1.669078461068
      ,1.669078461068)
    ,(1.03672962321,1.03672962321,1.03672962321,1.03672962321
      ,1.03672962321,1.03672962321,1.03672962321,1.03672962321
      ,1.03672962321)
    ,(1.038346699848,1.038346699848,1.038346699848,1.038346699848
      ,1.038346699848,1.038346699848,1.038346699848,1.038346699848
      ,1.038346699848)
    ,(0.853534330196,0.853534330196,0.853534330196,0.853534330196
      ,0.853534330196,0.853534330196,0.853534330196,0.853534330196
      ,0.853534330196)
    ,(1.038346699848,1.038346699848,1.038346699847,1.038346699848
      ,1.038346699847,1.038346699848,1.038346699848,1.038346699848
      ,1.038346699848)
    ,(1.03672962321,1.03672962321,1.03672962321,1.03672962321
      ,1.03672962321,1.03672962321,1.03672962321,1.03672962321
      ,1.03672962321)
    ,(1.669078461068,1.669078461068,1.669078461068,1.669078461068
      ,1.669078461068,1.669078461068,1.669078461068,1.669078461068
,1.669078461068))) REPRESENTATION_ITEM('') SURFACE() );
#916 = CARTESIAN_POINT('',(1.753198228954,0.742493111534,3.549249695486)
  );
#917 = CARTESIAN_POINT('',(1.382100972263,1.618739522093,3.636749697003)
  );
#918 = CARTESIAN_POINT('',(0.509996014714,2.282613348194,3.724249691726)
  );
#919 = CARTESIAN_POINT('',(-0.717783310811,2.403632752889,3.811749701404
    ));
#920 = CARTESIAN_POINT('',(-1.909956875515,1.750245876709,3.899249690588
    ));
#921 = CARTESIAN_POINT('',(-2.457018664949,0.505690631559,3.986749698019
    ));
#922 = CARTESIAN_POINT('',(-2.229515436619,-0.706880529801,
    4.074249695164));
#923 = CARTESIAN_POINT('',(-1.492201652655,-1.517845567551,
    4.161749695579));
#924 = CARTESIAN_POINT('',(-0.586961823898,-1.811208396326,
    4.249249695569));
#925 = CARTESIAN_POINT('',(0.922434320738,0.746053560982,3.549249695486)
  );
#926 = CARTESIAN_POINT('',(0.549557555577,1.207085141162,3.636749697056)
  );
#927 = CARTESIAN_POINT('',(-8.688816690892E-02,1.454803621442,
    3.72424969154));
#928 = CARTESIAN_POINT('',(-0.843053178403,1.316251418013,3.811749701781
    ));
#929 = CARTESIAN_POINT('',(-1.444784266871,0.7199979763,3.899249690084)
  );
#930 = CARTESIAN_POINT('',(-1.558521610862,-0.119444354842,
    3.986749698489));
#931 = CARTESIAN_POINT('',(-1.213839952131,-0.806595021894,
    4.074249694881));
#932 = CARTESIAN_POINT('',(-0.632843080699,-1.165580447356,
    4.161749695671));
#933 = CARTESIAN_POINT('',(-4.023635307567E-02,-1.185690524839,
    4.249249695569));
#934 = CARTESIAN_POINT('',(0.803150762375,0.746564780927,4.576523790757)
  );
#935 = CARTESIAN_POINT('',(0.430018490087,1.147978577987,4.664023792308)
  );
#936 = CARTESIAN_POINT('',(-0.172590576937,1.335944233469,4.751523786867
    ));
#937 = CARTESIAN_POINT('',(-0.861039799439,1.160121964147,4.83902379694)
  );
#938 = CARTESIAN_POINT('',(-1.377993397064,0.572071912293,4.926523785522
    ));
#939 = CARTESIAN_POINT('',(-1.429512725507,-0.209203100213,
    5.014023793576));
#940 = CARTESIAN_POINT('',(-1.068006238463,-0.820912325562,
    5.101523790285));
#941 = CARTESIAN_POINT('',(-0.509453815271,-1.115001171444,
    5.189023790899));
#942 = CARTESIAN_POINT('',(3.826411975706E-02,-1.095876804246,
    5.276523790841));
#943 = CARTESIAN_POINT('',(1.753198228951,0.742493111537,5.423808155991)
  );
#944 = CARTESIAN_POINT('',(1.382100972279,1.618739522075,5.511308157517)
  );
#945 = CARTESIAN_POINT('',(0.509996014645,2.282613348266,5.598808152191)
  );
#946 = CARTESIAN_POINT('',(-0.717783310687,2.403632752771,5.686308162022
    ));
#947 = CARTESIAN_POINT('',(-1.90995687564,1.750245876815,5.773808150877)
  );
#948 = CARTESIAN_POINT('',(-2.457018664885,0.505690631489,5.861308158775
    ));
#949 = CARTESIAN_POINT('',(-2.229515436619,-0.706880529776,
    5.948808155505));
#950 = CARTESIAN_POINT('',(-1.492201652663,-1.517845567554,
    6.036308156142));
#951 = CARTESIAN_POINT('',(-0.586961823896,-1.811208396321,
    6.123808156074));
#952 = CARTESIAN_POINT('',(2.703245695529,0.738421442144,4.576523790761)
  );
#953 = CARTESIAN_POINT('',(2.334183454442,2.089500466196,4.664023792324)
  );
#954 = CARTESIAN_POINT('',(1.192582606342,3.229282462946,4.751523786826)
  );
#955 = CARTESIAN_POINT('',(-0.574526822138,3.647143541567,4.839023797006
    ));
#956 = CARTESIAN_POINT('',(-2.441920353994,2.92841984122,4.926523785441)
  );
#957 = CARTESIAN_POINT('',(-3.484524604391,1.220584363202,5.014023793658
    ));
#958 = CARTESIAN_POINT('',(-3.391024634762,-0.592848733931,
    5.101523790242));
#959 = CARTESIAN_POINT('',(-2.474949490042,-1.920689963702,
    5.189023790917));
#960 = CARTESIAN_POINT('',(-1.212187767552,-2.526539988399,
    5.276523790842));
#961 = CARTESIAN_POINT('',(2.58396213717,0.738932662088,3.549249695488)
  );
#962 = CARTESIAN_POINT('',(2.214644388932,2.030393903106,3.636749697056)
  );
#963 = CARTESIAN_POINT('',(1.106880196349,3.110423074699,3.724249691526)
  );
#964 = CARTESIAN_POINT('',(-0.592513443225,3.49101408826,3.811749701823)
  );
#965 = CARTESIAN_POINT('',(-2.37512948414,2.78049377645,3.899249690017)
  );
#966 = CARTESIAN_POINT('',(-3.355515719085,1.130825618575,3.986749698543
    ));
#967 = CARTESIAN_POINT('',(-3.245190921058,-0.607166038076,4.07424969486
    ));
#968 = CARTESIAN_POINT('',(-2.351560224633,-1.870110687635,
    4.161749695675));
#969 = CARTESIAN_POINT('',(-1.133687294722,-2.43672626781,4.249249695571
    ));
#970 = CARTESIAN_POINT('',(1.753198228954,0.742493111534,3.549249695486)
  );
#971 = CARTESIAN_POINT('',(1.382100972263,1.618739522093,3.636749697003)
  );
#972 = CARTESIAN_POINT('',(0.509996014714,2.282613348194,3.724249691726)
  );
#973 = CARTESIAN_POINT('',(-0.717783310811,2.403632752889,3.811749701404
    ));
#974 = CARTESIAN_POINT('',(-1.909956875515,1.750245876709,3.899249690588
    ));
#975 = CARTESIAN_POINT('',(-2.457018664949,0.505690631559,3.986749698019
    ));
#976 = CARTESIAN_POINT('',(-2.229515436619,-0.706880529801,
    4.074249695164));
#977 = CARTESIAN_POINT('',(-1.492201652655,-1.517845567551,
    4.161749695579));
#978 = CARTESIAN_POINT('',(-0.586961823898,-1.811208396326,
    4.249249695569));
#979 = ADVANCED_FACE('',(#980),#983,.T.);
#980 = FACE_BOUND('',#981,.T.);
#981 = EDGE_LOOP('',(#982));
#982 = ORIENTED_EDGE('',*,*,#904,.T.);
#983 = PLANE('',#984);
#984 = AXIS2_PLACEMENT_3D('',#985,#986,#987);
#985 = CARTESIAN_POINT('',(-0.586961823898,-1.811208396324,
    4.749249695568));
#986 = DIRECTION('',(0.752936087764,-0.658093646636,-9.805E-14));
#987 = DIRECTION('',(-0.658093646636,-0.752936087764,1.49044E-12));
#988 = ( GEOMETRIC_REPRESENTATION_CONTEXT(3) 
GLOBAL_UNCERTAINTY_ASSIGNED_CONTEXT((#992)) GLOBAL_UNIT_ASSIGNED_CONTEXT
((#989,#990,#991)) REPRESENTATION_CONTEXT('Context #1',
  '3D Context with UNIT and UNCERTAINTY') );
#989 = ( LENGTH_UNIT() NAMED_UNIT(*) SI_UNIT(.MILLI.,.METRE.) );
#990 = ( NAMED_UNIT(*) PLANE_ANGLE_UNIT() SI_UNIT($,.RADIAN.) );
#991 = ( NAMED_UNIT(*) SI_UNIT($,.STERADIAN.) SOLID_ANGLE_UNIT() );
#992 = UNCERTAINTY_MEASURE_WITH_UNIT(LENGTH_MEASURE(1.E-04),#989,
  'distance_accuracy_value','confusion accuracy');
#993 = PRODUCT_RELATED_PRODUCT_CATEGORY('part',$,(#7));
#994 = MECHANICAL_DESIGN_GEOMETRIC_PRESENTATION_REPRESENTATION('',(#995)
  ,#988);
#995 = STYLED_ITEM('color',(#996),#15);
#996 = PRESENTATION_STYLE_ASSIGNMENT((#997,#1003));
#997 = SURFACE_STYLE_USAGE(.BOTH.,#998);
#998 = SURFACE_SIDE_STYLE('',(#999));
#999 = SURFACE_STYLE_FILL_AREA(#1000);
#1000 = FILL_AREA_STYLE('',(#1001));
#1001 = FILL_AREA_STYLE_COLOUR('',#1002);
#1002 = COLOUR_RGB('',0.500000003429,0.109999998779,0.);
#1003 = CURVE_STYLE('',#1004,POSITIVE_LENGTH_MEASURE(0.1),#1005);
#1004 = DRAUGHTING_PRE_DEFINED_CURVE_FONT('continuous');
#1005 = COLOUR_RGB('',9.803921802644E-02,9.803921802644E-02,
  9.803921802644E-02);
ENDSEC;
END-ISO-10303-21;
